G04 #@! TF.GenerationSoftware,KiCad,Pcbnew,(5.0.1)-3*
G04 #@! TF.CreationDate,2018-11-23T15:23:08+01:00*
G04 #@! TF.ProjectId,hwpboard,687770626F6172642E6B696361645F70,rev?*
G04 #@! TF.SameCoordinates,PX67c4f10PY2830160*
G04 #@! TF.FileFunction,Copper,L2,Bot,Signal*
G04 #@! TF.FilePolarity,Positive*
%FSLAX45Y45*%
G04 Gerber Fmt 4.5, Leading zero omitted, Abs format (unit mm)*
G04 Created by KiCad (PCBNEW (5.0.1)-3) date 23/11/2018 15:23:08*
%MOMM*%
%LPD*%
G01*
G04 APERTURE LIST*
G04 #@! TA.AperFunction,ComponentPad*
%ADD10R,2.600000X1.800000*%
G04 #@! TD*
G04 #@! TA.AperFunction,ComponentPad*
%ADD11O,2.600000X1.800000*%
G04 #@! TD*
G04 #@! TA.AperFunction,ComponentPad*
%ADD12C,1.700000*%
G04 #@! TD*
G04 #@! TA.AperFunction,ComponentPad*
%ADD13R,1.700000X1.700000*%
G04 #@! TD*
G04 #@! TA.AperFunction,ComponentPad*
%ADD14R,4.100000X4.100000*%
G04 #@! TD*
G04 #@! TA.AperFunction,ComponentPad*
%ADD15C,4.000000*%
G04 #@! TD*
G04 #@! TA.AperFunction,ComponentPad*
%ADD16C,6.000000*%
G04 #@! TD*
G04 #@! TA.AperFunction,ComponentPad*
%ADD17O,1.700000X1.700000*%
G04 #@! TD*
G04 #@! TA.AperFunction,ComponentPad*
%ADD18C,2.000000*%
G04 #@! TD*
G04 #@! TA.AperFunction,ComponentPad*
%ADD19C,2.800000*%
G04 #@! TD*
G04 #@! TA.AperFunction,ComponentPad*
%ADD20R,2.000000X2.000000*%
G04 #@! TD*
G04 #@! TA.AperFunction,ComponentPad*
%ADD21R,1.600000X1.600000*%
G04 #@! TD*
G04 #@! TA.AperFunction,ComponentPad*
%ADD22C,1.600000*%
G04 #@! TD*
G04 #@! TA.AperFunction,ViaPad*
%ADD23C,1.000000*%
G04 #@! TD*
G04 #@! TA.AperFunction,Conductor*
%ADD24C,0.609600*%
G04 #@! TD*
G04 #@! TA.AperFunction,Conductor*
%ADD25C,0.304800*%
G04 #@! TD*
G04 #@! TA.AperFunction,Conductor*
%ADD26C,0.254000*%
G04 #@! TD*
G04 APERTURE END LIST*
D10*
G04 #@! TO.P,LCD1,1*
G04 #@! TO.N,GND*
X2160000Y-7238000D03*
D11*
G04 #@! TO.P,LCD1,2*
G04 #@! TO.N,+5V*
X2160000Y-6984000D03*
G04 #@! TO.P,LCD1,3*
G04 #@! TO.N,DAC0*
X2160000Y-6730000D03*
G04 #@! TO.P,LCD1,4*
G04 #@! TO.N,RS*
X2160000Y-6476000D03*
G04 #@! TO.P,LCD1,5*
G04 #@! TO.N,GND*
X2160000Y-6222000D03*
G04 #@! TO.P,LCD1,6*
G04 #@! TO.N,E*
X2160000Y-5968000D03*
G04 #@! TO.P,LCD1,7*
G04 #@! TO.N,d0*
X2160000Y-5714000D03*
G04 #@! TO.P,LCD1,8*
G04 #@! TO.N,d1*
X2160000Y-5460000D03*
G04 #@! TO.P,LCD1,9*
G04 #@! TO.N,d2*
X2160000Y-5206000D03*
G04 #@! TO.P,LCD1,10*
G04 #@! TO.N,d3*
X2160000Y-4952000D03*
G04 #@! TO.P,LCD1,11*
G04 #@! TO.N,d4*
X2160000Y-4698000D03*
G04 #@! TO.P,LCD1,12*
G04 #@! TO.N,d5*
X2160000Y-4444000D03*
G04 #@! TO.P,LCD1,13*
G04 #@! TO.N,d6*
X2160000Y-4190000D03*
G04 #@! TO.P,LCD1,14*
G04 #@! TO.N,d7*
X2160000Y-3936000D03*
G04 #@! TO.P,LCD1,15*
G04 #@! TO.N,+5V*
X2160000Y-3682000D03*
G04 #@! TO.P,LCD1,16*
G04 #@! TO.N,brightness*
X2160000Y-3428000D03*
G04 #@! TD*
D12*
G04 #@! TO.P,NUCBRD1,76*
G04 #@! TO.N,N/C*
X7748000Y-7238000D03*
G04 #@! TO.P,NUCBRD1,75*
X7748000Y-6984000D03*
G04 #@! TO.P,NUCBRD1,74*
X7494000Y-7238000D03*
G04 #@! TO.P,NUCBRD1,73*
X7494000Y-6984000D03*
G04 #@! TO.P,NUCBRD1,72*
X7240000Y-7238000D03*
G04 #@! TO.P,NUCBRD1,71*
X7240000Y-6984000D03*
G04 #@! TO.P,NUCBRD1,70*
G04 #@! TO.N,GND*
X6986000Y-7238000D03*
G04 #@! TO.P,NUCBRD1,69*
G04 #@! TO.N,N/C*
X6986000Y-6984000D03*
G04 #@! TO.P,NUCBRD1,68*
X6732000Y-7238000D03*
G04 #@! TO.P,NUCBRD1,67*
G04 #@! TO.N,btn1*
X6732000Y-6984000D03*
G04 #@! TO.P,NUCBRD1,66*
G04 #@! TO.N,N/C*
X6478000Y-7238000D03*
G04 #@! TO.P,NUCBRD1,65*
G04 #@! TO.N,btn0*
X6478000Y-6984000D03*
G04 #@! TO.P,NUCBRD1,64*
G04 #@! TO.N,N/C*
X6224000Y-7238000D03*
G04 #@! TO.P,NUCBRD1,63*
G04 #@! TO.N,rotary0*
X6224000Y-6984000D03*
G04 #@! TO.P,NUCBRD1,62*
G04 #@! TO.N,N/C*
X5970000Y-7238000D03*
G04 #@! TO.P,NUCBRD1,61*
G04 #@! TO.N,rotary1*
X5970000Y-6984000D03*
G04 #@! TO.P,NUCBRD1,60*
G04 #@! TO.N,N/C*
X5716000Y-7238000D03*
G04 #@! TO.P,NUCBRD1,59*
X5716000Y-6984000D03*
G04 #@! TO.P,NUCBRD1,58*
G04 #@! TO.N,GND*
X5462000Y-7238000D03*
G04 #@! TO.P,NUCBRD1,57*
G04 #@! TO.N,N/C*
X5462000Y-6984000D03*
G04 #@! TO.P,NUCBRD1,56*
X5208000Y-7238000D03*
G04 #@! TO.P,NUCBRD1,55*
G04 #@! TO.N,d7*
X5208000Y-6984000D03*
G04 #@! TO.P,NUCBRD1,54*
G04 #@! TO.N,d6*
X4954000Y-7238000D03*
G04 #@! TO.P,NUCBRD1,53*
G04 #@! TO.N,d5*
X4954000Y-6984000D03*
G04 #@! TO.P,NUCBRD1,52*
G04 #@! TO.N,N/C*
X4700000Y-7238000D03*
G04 #@! TO.P,NUCBRD1,51*
G04 #@! TO.N,d4*
X4700000Y-6984000D03*
G04 #@! TO.P,NUCBRD1,50*
G04 #@! TO.N,N/C*
X4446000Y-7238000D03*
G04 #@! TO.P,NUCBRD1,49*
G04 #@! TO.N,d3*
X4446000Y-6984000D03*
G04 #@! TO.P,NUCBRD1,48*
G04 #@! TO.N,N/C*
X4192000Y-7238000D03*
G04 #@! TO.P,NUCBRD1,47*
G04 #@! TO.N,GND*
X4192000Y-6984000D03*
G04 #@! TO.P,NUCBRD1,46*
G04 #@! TO.N,N/C*
X3938000Y-7238000D03*
G04 #@! TO.P,NUCBRD1,45*
X3938000Y-6984000D03*
G04 #@! TO.P,NUCBRD1,44*
G04 #@! TO.N,d2*
X3684000Y-7238000D03*
G04 #@! TO.P,NUCBRD1,43*
G04 #@! TO.N,d1*
X3684000Y-6984000D03*
G04 #@! TO.P,NUCBRD1,42*
G04 #@! TO.N,d0*
X3430000Y-7238000D03*
G04 #@! TO.P,NUCBRD1,41*
G04 #@! TO.N,PWM_LCD*
X3430000Y-6984000D03*
G04 #@! TO.P,NUCBRD1,40*
G04 #@! TO.N,RS*
X3176000Y-7238000D03*
G04 #@! TO.P,NUCBRD1,39*
G04 #@! TO.N,E*
X3176000Y-6984000D03*
G04 #@! TO.P,NUCBRD1,38*
G04 #@! TO.N,humid_out*
X7748000Y-1142000D03*
G04 #@! TO.P,NUCBRD1,37*
G04 #@! TO.N,N/C*
X7748000Y-888000D03*
G04 #@! TO.P,NUCBRD1,36*
G04 #@! TO.N,temp_out*
X7494000Y-1142000D03*
G04 #@! TO.P,NUCBRD1,35*
G04 #@! TO.N,N/C*
X7494000Y-888000D03*
G04 #@! TO.P,NUCBRD1,34*
X7240000Y-1142000D03*
G04 #@! TO.P,NUCBRD1,33*
X7240000Y-888000D03*
G04 #@! TO.P,NUCBRD1,32*
G04 #@! TO.N,DAC0*
X6986000Y-1142000D03*
G04 #@! TO.P,NUCBRD1,31*
G04 #@! TO.N,N/C*
X6986000Y-888000D03*
G04 #@! TO.P,NUCBRD1,30*
X6732000Y-1142000D03*
G04 #@! TO.P,NUCBRD1,29*
X6732000Y-888000D03*
G04 #@! TO.P,NUCBRD1,28*
X6478000Y-1142000D03*
G04 #@! TO.P,NUCBRD1,27*
X6478000Y-888000D03*
G04 #@! TO.P,NUCBRD1,26*
X6224000Y-1142000D03*
G04 #@! TO.P,NUCBRD1,25*
X6224000Y-888000D03*
G04 #@! TO.P,NUCBRD1,24*
X5970000Y-1142000D03*
G04 #@! TO.P,NUCBRD1,23*
X5970000Y-888000D03*
G04 #@! TO.P,NUCBRD1,22*
G04 #@! TO.N,GND*
X5716000Y-1142000D03*
G04 #@! TO.P,NUCBRD1,21*
G04 #@! TO.N,PWM_sensor*
X5716000Y-888000D03*
G04 #@! TO.P,NUCBRD1,20*
G04 #@! TO.N,GND*
X5462000Y-1142000D03*
G04 #@! TO.P,NUCBRD1,19*
X5462000Y-888000D03*
G04 #@! TO.P,NUCBRD1,18*
G04 #@! TO.N,+5V*
X5208000Y-1142000D03*
G04 #@! TO.P,NUCBRD1,17*
G04 #@! TO.N,N/C*
X5208000Y-888000D03*
G04 #@! TO.P,NUCBRD1,16*
X4954000Y-1142000D03*
G04 #@! TO.P,NUCBRD1,15*
X4954000Y-888000D03*
G04 #@! TO.P,NUCBRD1,14*
X4700000Y-1142000D03*
G04 #@! TO.P,NUCBRD1,13*
X4700000Y-888000D03*
G04 #@! TO.P,NUCBRD1,12*
X4446000Y-1142000D03*
G04 #@! TO.P,NUCBRD1,11*
X4446000Y-888000D03*
G04 #@! TO.P,NUCBRD1,10*
X4192000Y-1142000D03*
G04 #@! TO.P,NUCBRD1,9*
X4192000Y-888000D03*
G04 #@! TO.P,NUCBRD1,8*
G04 #@! TO.N,GND*
X3938000Y-1142000D03*
G04 #@! TO.P,NUCBRD1,7*
G04 #@! TO.N,N/C*
X3938000Y-888000D03*
G04 #@! TO.P,NUCBRD1,6*
G04 #@! TO.N,Net-(C1-Pad2)*
X3684000Y-1142000D03*
G04 #@! TO.P,NUCBRD1,5*
G04 #@! TO.N,N/C*
X3684000Y-888000D03*
G04 #@! TO.P,NUCBRD1,4*
X3430000Y-1142000D03*
G04 #@! TO.P,NUCBRD1,3*
X3430000Y-888000D03*
G04 #@! TO.P,NUCBRD1,2*
G04 #@! TO.N,Sensor_enable*
X3176000Y-1142000D03*
D13*
G04 #@! TO.P,NUCBRD1,1*
G04 #@! TO.N,N/C*
X3176000Y-888000D03*
G04 #@! TD*
D14*
G04 #@! TO.P,J1,1*
G04 #@! TO.N,Net-(C1-Pad2)*
X1398000Y-2348500D03*
D15*
G04 #@! TO.P,J1,2*
G04 #@! TO.N,GND*
X798000Y-2348500D03*
G04 #@! TO.P,J1,3*
G04 #@! TO.N,N/C*
X1098000Y-2818500D03*
G04 #@! TD*
D16*
G04 #@! TO.P,J2,1*
G04 #@! TO.N,N/C*
X400000Y-400000D03*
G04 #@! TD*
G04 #@! TO.P,J3,1*
G04 #@! TO.N,N/C*
X400000Y-7600000D03*
G04 #@! TD*
G04 #@! TO.P,J4,1*
G04 #@! TO.N,N/C*
X9600000Y-400000D03*
G04 #@! TD*
G04 #@! TO.P,J5,1*
G04 #@! TO.N,N/C*
X9600000Y-7600000D03*
G04 #@! TD*
D13*
G04 #@! TO.P,MoistureSensor1,1*
G04 #@! TO.N,GND*
X763000Y-3618500D03*
D17*
G04 #@! TO.P,MoistureSensor1,2*
G04 #@! TO.N,PWM_sensor*
X763000Y-3872500D03*
G04 #@! TO.P,MoistureSensor1,3*
G04 #@! TO.N,temp_out*
X763000Y-4126500D03*
G04 #@! TO.P,MoistureSensor1,4*
G04 #@! TO.N,humid_out*
X763000Y-4380500D03*
G04 #@! TO.P,MoistureSensor1,5*
G04 #@! TO.N,Sensor_enable*
X763000Y-4634500D03*
G04 #@! TD*
D18*
G04 #@! TO.P,PushButton1,1*
G04 #@! TO.N,GND*
X8637000Y-1762000D03*
G04 #@! TO.P,PushButton1,2*
G04 #@! TO.N,btn1*
X9087000Y-1762000D03*
G04 #@! TO.P,PushButton1,1*
G04 #@! TO.N,GND*
X8637000Y-2412000D03*
G04 #@! TO.P,PushButton1,2*
G04 #@! TO.N,btn1*
X9087000Y-2412000D03*
G04 #@! TD*
G04 #@! TO.P,RotaryEncoder1,S2*
G04 #@! TO.N,GND*
X9145000Y-4645000D03*
G04 #@! TO.P,RotaryEncoder1,S1*
G04 #@! TO.N,btn0*
X8645000Y-4645000D03*
D19*
G04 #@! TO.P,RotaryEncoder1,MP*
G04 #@! TO.N,N/C*
X9455000Y-5345000D03*
X8335000Y-5345000D03*
D18*
G04 #@! TO.P,RotaryEncoder1,B*
G04 #@! TO.N,rotary1*
X9145000Y-6095000D03*
G04 #@! TO.P,RotaryEncoder1,C*
G04 #@! TO.N,GND*
X8895000Y-6095000D03*
D20*
G04 #@! TO.P,RotaryEncoder1,A*
G04 #@! TO.N,rotary0*
X8645000Y-6095000D03*
G04 #@! TD*
D21*
G04 #@! TO.P,C3,1*
G04 #@! TO.N,Net-(C1-Pad2)*
X1271000Y-1015000D03*
D22*
G04 #@! TO.P,C3,2*
G04 #@! TO.N,GND*
X1021000Y-1015000D03*
G04 #@! TD*
D23*
G04 #@! TO.N,GND*
X1906000Y-5206000D03*
G04 #@! TD*
D24*
G04 #@! TO.N,+5V*
X5208000Y-1142000D02*
X5208000Y-3491500D01*
X5208000Y-3491500D02*
X5017500Y-3682000D01*
X2541000Y-6984000D02*
X2668000Y-6857000D01*
X2160000Y-6984000D02*
X2541000Y-6984000D01*
X2668000Y-3745500D02*
X2731500Y-3682000D01*
X5017500Y-3682000D02*
X2731500Y-3682000D01*
X2668000Y-3745500D02*
X2668000Y-3682000D01*
X2731500Y-3682000D02*
X2668000Y-3682000D01*
X2668000Y-6857000D02*
X2668000Y-3745500D01*
X2668000Y-3745500D02*
X2604500Y-3682000D01*
X2668000Y-3682000D02*
X2604500Y-3682000D01*
X2604500Y-3682000D02*
X2160000Y-3682000D01*
D25*
G04 #@! TO.N,DAC0*
X6986000Y-3682000D02*
X6986000Y-3628555D01*
X2922000Y-7365000D02*
X2922000Y-4190000D01*
X6986000Y-3628555D02*
X6986000Y-1142000D01*
X2160000Y-6730000D02*
X1906000Y-6730000D01*
X6732000Y-3936000D02*
X6986000Y-3682000D01*
X3176000Y-3936000D02*
X6732000Y-3936000D01*
X2922000Y-4190000D02*
X3176000Y-3936000D01*
X1906000Y-6730000D02*
X1779000Y-6857000D01*
X1779000Y-7365000D02*
X1906000Y-7492000D01*
X1779000Y-6857000D02*
X1779000Y-7365000D01*
X1906000Y-7492000D02*
X2795000Y-7492000D01*
X2795000Y-7492000D02*
X2922000Y-7365000D01*
D24*
G04 #@! TO.N,Net-(C1-Pad2)*
X3684000Y-1142000D02*
X3684000Y-2221500D01*
X3557000Y-2348500D02*
X1398000Y-2348500D01*
X3684000Y-2221500D02*
X3557000Y-2348500D01*
G04 #@! TD*
D26*
G04 #@! TO.N,GND*
G36*
X9336919Y-79435D02*
X9279435Y-136919D01*
X9234270Y-204513D01*
X9203160Y-279620D01*
X9187300Y-359353D01*
X9187300Y-440647D01*
X9203160Y-520380D01*
X9234270Y-595487D01*
X9279435Y-663081D01*
X9336919Y-720565D01*
X9404513Y-765730D01*
X9479620Y-796840D01*
X9559353Y-812700D01*
X9640647Y-812700D01*
X9720380Y-796840D01*
X9795487Y-765730D01*
X9863081Y-720565D01*
X9920565Y-663081D01*
X9929000Y-650457D01*
X9929000Y-7349543D01*
X9920565Y-7336919D01*
X9863081Y-7279435D01*
X9795487Y-7234270D01*
X9720380Y-7203160D01*
X9640647Y-7187300D01*
X9559353Y-7187300D01*
X9479620Y-7203160D01*
X9404513Y-7234270D01*
X9336919Y-7279435D01*
X9279435Y-7336919D01*
X9234270Y-7404513D01*
X9203160Y-7479620D01*
X9187300Y-7559353D01*
X9187300Y-7640647D01*
X9203160Y-7720380D01*
X9234270Y-7795487D01*
X9279435Y-7863081D01*
X9336919Y-7920565D01*
X9349543Y-7929000D01*
X650457Y-7929000D01*
X663081Y-7920565D01*
X720565Y-7863081D01*
X765730Y-7795487D01*
X796840Y-7720380D01*
X812700Y-7640647D01*
X812700Y-7559353D01*
X796840Y-7479620D01*
X765730Y-7404513D01*
X720565Y-7336919D01*
X663081Y-7279435D01*
X595487Y-7234270D01*
X520380Y-7203160D01*
X440647Y-7187300D01*
X359353Y-7187300D01*
X279620Y-7203160D01*
X204513Y-7234270D01*
X136919Y-7279435D01*
X79435Y-7336919D01*
X71000Y-7349543D01*
X71000Y-3872500D01*
X613782Y-3872500D01*
X616649Y-3901611D01*
X625140Y-3929603D01*
X638929Y-3955401D01*
X657487Y-3978013D01*
X680099Y-3996571D01*
X685579Y-3999500D01*
X680099Y-4002429D01*
X657487Y-4020987D01*
X638929Y-4043599D01*
X625140Y-4069397D01*
X616649Y-4097389D01*
X613782Y-4126500D01*
X616649Y-4155611D01*
X625140Y-4183603D01*
X638929Y-4209401D01*
X657487Y-4232013D01*
X680099Y-4250571D01*
X685579Y-4253500D01*
X680099Y-4256429D01*
X657487Y-4274987D01*
X638929Y-4297599D01*
X625140Y-4323397D01*
X616649Y-4351389D01*
X613782Y-4380500D01*
X616649Y-4409611D01*
X625140Y-4437603D01*
X638929Y-4463401D01*
X657487Y-4486013D01*
X680099Y-4504571D01*
X685579Y-4507500D01*
X680099Y-4510429D01*
X657487Y-4528987D01*
X638929Y-4551599D01*
X625140Y-4577397D01*
X616649Y-4605389D01*
X613782Y-4634500D01*
X616649Y-4663611D01*
X625140Y-4691603D01*
X638929Y-4717401D01*
X657487Y-4740013D01*
X680099Y-4758571D01*
X705897Y-4772360D01*
X733889Y-4780851D01*
X755705Y-4783000D01*
X770295Y-4783000D01*
X792111Y-4780851D01*
X820103Y-4772360D01*
X845901Y-4758571D01*
X868513Y-4740013D01*
X887071Y-4717401D01*
X900860Y-4691603D01*
X909351Y-4663611D01*
X912218Y-4634500D01*
X909351Y-4605389D01*
X900860Y-4577397D01*
X887071Y-4551599D01*
X868513Y-4528987D01*
X845901Y-4510429D01*
X840421Y-4507500D01*
X845901Y-4504571D01*
X868513Y-4486013D01*
X887071Y-4463401D01*
X900860Y-4437603D01*
X909351Y-4409611D01*
X912218Y-4380500D01*
X909351Y-4351389D01*
X900860Y-4323397D01*
X887071Y-4297599D01*
X868513Y-4274987D01*
X845901Y-4256429D01*
X840421Y-4253500D01*
X845901Y-4250571D01*
X868513Y-4232013D01*
X887071Y-4209401D01*
X900860Y-4183603D01*
X909351Y-4155611D01*
X912218Y-4126500D01*
X909351Y-4097389D01*
X900860Y-4069397D01*
X887071Y-4043599D01*
X868513Y-4020987D01*
X845901Y-4002429D01*
X840421Y-3999500D01*
X845901Y-3996571D01*
X868513Y-3978013D01*
X887071Y-3955401D01*
X900860Y-3929603D01*
X909351Y-3901611D01*
X912218Y-3872500D01*
X909351Y-3843389D01*
X900860Y-3815397D01*
X887071Y-3789599D01*
X868513Y-3766987D01*
X865745Y-3764714D01*
X866522Y-3764560D01*
X878078Y-3759773D01*
X888479Y-3752824D01*
X897324Y-3743979D01*
X904273Y-3733578D01*
X909060Y-3722022D01*
X911500Y-3709754D01*
X911500Y-3647075D01*
X895625Y-3631200D01*
X775700Y-3631200D01*
X775700Y-3633200D01*
X750300Y-3633200D01*
X750300Y-3631200D01*
X630375Y-3631200D01*
X614500Y-3647075D01*
X614500Y-3709754D01*
X616940Y-3722022D01*
X621727Y-3733578D01*
X628676Y-3743979D01*
X637521Y-3752824D01*
X647922Y-3759773D01*
X659478Y-3764560D01*
X660255Y-3764714D01*
X657487Y-3766987D01*
X638929Y-3789599D01*
X625140Y-3815397D01*
X616649Y-3843389D01*
X613782Y-3872500D01*
X71000Y-3872500D01*
X71000Y-3527246D01*
X614500Y-3527246D01*
X614500Y-3589925D01*
X630375Y-3605800D01*
X750300Y-3605800D01*
X750300Y-3485875D01*
X775700Y-3485875D01*
X775700Y-3605800D01*
X895625Y-3605800D01*
X911500Y-3589925D01*
X911500Y-3527246D01*
X909060Y-3514978D01*
X904273Y-3503421D01*
X897324Y-3493021D01*
X888479Y-3484176D01*
X878078Y-3477227D01*
X866522Y-3472440D01*
X854254Y-3470000D01*
X791575Y-3470000D01*
X775700Y-3485875D01*
X750300Y-3485875D01*
X734425Y-3470000D01*
X671746Y-3470000D01*
X659478Y-3472440D01*
X647922Y-3477227D01*
X637521Y-3484176D01*
X628676Y-3493021D01*
X621727Y-3503421D01*
X616940Y-3514978D01*
X614500Y-3527246D01*
X71000Y-3527246D01*
X71000Y-2792548D01*
X834500Y-2792548D01*
X834500Y-2844452D01*
X844626Y-2895360D01*
X864489Y-2943314D01*
X893326Y-2986471D01*
X930028Y-3023174D01*
X973186Y-3052011D01*
X1021140Y-3071874D01*
X1072048Y-3082000D01*
X1123953Y-3082000D01*
X1174860Y-3071874D01*
X1222814Y-3052011D01*
X1265972Y-3023174D01*
X1302674Y-2986471D01*
X1331511Y-2943314D01*
X1351374Y-2895360D01*
X1361500Y-2844452D01*
X1361500Y-2792548D01*
X1351374Y-2741640D01*
X1331511Y-2693686D01*
X1302674Y-2650529D01*
X1269453Y-2617307D01*
X1603000Y-2617307D01*
X1615448Y-2616081D01*
X1627418Y-2612450D01*
X1638449Y-2606554D01*
X1648118Y-2598619D01*
X1656054Y-2588949D01*
X1661950Y-2577918D01*
X1665581Y-2565948D01*
X1666807Y-2553500D01*
X1666807Y-2442480D01*
X3552384Y-2442480D01*
X3557000Y-2442935D01*
X3561616Y-2442480D01*
X3561617Y-2442480D01*
X3575423Y-2441120D01*
X3593139Y-2435746D01*
X3609465Y-2427020D01*
X3623775Y-2415275D01*
X3626719Y-2411689D01*
X3747189Y-2291218D01*
X3750775Y-2288275D01*
X3762520Y-2273965D01*
X3771246Y-2257639D01*
X3776620Y-2239923D01*
X3777980Y-2226117D01*
X3777980Y-2226116D01*
X3778435Y-2221500D01*
X3777980Y-2216884D01*
X3777980Y-1257804D01*
X3778663Y-1257348D01*
X3791171Y-1244840D01*
X3853121Y-1244840D01*
X3860884Y-1269747D01*
X3887288Y-1282337D01*
X3915641Y-1289534D01*
X3944853Y-1291061D01*
X3973802Y-1286860D01*
X4001375Y-1277092D01*
X4015116Y-1269747D01*
X4022879Y-1244840D01*
X3938000Y-1159961D01*
X3853121Y-1244840D01*
X3791171Y-1244840D01*
X3799347Y-1236663D01*
X3810931Y-1219327D01*
X3835160Y-1226879D01*
X3920039Y-1142000D01*
X3835160Y-1057121D01*
X3810931Y-1064673D01*
X3799347Y-1047337D01*
X3778663Y-1026652D01*
X3761224Y-1015000D01*
X3778663Y-1003347D01*
X3799347Y-982663D01*
X3811000Y-965224D01*
X3822652Y-982663D01*
X3843337Y-1003347D01*
X3860673Y-1014931D01*
X3853121Y-1039160D01*
X3938000Y-1124040D01*
X4022879Y-1039160D01*
X4015327Y-1014931D01*
X4032663Y-1003347D01*
X4053347Y-982663D01*
X4065000Y-965224D01*
X4076652Y-982663D01*
X4097337Y-1003347D01*
X4114776Y-1015000D01*
X4097337Y-1026652D01*
X4076652Y-1047337D01*
X4065069Y-1064673D01*
X4040840Y-1057121D01*
X3955960Y-1142000D01*
X4040840Y-1226879D01*
X4065069Y-1219327D01*
X4076652Y-1236663D01*
X4097337Y-1257348D01*
X4121659Y-1273599D01*
X4148684Y-1284793D01*
X4177374Y-1290500D01*
X4206626Y-1290500D01*
X4235316Y-1284793D01*
X4262341Y-1273599D01*
X4286663Y-1257348D01*
X4307348Y-1236663D01*
X4319000Y-1219224D01*
X4330653Y-1236663D01*
X4351337Y-1257348D01*
X4375659Y-1273599D01*
X4402684Y-1284793D01*
X4431374Y-1290500D01*
X4460626Y-1290500D01*
X4489316Y-1284793D01*
X4516341Y-1273599D01*
X4540663Y-1257348D01*
X4561348Y-1236663D01*
X4573000Y-1219224D01*
X4584653Y-1236663D01*
X4605337Y-1257348D01*
X4629659Y-1273599D01*
X4656684Y-1284793D01*
X4685374Y-1290500D01*
X4714626Y-1290500D01*
X4743316Y-1284793D01*
X4770341Y-1273599D01*
X4794663Y-1257348D01*
X4815348Y-1236663D01*
X4827000Y-1219224D01*
X4838653Y-1236663D01*
X4859337Y-1257348D01*
X4883659Y-1273599D01*
X4910684Y-1284793D01*
X4939374Y-1290500D01*
X4968626Y-1290500D01*
X4997316Y-1284793D01*
X5024341Y-1273599D01*
X5048663Y-1257348D01*
X5069348Y-1236663D01*
X5081000Y-1219224D01*
X5092653Y-1236663D01*
X5113337Y-1257348D01*
X5114020Y-1257804D01*
X5114020Y-3452572D01*
X4978572Y-3588020D01*
X2736117Y-3588020D01*
X2731500Y-3587565D01*
X2726884Y-3588020D01*
X2672617Y-3588020D01*
X2668000Y-3587565D01*
X2663383Y-3588020D01*
X2609116Y-3588020D01*
X2604500Y-3587565D01*
X2599884Y-3588020D01*
X2321447Y-3588020D01*
X2309066Y-3572934D01*
X2287214Y-3555000D01*
X2309066Y-3537066D01*
X2328248Y-3513693D01*
X2342502Y-3487026D01*
X2351279Y-3458091D01*
X2354243Y-3428000D01*
X2351279Y-3397909D01*
X2342502Y-3368974D01*
X2328248Y-3342307D01*
X2309066Y-3318934D01*
X2285693Y-3299752D01*
X2259026Y-3285498D01*
X2230091Y-3276721D01*
X2207541Y-3274500D01*
X2112459Y-3274500D01*
X2089909Y-3276721D01*
X2060974Y-3285498D01*
X2034307Y-3299752D01*
X2010934Y-3318934D01*
X1991752Y-3342307D01*
X1977498Y-3368974D01*
X1968721Y-3397909D01*
X1965757Y-3428000D01*
X1968721Y-3458091D01*
X1977498Y-3487026D01*
X1991752Y-3513693D01*
X2010934Y-3537066D01*
X2032786Y-3555000D01*
X2010934Y-3572934D01*
X1991752Y-3596307D01*
X1977498Y-3622974D01*
X1968721Y-3651909D01*
X1965757Y-3682000D01*
X1968721Y-3712091D01*
X1977498Y-3741026D01*
X1991752Y-3767693D01*
X2010934Y-3791066D01*
X2032786Y-3809000D01*
X2010934Y-3826934D01*
X1991752Y-3850307D01*
X1977498Y-3876974D01*
X1968721Y-3905909D01*
X1965757Y-3936000D01*
X1968721Y-3966091D01*
X1977498Y-3995026D01*
X1991752Y-4021693D01*
X2010934Y-4045066D01*
X2032786Y-4063000D01*
X2010934Y-4080934D01*
X1991752Y-4104307D01*
X1977498Y-4130974D01*
X1968721Y-4159909D01*
X1965757Y-4190000D01*
X1968721Y-4220091D01*
X1977498Y-4249026D01*
X1991752Y-4275693D01*
X2010934Y-4299066D01*
X2032786Y-4317000D01*
X2010934Y-4334934D01*
X1991752Y-4358307D01*
X1977498Y-4384974D01*
X1968721Y-4413909D01*
X1965757Y-4444000D01*
X1968721Y-4474091D01*
X1977498Y-4503026D01*
X1991752Y-4529693D01*
X2010934Y-4553066D01*
X2032786Y-4571000D01*
X2010934Y-4588934D01*
X1991752Y-4612307D01*
X1977498Y-4638974D01*
X1968721Y-4667909D01*
X1965757Y-4698000D01*
X1968721Y-4728091D01*
X1977498Y-4757026D01*
X1991752Y-4783693D01*
X2010934Y-4807066D01*
X2032786Y-4825000D01*
X2010934Y-4842934D01*
X1991752Y-4866307D01*
X1977498Y-4892974D01*
X1968721Y-4921909D01*
X1965757Y-4952000D01*
X1968721Y-4982091D01*
X1977498Y-5011026D01*
X1991752Y-5037693D01*
X2010934Y-5061066D01*
X2032786Y-5079000D01*
X2010934Y-5096934D01*
X1991752Y-5120307D01*
X1977498Y-5146974D01*
X1968721Y-5175909D01*
X1965757Y-5206000D01*
X1968721Y-5236091D01*
X1977498Y-5265026D01*
X1991752Y-5291693D01*
X2010934Y-5315066D01*
X2032786Y-5333000D01*
X2010934Y-5350934D01*
X1991752Y-5374307D01*
X1977498Y-5400974D01*
X1968721Y-5429909D01*
X1965757Y-5460000D01*
X1968721Y-5490091D01*
X1977498Y-5519026D01*
X1991752Y-5545693D01*
X2010934Y-5569066D01*
X2032786Y-5587000D01*
X2010934Y-5604934D01*
X1991752Y-5628307D01*
X1977498Y-5654974D01*
X1968721Y-5683909D01*
X1965757Y-5714000D01*
X1968721Y-5744091D01*
X1977498Y-5773026D01*
X1991752Y-5799693D01*
X2010934Y-5823066D01*
X2032786Y-5841000D01*
X2010934Y-5858934D01*
X1991752Y-5882307D01*
X1977498Y-5908974D01*
X1968721Y-5937909D01*
X1965757Y-5968000D01*
X1968721Y-5998091D01*
X1977498Y-6027026D01*
X1991752Y-6053693D01*
X2010934Y-6077066D01*
X2033369Y-6095478D01*
X2024160Y-6101425D01*
X2002479Y-6122439D01*
X1985314Y-6147280D01*
X1973324Y-6174991D01*
X1970896Y-6185526D01*
X1982962Y-6209300D01*
X2147300Y-6209300D01*
X2147300Y-6207300D01*
X2172700Y-6207300D01*
X2172700Y-6209300D01*
X2337038Y-6209300D01*
X2349104Y-6185526D01*
X2346676Y-6174991D01*
X2334686Y-6147280D01*
X2317521Y-6122439D01*
X2295840Y-6101425D01*
X2286631Y-6095478D01*
X2309066Y-6077066D01*
X2328248Y-6053693D01*
X2342502Y-6027026D01*
X2351279Y-5998091D01*
X2354243Y-5968000D01*
X2351279Y-5937909D01*
X2342502Y-5908974D01*
X2328248Y-5882307D01*
X2309066Y-5858934D01*
X2287214Y-5841000D01*
X2309066Y-5823066D01*
X2328248Y-5799693D01*
X2342502Y-5773026D01*
X2351279Y-5744091D01*
X2354243Y-5714000D01*
X2351279Y-5683909D01*
X2342502Y-5654974D01*
X2328248Y-5628307D01*
X2309066Y-5604934D01*
X2287214Y-5587000D01*
X2309066Y-5569066D01*
X2328248Y-5545693D01*
X2342502Y-5519026D01*
X2351279Y-5490091D01*
X2354243Y-5460000D01*
X2351279Y-5429909D01*
X2342502Y-5400974D01*
X2328248Y-5374307D01*
X2309066Y-5350934D01*
X2287214Y-5333000D01*
X2309066Y-5315066D01*
X2328248Y-5291693D01*
X2342502Y-5265026D01*
X2351279Y-5236091D01*
X2354243Y-5206000D01*
X2351279Y-5175909D01*
X2342502Y-5146974D01*
X2328248Y-5120307D01*
X2309066Y-5096934D01*
X2287214Y-5079000D01*
X2309066Y-5061066D01*
X2328248Y-5037693D01*
X2342502Y-5011026D01*
X2351279Y-4982091D01*
X2354243Y-4952000D01*
X2351279Y-4921909D01*
X2342502Y-4892974D01*
X2328248Y-4866307D01*
X2309066Y-4842934D01*
X2287214Y-4825000D01*
X2309066Y-4807066D01*
X2328248Y-4783693D01*
X2342502Y-4757026D01*
X2351279Y-4728091D01*
X2354243Y-4698000D01*
X2351279Y-4667909D01*
X2342502Y-4638974D01*
X2328248Y-4612307D01*
X2309066Y-4588934D01*
X2287214Y-4571000D01*
X2309066Y-4553066D01*
X2328248Y-4529693D01*
X2342502Y-4503026D01*
X2351279Y-4474091D01*
X2354243Y-4444000D01*
X2351279Y-4413909D01*
X2342502Y-4384974D01*
X2328248Y-4358307D01*
X2309066Y-4334934D01*
X2287214Y-4317000D01*
X2309066Y-4299066D01*
X2328248Y-4275693D01*
X2342502Y-4249026D01*
X2351279Y-4220091D01*
X2354243Y-4190000D01*
X2351279Y-4159909D01*
X2342502Y-4130974D01*
X2328248Y-4104307D01*
X2309066Y-4080934D01*
X2287214Y-4063000D01*
X2309066Y-4045066D01*
X2328248Y-4021693D01*
X2342502Y-3995026D01*
X2351279Y-3966091D01*
X2354243Y-3936000D01*
X2351279Y-3905909D01*
X2342502Y-3876974D01*
X2328248Y-3850307D01*
X2309066Y-3826934D01*
X2287214Y-3809000D01*
X2309066Y-3791066D01*
X2321447Y-3775980D01*
X2565572Y-3775980D01*
X2574020Y-3784428D01*
X2574020Y-6818072D01*
X2502072Y-6890020D01*
X2321447Y-6890020D01*
X2309066Y-6874934D01*
X2287214Y-6857000D01*
X2309066Y-6839066D01*
X2328248Y-6815693D01*
X2342502Y-6789026D01*
X2351279Y-6760091D01*
X2354243Y-6730000D01*
X2351279Y-6699909D01*
X2342502Y-6670974D01*
X2328248Y-6644307D01*
X2309066Y-6620934D01*
X2287214Y-6603000D01*
X2309066Y-6585066D01*
X2328248Y-6561693D01*
X2342502Y-6535026D01*
X2351279Y-6506091D01*
X2354243Y-6476000D01*
X2351279Y-6445909D01*
X2342502Y-6416974D01*
X2328248Y-6390307D01*
X2309066Y-6366934D01*
X2286631Y-6348522D01*
X2295840Y-6342575D01*
X2317521Y-6321561D01*
X2334686Y-6296720D01*
X2346676Y-6269009D01*
X2349104Y-6258474D01*
X2337038Y-6234700D01*
X2172700Y-6234700D01*
X2172700Y-6236700D01*
X2147300Y-6236700D01*
X2147300Y-6234700D01*
X1982962Y-6234700D01*
X1970896Y-6258474D01*
X1973324Y-6269009D01*
X1985314Y-6296720D01*
X2002479Y-6321561D01*
X2024160Y-6342575D01*
X2033369Y-6348522D01*
X2010934Y-6366934D01*
X1991752Y-6390307D01*
X1977498Y-6416974D01*
X1968721Y-6445909D01*
X1965757Y-6476000D01*
X1968721Y-6506091D01*
X1977498Y-6535026D01*
X1991752Y-6561693D01*
X2010934Y-6585066D01*
X2032786Y-6603000D01*
X2010934Y-6620934D01*
X1991752Y-6644307D01*
X1988036Y-6651260D01*
X1909866Y-6651260D01*
X1906000Y-6650879D01*
X1902134Y-6651260D01*
X1902133Y-6651260D01*
X1890564Y-6652399D01*
X1875722Y-6656902D01*
X1862043Y-6664213D01*
X1862043Y-6664213D01*
X1862043Y-6664213D01*
X1853057Y-6671588D01*
X1853057Y-6671588D01*
X1850053Y-6674053D01*
X1847588Y-6677057D01*
X1726058Y-6798587D01*
X1723053Y-6801053D01*
X1713213Y-6813043D01*
X1705902Y-6826722D01*
X1701399Y-6841564D01*
X1700260Y-6853133D01*
X1700260Y-6853134D01*
X1699879Y-6857000D01*
X1700260Y-6860866D01*
X1700260Y-7361133D01*
X1699879Y-7365000D01*
X1701399Y-7380436D01*
X1705902Y-7395278D01*
X1705902Y-7395278D01*
X1713213Y-7408957D01*
X1723053Y-7420947D01*
X1726057Y-7423412D01*
X1847588Y-7544943D01*
X1850053Y-7547947D01*
X1853057Y-7550412D01*
X1853057Y-7550412D01*
X1859405Y-7555622D01*
X1862043Y-7557787D01*
X1875722Y-7565098D01*
X1890564Y-7569601D01*
X1902133Y-7570740D01*
X1902134Y-7570740D01*
X1906000Y-7571121D01*
X1909866Y-7570740D01*
X2791134Y-7570740D01*
X2795000Y-7571121D01*
X2798866Y-7570740D01*
X2798867Y-7570740D01*
X2810436Y-7569601D01*
X2825278Y-7565098D01*
X2838957Y-7557787D01*
X2850947Y-7547947D01*
X2853413Y-7544942D01*
X2974943Y-7423412D01*
X2977947Y-7420947D01*
X2980412Y-7417943D01*
X2987786Y-7408957D01*
X2987787Y-7408957D01*
X2995098Y-7395278D01*
X2999601Y-7380436D01*
X3000740Y-7368867D01*
X3000740Y-7368866D01*
X3001121Y-7365000D01*
X3000740Y-7361134D01*
X3000740Y-6969374D01*
X3027500Y-6969374D01*
X3027500Y-6998626D01*
X3033207Y-7027316D01*
X3044401Y-7054341D01*
X3060652Y-7078663D01*
X3081337Y-7099347D01*
X3098776Y-7111000D01*
X3081337Y-7122652D01*
X3060652Y-7143337D01*
X3044401Y-7167659D01*
X3033207Y-7194684D01*
X3027500Y-7223374D01*
X3027500Y-7252626D01*
X3033207Y-7281316D01*
X3044401Y-7308341D01*
X3060652Y-7332663D01*
X3081337Y-7353347D01*
X3105659Y-7369599D01*
X3132684Y-7380793D01*
X3161374Y-7386500D01*
X3190626Y-7386500D01*
X3219316Y-7380793D01*
X3246341Y-7369599D01*
X3270663Y-7353347D01*
X3291347Y-7332663D01*
X3303000Y-7315224D01*
X3314652Y-7332663D01*
X3335337Y-7353347D01*
X3359659Y-7369599D01*
X3386684Y-7380793D01*
X3415374Y-7386500D01*
X3444626Y-7386500D01*
X3473316Y-7380793D01*
X3500341Y-7369599D01*
X3524663Y-7353347D01*
X3545347Y-7332663D01*
X3557000Y-7315224D01*
X3568652Y-7332663D01*
X3589337Y-7353347D01*
X3613659Y-7369599D01*
X3640684Y-7380793D01*
X3669374Y-7386500D01*
X3698626Y-7386500D01*
X3727316Y-7380793D01*
X3754341Y-7369599D01*
X3778663Y-7353347D01*
X3799347Y-7332663D01*
X3811000Y-7315224D01*
X3822652Y-7332663D01*
X3843337Y-7353347D01*
X3867659Y-7369599D01*
X3894684Y-7380793D01*
X3923374Y-7386500D01*
X3952626Y-7386500D01*
X3981316Y-7380793D01*
X4008341Y-7369599D01*
X4032663Y-7353347D01*
X4053347Y-7332663D01*
X4065000Y-7315224D01*
X4076652Y-7332663D01*
X4097337Y-7353347D01*
X4121659Y-7369599D01*
X4148684Y-7380793D01*
X4177374Y-7386500D01*
X4206626Y-7386500D01*
X4235316Y-7380793D01*
X4262341Y-7369599D01*
X4286663Y-7353347D01*
X4307348Y-7332663D01*
X4319000Y-7315224D01*
X4330653Y-7332663D01*
X4351337Y-7353347D01*
X4375659Y-7369599D01*
X4402684Y-7380793D01*
X4431374Y-7386500D01*
X4460626Y-7386500D01*
X4489316Y-7380793D01*
X4516341Y-7369599D01*
X4540663Y-7353347D01*
X4561348Y-7332663D01*
X4573000Y-7315224D01*
X4584653Y-7332663D01*
X4605337Y-7353347D01*
X4629659Y-7369599D01*
X4656684Y-7380793D01*
X4685374Y-7386500D01*
X4714626Y-7386500D01*
X4743316Y-7380793D01*
X4770341Y-7369599D01*
X4794663Y-7353347D01*
X4815348Y-7332663D01*
X4827000Y-7315224D01*
X4838653Y-7332663D01*
X4859337Y-7353347D01*
X4883659Y-7369599D01*
X4910684Y-7380793D01*
X4939374Y-7386500D01*
X4968626Y-7386500D01*
X4997316Y-7380793D01*
X5024341Y-7369599D01*
X5048663Y-7353347D01*
X5069348Y-7332663D01*
X5081000Y-7315224D01*
X5092653Y-7332663D01*
X5113337Y-7353347D01*
X5137659Y-7369599D01*
X5164684Y-7380793D01*
X5193374Y-7386500D01*
X5222626Y-7386500D01*
X5251316Y-7380793D01*
X5278341Y-7369599D01*
X5302663Y-7353347D01*
X5315171Y-7340840D01*
X5377121Y-7340840D01*
X5384884Y-7365747D01*
X5411288Y-7378337D01*
X5439641Y-7385534D01*
X5468853Y-7387061D01*
X5497802Y-7382860D01*
X5525375Y-7373092D01*
X5539116Y-7365747D01*
X5546879Y-7340840D01*
X5462000Y-7255960D01*
X5377121Y-7340840D01*
X5315171Y-7340840D01*
X5323348Y-7332663D01*
X5334931Y-7315327D01*
X5359160Y-7322879D01*
X5444040Y-7238000D01*
X5359160Y-7153121D01*
X5334931Y-7160673D01*
X5323348Y-7143337D01*
X5302663Y-7122652D01*
X5285224Y-7111000D01*
X5302663Y-7099347D01*
X5323348Y-7078663D01*
X5335000Y-7061224D01*
X5346653Y-7078663D01*
X5367337Y-7099347D01*
X5384673Y-7110931D01*
X5377121Y-7135160D01*
X5462000Y-7220039D01*
X5546879Y-7135160D01*
X5539327Y-7110931D01*
X5556663Y-7099347D01*
X5577348Y-7078663D01*
X5589000Y-7061224D01*
X5600652Y-7078663D01*
X5621337Y-7099347D01*
X5638776Y-7111000D01*
X5621337Y-7122652D01*
X5600652Y-7143337D01*
X5589069Y-7160673D01*
X5564840Y-7153121D01*
X5479961Y-7238000D01*
X5564840Y-7322879D01*
X5589069Y-7315327D01*
X5600652Y-7332663D01*
X5621337Y-7353347D01*
X5645659Y-7369599D01*
X5672684Y-7380793D01*
X5701374Y-7386500D01*
X5730626Y-7386500D01*
X5759316Y-7380793D01*
X5786341Y-7369599D01*
X5810663Y-7353347D01*
X5831347Y-7332663D01*
X5843000Y-7315224D01*
X5854652Y-7332663D01*
X5875337Y-7353347D01*
X5899659Y-7369599D01*
X5926684Y-7380793D01*
X5955374Y-7386500D01*
X5984626Y-7386500D01*
X6013316Y-7380793D01*
X6040341Y-7369599D01*
X6064663Y-7353347D01*
X6085347Y-7332663D01*
X6097000Y-7315224D01*
X6108652Y-7332663D01*
X6129337Y-7353347D01*
X6153659Y-7369599D01*
X6180684Y-7380793D01*
X6209374Y-7386500D01*
X6238626Y-7386500D01*
X6267316Y-7380793D01*
X6294341Y-7369599D01*
X6318663Y-7353347D01*
X6339347Y-7332663D01*
X6351000Y-7315224D01*
X6362652Y-7332663D01*
X6383337Y-7353347D01*
X6407659Y-7369599D01*
X6434684Y-7380793D01*
X6463374Y-7386500D01*
X6492626Y-7386500D01*
X6521316Y-7380793D01*
X6548341Y-7369599D01*
X6572663Y-7353347D01*
X6593347Y-7332663D01*
X6605000Y-7315224D01*
X6616652Y-7332663D01*
X6637337Y-7353347D01*
X6661659Y-7369599D01*
X6688684Y-7380793D01*
X6717374Y-7386500D01*
X6746626Y-7386500D01*
X6775316Y-7380793D01*
X6802341Y-7369599D01*
X6826663Y-7353347D01*
X6839171Y-7340840D01*
X6901121Y-7340840D01*
X6908884Y-7365747D01*
X6935288Y-7378337D01*
X6963641Y-7385534D01*
X6992853Y-7387061D01*
X7021802Y-7382860D01*
X7049375Y-7373092D01*
X7063116Y-7365747D01*
X7070879Y-7340840D01*
X6986000Y-7255960D01*
X6901121Y-7340840D01*
X6839171Y-7340840D01*
X6847347Y-7332663D01*
X6858931Y-7315327D01*
X6883160Y-7322879D01*
X6968039Y-7238000D01*
X6883160Y-7153121D01*
X6858931Y-7160673D01*
X6847347Y-7143337D01*
X6826663Y-7122652D01*
X6809224Y-7111000D01*
X6826663Y-7099347D01*
X6847347Y-7078663D01*
X6859000Y-7061224D01*
X6870652Y-7078663D01*
X6891337Y-7099347D01*
X6908673Y-7110931D01*
X6901121Y-7135160D01*
X6986000Y-7220039D01*
X7070879Y-7135160D01*
X7063327Y-7110931D01*
X7080663Y-7099347D01*
X7101347Y-7078663D01*
X7113000Y-7061224D01*
X7124652Y-7078663D01*
X7145337Y-7099347D01*
X7162776Y-7111000D01*
X7145337Y-7122652D01*
X7124652Y-7143337D01*
X7113069Y-7160673D01*
X7088840Y-7153121D01*
X7003960Y-7238000D01*
X7088840Y-7322879D01*
X7113069Y-7315327D01*
X7124652Y-7332663D01*
X7145337Y-7353347D01*
X7169659Y-7369599D01*
X7196684Y-7380793D01*
X7225374Y-7386500D01*
X7254626Y-7386500D01*
X7283316Y-7380793D01*
X7310341Y-7369599D01*
X7334663Y-7353347D01*
X7355347Y-7332663D01*
X7367000Y-7315224D01*
X7378652Y-7332663D01*
X7399337Y-7353347D01*
X7423659Y-7369599D01*
X7450684Y-7380793D01*
X7479374Y-7386500D01*
X7508626Y-7386500D01*
X7537316Y-7380793D01*
X7564341Y-7369599D01*
X7588663Y-7353347D01*
X7609347Y-7332663D01*
X7621000Y-7315224D01*
X7632652Y-7332663D01*
X7653337Y-7353347D01*
X7677659Y-7369599D01*
X7704684Y-7380793D01*
X7733374Y-7386500D01*
X7762626Y-7386500D01*
X7791316Y-7380793D01*
X7818341Y-7369599D01*
X7842663Y-7353347D01*
X7863347Y-7332663D01*
X7879599Y-7308341D01*
X7890793Y-7281316D01*
X7896500Y-7252626D01*
X7896500Y-7223374D01*
X7890793Y-7194684D01*
X7879599Y-7167659D01*
X7863347Y-7143337D01*
X7842663Y-7122652D01*
X7825224Y-7111000D01*
X7842663Y-7099347D01*
X7863347Y-7078663D01*
X7879599Y-7054341D01*
X7890793Y-7027316D01*
X7896500Y-6998626D01*
X7896500Y-6969374D01*
X7890793Y-6940684D01*
X7879599Y-6913659D01*
X7863347Y-6889337D01*
X7842663Y-6868652D01*
X7818341Y-6852401D01*
X7791316Y-6841207D01*
X7762626Y-6835500D01*
X7733374Y-6835500D01*
X7704684Y-6841207D01*
X7677659Y-6852401D01*
X7653337Y-6868652D01*
X7632652Y-6889337D01*
X7621000Y-6906776D01*
X7609347Y-6889337D01*
X7588663Y-6868652D01*
X7564341Y-6852401D01*
X7537316Y-6841207D01*
X7508626Y-6835500D01*
X7479374Y-6835500D01*
X7450684Y-6841207D01*
X7423659Y-6852401D01*
X7399337Y-6868652D01*
X7378652Y-6889337D01*
X7367000Y-6906776D01*
X7355347Y-6889337D01*
X7334663Y-6868652D01*
X7310341Y-6852401D01*
X7283316Y-6841207D01*
X7254626Y-6835500D01*
X7225374Y-6835500D01*
X7196684Y-6841207D01*
X7169659Y-6852401D01*
X7145337Y-6868652D01*
X7124652Y-6889337D01*
X7113000Y-6906776D01*
X7101347Y-6889337D01*
X7080663Y-6868652D01*
X7056341Y-6852401D01*
X7029316Y-6841207D01*
X7000626Y-6835500D01*
X6971374Y-6835500D01*
X6942684Y-6841207D01*
X6915659Y-6852401D01*
X6891337Y-6868652D01*
X6870652Y-6889337D01*
X6859000Y-6906776D01*
X6847347Y-6889337D01*
X6826663Y-6868652D01*
X6802341Y-6852401D01*
X6775316Y-6841207D01*
X6746626Y-6835500D01*
X6717374Y-6835500D01*
X6688684Y-6841207D01*
X6661659Y-6852401D01*
X6637337Y-6868652D01*
X6616652Y-6889337D01*
X6605000Y-6906776D01*
X6593347Y-6889337D01*
X6572663Y-6868652D01*
X6548341Y-6852401D01*
X6521316Y-6841207D01*
X6492626Y-6835500D01*
X6463374Y-6835500D01*
X6434684Y-6841207D01*
X6407659Y-6852401D01*
X6383337Y-6868652D01*
X6362652Y-6889337D01*
X6351000Y-6906776D01*
X6339347Y-6889337D01*
X6318663Y-6868652D01*
X6294341Y-6852401D01*
X6267316Y-6841207D01*
X6238626Y-6835500D01*
X6209374Y-6835500D01*
X6180684Y-6841207D01*
X6153659Y-6852401D01*
X6129337Y-6868652D01*
X6108652Y-6889337D01*
X6097000Y-6906776D01*
X6085347Y-6889337D01*
X6064663Y-6868652D01*
X6040341Y-6852401D01*
X6013316Y-6841207D01*
X5984626Y-6835500D01*
X5955374Y-6835500D01*
X5926684Y-6841207D01*
X5899659Y-6852401D01*
X5875337Y-6868652D01*
X5854652Y-6889337D01*
X5843000Y-6906776D01*
X5831347Y-6889337D01*
X5810663Y-6868652D01*
X5786341Y-6852401D01*
X5759316Y-6841207D01*
X5730626Y-6835500D01*
X5701374Y-6835500D01*
X5672684Y-6841207D01*
X5645659Y-6852401D01*
X5621337Y-6868652D01*
X5600652Y-6889337D01*
X5589000Y-6906776D01*
X5577348Y-6889337D01*
X5556663Y-6868652D01*
X5532341Y-6852401D01*
X5505316Y-6841207D01*
X5476626Y-6835500D01*
X5447374Y-6835500D01*
X5418684Y-6841207D01*
X5391659Y-6852401D01*
X5367337Y-6868652D01*
X5346653Y-6889337D01*
X5335000Y-6906776D01*
X5323348Y-6889337D01*
X5302663Y-6868652D01*
X5278341Y-6852401D01*
X5251316Y-6841207D01*
X5222626Y-6835500D01*
X5193374Y-6835500D01*
X5164684Y-6841207D01*
X5137659Y-6852401D01*
X5113337Y-6868652D01*
X5092653Y-6889337D01*
X5081000Y-6906776D01*
X5069348Y-6889337D01*
X5048663Y-6868652D01*
X5024341Y-6852401D01*
X4997316Y-6841207D01*
X4968626Y-6835500D01*
X4939374Y-6835500D01*
X4910684Y-6841207D01*
X4883659Y-6852401D01*
X4859337Y-6868652D01*
X4838653Y-6889337D01*
X4827000Y-6906776D01*
X4815348Y-6889337D01*
X4794663Y-6868652D01*
X4770341Y-6852401D01*
X4743316Y-6841207D01*
X4714626Y-6835500D01*
X4685374Y-6835500D01*
X4656684Y-6841207D01*
X4629659Y-6852401D01*
X4605337Y-6868652D01*
X4584653Y-6889337D01*
X4573000Y-6906776D01*
X4561348Y-6889337D01*
X4540663Y-6868652D01*
X4516341Y-6852401D01*
X4489316Y-6841207D01*
X4460626Y-6835500D01*
X4431374Y-6835500D01*
X4402684Y-6841207D01*
X4375659Y-6852401D01*
X4351337Y-6868652D01*
X4330653Y-6889337D01*
X4319069Y-6906673D01*
X4294840Y-6899121D01*
X4209961Y-6984000D01*
X4294840Y-7068879D01*
X4319069Y-7061327D01*
X4330653Y-7078663D01*
X4351337Y-7099347D01*
X4368776Y-7111000D01*
X4351337Y-7122652D01*
X4330653Y-7143337D01*
X4319000Y-7160776D01*
X4307348Y-7143337D01*
X4286663Y-7122652D01*
X4269327Y-7111069D01*
X4276879Y-7086840D01*
X4192000Y-7001960D01*
X4107121Y-7086840D01*
X4114673Y-7111069D01*
X4097337Y-7122652D01*
X4076652Y-7143337D01*
X4065000Y-7160776D01*
X4053347Y-7143337D01*
X4032663Y-7122652D01*
X4015224Y-7111000D01*
X4032663Y-7099347D01*
X4053347Y-7078663D01*
X4064931Y-7061327D01*
X4089160Y-7068879D01*
X4174039Y-6984000D01*
X4089160Y-6899121D01*
X4064931Y-6906673D01*
X4053347Y-6889337D01*
X4045171Y-6881160D01*
X4107121Y-6881160D01*
X4192000Y-6966039D01*
X4276879Y-6881160D01*
X4269116Y-6856253D01*
X4242712Y-6843663D01*
X4214359Y-6836466D01*
X4185147Y-6834939D01*
X4156198Y-6839140D01*
X4128625Y-6848908D01*
X4114884Y-6856253D01*
X4107121Y-6881160D01*
X4045171Y-6881160D01*
X4032663Y-6868652D01*
X4008341Y-6852401D01*
X3981316Y-6841207D01*
X3952626Y-6835500D01*
X3923374Y-6835500D01*
X3894684Y-6841207D01*
X3867659Y-6852401D01*
X3843337Y-6868652D01*
X3822652Y-6889337D01*
X3811000Y-6906776D01*
X3799347Y-6889337D01*
X3778663Y-6868652D01*
X3754341Y-6852401D01*
X3727316Y-6841207D01*
X3698626Y-6835500D01*
X3669374Y-6835500D01*
X3640684Y-6841207D01*
X3613659Y-6852401D01*
X3589337Y-6868652D01*
X3568652Y-6889337D01*
X3557000Y-6906776D01*
X3545347Y-6889337D01*
X3524663Y-6868652D01*
X3500341Y-6852401D01*
X3473316Y-6841207D01*
X3444626Y-6835500D01*
X3415374Y-6835500D01*
X3386684Y-6841207D01*
X3359659Y-6852401D01*
X3335337Y-6868652D01*
X3314652Y-6889337D01*
X3303000Y-6906776D01*
X3291347Y-6889337D01*
X3270663Y-6868652D01*
X3246341Y-6852401D01*
X3219316Y-6841207D01*
X3190626Y-6835500D01*
X3161374Y-6835500D01*
X3132684Y-6841207D01*
X3105659Y-6852401D01*
X3081337Y-6868652D01*
X3060652Y-6889337D01*
X3044401Y-6913659D01*
X3033207Y-6940684D01*
X3027500Y-6969374D01*
X3000740Y-6969374D01*
X3000740Y-5995000D01*
X8481193Y-5995000D01*
X8481193Y-6195000D01*
X8482419Y-6207448D01*
X8486050Y-6219418D01*
X8491946Y-6230449D01*
X8499882Y-6240118D01*
X8509551Y-6248054D01*
X8520582Y-6253950D01*
X8532552Y-6257581D01*
X8545000Y-6258807D01*
X8745000Y-6258807D01*
X8757448Y-6257581D01*
X8769418Y-6253950D01*
X8780449Y-6248054D01*
X8790119Y-6240118D01*
X8798054Y-6230449D01*
X8803598Y-6220078D01*
X8808996Y-6234981D01*
X8837957Y-6249070D01*
X8869111Y-6257238D01*
X8901260Y-6259172D01*
X8933168Y-6254796D01*
X8963609Y-6244279D01*
X8981004Y-6234981D01*
X8990581Y-6208541D01*
X8895000Y-6112960D01*
X8893586Y-6114375D01*
X8875625Y-6096414D01*
X8877040Y-6095000D01*
X8912961Y-6095000D01*
X9008541Y-6190581D01*
X9011508Y-6189506D01*
X9018001Y-6199225D01*
X9040775Y-6221999D01*
X9067554Y-6239892D01*
X9097309Y-6252217D01*
X9128897Y-6258500D01*
X9161103Y-6258500D01*
X9192691Y-6252217D01*
X9222446Y-6239892D01*
X9249225Y-6221999D01*
X9271999Y-6199225D01*
X9289892Y-6172446D01*
X9302217Y-6142691D01*
X9308500Y-6111103D01*
X9308500Y-6078897D01*
X9302217Y-6047309D01*
X9289892Y-6017554D01*
X9271999Y-5990775D01*
X9249225Y-5968001D01*
X9222446Y-5950108D01*
X9192691Y-5937783D01*
X9161103Y-5931500D01*
X9128897Y-5931500D01*
X9097309Y-5937783D01*
X9067554Y-5950108D01*
X9040775Y-5968001D01*
X9018001Y-5990775D01*
X9011508Y-6000493D01*
X9008541Y-5999419D01*
X8912961Y-6095000D01*
X8877040Y-6095000D01*
X8875625Y-6093586D01*
X8893586Y-6075625D01*
X8895000Y-6077039D01*
X8990581Y-5981459D01*
X8981004Y-5955019D01*
X8952043Y-5940930D01*
X8920889Y-5932762D01*
X8888741Y-5930828D01*
X8856833Y-5935204D01*
X8826391Y-5945720D01*
X8808996Y-5955019D01*
X8803598Y-5969922D01*
X8798054Y-5959551D01*
X8790119Y-5949881D01*
X8780449Y-5941946D01*
X8769418Y-5936050D01*
X8757448Y-5932419D01*
X8745000Y-5931193D01*
X8545000Y-5931193D01*
X8532552Y-5932419D01*
X8520582Y-5936050D01*
X8509551Y-5941946D01*
X8499882Y-5949881D01*
X8491946Y-5959551D01*
X8486050Y-5970582D01*
X8482419Y-5982552D01*
X8481193Y-5995000D01*
X3000740Y-5995000D01*
X3000740Y-5324957D01*
X8131500Y-5324957D01*
X8131500Y-5365043D01*
X8139320Y-5404359D01*
X8154661Y-5441393D01*
X8176931Y-5474724D01*
X8205276Y-5503069D01*
X8238607Y-5525339D01*
X8275641Y-5540680D01*
X8314957Y-5548500D01*
X8355043Y-5548500D01*
X8394359Y-5540680D01*
X8431393Y-5525339D01*
X8464724Y-5503069D01*
X8493069Y-5474724D01*
X8515339Y-5441393D01*
X8530680Y-5404359D01*
X8538500Y-5365043D01*
X8538500Y-5324957D01*
X9251500Y-5324957D01*
X9251500Y-5365043D01*
X9259320Y-5404359D01*
X9274661Y-5441393D01*
X9296931Y-5474724D01*
X9325276Y-5503069D01*
X9358607Y-5525339D01*
X9395641Y-5540680D01*
X9434957Y-5548500D01*
X9475043Y-5548500D01*
X9514359Y-5540680D01*
X9551393Y-5525339D01*
X9584724Y-5503069D01*
X9613069Y-5474724D01*
X9635339Y-5441393D01*
X9650680Y-5404359D01*
X9658500Y-5365043D01*
X9658500Y-5324957D01*
X9650680Y-5285641D01*
X9635339Y-5248607D01*
X9613069Y-5215276D01*
X9584724Y-5186931D01*
X9551393Y-5164661D01*
X9514359Y-5149320D01*
X9475043Y-5141500D01*
X9434957Y-5141500D01*
X9395641Y-5149320D01*
X9358607Y-5164661D01*
X9325276Y-5186931D01*
X9296931Y-5215276D01*
X9274661Y-5248607D01*
X9259320Y-5285641D01*
X9251500Y-5324957D01*
X8538500Y-5324957D01*
X8530680Y-5285641D01*
X8515339Y-5248607D01*
X8493069Y-5215276D01*
X8464724Y-5186931D01*
X8431393Y-5164661D01*
X8394359Y-5149320D01*
X8355043Y-5141500D01*
X8314957Y-5141500D01*
X8275641Y-5149320D01*
X8238607Y-5164661D01*
X8205276Y-5186931D01*
X8176931Y-5215276D01*
X8154661Y-5248607D01*
X8139320Y-5285641D01*
X8131500Y-5324957D01*
X3000740Y-5324957D01*
X3000740Y-4628897D01*
X8481500Y-4628897D01*
X8481500Y-4661103D01*
X8487783Y-4692691D01*
X8500108Y-4722446D01*
X8518001Y-4749225D01*
X8540775Y-4771999D01*
X8567554Y-4789892D01*
X8597309Y-4802217D01*
X8628897Y-4808500D01*
X8661103Y-4808500D01*
X8692691Y-4802217D01*
X8722446Y-4789892D01*
X8749225Y-4771999D01*
X8762683Y-4758541D01*
X9049419Y-4758541D01*
X9058996Y-4784981D01*
X9087957Y-4799070D01*
X9119111Y-4807238D01*
X9151260Y-4809172D01*
X9183168Y-4804796D01*
X9213609Y-4794280D01*
X9231004Y-4784981D01*
X9240581Y-4758541D01*
X9145000Y-4662961D01*
X9049419Y-4758541D01*
X8762683Y-4758541D01*
X8771999Y-4749225D01*
X8789892Y-4722446D01*
X8802217Y-4692691D01*
X8808500Y-4661103D01*
X8808500Y-4651260D01*
X8980828Y-4651260D01*
X8985204Y-4683168D01*
X8995721Y-4713609D01*
X9005019Y-4731004D01*
X9031459Y-4740581D01*
X9127040Y-4645000D01*
X9162961Y-4645000D01*
X9258541Y-4740581D01*
X9284981Y-4731004D01*
X9299070Y-4702043D01*
X9307238Y-4670889D01*
X9309172Y-4638741D01*
X9304796Y-4606833D01*
X9294280Y-4576391D01*
X9284981Y-4558996D01*
X9258541Y-4549419D01*
X9162961Y-4645000D01*
X9127040Y-4645000D01*
X9031459Y-4549419D01*
X9005019Y-4558996D01*
X8990930Y-4587957D01*
X8982762Y-4619111D01*
X8980828Y-4651260D01*
X8808500Y-4651260D01*
X8808500Y-4628897D01*
X8802217Y-4597309D01*
X8789892Y-4567554D01*
X8771999Y-4540775D01*
X8762683Y-4531459D01*
X9049419Y-4531459D01*
X9145000Y-4627040D01*
X9240581Y-4531459D01*
X9231004Y-4505019D01*
X9202043Y-4490930D01*
X9170889Y-4482762D01*
X9138741Y-4480828D01*
X9106833Y-4485204D01*
X9076391Y-4495721D01*
X9058996Y-4505019D01*
X9049419Y-4531459D01*
X8762683Y-4531459D01*
X8749225Y-4518001D01*
X8722446Y-4500108D01*
X8692691Y-4487783D01*
X8661103Y-4481500D01*
X8628897Y-4481500D01*
X8597309Y-4487783D01*
X8567554Y-4500108D01*
X8540775Y-4518001D01*
X8518001Y-4540775D01*
X8500108Y-4567554D01*
X8487783Y-4597309D01*
X8481500Y-4628897D01*
X3000740Y-4628897D01*
X3000740Y-4222615D01*
X3208615Y-4014740D01*
X6728134Y-4014740D01*
X6732000Y-4015121D01*
X6735866Y-4014740D01*
X6735867Y-4014740D01*
X6747436Y-4013601D01*
X6762278Y-4009098D01*
X6775957Y-4001787D01*
X6787947Y-3991947D01*
X6790413Y-3988942D01*
X7038943Y-3740412D01*
X7041947Y-3737947D01*
X7044661Y-3734640D01*
X7051786Y-3725957D01*
X7051787Y-3725957D01*
X7059098Y-3712278D01*
X7063601Y-3697436D01*
X7064740Y-3685867D01*
X7064740Y-3685866D01*
X7065121Y-3682000D01*
X7064740Y-3678134D01*
X7064740Y-2525541D01*
X8541419Y-2525541D01*
X8550996Y-2551981D01*
X8579957Y-2566070D01*
X8611111Y-2574238D01*
X8643260Y-2576172D01*
X8675168Y-2571796D01*
X8705609Y-2561280D01*
X8723004Y-2551981D01*
X8732581Y-2525541D01*
X8637000Y-2429961D01*
X8541419Y-2525541D01*
X7064740Y-2525541D01*
X7064740Y-2418260D01*
X8472828Y-2418260D01*
X8477204Y-2450168D01*
X8487721Y-2480609D01*
X8497019Y-2498004D01*
X8523459Y-2507581D01*
X8619040Y-2412000D01*
X8654961Y-2412000D01*
X8750541Y-2507581D01*
X8776981Y-2498004D01*
X8791070Y-2469043D01*
X8799238Y-2437889D01*
X8801172Y-2405741D01*
X8799822Y-2395897D01*
X8923500Y-2395897D01*
X8923500Y-2428103D01*
X8929783Y-2459691D01*
X8942108Y-2489446D01*
X8960001Y-2516225D01*
X8982775Y-2538999D01*
X9009554Y-2556892D01*
X9039309Y-2569217D01*
X9070897Y-2575500D01*
X9103103Y-2575500D01*
X9134691Y-2569217D01*
X9164446Y-2556892D01*
X9191225Y-2538999D01*
X9213999Y-2516225D01*
X9231892Y-2489446D01*
X9244217Y-2459691D01*
X9250500Y-2428103D01*
X9250500Y-2395897D01*
X9244217Y-2364309D01*
X9231892Y-2334554D01*
X9213999Y-2307775D01*
X9191225Y-2285001D01*
X9164446Y-2267108D01*
X9134691Y-2254783D01*
X9103103Y-2248500D01*
X9070897Y-2248500D01*
X9039309Y-2254783D01*
X9009554Y-2267108D01*
X8982775Y-2285001D01*
X8960001Y-2307775D01*
X8942108Y-2334554D01*
X8929783Y-2364309D01*
X8923500Y-2395897D01*
X8799822Y-2395897D01*
X8796796Y-2373833D01*
X8786280Y-2343391D01*
X8776981Y-2325996D01*
X8750541Y-2316419D01*
X8654961Y-2412000D01*
X8619040Y-2412000D01*
X8523459Y-2316419D01*
X8497019Y-2325996D01*
X8482930Y-2354957D01*
X8474762Y-2386111D01*
X8472828Y-2418260D01*
X7064740Y-2418260D01*
X7064740Y-2298459D01*
X8541419Y-2298459D01*
X8637000Y-2394040D01*
X8732581Y-2298459D01*
X8723004Y-2272019D01*
X8694043Y-2257930D01*
X8662889Y-2249762D01*
X8630741Y-2247828D01*
X8598833Y-2252204D01*
X8568391Y-2262721D01*
X8550996Y-2272019D01*
X8541419Y-2298459D01*
X7064740Y-2298459D01*
X7064740Y-1875541D01*
X8541419Y-1875541D01*
X8550996Y-1901981D01*
X8579957Y-1916070D01*
X8611111Y-1924238D01*
X8643260Y-1926172D01*
X8675168Y-1921796D01*
X8705609Y-1911279D01*
X8723004Y-1901981D01*
X8732581Y-1875541D01*
X8637000Y-1779960D01*
X8541419Y-1875541D01*
X7064740Y-1875541D01*
X7064740Y-1768259D01*
X8472828Y-1768259D01*
X8477204Y-1800167D01*
X8487721Y-1830609D01*
X8497019Y-1848004D01*
X8523459Y-1857581D01*
X8619040Y-1762000D01*
X8654961Y-1762000D01*
X8750541Y-1857581D01*
X8776981Y-1848004D01*
X8791070Y-1819043D01*
X8799238Y-1787889D01*
X8801172Y-1755740D01*
X8799822Y-1745897D01*
X8923500Y-1745897D01*
X8923500Y-1778103D01*
X8929783Y-1809691D01*
X8942108Y-1839446D01*
X8960001Y-1866225D01*
X8982775Y-1888999D01*
X9009554Y-1906892D01*
X9039309Y-1919217D01*
X9070897Y-1925500D01*
X9103103Y-1925500D01*
X9134691Y-1919217D01*
X9164446Y-1906892D01*
X9191225Y-1888999D01*
X9213999Y-1866225D01*
X9231892Y-1839446D01*
X9244217Y-1809691D01*
X9250500Y-1778103D01*
X9250500Y-1745897D01*
X9244217Y-1714309D01*
X9231892Y-1684554D01*
X9213999Y-1657775D01*
X9191225Y-1635001D01*
X9164446Y-1617108D01*
X9134691Y-1604783D01*
X9103103Y-1598500D01*
X9070897Y-1598500D01*
X9039309Y-1604783D01*
X9009554Y-1617108D01*
X8982775Y-1635001D01*
X8960001Y-1657775D01*
X8942108Y-1684554D01*
X8929783Y-1714309D01*
X8923500Y-1745897D01*
X8799822Y-1745897D01*
X8796796Y-1723832D01*
X8786280Y-1693391D01*
X8776981Y-1675996D01*
X8750541Y-1666419D01*
X8654961Y-1762000D01*
X8619040Y-1762000D01*
X8523459Y-1666419D01*
X8497019Y-1675996D01*
X8482930Y-1704957D01*
X8474762Y-1736111D01*
X8472828Y-1768259D01*
X7064740Y-1768259D01*
X7064740Y-1648459D01*
X8541419Y-1648459D01*
X8637000Y-1744039D01*
X8732581Y-1648459D01*
X8723004Y-1622019D01*
X8694043Y-1607930D01*
X8662889Y-1599762D01*
X8630741Y-1597828D01*
X8598833Y-1602204D01*
X8568391Y-1612720D01*
X8550996Y-1622019D01*
X8541419Y-1648459D01*
X7064740Y-1648459D01*
X7064740Y-1267987D01*
X7080663Y-1257348D01*
X7101347Y-1236663D01*
X7113000Y-1219224D01*
X7124652Y-1236663D01*
X7145337Y-1257348D01*
X7169659Y-1273599D01*
X7196684Y-1284793D01*
X7225374Y-1290500D01*
X7254626Y-1290500D01*
X7283316Y-1284793D01*
X7310341Y-1273599D01*
X7334663Y-1257348D01*
X7355347Y-1236663D01*
X7367000Y-1219224D01*
X7378652Y-1236663D01*
X7399337Y-1257348D01*
X7423659Y-1273599D01*
X7450684Y-1284793D01*
X7479374Y-1290500D01*
X7508626Y-1290500D01*
X7537316Y-1284793D01*
X7564341Y-1273599D01*
X7588663Y-1257348D01*
X7609347Y-1236663D01*
X7621000Y-1219224D01*
X7632652Y-1236663D01*
X7653337Y-1257348D01*
X7677659Y-1273599D01*
X7704684Y-1284793D01*
X7733374Y-1290500D01*
X7762626Y-1290500D01*
X7791316Y-1284793D01*
X7818341Y-1273599D01*
X7842663Y-1257348D01*
X7863347Y-1236663D01*
X7879599Y-1212341D01*
X7890793Y-1185316D01*
X7896500Y-1156626D01*
X7896500Y-1127374D01*
X7890793Y-1098684D01*
X7879599Y-1071659D01*
X7863347Y-1047337D01*
X7842663Y-1026652D01*
X7825224Y-1015000D01*
X7842663Y-1003347D01*
X7863347Y-982663D01*
X7879599Y-958341D01*
X7890793Y-931316D01*
X7896500Y-902626D01*
X7896500Y-873374D01*
X7890793Y-844684D01*
X7879599Y-817659D01*
X7863347Y-793337D01*
X7842663Y-772652D01*
X7818341Y-756401D01*
X7791316Y-745207D01*
X7762626Y-739500D01*
X7733374Y-739500D01*
X7704684Y-745207D01*
X7677659Y-756401D01*
X7653337Y-772652D01*
X7632652Y-793337D01*
X7621000Y-810776D01*
X7609347Y-793337D01*
X7588663Y-772652D01*
X7564341Y-756401D01*
X7537316Y-745207D01*
X7508626Y-739500D01*
X7479374Y-739500D01*
X7450684Y-745207D01*
X7423659Y-756401D01*
X7399337Y-772652D01*
X7378652Y-793337D01*
X7367000Y-810776D01*
X7355347Y-793337D01*
X7334663Y-772652D01*
X7310341Y-756401D01*
X7283316Y-745207D01*
X7254626Y-739500D01*
X7225374Y-739500D01*
X7196684Y-745207D01*
X7169659Y-756401D01*
X7145337Y-772652D01*
X7124652Y-793337D01*
X7113000Y-810776D01*
X7101347Y-793337D01*
X7080663Y-772652D01*
X7056341Y-756401D01*
X7029316Y-745207D01*
X7000626Y-739500D01*
X6971374Y-739500D01*
X6942684Y-745207D01*
X6915659Y-756401D01*
X6891337Y-772652D01*
X6870652Y-793337D01*
X6859000Y-810776D01*
X6847347Y-793337D01*
X6826663Y-772652D01*
X6802341Y-756401D01*
X6775316Y-745207D01*
X6746626Y-739500D01*
X6717374Y-739500D01*
X6688684Y-745207D01*
X6661659Y-756401D01*
X6637337Y-772652D01*
X6616652Y-793337D01*
X6605000Y-810776D01*
X6593347Y-793337D01*
X6572663Y-772652D01*
X6548341Y-756401D01*
X6521316Y-745207D01*
X6492626Y-739500D01*
X6463374Y-739500D01*
X6434684Y-745207D01*
X6407659Y-756401D01*
X6383337Y-772652D01*
X6362652Y-793337D01*
X6351000Y-810776D01*
X6339347Y-793337D01*
X6318663Y-772652D01*
X6294341Y-756401D01*
X6267316Y-745207D01*
X6238626Y-739500D01*
X6209374Y-739500D01*
X6180684Y-745207D01*
X6153659Y-756401D01*
X6129337Y-772652D01*
X6108652Y-793337D01*
X6097000Y-810776D01*
X6085347Y-793337D01*
X6064663Y-772652D01*
X6040341Y-756401D01*
X6013316Y-745207D01*
X5984626Y-739500D01*
X5955374Y-739500D01*
X5926684Y-745207D01*
X5899659Y-756401D01*
X5875337Y-772652D01*
X5854652Y-793337D01*
X5843000Y-810776D01*
X5831347Y-793337D01*
X5810663Y-772652D01*
X5786341Y-756401D01*
X5759316Y-745207D01*
X5730626Y-739500D01*
X5701374Y-739500D01*
X5672684Y-745207D01*
X5645659Y-756401D01*
X5621337Y-772652D01*
X5600652Y-793337D01*
X5589069Y-810673D01*
X5564840Y-803121D01*
X5479961Y-888000D01*
X5564840Y-972879D01*
X5589069Y-965327D01*
X5600652Y-982663D01*
X5621337Y-1003347D01*
X5638673Y-1014931D01*
X5631121Y-1039160D01*
X5716000Y-1124040D01*
X5800879Y-1039160D01*
X5793327Y-1014931D01*
X5810663Y-1003347D01*
X5831347Y-982663D01*
X5843000Y-965224D01*
X5854652Y-982663D01*
X5875337Y-1003347D01*
X5892776Y-1015000D01*
X5875337Y-1026652D01*
X5854652Y-1047337D01*
X5843069Y-1064673D01*
X5818840Y-1057121D01*
X5733960Y-1142000D01*
X5818840Y-1226879D01*
X5843069Y-1219327D01*
X5854652Y-1236663D01*
X5875337Y-1257348D01*
X5899659Y-1273599D01*
X5926684Y-1284793D01*
X5955374Y-1290500D01*
X5984626Y-1290500D01*
X6013316Y-1284793D01*
X6040341Y-1273599D01*
X6064663Y-1257348D01*
X6085347Y-1236663D01*
X6097000Y-1219224D01*
X6108652Y-1236663D01*
X6129337Y-1257348D01*
X6153659Y-1273599D01*
X6180684Y-1284793D01*
X6209374Y-1290500D01*
X6238626Y-1290500D01*
X6267316Y-1284793D01*
X6294341Y-1273599D01*
X6318663Y-1257348D01*
X6339347Y-1236663D01*
X6351000Y-1219224D01*
X6362652Y-1236663D01*
X6383337Y-1257348D01*
X6407659Y-1273599D01*
X6434684Y-1284793D01*
X6463374Y-1290500D01*
X6492626Y-1290500D01*
X6521316Y-1284793D01*
X6548341Y-1273599D01*
X6572663Y-1257348D01*
X6593347Y-1236663D01*
X6605000Y-1219224D01*
X6616652Y-1236663D01*
X6637337Y-1257348D01*
X6661659Y-1273599D01*
X6688684Y-1284793D01*
X6717374Y-1290500D01*
X6746626Y-1290500D01*
X6775316Y-1284793D01*
X6802341Y-1273599D01*
X6826663Y-1257348D01*
X6847347Y-1236663D01*
X6859000Y-1219224D01*
X6870652Y-1236663D01*
X6891337Y-1257348D01*
X6907260Y-1267987D01*
X6907260Y-3624688D01*
X6907260Y-3649385D01*
X6699385Y-3857260D01*
X3179866Y-3857260D01*
X3176000Y-3856879D01*
X3172134Y-3857260D01*
X3172133Y-3857260D01*
X3160564Y-3858399D01*
X3145722Y-3862902D01*
X3132043Y-3870213D01*
X3132043Y-3870213D01*
X3132043Y-3870213D01*
X3123057Y-3877588D01*
X3123057Y-3877588D01*
X3120053Y-3880053D01*
X3117588Y-3883057D01*
X2869057Y-4131588D01*
X2866053Y-4134053D01*
X2863588Y-4137057D01*
X2856213Y-4146043D01*
X2848902Y-4159722D01*
X2844399Y-4174564D01*
X2842879Y-4190000D01*
X2843260Y-4193867D01*
X2843260Y-7332385D01*
X2762385Y-7413260D01*
X1938615Y-7413260D01*
X1857740Y-7332385D01*
X1857740Y-7266575D01*
X1966500Y-7266575D01*
X1966500Y-7334254D01*
X1968940Y-7346522D01*
X1973727Y-7358078D01*
X1980676Y-7368479D01*
X1989521Y-7377324D01*
X1999921Y-7384273D01*
X2011478Y-7389060D01*
X2023746Y-7391500D01*
X2131425Y-7391500D01*
X2147300Y-7375625D01*
X2147300Y-7250700D01*
X2172700Y-7250700D01*
X2172700Y-7375625D01*
X2188575Y-7391500D01*
X2296254Y-7391500D01*
X2308522Y-7389060D01*
X2320079Y-7384273D01*
X2330479Y-7377324D01*
X2339324Y-7368479D01*
X2346273Y-7358078D01*
X2351060Y-7346522D01*
X2353500Y-7334254D01*
X2353500Y-7266575D01*
X2337625Y-7250700D01*
X2172700Y-7250700D01*
X2147300Y-7250700D01*
X1982375Y-7250700D01*
X1966500Y-7266575D01*
X1857740Y-7266575D01*
X1857740Y-6889615D01*
X1938615Y-6808740D01*
X1988036Y-6808740D01*
X1991752Y-6815693D01*
X2010934Y-6839066D01*
X2032786Y-6857000D01*
X2010934Y-6874934D01*
X1991752Y-6898307D01*
X1977498Y-6924974D01*
X1968721Y-6953909D01*
X1965757Y-6984000D01*
X1968721Y-7014091D01*
X1977498Y-7043026D01*
X1991752Y-7069693D01*
X2007320Y-7088662D01*
X1999921Y-7091727D01*
X1989521Y-7098676D01*
X1980676Y-7107521D01*
X1973727Y-7117921D01*
X1968940Y-7129478D01*
X1966500Y-7141746D01*
X1966500Y-7209425D01*
X1982375Y-7225300D01*
X2147300Y-7225300D01*
X2147300Y-7223300D01*
X2172700Y-7223300D01*
X2172700Y-7225300D01*
X2337625Y-7225300D01*
X2353500Y-7209425D01*
X2353500Y-7141746D01*
X2351060Y-7129478D01*
X2346273Y-7117921D01*
X2339324Y-7107521D01*
X2330479Y-7098676D01*
X2320079Y-7091727D01*
X2312680Y-7088662D01*
X2321447Y-7077980D01*
X2536384Y-7077980D01*
X2541000Y-7078435D01*
X2545616Y-7077980D01*
X2545617Y-7077980D01*
X2559423Y-7076620D01*
X2577139Y-7071246D01*
X2593465Y-7062520D01*
X2607775Y-7050775D01*
X2610719Y-7047188D01*
X2731190Y-6926718D01*
X2734775Y-6923775D01*
X2746520Y-6909465D01*
X2755246Y-6893139D01*
X2760620Y-6875423D01*
X2761980Y-6861617D01*
X2761980Y-6861616D01*
X2762435Y-6857000D01*
X2761980Y-6852384D01*
X2761980Y-3784428D01*
X2770428Y-3775980D01*
X5012884Y-3775980D01*
X5017500Y-3776435D01*
X5022116Y-3775980D01*
X5022117Y-3775980D01*
X5035923Y-3774620D01*
X5053639Y-3769246D01*
X5069965Y-3760520D01*
X5084275Y-3748775D01*
X5087219Y-3745188D01*
X5271190Y-3561218D01*
X5274775Y-3558275D01*
X5282031Y-3549434D01*
X5286520Y-3543965D01*
X5295246Y-3527639D01*
X5295366Y-3527246D01*
X5300620Y-3509923D01*
X5301980Y-3496117D01*
X5301980Y-3496116D01*
X5302435Y-3491500D01*
X5301980Y-3486884D01*
X5301980Y-1257804D01*
X5302663Y-1257348D01*
X5315171Y-1244840D01*
X5377121Y-1244840D01*
X5384884Y-1269747D01*
X5411288Y-1282337D01*
X5439641Y-1289534D01*
X5468853Y-1291061D01*
X5497802Y-1286860D01*
X5525375Y-1277092D01*
X5539116Y-1269747D01*
X5546879Y-1244840D01*
X5631121Y-1244840D01*
X5638884Y-1269747D01*
X5665288Y-1282337D01*
X5693641Y-1289534D01*
X5722853Y-1291061D01*
X5751802Y-1286860D01*
X5779375Y-1277092D01*
X5793116Y-1269747D01*
X5800879Y-1244840D01*
X5716000Y-1159961D01*
X5631121Y-1244840D01*
X5546879Y-1244840D01*
X5462000Y-1159961D01*
X5377121Y-1244840D01*
X5315171Y-1244840D01*
X5323348Y-1236663D01*
X5334931Y-1219327D01*
X5359160Y-1226879D01*
X5444040Y-1142000D01*
X5479961Y-1142000D01*
X5564840Y-1226879D01*
X5589000Y-1219349D01*
X5613160Y-1226879D01*
X5698039Y-1142000D01*
X5613160Y-1057121D01*
X5589000Y-1064651D01*
X5564840Y-1057121D01*
X5479961Y-1142000D01*
X5444040Y-1142000D01*
X5359160Y-1057121D01*
X5334931Y-1064673D01*
X5323348Y-1047337D01*
X5302663Y-1026652D01*
X5285224Y-1015000D01*
X5302663Y-1003347D01*
X5315171Y-990840D01*
X5377121Y-990840D01*
X5384651Y-1015000D01*
X5377121Y-1039160D01*
X5462000Y-1124040D01*
X5546879Y-1039160D01*
X5539349Y-1015000D01*
X5546879Y-990840D01*
X5462000Y-905960D01*
X5377121Y-990840D01*
X5315171Y-990840D01*
X5323348Y-982663D01*
X5334931Y-965327D01*
X5359160Y-972879D01*
X5444040Y-888000D01*
X5359160Y-803121D01*
X5334931Y-810673D01*
X5323348Y-793337D01*
X5315171Y-785160D01*
X5377121Y-785160D01*
X5462000Y-870039D01*
X5546879Y-785160D01*
X5539116Y-760253D01*
X5512712Y-747663D01*
X5484359Y-740466D01*
X5455147Y-738939D01*
X5426198Y-743140D01*
X5398625Y-752908D01*
X5384884Y-760253D01*
X5377121Y-785160D01*
X5315171Y-785160D01*
X5302663Y-772652D01*
X5278341Y-756401D01*
X5251316Y-745207D01*
X5222626Y-739500D01*
X5193374Y-739500D01*
X5164684Y-745207D01*
X5137659Y-756401D01*
X5113337Y-772652D01*
X5092653Y-793337D01*
X5081000Y-810776D01*
X5069348Y-793337D01*
X5048663Y-772652D01*
X5024341Y-756401D01*
X4997316Y-745207D01*
X4968626Y-739500D01*
X4939374Y-739500D01*
X4910684Y-745207D01*
X4883659Y-756401D01*
X4859337Y-772652D01*
X4838653Y-793337D01*
X4827000Y-810776D01*
X4815348Y-793337D01*
X4794663Y-772652D01*
X4770341Y-756401D01*
X4743316Y-745207D01*
X4714626Y-739500D01*
X4685374Y-739500D01*
X4656684Y-745207D01*
X4629659Y-756401D01*
X4605337Y-772652D01*
X4584653Y-793337D01*
X4573000Y-810776D01*
X4561348Y-793337D01*
X4540663Y-772652D01*
X4516341Y-756401D01*
X4489316Y-745207D01*
X4460626Y-739500D01*
X4431374Y-739500D01*
X4402684Y-745207D01*
X4375659Y-756401D01*
X4351337Y-772652D01*
X4330653Y-793337D01*
X4319000Y-810776D01*
X4307348Y-793337D01*
X4286663Y-772652D01*
X4262341Y-756401D01*
X4235316Y-745207D01*
X4206626Y-739500D01*
X4177374Y-739500D01*
X4148684Y-745207D01*
X4121659Y-756401D01*
X4097337Y-772652D01*
X4076652Y-793337D01*
X4065000Y-810776D01*
X4053347Y-793337D01*
X4032663Y-772652D01*
X4008341Y-756401D01*
X3981316Y-745207D01*
X3952626Y-739500D01*
X3923374Y-739500D01*
X3894684Y-745207D01*
X3867659Y-756401D01*
X3843337Y-772652D01*
X3822652Y-793337D01*
X3811000Y-810776D01*
X3799347Y-793337D01*
X3778663Y-772652D01*
X3754341Y-756401D01*
X3727316Y-745207D01*
X3698626Y-739500D01*
X3669374Y-739500D01*
X3640684Y-745207D01*
X3613659Y-756401D01*
X3589337Y-772652D01*
X3568652Y-793337D01*
X3557000Y-810776D01*
X3545347Y-793337D01*
X3524663Y-772652D01*
X3500341Y-756401D01*
X3473316Y-745207D01*
X3444626Y-739500D01*
X3415374Y-739500D01*
X3386684Y-745207D01*
X3359659Y-756401D01*
X3335337Y-772652D01*
X3322151Y-785838D01*
X3319950Y-778582D01*
X3314054Y-767551D01*
X3306118Y-757881D01*
X3296449Y-749946D01*
X3285418Y-744050D01*
X3273448Y-740419D01*
X3261000Y-739193D01*
X3091000Y-739193D01*
X3078552Y-740419D01*
X3066582Y-744050D01*
X3055551Y-749946D01*
X3045881Y-757881D01*
X3037946Y-767551D01*
X3032050Y-778582D01*
X3028419Y-790552D01*
X3027193Y-803000D01*
X3027193Y-973000D01*
X3028419Y-985448D01*
X3032050Y-997418D01*
X3037946Y-1008449D01*
X3045881Y-1018118D01*
X3055551Y-1026054D01*
X3066582Y-1031950D01*
X3073838Y-1034151D01*
X3060652Y-1047337D01*
X3044401Y-1071659D01*
X3033207Y-1098684D01*
X3027500Y-1127374D01*
X3027500Y-1156626D01*
X3033207Y-1185316D01*
X3044401Y-1212341D01*
X3060652Y-1236663D01*
X3081337Y-1257348D01*
X3105659Y-1273599D01*
X3132684Y-1284793D01*
X3161374Y-1290500D01*
X3190626Y-1290500D01*
X3219316Y-1284793D01*
X3246341Y-1273599D01*
X3270663Y-1257348D01*
X3291347Y-1236663D01*
X3303000Y-1219224D01*
X3314652Y-1236663D01*
X3335337Y-1257348D01*
X3359659Y-1273599D01*
X3386684Y-1284793D01*
X3415374Y-1290500D01*
X3444626Y-1290500D01*
X3473316Y-1284793D01*
X3500341Y-1273599D01*
X3524663Y-1257348D01*
X3545347Y-1236663D01*
X3557000Y-1219224D01*
X3568652Y-1236663D01*
X3589337Y-1257348D01*
X3590020Y-1257804D01*
X3590020Y-2182572D01*
X3518072Y-2254520D01*
X1666807Y-2254520D01*
X1666807Y-2143500D01*
X1665581Y-2131052D01*
X1661950Y-2119082D01*
X1656054Y-2108051D01*
X1648118Y-2098382D01*
X1638449Y-2090446D01*
X1627418Y-2084550D01*
X1615448Y-2080919D01*
X1603000Y-2079693D01*
X1193000Y-2079693D01*
X1180552Y-2080919D01*
X1168582Y-2084550D01*
X1157551Y-2090446D01*
X1147882Y-2098382D01*
X1139946Y-2108051D01*
X1134050Y-2119082D01*
X1130419Y-2131052D01*
X1129193Y-2143500D01*
X1129193Y-2553500D01*
X1129448Y-2556093D01*
X1123953Y-2555000D01*
X1072048Y-2555000D01*
X1021140Y-2565126D01*
X973186Y-2584989D01*
X930028Y-2613826D01*
X893326Y-2650529D01*
X864489Y-2693686D01*
X844626Y-2741640D01*
X834500Y-2792548D01*
X71000Y-2792548D01*
X71000Y-2562949D01*
X671656Y-2562949D01*
X697140Y-2593312D01*
X746839Y-2608285D01*
X798503Y-2613275D01*
X850149Y-2608089D01*
X898860Y-2593312D01*
X924344Y-2562949D01*
X798000Y-2436606D01*
X671656Y-2562949D01*
X71000Y-2562949D01*
X71000Y-2349004D01*
X533226Y-2349004D01*
X538411Y-2400649D01*
X553188Y-2449360D01*
X583551Y-2474844D01*
X709894Y-2348500D01*
X886105Y-2348500D01*
X1012449Y-2474844D01*
X1042812Y-2449360D01*
X1057785Y-2399661D01*
X1062775Y-2347997D01*
X1057589Y-2296351D01*
X1042812Y-2247640D01*
X1012449Y-2222156D01*
X886105Y-2348500D01*
X709894Y-2348500D01*
X583551Y-2222156D01*
X553188Y-2247640D01*
X538215Y-2297339D01*
X533226Y-2349004D01*
X71000Y-2349004D01*
X71000Y-2134051D01*
X671656Y-2134051D01*
X798000Y-2260395D01*
X924344Y-2134051D01*
X898860Y-2103688D01*
X849161Y-2088715D01*
X797496Y-2083725D01*
X745851Y-2088911D01*
X697140Y-2103688D01*
X671656Y-2134051D01*
X71000Y-2134051D01*
X71000Y-1114270D01*
X939690Y-1114270D01*
X946849Y-1138667D01*
X972400Y-1150757D01*
X999818Y-1157630D01*
X1028051Y-1159022D01*
X1056013Y-1154879D01*
X1082629Y-1145360D01*
X1095151Y-1138667D01*
X1102310Y-1114270D01*
X1021000Y-1032960D01*
X939690Y-1114270D01*
X71000Y-1114270D01*
X71000Y-1022051D01*
X876978Y-1022051D01*
X881121Y-1050013D01*
X890640Y-1076629D01*
X897333Y-1089151D01*
X921730Y-1096310D01*
X1003039Y-1015000D01*
X1038960Y-1015000D01*
X1120270Y-1096310D01*
X1127193Y-1094279D01*
X1127193Y-1095000D01*
X1128419Y-1107448D01*
X1132050Y-1119418D01*
X1137946Y-1130449D01*
X1145882Y-1140119D01*
X1155551Y-1148054D01*
X1166582Y-1153950D01*
X1178552Y-1157581D01*
X1191000Y-1158807D01*
X1351000Y-1158807D01*
X1363448Y-1157581D01*
X1375418Y-1153950D01*
X1386449Y-1148054D01*
X1396119Y-1140119D01*
X1404054Y-1130449D01*
X1409950Y-1119418D01*
X1413581Y-1107448D01*
X1414807Y-1095000D01*
X1414807Y-935000D01*
X1413581Y-922552D01*
X1409950Y-910582D01*
X1404054Y-899551D01*
X1396119Y-889881D01*
X1386449Y-881946D01*
X1375418Y-876050D01*
X1363448Y-872419D01*
X1351000Y-871193D01*
X1191000Y-871193D01*
X1178552Y-872419D01*
X1166582Y-876050D01*
X1155551Y-881946D01*
X1145882Y-889881D01*
X1137946Y-899551D01*
X1132050Y-910582D01*
X1128419Y-922552D01*
X1127193Y-935000D01*
X1127193Y-935721D01*
X1120270Y-933690D01*
X1038960Y-1015000D01*
X1003039Y-1015000D01*
X921730Y-933690D01*
X897333Y-940849D01*
X885243Y-966400D01*
X878370Y-993818D01*
X876978Y-1022051D01*
X71000Y-1022051D01*
X71000Y-915730D01*
X939690Y-915730D01*
X1021000Y-997039D01*
X1102310Y-915730D01*
X1095151Y-891333D01*
X1069600Y-879243D01*
X1042182Y-872370D01*
X1013949Y-870978D01*
X985987Y-875121D01*
X959371Y-884640D01*
X946849Y-891333D01*
X939690Y-915730D01*
X71000Y-915730D01*
X71000Y-650457D01*
X79435Y-663081D01*
X136919Y-720565D01*
X204513Y-765730D01*
X279620Y-796840D01*
X359353Y-812700D01*
X440647Y-812700D01*
X520380Y-796840D01*
X595487Y-765730D01*
X663081Y-720565D01*
X720565Y-663081D01*
X765730Y-595487D01*
X796840Y-520380D01*
X812700Y-440647D01*
X812700Y-359353D01*
X796840Y-279620D01*
X765730Y-204513D01*
X720565Y-136919D01*
X663081Y-79435D01*
X650457Y-71000D01*
X9349543Y-71000D01*
X9336919Y-79435D01*
X9336919Y-79435D01*
G37*
X9336919Y-79435D02*
X9279435Y-136919D01*
X9234270Y-204513D01*
X9203160Y-279620D01*
X9187300Y-359353D01*
X9187300Y-440647D01*
X9203160Y-520380D01*
X9234270Y-595487D01*
X9279435Y-663081D01*
X9336919Y-720565D01*
X9404513Y-765730D01*
X9479620Y-796840D01*
X9559353Y-812700D01*
X9640647Y-812700D01*
X9720380Y-796840D01*
X9795487Y-765730D01*
X9863081Y-720565D01*
X9920565Y-663081D01*
X9929000Y-650457D01*
X9929000Y-7349543D01*
X9920565Y-7336919D01*
X9863081Y-7279435D01*
X9795487Y-7234270D01*
X9720380Y-7203160D01*
X9640647Y-7187300D01*
X9559353Y-7187300D01*
X9479620Y-7203160D01*
X9404513Y-7234270D01*
X9336919Y-7279435D01*
X9279435Y-7336919D01*
X9234270Y-7404513D01*
X9203160Y-7479620D01*
X9187300Y-7559353D01*
X9187300Y-7640647D01*
X9203160Y-7720380D01*
X9234270Y-7795487D01*
X9279435Y-7863081D01*
X9336919Y-7920565D01*
X9349543Y-7929000D01*
X650457Y-7929000D01*
X663081Y-7920565D01*
X720565Y-7863081D01*
X765730Y-7795487D01*
X796840Y-7720380D01*
X812700Y-7640647D01*
X812700Y-7559353D01*
X796840Y-7479620D01*
X765730Y-7404513D01*
X720565Y-7336919D01*
X663081Y-7279435D01*
X595487Y-7234270D01*
X520380Y-7203160D01*
X440647Y-7187300D01*
X359353Y-7187300D01*
X279620Y-7203160D01*
X204513Y-7234270D01*
X136919Y-7279435D01*
X79435Y-7336919D01*
X71000Y-7349543D01*
X71000Y-3872500D01*
X613782Y-3872500D01*
X616649Y-3901611D01*
X625140Y-3929603D01*
X638929Y-3955401D01*
X657487Y-3978013D01*
X680099Y-3996571D01*
X685579Y-3999500D01*
X680099Y-4002429D01*
X657487Y-4020987D01*
X638929Y-4043599D01*
X625140Y-4069397D01*
X616649Y-4097389D01*
X613782Y-4126500D01*
X616649Y-4155611D01*
X625140Y-4183603D01*
X638929Y-4209401D01*
X657487Y-4232013D01*
X680099Y-4250571D01*
X685579Y-4253500D01*
X680099Y-4256429D01*
X657487Y-4274987D01*
X638929Y-4297599D01*
X625140Y-4323397D01*
X616649Y-4351389D01*
X613782Y-4380500D01*
X616649Y-4409611D01*
X625140Y-4437603D01*
X638929Y-4463401D01*
X657487Y-4486013D01*
X680099Y-4504571D01*
X685579Y-4507500D01*
X680099Y-4510429D01*
X657487Y-4528987D01*
X638929Y-4551599D01*
X625140Y-4577397D01*
X616649Y-4605389D01*
X613782Y-4634500D01*
X616649Y-4663611D01*
X625140Y-4691603D01*
X638929Y-4717401D01*
X657487Y-4740013D01*
X680099Y-4758571D01*
X705897Y-4772360D01*
X733889Y-4780851D01*
X755705Y-4783000D01*
X770295Y-4783000D01*
X792111Y-4780851D01*
X820103Y-4772360D01*
X845901Y-4758571D01*
X868513Y-4740013D01*
X887071Y-4717401D01*
X900860Y-4691603D01*
X909351Y-4663611D01*
X912218Y-4634500D01*
X909351Y-4605389D01*
X900860Y-4577397D01*
X887071Y-4551599D01*
X868513Y-4528987D01*
X845901Y-4510429D01*
X840421Y-4507500D01*
X845901Y-4504571D01*
X868513Y-4486013D01*
X887071Y-4463401D01*
X900860Y-4437603D01*
X909351Y-4409611D01*
X912218Y-4380500D01*
X909351Y-4351389D01*
X900860Y-4323397D01*
X887071Y-4297599D01*
X868513Y-4274987D01*
X845901Y-4256429D01*
X840421Y-4253500D01*
X845901Y-4250571D01*
X868513Y-4232013D01*
X887071Y-4209401D01*
X900860Y-4183603D01*
X909351Y-4155611D01*
X912218Y-4126500D01*
X909351Y-4097389D01*
X900860Y-4069397D01*
X887071Y-4043599D01*
X868513Y-4020987D01*
X845901Y-4002429D01*
X840421Y-3999500D01*
X845901Y-3996571D01*
X868513Y-3978013D01*
X887071Y-3955401D01*
X900860Y-3929603D01*
X909351Y-3901611D01*
X912218Y-3872500D01*
X909351Y-3843389D01*
X900860Y-3815397D01*
X887071Y-3789599D01*
X868513Y-3766987D01*
X865745Y-3764714D01*
X866522Y-3764560D01*
X878078Y-3759773D01*
X888479Y-3752824D01*
X897324Y-3743979D01*
X904273Y-3733578D01*
X909060Y-3722022D01*
X911500Y-3709754D01*
X911500Y-3647075D01*
X895625Y-3631200D01*
X775700Y-3631200D01*
X775700Y-3633200D01*
X750300Y-3633200D01*
X750300Y-3631200D01*
X630375Y-3631200D01*
X614500Y-3647075D01*
X614500Y-3709754D01*
X616940Y-3722022D01*
X621727Y-3733578D01*
X628676Y-3743979D01*
X637521Y-3752824D01*
X647922Y-3759773D01*
X659478Y-3764560D01*
X660255Y-3764714D01*
X657487Y-3766987D01*
X638929Y-3789599D01*
X625140Y-3815397D01*
X616649Y-3843389D01*
X613782Y-3872500D01*
X71000Y-3872500D01*
X71000Y-3527246D01*
X614500Y-3527246D01*
X614500Y-3589925D01*
X630375Y-3605800D01*
X750300Y-3605800D01*
X750300Y-3485875D01*
X775700Y-3485875D01*
X775700Y-3605800D01*
X895625Y-3605800D01*
X911500Y-3589925D01*
X911500Y-3527246D01*
X909060Y-3514978D01*
X904273Y-3503421D01*
X897324Y-3493021D01*
X888479Y-3484176D01*
X878078Y-3477227D01*
X866522Y-3472440D01*
X854254Y-3470000D01*
X791575Y-3470000D01*
X775700Y-3485875D01*
X750300Y-3485875D01*
X734425Y-3470000D01*
X671746Y-3470000D01*
X659478Y-3472440D01*
X647922Y-3477227D01*
X637521Y-3484176D01*
X628676Y-3493021D01*
X621727Y-3503421D01*
X616940Y-3514978D01*
X614500Y-3527246D01*
X71000Y-3527246D01*
X71000Y-2792548D01*
X834500Y-2792548D01*
X834500Y-2844452D01*
X844626Y-2895360D01*
X864489Y-2943314D01*
X893326Y-2986471D01*
X930028Y-3023174D01*
X973186Y-3052011D01*
X1021140Y-3071874D01*
X1072048Y-3082000D01*
X1123953Y-3082000D01*
X1174860Y-3071874D01*
X1222814Y-3052011D01*
X1265972Y-3023174D01*
X1302674Y-2986471D01*
X1331511Y-2943314D01*
X1351374Y-2895360D01*
X1361500Y-2844452D01*
X1361500Y-2792548D01*
X1351374Y-2741640D01*
X1331511Y-2693686D01*
X1302674Y-2650529D01*
X1269453Y-2617307D01*
X1603000Y-2617307D01*
X1615448Y-2616081D01*
X1627418Y-2612450D01*
X1638449Y-2606554D01*
X1648118Y-2598619D01*
X1656054Y-2588949D01*
X1661950Y-2577918D01*
X1665581Y-2565948D01*
X1666807Y-2553500D01*
X1666807Y-2442480D01*
X3552384Y-2442480D01*
X3557000Y-2442935D01*
X3561616Y-2442480D01*
X3561617Y-2442480D01*
X3575423Y-2441120D01*
X3593139Y-2435746D01*
X3609465Y-2427020D01*
X3623775Y-2415275D01*
X3626719Y-2411689D01*
X3747189Y-2291218D01*
X3750775Y-2288275D01*
X3762520Y-2273965D01*
X3771246Y-2257639D01*
X3776620Y-2239923D01*
X3777980Y-2226117D01*
X3777980Y-2226116D01*
X3778435Y-2221500D01*
X3777980Y-2216884D01*
X3777980Y-1257804D01*
X3778663Y-1257348D01*
X3791171Y-1244840D01*
X3853121Y-1244840D01*
X3860884Y-1269747D01*
X3887288Y-1282337D01*
X3915641Y-1289534D01*
X3944853Y-1291061D01*
X3973802Y-1286860D01*
X4001375Y-1277092D01*
X4015116Y-1269747D01*
X4022879Y-1244840D01*
X3938000Y-1159961D01*
X3853121Y-1244840D01*
X3791171Y-1244840D01*
X3799347Y-1236663D01*
X3810931Y-1219327D01*
X3835160Y-1226879D01*
X3920039Y-1142000D01*
X3835160Y-1057121D01*
X3810931Y-1064673D01*
X3799347Y-1047337D01*
X3778663Y-1026652D01*
X3761224Y-1015000D01*
X3778663Y-1003347D01*
X3799347Y-982663D01*
X3811000Y-965224D01*
X3822652Y-982663D01*
X3843337Y-1003347D01*
X3860673Y-1014931D01*
X3853121Y-1039160D01*
X3938000Y-1124040D01*
X4022879Y-1039160D01*
X4015327Y-1014931D01*
X4032663Y-1003347D01*
X4053347Y-982663D01*
X4065000Y-965224D01*
X4076652Y-982663D01*
X4097337Y-1003347D01*
X4114776Y-1015000D01*
X4097337Y-1026652D01*
X4076652Y-1047337D01*
X4065069Y-1064673D01*
X4040840Y-1057121D01*
X3955960Y-1142000D01*
X4040840Y-1226879D01*
X4065069Y-1219327D01*
X4076652Y-1236663D01*
X4097337Y-1257348D01*
X4121659Y-1273599D01*
X4148684Y-1284793D01*
X4177374Y-1290500D01*
X4206626Y-1290500D01*
X4235316Y-1284793D01*
X4262341Y-1273599D01*
X4286663Y-1257348D01*
X4307348Y-1236663D01*
X4319000Y-1219224D01*
X4330653Y-1236663D01*
X4351337Y-1257348D01*
X4375659Y-1273599D01*
X4402684Y-1284793D01*
X4431374Y-1290500D01*
X4460626Y-1290500D01*
X4489316Y-1284793D01*
X4516341Y-1273599D01*
X4540663Y-1257348D01*
X4561348Y-1236663D01*
X4573000Y-1219224D01*
X4584653Y-1236663D01*
X4605337Y-1257348D01*
X4629659Y-1273599D01*
X4656684Y-1284793D01*
X4685374Y-1290500D01*
X4714626Y-1290500D01*
X4743316Y-1284793D01*
X4770341Y-1273599D01*
X4794663Y-1257348D01*
X4815348Y-1236663D01*
X4827000Y-1219224D01*
X4838653Y-1236663D01*
X4859337Y-1257348D01*
X4883659Y-1273599D01*
X4910684Y-1284793D01*
X4939374Y-1290500D01*
X4968626Y-1290500D01*
X4997316Y-1284793D01*
X5024341Y-1273599D01*
X5048663Y-1257348D01*
X5069348Y-1236663D01*
X5081000Y-1219224D01*
X5092653Y-1236663D01*
X5113337Y-1257348D01*
X5114020Y-1257804D01*
X5114020Y-3452572D01*
X4978572Y-3588020D01*
X2736117Y-3588020D01*
X2731500Y-3587565D01*
X2726884Y-3588020D01*
X2672617Y-3588020D01*
X2668000Y-3587565D01*
X2663383Y-3588020D01*
X2609116Y-3588020D01*
X2604500Y-3587565D01*
X2599884Y-3588020D01*
X2321447Y-3588020D01*
X2309066Y-3572934D01*
X2287214Y-3555000D01*
X2309066Y-3537066D01*
X2328248Y-3513693D01*
X2342502Y-3487026D01*
X2351279Y-3458091D01*
X2354243Y-3428000D01*
X2351279Y-3397909D01*
X2342502Y-3368974D01*
X2328248Y-3342307D01*
X2309066Y-3318934D01*
X2285693Y-3299752D01*
X2259026Y-3285498D01*
X2230091Y-3276721D01*
X2207541Y-3274500D01*
X2112459Y-3274500D01*
X2089909Y-3276721D01*
X2060974Y-3285498D01*
X2034307Y-3299752D01*
X2010934Y-3318934D01*
X1991752Y-3342307D01*
X1977498Y-3368974D01*
X1968721Y-3397909D01*
X1965757Y-3428000D01*
X1968721Y-3458091D01*
X1977498Y-3487026D01*
X1991752Y-3513693D01*
X2010934Y-3537066D01*
X2032786Y-3555000D01*
X2010934Y-3572934D01*
X1991752Y-3596307D01*
X1977498Y-3622974D01*
X1968721Y-3651909D01*
X1965757Y-3682000D01*
X1968721Y-3712091D01*
X1977498Y-3741026D01*
X1991752Y-3767693D01*
X2010934Y-3791066D01*
X2032786Y-3809000D01*
X2010934Y-3826934D01*
X1991752Y-3850307D01*
X1977498Y-3876974D01*
X1968721Y-3905909D01*
X1965757Y-3936000D01*
X1968721Y-3966091D01*
X1977498Y-3995026D01*
X1991752Y-4021693D01*
X2010934Y-4045066D01*
X2032786Y-4063000D01*
X2010934Y-4080934D01*
X1991752Y-4104307D01*
X1977498Y-4130974D01*
X1968721Y-4159909D01*
X1965757Y-4190000D01*
X1968721Y-4220091D01*
X1977498Y-4249026D01*
X1991752Y-4275693D01*
X2010934Y-4299066D01*
X2032786Y-4317000D01*
X2010934Y-4334934D01*
X1991752Y-4358307D01*
X1977498Y-4384974D01*
X1968721Y-4413909D01*
X1965757Y-4444000D01*
X1968721Y-4474091D01*
X1977498Y-4503026D01*
X1991752Y-4529693D01*
X2010934Y-4553066D01*
X2032786Y-4571000D01*
X2010934Y-4588934D01*
X1991752Y-4612307D01*
X1977498Y-4638974D01*
X1968721Y-4667909D01*
X1965757Y-4698000D01*
X1968721Y-4728091D01*
X1977498Y-4757026D01*
X1991752Y-4783693D01*
X2010934Y-4807066D01*
X2032786Y-4825000D01*
X2010934Y-4842934D01*
X1991752Y-4866307D01*
X1977498Y-4892974D01*
X1968721Y-4921909D01*
X1965757Y-4952000D01*
X1968721Y-4982091D01*
X1977498Y-5011026D01*
X1991752Y-5037693D01*
X2010934Y-5061066D01*
X2032786Y-5079000D01*
X2010934Y-5096934D01*
X1991752Y-5120307D01*
X1977498Y-5146974D01*
X1968721Y-5175909D01*
X1965757Y-5206000D01*
X1968721Y-5236091D01*
X1977498Y-5265026D01*
X1991752Y-5291693D01*
X2010934Y-5315066D01*
X2032786Y-5333000D01*
X2010934Y-5350934D01*
X1991752Y-5374307D01*
X1977498Y-5400974D01*
X1968721Y-5429909D01*
X1965757Y-5460000D01*
X1968721Y-5490091D01*
X1977498Y-5519026D01*
X1991752Y-5545693D01*
X2010934Y-5569066D01*
X2032786Y-5587000D01*
X2010934Y-5604934D01*
X1991752Y-5628307D01*
X1977498Y-5654974D01*
X1968721Y-5683909D01*
X1965757Y-5714000D01*
X1968721Y-5744091D01*
X1977498Y-5773026D01*
X1991752Y-5799693D01*
X2010934Y-5823066D01*
X2032786Y-5841000D01*
X2010934Y-5858934D01*
X1991752Y-5882307D01*
X1977498Y-5908974D01*
X1968721Y-5937909D01*
X1965757Y-5968000D01*
X1968721Y-5998091D01*
X1977498Y-6027026D01*
X1991752Y-6053693D01*
X2010934Y-6077066D01*
X2033369Y-6095478D01*
X2024160Y-6101425D01*
X2002479Y-6122439D01*
X1985314Y-6147280D01*
X1973324Y-6174991D01*
X1970896Y-6185526D01*
X1982962Y-6209300D01*
X2147300Y-6209300D01*
X2147300Y-6207300D01*
X2172700Y-6207300D01*
X2172700Y-6209300D01*
X2337038Y-6209300D01*
X2349104Y-6185526D01*
X2346676Y-6174991D01*
X2334686Y-6147280D01*
X2317521Y-6122439D01*
X2295840Y-6101425D01*
X2286631Y-6095478D01*
X2309066Y-6077066D01*
X2328248Y-6053693D01*
X2342502Y-6027026D01*
X2351279Y-5998091D01*
X2354243Y-5968000D01*
X2351279Y-5937909D01*
X2342502Y-5908974D01*
X2328248Y-5882307D01*
X2309066Y-5858934D01*
X2287214Y-5841000D01*
X2309066Y-5823066D01*
X2328248Y-5799693D01*
X2342502Y-5773026D01*
X2351279Y-5744091D01*
X2354243Y-5714000D01*
X2351279Y-5683909D01*
X2342502Y-5654974D01*
X2328248Y-5628307D01*
X2309066Y-5604934D01*
X2287214Y-5587000D01*
X2309066Y-5569066D01*
X2328248Y-5545693D01*
X2342502Y-5519026D01*
X2351279Y-5490091D01*
X2354243Y-5460000D01*
X2351279Y-5429909D01*
X2342502Y-5400974D01*
X2328248Y-5374307D01*
X2309066Y-5350934D01*
X2287214Y-5333000D01*
X2309066Y-5315066D01*
X2328248Y-5291693D01*
X2342502Y-5265026D01*
X2351279Y-5236091D01*
X2354243Y-5206000D01*
X2351279Y-5175909D01*
X2342502Y-5146974D01*
X2328248Y-5120307D01*
X2309066Y-5096934D01*
X2287214Y-5079000D01*
X2309066Y-5061066D01*
X2328248Y-5037693D01*
X2342502Y-5011026D01*
X2351279Y-4982091D01*
X2354243Y-4952000D01*
X2351279Y-4921909D01*
X2342502Y-4892974D01*
X2328248Y-4866307D01*
X2309066Y-4842934D01*
X2287214Y-4825000D01*
X2309066Y-4807066D01*
X2328248Y-4783693D01*
X2342502Y-4757026D01*
X2351279Y-4728091D01*
X2354243Y-4698000D01*
X2351279Y-4667909D01*
X2342502Y-4638974D01*
X2328248Y-4612307D01*
X2309066Y-4588934D01*
X2287214Y-4571000D01*
X2309066Y-4553066D01*
X2328248Y-4529693D01*
X2342502Y-4503026D01*
X2351279Y-4474091D01*
X2354243Y-4444000D01*
X2351279Y-4413909D01*
X2342502Y-4384974D01*
X2328248Y-4358307D01*
X2309066Y-4334934D01*
X2287214Y-4317000D01*
X2309066Y-4299066D01*
X2328248Y-4275693D01*
X2342502Y-4249026D01*
X2351279Y-4220091D01*
X2354243Y-4190000D01*
X2351279Y-4159909D01*
X2342502Y-4130974D01*
X2328248Y-4104307D01*
X2309066Y-4080934D01*
X2287214Y-4063000D01*
X2309066Y-4045066D01*
X2328248Y-4021693D01*
X2342502Y-3995026D01*
X2351279Y-3966091D01*
X2354243Y-3936000D01*
X2351279Y-3905909D01*
X2342502Y-3876974D01*
X2328248Y-3850307D01*
X2309066Y-3826934D01*
X2287214Y-3809000D01*
X2309066Y-3791066D01*
X2321447Y-3775980D01*
X2565572Y-3775980D01*
X2574020Y-3784428D01*
X2574020Y-6818072D01*
X2502072Y-6890020D01*
X2321447Y-6890020D01*
X2309066Y-6874934D01*
X2287214Y-6857000D01*
X2309066Y-6839066D01*
X2328248Y-6815693D01*
X2342502Y-6789026D01*
X2351279Y-6760091D01*
X2354243Y-6730000D01*
X2351279Y-6699909D01*
X2342502Y-6670974D01*
X2328248Y-6644307D01*
X2309066Y-6620934D01*
X2287214Y-6603000D01*
X2309066Y-6585066D01*
X2328248Y-6561693D01*
X2342502Y-6535026D01*
X2351279Y-6506091D01*
X2354243Y-6476000D01*
X2351279Y-6445909D01*
X2342502Y-6416974D01*
X2328248Y-6390307D01*
X2309066Y-6366934D01*
X2286631Y-6348522D01*
X2295840Y-6342575D01*
X2317521Y-6321561D01*
X2334686Y-6296720D01*
X2346676Y-6269009D01*
X2349104Y-6258474D01*
X2337038Y-6234700D01*
X2172700Y-6234700D01*
X2172700Y-6236700D01*
X2147300Y-6236700D01*
X2147300Y-6234700D01*
X1982962Y-6234700D01*
X1970896Y-6258474D01*
X1973324Y-6269009D01*
X1985314Y-6296720D01*
X2002479Y-6321561D01*
X2024160Y-6342575D01*
X2033369Y-6348522D01*
X2010934Y-6366934D01*
X1991752Y-6390307D01*
X1977498Y-6416974D01*
X1968721Y-6445909D01*
X1965757Y-6476000D01*
X1968721Y-6506091D01*
X1977498Y-6535026D01*
X1991752Y-6561693D01*
X2010934Y-6585066D01*
X2032786Y-6603000D01*
X2010934Y-6620934D01*
X1991752Y-6644307D01*
X1988036Y-6651260D01*
X1909866Y-6651260D01*
X1906000Y-6650879D01*
X1902134Y-6651260D01*
X1902133Y-6651260D01*
X1890564Y-6652399D01*
X1875722Y-6656902D01*
X1862043Y-6664213D01*
X1862043Y-6664213D01*
X1862043Y-6664213D01*
X1853057Y-6671588D01*
X1853057Y-6671588D01*
X1850053Y-6674053D01*
X1847588Y-6677057D01*
X1726058Y-6798587D01*
X1723053Y-6801053D01*
X1713213Y-6813043D01*
X1705902Y-6826722D01*
X1701399Y-6841564D01*
X1700260Y-6853133D01*
X1700260Y-6853134D01*
X1699879Y-6857000D01*
X1700260Y-6860866D01*
X1700260Y-7361133D01*
X1699879Y-7365000D01*
X1701399Y-7380436D01*
X1705902Y-7395278D01*
X1705902Y-7395278D01*
X1713213Y-7408957D01*
X1723053Y-7420947D01*
X1726057Y-7423412D01*
X1847588Y-7544943D01*
X1850053Y-7547947D01*
X1853057Y-7550412D01*
X1853057Y-7550412D01*
X1859405Y-7555622D01*
X1862043Y-7557787D01*
X1875722Y-7565098D01*
X1890564Y-7569601D01*
X1902133Y-7570740D01*
X1902134Y-7570740D01*
X1906000Y-7571121D01*
X1909866Y-7570740D01*
X2791134Y-7570740D01*
X2795000Y-7571121D01*
X2798866Y-7570740D01*
X2798867Y-7570740D01*
X2810436Y-7569601D01*
X2825278Y-7565098D01*
X2838957Y-7557787D01*
X2850947Y-7547947D01*
X2853413Y-7544942D01*
X2974943Y-7423412D01*
X2977947Y-7420947D01*
X2980412Y-7417943D01*
X2987786Y-7408957D01*
X2987787Y-7408957D01*
X2995098Y-7395278D01*
X2999601Y-7380436D01*
X3000740Y-7368867D01*
X3000740Y-7368866D01*
X3001121Y-7365000D01*
X3000740Y-7361134D01*
X3000740Y-6969374D01*
X3027500Y-6969374D01*
X3027500Y-6998626D01*
X3033207Y-7027316D01*
X3044401Y-7054341D01*
X3060652Y-7078663D01*
X3081337Y-7099347D01*
X3098776Y-7111000D01*
X3081337Y-7122652D01*
X3060652Y-7143337D01*
X3044401Y-7167659D01*
X3033207Y-7194684D01*
X3027500Y-7223374D01*
X3027500Y-7252626D01*
X3033207Y-7281316D01*
X3044401Y-7308341D01*
X3060652Y-7332663D01*
X3081337Y-7353347D01*
X3105659Y-7369599D01*
X3132684Y-7380793D01*
X3161374Y-7386500D01*
X3190626Y-7386500D01*
X3219316Y-7380793D01*
X3246341Y-7369599D01*
X3270663Y-7353347D01*
X3291347Y-7332663D01*
X3303000Y-7315224D01*
X3314652Y-7332663D01*
X3335337Y-7353347D01*
X3359659Y-7369599D01*
X3386684Y-7380793D01*
X3415374Y-7386500D01*
X3444626Y-7386500D01*
X3473316Y-7380793D01*
X3500341Y-7369599D01*
X3524663Y-7353347D01*
X3545347Y-7332663D01*
X3557000Y-7315224D01*
X3568652Y-7332663D01*
X3589337Y-7353347D01*
X3613659Y-7369599D01*
X3640684Y-7380793D01*
X3669374Y-7386500D01*
X3698626Y-7386500D01*
X3727316Y-7380793D01*
X3754341Y-7369599D01*
X3778663Y-7353347D01*
X3799347Y-7332663D01*
X3811000Y-7315224D01*
X3822652Y-7332663D01*
X3843337Y-7353347D01*
X3867659Y-7369599D01*
X3894684Y-7380793D01*
X3923374Y-7386500D01*
X3952626Y-7386500D01*
X3981316Y-7380793D01*
X4008341Y-7369599D01*
X4032663Y-7353347D01*
X4053347Y-7332663D01*
X4065000Y-7315224D01*
X4076652Y-7332663D01*
X4097337Y-7353347D01*
X4121659Y-7369599D01*
X4148684Y-7380793D01*
X4177374Y-7386500D01*
X4206626Y-7386500D01*
X4235316Y-7380793D01*
X4262341Y-7369599D01*
X4286663Y-7353347D01*
X4307348Y-7332663D01*
X4319000Y-7315224D01*
X4330653Y-7332663D01*
X4351337Y-7353347D01*
X4375659Y-7369599D01*
X4402684Y-7380793D01*
X4431374Y-7386500D01*
X4460626Y-7386500D01*
X4489316Y-7380793D01*
X4516341Y-7369599D01*
X4540663Y-7353347D01*
X4561348Y-7332663D01*
X4573000Y-7315224D01*
X4584653Y-7332663D01*
X4605337Y-7353347D01*
X4629659Y-7369599D01*
X4656684Y-7380793D01*
X4685374Y-7386500D01*
X4714626Y-7386500D01*
X4743316Y-7380793D01*
X4770341Y-7369599D01*
X4794663Y-7353347D01*
X4815348Y-7332663D01*
X4827000Y-7315224D01*
X4838653Y-7332663D01*
X4859337Y-7353347D01*
X4883659Y-7369599D01*
X4910684Y-7380793D01*
X4939374Y-7386500D01*
X4968626Y-7386500D01*
X4997316Y-7380793D01*
X5024341Y-7369599D01*
X5048663Y-7353347D01*
X5069348Y-7332663D01*
X5081000Y-7315224D01*
X5092653Y-7332663D01*
X5113337Y-7353347D01*
X5137659Y-7369599D01*
X5164684Y-7380793D01*
X5193374Y-7386500D01*
X5222626Y-7386500D01*
X5251316Y-7380793D01*
X5278341Y-7369599D01*
X5302663Y-7353347D01*
X5315171Y-7340840D01*
X5377121Y-7340840D01*
X5384884Y-7365747D01*
X5411288Y-7378337D01*
X5439641Y-7385534D01*
X5468853Y-7387061D01*
X5497802Y-7382860D01*
X5525375Y-7373092D01*
X5539116Y-7365747D01*
X5546879Y-7340840D01*
X5462000Y-7255960D01*
X5377121Y-7340840D01*
X5315171Y-7340840D01*
X5323348Y-7332663D01*
X5334931Y-7315327D01*
X5359160Y-7322879D01*
X5444040Y-7238000D01*
X5359160Y-7153121D01*
X5334931Y-7160673D01*
X5323348Y-7143337D01*
X5302663Y-7122652D01*
X5285224Y-7111000D01*
X5302663Y-7099347D01*
X5323348Y-7078663D01*
X5335000Y-7061224D01*
X5346653Y-7078663D01*
X5367337Y-7099347D01*
X5384673Y-7110931D01*
X5377121Y-7135160D01*
X5462000Y-7220039D01*
X5546879Y-7135160D01*
X5539327Y-7110931D01*
X5556663Y-7099347D01*
X5577348Y-7078663D01*
X5589000Y-7061224D01*
X5600652Y-7078663D01*
X5621337Y-7099347D01*
X5638776Y-7111000D01*
X5621337Y-7122652D01*
X5600652Y-7143337D01*
X5589069Y-7160673D01*
X5564840Y-7153121D01*
X5479961Y-7238000D01*
X5564840Y-7322879D01*
X5589069Y-7315327D01*
X5600652Y-7332663D01*
X5621337Y-7353347D01*
X5645659Y-7369599D01*
X5672684Y-7380793D01*
X5701374Y-7386500D01*
X5730626Y-7386500D01*
X5759316Y-7380793D01*
X5786341Y-7369599D01*
X5810663Y-7353347D01*
X5831347Y-7332663D01*
X5843000Y-7315224D01*
X5854652Y-7332663D01*
X5875337Y-7353347D01*
X5899659Y-7369599D01*
X5926684Y-7380793D01*
X5955374Y-7386500D01*
X5984626Y-7386500D01*
X6013316Y-7380793D01*
X6040341Y-7369599D01*
X6064663Y-7353347D01*
X6085347Y-7332663D01*
X6097000Y-7315224D01*
X6108652Y-7332663D01*
X6129337Y-7353347D01*
X6153659Y-7369599D01*
X6180684Y-7380793D01*
X6209374Y-7386500D01*
X6238626Y-7386500D01*
X6267316Y-7380793D01*
X6294341Y-7369599D01*
X6318663Y-7353347D01*
X6339347Y-7332663D01*
X6351000Y-7315224D01*
X6362652Y-7332663D01*
X6383337Y-7353347D01*
X6407659Y-7369599D01*
X6434684Y-7380793D01*
X6463374Y-7386500D01*
X6492626Y-7386500D01*
X6521316Y-7380793D01*
X6548341Y-7369599D01*
X6572663Y-7353347D01*
X6593347Y-7332663D01*
X6605000Y-7315224D01*
X6616652Y-7332663D01*
X6637337Y-7353347D01*
X6661659Y-7369599D01*
X6688684Y-7380793D01*
X6717374Y-7386500D01*
X6746626Y-7386500D01*
X6775316Y-7380793D01*
X6802341Y-7369599D01*
X6826663Y-7353347D01*
X6839171Y-7340840D01*
X6901121Y-7340840D01*
X6908884Y-7365747D01*
X6935288Y-7378337D01*
X6963641Y-7385534D01*
X6992853Y-7387061D01*
X7021802Y-7382860D01*
X7049375Y-7373092D01*
X7063116Y-7365747D01*
X7070879Y-7340840D01*
X6986000Y-7255960D01*
X6901121Y-7340840D01*
X6839171Y-7340840D01*
X6847347Y-7332663D01*
X6858931Y-7315327D01*
X6883160Y-7322879D01*
X6968039Y-7238000D01*
X6883160Y-7153121D01*
X6858931Y-7160673D01*
X6847347Y-7143337D01*
X6826663Y-7122652D01*
X6809224Y-7111000D01*
X6826663Y-7099347D01*
X6847347Y-7078663D01*
X6859000Y-7061224D01*
X6870652Y-7078663D01*
X6891337Y-7099347D01*
X6908673Y-7110931D01*
X6901121Y-7135160D01*
X6986000Y-7220039D01*
X7070879Y-7135160D01*
X7063327Y-7110931D01*
X7080663Y-7099347D01*
X7101347Y-7078663D01*
X7113000Y-7061224D01*
X7124652Y-7078663D01*
X7145337Y-7099347D01*
X7162776Y-7111000D01*
X7145337Y-7122652D01*
X7124652Y-7143337D01*
X7113069Y-7160673D01*
X7088840Y-7153121D01*
X7003960Y-7238000D01*
X7088840Y-7322879D01*
X7113069Y-7315327D01*
X7124652Y-7332663D01*
X7145337Y-7353347D01*
X7169659Y-7369599D01*
X7196684Y-7380793D01*
X7225374Y-7386500D01*
X7254626Y-7386500D01*
X7283316Y-7380793D01*
X7310341Y-7369599D01*
X7334663Y-7353347D01*
X7355347Y-7332663D01*
X7367000Y-7315224D01*
X7378652Y-7332663D01*
X7399337Y-7353347D01*
X7423659Y-7369599D01*
X7450684Y-7380793D01*
X7479374Y-7386500D01*
X7508626Y-7386500D01*
X7537316Y-7380793D01*
X7564341Y-7369599D01*
X7588663Y-7353347D01*
X7609347Y-7332663D01*
X7621000Y-7315224D01*
X7632652Y-7332663D01*
X7653337Y-7353347D01*
X7677659Y-7369599D01*
X7704684Y-7380793D01*
X7733374Y-7386500D01*
X7762626Y-7386500D01*
X7791316Y-7380793D01*
X7818341Y-7369599D01*
X7842663Y-7353347D01*
X7863347Y-7332663D01*
X7879599Y-7308341D01*
X7890793Y-7281316D01*
X7896500Y-7252626D01*
X7896500Y-7223374D01*
X7890793Y-7194684D01*
X7879599Y-7167659D01*
X7863347Y-7143337D01*
X7842663Y-7122652D01*
X7825224Y-7111000D01*
X7842663Y-7099347D01*
X7863347Y-7078663D01*
X7879599Y-7054341D01*
X7890793Y-7027316D01*
X7896500Y-6998626D01*
X7896500Y-6969374D01*
X7890793Y-6940684D01*
X7879599Y-6913659D01*
X7863347Y-6889337D01*
X7842663Y-6868652D01*
X7818341Y-6852401D01*
X7791316Y-6841207D01*
X7762626Y-6835500D01*
X7733374Y-6835500D01*
X7704684Y-6841207D01*
X7677659Y-6852401D01*
X7653337Y-6868652D01*
X7632652Y-6889337D01*
X7621000Y-6906776D01*
X7609347Y-6889337D01*
X7588663Y-6868652D01*
X7564341Y-6852401D01*
X7537316Y-6841207D01*
X7508626Y-6835500D01*
X7479374Y-6835500D01*
X7450684Y-6841207D01*
X7423659Y-6852401D01*
X7399337Y-6868652D01*
X7378652Y-6889337D01*
X7367000Y-6906776D01*
X7355347Y-6889337D01*
X7334663Y-6868652D01*
X7310341Y-6852401D01*
X7283316Y-6841207D01*
X7254626Y-6835500D01*
X7225374Y-6835500D01*
X7196684Y-6841207D01*
X7169659Y-6852401D01*
X7145337Y-6868652D01*
X7124652Y-6889337D01*
X7113000Y-6906776D01*
X7101347Y-6889337D01*
X7080663Y-6868652D01*
X7056341Y-6852401D01*
X7029316Y-6841207D01*
X7000626Y-6835500D01*
X6971374Y-6835500D01*
X6942684Y-6841207D01*
X6915659Y-6852401D01*
X6891337Y-6868652D01*
X6870652Y-6889337D01*
X6859000Y-6906776D01*
X6847347Y-6889337D01*
X6826663Y-6868652D01*
X6802341Y-6852401D01*
X6775316Y-6841207D01*
X6746626Y-6835500D01*
X6717374Y-6835500D01*
X6688684Y-6841207D01*
X6661659Y-6852401D01*
X6637337Y-6868652D01*
X6616652Y-6889337D01*
X6605000Y-6906776D01*
X6593347Y-6889337D01*
X6572663Y-6868652D01*
X6548341Y-6852401D01*
X6521316Y-6841207D01*
X6492626Y-6835500D01*
X6463374Y-6835500D01*
X6434684Y-6841207D01*
X6407659Y-6852401D01*
X6383337Y-6868652D01*
X6362652Y-6889337D01*
X6351000Y-6906776D01*
X6339347Y-6889337D01*
X6318663Y-6868652D01*
X6294341Y-6852401D01*
X6267316Y-6841207D01*
X6238626Y-6835500D01*
X6209374Y-6835500D01*
X6180684Y-6841207D01*
X6153659Y-6852401D01*
X6129337Y-6868652D01*
X6108652Y-6889337D01*
X6097000Y-6906776D01*
X6085347Y-6889337D01*
X6064663Y-6868652D01*
X6040341Y-6852401D01*
X6013316Y-6841207D01*
X5984626Y-6835500D01*
X5955374Y-6835500D01*
X5926684Y-6841207D01*
X5899659Y-6852401D01*
X5875337Y-6868652D01*
X5854652Y-6889337D01*
X5843000Y-6906776D01*
X5831347Y-6889337D01*
X5810663Y-6868652D01*
X5786341Y-6852401D01*
X5759316Y-6841207D01*
X5730626Y-6835500D01*
X5701374Y-6835500D01*
X5672684Y-6841207D01*
X5645659Y-6852401D01*
X5621337Y-6868652D01*
X5600652Y-6889337D01*
X5589000Y-6906776D01*
X5577348Y-6889337D01*
X5556663Y-6868652D01*
X5532341Y-6852401D01*
X5505316Y-6841207D01*
X5476626Y-6835500D01*
X5447374Y-6835500D01*
X5418684Y-6841207D01*
X5391659Y-6852401D01*
X5367337Y-6868652D01*
X5346653Y-6889337D01*
X5335000Y-6906776D01*
X5323348Y-6889337D01*
X5302663Y-6868652D01*
X5278341Y-6852401D01*
X5251316Y-6841207D01*
X5222626Y-6835500D01*
X5193374Y-6835500D01*
X5164684Y-6841207D01*
X5137659Y-6852401D01*
X5113337Y-6868652D01*
X5092653Y-6889337D01*
X5081000Y-6906776D01*
X5069348Y-6889337D01*
X5048663Y-6868652D01*
X5024341Y-6852401D01*
X4997316Y-6841207D01*
X4968626Y-6835500D01*
X4939374Y-6835500D01*
X4910684Y-6841207D01*
X4883659Y-6852401D01*
X4859337Y-6868652D01*
X4838653Y-6889337D01*
X4827000Y-6906776D01*
X4815348Y-6889337D01*
X4794663Y-6868652D01*
X4770341Y-6852401D01*
X4743316Y-6841207D01*
X4714626Y-6835500D01*
X4685374Y-6835500D01*
X4656684Y-6841207D01*
X4629659Y-6852401D01*
X4605337Y-6868652D01*
X4584653Y-6889337D01*
X4573000Y-6906776D01*
X4561348Y-6889337D01*
X4540663Y-6868652D01*
X4516341Y-6852401D01*
X4489316Y-6841207D01*
X4460626Y-6835500D01*
X4431374Y-6835500D01*
X4402684Y-6841207D01*
X4375659Y-6852401D01*
X4351337Y-6868652D01*
X4330653Y-6889337D01*
X4319069Y-6906673D01*
X4294840Y-6899121D01*
X4209961Y-6984000D01*
X4294840Y-7068879D01*
X4319069Y-7061327D01*
X4330653Y-7078663D01*
X4351337Y-7099347D01*
X4368776Y-7111000D01*
X4351337Y-7122652D01*
X4330653Y-7143337D01*
X4319000Y-7160776D01*
X4307348Y-7143337D01*
X4286663Y-7122652D01*
X4269327Y-7111069D01*
X4276879Y-7086840D01*
X4192000Y-7001960D01*
X4107121Y-7086840D01*
X4114673Y-7111069D01*
X4097337Y-7122652D01*
X4076652Y-7143337D01*
X4065000Y-7160776D01*
X4053347Y-7143337D01*
X4032663Y-7122652D01*
X4015224Y-7111000D01*
X4032663Y-7099347D01*
X4053347Y-7078663D01*
X4064931Y-7061327D01*
X4089160Y-7068879D01*
X4174039Y-6984000D01*
X4089160Y-6899121D01*
X4064931Y-6906673D01*
X4053347Y-6889337D01*
X4045171Y-6881160D01*
X4107121Y-6881160D01*
X4192000Y-6966039D01*
X4276879Y-6881160D01*
X4269116Y-6856253D01*
X4242712Y-6843663D01*
X4214359Y-6836466D01*
X4185147Y-6834939D01*
X4156198Y-6839140D01*
X4128625Y-6848908D01*
X4114884Y-6856253D01*
X4107121Y-6881160D01*
X4045171Y-6881160D01*
X4032663Y-6868652D01*
X4008341Y-6852401D01*
X3981316Y-6841207D01*
X3952626Y-6835500D01*
X3923374Y-6835500D01*
X3894684Y-6841207D01*
X3867659Y-6852401D01*
X3843337Y-6868652D01*
X3822652Y-6889337D01*
X3811000Y-6906776D01*
X3799347Y-6889337D01*
X3778663Y-6868652D01*
X3754341Y-6852401D01*
X3727316Y-6841207D01*
X3698626Y-6835500D01*
X3669374Y-6835500D01*
X3640684Y-6841207D01*
X3613659Y-6852401D01*
X3589337Y-6868652D01*
X3568652Y-6889337D01*
X3557000Y-6906776D01*
X3545347Y-6889337D01*
X3524663Y-6868652D01*
X3500341Y-6852401D01*
X3473316Y-6841207D01*
X3444626Y-6835500D01*
X3415374Y-6835500D01*
X3386684Y-6841207D01*
X3359659Y-6852401D01*
X3335337Y-6868652D01*
X3314652Y-6889337D01*
X3303000Y-6906776D01*
X3291347Y-6889337D01*
X3270663Y-6868652D01*
X3246341Y-6852401D01*
X3219316Y-6841207D01*
X3190626Y-6835500D01*
X3161374Y-6835500D01*
X3132684Y-6841207D01*
X3105659Y-6852401D01*
X3081337Y-6868652D01*
X3060652Y-6889337D01*
X3044401Y-6913659D01*
X3033207Y-6940684D01*
X3027500Y-6969374D01*
X3000740Y-6969374D01*
X3000740Y-5995000D01*
X8481193Y-5995000D01*
X8481193Y-6195000D01*
X8482419Y-6207448D01*
X8486050Y-6219418D01*
X8491946Y-6230449D01*
X8499882Y-6240118D01*
X8509551Y-6248054D01*
X8520582Y-6253950D01*
X8532552Y-6257581D01*
X8545000Y-6258807D01*
X8745000Y-6258807D01*
X8757448Y-6257581D01*
X8769418Y-6253950D01*
X8780449Y-6248054D01*
X8790119Y-6240118D01*
X8798054Y-6230449D01*
X8803598Y-6220078D01*
X8808996Y-6234981D01*
X8837957Y-6249070D01*
X8869111Y-6257238D01*
X8901260Y-6259172D01*
X8933168Y-6254796D01*
X8963609Y-6244279D01*
X8981004Y-6234981D01*
X8990581Y-6208541D01*
X8895000Y-6112960D01*
X8893586Y-6114375D01*
X8875625Y-6096414D01*
X8877040Y-6095000D01*
X8912961Y-6095000D01*
X9008541Y-6190581D01*
X9011508Y-6189506D01*
X9018001Y-6199225D01*
X9040775Y-6221999D01*
X9067554Y-6239892D01*
X9097309Y-6252217D01*
X9128897Y-6258500D01*
X9161103Y-6258500D01*
X9192691Y-6252217D01*
X9222446Y-6239892D01*
X9249225Y-6221999D01*
X9271999Y-6199225D01*
X9289892Y-6172446D01*
X9302217Y-6142691D01*
X9308500Y-6111103D01*
X9308500Y-6078897D01*
X9302217Y-6047309D01*
X9289892Y-6017554D01*
X9271999Y-5990775D01*
X9249225Y-5968001D01*
X9222446Y-5950108D01*
X9192691Y-5937783D01*
X9161103Y-5931500D01*
X9128897Y-5931500D01*
X9097309Y-5937783D01*
X9067554Y-5950108D01*
X9040775Y-5968001D01*
X9018001Y-5990775D01*
X9011508Y-6000493D01*
X9008541Y-5999419D01*
X8912961Y-6095000D01*
X8877040Y-6095000D01*
X8875625Y-6093586D01*
X8893586Y-6075625D01*
X8895000Y-6077039D01*
X8990581Y-5981459D01*
X8981004Y-5955019D01*
X8952043Y-5940930D01*
X8920889Y-5932762D01*
X8888741Y-5930828D01*
X8856833Y-5935204D01*
X8826391Y-5945720D01*
X8808996Y-5955019D01*
X8803598Y-5969922D01*
X8798054Y-5959551D01*
X8790119Y-5949881D01*
X8780449Y-5941946D01*
X8769418Y-5936050D01*
X8757448Y-5932419D01*
X8745000Y-5931193D01*
X8545000Y-5931193D01*
X8532552Y-5932419D01*
X8520582Y-5936050D01*
X8509551Y-5941946D01*
X8499882Y-5949881D01*
X8491946Y-5959551D01*
X8486050Y-5970582D01*
X8482419Y-5982552D01*
X8481193Y-5995000D01*
X3000740Y-5995000D01*
X3000740Y-5324957D01*
X8131500Y-5324957D01*
X8131500Y-5365043D01*
X8139320Y-5404359D01*
X8154661Y-5441393D01*
X8176931Y-5474724D01*
X8205276Y-5503069D01*
X8238607Y-5525339D01*
X8275641Y-5540680D01*
X8314957Y-5548500D01*
X8355043Y-5548500D01*
X8394359Y-5540680D01*
X8431393Y-5525339D01*
X8464724Y-5503069D01*
X8493069Y-5474724D01*
X8515339Y-5441393D01*
X8530680Y-5404359D01*
X8538500Y-5365043D01*
X8538500Y-5324957D01*
X9251500Y-5324957D01*
X9251500Y-5365043D01*
X9259320Y-5404359D01*
X9274661Y-5441393D01*
X9296931Y-5474724D01*
X9325276Y-5503069D01*
X9358607Y-5525339D01*
X9395641Y-5540680D01*
X9434957Y-5548500D01*
X9475043Y-5548500D01*
X9514359Y-5540680D01*
X9551393Y-5525339D01*
X9584724Y-5503069D01*
X9613069Y-5474724D01*
X9635339Y-5441393D01*
X9650680Y-5404359D01*
X9658500Y-5365043D01*
X9658500Y-5324957D01*
X9650680Y-5285641D01*
X9635339Y-5248607D01*
X9613069Y-5215276D01*
X9584724Y-5186931D01*
X9551393Y-5164661D01*
X9514359Y-5149320D01*
X9475043Y-5141500D01*
X9434957Y-5141500D01*
X9395641Y-5149320D01*
X9358607Y-5164661D01*
X9325276Y-5186931D01*
X9296931Y-5215276D01*
X9274661Y-5248607D01*
X9259320Y-5285641D01*
X9251500Y-5324957D01*
X8538500Y-5324957D01*
X8530680Y-5285641D01*
X8515339Y-5248607D01*
X8493069Y-5215276D01*
X8464724Y-5186931D01*
X8431393Y-5164661D01*
X8394359Y-5149320D01*
X8355043Y-5141500D01*
X8314957Y-5141500D01*
X8275641Y-5149320D01*
X8238607Y-5164661D01*
X8205276Y-5186931D01*
X8176931Y-5215276D01*
X8154661Y-5248607D01*
X8139320Y-5285641D01*
X8131500Y-5324957D01*
X3000740Y-5324957D01*
X3000740Y-4628897D01*
X8481500Y-4628897D01*
X8481500Y-4661103D01*
X8487783Y-4692691D01*
X8500108Y-4722446D01*
X8518001Y-4749225D01*
X8540775Y-4771999D01*
X8567554Y-4789892D01*
X8597309Y-4802217D01*
X8628897Y-4808500D01*
X8661103Y-4808500D01*
X8692691Y-4802217D01*
X8722446Y-4789892D01*
X8749225Y-4771999D01*
X8762683Y-4758541D01*
X9049419Y-4758541D01*
X9058996Y-4784981D01*
X9087957Y-4799070D01*
X9119111Y-4807238D01*
X9151260Y-4809172D01*
X9183168Y-4804796D01*
X9213609Y-4794280D01*
X9231004Y-4784981D01*
X9240581Y-4758541D01*
X9145000Y-4662961D01*
X9049419Y-4758541D01*
X8762683Y-4758541D01*
X8771999Y-4749225D01*
X8789892Y-4722446D01*
X8802217Y-4692691D01*
X8808500Y-4661103D01*
X8808500Y-4651260D01*
X8980828Y-4651260D01*
X8985204Y-4683168D01*
X8995721Y-4713609D01*
X9005019Y-4731004D01*
X9031459Y-4740581D01*
X9127040Y-4645000D01*
X9162961Y-4645000D01*
X9258541Y-4740581D01*
X9284981Y-4731004D01*
X9299070Y-4702043D01*
X9307238Y-4670889D01*
X9309172Y-4638741D01*
X9304796Y-4606833D01*
X9294280Y-4576391D01*
X9284981Y-4558996D01*
X9258541Y-4549419D01*
X9162961Y-4645000D01*
X9127040Y-4645000D01*
X9031459Y-4549419D01*
X9005019Y-4558996D01*
X8990930Y-4587957D01*
X8982762Y-4619111D01*
X8980828Y-4651260D01*
X8808500Y-4651260D01*
X8808500Y-4628897D01*
X8802217Y-4597309D01*
X8789892Y-4567554D01*
X8771999Y-4540775D01*
X8762683Y-4531459D01*
X9049419Y-4531459D01*
X9145000Y-4627040D01*
X9240581Y-4531459D01*
X9231004Y-4505019D01*
X9202043Y-4490930D01*
X9170889Y-4482762D01*
X9138741Y-4480828D01*
X9106833Y-4485204D01*
X9076391Y-4495721D01*
X9058996Y-4505019D01*
X9049419Y-4531459D01*
X8762683Y-4531459D01*
X8749225Y-4518001D01*
X8722446Y-4500108D01*
X8692691Y-4487783D01*
X8661103Y-4481500D01*
X8628897Y-4481500D01*
X8597309Y-4487783D01*
X8567554Y-4500108D01*
X8540775Y-4518001D01*
X8518001Y-4540775D01*
X8500108Y-4567554D01*
X8487783Y-4597309D01*
X8481500Y-4628897D01*
X3000740Y-4628897D01*
X3000740Y-4222615D01*
X3208615Y-4014740D01*
X6728134Y-4014740D01*
X6732000Y-4015121D01*
X6735866Y-4014740D01*
X6735867Y-4014740D01*
X6747436Y-4013601D01*
X6762278Y-4009098D01*
X6775957Y-4001787D01*
X6787947Y-3991947D01*
X6790413Y-3988942D01*
X7038943Y-3740412D01*
X7041947Y-3737947D01*
X7044661Y-3734640D01*
X7051786Y-3725957D01*
X7051787Y-3725957D01*
X7059098Y-3712278D01*
X7063601Y-3697436D01*
X7064740Y-3685867D01*
X7064740Y-3685866D01*
X7065121Y-3682000D01*
X7064740Y-3678134D01*
X7064740Y-2525541D01*
X8541419Y-2525541D01*
X8550996Y-2551981D01*
X8579957Y-2566070D01*
X8611111Y-2574238D01*
X8643260Y-2576172D01*
X8675168Y-2571796D01*
X8705609Y-2561280D01*
X8723004Y-2551981D01*
X8732581Y-2525541D01*
X8637000Y-2429961D01*
X8541419Y-2525541D01*
X7064740Y-2525541D01*
X7064740Y-2418260D01*
X8472828Y-2418260D01*
X8477204Y-2450168D01*
X8487721Y-2480609D01*
X8497019Y-2498004D01*
X8523459Y-2507581D01*
X8619040Y-2412000D01*
X8654961Y-2412000D01*
X8750541Y-2507581D01*
X8776981Y-2498004D01*
X8791070Y-2469043D01*
X8799238Y-2437889D01*
X8801172Y-2405741D01*
X8799822Y-2395897D01*
X8923500Y-2395897D01*
X8923500Y-2428103D01*
X8929783Y-2459691D01*
X8942108Y-2489446D01*
X8960001Y-2516225D01*
X8982775Y-2538999D01*
X9009554Y-2556892D01*
X9039309Y-2569217D01*
X9070897Y-2575500D01*
X9103103Y-2575500D01*
X9134691Y-2569217D01*
X9164446Y-2556892D01*
X9191225Y-2538999D01*
X9213999Y-2516225D01*
X9231892Y-2489446D01*
X9244217Y-2459691D01*
X9250500Y-2428103D01*
X9250500Y-2395897D01*
X9244217Y-2364309D01*
X9231892Y-2334554D01*
X9213999Y-2307775D01*
X9191225Y-2285001D01*
X9164446Y-2267108D01*
X9134691Y-2254783D01*
X9103103Y-2248500D01*
X9070897Y-2248500D01*
X9039309Y-2254783D01*
X9009554Y-2267108D01*
X8982775Y-2285001D01*
X8960001Y-2307775D01*
X8942108Y-2334554D01*
X8929783Y-2364309D01*
X8923500Y-2395897D01*
X8799822Y-2395897D01*
X8796796Y-2373833D01*
X8786280Y-2343391D01*
X8776981Y-2325996D01*
X8750541Y-2316419D01*
X8654961Y-2412000D01*
X8619040Y-2412000D01*
X8523459Y-2316419D01*
X8497019Y-2325996D01*
X8482930Y-2354957D01*
X8474762Y-2386111D01*
X8472828Y-2418260D01*
X7064740Y-2418260D01*
X7064740Y-2298459D01*
X8541419Y-2298459D01*
X8637000Y-2394040D01*
X8732581Y-2298459D01*
X8723004Y-2272019D01*
X8694043Y-2257930D01*
X8662889Y-2249762D01*
X8630741Y-2247828D01*
X8598833Y-2252204D01*
X8568391Y-2262721D01*
X8550996Y-2272019D01*
X8541419Y-2298459D01*
X7064740Y-2298459D01*
X7064740Y-1875541D01*
X8541419Y-1875541D01*
X8550996Y-1901981D01*
X8579957Y-1916070D01*
X8611111Y-1924238D01*
X8643260Y-1926172D01*
X8675168Y-1921796D01*
X8705609Y-1911279D01*
X8723004Y-1901981D01*
X8732581Y-1875541D01*
X8637000Y-1779960D01*
X8541419Y-1875541D01*
X7064740Y-1875541D01*
X7064740Y-1768259D01*
X8472828Y-1768259D01*
X8477204Y-1800167D01*
X8487721Y-1830609D01*
X8497019Y-1848004D01*
X8523459Y-1857581D01*
X8619040Y-1762000D01*
X8654961Y-1762000D01*
X8750541Y-1857581D01*
X8776981Y-1848004D01*
X8791070Y-1819043D01*
X8799238Y-1787889D01*
X8801172Y-1755740D01*
X8799822Y-1745897D01*
X8923500Y-1745897D01*
X8923500Y-1778103D01*
X8929783Y-1809691D01*
X8942108Y-1839446D01*
X8960001Y-1866225D01*
X8982775Y-1888999D01*
X9009554Y-1906892D01*
X9039309Y-1919217D01*
X9070897Y-1925500D01*
X9103103Y-1925500D01*
X9134691Y-1919217D01*
X9164446Y-1906892D01*
X9191225Y-1888999D01*
X9213999Y-1866225D01*
X9231892Y-1839446D01*
X9244217Y-1809691D01*
X9250500Y-1778103D01*
X9250500Y-1745897D01*
X9244217Y-1714309D01*
X9231892Y-1684554D01*
X9213999Y-1657775D01*
X9191225Y-1635001D01*
X9164446Y-1617108D01*
X9134691Y-1604783D01*
X9103103Y-1598500D01*
X9070897Y-1598500D01*
X9039309Y-1604783D01*
X9009554Y-1617108D01*
X8982775Y-1635001D01*
X8960001Y-1657775D01*
X8942108Y-1684554D01*
X8929783Y-1714309D01*
X8923500Y-1745897D01*
X8799822Y-1745897D01*
X8796796Y-1723832D01*
X8786280Y-1693391D01*
X8776981Y-1675996D01*
X8750541Y-1666419D01*
X8654961Y-1762000D01*
X8619040Y-1762000D01*
X8523459Y-1666419D01*
X8497019Y-1675996D01*
X8482930Y-1704957D01*
X8474762Y-1736111D01*
X8472828Y-1768259D01*
X7064740Y-1768259D01*
X7064740Y-1648459D01*
X8541419Y-1648459D01*
X8637000Y-1744039D01*
X8732581Y-1648459D01*
X8723004Y-1622019D01*
X8694043Y-1607930D01*
X8662889Y-1599762D01*
X8630741Y-1597828D01*
X8598833Y-1602204D01*
X8568391Y-1612720D01*
X8550996Y-1622019D01*
X8541419Y-1648459D01*
X7064740Y-1648459D01*
X7064740Y-1267987D01*
X7080663Y-1257348D01*
X7101347Y-1236663D01*
X7113000Y-1219224D01*
X7124652Y-1236663D01*
X7145337Y-1257348D01*
X7169659Y-1273599D01*
X7196684Y-1284793D01*
X7225374Y-1290500D01*
X7254626Y-1290500D01*
X7283316Y-1284793D01*
X7310341Y-1273599D01*
X7334663Y-1257348D01*
X7355347Y-1236663D01*
X7367000Y-1219224D01*
X7378652Y-1236663D01*
X7399337Y-1257348D01*
X7423659Y-1273599D01*
X7450684Y-1284793D01*
X7479374Y-1290500D01*
X7508626Y-1290500D01*
X7537316Y-1284793D01*
X7564341Y-1273599D01*
X7588663Y-1257348D01*
X7609347Y-1236663D01*
X7621000Y-1219224D01*
X7632652Y-1236663D01*
X7653337Y-1257348D01*
X7677659Y-1273599D01*
X7704684Y-1284793D01*
X7733374Y-1290500D01*
X7762626Y-1290500D01*
X7791316Y-1284793D01*
X7818341Y-1273599D01*
X7842663Y-1257348D01*
X7863347Y-1236663D01*
X7879599Y-1212341D01*
X7890793Y-1185316D01*
X7896500Y-1156626D01*
X7896500Y-1127374D01*
X7890793Y-1098684D01*
X7879599Y-1071659D01*
X7863347Y-1047337D01*
X7842663Y-1026652D01*
X7825224Y-1015000D01*
X7842663Y-1003347D01*
X7863347Y-982663D01*
X7879599Y-958341D01*
X7890793Y-931316D01*
X7896500Y-902626D01*
X7896500Y-873374D01*
X7890793Y-844684D01*
X7879599Y-817659D01*
X7863347Y-793337D01*
X7842663Y-772652D01*
X7818341Y-756401D01*
X7791316Y-745207D01*
X7762626Y-739500D01*
X7733374Y-739500D01*
X7704684Y-745207D01*
X7677659Y-756401D01*
X7653337Y-772652D01*
X7632652Y-793337D01*
X7621000Y-810776D01*
X7609347Y-793337D01*
X7588663Y-772652D01*
X7564341Y-756401D01*
X7537316Y-745207D01*
X7508626Y-739500D01*
X7479374Y-739500D01*
X7450684Y-745207D01*
X7423659Y-756401D01*
X7399337Y-772652D01*
X7378652Y-793337D01*
X7367000Y-810776D01*
X7355347Y-793337D01*
X7334663Y-772652D01*
X7310341Y-756401D01*
X7283316Y-745207D01*
X7254626Y-739500D01*
X7225374Y-739500D01*
X7196684Y-745207D01*
X7169659Y-756401D01*
X7145337Y-772652D01*
X7124652Y-793337D01*
X7113000Y-810776D01*
X7101347Y-793337D01*
X7080663Y-772652D01*
X7056341Y-756401D01*
X7029316Y-745207D01*
X7000626Y-739500D01*
X6971374Y-739500D01*
X6942684Y-745207D01*
X6915659Y-756401D01*
X6891337Y-772652D01*
X6870652Y-793337D01*
X6859000Y-810776D01*
X6847347Y-793337D01*
X6826663Y-772652D01*
X6802341Y-756401D01*
X6775316Y-745207D01*
X6746626Y-739500D01*
X6717374Y-739500D01*
X6688684Y-745207D01*
X6661659Y-756401D01*
X6637337Y-772652D01*
X6616652Y-793337D01*
X6605000Y-810776D01*
X6593347Y-793337D01*
X6572663Y-772652D01*
X6548341Y-756401D01*
X6521316Y-745207D01*
X6492626Y-739500D01*
X6463374Y-739500D01*
X6434684Y-745207D01*
X6407659Y-756401D01*
X6383337Y-772652D01*
X6362652Y-793337D01*
X6351000Y-810776D01*
X6339347Y-793337D01*
X6318663Y-772652D01*
X6294341Y-756401D01*
X6267316Y-745207D01*
X6238626Y-739500D01*
X6209374Y-739500D01*
X6180684Y-745207D01*
X6153659Y-756401D01*
X6129337Y-772652D01*
X6108652Y-793337D01*
X6097000Y-810776D01*
X6085347Y-793337D01*
X6064663Y-772652D01*
X6040341Y-756401D01*
X6013316Y-745207D01*
X5984626Y-739500D01*
X5955374Y-739500D01*
X5926684Y-745207D01*
X5899659Y-756401D01*
X5875337Y-772652D01*
X5854652Y-793337D01*
X5843000Y-810776D01*
X5831347Y-793337D01*
X5810663Y-772652D01*
X5786341Y-756401D01*
X5759316Y-745207D01*
X5730626Y-739500D01*
X5701374Y-739500D01*
X5672684Y-745207D01*
X5645659Y-756401D01*
X5621337Y-772652D01*
X5600652Y-793337D01*
X5589069Y-810673D01*
X5564840Y-803121D01*
X5479961Y-888000D01*
X5564840Y-972879D01*
X5589069Y-965327D01*
X5600652Y-982663D01*
X5621337Y-1003347D01*
X5638673Y-1014931D01*
X5631121Y-1039160D01*
X5716000Y-1124040D01*
X5800879Y-1039160D01*
X5793327Y-1014931D01*
X5810663Y-1003347D01*
X5831347Y-982663D01*
X5843000Y-965224D01*
X5854652Y-982663D01*
X5875337Y-1003347D01*
X5892776Y-1015000D01*
X5875337Y-1026652D01*
X5854652Y-1047337D01*
X5843069Y-1064673D01*
X5818840Y-1057121D01*
X5733960Y-1142000D01*
X5818840Y-1226879D01*
X5843069Y-1219327D01*
X5854652Y-1236663D01*
X5875337Y-1257348D01*
X5899659Y-1273599D01*
X5926684Y-1284793D01*
X5955374Y-1290500D01*
X5984626Y-1290500D01*
X6013316Y-1284793D01*
X6040341Y-1273599D01*
X6064663Y-1257348D01*
X6085347Y-1236663D01*
X6097000Y-1219224D01*
X6108652Y-1236663D01*
X6129337Y-1257348D01*
X6153659Y-1273599D01*
X6180684Y-1284793D01*
X6209374Y-1290500D01*
X6238626Y-1290500D01*
X6267316Y-1284793D01*
X6294341Y-1273599D01*
X6318663Y-1257348D01*
X6339347Y-1236663D01*
X6351000Y-1219224D01*
X6362652Y-1236663D01*
X6383337Y-1257348D01*
X6407659Y-1273599D01*
X6434684Y-1284793D01*
X6463374Y-1290500D01*
X6492626Y-1290500D01*
X6521316Y-1284793D01*
X6548341Y-1273599D01*
X6572663Y-1257348D01*
X6593347Y-1236663D01*
X6605000Y-1219224D01*
X6616652Y-1236663D01*
X6637337Y-1257348D01*
X6661659Y-1273599D01*
X6688684Y-1284793D01*
X6717374Y-1290500D01*
X6746626Y-1290500D01*
X6775316Y-1284793D01*
X6802341Y-1273599D01*
X6826663Y-1257348D01*
X6847347Y-1236663D01*
X6859000Y-1219224D01*
X6870652Y-1236663D01*
X6891337Y-1257348D01*
X6907260Y-1267987D01*
X6907260Y-3624688D01*
X6907260Y-3649385D01*
X6699385Y-3857260D01*
X3179866Y-3857260D01*
X3176000Y-3856879D01*
X3172134Y-3857260D01*
X3172133Y-3857260D01*
X3160564Y-3858399D01*
X3145722Y-3862902D01*
X3132043Y-3870213D01*
X3132043Y-3870213D01*
X3132043Y-3870213D01*
X3123057Y-3877588D01*
X3123057Y-3877588D01*
X3120053Y-3880053D01*
X3117588Y-3883057D01*
X2869057Y-4131588D01*
X2866053Y-4134053D01*
X2863588Y-4137057D01*
X2856213Y-4146043D01*
X2848902Y-4159722D01*
X2844399Y-4174564D01*
X2842879Y-4190000D01*
X2843260Y-4193867D01*
X2843260Y-7332385D01*
X2762385Y-7413260D01*
X1938615Y-7413260D01*
X1857740Y-7332385D01*
X1857740Y-7266575D01*
X1966500Y-7266575D01*
X1966500Y-7334254D01*
X1968940Y-7346522D01*
X1973727Y-7358078D01*
X1980676Y-7368479D01*
X1989521Y-7377324D01*
X1999921Y-7384273D01*
X2011478Y-7389060D01*
X2023746Y-7391500D01*
X2131425Y-7391500D01*
X2147300Y-7375625D01*
X2147300Y-7250700D01*
X2172700Y-7250700D01*
X2172700Y-7375625D01*
X2188575Y-7391500D01*
X2296254Y-7391500D01*
X2308522Y-7389060D01*
X2320079Y-7384273D01*
X2330479Y-7377324D01*
X2339324Y-7368479D01*
X2346273Y-7358078D01*
X2351060Y-7346522D01*
X2353500Y-7334254D01*
X2353500Y-7266575D01*
X2337625Y-7250700D01*
X2172700Y-7250700D01*
X2147300Y-7250700D01*
X1982375Y-7250700D01*
X1966500Y-7266575D01*
X1857740Y-7266575D01*
X1857740Y-6889615D01*
X1938615Y-6808740D01*
X1988036Y-6808740D01*
X1991752Y-6815693D01*
X2010934Y-6839066D01*
X2032786Y-6857000D01*
X2010934Y-6874934D01*
X1991752Y-6898307D01*
X1977498Y-6924974D01*
X1968721Y-6953909D01*
X1965757Y-6984000D01*
X1968721Y-7014091D01*
X1977498Y-7043026D01*
X1991752Y-7069693D01*
X2007320Y-7088662D01*
X1999921Y-7091727D01*
X1989521Y-7098676D01*
X1980676Y-7107521D01*
X1973727Y-7117921D01*
X1968940Y-7129478D01*
X1966500Y-7141746D01*
X1966500Y-7209425D01*
X1982375Y-7225300D01*
X2147300Y-7225300D01*
X2147300Y-7223300D01*
X2172700Y-7223300D01*
X2172700Y-7225300D01*
X2337625Y-7225300D01*
X2353500Y-7209425D01*
X2353500Y-7141746D01*
X2351060Y-7129478D01*
X2346273Y-7117921D01*
X2339324Y-7107521D01*
X2330479Y-7098676D01*
X2320079Y-7091727D01*
X2312680Y-7088662D01*
X2321447Y-7077980D01*
X2536384Y-7077980D01*
X2541000Y-7078435D01*
X2545616Y-7077980D01*
X2545617Y-7077980D01*
X2559423Y-7076620D01*
X2577139Y-7071246D01*
X2593465Y-7062520D01*
X2607775Y-7050775D01*
X2610719Y-7047188D01*
X2731190Y-6926718D01*
X2734775Y-6923775D01*
X2746520Y-6909465D01*
X2755246Y-6893139D01*
X2760620Y-6875423D01*
X2761980Y-6861617D01*
X2761980Y-6861616D01*
X2762435Y-6857000D01*
X2761980Y-6852384D01*
X2761980Y-3784428D01*
X2770428Y-3775980D01*
X5012884Y-3775980D01*
X5017500Y-3776435D01*
X5022116Y-3775980D01*
X5022117Y-3775980D01*
X5035923Y-3774620D01*
X5053639Y-3769246D01*
X5069965Y-3760520D01*
X5084275Y-3748775D01*
X5087219Y-3745188D01*
X5271190Y-3561218D01*
X5274775Y-3558275D01*
X5282031Y-3549434D01*
X5286520Y-3543965D01*
X5295246Y-3527639D01*
X5295366Y-3527246D01*
X5300620Y-3509923D01*
X5301980Y-3496117D01*
X5301980Y-3496116D01*
X5302435Y-3491500D01*
X5301980Y-3486884D01*
X5301980Y-1257804D01*
X5302663Y-1257348D01*
X5315171Y-1244840D01*
X5377121Y-1244840D01*
X5384884Y-1269747D01*
X5411288Y-1282337D01*
X5439641Y-1289534D01*
X5468853Y-1291061D01*
X5497802Y-1286860D01*
X5525375Y-1277092D01*
X5539116Y-1269747D01*
X5546879Y-1244840D01*
X5631121Y-1244840D01*
X5638884Y-1269747D01*
X5665288Y-1282337D01*
X5693641Y-1289534D01*
X5722853Y-1291061D01*
X5751802Y-1286860D01*
X5779375Y-1277092D01*
X5793116Y-1269747D01*
X5800879Y-1244840D01*
X5716000Y-1159961D01*
X5631121Y-1244840D01*
X5546879Y-1244840D01*
X5462000Y-1159961D01*
X5377121Y-1244840D01*
X5315171Y-1244840D01*
X5323348Y-1236663D01*
X5334931Y-1219327D01*
X5359160Y-1226879D01*
X5444040Y-1142000D01*
X5479961Y-1142000D01*
X5564840Y-1226879D01*
X5589000Y-1219349D01*
X5613160Y-1226879D01*
X5698039Y-1142000D01*
X5613160Y-1057121D01*
X5589000Y-1064651D01*
X5564840Y-1057121D01*
X5479961Y-1142000D01*
X5444040Y-1142000D01*
X5359160Y-1057121D01*
X5334931Y-1064673D01*
X5323348Y-1047337D01*
X5302663Y-1026652D01*
X5285224Y-1015000D01*
X5302663Y-1003347D01*
X5315171Y-990840D01*
X5377121Y-990840D01*
X5384651Y-1015000D01*
X5377121Y-1039160D01*
X5462000Y-1124040D01*
X5546879Y-1039160D01*
X5539349Y-1015000D01*
X5546879Y-990840D01*
X5462000Y-905960D01*
X5377121Y-990840D01*
X5315171Y-990840D01*
X5323348Y-982663D01*
X5334931Y-965327D01*
X5359160Y-972879D01*
X5444040Y-888000D01*
X5359160Y-803121D01*
X5334931Y-810673D01*
X5323348Y-793337D01*
X5315171Y-785160D01*
X5377121Y-785160D01*
X5462000Y-870039D01*
X5546879Y-785160D01*
X5539116Y-760253D01*
X5512712Y-747663D01*
X5484359Y-740466D01*
X5455147Y-738939D01*
X5426198Y-743140D01*
X5398625Y-752908D01*
X5384884Y-760253D01*
X5377121Y-785160D01*
X5315171Y-785160D01*
X5302663Y-772652D01*
X5278341Y-756401D01*
X5251316Y-745207D01*
X5222626Y-739500D01*
X5193374Y-739500D01*
X5164684Y-745207D01*
X5137659Y-756401D01*
X5113337Y-772652D01*
X5092653Y-793337D01*
X5081000Y-810776D01*
X5069348Y-793337D01*
X5048663Y-772652D01*
X5024341Y-756401D01*
X4997316Y-745207D01*
X4968626Y-739500D01*
X4939374Y-739500D01*
X4910684Y-745207D01*
X4883659Y-756401D01*
X4859337Y-772652D01*
X4838653Y-793337D01*
X4827000Y-810776D01*
X4815348Y-793337D01*
X4794663Y-772652D01*
X4770341Y-756401D01*
X4743316Y-745207D01*
X4714626Y-739500D01*
X4685374Y-739500D01*
X4656684Y-745207D01*
X4629659Y-756401D01*
X4605337Y-772652D01*
X4584653Y-793337D01*
X4573000Y-810776D01*
X4561348Y-793337D01*
X4540663Y-772652D01*
X4516341Y-756401D01*
X4489316Y-745207D01*
X4460626Y-739500D01*
X4431374Y-739500D01*
X4402684Y-745207D01*
X4375659Y-756401D01*
X4351337Y-772652D01*
X4330653Y-793337D01*
X4319000Y-810776D01*
X4307348Y-793337D01*
X4286663Y-772652D01*
X4262341Y-756401D01*
X4235316Y-745207D01*
X4206626Y-739500D01*
X4177374Y-739500D01*
X4148684Y-745207D01*
X4121659Y-756401D01*
X4097337Y-772652D01*
X4076652Y-793337D01*
X4065000Y-810776D01*
X4053347Y-793337D01*
X4032663Y-772652D01*
X4008341Y-756401D01*
X3981316Y-745207D01*
X3952626Y-739500D01*
X3923374Y-739500D01*
X3894684Y-745207D01*
X3867659Y-756401D01*
X3843337Y-772652D01*
X3822652Y-793337D01*
X3811000Y-810776D01*
X3799347Y-793337D01*
X3778663Y-772652D01*
X3754341Y-756401D01*
X3727316Y-745207D01*
X3698626Y-739500D01*
X3669374Y-739500D01*
X3640684Y-745207D01*
X3613659Y-756401D01*
X3589337Y-772652D01*
X3568652Y-793337D01*
X3557000Y-810776D01*
X3545347Y-793337D01*
X3524663Y-772652D01*
X3500341Y-756401D01*
X3473316Y-745207D01*
X3444626Y-739500D01*
X3415374Y-739500D01*
X3386684Y-745207D01*
X3359659Y-756401D01*
X3335337Y-772652D01*
X3322151Y-785838D01*
X3319950Y-778582D01*
X3314054Y-767551D01*
X3306118Y-757881D01*
X3296449Y-749946D01*
X3285418Y-744050D01*
X3273448Y-740419D01*
X3261000Y-739193D01*
X3091000Y-739193D01*
X3078552Y-740419D01*
X3066582Y-744050D01*
X3055551Y-749946D01*
X3045881Y-757881D01*
X3037946Y-767551D01*
X3032050Y-778582D01*
X3028419Y-790552D01*
X3027193Y-803000D01*
X3027193Y-973000D01*
X3028419Y-985448D01*
X3032050Y-997418D01*
X3037946Y-1008449D01*
X3045881Y-1018118D01*
X3055551Y-1026054D01*
X3066582Y-1031950D01*
X3073838Y-1034151D01*
X3060652Y-1047337D01*
X3044401Y-1071659D01*
X3033207Y-1098684D01*
X3027500Y-1127374D01*
X3027500Y-1156626D01*
X3033207Y-1185316D01*
X3044401Y-1212341D01*
X3060652Y-1236663D01*
X3081337Y-1257348D01*
X3105659Y-1273599D01*
X3132684Y-1284793D01*
X3161374Y-1290500D01*
X3190626Y-1290500D01*
X3219316Y-1284793D01*
X3246341Y-1273599D01*
X3270663Y-1257348D01*
X3291347Y-1236663D01*
X3303000Y-1219224D01*
X3314652Y-1236663D01*
X3335337Y-1257348D01*
X3359659Y-1273599D01*
X3386684Y-1284793D01*
X3415374Y-1290500D01*
X3444626Y-1290500D01*
X3473316Y-1284793D01*
X3500341Y-1273599D01*
X3524663Y-1257348D01*
X3545347Y-1236663D01*
X3557000Y-1219224D01*
X3568652Y-1236663D01*
X3589337Y-1257348D01*
X3590020Y-1257804D01*
X3590020Y-2182572D01*
X3518072Y-2254520D01*
X1666807Y-2254520D01*
X1666807Y-2143500D01*
X1665581Y-2131052D01*
X1661950Y-2119082D01*
X1656054Y-2108051D01*
X1648118Y-2098382D01*
X1638449Y-2090446D01*
X1627418Y-2084550D01*
X1615448Y-2080919D01*
X1603000Y-2079693D01*
X1193000Y-2079693D01*
X1180552Y-2080919D01*
X1168582Y-2084550D01*
X1157551Y-2090446D01*
X1147882Y-2098382D01*
X1139946Y-2108051D01*
X1134050Y-2119082D01*
X1130419Y-2131052D01*
X1129193Y-2143500D01*
X1129193Y-2553500D01*
X1129448Y-2556093D01*
X1123953Y-2555000D01*
X1072048Y-2555000D01*
X1021140Y-2565126D01*
X973186Y-2584989D01*
X930028Y-2613826D01*
X893326Y-2650529D01*
X864489Y-2693686D01*
X844626Y-2741640D01*
X834500Y-2792548D01*
X71000Y-2792548D01*
X71000Y-2562949D01*
X671656Y-2562949D01*
X697140Y-2593312D01*
X746839Y-2608285D01*
X798503Y-2613275D01*
X850149Y-2608089D01*
X898860Y-2593312D01*
X924344Y-2562949D01*
X798000Y-2436606D01*
X671656Y-2562949D01*
X71000Y-2562949D01*
X71000Y-2349004D01*
X533226Y-2349004D01*
X538411Y-2400649D01*
X553188Y-2449360D01*
X583551Y-2474844D01*
X709894Y-2348500D01*
X886105Y-2348500D01*
X1012449Y-2474844D01*
X1042812Y-2449360D01*
X1057785Y-2399661D01*
X1062775Y-2347997D01*
X1057589Y-2296351D01*
X1042812Y-2247640D01*
X1012449Y-2222156D01*
X886105Y-2348500D01*
X709894Y-2348500D01*
X583551Y-2222156D01*
X553188Y-2247640D01*
X538215Y-2297339D01*
X533226Y-2349004D01*
X71000Y-2349004D01*
X71000Y-2134051D01*
X671656Y-2134051D01*
X798000Y-2260395D01*
X924344Y-2134051D01*
X898860Y-2103688D01*
X849161Y-2088715D01*
X797496Y-2083725D01*
X745851Y-2088911D01*
X697140Y-2103688D01*
X671656Y-2134051D01*
X71000Y-2134051D01*
X71000Y-1114270D01*
X939690Y-1114270D01*
X946849Y-1138667D01*
X972400Y-1150757D01*
X999818Y-1157630D01*
X1028051Y-1159022D01*
X1056013Y-1154879D01*
X1082629Y-1145360D01*
X1095151Y-1138667D01*
X1102310Y-1114270D01*
X1021000Y-1032960D01*
X939690Y-1114270D01*
X71000Y-1114270D01*
X71000Y-1022051D01*
X876978Y-1022051D01*
X881121Y-1050013D01*
X890640Y-1076629D01*
X897333Y-1089151D01*
X921730Y-1096310D01*
X1003039Y-1015000D01*
X1038960Y-1015000D01*
X1120270Y-1096310D01*
X1127193Y-1094279D01*
X1127193Y-1095000D01*
X1128419Y-1107448D01*
X1132050Y-1119418D01*
X1137946Y-1130449D01*
X1145882Y-1140119D01*
X1155551Y-1148054D01*
X1166582Y-1153950D01*
X1178552Y-1157581D01*
X1191000Y-1158807D01*
X1351000Y-1158807D01*
X1363448Y-1157581D01*
X1375418Y-1153950D01*
X1386449Y-1148054D01*
X1396119Y-1140119D01*
X1404054Y-1130449D01*
X1409950Y-1119418D01*
X1413581Y-1107448D01*
X1414807Y-1095000D01*
X1414807Y-935000D01*
X1413581Y-922552D01*
X1409950Y-910582D01*
X1404054Y-899551D01*
X1396119Y-889881D01*
X1386449Y-881946D01*
X1375418Y-876050D01*
X1363448Y-872419D01*
X1351000Y-871193D01*
X1191000Y-871193D01*
X1178552Y-872419D01*
X1166582Y-876050D01*
X1155551Y-881946D01*
X1145882Y-889881D01*
X1137946Y-899551D01*
X1132050Y-910582D01*
X1128419Y-922552D01*
X1127193Y-935000D01*
X1127193Y-935721D01*
X1120270Y-933690D01*
X1038960Y-1015000D01*
X1003039Y-1015000D01*
X921730Y-933690D01*
X897333Y-940849D01*
X885243Y-966400D01*
X878370Y-993818D01*
X876978Y-1022051D01*
X71000Y-1022051D01*
X71000Y-915730D01*
X939690Y-915730D01*
X1021000Y-997039D01*
X1102310Y-915730D01*
X1095151Y-891333D01*
X1069600Y-879243D01*
X1042182Y-872370D01*
X1013949Y-870978D01*
X985987Y-875121D01*
X959371Y-884640D01*
X946849Y-891333D01*
X939690Y-915730D01*
X71000Y-915730D01*
X71000Y-650457D01*
X79435Y-663081D01*
X136919Y-720565D01*
X204513Y-765730D01*
X279620Y-796840D01*
X359353Y-812700D01*
X440647Y-812700D01*
X520380Y-796840D01*
X595487Y-765730D01*
X663081Y-720565D01*
X720565Y-663081D01*
X765730Y-595487D01*
X796840Y-520380D01*
X812700Y-440647D01*
X812700Y-359353D01*
X796840Y-279620D01*
X765730Y-204513D01*
X720565Y-136919D01*
X663081Y-79435D01*
X650457Y-71000D01*
X9349543Y-71000D01*
X9336919Y-79435D01*
G04 #@! TD*
M02*
