G04 #@! TF.GenerationSoftware,KiCad,Pcbnew,5.0.0-fee4fd1~66~ubuntu18.04.1*
G04 #@! TF.CreationDate,2018-11-22T16:02:16+01:00*
G04 #@! TF.ProjectId,hwpboard,687770626F6172642E6B696361645F70,rev?*
G04 #@! TF.SameCoordinates,PX67c7620PY282da50*
G04 #@! TF.FileFunction,Copper,L1,Top,Signal*
G04 #@! TF.FilePolarity,Positive*
%FSLAX45Y45*%
G04 Gerber Fmt 4.5, Leading zero omitted, Abs format (unit mm)*
G04 Created by KiCad (PCBNEW 5.0.0-fee4fd1~66~ubuntu18.04.1) date Thu Nov 22 16:02:16 2018*
%MOMM*%
%LPD*%
G01*
G04 APERTURE LIST*
G04 #@! TA.AperFunction,NonConductor*
%ADD10C,0.200000*%
G04 #@! TD*
G04 #@! TA.AperFunction,ComponentPad*
%ADD11R,2.600000X1.800000*%
G04 #@! TD*
G04 #@! TA.AperFunction,ComponentPad*
%ADD12O,2.600000X1.800000*%
G04 #@! TD*
G04 #@! TA.AperFunction,ComponentPad*
%ADD13C,1.700000*%
G04 #@! TD*
G04 #@! TA.AperFunction,ComponentPad*
%ADD14R,1.700000X1.700000*%
G04 #@! TD*
G04 #@! TA.AperFunction,ComponentPad*
%ADD15R,4.100000X4.100000*%
G04 #@! TD*
G04 #@! TA.AperFunction,ComponentPad*
%ADD16C,4.000000*%
G04 #@! TD*
G04 #@! TA.AperFunction,ComponentPad*
%ADD17C,6.000000*%
G04 #@! TD*
G04 #@! TA.AperFunction,ComponentPad*
%ADD18O,1.700000X1.700000*%
G04 #@! TD*
G04 #@! TA.AperFunction,ComponentPad*
%ADD19C,2.000000*%
G04 #@! TD*
G04 #@! TA.AperFunction,ComponentPad*
%ADD20C,2.800000*%
G04 #@! TD*
G04 #@! TA.AperFunction,ComponentPad*
%ADD21R,2.000000X2.000000*%
G04 #@! TD*
G04 #@! TA.AperFunction,SMDPad,CuDef*
%ADD22R,0.900000X0.800000*%
G04 #@! TD*
G04 #@! TA.AperFunction,Conductor*
%ADD23C,0.100000*%
G04 #@! TD*
G04 #@! TA.AperFunction,SMDPad,CuDef*
%ADD24C,1.150000*%
G04 #@! TD*
G04 #@! TA.AperFunction,ComponentPad*
%ADD25R,1.600000X1.600000*%
G04 #@! TD*
G04 #@! TA.AperFunction,ComponentPad*
%ADD26C,1.600000*%
G04 #@! TD*
G04 #@! TA.AperFunction,ViaPad*
%ADD27C,1.000000*%
G04 #@! TD*
G04 #@! TA.AperFunction,Conductor*
%ADD28C,0.609600*%
G04 #@! TD*
G04 #@! TA.AperFunction,Conductor*
%ADD29C,0.304800*%
G04 #@! TD*
G04 #@! TA.AperFunction,Conductor*
%ADD30C,0.254000*%
G04 #@! TD*
G04 APERTURE END LIST*
D10*
X937714Y-772714D02*
X1052000Y-772714D01*
X1255214Y-772714D02*
X1369500Y-772714D01*
X1312357Y-829857D02*
X1312357Y-715571D01*
X186428Y-4624786D02*
X236428Y-4624786D01*
X248036Y-4703357D02*
X176607Y-4703357D01*
X195357Y-4553357D01*
X266786Y-4553357D01*
X324821Y-4603357D02*
X312321Y-4703357D01*
X323036Y-4617643D02*
X331071Y-4610500D01*
X346250Y-4603357D01*
X367678Y-4603357D01*
X381071Y-4610500D01*
X386428Y-4624786D01*
X376607Y-4703357D01*
X176607Y-4449357D02*
X195357Y-4299357D01*
X186428Y-4370786D02*
X272143Y-4370786D01*
X262321Y-4449357D02*
X281071Y-4299357D01*
X410536Y-4349357D02*
X398036Y-4449357D01*
X346250Y-4349357D02*
X336429Y-4427929D01*
X341786Y-4442214D01*
X355178Y-4449357D01*
X376607Y-4449357D01*
X391786Y-4442214D01*
X399821Y-4435071D01*
X469464Y-4449357D02*
X481964Y-4349357D01*
X480178Y-4363643D02*
X488214Y-4356500D01*
X503393Y-4349357D01*
X524821Y-4349357D01*
X538214Y-4356500D01*
X543571Y-4370786D01*
X533750Y-4449357D01*
X543571Y-4370786D02*
X552500Y-4356500D01*
X567679Y-4349357D01*
X589107Y-4349357D01*
X602500Y-4356500D01*
X607857Y-4370786D01*
X598036Y-4449357D01*
X173929Y-4045357D02*
X259643Y-4045357D01*
X198036Y-4195357D02*
X216786Y-4045357D01*
X290893Y-4195357D02*
X303393Y-4095357D01*
X301607Y-4109643D02*
X309643Y-4102500D01*
X324821Y-4095357D01*
X346250Y-4095357D01*
X359643Y-4102500D01*
X365000Y-4116786D01*
X355178Y-4195357D01*
X365000Y-4116786D02*
X373928Y-4102500D01*
X389107Y-4095357D01*
X410536Y-4095357D01*
X423928Y-4102500D01*
X429286Y-4116786D01*
X419464Y-4195357D01*
X503393Y-4095357D02*
X484643Y-4245357D01*
X502500Y-4102500D02*
X517678Y-4095357D01*
X546250Y-4095357D01*
X559643Y-4102500D01*
X565893Y-4109643D01*
X571250Y-4123928D01*
X565893Y-4166786D01*
X556964Y-4181071D01*
X548929Y-4188214D01*
X533750Y-4195357D01*
X505178Y-4195357D01*
X491786Y-4188214D01*
X176607Y-3941357D02*
X195357Y-3791357D01*
X252500Y-3791357D01*
X265893Y-3798500D01*
X272143Y-3805643D01*
X277500Y-3819928D01*
X274821Y-3841357D01*
X265893Y-3855643D01*
X257857Y-3862786D01*
X242678Y-3869928D01*
X185536Y-3869928D01*
X331071Y-3791357D02*
X348036Y-3941357D01*
X390000Y-3834214D01*
X405178Y-3941357D01*
X459643Y-3791357D01*
X498036Y-3941357D02*
X516786Y-3791357D01*
X553393Y-3898500D01*
X616786Y-3791357D01*
X598036Y-3941357D01*
X273036Y-3544500D02*
X259643Y-3537357D01*
X238214Y-3537357D01*
X215893Y-3544500D01*
X199821Y-3558786D01*
X190893Y-3573071D01*
X180178Y-3601643D01*
X177500Y-3623071D01*
X181071Y-3651643D01*
X186428Y-3665928D01*
X198928Y-3680214D01*
X219464Y-3687357D01*
X233750Y-3687357D01*
X256071Y-3680214D01*
X264107Y-3673071D01*
X270357Y-3623071D01*
X241786Y-3623071D01*
X326607Y-3687357D02*
X345357Y-3537357D01*
X412321Y-3687357D01*
X431071Y-3537357D01*
X483750Y-3687357D02*
X502500Y-3537357D01*
X538214Y-3537357D01*
X558750Y-3544500D01*
X571250Y-3558786D01*
X576607Y-3573071D01*
X580179Y-3601643D01*
X577500Y-3623071D01*
X566786Y-3651643D01*
X557857Y-3665928D01*
X541786Y-3680214D01*
X519464Y-3687357D01*
X483750Y-3687357D01*
X9866857Y-7151393D02*
X9716857Y-7132643D01*
X9788286Y-7141571D02*
X9788286Y-7055857D01*
X9866857Y-7065678D02*
X9716857Y-7046928D01*
X9766857Y-6917464D02*
X9866857Y-6929964D01*
X9766857Y-6981750D02*
X9845429Y-6991571D01*
X9859714Y-6986214D01*
X9866857Y-6972821D01*
X9866857Y-6951393D01*
X9859714Y-6936214D01*
X9852571Y-6928178D01*
X9866857Y-6858536D02*
X9766857Y-6846036D01*
X9781143Y-6847821D02*
X9774000Y-6839786D01*
X9766857Y-6824607D01*
X9766857Y-6803178D01*
X9774000Y-6789786D01*
X9788286Y-6784428D01*
X9866857Y-6794250D01*
X9788286Y-6784428D02*
X9774000Y-6775500D01*
X9766857Y-6760321D01*
X9766857Y-6738893D01*
X9774000Y-6725500D01*
X9788286Y-6720143D01*
X9866857Y-6729964D01*
X9866857Y-6658536D02*
X9766857Y-6646036D01*
X9716857Y-6639786D02*
X9724000Y-6647821D01*
X9731143Y-6641571D01*
X9724000Y-6633536D01*
X9716857Y-6639786D01*
X9731143Y-6641571D01*
X9866857Y-6522821D02*
X9716857Y-6504071D01*
X9859714Y-6521928D02*
X9866857Y-6537107D01*
X9866857Y-6565678D01*
X9859714Y-6579071D01*
X9852571Y-6585321D01*
X9838286Y-6590678D01*
X9795429Y-6585321D01*
X9781143Y-6576393D01*
X9774000Y-6568357D01*
X9766857Y-6553178D01*
X9766857Y-6524607D01*
X9774000Y-6511214D01*
X9866857Y-6451393D02*
X9766857Y-6438893D01*
X9716857Y-6432643D02*
X9724000Y-6440678D01*
X9731143Y-6434428D01*
X9724000Y-6426393D01*
X9716857Y-6432643D01*
X9731143Y-6434428D01*
X9766857Y-6388893D02*
X9766857Y-6331750D01*
X9716857Y-6361214D02*
X9845429Y-6377286D01*
X9859714Y-6371928D01*
X9866857Y-6358536D01*
X9866857Y-6344250D01*
X9766857Y-6296036D02*
X9866857Y-6272821D01*
X9766857Y-6224607D02*
X9866857Y-6272821D01*
X9902571Y-6291571D01*
X9909714Y-6299607D01*
X9916857Y-6314786D01*
X9859714Y-6071928D02*
X9866857Y-6058536D01*
X9866857Y-6029964D01*
X9859714Y-6014786D01*
X9845429Y-6005857D01*
X9838286Y-6004964D01*
X9824000Y-6010321D01*
X9816857Y-6023714D01*
X9816857Y-6045143D01*
X9809714Y-6058536D01*
X9795429Y-6063893D01*
X9788286Y-6063000D01*
X9774000Y-6054071D01*
X9766857Y-6038893D01*
X9766857Y-6017464D01*
X9774000Y-6004071D01*
X9859714Y-5886214D02*
X9866857Y-5901393D01*
X9866857Y-5929964D01*
X9859714Y-5943357D01*
X9845429Y-5948714D01*
X9788286Y-5941571D01*
X9774000Y-5932643D01*
X9766857Y-5917464D01*
X9766857Y-5888893D01*
X9774000Y-5875500D01*
X9788286Y-5870143D01*
X9802571Y-5871928D01*
X9816857Y-5945143D01*
X9766857Y-5803178D02*
X9866857Y-5815678D01*
X9781143Y-5804964D02*
X9774000Y-5796928D01*
X9766857Y-5781750D01*
X9766857Y-5760321D01*
X9774000Y-5746928D01*
X9788286Y-5741571D01*
X9866857Y-5751393D01*
X9859714Y-5686214D02*
X9866857Y-5672821D01*
X9866857Y-5644250D01*
X9859714Y-5629071D01*
X9845429Y-5620143D01*
X9838286Y-5619250D01*
X9824000Y-5624607D01*
X9816857Y-5638000D01*
X9816857Y-5659428D01*
X9809714Y-5672821D01*
X9795429Y-5678178D01*
X9788286Y-5677286D01*
X9774000Y-5668357D01*
X9766857Y-5653178D01*
X9766857Y-5631750D01*
X9774000Y-5618357D01*
X9866857Y-5537107D02*
X9859714Y-5550500D01*
X9852571Y-5556750D01*
X9838286Y-5562107D01*
X9795429Y-5556750D01*
X9781143Y-5547821D01*
X9774000Y-5539786D01*
X9766857Y-5524607D01*
X9766857Y-5503179D01*
X9774000Y-5489786D01*
X9781143Y-5483536D01*
X9795429Y-5478179D01*
X9838286Y-5483536D01*
X9852571Y-5492464D01*
X9859714Y-5500500D01*
X9866857Y-5515679D01*
X9866857Y-5537107D01*
X9866857Y-5422821D02*
X9766857Y-5410321D01*
X9795429Y-5413893D02*
X9781143Y-5404964D01*
X9774000Y-5396929D01*
X9766857Y-5381750D01*
X9766857Y-5367464D01*
X923428Y-7664857D02*
X959143Y-7814857D01*
X987714Y-7707714D01*
X1016286Y-7814857D01*
X1052000Y-7664857D01*
X1102000Y-7807714D02*
X1123429Y-7814857D01*
X1159143Y-7814857D01*
X1173429Y-7807714D01*
X1180571Y-7800571D01*
X1187714Y-7786286D01*
X1187714Y-7772000D01*
X1180571Y-7757714D01*
X1173429Y-7750571D01*
X1159143Y-7743428D01*
X1130571Y-7736286D01*
X1116286Y-7729143D01*
X1109143Y-7722000D01*
X1102000Y-7707714D01*
X1102000Y-7693428D01*
X1109143Y-7679143D01*
X1116286Y-7672000D01*
X1130571Y-7664857D01*
X1166286Y-7664857D01*
X1187714Y-7672000D01*
X1444857Y-7814857D02*
X1359143Y-7814857D01*
X1402000Y-7814857D02*
X1402000Y-7664857D01*
X1387714Y-7686286D01*
X1373429Y-7700571D01*
X1359143Y-7707714D01*
X1530571Y-7729143D02*
X1516286Y-7722000D01*
X1509143Y-7714857D01*
X1502000Y-7700571D01*
X1502000Y-7693428D01*
X1509143Y-7679143D01*
X1516286Y-7672000D01*
X1530571Y-7664857D01*
X1559143Y-7664857D01*
X1573428Y-7672000D01*
X1580571Y-7679143D01*
X1587714Y-7693428D01*
X1587714Y-7700571D01*
X1580571Y-7714857D01*
X1573428Y-7722000D01*
X1559143Y-7729143D01*
X1530571Y-7729143D01*
X1516286Y-7736286D01*
X1509143Y-7743428D01*
X1502000Y-7757714D01*
X1502000Y-7786286D01*
X1509143Y-7800571D01*
X1516286Y-7807714D01*
X1530571Y-7814857D01*
X1559143Y-7814857D01*
X1573428Y-7807714D01*
X1580571Y-7800571D01*
X1587714Y-7786286D01*
X1587714Y-7757714D01*
X1580571Y-7743428D01*
X1573428Y-7736286D01*
X1559143Y-7729143D01*
X1759143Y-7657714D02*
X1630571Y-7850571D01*
X1887714Y-7814857D02*
X1802000Y-7814857D01*
X1844857Y-7814857D02*
X1844857Y-7664857D01*
X1830571Y-7686286D01*
X1816286Y-7700571D01*
X1802000Y-7707714D01*
X1959143Y-7814857D02*
X1987714Y-7814857D01*
X2002000Y-7807714D01*
X2009143Y-7800571D01*
X2023428Y-7779143D01*
X2030571Y-7750571D01*
X2030571Y-7693428D01*
X2023428Y-7679143D01*
X2016286Y-7672000D01*
X2002000Y-7664857D01*
X1973428Y-7664857D01*
X1959143Y-7672000D01*
X1952000Y-7679143D01*
X1944857Y-7693428D01*
X1944857Y-7729143D01*
X1952000Y-7743428D01*
X1959143Y-7750571D01*
X1973428Y-7757714D01*
X2002000Y-7757714D01*
X2016286Y-7750571D01*
X2023428Y-7743428D01*
X2030571Y-7729143D01*
X2102000Y-7807714D02*
X2102000Y-7814857D01*
X2094857Y-7829143D01*
X2087714Y-7836286D01*
X2259143Y-7664857D02*
X2344857Y-7664857D01*
X2302000Y-7814857D02*
X2302000Y-7664857D01*
X2423429Y-7664857D02*
X2437714Y-7664857D01*
X2452000Y-7672000D01*
X2459143Y-7679143D01*
X2466286Y-7693428D01*
X2473429Y-7722000D01*
X2473429Y-7757714D01*
X2466286Y-7786286D01*
X2459143Y-7800571D01*
X2452000Y-7807714D01*
X2437714Y-7814857D01*
X2423429Y-7814857D01*
X2409143Y-7807714D01*
X2402000Y-7800571D01*
X2394857Y-7786286D01*
X2387714Y-7757714D01*
X2387714Y-7722000D01*
X2394857Y-7693428D01*
X2402000Y-7679143D01*
X2409143Y-7672000D01*
X2423429Y-7664857D01*
X2530571Y-7679143D02*
X2537714Y-7672000D01*
X2552000Y-7664857D01*
X2587714Y-7664857D01*
X2602000Y-7672000D01*
X2609143Y-7679143D01*
X2616286Y-7693428D01*
X2616286Y-7707714D01*
X2609143Y-7729143D01*
X2523429Y-7814857D01*
X2616286Y-7814857D01*
X2687714Y-7807714D02*
X2687714Y-7814857D01*
X2680571Y-7829143D01*
X2673429Y-7836286D01*
X2937714Y-7814857D02*
X2866286Y-7814857D01*
X2866286Y-7664857D01*
X3044857Y-7807714D02*
X3030571Y-7814857D01*
X3002000Y-7814857D01*
X2987714Y-7807714D01*
X2980571Y-7793428D01*
X2980571Y-7736286D01*
X2987714Y-7722000D01*
X3002000Y-7714857D01*
X3030571Y-7714857D01*
X3044857Y-7722000D01*
X3052000Y-7736286D01*
X3052000Y-7750571D01*
X2980571Y-7764857D01*
X3173428Y-7807714D02*
X3159143Y-7814857D01*
X3130571Y-7814857D01*
X3116286Y-7807714D01*
X3109143Y-7793428D01*
X3109143Y-7736286D01*
X3116286Y-7722000D01*
X3130571Y-7714857D01*
X3159143Y-7714857D01*
X3173428Y-7722000D01*
X3180571Y-7736286D01*
X3180571Y-7750571D01*
X3109143Y-7764857D01*
X3230571Y-7714857D02*
X3266286Y-7814857D01*
X3302000Y-7714857D01*
X3359143Y-7814857D02*
X3359143Y-7714857D01*
X3359143Y-7664857D02*
X3352000Y-7672000D01*
X3359143Y-7679143D01*
X3366286Y-7672000D01*
X3359143Y-7664857D01*
X3359143Y-7679143D01*
X3544857Y-7814857D02*
X3544857Y-7664857D01*
X3630571Y-7814857D02*
X3566286Y-7729143D01*
X3630571Y-7664857D02*
X3544857Y-7750571D01*
X3759143Y-7814857D02*
X3759143Y-7736286D01*
X3752000Y-7722000D01*
X3737714Y-7714857D01*
X3709143Y-7714857D01*
X3694857Y-7722000D01*
X3759143Y-7807714D02*
X3744857Y-7814857D01*
X3709143Y-7814857D01*
X3694857Y-7807714D01*
X3687714Y-7793428D01*
X3687714Y-7779143D01*
X3694857Y-7764857D01*
X3709143Y-7757714D01*
X3744857Y-7757714D01*
X3759143Y-7750571D01*
X3830571Y-7814857D02*
X3830571Y-7714857D01*
X3830571Y-7743428D02*
X3837714Y-7729143D01*
X3844857Y-7722000D01*
X3859143Y-7714857D01*
X3873428Y-7714857D01*
X3923428Y-7714857D02*
X3923428Y-7843428D01*
X3916286Y-7857714D01*
X3902000Y-7864857D01*
X3894857Y-7864857D01*
X3923428Y-7664857D02*
X3916286Y-7672000D01*
X3923428Y-7679143D01*
X3930571Y-7672000D01*
X3923428Y-7664857D01*
X3923428Y-7679143D01*
X4059143Y-7814857D02*
X4059143Y-7736286D01*
X4052000Y-7722000D01*
X4037714Y-7714857D01*
X4009143Y-7714857D01*
X3994857Y-7722000D01*
X4059143Y-7807714D02*
X4044857Y-7814857D01*
X4009143Y-7814857D01*
X3994857Y-7807714D01*
X3987714Y-7793428D01*
X3987714Y-7779143D01*
X3994857Y-7764857D01*
X4009143Y-7757714D01*
X4044857Y-7757714D01*
X4059143Y-7750571D01*
X4152000Y-7814857D02*
X4137714Y-7807714D01*
X4130571Y-7793428D01*
X4130571Y-7664857D01*
X4273429Y-7814857D02*
X4273429Y-7736286D01*
X4266286Y-7722000D01*
X4252000Y-7714857D01*
X4223429Y-7714857D01*
X4209143Y-7722000D01*
X4273429Y-7807714D02*
X4259143Y-7814857D01*
X4223429Y-7814857D01*
X4209143Y-7807714D01*
X4202000Y-7793428D01*
X4202000Y-7779143D01*
X4209143Y-7764857D01*
X4223429Y-7757714D01*
X4259143Y-7757714D01*
X4273429Y-7750571D01*
X4344857Y-7814857D02*
X4344857Y-7714857D01*
X4344857Y-7664857D02*
X4337714Y-7672000D01*
X4344857Y-7679143D01*
X4352000Y-7672000D01*
X4344857Y-7664857D01*
X4344857Y-7679143D01*
X4416286Y-7714857D02*
X4416286Y-7814857D01*
X4416286Y-7729143D02*
X4423429Y-7722000D01*
X4437714Y-7714857D01*
X4459143Y-7714857D01*
X4473429Y-7722000D01*
X4480571Y-7736286D01*
X4480571Y-7814857D01*
X4609143Y-7807714D02*
X4594857Y-7814857D01*
X4566286Y-7814857D01*
X4552000Y-7807714D01*
X4544857Y-7793428D01*
X4544857Y-7736286D01*
X4552000Y-7722000D01*
X4566286Y-7714857D01*
X4594857Y-7714857D01*
X4609143Y-7722000D01*
X4616286Y-7736286D01*
X4616286Y-7750571D01*
X4544857Y-7764857D01*
X4680571Y-7714857D02*
X4680571Y-7814857D01*
X4680571Y-7729143D02*
X4687714Y-7722000D01*
X4702000Y-7714857D01*
X4723429Y-7714857D01*
X4737714Y-7722000D01*
X4744857Y-7736286D01*
X4744857Y-7814857D01*
X4823429Y-7807714D02*
X4823429Y-7814857D01*
X4816286Y-7829143D01*
X4809143Y-7836286D01*
X5002000Y-7814857D02*
X5002000Y-7664857D01*
X5052000Y-7772000D01*
X5102000Y-7664857D01*
X5102000Y-7814857D01*
X5237714Y-7814857D02*
X5237714Y-7736286D01*
X5230571Y-7722000D01*
X5216286Y-7714857D01*
X5187714Y-7714857D01*
X5173429Y-7722000D01*
X5237714Y-7807714D02*
X5223429Y-7814857D01*
X5187714Y-7814857D01*
X5173429Y-7807714D01*
X5166286Y-7793428D01*
X5166286Y-7779143D01*
X5173429Y-7764857D01*
X5187714Y-7757714D01*
X5223429Y-7757714D01*
X5237714Y-7750571D01*
X5309143Y-7814857D02*
X5309143Y-7714857D01*
X5309143Y-7743428D02*
X5316286Y-7729143D01*
X5323429Y-7722000D01*
X5337714Y-7714857D01*
X5352000Y-7714857D01*
X5380571Y-7714857D02*
X5437714Y-7714857D01*
X5402000Y-7664857D02*
X5402000Y-7793428D01*
X5409143Y-7807714D01*
X5423429Y-7814857D01*
X5437714Y-7814857D01*
X5487714Y-7814857D02*
X5487714Y-7714857D01*
X5487714Y-7664857D02*
X5480571Y-7672000D01*
X5487714Y-7679143D01*
X5494857Y-7672000D01*
X5487714Y-7664857D01*
X5487714Y-7679143D01*
X5559143Y-7714857D02*
X5559143Y-7814857D01*
X5559143Y-7729143D02*
X5566286Y-7722000D01*
X5580571Y-7714857D01*
X5602000Y-7714857D01*
X5616286Y-7722000D01*
X5623428Y-7736286D01*
X5623428Y-7814857D01*
X5809143Y-7814857D02*
X5809143Y-7664857D01*
X5894857Y-7814857D02*
X5830571Y-7729143D01*
X5894857Y-7664857D02*
X5809143Y-7750571D01*
X5980571Y-7814857D02*
X5966286Y-7807714D01*
X5959143Y-7800571D01*
X5952000Y-7786286D01*
X5952000Y-7743428D01*
X5959143Y-7729143D01*
X5966286Y-7722000D01*
X5980571Y-7714857D01*
X6002000Y-7714857D01*
X6016286Y-7722000D01*
X6023428Y-7729143D01*
X6030571Y-7743428D01*
X6030571Y-7786286D01*
X6023428Y-7800571D01*
X6016286Y-7807714D01*
X6002000Y-7814857D01*
X5980571Y-7814857D01*
X6087714Y-7807714D02*
X6102000Y-7814857D01*
X6130571Y-7814857D01*
X6144857Y-7807714D01*
X6152000Y-7793428D01*
X6152000Y-7786286D01*
X6144857Y-7772000D01*
X6130571Y-7764857D01*
X6109143Y-7764857D01*
X6094857Y-7757714D01*
X6087714Y-7743428D01*
X6087714Y-7736286D01*
X6094857Y-7722000D01*
X6109143Y-7714857D01*
X6130571Y-7714857D01*
X6144857Y-7722000D01*
X6087714Y-7657714D02*
X6116286Y-7679143D01*
X6144857Y-7657714D01*
X6194857Y-7714857D02*
X6252000Y-7714857D01*
X6266286Y-7664857D02*
X6259143Y-7686286D01*
X6216286Y-7664857D02*
X6216286Y-7793428D01*
X6223428Y-7807714D01*
X6237714Y-7814857D01*
X6252000Y-7814857D01*
X6380571Y-7814857D02*
X6380571Y-7736286D01*
X6373428Y-7722000D01*
X6359143Y-7714857D01*
X6330571Y-7714857D01*
X6316286Y-7722000D01*
X6380571Y-7807714D02*
X6366286Y-7814857D01*
X6330571Y-7814857D01*
X6316286Y-7807714D01*
X6309143Y-7793428D01*
X6309143Y-7779143D01*
X6316286Y-7764857D01*
X6330571Y-7757714D01*
X6366286Y-7757714D01*
X6380571Y-7750571D01*
X6359143Y-7657714D02*
X6337714Y-7679143D01*
X6473428Y-7814857D02*
X6459143Y-7807714D01*
X6452000Y-7793428D01*
X6452000Y-7664857D01*
D11*
G04 #@! TO.P,LCD1,1*
G04 #@! TO.N,GND*
X2159000Y-7239000D03*
D12*
G04 #@! TO.P,LCD1,2*
G04 #@! TO.N,+5V*
X2159000Y-6985000D03*
G04 #@! TO.P,LCD1,3*
G04 #@! TO.N,DAC0*
X2159000Y-6731000D03*
G04 #@! TO.P,LCD1,4*
G04 #@! TO.N,RS*
X2159000Y-6477000D03*
G04 #@! TO.P,LCD1,5*
G04 #@! TO.N,GND*
X2159000Y-6223000D03*
G04 #@! TO.P,LCD1,6*
G04 #@! TO.N,E*
X2159000Y-5969000D03*
G04 #@! TO.P,LCD1,7*
G04 #@! TO.N,d0*
X2159000Y-5715000D03*
G04 #@! TO.P,LCD1,8*
G04 #@! TO.N,d1*
X2159000Y-5461000D03*
G04 #@! TO.P,LCD1,9*
G04 #@! TO.N,d2*
X2159000Y-5207000D03*
G04 #@! TO.P,LCD1,10*
G04 #@! TO.N,d3*
X2159000Y-4953000D03*
G04 #@! TO.P,LCD1,11*
G04 #@! TO.N,d4*
X2159000Y-4699000D03*
G04 #@! TO.P,LCD1,12*
G04 #@! TO.N,d5*
X2159000Y-4445000D03*
G04 #@! TO.P,LCD1,13*
G04 #@! TO.N,d6*
X2159000Y-4191000D03*
G04 #@! TO.P,LCD1,14*
G04 #@! TO.N,d7*
X2159000Y-3937000D03*
G04 #@! TO.P,LCD1,15*
G04 #@! TO.N,+5V*
X2159000Y-3683000D03*
G04 #@! TO.P,LCD1,16*
G04 #@! TO.N,brightness*
X2159000Y-3429000D03*
G04 #@! TD*
D13*
G04 #@! TO.P,NUCBRD1,76*
G04 #@! TO.N,N/C*
X7747000Y-7239000D03*
G04 #@! TO.P,NUCBRD1,75*
X7747000Y-6985000D03*
G04 #@! TO.P,NUCBRD1,74*
X7493000Y-7239000D03*
G04 #@! TO.P,NUCBRD1,73*
X7493000Y-6985000D03*
G04 #@! TO.P,NUCBRD1,72*
X7239000Y-7239000D03*
G04 #@! TO.P,NUCBRD1,71*
X7239000Y-6985000D03*
G04 #@! TO.P,NUCBRD1,70*
G04 #@! TO.N,GND*
X6985000Y-7239000D03*
G04 #@! TO.P,NUCBRD1,69*
G04 #@! TO.N,N/C*
X6985000Y-6985000D03*
G04 #@! TO.P,NUCBRD1,68*
X6731000Y-7239000D03*
G04 #@! TO.P,NUCBRD1,67*
G04 #@! TO.N,btn1*
X6731000Y-6985000D03*
G04 #@! TO.P,NUCBRD1,66*
G04 #@! TO.N,N/C*
X6477000Y-7239000D03*
G04 #@! TO.P,NUCBRD1,65*
G04 #@! TO.N,btn0*
X6477000Y-6985000D03*
G04 #@! TO.P,NUCBRD1,64*
G04 #@! TO.N,N/C*
X6223000Y-7239000D03*
G04 #@! TO.P,NUCBRD1,63*
G04 #@! TO.N,rotary0*
X6223000Y-6985000D03*
G04 #@! TO.P,NUCBRD1,62*
G04 #@! TO.N,N/C*
X5969000Y-7239000D03*
G04 #@! TO.P,NUCBRD1,61*
G04 #@! TO.N,rotary1*
X5969000Y-6985000D03*
G04 #@! TO.P,NUCBRD1,60*
G04 #@! TO.N,N/C*
X5715000Y-7239000D03*
G04 #@! TO.P,NUCBRD1,59*
X5715000Y-6985000D03*
G04 #@! TO.P,NUCBRD1,58*
G04 #@! TO.N,GND*
X5461000Y-7239000D03*
G04 #@! TO.P,NUCBRD1,57*
G04 #@! TO.N,N/C*
X5461000Y-6985000D03*
G04 #@! TO.P,NUCBRD1,56*
X5207000Y-7239000D03*
G04 #@! TO.P,NUCBRD1,55*
G04 #@! TO.N,d7*
X5207000Y-6985000D03*
G04 #@! TO.P,NUCBRD1,54*
G04 #@! TO.N,d6*
X4953000Y-7239000D03*
G04 #@! TO.P,NUCBRD1,53*
G04 #@! TO.N,d5*
X4953000Y-6985000D03*
G04 #@! TO.P,NUCBRD1,52*
G04 #@! TO.N,N/C*
X4699000Y-7239000D03*
G04 #@! TO.P,NUCBRD1,51*
G04 #@! TO.N,d4*
X4699000Y-6985000D03*
G04 #@! TO.P,NUCBRD1,50*
G04 #@! TO.N,N/C*
X4445000Y-7239000D03*
G04 #@! TO.P,NUCBRD1,49*
G04 #@! TO.N,d3*
X4445000Y-6985000D03*
G04 #@! TO.P,NUCBRD1,48*
G04 #@! TO.N,N/C*
X4191000Y-7239000D03*
G04 #@! TO.P,NUCBRD1,47*
G04 #@! TO.N,GND*
X4191000Y-6985000D03*
G04 #@! TO.P,NUCBRD1,46*
G04 #@! TO.N,N/C*
X3937000Y-7239000D03*
G04 #@! TO.P,NUCBRD1,45*
X3937000Y-6985000D03*
G04 #@! TO.P,NUCBRD1,44*
G04 #@! TO.N,d2*
X3683000Y-7239000D03*
G04 #@! TO.P,NUCBRD1,43*
G04 #@! TO.N,d1*
X3683000Y-6985000D03*
G04 #@! TO.P,NUCBRD1,42*
G04 #@! TO.N,d0*
X3429000Y-7239000D03*
G04 #@! TO.P,NUCBRD1,41*
G04 #@! TO.N,PWM_LCD*
X3429000Y-6985000D03*
G04 #@! TO.P,NUCBRD1,40*
G04 #@! TO.N,RS*
X3175000Y-7239000D03*
G04 #@! TO.P,NUCBRD1,39*
G04 #@! TO.N,E*
X3175000Y-6985000D03*
G04 #@! TO.P,NUCBRD1,38*
G04 #@! TO.N,humid_out*
X7747000Y-1143000D03*
G04 #@! TO.P,NUCBRD1,37*
G04 #@! TO.N,N/C*
X7747000Y-889000D03*
G04 #@! TO.P,NUCBRD1,36*
G04 #@! TO.N,temp_out*
X7493000Y-1143000D03*
G04 #@! TO.P,NUCBRD1,35*
G04 #@! TO.N,N/C*
X7493000Y-889000D03*
G04 #@! TO.P,NUCBRD1,34*
X7239000Y-1143000D03*
G04 #@! TO.P,NUCBRD1,33*
X7239000Y-889000D03*
G04 #@! TO.P,NUCBRD1,32*
G04 #@! TO.N,DAC0*
X6985000Y-1143000D03*
G04 #@! TO.P,NUCBRD1,31*
G04 #@! TO.N,N/C*
X6985000Y-889000D03*
G04 #@! TO.P,NUCBRD1,30*
X6731000Y-1143000D03*
G04 #@! TO.P,NUCBRD1,29*
X6731000Y-889000D03*
G04 #@! TO.P,NUCBRD1,28*
X6477000Y-1143000D03*
G04 #@! TO.P,NUCBRD1,27*
X6477000Y-889000D03*
G04 #@! TO.P,NUCBRD1,26*
X6223000Y-1143000D03*
G04 #@! TO.P,NUCBRD1,25*
X6223000Y-889000D03*
G04 #@! TO.P,NUCBRD1,24*
X5969000Y-1143000D03*
G04 #@! TO.P,NUCBRD1,23*
X5969000Y-889000D03*
G04 #@! TO.P,NUCBRD1,22*
G04 #@! TO.N,GND*
X5715000Y-1143000D03*
G04 #@! TO.P,NUCBRD1,21*
G04 #@! TO.N,PWM_sensor*
X5715000Y-889000D03*
G04 #@! TO.P,NUCBRD1,20*
G04 #@! TO.N,GND*
X5461000Y-1143000D03*
G04 #@! TO.P,NUCBRD1,19*
X5461000Y-889000D03*
G04 #@! TO.P,NUCBRD1,18*
G04 #@! TO.N,+5V*
X5207000Y-1143000D03*
G04 #@! TO.P,NUCBRD1,17*
G04 #@! TO.N,N/C*
X5207000Y-889000D03*
G04 #@! TO.P,NUCBRD1,16*
X4953000Y-1143000D03*
G04 #@! TO.P,NUCBRD1,15*
X4953000Y-889000D03*
G04 #@! TO.P,NUCBRD1,14*
X4699000Y-1143000D03*
G04 #@! TO.P,NUCBRD1,13*
X4699000Y-889000D03*
G04 #@! TO.P,NUCBRD1,12*
X4445000Y-1143000D03*
G04 #@! TO.P,NUCBRD1,11*
X4445000Y-889000D03*
G04 #@! TO.P,NUCBRD1,10*
X4191000Y-1143000D03*
G04 #@! TO.P,NUCBRD1,9*
X4191000Y-889000D03*
G04 #@! TO.P,NUCBRD1,8*
G04 #@! TO.N,GND*
X3937000Y-1143000D03*
G04 #@! TO.P,NUCBRD1,7*
G04 #@! TO.N,N/C*
X3937000Y-889000D03*
G04 #@! TO.P,NUCBRD1,6*
G04 #@! TO.N,Net-(C1-Pad2)*
X3683000Y-1143000D03*
G04 #@! TO.P,NUCBRD1,5*
G04 #@! TO.N,N/C*
X3683000Y-889000D03*
G04 #@! TO.P,NUCBRD1,4*
X3429000Y-1143000D03*
G04 #@! TO.P,NUCBRD1,3*
X3429000Y-889000D03*
G04 #@! TO.P,NUCBRD1,2*
G04 #@! TO.N,Sensor_enable*
X3175000Y-1143000D03*
D14*
G04 #@! TO.P,NUCBRD1,1*
G04 #@! TO.N,N/C*
X3175000Y-889000D03*
G04 #@! TD*
D15*
G04 #@! TO.P,J1,1*
G04 #@! TO.N,Net-(C1-Pad2)*
X1397000Y-2349500D03*
D16*
G04 #@! TO.P,J1,2*
G04 #@! TO.N,GND*
X797000Y-2349500D03*
G04 #@! TO.P,J1,3*
G04 #@! TO.N,N/C*
X1097000Y-2819500D03*
G04 #@! TD*
D17*
G04 #@! TO.P,J2,1*
G04 #@! TO.N,N/C*
X399000Y-401000D03*
G04 #@! TD*
G04 #@! TO.P,J3,1*
G04 #@! TO.N,N/C*
X399000Y-7601000D03*
G04 #@! TD*
G04 #@! TO.P,J4,1*
G04 #@! TO.N,N/C*
X9599000Y-401000D03*
G04 #@! TD*
G04 #@! TO.P,J5,1*
G04 #@! TO.N,N/C*
X9599000Y-7601000D03*
G04 #@! TD*
D14*
G04 #@! TO.P,MoistureSensor1,1*
G04 #@! TO.N,GND*
X762000Y-3619500D03*
D18*
G04 #@! TO.P,MoistureSensor1,2*
G04 #@! TO.N,PWM_sensor*
X762000Y-3873500D03*
G04 #@! TO.P,MoistureSensor1,3*
G04 #@! TO.N,temp_out*
X762000Y-4127500D03*
G04 #@! TO.P,MoistureSensor1,4*
G04 #@! TO.N,humid_out*
X762000Y-4381500D03*
G04 #@! TO.P,MoistureSensor1,5*
G04 #@! TO.N,Sensor_enable*
X762000Y-4635500D03*
G04 #@! TD*
D19*
G04 #@! TO.P,PushButton1,1*
G04 #@! TO.N,GND*
X8636000Y-1763000D03*
G04 #@! TO.P,PushButton1,2*
G04 #@! TO.N,btn1*
X9086000Y-1763000D03*
G04 #@! TO.P,PushButton1,1*
G04 #@! TO.N,GND*
X8636000Y-2413000D03*
G04 #@! TO.P,PushButton1,2*
G04 #@! TO.N,btn1*
X9086000Y-2413000D03*
G04 #@! TD*
G04 #@! TO.P,RotaryEncoder1,S2*
G04 #@! TO.N,GND*
X9144000Y-4646000D03*
G04 #@! TO.P,RotaryEncoder1,S1*
G04 #@! TO.N,btn0*
X8644000Y-4646000D03*
D20*
G04 #@! TO.P,RotaryEncoder1,MP*
G04 #@! TO.N,N/C*
X9454000Y-5346000D03*
X8334000Y-5346000D03*
D19*
G04 #@! TO.P,RotaryEncoder1,B*
G04 #@! TO.N,rotary1*
X9144000Y-6096000D03*
G04 #@! TO.P,RotaryEncoder1,C*
G04 #@! TO.N,GND*
X8894000Y-6096000D03*
D21*
G04 #@! TO.P,RotaryEncoder1,A*
G04 #@! TO.N,rotary0*
X8644000Y-6096000D03*
G04 #@! TD*
D22*
G04 #@! TO.P,Q1,1*
G04 #@! TO.N,Net-(Q1-Pad1)*
X1500200Y-4807200D03*
G04 #@! TO.P,Q1,2*
G04 #@! TO.N,GND*
X1500200Y-4997200D03*
G04 #@! TO.P,Q1,3*
G04 #@! TO.N,brightness*
X1700200Y-4902200D03*
G04 #@! TD*
D23*
G04 #@! TO.N,Net-(C1-Pad2)*
G04 #@! TO.C,C1*
G36*
X1407450Y-1581120D02*
X1409877Y-1581480D01*
X1412257Y-1582076D01*
X1414567Y-1582903D01*
X1416785Y-1583952D01*
X1418889Y-1585213D01*
X1420860Y-1586675D01*
X1422678Y-1588322D01*
X1424325Y-1590140D01*
X1425787Y-1592111D01*
X1427048Y-1594215D01*
X1428097Y-1596433D01*
X1428923Y-1598743D01*
X1429520Y-1601123D01*
X1429880Y-1603549D01*
X1430000Y-1606000D01*
X1430000Y-1696000D01*
X1429880Y-1698450D01*
X1429520Y-1700877D01*
X1428923Y-1703257D01*
X1428097Y-1705567D01*
X1427048Y-1707785D01*
X1425787Y-1709889D01*
X1424325Y-1711860D01*
X1422678Y-1713678D01*
X1420860Y-1715325D01*
X1418889Y-1716787D01*
X1416785Y-1718048D01*
X1414567Y-1719097D01*
X1412257Y-1719923D01*
X1409877Y-1720520D01*
X1407450Y-1720880D01*
X1405000Y-1721000D01*
X1340000Y-1721000D01*
X1337550Y-1720880D01*
X1335123Y-1720520D01*
X1332743Y-1719923D01*
X1330433Y-1719097D01*
X1328215Y-1718048D01*
X1326111Y-1716787D01*
X1324140Y-1715325D01*
X1322322Y-1713678D01*
X1320675Y-1711860D01*
X1319213Y-1709889D01*
X1317952Y-1707785D01*
X1316903Y-1705567D01*
X1316077Y-1703257D01*
X1315480Y-1700877D01*
X1315120Y-1698450D01*
X1315000Y-1696000D01*
X1315000Y-1606000D01*
X1315120Y-1603549D01*
X1315480Y-1601123D01*
X1316077Y-1598743D01*
X1316903Y-1596433D01*
X1317952Y-1594215D01*
X1319213Y-1592111D01*
X1320675Y-1590140D01*
X1322322Y-1588322D01*
X1324140Y-1586675D01*
X1326111Y-1585213D01*
X1328215Y-1583952D01*
X1330433Y-1582903D01*
X1332743Y-1582076D01*
X1335123Y-1581480D01*
X1337550Y-1581120D01*
X1340000Y-1581000D01*
X1405000Y-1581000D01*
X1407450Y-1581120D01*
X1407450Y-1581120D01*
G37*
D24*
G04 #@! TD*
G04 #@! TO.P,C1,2*
G04 #@! TO.N,Net-(C1-Pad2)*
X1372500Y-1651000D03*
D23*
G04 #@! TO.N,GND*
G04 #@! TO.C,C1*
G36*
X1202451Y-1581120D02*
X1204877Y-1581480D01*
X1207257Y-1582076D01*
X1209567Y-1582903D01*
X1211785Y-1583952D01*
X1213889Y-1585213D01*
X1215860Y-1586675D01*
X1217678Y-1588322D01*
X1219325Y-1590140D01*
X1220787Y-1592111D01*
X1222048Y-1594215D01*
X1223097Y-1596433D01*
X1223924Y-1598743D01*
X1224520Y-1601123D01*
X1224880Y-1603549D01*
X1225000Y-1606000D01*
X1225000Y-1696000D01*
X1224880Y-1698450D01*
X1224520Y-1700877D01*
X1223924Y-1703257D01*
X1223097Y-1705567D01*
X1222048Y-1707785D01*
X1220787Y-1709889D01*
X1219325Y-1711860D01*
X1217678Y-1713678D01*
X1215860Y-1715325D01*
X1213889Y-1716787D01*
X1211785Y-1718048D01*
X1209567Y-1719097D01*
X1207257Y-1719923D01*
X1204877Y-1720520D01*
X1202451Y-1720880D01*
X1200000Y-1721000D01*
X1135000Y-1721000D01*
X1132550Y-1720880D01*
X1130123Y-1720520D01*
X1127743Y-1719923D01*
X1125433Y-1719097D01*
X1123215Y-1718048D01*
X1121111Y-1716787D01*
X1119140Y-1715325D01*
X1117322Y-1713678D01*
X1115675Y-1711860D01*
X1114213Y-1709889D01*
X1112952Y-1707785D01*
X1111903Y-1705567D01*
X1111077Y-1703257D01*
X1110480Y-1700877D01*
X1110120Y-1698450D01*
X1110000Y-1696000D01*
X1110000Y-1606000D01*
X1110120Y-1603549D01*
X1110480Y-1601123D01*
X1111077Y-1598743D01*
X1111903Y-1596433D01*
X1112952Y-1594215D01*
X1114213Y-1592111D01*
X1115675Y-1590140D01*
X1117322Y-1588322D01*
X1119140Y-1586675D01*
X1121111Y-1585213D01*
X1123215Y-1583952D01*
X1125433Y-1582903D01*
X1127743Y-1582076D01*
X1130123Y-1581480D01*
X1132550Y-1581120D01*
X1135000Y-1581000D01*
X1200000Y-1581000D01*
X1202451Y-1581120D01*
X1202451Y-1581120D01*
G37*
D24*
G04 #@! TD*
G04 #@! TO.P,C1,1*
G04 #@! TO.N,GND*
X1167500Y-1651000D03*
D23*
G04 #@! TO.N,+5V*
G04 #@! TO.C,C2*
G36*
X1698450Y-6976620D02*
X1700877Y-6976980D01*
X1703257Y-6977576D01*
X1705567Y-6978403D01*
X1707785Y-6979452D01*
X1709889Y-6980713D01*
X1711860Y-6982175D01*
X1713678Y-6983822D01*
X1715325Y-6985640D01*
X1716787Y-6987611D01*
X1718048Y-6989715D01*
X1719097Y-6991933D01*
X1719923Y-6994243D01*
X1720520Y-6996623D01*
X1720880Y-6999049D01*
X1721000Y-7001500D01*
X1721000Y-7066500D01*
X1720880Y-7068950D01*
X1720520Y-7071377D01*
X1719923Y-7073757D01*
X1719097Y-7076067D01*
X1718048Y-7078285D01*
X1716787Y-7080389D01*
X1715325Y-7082360D01*
X1713678Y-7084178D01*
X1711860Y-7085825D01*
X1709889Y-7087287D01*
X1707785Y-7088548D01*
X1705567Y-7089597D01*
X1703257Y-7090423D01*
X1700877Y-7091020D01*
X1698450Y-7091380D01*
X1696000Y-7091500D01*
X1606000Y-7091500D01*
X1603549Y-7091380D01*
X1601123Y-7091020D01*
X1598743Y-7090423D01*
X1596433Y-7089597D01*
X1594215Y-7088548D01*
X1592111Y-7087287D01*
X1590140Y-7085825D01*
X1588322Y-7084178D01*
X1586675Y-7082360D01*
X1585213Y-7080389D01*
X1583952Y-7078285D01*
X1582903Y-7076067D01*
X1582076Y-7073757D01*
X1581480Y-7071377D01*
X1581120Y-7068950D01*
X1581000Y-7066500D01*
X1581000Y-7001500D01*
X1581120Y-6999049D01*
X1581480Y-6996623D01*
X1582076Y-6994243D01*
X1582903Y-6991933D01*
X1583952Y-6989715D01*
X1585213Y-6987611D01*
X1586675Y-6985640D01*
X1588322Y-6983822D01*
X1590140Y-6982175D01*
X1592111Y-6980713D01*
X1594215Y-6979452D01*
X1596433Y-6978403D01*
X1598743Y-6977576D01*
X1601123Y-6976980D01*
X1603549Y-6976620D01*
X1606000Y-6976500D01*
X1696000Y-6976500D01*
X1698450Y-6976620D01*
X1698450Y-6976620D01*
G37*
D24*
G04 #@! TD*
G04 #@! TO.P,C2,1*
G04 #@! TO.N,+5V*
X1651000Y-7034000D03*
D23*
G04 #@! TO.N,GND*
G04 #@! TO.C,C2*
G36*
X1698450Y-7181620D02*
X1700877Y-7181980D01*
X1703257Y-7182576D01*
X1705567Y-7183403D01*
X1707785Y-7184452D01*
X1709889Y-7185713D01*
X1711860Y-7187175D01*
X1713678Y-7188822D01*
X1715325Y-7190640D01*
X1716787Y-7192611D01*
X1718048Y-7194715D01*
X1719097Y-7196933D01*
X1719923Y-7199243D01*
X1720520Y-7201623D01*
X1720880Y-7204049D01*
X1721000Y-7206500D01*
X1721000Y-7271500D01*
X1720880Y-7273950D01*
X1720520Y-7276377D01*
X1719923Y-7278757D01*
X1719097Y-7281067D01*
X1718048Y-7283285D01*
X1716787Y-7285389D01*
X1715325Y-7287360D01*
X1713678Y-7289178D01*
X1711860Y-7290825D01*
X1709889Y-7292287D01*
X1707785Y-7293548D01*
X1705567Y-7294597D01*
X1703257Y-7295423D01*
X1700877Y-7296020D01*
X1698450Y-7296380D01*
X1696000Y-7296500D01*
X1606000Y-7296500D01*
X1603549Y-7296380D01*
X1601123Y-7296020D01*
X1598743Y-7295423D01*
X1596433Y-7294597D01*
X1594215Y-7293548D01*
X1592111Y-7292287D01*
X1590140Y-7290825D01*
X1588322Y-7289178D01*
X1586675Y-7287360D01*
X1585213Y-7285389D01*
X1583952Y-7283285D01*
X1582903Y-7281067D01*
X1582076Y-7278757D01*
X1581480Y-7276377D01*
X1581120Y-7273950D01*
X1581000Y-7271500D01*
X1581000Y-7206500D01*
X1581120Y-7204049D01*
X1581480Y-7201623D01*
X1582076Y-7199243D01*
X1582903Y-7196933D01*
X1583952Y-7194715D01*
X1585213Y-7192611D01*
X1586675Y-7190640D01*
X1588322Y-7188822D01*
X1590140Y-7187175D01*
X1592111Y-7185713D01*
X1594215Y-7184452D01*
X1596433Y-7183403D01*
X1598743Y-7182576D01*
X1601123Y-7181980D01*
X1603549Y-7181620D01*
X1606000Y-7181500D01*
X1696000Y-7181500D01*
X1698450Y-7181620D01*
X1698450Y-7181620D01*
G37*
D24*
G04 #@! TD*
G04 #@! TO.P,C2,2*
G04 #@! TO.N,GND*
X1651000Y-7239000D03*
D25*
G04 #@! TO.P,C3,1*
G04 #@! TO.N,Net-(C1-Pad2)*
X1270000Y-1016000D03*
D26*
G04 #@! TO.P,C3,2*
G04 #@! TO.N,GND*
X1020000Y-1016000D03*
G04 #@! TD*
D23*
G04 #@! TO.N,Net-(Q1-Pad1)*
G04 #@! TO.C,Rm0*
G36*
X1544450Y-5327620D02*
X1546877Y-5327980D01*
X1549257Y-5328577D01*
X1551567Y-5329403D01*
X1553785Y-5330452D01*
X1555889Y-5331713D01*
X1557860Y-5333175D01*
X1559678Y-5334822D01*
X1561325Y-5336640D01*
X1562787Y-5338611D01*
X1564048Y-5340715D01*
X1565097Y-5342933D01*
X1565923Y-5345243D01*
X1566520Y-5347623D01*
X1566880Y-5350050D01*
X1567000Y-5352500D01*
X1567000Y-5442500D01*
X1566880Y-5444951D01*
X1566520Y-5447377D01*
X1565923Y-5449757D01*
X1565097Y-5452067D01*
X1564048Y-5454285D01*
X1562787Y-5456389D01*
X1561325Y-5458360D01*
X1559678Y-5460178D01*
X1557860Y-5461825D01*
X1555889Y-5463287D01*
X1553785Y-5464548D01*
X1551567Y-5465597D01*
X1549257Y-5466424D01*
X1546877Y-5467020D01*
X1544450Y-5467380D01*
X1542000Y-5467500D01*
X1477000Y-5467500D01*
X1474549Y-5467380D01*
X1472123Y-5467020D01*
X1469743Y-5466424D01*
X1467433Y-5465597D01*
X1465215Y-5464548D01*
X1463111Y-5463287D01*
X1461140Y-5461825D01*
X1459322Y-5460178D01*
X1457675Y-5458360D01*
X1456213Y-5456389D01*
X1454952Y-5454285D01*
X1453903Y-5452067D01*
X1453076Y-5449757D01*
X1452480Y-5447377D01*
X1452120Y-5444951D01*
X1452000Y-5442500D01*
X1452000Y-5352500D01*
X1452120Y-5350050D01*
X1452480Y-5347623D01*
X1453076Y-5345243D01*
X1453903Y-5342933D01*
X1454952Y-5340715D01*
X1456213Y-5338611D01*
X1457675Y-5336640D01*
X1459322Y-5334822D01*
X1461140Y-5333175D01*
X1463111Y-5331713D01*
X1465215Y-5330452D01*
X1467433Y-5329403D01*
X1469743Y-5328577D01*
X1472123Y-5327980D01*
X1474549Y-5327620D01*
X1477000Y-5327500D01*
X1542000Y-5327500D01*
X1544450Y-5327620D01*
X1544450Y-5327620D01*
G37*
D24*
G04 #@! TD*
G04 #@! TO.P,Rm0,1*
G04 #@! TO.N,Net-(Q1-Pad1)*
X1509500Y-5397500D03*
D23*
G04 #@! TO.N,PWM_LCD*
G04 #@! TO.C,Rm0*
G36*
X1749450Y-5327620D02*
X1751877Y-5327980D01*
X1754257Y-5328577D01*
X1756567Y-5329403D01*
X1758785Y-5330452D01*
X1760889Y-5331713D01*
X1762860Y-5333175D01*
X1764678Y-5334822D01*
X1766325Y-5336640D01*
X1767787Y-5338611D01*
X1769048Y-5340715D01*
X1770097Y-5342933D01*
X1770923Y-5345243D01*
X1771520Y-5347623D01*
X1771880Y-5350050D01*
X1772000Y-5352500D01*
X1772000Y-5442500D01*
X1771880Y-5444951D01*
X1771520Y-5447377D01*
X1770923Y-5449757D01*
X1770097Y-5452067D01*
X1769048Y-5454285D01*
X1767787Y-5456389D01*
X1766325Y-5458360D01*
X1764678Y-5460178D01*
X1762860Y-5461825D01*
X1760889Y-5463287D01*
X1758785Y-5464548D01*
X1756567Y-5465597D01*
X1754257Y-5466424D01*
X1751877Y-5467020D01*
X1749450Y-5467380D01*
X1747000Y-5467500D01*
X1682000Y-5467500D01*
X1679549Y-5467380D01*
X1677123Y-5467020D01*
X1674743Y-5466424D01*
X1672433Y-5465597D01*
X1670215Y-5464548D01*
X1668111Y-5463287D01*
X1666140Y-5461825D01*
X1664322Y-5460178D01*
X1662675Y-5458360D01*
X1661213Y-5456389D01*
X1659952Y-5454285D01*
X1658903Y-5452067D01*
X1658076Y-5449757D01*
X1657480Y-5447377D01*
X1657120Y-5444951D01*
X1657000Y-5442500D01*
X1657000Y-5352500D01*
X1657120Y-5350050D01*
X1657480Y-5347623D01*
X1658076Y-5345243D01*
X1658903Y-5342933D01*
X1659952Y-5340715D01*
X1661213Y-5338611D01*
X1662675Y-5336640D01*
X1664322Y-5334822D01*
X1666140Y-5333175D01*
X1668111Y-5331713D01*
X1670215Y-5330452D01*
X1672433Y-5329403D01*
X1674743Y-5328577D01*
X1677123Y-5327980D01*
X1679549Y-5327620D01*
X1682000Y-5327500D01*
X1747000Y-5327500D01*
X1749450Y-5327620D01*
X1749450Y-5327620D01*
G37*
D24*
G04 #@! TD*
G04 #@! TO.P,Rm0,2*
G04 #@! TO.N,PWM_LCD*
X1714500Y-5397500D03*
D23*
G04 #@! TO.N,GND*
G04 #@! TO.C,Rm1*
G36*
X1544450Y-5772120D02*
X1546877Y-5772480D01*
X1549257Y-5773076D01*
X1551567Y-5773903D01*
X1553785Y-5774952D01*
X1555889Y-5776213D01*
X1557860Y-5777675D01*
X1559678Y-5779322D01*
X1561325Y-5781140D01*
X1562787Y-5783111D01*
X1564048Y-5785215D01*
X1565097Y-5787433D01*
X1565923Y-5789743D01*
X1566520Y-5792123D01*
X1566880Y-5794549D01*
X1567000Y-5797000D01*
X1567000Y-5887000D01*
X1566880Y-5889450D01*
X1566520Y-5891877D01*
X1565923Y-5894257D01*
X1565097Y-5896567D01*
X1564048Y-5898785D01*
X1562787Y-5900889D01*
X1561325Y-5902860D01*
X1559678Y-5904678D01*
X1557860Y-5906325D01*
X1555889Y-5907787D01*
X1553785Y-5909048D01*
X1551567Y-5910097D01*
X1549257Y-5910923D01*
X1546877Y-5911520D01*
X1544450Y-5911880D01*
X1542000Y-5912000D01*
X1477000Y-5912000D01*
X1474549Y-5911880D01*
X1472123Y-5911520D01*
X1469743Y-5910923D01*
X1467433Y-5910097D01*
X1465215Y-5909048D01*
X1463111Y-5907787D01*
X1461140Y-5906325D01*
X1459322Y-5904678D01*
X1457675Y-5902860D01*
X1456213Y-5900889D01*
X1454952Y-5898785D01*
X1453903Y-5896567D01*
X1453076Y-5894257D01*
X1452480Y-5891877D01*
X1452120Y-5889450D01*
X1452000Y-5887000D01*
X1452000Y-5797000D01*
X1452120Y-5794549D01*
X1452480Y-5792123D01*
X1453076Y-5789743D01*
X1453903Y-5787433D01*
X1454952Y-5785215D01*
X1456213Y-5783111D01*
X1457675Y-5781140D01*
X1459322Y-5779322D01*
X1461140Y-5777675D01*
X1463111Y-5776213D01*
X1465215Y-5774952D01*
X1467433Y-5773903D01*
X1469743Y-5773076D01*
X1472123Y-5772480D01*
X1474549Y-5772120D01*
X1477000Y-5772000D01*
X1542000Y-5772000D01*
X1544450Y-5772120D01*
X1544450Y-5772120D01*
G37*
D24*
G04 #@! TD*
G04 #@! TO.P,Rm1,2*
G04 #@! TO.N,GND*
X1509500Y-5842000D03*
D23*
G04 #@! TO.N,PWM_LCD*
G04 #@! TO.C,Rm1*
G36*
X1749450Y-5772120D02*
X1751877Y-5772480D01*
X1754257Y-5773076D01*
X1756567Y-5773903D01*
X1758785Y-5774952D01*
X1760889Y-5776213D01*
X1762860Y-5777675D01*
X1764678Y-5779322D01*
X1766325Y-5781140D01*
X1767787Y-5783111D01*
X1769048Y-5785215D01*
X1770097Y-5787433D01*
X1770923Y-5789743D01*
X1771520Y-5792123D01*
X1771880Y-5794549D01*
X1772000Y-5797000D01*
X1772000Y-5887000D01*
X1771880Y-5889450D01*
X1771520Y-5891877D01*
X1770923Y-5894257D01*
X1770097Y-5896567D01*
X1769048Y-5898785D01*
X1767787Y-5900889D01*
X1766325Y-5902860D01*
X1764678Y-5904678D01*
X1762860Y-5906325D01*
X1760889Y-5907787D01*
X1758785Y-5909048D01*
X1756567Y-5910097D01*
X1754257Y-5910923D01*
X1751877Y-5911520D01*
X1749450Y-5911880D01*
X1747000Y-5912000D01*
X1682000Y-5912000D01*
X1679549Y-5911880D01*
X1677123Y-5911520D01*
X1674743Y-5910923D01*
X1672433Y-5910097D01*
X1670215Y-5909048D01*
X1668111Y-5907787D01*
X1666140Y-5906325D01*
X1664322Y-5904678D01*
X1662675Y-5902860D01*
X1661213Y-5900889D01*
X1659952Y-5898785D01*
X1658903Y-5896567D01*
X1658076Y-5894257D01*
X1657480Y-5891877D01*
X1657120Y-5889450D01*
X1657000Y-5887000D01*
X1657000Y-5797000D01*
X1657120Y-5794549D01*
X1657480Y-5792123D01*
X1658076Y-5789743D01*
X1658903Y-5787433D01*
X1659952Y-5785215D01*
X1661213Y-5783111D01*
X1662675Y-5781140D01*
X1664322Y-5779322D01*
X1666140Y-5777675D01*
X1668111Y-5776213D01*
X1670215Y-5774952D01*
X1672433Y-5773903D01*
X1674743Y-5773076D01*
X1677123Y-5772480D01*
X1679549Y-5772120D01*
X1682000Y-5772000D01*
X1747000Y-5772000D01*
X1749450Y-5772120D01*
X1749450Y-5772120D01*
G37*
D24*
G04 #@! TD*
G04 #@! TO.P,Rm1,1*
G04 #@! TO.N,PWM_LCD*
X1714500Y-5842000D03*
D23*
G04 #@! TO.N,GND*
G04 #@! TO.C,C4*
G36*
X2523951Y-3396120D02*
X2526377Y-3396480D01*
X2528757Y-3397076D01*
X2531067Y-3397903D01*
X2533285Y-3398952D01*
X2535389Y-3400213D01*
X2537360Y-3401675D01*
X2539178Y-3403322D01*
X2540825Y-3405140D01*
X2542287Y-3407111D01*
X2543548Y-3409215D01*
X2544597Y-3411433D01*
X2545424Y-3413743D01*
X2546020Y-3416123D01*
X2546380Y-3418549D01*
X2546500Y-3421000D01*
X2546500Y-3486000D01*
X2546380Y-3488450D01*
X2546020Y-3490877D01*
X2545424Y-3493257D01*
X2544597Y-3495567D01*
X2543548Y-3497785D01*
X2542287Y-3499889D01*
X2540825Y-3501860D01*
X2539178Y-3503678D01*
X2537360Y-3505325D01*
X2535389Y-3506787D01*
X2533285Y-3508048D01*
X2531067Y-3509097D01*
X2528757Y-3509923D01*
X2526377Y-3510520D01*
X2523951Y-3510880D01*
X2521500Y-3511000D01*
X2431500Y-3511000D01*
X2429050Y-3510880D01*
X2426623Y-3510520D01*
X2424243Y-3509923D01*
X2421933Y-3509097D01*
X2419715Y-3508048D01*
X2417611Y-3506787D01*
X2415640Y-3505325D01*
X2413822Y-3503678D01*
X2412175Y-3501860D01*
X2410713Y-3499889D01*
X2409452Y-3497785D01*
X2408403Y-3495567D01*
X2407577Y-3493257D01*
X2406980Y-3490877D01*
X2406620Y-3488450D01*
X2406500Y-3486000D01*
X2406500Y-3421000D01*
X2406620Y-3418549D01*
X2406980Y-3416123D01*
X2407577Y-3413743D01*
X2408403Y-3411433D01*
X2409452Y-3409215D01*
X2410713Y-3407111D01*
X2412175Y-3405140D01*
X2413822Y-3403322D01*
X2415640Y-3401675D01*
X2417611Y-3400213D01*
X2419715Y-3398952D01*
X2421933Y-3397903D01*
X2424243Y-3397076D01*
X2426623Y-3396480D01*
X2429050Y-3396120D01*
X2431500Y-3396000D01*
X2521500Y-3396000D01*
X2523951Y-3396120D01*
X2523951Y-3396120D01*
G37*
D24*
G04 #@! TD*
G04 #@! TO.P,C4,2*
G04 #@! TO.N,GND*
X2476500Y-3453500D03*
D23*
G04 #@! TO.N,+5V*
G04 #@! TO.C,C4*
G36*
X2523951Y-3601120D02*
X2526377Y-3601480D01*
X2528757Y-3602076D01*
X2531067Y-3602903D01*
X2533285Y-3603952D01*
X2535389Y-3605213D01*
X2537360Y-3606675D01*
X2539178Y-3608322D01*
X2540825Y-3610140D01*
X2542287Y-3612111D01*
X2543548Y-3614215D01*
X2544597Y-3616433D01*
X2545424Y-3618743D01*
X2546020Y-3621123D01*
X2546380Y-3623549D01*
X2546500Y-3626000D01*
X2546500Y-3691000D01*
X2546380Y-3693450D01*
X2546020Y-3695877D01*
X2545424Y-3698257D01*
X2544597Y-3700567D01*
X2543548Y-3702785D01*
X2542287Y-3704889D01*
X2540825Y-3706860D01*
X2539178Y-3708678D01*
X2537360Y-3710325D01*
X2535389Y-3711787D01*
X2533285Y-3713048D01*
X2531067Y-3714097D01*
X2528757Y-3714923D01*
X2526377Y-3715520D01*
X2523951Y-3715880D01*
X2521500Y-3716000D01*
X2431500Y-3716000D01*
X2429050Y-3715880D01*
X2426623Y-3715520D01*
X2424243Y-3714923D01*
X2421933Y-3714097D01*
X2419715Y-3713048D01*
X2417611Y-3711787D01*
X2415640Y-3710325D01*
X2413822Y-3708678D01*
X2412175Y-3706860D01*
X2410713Y-3704889D01*
X2409452Y-3702785D01*
X2408403Y-3700567D01*
X2407577Y-3698257D01*
X2406980Y-3695877D01*
X2406620Y-3693450D01*
X2406500Y-3691000D01*
X2406500Y-3626000D01*
X2406620Y-3623549D01*
X2406980Y-3621123D01*
X2407577Y-3618743D01*
X2408403Y-3616433D01*
X2409452Y-3614215D01*
X2410713Y-3612111D01*
X2412175Y-3610140D01*
X2413822Y-3608322D01*
X2415640Y-3606675D01*
X2417611Y-3605213D01*
X2419715Y-3603952D01*
X2421933Y-3602903D01*
X2424243Y-3602076D01*
X2426623Y-3601480D01*
X2429050Y-3601120D01*
X2431500Y-3601000D01*
X2521500Y-3601000D01*
X2523951Y-3601120D01*
X2523951Y-3601120D01*
G37*
D24*
G04 #@! TD*
G04 #@! TO.P,C4,1*
G04 #@! TO.N,+5V*
X2476500Y-3658500D03*
D27*
G04 #@! TO.N,GND*
X1397000Y-5207000D03*
G04 #@! TD*
D28*
G04 #@! TO.N,+5V*
X1700000Y-6985000D02*
X1651000Y-7034000D01*
X2159000Y-6985000D02*
X1700000Y-6985000D01*
X2452000Y-3683000D02*
X2476500Y-3658500D01*
X2159000Y-3683000D02*
X2452000Y-3683000D01*
D29*
G04 #@! TO.N,DAC0*
X6858000Y-1016000D02*
X6985000Y-1143000D01*
X3365500Y-698500D02*
X6718455Y-698500D01*
X3302000Y-3175000D02*
X3302000Y-762000D01*
X3302000Y-762000D02*
X3365500Y-698500D01*
X1714500Y-6731000D02*
X1612900Y-6629400D01*
X2159000Y-6731000D02*
X1714500Y-6731000D01*
X6718455Y-698500D02*
X6858000Y-838045D01*
X1612900Y-3403600D02*
X1778000Y-3238500D01*
X6858000Y-838045D02*
X6858000Y-1016000D01*
X1612900Y-6629400D02*
X1612900Y-3403600D01*
X1778000Y-3238500D02*
X3238500Y-3238500D01*
X3238500Y-3238500D02*
X3302000Y-3175000D01*
G04 #@! TO.N,E*
X3175000Y-6985000D02*
X3175000Y-6096000D01*
X3048000Y-5969000D02*
X2159000Y-5969000D01*
X3175000Y-6096000D02*
X3048000Y-5969000D01*
D28*
G04 #@! TO.N,brightness*
X1776400Y-4826000D02*
X1700200Y-4902200D01*
X1778000Y-4826000D02*
X1776400Y-4826000D01*
X2159000Y-3429000D02*
X2119000Y-3429000D01*
X1778000Y-4826000D02*
X1841500Y-4762500D01*
X1841500Y-4762500D02*
X1841500Y-3706500D01*
X2119000Y-3429000D02*
X1841500Y-3706500D01*
D29*
G04 #@! TO.N,humid_out*
X7936259Y-953741D02*
X7747000Y-1143000D01*
X3048000Y-698500D02*
X3111500Y-635000D01*
X3048000Y-1206500D02*
X3048000Y-698500D01*
X7936259Y-697259D02*
X7936259Y-953741D01*
X3175000Y-1333500D02*
X3048000Y-1206500D01*
X3111500Y-635000D02*
X7874000Y-635000D01*
X1206500Y-4381500D02*
X1397000Y-4191000D01*
X1524000Y-3111500D02*
X3111500Y-3111500D01*
X7874000Y-635000D02*
X7936259Y-697259D01*
X3111500Y-3111500D02*
X3175000Y-3048000D01*
X762000Y-4381500D02*
X1206500Y-4381500D01*
X3175000Y-3048000D02*
X3175000Y-1333500D01*
X1397000Y-4191000D02*
X1397000Y-3238500D01*
X1397000Y-3238500D02*
X1524000Y-3111500D01*
G04 #@! TO.N,rotary1*
X6096000Y-6477000D02*
X5969000Y-6604000D01*
X9144000Y-6350000D02*
X9017000Y-6477000D01*
X5969000Y-6604000D02*
X5969000Y-6985000D01*
X9017000Y-6477000D02*
X6096000Y-6477000D01*
X9144000Y-6096000D02*
X9144000Y-6350000D01*
G04 #@! TO.N,btn0*
X6477000Y-6794500D02*
X6477000Y-6985000D01*
X9334500Y-6731000D02*
X6540500Y-6731000D01*
X8644000Y-5596000D02*
X8763000Y-5715000D01*
X9461500Y-5842000D02*
X9461500Y-6604000D01*
X6540500Y-6731000D02*
X6477000Y-6794500D01*
X8644000Y-4646000D02*
X8644000Y-5596000D01*
X8763000Y-5715000D02*
X9334500Y-5715000D01*
X9334500Y-5715000D02*
X9461500Y-5842000D01*
X9461500Y-6604000D02*
X9334500Y-6731000D01*
G04 #@! TO.N,btn1*
X8890000Y-5461000D02*
X8890000Y-2609000D01*
X9017000Y-5588000D02*
X8890000Y-5461000D01*
X6858000Y-6858000D02*
X9461500Y-6858000D01*
X6731000Y-6985000D02*
X6858000Y-6858000D01*
X9461500Y-6858000D02*
X9588500Y-6731000D01*
X9588500Y-6731000D02*
X9588500Y-5715000D01*
X9588500Y-5715000D02*
X9461500Y-5588000D01*
X9461500Y-5588000D02*
X9017000Y-5588000D01*
X8890000Y-2609000D02*
X9086000Y-2413000D01*
X9086000Y-1904421D02*
X9086000Y-2413000D01*
X9086000Y-1763000D02*
X9086000Y-1904421D01*
G04 #@! TO.N,rotary0*
X6223000Y-6731000D02*
X6223000Y-6985000D01*
X6350000Y-6604000D02*
X6223000Y-6731000D01*
X9207500Y-6604000D02*
X6350000Y-6604000D01*
X8644000Y-6096000D02*
X8644000Y-5965520D01*
X8644000Y-5965520D02*
X8704020Y-5905500D01*
X9334500Y-6477000D02*
X9207500Y-6604000D01*
X8704020Y-5905500D02*
X9271000Y-5905500D01*
X9271000Y-5905500D02*
X9334500Y-5969000D01*
X9334500Y-5969000D02*
X9334500Y-6477000D01*
G04 #@! TO.N,RS*
X2857500Y-6477000D02*
X2159000Y-6477000D01*
X2984500Y-6604000D02*
X2857500Y-6477000D01*
X3175000Y-7239000D02*
X2984500Y-7048500D01*
X2984500Y-7048500D02*
X2984500Y-6604000D01*
G04 #@! TO.N,d0*
X3175000Y-5715000D02*
X2159000Y-5715000D01*
X3302000Y-5842000D02*
X3175000Y-5715000D01*
X3429000Y-7239000D02*
X3302000Y-7112000D01*
X3302000Y-7112000D02*
X3302000Y-5842000D01*
G04 #@! TO.N,d4*
X4572000Y-4699000D02*
X2159000Y-4699000D01*
X4699000Y-6985000D02*
X4699000Y-4826000D01*
X4699000Y-4826000D02*
X4572000Y-4699000D01*
G04 #@! TO.N,d5*
X4953000Y-4572000D02*
X4953000Y-6985000D01*
X2159000Y-4445000D02*
X4826000Y-4445000D01*
X4826000Y-4445000D02*
X4953000Y-4572000D01*
G04 #@! TO.N,d6*
X4953000Y-7239000D02*
X5080000Y-7112000D01*
X4953000Y-4191000D02*
X2159000Y-4191000D01*
X5080000Y-4318000D02*
X4953000Y-4191000D01*
X5080000Y-7112000D02*
X5080000Y-4318000D01*
G04 #@! TO.N,d7*
X5207000Y-6972500D02*
X5207000Y-4064000D01*
X5080000Y-3937000D02*
X2159000Y-3937000D01*
X5207000Y-4064000D02*
X5080000Y-3937000D01*
G04 #@! TO.N,temp_out*
X762000Y-4127500D02*
X1143000Y-4127500D01*
X1143000Y-4127500D02*
X1333500Y-3937000D01*
X1333500Y-3937000D02*
X1333500Y-3175000D01*
X1333500Y-3175000D02*
X1460500Y-3048000D01*
X1460500Y-3048000D02*
X3048000Y-3048000D01*
X3048000Y-3048000D02*
X3111500Y-2984500D01*
X3111500Y-2984500D02*
X3111500Y-1397000D01*
X3111500Y-1397000D02*
X2984500Y-1270000D01*
X2984500Y-1270000D02*
X2984500Y-635000D01*
X2984500Y-635000D02*
X3048000Y-571500D01*
X3048000Y-571500D02*
X7937500Y-571500D01*
X7937500Y-571500D02*
X8001000Y-635000D01*
X8001000Y-635000D02*
X8001000Y-1206500D01*
X8001000Y-1206500D02*
X7937500Y-1270000D01*
X7620000Y-1270000D02*
X7493000Y-1143000D01*
X7937500Y-1270000D02*
X7620000Y-1270000D01*
G04 #@! TO.N,d1*
X3683000Y-6985000D02*
X3683000Y-5588000D01*
X3556000Y-5461000D02*
X2159000Y-5461000D01*
X3683000Y-5588000D02*
X3556000Y-5461000D01*
G04 #@! TO.N,d2*
X3683000Y-5207000D02*
X2159000Y-5207000D01*
X3810000Y-5334000D02*
X3683000Y-5207000D01*
X3683000Y-7239000D02*
X3810000Y-7112000D01*
X3810000Y-7112000D02*
X3810000Y-5334000D01*
G04 #@! TO.N,d3*
X4445000Y-5080000D02*
X4318000Y-4953000D01*
X4318000Y-4953000D02*
X2159000Y-4953000D01*
X4445000Y-6985000D02*
X4445000Y-5080000D01*
D28*
G04 #@! TO.N,Net-(C1-Pad2)*
X1397000Y-1143000D02*
X1270000Y-1016000D01*
X1397000Y-2349500D02*
X1397000Y-1143000D01*
D29*
G04 #@! TO.N,PWM_sensor*
X5835240Y-1009240D02*
X5800000Y-974000D01*
X2667000Y-2984500D02*
X2794000Y-2857500D01*
X1397000Y-2984500D02*
X2667000Y-2984500D01*
X762000Y-3873500D02*
X952500Y-3873500D01*
X6279740Y-1009240D02*
X5835240Y-1009240D01*
X2921000Y-444500D02*
X8001000Y-444500D01*
X1079500Y-3302000D02*
X1397000Y-2984500D01*
X1079500Y-3746500D02*
X1079500Y-3302000D01*
X8001000Y-444500D02*
X8128000Y-571500D01*
X5800000Y-974000D02*
X5715000Y-889000D01*
X952500Y-3873500D02*
X1079500Y-3746500D01*
X2794000Y-571500D02*
X2921000Y-444500D01*
X2794000Y-2857500D02*
X2794000Y-571500D01*
X6343240Y-1263240D02*
X6343240Y-1072740D01*
X6343240Y-1072740D02*
X6279740Y-1009240D01*
X8128000Y-571500D02*
X8128000Y-1270000D01*
X8128000Y-1270000D02*
X8001000Y-1397000D01*
X8001000Y-1397000D02*
X6477000Y-1397000D01*
X6477000Y-1397000D02*
X6343240Y-1263240D01*
G04 #@! TO.N,Sensor_enable*
X1333500Y-4635500D02*
X1460500Y-4508500D01*
X1460500Y-4508500D02*
X1460500Y-3302000D01*
X3238500Y-3111500D02*
X3238500Y-1206500D01*
X762000Y-4635500D02*
X1333500Y-4635500D01*
X1460500Y-3302000D02*
X1587500Y-3175000D01*
X1587500Y-3175000D02*
X3175000Y-3175000D01*
X3175000Y-3175000D02*
X3238500Y-3111500D01*
X3175000Y-1143000D02*
X3238500Y-1206500D01*
G04 #@! TO.N,PWM_LCD*
X1905000Y-5588000D02*
X1714500Y-5397500D01*
X3302000Y-5588000D02*
X1905000Y-5588000D01*
X3429000Y-6985000D02*
X3429000Y-5715000D01*
X3429000Y-5715000D02*
X3302000Y-5588000D01*
X1714500Y-5397500D02*
X1714500Y-5842000D01*
G04 #@! TO.N,Net-(Q1-Pad1)*
X1415800Y-4807200D02*
X1500200Y-4807200D01*
X1288800Y-4807200D02*
X1415800Y-4807200D01*
X1206500Y-4889500D02*
X1288800Y-4807200D01*
X1509500Y-5397500D02*
X1270000Y-5397500D01*
X1206500Y-5334000D02*
X1206500Y-4889500D01*
X1270000Y-5397500D02*
X1206500Y-5334000D01*
G04 #@! TD*
D30*
G04 #@! TO.N,GND*
G36*
X1534160Y-4703393D02*
X1455200Y-4703393D01*
X1442752Y-4704619D01*
X1430782Y-4708250D01*
X1419751Y-4714146D01*
X1410081Y-4722082D01*
X1404847Y-4728460D01*
X1292667Y-4728460D01*
X1288800Y-4728079D01*
X1284934Y-4728460D01*
X1284933Y-4728460D01*
X1273364Y-4729599D01*
X1258522Y-4734102D01*
X1244843Y-4741413D01*
X1238747Y-4746417D01*
X1232853Y-4751253D01*
X1230388Y-4754257D01*
X1153557Y-4831088D01*
X1150553Y-4833553D01*
X1142034Y-4843934D01*
X1140714Y-4845543D01*
X1133402Y-4859222D01*
X1128900Y-4874064D01*
X1127379Y-4889500D01*
X1127760Y-4893367D01*
X1127760Y-5330134D01*
X1127379Y-5334000D01*
X1127760Y-5337866D01*
X1127760Y-5337867D01*
X1128899Y-5349436D01*
X1133402Y-5364278D01*
X1140713Y-5377957D01*
X1150553Y-5389947D01*
X1153558Y-5392413D01*
X1211588Y-5450443D01*
X1214053Y-5453447D01*
X1217057Y-5455912D01*
X1217057Y-5455912D01*
X1226043Y-5463287D01*
X1239722Y-5470598D01*
X1254564Y-5475101D01*
X1266133Y-5476240D01*
X1266134Y-5476240D01*
X1270000Y-5476621D01*
X1273867Y-5476240D01*
X1394879Y-5476240D01*
X1394953Y-5476485D01*
X1403159Y-5491839D01*
X1414204Y-5505296D01*
X1427661Y-5516341D01*
X1443015Y-5524547D01*
X1459674Y-5529601D01*
X1477000Y-5531307D01*
X1534160Y-5531307D01*
X1534160Y-5713015D01*
X1522200Y-5724975D01*
X1522200Y-5829300D01*
X1524200Y-5829300D01*
X1524200Y-5854700D01*
X1522200Y-5854700D01*
X1522200Y-5959025D01*
X1534160Y-5970985D01*
X1534160Y-6625534D01*
X1533779Y-6629400D01*
X1534160Y-6633266D01*
X1534160Y-6633267D01*
X1535299Y-6644836D01*
X1539802Y-6659678D01*
X1547113Y-6673357D01*
X1556953Y-6685347D01*
X1559958Y-6687813D01*
X1656088Y-6783943D01*
X1658553Y-6786947D01*
X1661557Y-6789412D01*
X1670543Y-6796787D01*
X1680396Y-6802053D01*
X1684222Y-6804098D01*
X1699064Y-6808601D01*
X1710633Y-6809740D01*
X1710634Y-6809740D01*
X1714500Y-6810121D01*
X1718366Y-6809740D01*
X1987036Y-6809740D01*
X1990752Y-6816693D01*
X2009934Y-6840066D01*
X2031786Y-6858000D01*
X2009934Y-6875934D01*
X1997553Y-6891020D01*
X1704616Y-6891020D01*
X1700000Y-6890565D01*
X1695383Y-6891020D01*
X1695383Y-6891020D01*
X1681577Y-6892380D01*
X1663861Y-6897754D01*
X1647535Y-6906480D01*
X1639965Y-6912693D01*
X1606000Y-6912693D01*
X1588674Y-6914399D01*
X1572015Y-6919453D01*
X1556661Y-6927659D01*
X1543204Y-6938704D01*
X1532159Y-6952161D01*
X1523953Y-6967515D01*
X1518899Y-6984174D01*
X1517193Y-7001500D01*
X1517193Y-7066500D01*
X1518899Y-7083825D01*
X1523953Y-7100485D01*
X1532159Y-7115839D01*
X1543204Y-7129296D01*
X1544580Y-7130426D01*
X1541031Y-7132798D01*
X1532298Y-7141531D01*
X1525436Y-7151800D01*
X1520709Y-7163211D01*
X1518300Y-7175325D01*
X1518300Y-7210625D01*
X1533975Y-7226300D01*
X1638300Y-7226300D01*
X1638300Y-7224300D01*
X1663700Y-7224300D01*
X1663700Y-7226300D01*
X1768025Y-7226300D01*
X1783700Y-7210625D01*
X1783700Y-7175325D01*
X1781290Y-7163211D01*
X1776564Y-7151800D01*
X1769702Y-7141531D01*
X1760969Y-7132798D01*
X1757419Y-7130426D01*
X1758796Y-7129296D01*
X1769840Y-7115839D01*
X1778047Y-7100485D01*
X1783101Y-7083825D01*
X1783578Y-7078980D01*
X1997553Y-7078980D01*
X2006850Y-7090309D01*
X1999300Y-7093436D01*
X1989031Y-7100298D01*
X1980298Y-7109031D01*
X1973436Y-7119300D01*
X1968709Y-7130711D01*
X1966300Y-7142825D01*
X1966300Y-7210625D01*
X1981975Y-7226300D01*
X2146300Y-7226300D01*
X2146300Y-7224300D01*
X2171700Y-7224300D01*
X2171700Y-7226300D01*
X2336025Y-7226300D01*
X2351700Y-7210625D01*
X2351700Y-7142825D01*
X2349291Y-7130711D01*
X2344564Y-7119300D01*
X2337702Y-7109031D01*
X2328969Y-7100298D01*
X2318700Y-7093436D01*
X2311150Y-7090309D01*
X2327248Y-7070693D01*
X2341502Y-7044026D01*
X2350279Y-7015091D01*
X2353243Y-6985000D01*
X2350279Y-6954909D01*
X2341502Y-6925974D01*
X2327248Y-6899307D01*
X2308066Y-6875934D01*
X2286214Y-6858000D01*
X2308066Y-6840066D01*
X2327248Y-6816693D01*
X2341502Y-6790026D01*
X2350279Y-6761091D01*
X2353243Y-6731000D01*
X2350279Y-6700909D01*
X2341502Y-6671974D01*
X2327248Y-6645307D01*
X2308066Y-6621934D01*
X2286214Y-6604000D01*
X2308066Y-6586066D01*
X2327248Y-6562693D01*
X2330964Y-6555740D01*
X2824885Y-6555740D01*
X2905760Y-6636615D01*
X2905760Y-7044634D01*
X2905379Y-7048500D01*
X2905760Y-7052366D01*
X2905760Y-7052367D01*
X2906899Y-7063936D01*
X2911402Y-7078778D01*
X2918713Y-7092457D01*
X2928553Y-7104447D01*
X2931558Y-7106913D01*
X3030236Y-7205591D01*
X3026500Y-7224374D01*
X3026500Y-7253626D01*
X3032207Y-7282316D01*
X3043401Y-7309341D01*
X3059652Y-7333663D01*
X3080337Y-7354347D01*
X3104659Y-7370599D01*
X3131684Y-7381793D01*
X3160374Y-7387500D01*
X3189626Y-7387500D01*
X3218316Y-7381793D01*
X3245341Y-7370599D01*
X3269663Y-7354347D01*
X3290347Y-7333663D01*
X3302000Y-7316224D01*
X3313652Y-7333663D01*
X3334337Y-7354347D01*
X3358659Y-7370599D01*
X3385684Y-7381793D01*
X3414374Y-7387500D01*
X3443626Y-7387500D01*
X3472316Y-7381793D01*
X3499341Y-7370599D01*
X3523663Y-7354347D01*
X3544347Y-7333663D01*
X3556000Y-7316224D01*
X3567652Y-7333663D01*
X3588337Y-7354347D01*
X3612659Y-7370599D01*
X3639684Y-7381793D01*
X3668374Y-7387500D01*
X3697626Y-7387500D01*
X3726316Y-7381793D01*
X3753341Y-7370599D01*
X3777663Y-7354347D01*
X3798347Y-7333663D01*
X3810000Y-7316224D01*
X3821652Y-7333663D01*
X3842337Y-7354347D01*
X3866659Y-7370599D01*
X3893684Y-7381793D01*
X3922374Y-7387500D01*
X3951626Y-7387500D01*
X3980316Y-7381793D01*
X4007341Y-7370599D01*
X4031663Y-7354347D01*
X4052347Y-7333663D01*
X4064000Y-7316224D01*
X4075652Y-7333663D01*
X4096337Y-7354347D01*
X4120659Y-7370599D01*
X4147684Y-7381793D01*
X4176374Y-7387500D01*
X4205626Y-7387500D01*
X4234316Y-7381793D01*
X4261341Y-7370599D01*
X4285663Y-7354347D01*
X4306348Y-7333663D01*
X4318000Y-7316224D01*
X4329653Y-7333663D01*
X4350337Y-7354347D01*
X4374659Y-7370599D01*
X4401684Y-7381793D01*
X4430374Y-7387500D01*
X4459626Y-7387500D01*
X4488316Y-7381793D01*
X4515341Y-7370599D01*
X4539663Y-7354347D01*
X4560348Y-7333663D01*
X4572000Y-7316224D01*
X4583653Y-7333663D01*
X4604337Y-7354347D01*
X4628659Y-7370599D01*
X4655684Y-7381793D01*
X4684374Y-7387500D01*
X4713626Y-7387500D01*
X4742316Y-7381793D01*
X4769341Y-7370599D01*
X4793663Y-7354347D01*
X4814348Y-7333663D01*
X4826000Y-7316224D01*
X4837653Y-7333663D01*
X4858337Y-7354347D01*
X4882659Y-7370599D01*
X4909684Y-7381793D01*
X4938374Y-7387500D01*
X4967626Y-7387500D01*
X4996316Y-7381793D01*
X5023341Y-7370599D01*
X5047663Y-7354347D01*
X5068348Y-7333663D01*
X5080000Y-7316224D01*
X5091653Y-7333663D01*
X5112337Y-7354347D01*
X5136659Y-7370599D01*
X5163684Y-7381793D01*
X5192374Y-7387500D01*
X5221626Y-7387500D01*
X5250316Y-7381793D01*
X5277341Y-7370599D01*
X5301663Y-7354347D01*
X5314600Y-7341411D01*
X5376550Y-7341411D01*
X5384359Y-7366094D01*
X5410626Y-7378604D01*
X5438829Y-7385749D01*
X5467885Y-7387255D01*
X5496676Y-7383063D01*
X5524096Y-7373335D01*
X5537642Y-7366094D01*
X5545450Y-7341411D01*
X5461000Y-7256960D01*
X5376550Y-7341411D01*
X5314600Y-7341411D01*
X5322348Y-7333663D01*
X5334305Y-7315768D01*
X5358589Y-7323450D01*
X5443040Y-7239000D01*
X5358589Y-7154550D01*
X5334305Y-7162232D01*
X5322348Y-7144337D01*
X5301663Y-7123652D01*
X5284224Y-7112000D01*
X5301663Y-7100347D01*
X5322348Y-7079663D01*
X5334000Y-7062224D01*
X5345653Y-7079663D01*
X5366337Y-7100347D01*
X5384232Y-7112305D01*
X5376550Y-7136589D01*
X5461000Y-7221039D01*
X5545450Y-7136589D01*
X5537768Y-7112305D01*
X5555663Y-7100347D01*
X5576348Y-7079663D01*
X5588000Y-7062224D01*
X5599652Y-7079663D01*
X5620337Y-7100347D01*
X5637776Y-7112000D01*
X5620337Y-7123652D01*
X5599652Y-7144337D01*
X5587695Y-7162232D01*
X5563411Y-7154550D01*
X5478961Y-7239000D01*
X5563411Y-7323450D01*
X5587695Y-7315768D01*
X5599652Y-7333663D01*
X5620337Y-7354347D01*
X5644659Y-7370599D01*
X5671684Y-7381793D01*
X5700374Y-7387500D01*
X5729626Y-7387500D01*
X5758316Y-7381793D01*
X5785341Y-7370599D01*
X5809663Y-7354347D01*
X5830347Y-7333663D01*
X5842000Y-7316224D01*
X5853652Y-7333663D01*
X5874337Y-7354347D01*
X5898659Y-7370599D01*
X5925684Y-7381793D01*
X5954374Y-7387500D01*
X5983626Y-7387500D01*
X6012316Y-7381793D01*
X6039341Y-7370599D01*
X6063663Y-7354347D01*
X6084347Y-7333663D01*
X6096000Y-7316224D01*
X6107652Y-7333663D01*
X6128337Y-7354347D01*
X6152659Y-7370599D01*
X6179684Y-7381793D01*
X6208374Y-7387500D01*
X6237626Y-7387500D01*
X6266316Y-7381793D01*
X6293341Y-7370599D01*
X6317663Y-7354347D01*
X6338347Y-7333663D01*
X6350000Y-7316224D01*
X6361652Y-7333663D01*
X6382337Y-7354347D01*
X6406659Y-7370599D01*
X6433684Y-7381793D01*
X6462374Y-7387500D01*
X6491626Y-7387500D01*
X6520316Y-7381793D01*
X6547341Y-7370599D01*
X6571663Y-7354347D01*
X6592347Y-7333663D01*
X6604000Y-7316224D01*
X6615652Y-7333663D01*
X6636337Y-7354347D01*
X6660659Y-7370599D01*
X6687684Y-7381793D01*
X6716374Y-7387500D01*
X6745626Y-7387500D01*
X6774316Y-7381793D01*
X6801341Y-7370599D01*
X6825663Y-7354347D01*
X6838600Y-7341411D01*
X6900550Y-7341411D01*
X6908358Y-7366094D01*
X6934626Y-7378604D01*
X6962829Y-7385749D01*
X6991885Y-7387255D01*
X7020676Y-7383063D01*
X7048095Y-7373335D01*
X7061641Y-7366094D01*
X7069450Y-7341411D01*
X6985000Y-7256960D01*
X6900550Y-7341411D01*
X6838600Y-7341411D01*
X6846347Y-7333663D01*
X6858305Y-7315768D01*
X6882589Y-7323450D01*
X6967039Y-7239000D01*
X6882589Y-7154550D01*
X6858305Y-7162232D01*
X6846347Y-7144337D01*
X6825663Y-7123652D01*
X6808224Y-7112000D01*
X6825663Y-7100347D01*
X6846347Y-7079663D01*
X6858000Y-7062224D01*
X6869652Y-7079663D01*
X6890337Y-7100347D01*
X6908232Y-7112305D01*
X6900550Y-7136589D01*
X6985000Y-7221039D01*
X7069450Y-7136589D01*
X7061768Y-7112305D01*
X7079663Y-7100347D01*
X7100347Y-7079663D01*
X7112000Y-7062224D01*
X7123652Y-7079663D01*
X7144337Y-7100347D01*
X7161776Y-7112000D01*
X7144337Y-7123652D01*
X7123652Y-7144337D01*
X7111695Y-7162232D01*
X7087411Y-7154550D01*
X7002960Y-7239000D01*
X7087411Y-7323450D01*
X7111695Y-7315768D01*
X7123652Y-7333663D01*
X7144337Y-7354347D01*
X7168659Y-7370599D01*
X7195684Y-7381793D01*
X7224374Y-7387500D01*
X7253626Y-7387500D01*
X7282316Y-7381793D01*
X7309341Y-7370599D01*
X7333663Y-7354347D01*
X7354347Y-7333663D01*
X7366000Y-7316224D01*
X7377652Y-7333663D01*
X7398337Y-7354347D01*
X7422659Y-7370599D01*
X7449684Y-7381793D01*
X7478374Y-7387500D01*
X7507626Y-7387500D01*
X7536316Y-7381793D01*
X7563341Y-7370599D01*
X7587663Y-7354347D01*
X7608347Y-7333663D01*
X7620000Y-7316224D01*
X7631652Y-7333663D01*
X7652337Y-7354347D01*
X7676659Y-7370599D01*
X7703684Y-7381793D01*
X7732374Y-7387500D01*
X7761626Y-7387500D01*
X7790316Y-7381793D01*
X7817341Y-7370599D01*
X7841663Y-7354347D01*
X7862347Y-7333663D01*
X7878599Y-7309341D01*
X7889793Y-7282316D01*
X7895500Y-7253626D01*
X7895500Y-7224374D01*
X7889793Y-7195684D01*
X7878599Y-7168659D01*
X7862347Y-7144337D01*
X7841663Y-7123652D01*
X7824224Y-7112000D01*
X7841663Y-7100347D01*
X7862347Y-7079663D01*
X7878599Y-7055341D01*
X7889793Y-7028316D01*
X7895500Y-6999626D01*
X7895500Y-6970374D01*
X7889793Y-6941684D01*
X7887745Y-6936740D01*
X9457634Y-6936740D01*
X9461500Y-6937121D01*
X9465366Y-6936740D01*
X9465367Y-6936740D01*
X9476936Y-6935601D01*
X9491778Y-6931098D01*
X9505457Y-6923787D01*
X9517447Y-6913947D01*
X9519913Y-6910942D01*
X9622500Y-6808355D01*
X9622500Y-7188300D01*
X9558353Y-7188300D01*
X9478620Y-7204160D01*
X9403513Y-7235270D01*
X9335919Y-7280435D01*
X9278435Y-7337919D01*
X9233270Y-7405513D01*
X9202160Y-7480620D01*
X9186300Y-7560353D01*
X9186300Y-7641647D01*
X9202160Y-7721380D01*
X9233270Y-7796487D01*
X9278435Y-7864081D01*
X9335919Y-7921565D01*
X9348543Y-7930000D01*
X6565357Y-7930000D01*
X6565357Y-7570500D01*
X825500Y-7570500D01*
X825500Y-7930000D01*
X649457Y-7930000D01*
X662081Y-7921565D01*
X719565Y-7864081D01*
X764730Y-7796487D01*
X795840Y-7721380D01*
X811700Y-7641647D01*
X811700Y-7560353D01*
X795840Y-7480620D01*
X764730Y-7405513D01*
X719565Y-7337919D01*
X662081Y-7280435D01*
X642535Y-7267375D01*
X1518300Y-7267375D01*
X1518300Y-7302675D01*
X1520709Y-7314789D01*
X1525436Y-7326200D01*
X1532298Y-7336469D01*
X1541031Y-7345202D01*
X1551300Y-7352064D01*
X1562711Y-7356790D01*
X1574825Y-7359200D01*
X1622625Y-7359200D01*
X1638300Y-7343525D01*
X1638300Y-7251700D01*
X1663700Y-7251700D01*
X1663700Y-7343525D01*
X1679375Y-7359200D01*
X1727175Y-7359200D01*
X1739289Y-7356790D01*
X1750700Y-7352064D01*
X1760969Y-7345202D01*
X1769702Y-7336469D01*
X1776564Y-7326200D01*
X1781290Y-7314789D01*
X1783700Y-7302675D01*
X1783700Y-7267375D01*
X1966300Y-7267375D01*
X1966300Y-7335175D01*
X1968709Y-7347289D01*
X1973436Y-7358700D01*
X1980298Y-7368969D01*
X1989031Y-7377702D01*
X1999300Y-7384564D01*
X2010711Y-7389290D01*
X2022825Y-7391700D01*
X2130625Y-7391700D01*
X2146300Y-7376025D01*
X2146300Y-7251700D01*
X2171700Y-7251700D01*
X2171700Y-7376025D01*
X2187375Y-7391700D01*
X2295175Y-7391700D01*
X2307289Y-7389290D01*
X2318700Y-7384564D01*
X2328969Y-7377702D01*
X2337702Y-7368969D01*
X2344564Y-7358700D01*
X2349291Y-7347289D01*
X2351700Y-7335175D01*
X2351700Y-7267375D01*
X2336025Y-7251700D01*
X2171700Y-7251700D01*
X2146300Y-7251700D01*
X1981975Y-7251700D01*
X1966300Y-7267375D01*
X1783700Y-7267375D01*
X1768025Y-7251700D01*
X1663700Y-7251700D01*
X1638300Y-7251700D01*
X1533975Y-7251700D01*
X1518300Y-7267375D01*
X642535Y-7267375D01*
X594487Y-7235270D01*
X519380Y-7204160D01*
X439647Y-7188300D01*
X358353Y-7188300D01*
X278620Y-7204160D01*
X203513Y-7235270D01*
X135919Y-7280435D01*
X78435Y-7337919D01*
X70000Y-7350543D01*
X70000Y-5870375D01*
X1389300Y-5870375D01*
X1389300Y-5918175D01*
X1391710Y-5930289D01*
X1396436Y-5941700D01*
X1403298Y-5951969D01*
X1412031Y-5960702D01*
X1422300Y-5967564D01*
X1433711Y-5972290D01*
X1445825Y-5974700D01*
X1481125Y-5974700D01*
X1496800Y-5959025D01*
X1496800Y-5854700D01*
X1404975Y-5854700D01*
X1389300Y-5870375D01*
X70000Y-5870375D01*
X70000Y-5765825D01*
X1389300Y-5765825D01*
X1389300Y-5813625D01*
X1404975Y-5829300D01*
X1496800Y-5829300D01*
X1496800Y-5724975D01*
X1481125Y-5709300D01*
X1445825Y-5709300D01*
X1433711Y-5711709D01*
X1422300Y-5716436D01*
X1412031Y-5723298D01*
X1403298Y-5732031D01*
X1396436Y-5742300D01*
X1391710Y-5753711D01*
X1389300Y-5765825D01*
X70000Y-5765825D01*
X70000Y-4831000D01*
X710500Y-4831000D01*
X710500Y-4775060D01*
X732889Y-4781851D01*
X754705Y-4784000D01*
X769295Y-4784000D01*
X791111Y-4781851D01*
X819103Y-4773360D01*
X844901Y-4759571D01*
X867513Y-4741013D01*
X886071Y-4718401D01*
X888295Y-4714240D01*
X1329634Y-4714240D01*
X1333500Y-4714621D01*
X1337366Y-4714240D01*
X1337367Y-4714240D01*
X1348936Y-4713101D01*
X1363778Y-4708598D01*
X1377457Y-4701287D01*
X1389447Y-4691447D01*
X1391913Y-4688442D01*
X1513443Y-4566912D01*
X1516447Y-4564447D01*
X1526287Y-4552457D01*
X1533598Y-4538778D01*
X1534160Y-4536926D01*
X1534160Y-4703393D01*
X1534160Y-4703393D01*
G37*
X1534160Y-4703393D02*
X1455200Y-4703393D01*
X1442752Y-4704619D01*
X1430782Y-4708250D01*
X1419751Y-4714146D01*
X1410081Y-4722082D01*
X1404847Y-4728460D01*
X1292667Y-4728460D01*
X1288800Y-4728079D01*
X1284934Y-4728460D01*
X1284933Y-4728460D01*
X1273364Y-4729599D01*
X1258522Y-4734102D01*
X1244843Y-4741413D01*
X1238747Y-4746417D01*
X1232853Y-4751253D01*
X1230388Y-4754257D01*
X1153557Y-4831088D01*
X1150553Y-4833553D01*
X1142034Y-4843934D01*
X1140714Y-4845543D01*
X1133402Y-4859222D01*
X1128900Y-4874064D01*
X1127379Y-4889500D01*
X1127760Y-4893367D01*
X1127760Y-5330134D01*
X1127379Y-5334000D01*
X1127760Y-5337866D01*
X1127760Y-5337867D01*
X1128899Y-5349436D01*
X1133402Y-5364278D01*
X1140713Y-5377957D01*
X1150553Y-5389947D01*
X1153558Y-5392413D01*
X1211588Y-5450443D01*
X1214053Y-5453447D01*
X1217057Y-5455912D01*
X1217057Y-5455912D01*
X1226043Y-5463287D01*
X1239722Y-5470598D01*
X1254564Y-5475101D01*
X1266133Y-5476240D01*
X1266134Y-5476240D01*
X1270000Y-5476621D01*
X1273867Y-5476240D01*
X1394879Y-5476240D01*
X1394953Y-5476485D01*
X1403159Y-5491839D01*
X1414204Y-5505296D01*
X1427661Y-5516341D01*
X1443015Y-5524547D01*
X1459674Y-5529601D01*
X1477000Y-5531307D01*
X1534160Y-5531307D01*
X1534160Y-5713015D01*
X1522200Y-5724975D01*
X1522200Y-5829300D01*
X1524200Y-5829300D01*
X1524200Y-5854700D01*
X1522200Y-5854700D01*
X1522200Y-5959025D01*
X1534160Y-5970985D01*
X1534160Y-6625534D01*
X1533779Y-6629400D01*
X1534160Y-6633266D01*
X1534160Y-6633267D01*
X1535299Y-6644836D01*
X1539802Y-6659678D01*
X1547113Y-6673357D01*
X1556953Y-6685347D01*
X1559958Y-6687813D01*
X1656088Y-6783943D01*
X1658553Y-6786947D01*
X1661557Y-6789412D01*
X1670543Y-6796787D01*
X1680396Y-6802053D01*
X1684222Y-6804098D01*
X1699064Y-6808601D01*
X1710633Y-6809740D01*
X1710634Y-6809740D01*
X1714500Y-6810121D01*
X1718366Y-6809740D01*
X1987036Y-6809740D01*
X1990752Y-6816693D01*
X2009934Y-6840066D01*
X2031786Y-6858000D01*
X2009934Y-6875934D01*
X1997553Y-6891020D01*
X1704616Y-6891020D01*
X1700000Y-6890565D01*
X1695383Y-6891020D01*
X1695383Y-6891020D01*
X1681577Y-6892380D01*
X1663861Y-6897754D01*
X1647535Y-6906480D01*
X1639965Y-6912693D01*
X1606000Y-6912693D01*
X1588674Y-6914399D01*
X1572015Y-6919453D01*
X1556661Y-6927659D01*
X1543204Y-6938704D01*
X1532159Y-6952161D01*
X1523953Y-6967515D01*
X1518899Y-6984174D01*
X1517193Y-7001500D01*
X1517193Y-7066500D01*
X1518899Y-7083825D01*
X1523953Y-7100485D01*
X1532159Y-7115839D01*
X1543204Y-7129296D01*
X1544580Y-7130426D01*
X1541031Y-7132798D01*
X1532298Y-7141531D01*
X1525436Y-7151800D01*
X1520709Y-7163211D01*
X1518300Y-7175325D01*
X1518300Y-7210625D01*
X1533975Y-7226300D01*
X1638300Y-7226300D01*
X1638300Y-7224300D01*
X1663700Y-7224300D01*
X1663700Y-7226300D01*
X1768025Y-7226300D01*
X1783700Y-7210625D01*
X1783700Y-7175325D01*
X1781290Y-7163211D01*
X1776564Y-7151800D01*
X1769702Y-7141531D01*
X1760969Y-7132798D01*
X1757419Y-7130426D01*
X1758796Y-7129296D01*
X1769840Y-7115839D01*
X1778047Y-7100485D01*
X1783101Y-7083825D01*
X1783578Y-7078980D01*
X1997553Y-7078980D01*
X2006850Y-7090309D01*
X1999300Y-7093436D01*
X1989031Y-7100298D01*
X1980298Y-7109031D01*
X1973436Y-7119300D01*
X1968709Y-7130711D01*
X1966300Y-7142825D01*
X1966300Y-7210625D01*
X1981975Y-7226300D01*
X2146300Y-7226300D01*
X2146300Y-7224300D01*
X2171700Y-7224300D01*
X2171700Y-7226300D01*
X2336025Y-7226300D01*
X2351700Y-7210625D01*
X2351700Y-7142825D01*
X2349291Y-7130711D01*
X2344564Y-7119300D01*
X2337702Y-7109031D01*
X2328969Y-7100298D01*
X2318700Y-7093436D01*
X2311150Y-7090309D01*
X2327248Y-7070693D01*
X2341502Y-7044026D01*
X2350279Y-7015091D01*
X2353243Y-6985000D01*
X2350279Y-6954909D01*
X2341502Y-6925974D01*
X2327248Y-6899307D01*
X2308066Y-6875934D01*
X2286214Y-6858000D01*
X2308066Y-6840066D01*
X2327248Y-6816693D01*
X2341502Y-6790026D01*
X2350279Y-6761091D01*
X2353243Y-6731000D01*
X2350279Y-6700909D01*
X2341502Y-6671974D01*
X2327248Y-6645307D01*
X2308066Y-6621934D01*
X2286214Y-6604000D01*
X2308066Y-6586066D01*
X2327248Y-6562693D01*
X2330964Y-6555740D01*
X2824885Y-6555740D01*
X2905760Y-6636615D01*
X2905760Y-7044634D01*
X2905379Y-7048500D01*
X2905760Y-7052366D01*
X2905760Y-7052367D01*
X2906899Y-7063936D01*
X2911402Y-7078778D01*
X2918713Y-7092457D01*
X2928553Y-7104447D01*
X2931558Y-7106913D01*
X3030236Y-7205591D01*
X3026500Y-7224374D01*
X3026500Y-7253626D01*
X3032207Y-7282316D01*
X3043401Y-7309341D01*
X3059652Y-7333663D01*
X3080337Y-7354347D01*
X3104659Y-7370599D01*
X3131684Y-7381793D01*
X3160374Y-7387500D01*
X3189626Y-7387500D01*
X3218316Y-7381793D01*
X3245341Y-7370599D01*
X3269663Y-7354347D01*
X3290347Y-7333663D01*
X3302000Y-7316224D01*
X3313652Y-7333663D01*
X3334337Y-7354347D01*
X3358659Y-7370599D01*
X3385684Y-7381793D01*
X3414374Y-7387500D01*
X3443626Y-7387500D01*
X3472316Y-7381793D01*
X3499341Y-7370599D01*
X3523663Y-7354347D01*
X3544347Y-7333663D01*
X3556000Y-7316224D01*
X3567652Y-7333663D01*
X3588337Y-7354347D01*
X3612659Y-7370599D01*
X3639684Y-7381793D01*
X3668374Y-7387500D01*
X3697626Y-7387500D01*
X3726316Y-7381793D01*
X3753341Y-7370599D01*
X3777663Y-7354347D01*
X3798347Y-7333663D01*
X3810000Y-7316224D01*
X3821652Y-7333663D01*
X3842337Y-7354347D01*
X3866659Y-7370599D01*
X3893684Y-7381793D01*
X3922374Y-7387500D01*
X3951626Y-7387500D01*
X3980316Y-7381793D01*
X4007341Y-7370599D01*
X4031663Y-7354347D01*
X4052347Y-7333663D01*
X4064000Y-7316224D01*
X4075652Y-7333663D01*
X4096337Y-7354347D01*
X4120659Y-7370599D01*
X4147684Y-7381793D01*
X4176374Y-7387500D01*
X4205626Y-7387500D01*
X4234316Y-7381793D01*
X4261341Y-7370599D01*
X4285663Y-7354347D01*
X4306348Y-7333663D01*
X4318000Y-7316224D01*
X4329653Y-7333663D01*
X4350337Y-7354347D01*
X4374659Y-7370599D01*
X4401684Y-7381793D01*
X4430374Y-7387500D01*
X4459626Y-7387500D01*
X4488316Y-7381793D01*
X4515341Y-7370599D01*
X4539663Y-7354347D01*
X4560348Y-7333663D01*
X4572000Y-7316224D01*
X4583653Y-7333663D01*
X4604337Y-7354347D01*
X4628659Y-7370599D01*
X4655684Y-7381793D01*
X4684374Y-7387500D01*
X4713626Y-7387500D01*
X4742316Y-7381793D01*
X4769341Y-7370599D01*
X4793663Y-7354347D01*
X4814348Y-7333663D01*
X4826000Y-7316224D01*
X4837653Y-7333663D01*
X4858337Y-7354347D01*
X4882659Y-7370599D01*
X4909684Y-7381793D01*
X4938374Y-7387500D01*
X4967626Y-7387500D01*
X4996316Y-7381793D01*
X5023341Y-7370599D01*
X5047663Y-7354347D01*
X5068348Y-7333663D01*
X5080000Y-7316224D01*
X5091653Y-7333663D01*
X5112337Y-7354347D01*
X5136659Y-7370599D01*
X5163684Y-7381793D01*
X5192374Y-7387500D01*
X5221626Y-7387500D01*
X5250316Y-7381793D01*
X5277341Y-7370599D01*
X5301663Y-7354347D01*
X5314600Y-7341411D01*
X5376550Y-7341411D01*
X5384359Y-7366094D01*
X5410626Y-7378604D01*
X5438829Y-7385749D01*
X5467885Y-7387255D01*
X5496676Y-7383063D01*
X5524096Y-7373335D01*
X5537642Y-7366094D01*
X5545450Y-7341411D01*
X5461000Y-7256960D01*
X5376550Y-7341411D01*
X5314600Y-7341411D01*
X5322348Y-7333663D01*
X5334305Y-7315768D01*
X5358589Y-7323450D01*
X5443040Y-7239000D01*
X5358589Y-7154550D01*
X5334305Y-7162232D01*
X5322348Y-7144337D01*
X5301663Y-7123652D01*
X5284224Y-7112000D01*
X5301663Y-7100347D01*
X5322348Y-7079663D01*
X5334000Y-7062224D01*
X5345653Y-7079663D01*
X5366337Y-7100347D01*
X5384232Y-7112305D01*
X5376550Y-7136589D01*
X5461000Y-7221039D01*
X5545450Y-7136589D01*
X5537768Y-7112305D01*
X5555663Y-7100347D01*
X5576348Y-7079663D01*
X5588000Y-7062224D01*
X5599652Y-7079663D01*
X5620337Y-7100347D01*
X5637776Y-7112000D01*
X5620337Y-7123652D01*
X5599652Y-7144337D01*
X5587695Y-7162232D01*
X5563411Y-7154550D01*
X5478961Y-7239000D01*
X5563411Y-7323450D01*
X5587695Y-7315768D01*
X5599652Y-7333663D01*
X5620337Y-7354347D01*
X5644659Y-7370599D01*
X5671684Y-7381793D01*
X5700374Y-7387500D01*
X5729626Y-7387500D01*
X5758316Y-7381793D01*
X5785341Y-7370599D01*
X5809663Y-7354347D01*
X5830347Y-7333663D01*
X5842000Y-7316224D01*
X5853652Y-7333663D01*
X5874337Y-7354347D01*
X5898659Y-7370599D01*
X5925684Y-7381793D01*
X5954374Y-7387500D01*
X5983626Y-7387500D01*
X6012316Y-7381793D01*
X6039341Y-7370599D01*
X6063663Y-7354347D01*
X6084347Y-7333663D01*
X6096000Y-7316224D01*
X6107652Y-7333663D01*
X6128337Y-7354347D01*
X6152659Y-7370599D01*
X6179684Y-7381793D01*
X6208374Y-7387500D01*
X6237626Y-7387500D01*
X6266316Y-7381793D01*
X6293341Y-7370599D01*
X6317663Y-7354347D01*
X6338347Y-7333663D01*
X6350000Y-7316224D01*
X6361652Y-7333663D01*
X6382337Y-7354347D01*
X6406659Y-7370599D01*
X6433684Y-7381793D01*
X6462374Y-7387500D01*
X6491626Y-7387500D01*
X6520316Y-7381793D01*
X6547341Y-7370599D01*
X6571663Y-7354347D01*
X6592347Y-7333663D01*
X6604000Y-7316224D01*
X6615652Y-7333663D01*
X6636337Y-7354347D01*
X6660659Y-7370599D01*
X6687684Y-7381793D01*
X6716374Y-7387500D01*
X6745626Y-7387500D01*
X6774316Y-7381793D01*
X6801341Y-7370599D01*
X6825663Y-7354347D01*
X6838600Y-7341411D01*
X6900550Y-7341411D01*
X6908358Y-7366094D01*
X6934626Y-7378604D01*
X6962829Y-7385749D01*
X6991885Y-7387255D01*
X7020676Y-7383063D01*
X7048095Y-7373335D01*
X7061641Y-7366094D01*
X7069450Y-7341411D01*
X6985000Y-7256960D01*
X6900550Y-7341411D01*
X6838600Y-7341411D01*
X6846347Y-7333663D01*
X6858305Y-7315768D01*
X6882589Y-7323450D01*
X6967039Y-7239000D01*
X6882589Y-7154550D01*
X6858305Y-7162232D01*
X6846347Y-7144337D01*
X6825663Y-7123652D01*
X6808224Y-7112000D01*
X6825663Y-7100347D01*
X6846347Y-7079663D01*
X6858000Y-7062224D01*
X6869652Y-7079663D01*
X6890337Y-7100347D01*
X6908232Y-7112305D01*
X6900550Y-7136589D01*
X6985000Y-7221039D01*
X7069450Y-7136589D01*
X7061768Y-7112305D01*
X7079663Y-7100347D01*
X7100347Y-7079663D01*
X7112000Y-7062224D01*
X7123652Y-7079663D01*
X7144337Y-7100347D01*
X7161776Y-7112000D01*
X7144337Y-7123652D01*
X7123652Y-7144337D01*
X7111695Y-7162232D01*
X7087411Y-7154550D01*
X7002960Y-7239000D01*
X7087411Y-7323450D01*
X7111695Y-7315768D01*
X7123652Y-7333663D01*
X7144337Y-7354347D01*
X7168659Y-7370599D01*
X7195684Y-7381793D01*
X7224374Y-7387500D01*
X7253626Y-7387500D01*
X7282316Y-7381793D01*
X7309341Y-7370599D01*
X7333663Y-7354347D01*
X7354347Y-7333663D01*
X7366000Y-7316224D01*
X7377652Y-7333663D01*
X7398337Y-7354347D01*
X7422659Y-7370599D01*
X7449684Y-7381793D01*
X7478374Y-7387500D01*
X7507626Y-7387500D01*
X7536316Y-7381793D01*
X7563341Y-7370599D01*
X7587663Y-7354347D01*
X7608347Y-7333663D01*
X7620000Y-7316224D01*
X7631652Y-7333663D01*
X7652337Y-7354347D01*
X7676659Y-7370599D01*
X7703684Y-7381793D01*
X7732374Y-7387500D01*
X7761626Y-7387500D01*
X7790316Y-7381793D01*
X7817341Y-7370599D01*
X7841663Y-7354347D01*
X7862347Y-7333663D01*
X7878599Y-7309341D01*
X7889793Y-7282316D01*
X7895500Y-7253626D01*
X7895500Y-7224374D01*
X7889793Y-7195684D01*
X7878599Y-7168659D01*
X7862347Y-7144337D01*
X7841663Y-7123652D01*
X7824224Y-7112000D01*
X7841663Y-7100347D01*
X7862347Y-7079663D01*
X7878599Y-7055341D01*
X7889793Y-7028316D01*
X7895500Y-6999626D01*
X7895500Y-6970374D01*
X7889793Y-6941684D01*
X7887745Y-6936740D01*
X9457634Y-6936740D01*
X9461500Y-6937121D01*
X9465366Y-6936740D01*
X9465367Y-6936740D01*
X9476936Y-6935601D01*
X9491778Y-6931098D01*
X9505457Y-6923787D01*
X9517447Y-6913947D01*
X9519913Y-6910942D01*
X9622500Y-6808355D01*
X9622500Y-7188300D01*
X9558353Y-7188300D01*
X9478620Y-7204160D01*
X9403513Y-7235270D01*
X9335919Y-7280435D01*
X9278435Y-7337919D01*
X9233270Y-7405513D01*
X9202160Y-7480620D01*
X9186300Y-7560353D01*
X9186300Y-7641647D01*
X9202160Y-7721380D01*
X9233270Y-7796487D01*
X9278435Y-7864081D01*
X9335919Y-7921565D01*
X9348543Y-7930000D01*
X6565357Y-7930000D01*
X6565357Y-7570500D01*
X825500Y-7570500D01*
X825500Y-7930000D01*
X649457Y-7930000D01*
X662081Y-7921565D01*
X719565Y-7864081D01*
X764730Y-7796487D01*
X795840Y-7721380D01*
X811700Y-7641647D01*
X811700Y-7560353D01*
X795840Y-7480620D01*
X764730Y-7405513D01*
X719565Y-7337919D01*
X662081Y-7280435D01*
X642535Y-7267375D01*
X1518300Y-7267375D01*
X1518300Y-7302675D01*
X1520709Y-7314789D01*
X1525436Y-7326200D01*
X1532298Y-7336469D01*
X1541031Y-7345202D01*
X1551300Y-7352064D01*
X1562711Y-7356790D01*
X1574825Y-7359200D01*
X1622625Y-7359200D01*
X1638300Y-7343525D01*
X1638300Y-7251700D01*
X1663700Y-7251700D01*
X1663700Y-7343525D01*
X1679375Y-7359200D01*
X1727175Y-7359200D01*
X1739289Y-7356790D01*
X1750700Y-7352064D01*
X1760969Y-7345202D01*
X1769702Y-7336469D01*
X1776564Y-7326200D01*
X1781290Y-7314789D01*
X1783700Y-7302675D01*
X1783700Y-7267375D01*
X1966300Y-7267375D01*
X1966300Y-7335175D01*
X1968709Y-7347289D01*
X1973436Y-7358700D01*
X1980298Y-7368969D01*
X1989031Y-7377702D01*
X1999300Y-7384564D01*
X2010711Y-7389290D01*
X2022825Y-7391700D01*
X2130625Y-7391700D01*
X2146300Y-7376025D01*
X2146300Y-7251700D01*
X2171700Y-7251700D01*
X2171700Y-7376025D01*
X2187375Y-7391700D01*
X2295175Y-7391700D01*
X2307289Y-7389290D01*
X2318700Y-7384564D01*
X2328969Y-7377702D01*
X2337702Y-7368969D01*
X2344564Y-7358700D01*
X2349291Y-7347289D01*
X2351700Y-7335175D01*
X2351700Y-7267375D01*
X2336025Y-7251700D01*
X2171700Y-7251700D01*
X2146300Y-7251700D01*
X1981975Y-7251700D01*
X1966300Y-7267375D01*
X1783700Y-7267375D01*
X1768025Y-7251700D01*
X1663700Y-7251700D01*
X1638300Y-7251700D01*
X1533975Y-7251700D01*
X1518300Y-7267375D01*
X642535Y-7267375D01*
X594487Y-7235270D01*
X519380Y-7204160D01*
X439647Y-7188300D01*
X358353Y-7188300D01*
X278620Y-7204160D01*
X203513Y-7235270D01*
X135919Y-7280435D01*
X78435Y-7337919D01*
X70000Y-7350543D01*
X70000Y-5870375D01*
X1389300Y-5870375D01*
X1389300Y-5918175D01*
X1391710Y-5930289D01*
X1396436Y-5941700D01*
X1403298Y-5951969D01*
X1412031Y-5960702D01*
X1422300Y-5967564D01*
X1433711Y-5972290D01*
X1445825Y-5974700D01*
X1481125Y-5974700D01*
X1496800Y-5959025D01*
X1496800Y-5854700D01*
X1404975Y-5854700D01*
X1389300Y-5870375D01*
X70000Y-5870375D01*
X70000Y-5765825D01*
X1389300Y-5765825D01*
X1389300Y-5813625D01*
X1404975Y-5829300D01*
X1496800Y-5829300D01*
X1496800Y-5724975D01*
X1481125Y-5709300D01*
X1445825Y-5709300D01*
X1433711Y-5711709D01*
X1422300Y-5716436D01*
X1412031Y-5723298D01*
X1403298Y-5732031D01*
X1396436Y-5742300D01*
X1391710Y-5753711D01*
X1389300Y-5765825D01*
X70000Y-5765825D01*
X70000Y-4831000D01*
X710500Y-4831000D01*
X710500Y-4775060D01*
X732889Y-4781851D01*
X754705Y-4784000D01*
X769295Y-4784000D01*
X791111Y-4781851D01*
X819103Y-4773360D01*
X844901Y-4759571D01*
X867513Y-4741013D01*
X886071Y-4718401D01*
X888295Y-4714240D01*
X1329634Y-4714240D01*
X1333500Y-4714621D01*
X1337366Y-4714240D01*
X1337367Y-4714240D01*
X1348936Y-4713101D01*
X1363778Y-4708598D01*
X1377457Y-4701287D01*
X1389447Y-4691447D01*
X1391913Y-4688442D01*
X1513443Y-4566912D01*
X1516447Y-4564447D01*
X1526287Y-4552457D01*
X1533598Y-4538778D01*
X1534160Y-4536926D01*
X1534160Y-4703393D01*
G36*
X4366260Y-5112615D02*
X4366260Y-6859013D01*
X4350337Y-6869652D01*
X4329653Y-6890337D01*
X4317695Y-6908232D01*
X4293411Y-6900550D01*
X4208961Y-6985000D01*
X4293411Y-7069450D01*
X4317695Y-7061768D01*
X4329653Y-7079663D01*
X4350337Y-7100347D01*
X4367776Y-7112000D01*
X4350337Y-7123652D01*
X4329653Y-7144337D01*
X4318000Y-7161776D01*
X4306348Y-7144337D01*
X4285663Y-7123652D01*
X4267768Y-7111695D01*
X4275450Y-7087411D01*
X4191000Y-7002960D01*
X4106550Y-7087411D01*
X4114232Y-7111695D01*
X4096337Y-7123652D01*
X4075652Y-7144337D01*
X4064000Y-7161776D01*
X4052347Y-7144337D01*
X4031663Y-7123652D01*
X4014224Y-7112000D01*
X4031663Y-7100347D01*
X4052347Y-7079663D01*
X4064305Y-7061768D01*
X4088589Y-7069450D01*
X4173039Y-6985000D01*
X4088589Y-6900550D01*
X4064305Y-6908232D01*
X4052347Y-6890337D01*
X4044600Y-6882589D01*
X4106550Y-6882589D01*
X4191000Y-6967039D01*
X4275450Y-6882589D01*
X4267642Y-6857905D01*
X4241374Y-6845396D01*
X4213171Y-6838250D01*
X4184115Y-6836745D01*
X4155324Y-6840937D01*
X4127904Y-6850665D01*
X4114358Y-6857905D01*
X4106550Y-6882589D01*
X4044600Y-6882589D01*
X4031663Y-6869652D01*
X4007341Y-6853401D01*
X3980316Y-6842207D01*
X3951626Y-6836500D01*
X3922374Y-6836500D01*
X3893684Y-6842207D01*
X3888740Y-6844255D01*
X3888740Y-5337866D01*
X3889121Y-5334000D01*
X3888740Y-5330134D01*
X3888740Y-5330133D01*
X3887601Y-5318564D01*
X3883098Y-5303722D01*
X3875787Y-5290043D01*
X3865947Y-5278053D01*
X3862943Y-5275588D01*
X3741413Y-5154058D01*
X3738947Y-5151053D01*
X3726957Y-5141213D01*
X3713278Y-5133902D01*
X3698436Y-5129399D01*
X3686867Y-5128260D01*
X3686866Y-5128260D01*
X3683000Y-5127879D01*
X3679134Y-5128260D01*
X2330964Y-5128260D01*
X2327248Y-5121307D01*
X2308066Y-5097934D01*
X2286214Y-5080000D01*
X2308066Y-5062066D01*
X2327248Y-5038693D01*
X2330964Y-5031740D01*
X4285385Y-5031740D01*
X4366260Y-5112615D01*
X4366260Y-5112615D01*
G37*
X4366260Y-5112615D02*
X4366260Y-6859013D01*
X4350337Y-6869652D01*
X4329653Y-6890337D01*
X4317695Y-6908232D01*
X4293411Y-6900550D01*
X4208961Y-6985000D01*
X4293411Y-7069450D01*
X4317695Y-7061768D01*
X4329653Y-7079663D01*
X4350337Y-7100347D01*
X4367776Y-7112000D01*
X4350337Y-7123652D01*
X4329653Y-7144337D01*
X4318000Y-7161776D01*
X4306348Y-7144337D01*
X4285663Y-7123652D01*
X4267768Y-7111695D01*
X4275450Y-7087411D01*
X4191000Y-7002960D01*
X4106550Y-7087411D01*
X4114232Y-7111695D01*
X4096337Y-7123652D01*
X4075652Y-7144337D01*
X4064000Y-7161776D01*
X4052347Y-7144337D01*
X4031663Y-7123652D01*
X4014224Y-7112000D01*
X4031663Y-7100347D01*
X4052347Y-7079663D01*
X4064305Y-7061768D01*
X4088589Y-7069450D01*
X4173039Y-6985000D01*
X4088589Y-6900550D01*
X4064305Y-6908232D01*
X4052347Y-6890337D01*
X4044600Y-6882589D01*
X4106550Y-6882589D01*
X4191000Y-6967039D01*
X4275450Y-6882589D01*
X4267642Y-6857905D01*
X4241374Y-6845396D01*
X4213171Y-6838250D01*
X4184115Y-6836745D01*
X4155324Y-6840937D01*
X4127904Y-6850665D01*
X4114358Y-6857905D01*
X4106550Y-6882589D01*
X4044600Y-6882589D01*
X4031663Y-6869652D01*
X4007341Y-6853401D01*
X3980316Y-6842207D01*
X3951626Y-6836500D01*
X3922374Y-6836500D01*
X3893684Y-6842207D01*
X3888740Y-6844255D01*
X3888740Y-5337866D01*
X3889121Y-5334000D01*
X3888740Y-5330134D01*
X3888740Y-5330133D01*
X3887601Y-5318564D01*
X3883098Y-5303722D01*
X3875787Y-5290043D01*
X3865947Y-5278053D01*
X3862943Y-5275588D01*
X3741413Y-5154058D01*
X3738947Y-5151053D01*
X3726957Y-5141213D01*
X3713278Y-5133902D01*
X3698436Y-5129399D01*
X3686867Y-5128260D01*
X3686866Y-5128260D01*
X3683000Y-5127879D01*
X3679134Y-5128260D01*
X2330964Y-5128260D01*
X2327248Y-5121307D01*
X2308066Y-5097934D01*
X2286214Y-5080000D01*
X2308066Y-5062066D01*
X2327248Y-5038693D01*
X2330964Y-5031740D01*
X4285385Y-5031740D01*
X4366260Y-5112615D01*
G36*
X9335919Y-80435D02*
X9278435Y-137919D01*
X9233270Y-205513D01*
X9202160Y-280620D01*
X9186300Y-360353D01*
X9186300Y-441647D01*
X9202160Y-521380D01*
X9233270Y-596487D01*
X9278435Y-664081D01*
X9335919Y-721565D01*
X9403513Y-766730D01*
X9478620Y-797840D01*
X9558353Y-813700D01*
X9639647Y-813700D01*
X9719380Y-797840D01*
X9794487Y-766730D01*
X9862081Y-721565D01*
X9919565Y-664081D01*
X9928000Y-651457D01*
X9928000Y-5296071D01*
X9651555Y-5296071D01*
X9649680Y-5286641D01*
X9634339Y-5249607D01*
X9612069Y-5216276D01*
X9583724Y-5187931D01*
X9550393Y-5165661D01*
X9513359Y-5150320D01*
X9474043Y-5142500D01*
X9433957Y-5142500D01*
X9394641Y-5150320D01*
X9357607Y-5165661D01*
X9324276Y-5187931D01*
X9295931Y-5216276D01*
X9273661Y-5249607D01*
X9258320Y-5286641D01*
X9250500Y-5325957D01*
X9250500Y-5366043D01*
X9258320Y-5405359D01*
X9273661Y-5442393D01*
X9295931Y-5475724D01*
X9324276Y-5504069D01*
X9332046Y-5509260D01*
X9049615Y-5509260D01*
X8968740Y-5428385D01*
X8968740Y-4759113D01*
X9048848Y-4759113D01*
X9058470Y-4785329D01*
X9087295Y-4799338D01*
X9118299Y-4807455D01*
X9150291Y-4809366D01*
X9182041Y-4805000D01*
X9212330Y-4794523D01*
X9229531Y-4785329D01*
X9239152Y-4759113D01*
X9144000Y-4663961D01*
X9048848Y-4759113D01*
X8968740Y-4759113D01*
X8968740Y-4652291D01*
X8980634Y-4652291D01*
X8985000Y-4684041D01*
X8995477Y-4714330D01*
X9004671Y-4731531D01*
X9030887Y-4741152D01*
X9126040Y-4646000D01*
X9161961Y-4646000D01*
X9257113Y-4741152D01*
X9283329Y-4731531D01*
X9297338Y-4702705D01*
X9305455Y-4671701D01*
X9307366Y-4639709D01*
X9303000Y-4607959D01*
X9292523Y-4577670D01*
X9283329Y-4560470D01*
X9257113Y-4550848D01*
X9161961Y-4646000D01*
X9126040Y-4646000D01*
X9030887Y-4550848D01*
X9004671Y-4560470D01*
X8990662Y-4589295D01*
X8982546Y-4620299D01*
X8980634Y-4652291D01*
X8968740Y-4652291D01*
X8968740Y-4532887D01*
X9048848Y-4532887D01*
X9144000Y-4628040D01*
X9239152Y-4532887D01*
X9229531Y-4506671D01*
X9200705Y-4492662D01*
X9169701Y-4484546D01*
X9137709Y-4482634D01*
X9105959Y-4487000D01*
X9075670Y-4497477D01*
X9058470Y-4506671D01*
X9048848Y-4532887D01*
X8968740Y-4532887D01*
X8968740Y-2641615D01*
X9039835Y-2570520D01*
X9069897Y-2576500D01*
X9102103Y-2576500D01*
X9133691Y-2570217D01*
X9163446Y-2557892D01*
X9190225Y-2539999D01*
X9212999Y-2517225D01*
X9230892Y-2490446D01*
X9243217Y-2460691D01*
X9249500Y-2429103D01*
X9249500Y-2396897D01*
X9243217Y-2365309D01*
X9230892Y-2335554D01*
X9212999Y-2308775D01*
X9190225Y-2286001D01*
X9164740Y-2268973D01*
X9164740Y-1907027D01*
X9190225Y-1889999D01*
X9212999Y-1867225D01*
X9230892Y-1840446D01*
X9243217Y-1810691D01*
X9249500Y-1779103D01*
X9249500Y-1746897D01*
X9243217Y-1715309D01*
X9230892Y-1685554D01*
X9212999Y-1658775D01*
X9190225Y-1636001D01*
X9163446Y-1618108D01*
X9133691Y-1605783D01*
X9102103Y-1599500D01*
X9069897Y-1599500D01*
X9038309Y-1605783D01*
X9008554Y-1618108D01*
X8981775Y-1636001D01*
X8959001Y-1658775D01*
X8941108Y-1685554D01*
X8928783Y-1715309D01*
X8922500Y-1746897D01*
X8922500Y-1779103D01*
X8928783Y-1810691D01*
X8941108Y-1840446D01*
X8959001Y-1867225D01*
X8981775Y-1889999D01*
X9007260Y-1907027D01*
X9007260Y-2268973D01*
X8981775Y-2286001D01*
X8959001Y-2308775D01*
X8941108Y-2335554D01*
X8928783Y-2365309D01*
X8922500Y-2396897D01*
X8922500Y-2429103D01*
X8928480Y-2459165D01*
X8837057Y-2550588D01*
X8834053Y-2553053D01*
X8831588Y-2556057D01*
X8824214Y-2565043D01*
X8816902Y-2578722D01*
X8812400Y-2593564D01*
X8810879Y-2609000D01*
X8811260Y-2612867D01*
X8811260Y-5457134D01*
X8810879Y-5461000D01*
X8811260Y-5464866D01*
X8811260Y-5464867D01*
X8812399Y-5476436D01*
X8816902Y-5491278D01*
X8824213Y-5504957D01*
X8834053Y-5516947D01*
X8837058Y-5519413D01*
X8953905Y-5636260D01*
X8795615Y-5636260D01*
X8722740Y-5563385D01*
X8722740Y-4790027D01*
X8748225Y-4772999D01*
X8770999Y-4750225D01*
X8788892Y-4723446D01*
X8801217Y-4693691D01*
X8807500Y-4662103D01*
X8807500Y-4629897D01*
X8801217Y-4598309D01*
X8788892Y-4568554D01*
X8770999Y-4541775D01*
X8748225Y-4519001D01*
X8721446Y-4501108D01*
X8691691Y-4488783D01*
X8660103Y-4482500D01*
X8627897Y-4482500D01*
X8596309Y-4488783D01*
X8566554Y-4501108D01*
X8539775Y-4519001D01*
X8517001Y-4541775D01*
X8499108Y-4568554D01*
X8486783Y-4598309D01*
X8480500Y-4629897D01*
X8480500Y-4662103D01*
X8486783Y-4693691D01*
X8499108Y-4723446D01*
X8517001Y-4750225D01*
X8539775Y-4772999D01*
X8565260Y-4790027D01*
X8565260Y-5592133D01*
X8564879Y-5596000D01*
X8566400Y-5611436D01*
X8570902Y-5626278D01*
X8576034Y-5635879D01*
X8578214Y-5639957D01*
X8588053Y-5651947D01*
X8591057Y-5654412D01*
X8704588Y-5767943D01*
X8707053Y-5770947D01*
X8710057Y-5773412D01*
X8710057Y-5773412D01*
X8710805Y-5774026D01*
X8719043Y-5780787D01*
X8732722Y-5788098D01*
X8747564Y-5792601D01*
X8759133Y-5793740D01*
X8759134Y-5793740D01*
X8763000Y-5794121D01*
X8766866Y-5793740D01*
X9301885Y-5793740D01*
X9382760Y-5874615D01*
X9382760Y-5905905D01*
X9329413Y-5852558D01*
X9326947Y-5849553D01*
X9314957Y-5839713D01*
X9301278Y-5832402D01*
X9286436Y-5827899D01*
X9274867Y-5826760D01*
X9274866Y-5826760D01*
X9271000Y-5826379D01*
X9267134Y-5826760D01*
X8707886Y-5826760D01*
X8704020Y-5826379D01*
X8700154Y-5826760D01*
X8700153Y-5826760D01*
X8688584Y-5827899D01*
X8673742Y-5832402D01*
X8660063Y-5839713D01*
X8653967Y-5844716D01*
X8648073Y-5849553D01*
X8645608Y-5852557D01*
X8591057Y-5907108D01*
X8588053Y-5909573D01*
X8583519Y-5915098D01*
X8578214Y-5921563D01*
X8572532Y-5932193D01*
X8544000Y-5932193D01*
X8531552Y-5933419D01*
X8519582Y-5937050D01*
X8508551Y-5942946D01*
X8498882Y-5950881D01*
X8490946Y-5960551D01*
X8485050Y-5971582D01*
X8481419Y-5983552D01*
X8480193Y-5996000D01*
X8480193Y-6196000D01*
X8481419Y-6208448D01*
X8485050Y-6220418D01*
X8490946Y-6231449D01*
X8498882Y-6241118D01*
X8508551Y-6249054D01*
X8519582Y-6254950D01*
X8531552Y-6258581D01*
X8544000Y-6259807D01*
X8744000Y-6259807D01*
X8756448Y-6258581D01*
X8768418Y-6254950D01*
X8779449Y-6249054D01*
X8789119Y-6241118D01*
X8797054Y-6231449D01*
X8802950Y-6220418D01*
X8802971Y-6220348D01*
X8808470Y-6235329D01*
X8837295Y-6249338D01*
X8868299Y-6257454D01*
X8900291Y-6259366D01*
X8932041Y-6255000D01*
X8962330Y-6244523D01*
X8979531Y-6235329D01*
X8989152Y-6209113D01*
X8894000Y-6113960D01*
X8892586Y-6115375D01*
X8874625Y-6097414D01*
X8876040Y-6096000D01*
X8874625Y-6094586D01*
X8892586Y-6076625D01*
X8894000Y-6078039D01*
X8895414Y-6076625D01*
X8913375Y-6094586D01*
X8911961Y-6096000D01*
X9007113Y-6191152D01*
X9010185Y-6190024D01*
X9017001Y-6200225D01*
X9039775Y-6222999D01*
X9065260Y-6240027D01*
X9065260Y-6317385D01*
X8984385Y-6398260D01*
X6099866Y-6398260D01*
X6096000Y-6397879D01*
X6092134Y-6398260D01*
X6092133Y-6398260D01*
X6080564Y-6399399D01*
X6065722Y-6403902D01*
X6052043Y-6411213D01*
X6052043Y-6411213D01*
X6052043Y-6411213D01*
X6043057Y-6418588D01*
X6043057Y-6418588D01*
X6040053Y-6421053D01*
X6037588Y-6424057D01*
X5916058Y-6545587D01*
X5913053Y-6548053D01*
X5903213Y-6560043D01*
X5895902Y-6573722D01*
X5891399Y-6588564D01*
X5890260Y-6600133D01*
X5890260Y-6600134D01*
X5889879Y-6604000D01*
X5890260Y-6607866D01*
X5890260Y-6859013D01*
X5874337Y-6869652D01*
X5853652Y-6890337D01*
X5842000Y-6907776D01*
X5830347Y-6890337D01*
X5809663Y-6869652D01*
X5785341Y-6853401D01*
X5758316Y-6842207D01*
X5729626Y-6836500D01*
X5700374Y-6836500D01*
X5671684Y-6842207D01*
X5644659Y-6853401D01*
X5620337Y-6869652D01*
X5599652Y-6890337D01*
X5588000Y-6907776D01*
X5576348Y-6890337D01*
X5555663Y-6869652D01*
X5531341Y-6853401D01*
X5504316Y-6842207D01*
X5475626Y-6836500D01*
X5446374Y-6836500D01*
X5417684Y-6842207D01*
X5390659Y-6853401D01*
X5366337Y-6869652D01*
X5345653Y-6890337D01*
X5334000Y-6907776D01*
X5322348Y-6890337D01*
X5301663Y-6869652D01*
X5285740Y-6859013D01*
X5285740Y-5325957D01*
X8130500Y-5325957D01*
X8130500Y-5366043D01*
X8138320Y-5405359D01*
X8153661Y-5442393D01*
X8175931Y-5475724D01*
X8204276Y-5504069D01*
X8237607Y-5526339D01*
X8274641Y-5541680D01*
X8313957Y-5549500D01*
X8354043Y-5549500D01*
X8393359Y-5541680D01*
X8430393Y-5526339D01*
X8463724Y-5504069D01*
X8492069Y-5475724D01*
X8514339Y-5442393D01*
X8529680Y-5405359D01*
X8537500Y-5366043D01*
X8537500Y-5325957D01*
X8529680Y-5286641D01*
X8514339Y-5249607D01*
X8492069Y-5216276D01*
X8463724Y-5187931D01*
X8430393Y-5165661D01*
X8393359Y-5150320D01*
X8354043Y-5142500D01*
X8313957Y-5142500D01*
X8274641Y-5150320D01*
X8237607Y-5165661D01*
X8204276Y-5187931D01*
X8175931Y-5216276D01*
X8153661Y-5249607D01*
X8138320Y-5286641D01*
X8130500Y-5325957D01*
X5285740Y-5325957D01*
X5285740Y-4067866D01*
X5286121Y-4064000D01*
X5285740Y-4060134D01*
X5285740Y-4060133D01*
X5284601Y-4048564D01*
X5280098Y-4033722D01*
X5272787Y-4020043D01*
X5268320Y-4014601D01*
X5265412Y-4011057D01*
X5265412Y-4011057D01*
X5262947Y-4008053D01*
X5259943Y-4005588D01*
X5138413Y-3884058D01*
X5135947Y-3881053D01*
X5123957Y-3871213D01*
X5110278Y-3863902D01*
X5095436Y-3859399D01*
X5083867Y-3858260D01*
X5083866Y-3858260D01*
X5080000Y-3857879D01*
X5076134Y-3858260D01*
X2330964Y-3858260D01*
X2327248Y-3851307D01*
X2308066Y-3827934D01*
X2286214Y-3810000D01*
X2308066Y-3792066D01*
X2320447Y-3776980D01*
X2410480Y-3776980D01*
X2414175Y-3778101D01*
X2431500Y-3779807D01*
X2521500Y-3779807D01*
X2538826Y-3778101D01*
X2555485Y-3773047D01*
X2570839Y-3764840D01*
X2584296Y-3753796D01*
X2595341Y-3740339D01*
X2603547Y-3724985D01*
X2608601Y-3708325D01*
X2610307Y-3691000D01*
X2610307Y-3626000D01*
X2608601Y-3608674D01*
X2603547Y-3592015D01*
X2595341Y-3576661D01*
X2584296Y-3563204D01*
X2582920Y-3562074D01*
X2586469Y-3559702D01*
X2595202Y-3550969D01*
X2602064Y-3540700D01*
X2606791Y-3529289D01*
X2609200Y-3517175D01*
X2609200Y-3481875D01*
X2593525Y-3466200D01*
X2489200Y-3466200D01*
X2489200Y-3468200D01*
X2463800Y-3468200D01*
X2463800Y-3466200D01*
X2461800Y-3466200D01*
X2461800Y-3440800D01*
X2463800Y-3440800D01*
X2463800Y-3348975D01*
X2489200Y-3348975D01*
X2489200Y-3440800D01*
X2593525Y-3440800D01*
X2609200Y-3425125D01*
X2609200Y-3389825D01*
X2606791Y-3377711D01*
X2602064Y-3366300D01*
X2595202Y-3356031D01*
X2586469Y-3347298D01*
X2576200Y-3340436D01*
X2564789Y-3335709D01*
X2552675Y-3333300D01*
X2504875Y-3333300D01*
X2489200Y-3348975D01*
X2463800Y-3348975D01*
X2448125Y-3333300D01*
X2400325Y-3333300D01*
X2388211Y-3335709D01*
X2376800Y-3340436D01*
X2366531Y-3347298D01*
X2357798Y-3356031D01*
X2350936Y-3366300D01*
X2346210Y-3377711D01*
X2345275Y-3382411D01*
X2341502Y-3369974D01*
X2327248Y-3343307D01*
X2308066Y-3319934D01*
X2304784Y-3317240D01*
X3234634Y-3317240D01*
X3238500Y-3317621D01*
X3242366Y-3317240D01*
X3242367Y-3317240D01*
X3253936Y-3316101D01*
X3268778Y-3311598D01*
X3282457Y-3304287D01*
X3294447Y-3294447D01*
X3296913Y-3291442D01*
X3354943Y-3233412D01*
X3357947Y-3230947D01*
X3360412Y-3227943D01*
X3360412Y-3227943D01*
X3367787Y-3218957D01*
X3375098Y-3205278D01*
X3379601Y-3190436D01*
X3380175Y-3184598D01*
X3380740Y-3178867D01*
X3380740Y-3178866D01*
X3381121Y-3175000D01*
X3380740Y-3171133D01*
X3380740Y-2526113D01*
X8540848Y-2526113D01*
X8550470Y-2552329D01*
X8579295Y-2566338D01*
X8610299Y-2574455D01*
X8642291Y-2576366D01*
X8674041Y-2572000D01*
X8704330Y-2561523D01*
X8721531Y-2552329D01*
X8731152Y-2526113D01*
X8636000Y-2430961D01*
X8540848Y-2526113D01*
X3380740Y-2526113D01*
X3380740Y-2419291D01*
X8472634Y-2419291D01*
X8477000Y-2451041D01*
X8487477Y-2481330D01*
X8496671Y-2498531D01*
X8522887Y-2508152D01*
X8618040Y-2413000D01*
X8653961Y-2413000D01*
X8749113Y-2508152D01*
X8775329Y-2498531D01*
X8789338Y-2469705D01*
X8797455Y-2438701D01*
X8799366Y-2406709D01*
X8795000Y-2374959D01*
X8784523Y-2344670D01*
X8775329Y-2327470D01*
X8749113Y-2317848D01*
X8653961Y-2413000D01*
X8618040Y-2413000D01*
X8522887Y-2317848D01*
X8496671Y-2327470D01*
X8482662Y-2356295D01*
X8474546Y-2387299D01*
X8472634Y-2419291D01*
X3380740Y-2419291D01*
X3380740Y-2299887D01*
X8540848Y-2299887D01*
X8636000Y-2395040D01*
X8731152Y-2299887D01*
X8721531Y-2273671D01*
X8692705Y-2259662D01*
X8661701Y-2251546D01*
X8629709Y-2249634D01*
X8597959Y-2254000D01*
X8567670Y-2264477D01*
X8550470Y-2273671D01*
X8540848Y-2299887D01*
X3380740Y-2299887D01*
X3380740Y-1876113D01*
X8540848Y-1876113D01*
X8550470Y-1902329D01*
X8579295Y-1916338D01*
X8610299Y-1924454D01*
X8642291Y-1926366D01*
X8674041Y-1922000D01*
X8704330Y-1911523D01*
X8721531Y-1902329D01*
X8731152Y-1876113D01*
X8636000Y-1780960D01*
X8540848Y-1876113D01*
X3380740Y-1876113D01*
X3380740Y-1769291D01*
X8472634Y-1769291D01*
X8477000Y-1801041D01*
X8487477Y-1831330D01*
X8496671Y-1848530D01*
X8522887Y-1858152D01*
X8618040Y-1763000D01*
X8653961Y-1763000D01*
X8749113Y-1858152D01*
X8775329Y-1848530D01*
X8789338Y-1819705D01*
X8797455Y-1788701D01*
X8799366Y-1756709D01*
X8795000Y-1724959D01*
X8784523Y-1694670D01*
X8775329Y-1677469D01*
X8749113Y-1667848D01*
X8653961Y-1763000D01*
X8618040Y-1763000D01*
X8522887Y-1667848D01*
X8496671Y-1677469D01*
X8482662Y-1706295D01*
X8474546Y-1737299D01*
X8472634Y-1769291D01*
X3380740Y-1769291D01*
X3380740Y-1649887D01*
X8540848Y-1649887D01*
X8636000Y-1745039D01*
X8731152Y-1649887D01*
X8721531Y-1623671D01*
X8692705Y-1609662D01*
X8661701Y-1601545D01*
X8629709Y-1599634D01*
X8597959Y-1604000D01*
X8567670Y-1614477D01*
X8550470Y-1623671D01*
X8540848Y-1649887D01*
X3380740Y-1649887D01*
X3380740Y-1283745D01*
X3385684Y-1285793D01*
X3414374Y-1291500D01*
X3443626Y-1291500D01*
X3472316Y-1285793D01*
X3499341Y-1274599D01*
X3523663Y-1258348D01*
X3544347Y-1237663D01*
X3556000Y-1220224D01*
X3567652Y-1237663D01*
X3588337Y-1258348D01*
X3612659Y-1274599D01*
X3639684Y-1285793D01*
X3668374Y-1291500D01*
X3697626Y-1291500D01*
X3726316Y-1285793D01*
X3753341Y-1274599D01*
X3777663Y-1258348D01*
X3790600Y-1245411D01*
X3852550Y-1245411D01*
X3860358Y-1270095D01*
X3886626Y-1282604D01*
X3914829Y-1289750D01*
X3943885Y-1291255D01*
X3972676Y-1287063D01*
X4000095Y-1277335D01*
X4013641Y-1270095D01*
X4021450Y-1245411D01*
X3937000Y-1160961D01*
X3852550Y-1245411D01*
X3790600Y-1245411D01*
X3798347Y-1237663D01*
X3810305Y-1219768D01*
X3834589Y-1227450D01*
X3919039Y-1143000D01*
X3834589Y-1058550D01*
X3810305Y-1066232D01*
X3798347Y-1048337D01*
X3777663Y-1027652D01*
X3760224Y-1016000D01*
X3777663Y-1004347D01*
X3798347Y-983663D01*
X3810000Y-966224D01*
X3821652Y-983663D01*
X3842337Y-1004347D01*
X3860232Y-1016305D01*
X3852550Y-1040589D01*
X3937000Y-1125040D01*
X4021450Y-1040589D01*
X4013768Y-1016305D01*
X4031663Y-1004347D01*
X4052347Y-983663D01*
X4064000Y-966224D01*
X4075652Y-983663D01*
X4096337Y-1004347D01*
X4113776Y-1016000D01*
X4096337Y-1027652D01*
X4075652Y-1048337D01*
X4063695Y-1066232D01*
X4039411Y-1058550D01*
X3954960Y-1143000D01*
X4039411Y-1227450D01*
X4063695Y-1219768D01*
X4075652Y-1237663D01*
X4096337Y-1258348D01*
X4120659Y-1274599D01*
X4147684Y-1285793D01*
X4176374Y-1291500D01*
X4205626Y-1291500D01*
X4234316Y-1285793D01*
X4261341Y-1274599D01*
X4285663Y-1258348D01*
X4306348Y-1237663D01*
X4318000Y-1220224D01*
X4329653Y-1237663D01*
X4350337Y-1258348D01*
X4374659Y-1274599D01*
X4401684Y-1285793D01*
X4430374Y-1291500D01*
X4459626Y-1291500D01*
X4488316Y-1285793D01*
X4515341Y-1274599D01*
X4539663Y-1258348D01*
X4560348Y-1237663D01*
X4572000Y-1220224D01*
X4583653Y-1237663D01*
X4604337Y-1258348D01*
X4628659Y-1274599D01*
X4655684Y-1285793D01*
X4684374Y-1291500D01*
X4713626Y-1291500D01*
X4742316Y-1285793D01*
X4769341Y-1274599D01*
X4793663Y-1258348D01*
X4814348Y-1237663D01*
X4826000Y-1220224D01*
X4837653Y-1237663D01*
X4858337Y-1258348D01*
X4882659Y-1274599D01*
X4909684Y-1285793D01*
X4938374Y-1291500D01*
X4967626Y-1291500D01*
X4996316Y-1285793D01*
X5023341Y-1274599D01*
X5047663Y-1258348D01*
X5068348Y-1237663D01*
X5080000Y-1220224D01*
X5091653Y-1237663D01*
X5112337Y-1258348D01*
X5136659Y-1274599D01*
X5163684Y-1285793D01*
X5192374Y-1291500D01*
X5221626Y-1291500D01*
X5250316Y-1285793D01*
X5277341Y-1274599D01*
X5301663Y-1258348D01*
X5314600Y-1245411D01*
X5376550Y-1245411D01*
X5384359Y-1270095D01*
X5410626Y-1282604D01*
X5438829Y-1289750D01*
X5467885Y-1291255D01*
X5496676Y-1287063D01*
X5524096Y-1277335D01*
X5537642Y-1270095D01*
X5545450Y-1245411D01*
X5630550Y-1245411D01*
X5638358Y-1270095D01*
X5664626Y-1282604D01*
X5692829Y-1289750D01*
X5721885Y-1291255D01*
X5750676Y-1287063D01*
X5778095Y-1277335D01*
X5791641Y-1270095D01*
X5799450Y-1245411D01*
X5715000Y-1160961D01*
X5630550Y-1245411D01*
X5545450Y-1245411D01*
X5461000Y-1160961D01*
X5376550Y-1245411D01*
X5314600Y-1245411D01*
X5322348Y-1237663D01*
X5334305Y-1219768D01*
X5358589Y-1227450D01*
X5443040Y-1143000D01*
X5478961Y-1143000D01*
X5563411Y-1227450D01*
X5588000Y-1219671D01*
X5612589Y-1227450D01*
X5697039Y-1143000D01*
X5612589Y-1058550D01*
X5588000Y-1066329D01*
X5563411Y-1058550D01*
X5478961Y-1143000D01*
X5443040Y-1143000D01*
X5358589Y-1058550D01*
X5334305Y-1066232D01*
X5322348Y-1048337D01*
X5301663Y-1027652D01*
X5284224Y-1016000D01*
X5301663Y-1004347D01*
X5314600Y-991411D01*
X5376550Y-991411D01*
X5384329Y-1016000D01*
X5376550Y-1040589D01*
X5461000Y-1125040D01*
X5545450Y-1040589D01*
X5537671Y-1016000D01*
X5545450Y-991411D01*
X5461000Y-906960D01*
X5376550Y-991411D01*
X5314600Y-991411D01*
X5322348Y-983663D01*
X5334305Y-965768D01*
X5358589Y-973450D01*
X5443040Y-889000D01*
X5358589Y-804550D01*
X5334305Y-812232D01*
X5322348Y-794337D01*
X5305251Y-777240D01*
X5379507Y-777240D01*
X5376550Y-786589D01*
X5461000Y-871039D01*
X5545450Y-786589D01*
X5542493Y-777240D01*
X5616749Y-777240D01*
X5599652Y-794337D01*
X5587695Y-812232D01*
X5563411Y-804550D01*
X5478961Y-889000D01*
X5563411Y-973450D01*
X5587695Y-965768D01*
X5599652Y-983663D01*
X5620337Y-1004347D01*
X5638232Y-1016305D01*
X5630550Y-1040589D01*
X5715000Y-1125040D01*
X5716414Y-1123625D01*
X5734375Y-1141586D01*
X5732960Y-1143000D01*
X5817411Y-1227450D01*
X5841695Y-1219768D01*
X5853652Y-1237663D01*
X5874337Y-1258348D01*
X5898659Y-1274599D01*
X5925684Y-1285793D01*
X5954374Y-1291500D01*
X5983626Y-1291500D01*
X6012316Y-1285793D01*
X6039341Y-1274599D01*
X6063663Y-1258348D01*
X6084347Y-1237663D01*
X6096000Y-1220224D01*
X6107652Y-1237663D01*
X6128337Y-1258348D01*
X6152659Y-1274599D01*
X6179684Y-1285793D01*
X6208374Y-1291500D01*
X6237626Y-1291500D01*
X6266316Y-1285793D01*
X6267633Y-1285248D01*
X6270142Y-1293518D01*
X6277453Y-1307197D01*
X6287293Y-1319187D01*
X6290298Y-1321653D01*
X6418588Y-1449943D01*
X6421053Y-1452947D01*
X6424057Y-1455412D01*
X6424057Y-1455412D01*
X6433043Y-1462786D01*
X6433043Y-1462787D01*
X6446722Y-1470098D01*
X6461564Y-1474601D01*
X6473133Y-1475740D01*
X6473133Y-1475740D01*
X6477000Y-1476121D01*
X6480866Y-1475740D01*
X7997134Y-1475740D01*
X8001000Y-1476121D01*
X8004866Y-1475740D01*
X8004867Y-1475740D01*
X8016436Y-1474601D01*
X8031278Y-1470098D01*
X8044957Y-1462787D01*
X8056947Y-1452947D01*
X8059413Y-1449942D01*
X8180943Y-1328412D01*
X8183947Y-1325947D01*
X8186412Y-1322943D01*
X8193786Y-1313957D01*
X8193787Y-1313957D01*
X8201098Y-1300278D01*
X8205601Y-1285436D01*
X8206740Y-1273867D01*
X8206740Y-1273866D01*
X8207121Y-1270000D01*
X8206740Y-1266134D01*
X8206740Y-575366D01*
X8207121Y-571500D01*
X8206740Y-567634D01*
X8206740Y-567633D01*
X8205601Y-556064D01*
X8201098Y-541222D01*
X8193787Y-527543D01*
X8188729Y-521380D01*
X8186412Y-518557D01*
X8186412Y-518557D01*
X8183947Y-515553D01*
X8180943Y-513088D01*
X8059413Y-391558D01*
X8056947Y-388553D01*
X8044957Y-378713D01*
X8031278Y-371402D01*
X8016436Y-366899D01*
X8004867Y-365760D01*
X8004866Y-365760D01*
X8001000Y-365379D01*
X7997134Y-365760D01*
X2924866Y-365760D01*
X2921000Y-365379D01*
X2917134Y-365760D01*
X2917133Y-365760D01*
X2905564Y-366899D01*
X2890722Y-371402D01*
X2877043Y-378713D01*
X2877043Y-378713D01*
X2877043Y-378713D01*
X2868057Y-386088D01*
X2868057Y-386088D01*
X2865053Y-388553D01*
X2862588Y-391557D01*
X2741057Y-513088D01*
X2738053Y-515553D01*
X2735588Y-518557D01*
X2728214Y-527543D01*
X2720902Y-541222D01*
X2716400Y-556064D01*
X2714879Y-571500D01*
X2715260Y-575367D01*
X2715260Y-2824885D01*
X2634385Y-2905760D01*
X1400866Y-2905760D01*
X1397000Y-2905379D01*
X1393134Y-2905760D01*
X1393133Y-2905760D01*
X1381564Y-2906899D01*
X1366722Y-2911402D01*
X1353043Y-2918713D01*
X1341053Y-2928553D01*
X1338588Y-2931557D01*
X1333820Y-2936325D01*
X1350374Y-2896360D01*
X1360500Y-2845452D01*
X1360500Y-2793548D01*
X1350374Y-2742640D01*
X1330511Y-2694686D01*
X1301674Y-2651529D01*
X1268453Y-2618307D01*
X1602000Y-2618307D01*
X1614448Y-2617081D01*
X1626418Y-2613450D01*
X1637449Y-2607554D01*
X1647118Y-2599619D01*
X1655054Y-2589949D01*
X1660950Y-2578918D01*
X1664581Y-2566948D01*
X1665807Y-2554500D01*
X1665807Y-2144500D01*
X1664581Y-2132052D01*
X1660950Y-2120082D01*
X1655054Y-2109051D01*
X1647118Y-2099382D01*
X1637449Y-2091446D01*
X1626418Y-2085550D01*
X1614448Y-2081919D01*
X1602000Y-2080693D01*
X1490980Y-2080693D01*
X1490980Y-1717020D01*
X1492101Y-1713325D01*
X1493807Y-1696000D01*
X1493807Y-1606000D01*
X1492101Y-1588674D01*
X1490980Y-1584980D01*
X1490980Y-1147616D01*
X1491435Y-1143000D01*
X1490980Y-1138384D01*
X1490980Y-1138383D01*
X1489620Y-1124577D01*
X1484246Y-1106861D01*
X1475520Y-1090535D01*
X1463775Y-1076225D01*
X1460189Y-1073282D01*
X1413807Y-1026899D01*
X1413807Y-957500D01*
X1475714Y-957500D01*
X1475714Y-585500D01*
X825500Y-585500D01*
X825500Y-957500D01*
X889814Y-957500D01*
X884976Y-967738D01*
X878155Y-995007D01*
X876785Y-1023083D01*
X880918Y-1050887D01*
X890397Y-1077350D01*
X896986Y-1089677D01*
X921159Y-1096881D01*
X1002039Y-1016000D01*
X1000625Y-1014586D01*
X1018586Y-996625D01*
X1020000Y-998039D01*
X1021414Y-996625D01*
X1039375Y-1014586D01*
X1037960Y-1016000D01*
X1118841Y-1096881D01*
X1126193Y-1094690D01*
X1126193Y-1096000D01*
X1127419Y-1108448D01*
X1131050Y-1120418D01*
X1136946Y-1131449D01*
X1144882Y-1141119D01*
X1154551Y-1149054D01*
X1165582Y-1154950D01*
X1177552Y-1158581D01*
X1190000Y-1159807D01*
X1280900Y-1159807D01*
X1303020Y-1181928D01*
X1303020Y-1525554D01*
X1290661Y-1532159D01*
X1277204Y-1543204D01*
X1276074Y-1544580D01*
X1273702Y-1541031D01*
X1264969Y-1532298D01*
X1254700Y-1525436D01*
X1243289Y-1520709D01*
X1231175Y-1518300D01*
X1195875Y-1518300D01*
X1180200Y-1533975D01*
X1180200Y-1638300D01*
X1182200Y-1638300D01*
X1182200Y-1663700D01*
X1180200Y-1663700D01*
X1180200Y-1768025D01*
X1195875Y-1783700D01*
X1231175Y-1783700D01*
X1243289Y-1781290D01*
X1254700Y-1776564D01*
X1264969Y-1769702D01*
X1273702Y-1760969D01*
X1276074Y-1757419D01*
X1277204Y-1758796D01*
X1290661Y-1769840D01*
X1303020Y-1776446D01*
X1303020Y-2080693D01*
X1192000Y-2080693D01*
X1179552Y-2081919D01*
X1167582Y-2085550D01*
X1156551Y-2091446D01*
X1146882Y-2099382D01*
X1138946Y-2109051D01*
X1133050Y-2120082D01*
X1129419Y-2132052D01*
X1128193Y-2144500D01*
X1128193Y-2554500D01*
X1128448Y-2557093D01*
X1122953Y-2556000D01*
X1071048Y-2556000D01*
X1020140Y-2566126D01*
X972186Y-2585989D01*
X929028Y-2614826D01*
X892326Y-2651529D01*
X863489Y-2694686D01*
X843626Y-2742640D01*
X833500Y-2793548D01*
X833500Y-2845452D01*
X843626Y-2896360D01*
X863489Y-2944314D01*
X892326Y-2987471D01*
X929028Y-3024174D01*
X972186Y-3053011D01*
X1020140Y-3072874D01*
X1071048Y-3083000D01*
X1122953Y-3083000D01*
X1173860Y-3072874D01*
X1213825Y-3056320D01*
X1026557Y-3243588D01*
X1023553Y-3246053D01*
X1021088Y-3249057D01*
X1013713Y-3258043D01*
X1006402Y-3271722D01*
X1001899Y-3286564D01*
X1000379Y-3302000D01*
X1000760Y-3305867D01*
X1000760Y-3713885D01*
X919885Y-3794760D01*
X888295Y-3794760D01*
X886071Y-3790599D01*
X867513Y-3767987D01*
X863945Y-3765058D01*
X865289Y-3764790D01*
X876700Y-3760064D01*
X886969Y-3753202D01*
X895702Y-3744469D01*
X902564Y-3734200D01*
X907290Y-3722789D01*
X909700Y-3710675D01*
X909700Y-3647875D01*
X894025Y-3632200D01*
X774700Y-3632200D01*
X774700Y-3634200D01*
X749300Y-3634200D01*
X749300Y-3632200D01*
X747300Y-3632200D01*
X747300Y-3606800D01*
X749300Y-3606800D01*
X749300Y-3487475D01*
X774700Y-3487475D01*
X774700Y-3606800D01*
X894025Y-3606800D01*
X909700Y-3591125D01*
X909700Y-3528325D01*
X907290Y-3516211D01*
X902564Y-3504800D01*
X895702Y-3494531D01*
X886969Y-3485798D01*
X876700Y-3478936D01*
X865289Y-3474209D01*
X853175Y-3471800D01*
X790375Y-3471800D01*
X774700Y-3487475D01*
X749300Y-3487475D01*
X733625Y-3471800D01*
X670825Y-3471800D01*
X667643Y-3472433D01*
X667643Y-3443000D01*
X70000Y-3443000D01*
X70000Y-2563508D01*
X671097Y-2563508D01*
X696627Y-2593643D01*
X746185Y-2608534D01*
X797697Y-2613470D01*
X849181Y-2608262D01*
X897373Y-2593643D01*
X922903Y-2563508D01*
X797000Y-2437606D01*
X671097Y-2563508D01*
X70000Y-2563508D01*
X70000Y-2350197D01*
X533030Y-2350197D01*
X538238Y-2401681D01*
X552857Y-2449873D01*
X582992Y-2475403D01*
X708894Y-2349500D01*
X885105Y-2349500D01*
X1011008Y-2475403D01*
X1041143Y-2449873D01*
X1056034Y-2400315D01*
X1060970Y-2348803D01*
X1055762Y-2297319D01*
X1041143Y-2249127D01*
X1011008Y-2223597D01*
X885105Y-2349500D01*
X708894Y-2349500D01*
X582992Y-2223597D01*
X552857Y-2249127D01*
X537966Y-2298685D01*
X533030Y-2350197D01*
X70000Y-2350197D01*
X70000Y-2135492D01*
X671097Y-2135492D01*
X797000Y-2261395D01*
X922903Y-2135492D01*
X897373Y-2105357D01*
X847815Y-2090466D01*
X796303Y-2085530D01*
X744819Y-2090738D01*
X696627Y-2105357D01*
X671097Y-2135492D01*
X70000Y-2135492D01*
X70000Y-1679375D01*
X1047300Y-1679375D01*
X1047300Y-1727175D01*
X1049710Y-1739289D01*
X1054436Y-1750700D01*
X1061298Y-1760969D01*
X1070031Y-1769702D01*
X1080300Y-1776564D01*
X1091711Y-1781290D01*
X1103825Y-1783700D01*
X1139125Y-1783700D01*
X1154800Y-1768025D01*
X1154800Y-1663700D01*
X1062975Y-1663700D01*
X1047300Y-1679375D01*
X70000Y-1679375D01*
X70000Y-1574825D01*
X1047300Y-1574825D01*
X1047300Y-1622625D01*
X1062975Y-1638300D01*
X1154800Y-1638300D01*
X1154800Y-1533975D01*
X1139125Y-1518300D01*
X1103825Y-1518300D01*
X1091711Y-1520709D01*
X1080300Y-1525436D01*
X1070031Y-1532298D01*
X1061298Y-1541031D01*
X1054436Y-1551300D01*
X1049710Y-1562711D01*
X1047300Y-1574825D01*
X70000Y-1574825D01*
X70000Y-1114841D01*
X939119Y-1114841D01*
X946323Y-1139014D01*
X971738Y-1151024D01*
X999007Y-1157845D01*
X1027083Y-1159215D01*
X1054887Y-1155082D01*
X1081350Y-1145603D01*
X1093677Y-1139014D01*
X1100881Y-1114841D01*
X1020000Y-1033960D01*
X939119Y-1114841D01*
X70000Y-1114841D01*
X70000Y-651457D01*
X78435Y-664081D01*
X135919Y-721565D01*
X203513Y-766730D01*
X278620Y-797840D01*
X358353Y-813700D01*
X439647Y-813700D01*
X519380Y-797840D01*
X594487Y-766730D01*
X662081Y-721565D01*
X719565Y-664081D01*
X764730Y-596487D01*
X795840Y-521380D01*
X811700Y-441647D01*
X811700Y-360353D01*
X795840Y-280620D01*
X764730Y-205513D01*
X719565Y-137919D01*
X662081Y-80435D01*
X649457Y-72000D01*
X9348543Y-72000D01*
X9335919Y-80435D01*
X9335919Y-80435D01*
G37*
X9335919Y-80435D02*
X9278435Y-137919D01*
X9233270Y-205513D01*
X9202160Y-280620D01*
X9186300Y-360353D01*
X9186300Y-441647D01*
X9202160Y-521380D01*
X9233270Y-596487D01*
X9278435Y-664081D01*
X9335919Y-721565D01*
X9403513Y-766730D01*
X9478620Y-797840D01*
X9558353Y-813700D01*
X9639647Y-813700D01*
X9719380Y-797840D01*
X9794487Y-766730D01*
X9862081Y-721565D01*
X9919565Y-664081D01*
X9928000Y-651457D01*
X9928000Y-5296071D01*
X9651555Y-5296071D01*
X9649680Y-5286641D01*
X9634339Y-5249607D01*
X9612069Y-5216276D01*
X9583724Y-5187931D01*
X9550393Y-5165661D01*
X9513359Y-5150320D01*
X9474043Y-5142500D01*
X9433957Y-5142500D01*
X9394641Y-5150320D01*
X9357607Y-5165661D01*
X9324276Y-5187931D01*
X9295931Y-5216276D01*
X9273661Y-5249607D01*
X9258320Y-5286641D01*
X9250500Y-5325957D01*
X9250500Y-5366043D01*
X9258320Y-5405359D01*
X9273661Y-5442393D01*
X9295931Y-5475724D01*
X9324276Y-5504069D01*
X9332046Y-5509260D01*
X9049615Y-5509260D01*
X8968740Y-5428385D01*
X8968740Y-4759113D01*
X9048848Y-4759113D01*
X9058470Y-4785329D01*
X9087295Y-4799338D01*
X9118299Y-4807455D01*
X9150291Y-4809366D01*
X9182041Y-4805000D01*
X9212330Y-4794523D01*
X9229531Y-4785329D01*
X9239152Y-4759113D01*
X9144000Y-4663961D01*
X9048848Y-4759113D01*
X8968740Y-4759113D01*
X8968740Y-4652291D01*
X8980634Y-4652291D01*
X8985000Y-4684041D01*
X8995477Y-4714330D01*
X9004671Y-4731531D01*
X9030887Y-4741152D01*
X9126040Y-4646000D01*
X9161961Y-4646000D01*
X9257113Y-4741152D01*
X9283329Y-4731531D01*
X9297338Y-4702705D01*
X9305455Y-4671701D01*
X9307366Y-4639709D01*
X9303000Y-4607959D01*
X9292523Y-4577670D01*
X9283329Y-4560470D01*
X9257113Y-4550848D01*
X9161961Y-4646000D01*
X9126040Y-4646000D01*
X9030887Y-4550848D01*
X9004671Y-4560470D01*
X8990662Y-4589295D01*
X8982546Y-4620299D01*
X8980634Y-4652291D01*
X8968740Y-4652291D01*
X8968740Y-4532887D01*
X9048848Y-4532887D01*
X9144000Y-4628040D01*
X9239152Y-4532887D01*
X9229531Y-4506671D01*
X9200705Y-4492662D01*
X9169701Y-4484546D01*
X9137709Y-4482634D01*
X9105959Y-4487000D01*
X9075670Y-4497477D01*
X9058470Y-4506671D01*
X9048848Y-4532887D01*
X8968740Y-4532887D01*
X8968740Y-2641615D01*
X9039835Y-2570520D01*
X9069897Y-2576500D01*
X9102103Y-2576500D01*
X9133691Y-2570217D01*
X9163446Y-2557892D01*
X9190225Y-2539999D01*
X9212999Y-2517225D01*
X9230892Y-2490446D01*
X9243217Y-2460691D01*
X9249500Y-2429103D01*
X9249500Y-2396897D01*
X9243217Y-2365309D01*
X9230892Y-2335554D01*
X9212999Y-2308775D01*
X9190225Y-2286001D01*
X9164740Y-2268973D01*
X9164740Y-1907027D01*
X9190225Y-1889999D01*
X9212999Y-1867225D01*
X9230892Y-1840446D01*
X9243217Y-1810691D01*
X9249500Y-1779103D01*
X9249500Y-1746897D01*
X9243217Y-1715309D01*
X9230892Y-1685554D01*
X9212999Y-1658775D01*
X9190225Y-1636001D01*
X9163446Y-1618108D01*
X9133691Y-1605783D01*
X9102103Y-1599500D01*
X9069897Y-1599500D01*
X9038309Y-1605783D01*
X9008554Y-1618108D01*
X8981775Y-1636001D01*
X8959001Y-1658775D01*
X8941108Y-1685554D01*
X8928783Y-1715309D01*
X8922500Y-1746897D01*
X8922500Y-1779103D01*
X8928783Y-1810691D01*
X8941108Y-1840446D01*
X8959001Y-1867225D01*
X8981775Y-1889999D01*
X9007260Y-1907027D01*
X9007260Y-2268973D01*
X8981775Y-2286001D01*
X8959001Y-2308775D01*
X8941108Y-2335554D01*
X8928783Y-2365309D01*
X8922500Y-2396897D01*
X8922500Y-2429103D01*
X8928480Y-2459165D01*
X8837057Y-2550588D01*
X8834053Y-2553053D01*
X8831588Y-2556057D01*
X8824214Y-2565043D01*
X8816902Y-2578722D01*
X8812400Y-2593564D01*
X8810879Y-2609000D01*
X8811260Y-2612867D01*
X8811260Y-5457134D01*
X8810879Y-5461000D01*
X8811260Y-5464866D01*
X8811260Y-5464867D01*
X8812399Y-5476436D01*
X8816902Y-5491278D01*
X8824213Y-5504957D01*
X8834053Y-5516947D01*
X8837058Y-5519413D01*
X8953905Y-5636260D01*
X8795615Y-5636260D01*
X8722740Y-5563385D01*
X8722740Y-4790027D01*
X8748225Y-4772999D01*
X8770999Y-4750225D01*
X8788892Y-4723446D01*
X8801217Y-4693691D01*
X8807500Y-4662103D01*
X8807500Y-4629897D01*
X8801217Y-4598309D01*
X8788892Y-4568554D01*
X8770999Y-4541775D01*
X8748225Y-4519001D01*
X8721446Y-4501108D01*
X8691691Y-4488783D01*
X8660103Y-4482500D01*
X8627897Y-4482500D01*
X8596309Y-4488783D01*
X8566554Y-4501108D01*
X8539775Y-4519001D01*
X8517001Y-4541775D01*
X8499108Y-4568554D01*
X8486783Y-4598309D01*
X8480500Y-4629897D01*
X8480500Y-4662103D01*
X8486783Y-4693691D01*
X8499108Y-4723446D01*
X8517001Y-4750225D01*
X8539775Y-4772999D01*
X8565260Y-4790027D01*
X8565260Y-5592133D01*
X8564879Y-5596000D01*
X8566400Y-5611436D01*
X8570902Y-5626278D01*
X8576034Y-5635879D01*
X8578214Y-5639957D01*
X8588053Y-5651947D01*
X8591057Y-5654412D01*
X8704588Y-5767943D01*
X8707053Y-5770947D01*
X8710057Y-5773412D01*
X8710057Y-5773412D01*
X8710805Y-5774026D01*
X8719043Y-5780787D01*
X8732722Y-5788098D01*
X8747564Y-5792601D01*
X8759133Y-5793740D01*
X8759134Y-5793740D01*
X8763000Y-5794121D01*
X8766866Y-5793740D01*
X9301885Y-5793740D01*
X9382760Y-5874615D01*
X9382760Y-5905905D01*
X9329413Y-5852558D01*
X9326947Y-5849553D01*
X9314957Y-5839713D01*
X9301278Y-5832402D01*
X9286436Y-5827899D01*
X9274867Y-5826760D01*
X9274866Y-5826760D01*
X9271000Y-5826379D01*
X9267134Y-5826760D01*
X8707886Y-5826760D01*
X8704020Y-5826379D01*
X8700154Y-5826760D01*
X8700153Y-5826760D01*
X8688584Y-5827899D01*
X8673742Y-5832402D01*
X8660063Y-5839713D01*
X8653967Y-5844716D01*
X8648073Y-5849553D01*
X8645608Y-5852557D01*
X8591057Y-5907108D01*
X8588053Y-5909573D01*
X8583519Y-5915098D01*
X8578214Y-5921563D01*
X8572532Y-5932193D01*
X8544000Y-5932193D01*
X8531552Y-5933419D01*
X8519582Y-5937050D01*
X8508551Y-5942946D01*
X8498882Y-5950881D01*
X8490946Y-5960551D01*
X8485050Y-5971582D01*
X8481419Y-5983552D01*
X8480193Y-5996000D01*
X8480193Y-6196000D01*
X8481419Y-6208448D01*
X8485050Y-6220418D01*
X8490946Y-6231449D01*
X8498882Y-6241118D01*
X8508551Y-6249054D01*
X8519582Y-6254950D01*
X8531552Y-6258581D01*
X8544000Y-6259807D01*
X8744000Y-6259807D01*
X8756448Y-6258581D01*
X8768418Y-6254950D01*
X8779449Y-6249054D01*
X8789119Y-6241118D01*
X8797054Y-6231449D01*
X8802950Y-6220418D01*
X8802971Y-6220348D01*
X8808470Y-6235329D01*
X8837295Y-6249338D01*
X8868299Y-6257454D01*
X8900291Y-6259366D01*
X8932041Y-6255000D01*
X8962330Y-6244523D01*
X8979531Y-6235329D01*
X8989152Y-6209113D01*
X8894000Y-6113960D01*
X8892586Y-6115375D01*
X8874625Y-6097414D01*
X8876040Y-6096000D01*
X8874625Y-6094586D01*
X8892586Y-6076625D01*
X8894000Y-6078039D01*
X8895414Y-6076625D01*
X8913375Y-6094586D01*
X8911961Y-6096000D01*
X9007113Y-6191152D01*
X9010185Y-6190024D01*
X9017001Y-6200225D01*
X9039775Y-6222999D01*
X9065260Y-6240027D01*
X9065260Y-6317385D01*
X8984385Y-6398260D01*
X6099866Y-6398260D01*
X6096000Y-6397879D01*
X6092134Y-6398260D01*
X6092133Y-6398260D01*
X6080564Y-6399399D01*
X6065722Y-6403902D01*
X6052043Y-6411213D01*
X6052043Y-6411213D01*
X6052043Y-6411213D01*
X6043057Y-6418588D01*
X6043057Y-6418588D01*
X6040053Y-6421053D01*
X6037588Y-6424057D01*
X5916058Y-6545587D01*
X5913053Y-6548053D01*
X5903213Y-6560043D01*
X5895902Y-6573722D01*
X5891399Y-6588564D01*
X5890260Y-6600133D01*
X5890260Y-6600134D01*
X5889879Y-6604000D01*
X5890260Y-6607866D01*
X5890260Y-6859013D01*
X5874337Y-6869652D01*
X5853652Y-6890337D01*
X5842000Y-6907776D01*
X5830347Y-6890337D01*
X5809663Y-6869652D01*
X5785341Y-6853401D01*
X5758316Y-6842207D01*
X5729626Y-6836500D01*
X5700374Y-6836500D01*
X5671684Y-6842207D01*
X5644659Y-6853401D01*
X5620337Y-6869652D01*
X5599652Y-6890337D01*
X5588000Y-6907776D01*
X5576348Y-6890337D01*
X5555663Y-6869652D01*
X5531341Y-6853401D01*
X5504316Y-6842207D01*
X5475626Y-6836500D01*
X5446374Y-6836500D01*
X5417684Y-6842207D01*
X5390659Y-6853401D01*
X5366337Y-6869652D01*
X5345653Y-6890337D01*
X5334000Y-6907776D01*
X5322348Y-6890337D01*
X5301663Y-6869652D01*
X5285740Y-6859013D01*
X5285740Y-5325957D01*
X8130500Y-5325957D01*
X8130500Y-5366043D01*
X8138320Y-5405359D01*
X8153661Y-5442393D01*
X8175931Y-5475724D01*
X8204276Y-5504069D01*
X8237607Y-5526339D01*
X8274641Y-5541680D01*
X8313957Y-5549500D01*
X8354043Y-5549500D01*
X8393359Y-5541680D01*
X8430393Y-5526339D01*
X8463724Y-5504069D01*
X8492069Y-5475724D01*
X8514339Y-5442393D01*
X8529680Y-5405359D01*
X8537500Y-5366043D01*
X8537500Y-5325957D01*
X8529680Y-5286641D01*
X8514339Y-5249607D01*
X8492069Y-5216276D01*
X8463724Y-5187931D01*
X8430393Y-5165661D01*
X8393359Y-5150320D01*
X8354043Y-5142500D01*
X8313957Y-5142500D01*
X8274641Y-5150320D01*
X8237607Y-5165661D01*
X8204276Y-5187931D01*
X8175931Y-5216276D01*
X8153661Y-5249607D01*
X8138320Y-5286641D01*
X8130500Y-5325957D01*
X5285740Y-5325957D01*
X5285740Y-4067866D01*
X5286121Y-4064000D01*
X5285740Y-4060134D01*
X5285740Y-4060133D01*
X5284601Y-4048564D01*
X5280098Y-4033722D01*
X5272787Y-4020043D01*
X5268320Y-4014601D01*
X5265412Y-4011057D01*
X5265412Y-4011057D01*
X5262947Y-4008053D01*
X5259943Y-4005588D01*
X5138413Y-3884058D01*
X5135947Y-3881053D01*
X5123957Y-3871213D01*
X5110278Y-3863902D01*
X5095436Y-3859399D01*
X5083867Y-3858260D01*
X5083866Y-3858260D01*
X5080000Y-3857879D01*
X5076134Y-3858260D01*
X2330964Y-3858260D01*
X2327248Y-3851307D01*
X2308066Y-3827934D01*
X2286214Y-3810000D01*
X2308066Y-3792066D01*
X2320447Y-3776980D01*
X2410480Y-3776980D01*
X2414175Y-3778101D01*
X2431500Y-3779807D01*
X2521500Y-3779807D01*
X2538826Y-3778101D01*
X2555485Y-3773047D01*
X2570839Y-3764840D01*
X2584296Y-3753796D01*
X2595341Y-3740339D01*
X2603547Y-3724985D01*
X2608601Y-3708325D01*
X2610307Y-3691000D01*
X2610307Y-3626000D01*
X2608601Y-3608674D01*
X2603547Y-3592015D01*
X2595341Y-3576661D01*
X2584296Y-3563204D01*
X2582920Y-3562074D01*
X2586469Y-3559702D01*
X2595202Y-3550969D01*
X2602064Y-3540700D01*
X2606791Y-3529289D01*
X2609200Y-3517175D01*
X2609200Y-3481875D01*
X2593525Y-3466200D01*
X2489200Y-3466200D01*
X2489200Y-3468200D01*
X2463800Y-3468200D01*
X2463800Y-3466200D01*
X2461800Y-3466200D01*
X2461800Y-3440800D01*
X2463800Y-3440800D01*
X2463800Y-3348975D01*
X2489200Y-3348975D01*
X2489200Y-3440800D01*
X2593525Y-3440800D01*
X2609200Y-3425125D01*
X2609200Y-3389825D01*
X2606791Y-3377711D01*
X2602064Y-3366300D01*
X2595202Y-3356031D01*
X2586469Y-3347298D01*
X2576200Y-3340436D01*
X2564789Y-3335709D01*
X2552675Y-3333300D01*
X2504875Y-3333300D01*
X2489200Y-3348975D01*
X2463800Y-3348975D01*
X2448125Y-3333300D01*
X2400325Y-3333300D01*
X2388211Y-3335709D01*
X2376800Y-3340436D01*
X2366531Y-3347298D01*
X2357798Y-3356031D01*
X2350936Y-3366300D01*
X2346210Y-3377711D01*
X2345275Y-3382411D01*
X2341502Y-3369974D01*
X2327248Y-3343307D01*
X2308066Y-3319934D01*
X2304784Y-3317240D01*
X3234634Y-3317240D01*
X3238500Y-3317621D01*
X3242366Y-3317240D01*
X3242367Y-3317240D01*
X3253936Y-3316101D01*
X3268778Y-3311598D01*
X3282457Y-3304287D01*
X3294447Y-3294447D01*
X3296913Y-3291442D01*
X3354943Y-3233412D01*
X3357947Y-3230947D01*
X3360412Y-3227943D01*
X3360412Y-3227943D01*
X3367787Y-3218957D01*
X3375098Y-3205278D01*
X3379601Y-3190436D01*
X3380175Y-3184598D01*
X3380740Y-3178867D01*
X3380740Y-3178866D01*
X3381121Y-3175000D01*
X3380740Y-3171133D01*
X3380740Y-2526113D01*
X8540848Y-2526113D01*
X8550470Y-2552329D01*
X8579295Y-2566338D01*
X8610299Y-2574455D01*
X8642291Y-2576366D01*
X8674041Y-2572000D01*
X8704330Y-2561523D01*
X8721531Y-2552329D01*
X8731152Y-2526113D01*
X8636000Y-2430961D01*
X8540848Y-2526113D01*
X3380740Y-2526113D01*
X3380740Y-2419291D01*
X8472634Y-2419291D01*
X8477000Y-2451041D01*
X8487477Y-2481330D01*
X8496671Y-2498531D01*
X8522887Y-2508152D01*
X8618040Y-2413000D01*
X8653961Y-2413000D01*
X8749113Y-2508152D01*
X8775329Y-2498531D01*
X8789338Y-2469705D01*
X8797455Y-2438701D01*
X8799366Y-2406709D01*
X8795000Y-2374959D01*
X8784523Y-2344670D01*
X8775329Y-2327470D01*
X8749113Y-2317848D01*
X8653961Y-2413000D01*
X8618040Y-2413000D01*
X8522887Y-2317848D01*
X8496671Y-2327470D01*
X8482662Y-2356295D01*
X8474546Y-2387299D01*
X8472634Y-2419291D01*
X3380740Y-2419291D01*
X3380740Y-2299887D01*
X8540848Y-2299887D01*
X8636000Y-2395040D01*
X8731152Y-2299887D01*
X8721531Y-2273671D01*
X8692705Y-2259662D01*
X8661701Y-2251546D01*
X8629709Y-2249634D01*
X8597959Y-2254000D01*
X8567670Y-2264477D01*
X8550470Y-2273671D01*
X8540848Y-2299887D01*
X3380740Y-2299887D01*
X3380740Y-1876113D01*
X8540848Y-1876113D01*
X8550470Y-1902329D01*
X8579295Y-1916338D01*
X8610299Y-1924454D01*
X8642291Y-1926366D01*
X8674041Y-1922000D01*
X8704330Y-1911523D01*
X8721531Y-1902329D01*
X8731152Y-1876113D01*
X8636000Y-1780960D01*
X8540848Y-1876113D01*
X3380740Y-1876113D01*
X3380740Y-1769291D01*
X8472634Y-1769291D01*
X8477000Y-1801041D01*
X8487477Y-1831330D01*
X8496671Y-1848530D01*
X8522887Y-1858152D01*
X8618040Y-1763000D01*
X8653961Y-1763000D01*
X8749113Y-1858152D01*
X8775329Y-1848530D01*
X8789338Y-1819705D01*
X8797455Y-1788701D01*
X8799366Y-1756709D01*
X8795000Y-1724959D01*
X8784523Y-1694670D01*
X8775329Y-1677469D01*
X8749113Y-1667848D01*
X8653961Y-1763000D01*
X8618040Y-1763000D01*
X8522887Y-1667848D01*
X8496671Y-1677469D01*
X8482662Y-1706295D01*
X8474546Y-1737299D01*
X8472634Y-1769291D01*
X3380740Y-1769291D01*
X3380740Y-1649887D01*
X8540848Y-1649887D01*
X8636000Y-1745039D01*
X8731152Y-1649887D01*
X8721531Y-1623671D01*
X8692705Y-1609662D01*
X8661701Y-1601545D01*
X8629709Y-1599634D01*
X8597959Y-1604000D01*
X8567670Y-1614477D01*
X8550470Y-1623671D01*
X8540848Y-1649887D01*
X3380740Y-1649887D01*
X3380740Y-1283745D01*
X3385684Y-1285793D01*
X3414374Y-1291500D01*
X3443626Y-1291500D01*
X3472316Y-1285793D01*
X3499341Y-1274599D01*
X3523663Y-1258348D01*
X3544347Y-1237663D01*
X3556000Y-1220224D01*
X3567652Y-1237663D01*
X3588337Y-1258348D01*
X3612659Y-1274599D01*
X3639684Y-1285793D01*
X3668374Y-1291500D01*
X3697626Y-1291500D01*
X3726316Y-1285793D01*
X3753341Y-1274599D01*
X3777663Y-1258348D01*
X3790600Y-1245411D01*
X3852550Y-1245411D01*
X3860358Y-1270095D01*
X3886626Y-1282604D01*
X3914829Y-1289750D01*
X3943885Y-1291255D01*
X3972676Y-1287063D01*
X4000095Y-1277335D01*
X4013641Y-1270095D01*
X4021450Y-1245411D01*
X3937000Y-1160961D01*
X3852550Y-1245411D01*
X3790600Y-1245411D01*
X3798347Y-1237663D01*
X3810305Y-1219768D01*
X3834589Y-1227450D01*
X3919039Y-1143000D01*
X3834589Y-1058550D01*
X3810305Y-1066232D01*
X3798347Y-1048337D01*
X3777663Y-1027652D01*
X3760224Y-1016000D01*
X3777663Y-1004347D01*
X3798347Y-983663D01*
X3810000Y-966224D01*
X3821652Y-983663D01*
X3842337Y-1004347D01*
X3860232Y-1016305D01*
X3852550Y-1040589D01*
X3937000Y-1125040D01*
X4021450Y-1040589D01*
X4013768Y-1016305D01*
X4031663Y-1004347D01*
X4052347Y-983663D01*
X4064000Y-966224D01*
X4075652Y-983663D01*
X4096337Y-1004347D01*
X4113776Y-1016000D01*
X4096337Y-1027652D01*
X4075652Y-1048337D01*
X4063695Y-1066232D01*
X4039411Y-1058550D01*
X3954960Y-1143000D01*
X4039411Y-1227450D01*
X4063695Y-1219768D01*
X4075652Y-1237663D01*
X4096337Y-1258348D01*
X4120659Y-1274599D01*
X4147684Y-1285793D01*
X4176374Y-1291500D01*
X4205626Y-1291500D01*
X4234316Y-1285793D01*
X4261341Y-1274599D01*
X4285663Y-1258348D01*
X4306348Y-1237663D01*
X4318000Y-1220224D01*
X4329653Y-1237663D01*
X4350337Y-1258348D01*
X4374659Y-1274599D01*
X4401684Y-1285793D01*
X4430374Y-1291500D01*
X4459626Y-1291500D01*
X4488316Y-1285793D01*
X4515341Y-1274599D01*
X4539663Y-1258348D01*
X4560348Y-1237663D01*
X4572000Y-1220224D01*
X4583653Y-1237663D01*
X4604337Y-1258348D01*
X4628659Y-1274599D01*
X4655684Y-1285793D01*
X4684374Y-1291500D01*
X4713626Y-1291500D01*
X4742316Y-1285793D01*
X4769341Y-1274599D01*
X4793663Y-1258348D01*
X4814348Y-1237663D01*
X4826000Y-1220224D01*
X4837653Y-1237663D01*
X4858337Y-1258348D01*
X4882659Y-1274599D01*
X4909684Y-1285793D01*
X4938374Y-1291500D01*
X4967626Y-1291500D01*
X4996316Y-1285793D01*
X5023341Y-1274599D01*
X5047663Y-1258348D01*
X5068348Y-1237663D01*
X5080000Y-1220224D01*
X5091653Y-1237663D01*
X5112337Y-1258348D01*
X5136659Y-1274599D01*
X5163684Y-1285793D01*
X5192374Y-1291500D01*
X5221626Y-1291500D01*
X5250316Y-1285793D01*
X5277341Y-1274599D01*
X5301663Y-1258348D01*
X5314600Y-1245411D01*
X5376550Y-1245411D01*
X5384359Y-1270095D01*
X5410626Y-1282604D01*
X5438829Y-1289750D01*
X5467885Y-1291255D01*
X5496676Y-1287063D01*
X5524096Y-1277335D01*
X5537642Y-1270095D01*
X5545450Y-1245411D01*
X5630550Y-1245411D01*
X5638358Y-1270095D01*
X5664626Y-1282604D01*
X5692829Y-1289750D01*
X5721885Y-1291255D01*
X5750676Y-1287063D01*
X5778095Y-1277335D01*
X5791641Y-1270095D01*
X5799450Y-1245411D01*
X5715000Y-1160961D01*
X5630550Y-1245411D01*
X5545450Y-1245411D01*
X5461000Y-1160961D01*
X5376550Y-1245411D01*
X5314600Y-1245411D01*
X5322348Y-1237663D01*
X5334305Y-1219768D01*
X5358589Y-1227450D01*
X5443040Y-1143000D01*
X5478961Y-1143000D01*
X5563411Y-1227450D01*
X5588000Y-1219671D01*
X5612589Y-1227450D01*
X5697039Y-1143000D01*
X5612589Y-1058550D01*
X5588000Y-1066329D01*
X5563411Y-1058550D01*
X5478961Y-1143000D01*
X5443040Y-1143000D01*
X5358589Y-1058550D01*
X5334305Y-1066232D01*
X5322348Y-1048337D01*
X5301663Y-1027652D01*
X5284224Y-1016000D01*
X5301663Y-1004347D01*
X5314600Y-991411D01*
X5376550Y-991411D01*
X5384329Y-1016000D01*
X5376550Y-1040589D01*
X5461000Y-1125040D01*
X5545450Y-1040589D01*
X5537671Y-1016000D01*
X5545450Y-991411D01*
X5461000Y-906960D01*
X5376550Y-991411D01*
X5314600Y-991411D01*
X5322348Y-983663D01*
X5334305Y-965768D01*
X5358589Y-973450D01*
X5443040Y-889000D01*
X5358589Y-804550D01*
X5334305Y-812232D01*
X5322348Y-794337D01*
X5305251Y-777240D01*
X5379507Y-777240D01*
X5376550Y-786589D01*
X5461000Y-871039D01*
X5545450Y-786589D01*
X5542493Y-777240D01*
X5616749Y-777240D01*
X5599652Y-794337D01*
X5587695Y-812232D01*
X5563411Y-804550D01*
X5478961Y-889000D01*
X5563411Y-973450D01*
X5587695Y-965768D01*
X5599652Y-983663D01*
X5620337Y-1004347D01*
X5638232Y-1016305D01*
X5630550Y-1040589D01*
X5715000Y-1125040D01*
X5716414Y-1123625D01*
X5734375Y-1141586D01*
X5732960Y-1143000D01*
X5817411Y-1227450D01*
X5841695Y-1219768D01*
X5853652Y-1237663D01*
X5874337Y-1258348D01*
X5898659Y-1274599D01*
X5925684Y-1285793D01*
X5954374Y-1291500D01*
X5983626Y-1291500D01*
X6012316Y-1285793D01*
X6039341Y-1274599D01*
X6063663Y-1258348D01*
X6084347Y-1237663D01*
X6096000Y-1220224D01*
X6107652Y-1237663D01*
X6128337Y-1258348D01*
X6152659Y-1274599D01*
X6179684Y-1285793D01*
X6208374Y-1291500D01*
X6237626Y-1291500D01*
X6266316Y-1285793D01*
X6267633Y-1285248D01*
X6270142Y-1293518D01*
X6277453Y-1307197D01*
X6287293Y-1319187D01*
X6290298Y-1321653D01*
X6418588Y-1449943D01*
X6421053Y-1452947D01*
X6424057Y-1455412D01*
X6424057Y-1455412D01*
X6433043Y-1462786D01*
X6433043Y-1462787D01*
X6446722Y-1470098D01*
X6461564Y-1474601D01*
X6473133Y-1475740D01*
X6473133Y-1475740D01*
X6477000Y-1476121D01*
X6480866Y-1475740D01*
X7997134Y-1475740D01*
X8001000Y-1476121D01*
X8004866Y-1475740D01*
X8004867Y-1475740D01*
X8016436Y-1474601D01*
X8031278Y-1470098D01*
X8044957Y-1462787D01*
X8056947Y-1452947D01*
X8059413Y-1449942D01*
X8180943Y-1328412D01*
X8183947Y-1325947D01*
X8186412Y-1322943D01*
X8193786Y-1313957D01*
X8193787Y-1313957D01*
X8201098Y-1300278D01*
X8205601Y-1285436D01*
X8206740Y-1273867D01*
X8206740Y-1273866D01*
X8207121Y-1270000D01*
X8206740Y-1266134D01*
X8206740Y-575366D01*
X8207121Y-571500D01*
X8206740Y-567634D01*
X8206740Y-567633D01*
X8205601Y-556064D01*
X8201098Y-541222D01*
X8193787Y-527543D01*
X8188729Y-521380D01*
X8186412Y-518557D01*
X8186412Y-518557D01*
X8183947Y-515553D01*
X8180943Y-513088D01*
X8059413Y-391558D01*
X8056947Y-388553D01*
X8044957Y-378713D01*
X8031278Y-371402D01*
X8016436Y-366899D01*
X8004867Y-365760D01*
X8004866Y-365760D01*
X8001000Y-365379D01*
X7997134Y-365760D01*
X2924866Y-365760D01*
X2921000Y-365379D01*
X2917134Y-365760D01*
X2917133Y-365760D01*
X2905564Y-366899D01*
X2890722Y-371402D01*
X2877043Y-378713D01*
X2877043Y-378713D01*
X2877043Y-378713D01*
X2868057Y-386088D01*
X2868057Y-386088D01*
X2865053Y-388553D01*
X2862588Y-391557D01*
X2741057Y-513088D01*
X2738053Y-515553D01*
X2735588Y-518557D01*
X2728214Y-527543D01*
X2720902Y-541222D01*
X2716400Y-556064D01*
X2714879Y-571500D01*
X2715260Y-575367D01*
X2715260Y-2824885D01*
X2634385Y-2905760D01*
X1400866Y-2905760D01*
X1397000Y-2905379D01*
X1393134Y-2905760D01*
X1393133Y-2905760D01*
X1381564Y-2906899D01*
X1366722Y-2911402D01*
X1353043Y-2918713D01*
X1341053Y-2928553D01*
X1338588Y-2931557D01*
X1333820Y-2936325D01*
X1350374Y-2896360D01*
X1360500Y-2845452D01*
X1360500Y-2793548D01*
X1350374Y-2742640D01*
X1330511Y-2694686D01*
X1301674Y-2651529D01*
X1268453Y-2618307D01*
X1602000Y-2618307D01*
X1614448Y-2617081D01*
X1626418Y-2613450D01*
X1637449Y-2607554D01*
X1647118Y-2599619D01*
X1655054Y-2589949D01*
X1660950Y-2578918D01*
X1664581Y-2566948D01*
X1665807Y-2554500D01*
X1665807Y-2144500D01*
X1664581Y-2132052D01*
X1660950Y-2120082D01*
X1655054Y-2109051D01*
X1647118Y-2099382D01*
X1637449Y-2091446D01*
X1626418Y-2085550D01*
X1614448Y-2081919D01*
X1602000Y-2080693D01*
X1490980Y-2080693D01*
X1490980Y-1717020D01*
X1492101Y-1713325D01*
X1493807Y-1696000D01*
X1493807Y-1606000D01*
X1492101Y-1588674D01*
X1490980Y-1584980D01*
X1490980Y-1147616D01*
X1491435Y-1143000D01*
X1490980Y-1138384D01*
X1490980Y-1138383D01*
X1489620Y-1124577D01*
X1484246Y-1106861D01*
X1475520Y-1090535D01*
X1463775Y-1076225D01*
X1460189Y-1073282D01*
X1413807Y-1026899D01*
X1413807Y-957500D01*
X1475714Y-957500D01*
X1475714Y-585500D01*
X825500Y-585500D01*
X825500Y-957500D01*
X889814Y-957500D01*
X884976Y-967738D01*
X878155Y-995007D01*
X876785Y-1023083D01*
X880918Y-1050887D01*
X890397Y-1077350D01*
X896986Y-1089677D01*
X921159Y-1096881D01*
X1002039Y-1016000D01*
X1000625Y-1014586D01*
X1018586Y-996625D01*
X1020000Y-998039D01*
X1021414Y-996625D01*
X1039375Y-1014586D01*
X1037960Y-1016000D01*
X1118841Y-1096881D01*
X1126193Y-1094690D01*
X1126193Y-1096000D01*
X1127419Y-1108448D01*
X1131050Y-1120418D01*
X1136946Y-1131449D01*
X1144882Y-1141119D01*
X1154551Y-1149054D01*
X1165582Y-1154950D01*
X1177552Y-1158581D01*
X1190000Y-1159807D01*
X1280900Y-1159807D01*
X1303020Y-1181928D01*
X1303020Y-1525554D01*
X1290661Y-1532159D01*
X1277204Y-1543204D01*
X1276074Y-1544580D01*
X1273702Y-1541031D01*
X1264969Y-1532298D01*
X1254700Y-1525436D01*
X1243289Y-1520709D01*
X1231175Y-1518300D01*
X1195875Y-1518300D01*
X1180200Y-1533975D01*
X1180200Y-1638300D01*
X1182200Y-1638300D01*
X1182200Y-1663700D01*
X1180200Y-1663700D01*
X1180200Y-1768025D01*
X1195875Y-1783700D01*
X1231175Y-1783700D01*
X1243289Y-1781290D01*
X1254700Y-1776564D01*
X1264969Y-1769702D01*
X1273702Y-1760969D01*
X1276074Y-1757419D01*
X1277204Y-1758796D01*
X1290661Y-1769840D01*
X1303020Y-1776446D01*
X1303020Y-2080693D01*
X1192000Y-2080693D01*
X1179552Y-2081919D01*
X1167582Y-2085550D01*
X1156551Y-2091446D01*
X1146882Y-2099382D01*
X1138946Y-2109051D01*
X1133050Y-2120082D01*
X1129419Y-2132052D01*
X1128193Y-2144500D01*
X1128193Y-2554500D01*
X1128448Y-2557093D01*
X1122953Y-2556000D01*
X1071048Y-2556000D01*
X1020140Y-2566126D01*
X972186Y-2585989D01*
X929028Y-2614826D01*
X892326Y-2651529D01*
X863489Y-2694686D01*
X843626Y-2742640D01*
X833500Y-2793548D01*
X833500Y-2845452D01*
X843626Y-2896360D01*
X863489Y-2944314D01*
X892326Y-2987471D01*
X929028Y-3024174D01*
X972186Y-3053011D01*
X1020140Y-3072874D01*
X1071048Y-3083000D01*
X1122953Y-3083000D01*
X1173860Y-3072874D01*
X1213825Y-3056320D01*
X1026557Y-3243588D01*
X1023553Y-3246053D01*
X1021088Y-3249057D01*
X1013713Y-3258043D01*
X1006402Y-3271722D01*
X1001899Y-3286564D01*
X1000379Y-3302000D01*
X1000760Y-3305867D01*
X1000760Y-3713885D01*
X919885Y-3794760D01*
X888295Y-3794760D01*
X886071Y-3790599D01*
X867513Y-3767987D01*
X863945Y-3765058D01*
X865289Y-3764790D01*
X876700Y-3760064D01*
X886969Y-3753202D01*
X895702Y-3744469D01*
X902564Y-3734200D01*
X907290Y-3722789D01*
X909700Y-3710675D01*
X909700Y-3647875D01*
X894025Y-3632200D01*
X774700Y-3632200D01*
X774700Y-3634200D01*
X749300Y-3634200D01*
X749300Y-3632200D01*
X747300Y-3632200D01*
X747300Y-3606800D01*
X749300Y-3606800D01*
X749300Y-3487475D01*
X774700Y-3487475D01*
X774700Y-3606800D01*
X894025Y-3606800D01*
X909700Y-3591125D01*
X909700Y-3528325D01*
X907290Y-3516211D01*
X902564Y-3504800D01*
X895702Y-3494531D01*
X886969Y-3485798D01*
X876700Y-3478936D01*
X865289Y-3474209D01*
X853175Y-3471800D01*
X790375Y-3471800D01*
X774700Y-3487475D01*
X749300Y-3487475D01*
X733625Y-3471800D01*
X670825Y-3471800D01*
X667643Y-3472433D01*
X667643Y-3443000D01*
X70000Y-3443000D01*
X70000Y-2563508D01*
X671097Y-2563508D01*
X696627Y-2593643D01*
X746185Y-2608534D01*
X797697Y-2613470D01*
X849181Y-2608262D01*
X897373Y-2593643D01*
X922903Y-2563508D01*
X797000Y-2437606D01*
X671097Y-2563508D01*
X70000Y-2563508D01*
X70000Y-2350197D01*
X533030Y-2350197D01*
X538238Y-2401681D01*
X552857Y-2449873D01*
X582992Y-2475403D01*
X708894Y-2349500D01*
X885105Y-2349500D01*
X1011008Y-2475403D01*
X1041143Y-2449873D01*
X1056034Y-2400315D01*
X1060970Y-2348803D01*
X1055762Y-2297319D01*
X1041143Y-2249127D01*
X1011008Y-2223597D01*
X885105Y-2349500D01*
X708894Y-2349500D01*
X582992Y-2223597D01*
X552857Y-2249127D01*
X537966Y-2298685D01*
X533030Y-2350197D01*
X70000Y-2350197D01*
X70000Y-2135492D01*
X671097Y-2135492D01*
X797000Y-2261395D01*
X922903Y-2135492D01*
X897373Y-2105357D01*
X847815Y-2090466D01*
X796303Y-2085530D01*
X744819Y-2090738D01*
X696627Y-2105357D01*
X671097Y-2135492D01*
X70000Y-2135492D01*
X70000Y-1679375D01*
X1047300Y-1679375D01*
X1047300Y-1727175D01*
X1049710Y-1739289D01*
X1054436Y-1750700D01*
X1061298Y-1760969D01*
X1070031Y-1769702D01*
X1080300Y-1776564D01*
X1091711Y-1781290D01*
X1103825Y-1783700D01*
X1139125Y-1783700D01*
X1154800Y-1768025D01*
X1154800Y-1663700D01*
X1062975Y-1663700D01*
X1047300Y-1679375D01*
X70000Y-1679375D01*
X70000Y-1574825D01*
X1047300Y-1574825D01*
X1047300Y-1622625D01*
X1062975Y-1638300D01*
X1154800Y-1638300D01*
X1154800Y-1533975D01*
X1139125Y-1518300D01*
X1103825Y-1518300D01*
X1091711Y-1520709D01*
X1080300Y-1525436D01*
X1070031Y-1532298D01*
X1061298Y-1541031D01*
X1054436Y-1551300D01*
X1049710Y-1562711D01*
X1047300Y-1574825D01*
X70000Y-1574825D01*
X70000Y-1114841D01*
X939119Y-1114841D01*
X946323Y-1139014D01*
X971738Y-1151024D01*
X999007Y-1157845D01*
X1027083Y-1159215D01*
X1054887Y-1155082D01*
X1081350Y-1145603D01*
X1093677Y-1139014D01*
X1100881Y-1114841D01*
X1020000Y-1033960D01*
X939119Y-1114841D01*
X70000Y-1114841D01*
X70000Y-651457D01*
X78435Y-664081D01*
X135919Y-721565D01*
X203513Y-766730D01*
X278620Y-797840D01*
X358353Y-813700D01*
X439647Y-813700D01*
X519380Y-797840D01*
X594487Y-766730D01*
X662081Y-721565D01*
X719565Y-664081D01*
X764730Y-596487D01*
X795840Y-521380D01*
X811700Y-441647D01*
X811700Y-360353D01*
X795840Y-280620D01*
X764730Y-205513D01*
X719565Y-137919D01*
X662081Y-80435D01*
X649457Y-72000D01*
X9348543Y-72000D01*
X9335919Y-80435D01*
G36*
X1846588Y-5640943D02*
X1849053Y-5643947D01*
X1852057Y-5646412D01*
X1861043Y-5653787D01*
X1870896Y-5659053D01*
X1874722Y-5661098D01*
X1889564Y-5665601D01*
X1901133Y-5666740D01*
X1901134Y-5666740D01*
X1905000Y-5667121D01*
X1908866Y-5666740D01*
X1973232Y-5666740D01*
X1967721Y-5684909D01*
X1964757Y-5715000D01*
X1967721Y-5745091D01*
X1976498Y-5774026D01*
X1990752Y-5800693D01*
X2009934Y-5824066D01*
X2031786Y-5842000D01*
X2009934Y-5859934D01*
X1990752Y-5883307D01*
X1976498Y-5909974D01*
X1967721Y-5938909D01*
X1964757Y-5969000D01*
X1967721Y-5999091D01*
X1976498Y-6028026D01*
X1990752Y-6054693D01*
X2009934Y-6078066D01*
X2033014Y-6097008D01*
X2023605Y-6103090D01*
X2002044Y-6124005D01*
X1984979Y-6148724D01*
X1973063Y-6176297D01*
X1970689Y-6186652D01*
X1982565Y-6210300D01*
X2146300Y-6210300D01*
X2146300Y-6208300D01*
X2171700Y-6208300D01*
X2171700Y-6210300D01*
X2335435Y-6210300D01*
X2347311Y-6186652D01*
X2344937Y-6176297D01*
X2333021Y-6148724D01*
X2315956Y-6124005D01*
X2294395Y-6103090D01*
X2284986Y-6097008D01*
X2308066Y-6078066D01*
X2327248Y-6054693D01*
X2330964Y-6047740D01*
X3015385Y-6047740D01*
X3096260Y-6128615D01*
X3096260Y-6859013D01*
X3080337Y-6869652D01*
X3063240Y-6886749D01*
X3063240Y-6607866D01*
X3063621Y-6604000D01*
X3063240Y-6600134D01*
X3063240Y-6600133D01*
X3062101Y-6588564D01*
X3057598Y-6573722D01*
X3050287Y-6560043D01*
X3043521Y-6551799D01*
X3042912Y-6551057D01*
X3042912Y-6551057D01*
X3040447Y-6548053D01*
X3037443Y-6545588D01*
X2915913Y-6424058D01*
X2913447Y-6421053D01*
X2901457Y-6411213D01*
X2887778Y-6403902D01*
X2872936Y-6399399D01*
X2861367Y-6398260D01*
X2861366Y-6398260D01*
X2857500Y-6397879D01*
X2853634Y-6398260D01*
X2330964Y-6398260D01*
X2327248Y-6391307D01*
X2308066Y-6367934D01*
X2284986Y-6348992D01*
X2294395Y-6342910D01*
X2315956Y-6321995D01*
X2333021Y-6297276D01*
X2344937Y-6269703D01*
X2347311Y-6259348D01*
X2335435Y-6235700D01*
X2171700Y-6235700D01*
X2171700Y-6237700D01*
X2146300Y-6237700D01*
X2146300Y-6235700D01*
X1982565Y-6235700D01*
X1970689Y-6259348D01*
X1973063Y-6269703D01*
X1984979Y-6297276D01*
X2002044Y-6321995D01*
X2023605Y-6342910D01*
X2033014Y-6348992D01*
X2009934Y-6367934D01*
X1990752Y-6391307D01*
X1976498Y-6417974D01*
X1967721Y-6446909D01*
X1964757Y-6477000D01*
X1967721Y-6507091D01*
X1976498Y-6536026D01*
X1990752Y-6562693D01*
X2009934Y-6586066D01*
X2031786Y-6604000D01*
X2009934Y-6621934D01*
X1990752Y-6645307D01*
X1987036Y-6652260D01*
X1747115Y-6652260D01*
X1691640Y-6596785D01*
X1691640Y-5975807D01*
X1747000Y-5975807D01*
X1764325Y-5974101D01*
X1780985Y-5969047D01*
X1796339Y-5960840D01*
X1809796Y-5949796D01*
X1820840Y-5936339D01*
X1829047Y-5920985D01*
X1834101Y-5904325D01*
X1835807Y-5887000D01*
X1835807Y-5797000D01*
X1834101Y-5779674D01*
X1829047Y-5763015D01*
X1820840Y-5747661D01*
X1809796Y-5734204D01*
X1796339Y-5723159D01*
X1793240Y-5721503D01*
X1793240Y-5587595D01*
X1846588Y-5640943D01*
X1846588Y-5640943D01*
G37*
X1846588Y-5640943D02*
X1849053Y-5643947D01*
X1852057Y-5646412D01*
X1861043Y-5653787D01*
X1870896Y-5659053D01*
X1874722Y-5661098D01*
X1889564Y-5665601D01*
X1901133Y-5666740D01*
X1901134Y-5666740D01*
X1905000Y-5667121D01*
X1908866Y-5666740D01*
X1973232Y-5666740D01*
X1967721Y-5684909D01*
X1964757Y-5715000D01*
X1967721Y-5745091D01*
X1976498Y-5774026D01*
X1990752Y-5800693D01*
X2009934Y-5824066D01*
X2031786Y-5842000D01*
X2009934Y-5859934D01*
X1990752Y-5883307D01*
X1976498Y-5909974D01*
X1967721Y-5938909D01*
X1964757Y-5969000D01*
X1967721Y-5999091D01*
X1976498Y-6028026D01*
X1990752Y-6054693D01*
X2009934Y-6078066D01*
X2033014Y-6097008D01*
X2023605Y-6103090D01*
X2002044Y-6124005D01*
X1984979Y-6148724D01*
X1973063Y-6176297D01*
X1970689Y-6186652D01*
X1982565Y-6210300D01*
X2146300Y-6210300D01*
X2146300Y-6208300D01*
X2171700Y-6208300D01*
X2171700Y-6210300D01*
X2335435Y-6210300D01*
X2347311Y-6186652D01*
X2344937Y-6176297D01*
X2333021Y-6148724D01*
X2315956Y-6124005D01*
X2294395Y-6103090D01*
X2284986Y-6097008D01*
X2308066Y-6078066D01*
X2327248Y-6054693D01*
X2330964Y-6047740D01*
X3015385Y-6047740D01*
X3096260Y-6128615D01*
X3096260Y-6859013D01*
X3080337Y-6869652D01*
X3063240Y-6886749D01*
X3063240Y-6607866D01*
X3063621Y-6604000D01*
X3063240Y-6600134D01*
X3063240Y-6600133D01*
X3062101Y-6588564D01*
X3057598Y-6573722D01*
X3050287Y-6560043D01*
X3043521Y-6551799D01*
X3042912Y-6551057D01*
X3042912Y-6551057D01*
X3040447Y-6548053D01*
X3037443Y-6545588D01*
X2915913Y-6424058D01*
X2913447Y-6421053D01*
X2901457Y-6411213D01*
X2887778Y-6403902D01*
X2872936Y-6399399D01*
X2861367Y-6398260D01*
X2861366Y-6398260D01*
X2857500Y-6397879D01*
X2853634Y-6398260D01*
X2330964Y-6398260D01*
X2327248Y-6391307D01*
X2308066Y-6367934D01*
X2284986Y-6348992D01*
X2294395Y-6342910D01*
X2315956Y-6321995D01*
X2333021Y-6297276D01*
X2344937Y-6269703D01*
X2347311Y-6259348D01*
X2335435Y-6235700D01*
X2171700Y-6235700D01*
X2171700Y-6237700D01*
X2146300Y-6237700D01*
X2146300Y-6235700D01*
X1982565Y-6235700D01*
X1970689Y-6259348D01*
X1973063Y-6269703D01*
X1984979Y-6297276D01*
X2002044Y-6321995D01*
X2023605Y-6342910D01*
X2033014Y-6348992D01*
X2009934Y-6367934D01*
X1990752Y-6391307D01*
X1976498Y-6417974D01*
X1967721Y-6446909D01*
X1964757Y-6477000D01*
X1967721Y-6507091D01*
X1976498Y-6536026D01*
X1990752Y-6562693D01*
X2009934Y-6586066D01*
X2031786Y-6604000D01*
X2009934Y-6621934D01*
X1990752Y-6645307D01*
X1987036Y-6652260D01*
X1747115Y-6652260D01*
X1691640Y-6596785D01*
X1691640Y-5975807D01*
X1747000Y-5975807D01*
X1764325Y-5974101D01*
X1780985Y-5969047D01*
X1796339Y-5960840D01*
X1809796Y-5949796D01*
X1820840Y-5936339D01*
X1829047Y-5920985D01*
X1834101Y-5904325D01*
X1835807Y-5887000D01*
X1835807Y-5797000D01*
X1834101Y-5779674D01*
X1829047Y-5763015D01*
X1820840Y-5747661D01*
X1809796Y-5734204D01*
X1796339Y-5723159D01*
X1793240Y-5721503D01*
X1793240Y-5587595D01*
X1846588Y-5640943D01*
G36*
X1410081Y-4892319D02*
X1419751Y-4900254D01*
X1424094Y-4902576D01*
X1415231Y-4908498D01*
X1406498Y-4917231D01*
X1399636Y-4927500D01*
X1394910Y-4938911D01*
X1392500Y-4951025D01*
X1392500Y-4968825D01*
X1408175Y-4984500D01*
X1487500Y-4984500D01*
X1487500Y-4982500D01*
X1512900Y-4982500D01*
X1512900Y-4984500D01*
X1514900Y-4984500D01*
X1514900Y-5009900D01*
X1512900Y-5009900D01*
X1512900Y-5084225D01*
X1528575Y-5099900D01*
X1534160Y-5099900D01*
X1534160Y-5263693D01*
X1477000Y-5263693D01*
X1459674Y-5265399D01*
X1443015Y-5270453D01*
X1427661Y-5278660D01*
X1414204Y-5289704D01*
X1403159Y-5303161D01*
X1394953Y-5318515D01*
X1394879Y-5318760D01*
X1302615Y-5318760D01*
X1285240Y-5301385D01*
X1285240Y-5025575D01*
X1392500Y-5025575D01*
X1392500Y-5043375D01*
X1394910Y-5055489D01*
X1399636Y-5066900D01*
X1406498Y-5077169D01*
X1415231Y-5085902D01*
X1425500Y-5092764D01*
X1436911Y-5097491D01*
X1449025Y-5099900D01*
X1471825Y-5099900D01*
X1487500Y-5084225D01*
X1487500Y-5009900D01*
X1408175Y-5009900D01*
X1392500Y-5025575D01*
X1285240Y-5025575D01*
X1285240Y-4922115D01*
X1321415Y-4885940D01*
X1404847Y-4885940D01*
X1410081Y-4892319D01*
X1410081Y-4892319D01*
G37*
X1410081Y-4892319D02*
X1419751Y-4900254D01*
X1424094Y-4902576D01*
X1415231Y-4908498D01*
X1406498Y-4917231D01*
X1399636Y-4927500D01*
X1394910Y-4938911D01*
X1392500Y-4951025D01*
X1392500Y-4968825D01*
X1408175Y-4984500D01*
X1487500Y-4984500D01*
X1487500Y-4982500D01*
X1512900Y-4982500D01*
X1512900Y-4984500D01*
X1514900Y-4984500D01*
X1514900Y-5009900D01*
X1512900Y-5009900D01*
X1512900Y-5084225D01*
X1528575Y-5099900D01*
X1534160Y-5099900D01*
X1534160Y-5263693D01*
X1477000Y-5263693D01*
X1459674Y-5265399D01*
X1443015Y-5270453D01*
X1427661Y-5278660D01*
X1414204Y-5289704D01*
X1403159Y-5303161D01*
X1394953Y-5318515D01*
X1394879Y-5318760D01*
X1302615Y-5318760D01*
X1285240Y-5301385D01*
X1285240Y-5025575D01*
X1392500Y-5025575D01*
X1392500Y-5043375D01*
X1394910Y-5055489D01*
X1399636Y-5066900D01*
X1406498Y-5077169D01*
X1415231Y-5085902D01*
X1425500Y-5092764D01*
X1436911Y-5097491D01*
X1449025Y-5099900D01*
X1471825Y-5099900D01*
X1487500Y-5084225D01*
X1487500Y-5009900D01*
X1408175Y-5009900D01*
X1392500Y-5025575D01*
X1285240Y-5025575D01*
X1285240Y-4922115D01*
X1321415Y-4885940D01*
X1404847Y-4885940D01*
X1410081Y-4892319D01*
G04 #@! TD*
M02*
