G04 #@! TF.GenerationSoftware,KiCad,Pcbnew,5.0.0-fee4fd1~66~ubuntu18.04.1*
G04 #@! TF.CreationDate,2018-11-22T16:37:43+01:00*
G04 #@! TF.ProjectId,hwpboard,687770626F6172642E6B696361645F70,rev?*
G04 #@! TF.SameCoordinates,PX67c7620PY282da50*
G04 #@! TF.FileFunction,Soldermask,Top*
G04 #@! TF.FilePolarity,Negative*
%FSLAX45Y45*%
G04 Gerber Fmt 4.5, Leading zero omitted, Abs format (unit mm)*
G04 Created by KiCad (PCBNEW 5.0.0-fee4fd1~66~ubuntu18.04.1) date Thu Nov 22 16:37:43 2018*
%MOMM*%
%LPD*%
G01*
G04 APERTURE LIST*
%ADD10R,2.800000X2.000000*%
%ADD11O,2.800000X2.000000*%
%ADD12C,1.900000*%
%ADD13R,1.900000X1.900000*%
%ADD14R,4.300000X4.300000*%
%ADD15C,4.200000*%
%ADD16C,6.200000*%
%ADD17O,1.900000X1.900000*%
%ADD18C,2.200000*%
%ADD19C,3.000000*%
%ADD20R,2.200000X2.200000*%
%ADD21R,1.000000X1.100000*%
%ADD22C,0.100000*%
%ADD23C,1.350000*%
%ADD24R,1.800000X1.800000*%
%ADD25C,1.800000*%
%ADD26C,1.200000*%
G04 APERTURE END LIST*
D10*
G04 #@! TO.C,LCD1*
X2159000Y-7239000D03*
D11*
X2159000Y-6985000D03*
X2159000Y-6731000D03*
X2159000Y-6477000D03*
X2159000Y-6223000D03*
X2159000Y-5969000D03*
X2159000Y-5715000D03*
X2159000Y-5461000D03*
X2159000Y-5207000D03*
X2159000Y-4953000D03*
X2159000Y-4699000D03*
X2159000Y-4445000D03*
X2159000Y-4191000D03*
X2159000Y-3937000D03*
X2159000Y-3683000D03*
X2159000Y-3429000D03*
G04 #@! TD*
D12*
G04 #@! TO.C,NUCBRD1*
X7747000Y-7239000D03*
X7747000Y-6985000D03*
X7493000Y-7239000D03*
X7493000Y-6985000D03*
X7239000Y-7239000D03*
X7239000Y-6985000D03*
X6985000Y-7239000D03*
X6985000Y-6985000D03*
X6731000Y-7239000D03*
X6731000Y-6985000D03*
X6477000Y-7239000D03*
X6477000Y-6985000D03*
X6223000Y-7239000D03*
X6223000Y-6985000D03*
X5969000Y-7239000D03*
X5969000Y-6985000D03*
X5715000Y-7239000D03*
X5715000Y-6985000D03*
X5461000Y-7239000D03*
X5461000Y-6985000D03*
X5207000Y-7239000D03*
X5207000Y-6985000D03*
X4953000Y-7239000D03*
X4953000Y-6985000D03*
X4699000Y-7239000D03*
X4699000Y-6985000D03*
X4445000Y-7239000D03*
X4445000Y-6985000D03*
X4191000Y-7239000D03*
X4191000Y-6985000D03*
X3937000Y-7239000D03*
X3937000Y-6985000D03*
X3683000Y-7239000D03*
X3683000Y-6985000D03*
X3429000Y-7239000D03*
X3429000Y-6985000D03*
X3175000Y-7239000D03*
X3175000Y-6985000D03*
X7747000Y-1143000D03*
X7747000Y-889000D03*
X7493000Y-1143000D03*
X7493000Y-889000D03*
X7239000Y-1143000D03*
X7239000Y-889000D03*
X6985000Y-1143000D03*
X6985000Y-889000D03*
X6731000Y-1143000D03*
X6731000Y-889000D03*
X6477000Y-1143000D03*
X6477000Y-889000D03*
X6223000Y-1143000D03*
X6223000Y-889000D03*
X5969000Y-1143000D03*
X5969000Y-889000D03*
X5715000Y-1143000D03*
X5715000Y-889000D03*
X5461000Y-1143000D03*
X5461000Y-889000D03*
X5207000Y-1143000D03*
X5207000Y-889000D03*
X4953000Y-1143000D03*
X4953000Y-889000D03*
X4699000Y-1143000D03*
X4699000Y-889000D03*
X4445000Y-1143000D03*
X4445000Y-889000D03*
X4191000Y-1143000D03*
X4191000Y-889000D03*
X3937000Y-1143000D03*
X3937000Y-889000D03*
X3683000Y-1143000D03*
X3683000Y-889000D03*
X3429000Y-1143000D03*
X3429000Y-889000D03*
X3175000Y-1143000D03*
D13*
X3175000Y-889000D03*
G04 #@! TD*
D14*
G04 #@! TO.C,J1*
X1397000Y-2349500D03*
D15*
X797000Y-2349500D03*
X1097000Y-2819500D03*
G04 #@! TD*
D16*
G04 #@! TO.C,J2*
X399000Y-401000D03*
G04 #@! TD*
G04 #@! TO.C,J3*
X399000Y-7601000D03*
G04 #@! TD*
G04 #@! TO.C,J4*
X9599000Y-401000D03*
G04 #@! TD*
G04 #@! TO.C,J5*
X9599000Y-7601000D03*
G04 #@! TD*
D13*
G04 #@! TO.C,MoistureSensor1*
X762000Y-3619500D03*
D17*
X762000Y-3873500D03*
X762000Y-4127500D03*
X762000Y-4381500D03*
X762000Y-4635500D03*
G04 #@! TD*
D18*
G04 #@! TO.C,PushButton1*
X8636000Y-1763000D03*
X9086000Y-1763000D03*
X8636000Y-2413000D03*
X9086000Y-2413000D03*
G04 #@! TD*
G04 #@! TO.C,RotaryEncoder1*
X9144000Y-4646000D03*
X8644000Y-4646000D03*
D19*
X9454000Y-5346000D03*
X8334000Y-5346000D03*
D18*
X9144000Y-6096000D03*
X8894000Y-6096000D03*
D20*
X8644000Y-6096000D03*
G04 #@! TD*
D21*
G04 #@! TO.C,Q1*
X1588000Y-4953000D03*
X1778000Y-4953000D03*
X1683000Y-4753000D03*
G04 #@! TD*
D22*
G04 #@! TO.C,C1*
G36*
X1413529Y-1571141D02*
X1416378Y-1571564D01*
X1419171Y-1572264D01*
X1421883Y-1573234D01*
X1424487Y-1574465D01*
X1426957Y-1575946D01*
X1429270Y-1577662D01*
X1431404Y-1579596D01*
X1433338Y-1581730D01*
X1435054Y-1584043D01*
X1436535Y-1586513D01*
X1437766Y-1589117D01*
X1438736Y-1591828D01*
X1439436Y-1594622D01*
X1439859Y-1597471D01*
X1440000Y-1600348D01*
X1440000Y-1701652D01*
X1439859Y-1704529D01*
X1439436Y-1707378D01*
X1438736Y-1710171D01*
X1437766Y-1712883D01*
X1436535Y-1715487D01*
X1435054Y-1717957D01*
X1433338Y-1720270D01*
X1431404Y-1722404D01*
X1429270Y-1724338D01*
X1426957Y-1726054D01*
X1424487Y-1727535D01*
X1421883Y-1728766D01*
X1419171Y-1729736D01*
X1416378Y-1730436D01*
X1413529Y-1730859D01*
X1410652Y-1731000D01*
X1334348Y-1731000D01*
X1331471Y-1730859D01*
X1328622Y-1730436D01*
X1325829Y-1729736D01*
X1323117Y-1728766D01*
X1320513Y-1727535D01*
X1318043Y-1726054D01*
X1315730Y-1724338D01*
X1313596Y-1722404D01*
X1311662Y-1720270D01*
X1309946Y-1717957D01*
X1308465Y-1715487D01*
X1307234Y-1712883D01*
X1306264Y-1710171D01*
X1305564Y-1707378D01*
X1305141Y-1704529D01*
X1305000Y-1701652D01*
X1305000Y-1600348D01*
X1305141Y-1597471D01*
X1305564Y-1594622D01*
X1306264Y-1591828D01*
X1307234Y-1589117D01*
X1308465Y-1586513D01*
X1309946Y-1584043D01*
X1311662Y-1581730D01*
X1313596Y-1579596D01*
X1315730Y-1577662D01*
X1318043Y-1575946D01*
X1320513Y-1574465D01*
X1323117Y-1573234D01*
X1325829Y-1572264D01*
X1328622Y-1571564D01*
X1331471Y-1571141D01*
X1334348Y-1571000D01*
X1410652Y-1571000D01*
X1413529Y-1571141D01*
X1413529Y-1571141D01*
G37*
D23*
X1372500Y-1651000D03*
D22*
G36*
X1208529Y-1571141D02*
X1211378Y-1571564D01*
X1214172Y-1572264D01*
X1216883Y-1573234D01*
X1219487Y-1574465D01*
X1221957Y-1575946D01*
X1224270Y-1577662D01*
X1226404Y-1579596D01*
X1228338Y-1581730D01*
X1230054Y-1584043D01*
X1231535Y-1586513D01*
X1232766Y-1589117D01*
X1233736Y-1591828D01*
X1234436Y-1594622D01*
X1234859Y-1597471D01*
X1235000Y-1600348D01*
X1235000Y-1701652D01*
X1234859Y-1704529D01*
X1234436Y-1707378D01*
X1233736Y-1710171D01*
X1232766Y-1712883D01*
X1231535Y-1715487D01*
X1230054Y-1717957D01*
X1228338Y-1720270D01*
X1226404Y-1722404D01*
X1224270Y-1724338D01*
X1221957Y-1726054D01*
X1219487Y-1727535D01*
X1216883Y-1728766D01*
X1214172Y-1729736D01*
X1211378Y-1730436D01*
X1208529Y-1730859D01*
X1205652Y-1731000D01*
X1129348Y-1731000D01*
X1126471Y-1730859D01*
X1123622Y-1730436D01*
X1120829Y-1729736D01*
X1118117Y-1728766D01*
X1115513Y-1727535D01*
X1113043Y-1726054D01*
X1110730Y-1724338D01*
X1108596Y-1722404D01*
X1106662Y-1720270D01*
X1104946Y-1717957D01*
X1103465Y-1715487D01*
X1102234Y-1712883D01*
X1101264Y-1710171D01*
X1100564Y-1707378D01*
X1100141Y-1704529D01*
X1100000Y-1701652D01*
X1100000Y-1600348D01*
X1100141Y-1597471D01*
X1100564Y-1594622D01*
X1101264Y-1591828D01*
X1102234Y-1589117D01*
X1103465Y-1586513D01*
X1104946Y-1584043D01*
X1106662Y-1581730D01*
X1108596Y-1579596D01*
X1110730Y-1577662D01*
X1113043Y-1575946D01*
X1115513Y-1574465D01*
X1118117Y-1573234D01*
X1120829Y-1572264D01*
X1123622Y-1571564D01*
X1126471Y-1571141D01*
X1129348Y-1571000D01*
X1205652Y-1571000D01*
X1208529Y-1571141D01*
X1208529Y-1571141D01*
G37*
D23*
X1167500Y-1651000D03*
G04 #@! TD*
D22*
G04 #@! TO.C,C2*
G36*
X1819029Y-6905141D02*
X1821878Y-6905564D01*
X1824671Y-6906264D01*
X1827383Y-6907234D01*
X1829987Y-6908465D01*
X1832457Y-6909946D01*
X1834770Y-6911662D01*
X1836904Y-6913596D01*
X1838838Y-6915730D01*
X1840554Y-6918043D01*
X1842035Y-6920513D01*
X1843266Y-6923117D01*
X1844236Y-6925828D01*
X1844936Y-6928622D01*
X1845359Y-6931471D01*
X1845500Y-6934348D01*
X1845500Y-7035652D01*
X1845359Y-7038529D01*
X1844936Y-7041378D01*
X1844236Y-7044171D01*
X1843266Y-7046883D01*
X1842035Y-7049487D01*
X1840554Y-7051957D01*
X1838838Y-7054270D01*
X1836904Y-7056404D01*
X1834770Y-7058338D01*
X1832457Y-7060054D01*
X1829987Y-7061535D01*
X1827383Y-7062766D01*
X1824671Y-7063736D01*
X1821878Y-7064436D01*
X1819029Y-7064859D01*
X1816152Y-7065000D01*
X1739848Y-7065000D01*
X1736971Y-7064859D01*
X1734122Y-7064436D01*
X1731328Y-7063736D01*
X1728617Y-7062766D01*
X1726013Y-7061535D01*
X1723543Y-7060054D01*
X1721230Y-7058338D01*
X1719096Y-7056404D01*
X1717162Y-7054270D01*
X1715446Y-7051957D01*
X1713965Y-7049487D01*
X1712734Y-7046883D01*
X1711764Y-7044171D01*
X1711064Y-7041378D01*
X1710641Y-7038529D01*
X1710500Y-7035652D01*
X1710500Y-6934348D01*
X1710641Y-6931471D01*
X1711064Y-6928622D01*
X1711764Y-6925828D01*
X1712734Y-6923117D01*
X1713965Y-6920513D01*
X1715446Y-6918043D01*
X1717162Y-6915730D01*
X1719096Y-6913596D01*
X1721230Y-6911662D01*
X1723543Y-6909946D01*
X1726013Y-6908465D01*
X1728617Y-6907234D01*
X1731328Y-6906264D01*
X1734122Y-6905564D01*
X1736971Y-6905141D01*
X1739848Y-6905000D01*
X1816152Y-6905000D01*
X1819029Y-6905141D01*
X1819029Y-6905141D01*
G37*
D23*
X1778000Y-6985000D03*
D22*
G36*
X1614029Y-6905141D02*
X1616878Y-6905564D01*
X1619671Y-6906264D01*
X1622383Y-6907234D01*
X1624987Y-6908465D01*
X1627457Y-6909946D01*
X1629770Y-6911662D01*
X1631904Y-6913596D01*
X1633838Y-6915730D01*
X1635554Y-6918043D01*
X1637035Y-6920513D01*
X1638266Y-6923117D01*
X1639236Y-6925828D01*
X1639936Y-6928622D01*
X1640359Y-6931471D01*
X1640500Y-6934348D01*
X1640500Y-7035652D01*
X1640359Y-7038529D01*
X1639936Y-7041378D01*
X1639236Y-7044171D01*
X1638266Y-7046883D01*
X1637035Y-7049487D01*
X1635554Y-7051957D01*
X1633838Y-7054270D01*
X1631904Y-7056404D01*
X1629770Y-7058338D01*
X1627457Y-7060054D01*
X1624987Y-7061535D01*
X1622383Y-7062766D01*
X1619671Y-7063736D01*
X1616878Y-7064436D01*
X1614029Y-7064859D01*
X1611152Y-7065000D01*
X1534848Y-7065000D01*
X1531971Y-7064859D01*
X1529122Y-7064436D01*
X1526328Y-7063736D01*
X1523617Y-7062766D01*
X1521013Y-7061535D01*
X1518543Y-7060054D01*
X1516230Y-7058338D01*
X1514096Y-7056404D01*
X1512162Y-7054270D01*
X1510446Y-7051957D01*
X1508965Y-7049487D01*
X1507734Y-7046883D01*
X1506764Y-7044171D01*
X1506064Y-7041378D01*
X1505641Y-7038529D01*
X1505500Y-7035652D01*
X1505500Y-6934348D01*
X1505641Y-6931471D01*
X1506064Y-6928622D01*
X1506764Y-6925828D01*
X1507734Y-6923117D01*
X1508965Y-6920513D01*
X1510446Y-6918043D01*
X1512162Y-6915730D01*
X1514096Y-6913596D01*
X1516230Y-6911662D01*
X1518543Y-6909946D01*
X1521013Y-6908465D01*
X1523617Y-6907234D01*
X1526328Y-6906264D01*
X1529122Y-6905564D01*
X1531971Y-6905141D01*
X1534848Y-6905000D01*
X1611152Y-6905000D01*
X1614029Y-6905141D01*
X1614029Y-6905141D01*
G37*
D23*
X1573000Y-6985000D03*
G04 #@! TD*
D24*
G04 #@! TO.C,C3*
X1270000Y-1016000D03*
D25*
X1020000Y-1016000D03*
G04 #@! TD*
D22*
G04 #@! TO.C,Rm0*
G36*
X1550529Y-5317641D02*
X1553378Y-5318064D01*
X1556171Y-5318764D01*
X1558883Y-5319734D01*
X1561487Y-5320965D01*
X1563957Y-5322446D01*
X1566270Y-5324162D01*
X1568404Y-5326096D01*
X1570338Y-5328230D01*
X1572054Y-5330543D01*
X1573535Y-5333013D01*
X1574766Y-5335617D01*
X1575736Y-5338329D01*
X1576436Y-5341122D01*
X1576859Y-5343971D01*
X1577000Y-5346848D01*
X1577000Y-5448152D01*
X1576859Y-5451029D01*
X1576436Y-5453878D01*
X1575736Y-5456672D01*
X1574766Y-5459383D01*
X1573535Y-5461987D01*
X1572054Y-5464457D01*
X1570338Y-5466770D01*
X1568404Y-5468904D01*
X1566270Y-5470838D01*
X1563957Y-5472554D01*
X1561487Y-5474035D01*
X1558883Y-5475266D01*
X1556171Y-5476236D01*
X1553378Y-5476936D01*
X1550529Y-5477359D01*
X1547652Y-5477500D01*
X1471348Y-5477500D01*
X1468471Y-5477359D01*
X1465622Y-5476936D01*
X1462828Y-5476236D01*
X1460117Y-5475266D01*
X1457513Y-5474035D01*
X1455043Y-5472554D01*
X1452730Y-5470838D01*
X1450596Y-5468904D01*
X1448662Y-5466770D01*
X1446946Y-5464457D01*
X1445465Y-5461987D01*
X1444234Y-5459383D01*
X1443264Y-5456672D01*
X1442564Y-5453878D01*
X1442141Y-5451029D01*
X1442000Y-5448152D01*
X1442000Y-5346848D01*
X1442141Y-5343971D01*
X1442564Y-5341122D01*
X1443264Y-5338329D01*
X1444234Y-5335617D01*
X1445465Y-5333013D01*
X1446946Y-5330543D01*
X1448662Y-5328230D01*
X1450596Y-5326096D01*
X1452730Y-5324162D01*
X1455043Y-5322446D01*
X1457513Y-5320965D01*
X1460117Y-5319734D01*
X1462828Y-5318764D01*
X1465622Y-5318064D01*
X1468471Y-5317641D01*
X1471348Y-5317500D01*
X1547652Y-5317500D01*
X1550529Y-5317641D01*
X1550529Y-5317641D01*
G37*
D23*
X1509500Y-5397500D03*
D22*
G36*
X1755529Y-5317641D02*
X1758378Y-5318064D01*
X1761171Y-5318764D01*
X1763883Y-5319734D01*
X1766487Y-5320965D01*
X1768957Y-5322446D01*
X1771270Y-5324162D01*
X1773404Y-5326096D01*
X1775338Y-5328230D01*
X1777054Y-5330543D01*
X1778535Y-5333013D01*
X1779766Y-5335617D01*
X1780736Y-5338329D01*
X1781436Y-5341122D01*
X1781859Y-5343971D01*
X1782000Y-5346848D01*
X1782000Y-5448152D01*
X1781859Y-5451029D01*
X1781436Y-5453878D01*
X1780736Y-5456672D01*
X1779766Y-5459383D01*
X1778535Y-5461987D01*
X1777054Y-5464457D01*
X1775338Y-5466770D01*
X1773404Y-5468904D01*
X1771270Y-5470838D01*
X1768957Y-5472554D01*
X1766487Y-5474035D01*
X1763883Y-5475266D01*
X1761171Y-5476236D01*
X1758378Y-5476936D01*
X1755529Y-5477359D01*
X1752652Y-5477500D01*
X1676348Y-5477500D01*
X1673471Y-5477359D01*
X1670622Y-5476936D01*
X1667828Y-5476236D01*
X1665117Y-5475266D01*
X1662513Y-5474035D01*
X1660043Y-5472554D01*
X1657730Y-5470838D01*
X1655596Y-5468904D01*
X1653662Y-5466770D01*
X1651946Y-5464457D01*
X1650465Y-5461987D01*
X1649234Y-5459383D01*
X1648264Y-5456672D01*
X1647564Y-5453878D01*
X1647141Y-5451029D01*
X1647000Y-5448152D01*
X1647000Y-5346848D01*
X1647141Y-5343971D01*
X1647564Y-5341122D01*
X1648264Y-5338329D01*
X1649234Y-5335617D01*
X1650465Y-5333013D01*
X1651946Y-5330543D01*
X1653662Y-5328230D01*
X1655596Y-5326096D01*
X1657730Y-5324162D01*
X1660043Y-5322446D01*
X1662513Y-5320965D01*
X1665117Y-5319734D01*
X1667828Y-5318764D01*
X1670622Y-5318064D01*
X1673471Y-5317641D01*
X1676348Y-5317500D01*
X1752652Y-5317500D01*
X1755529Y-5317641D01*
X1755529Y-5317641D01*
G37*
D23*
X1714500Y-5397500D03*
G04 #@! TD*
D22*
G04 #@! TO.C,Rm1*
G36*
X1550529Y-5762141D02*
X1553378Y-5762564D01*
X1556171Y-5763264D01*
X1558883Y-5764234D01*
X1561487Y-5765465D01*
X1563957Y-5766946D01*
X1566270Y-5768662D01*
X1568404Y-5770596D01*
X1570338Y-5772730D01*
X1572054Y-5775043D01*
X1573535Y-5777513D01*
X1574766Y-5780117D01*
X1575736Y-5782828D01*
X1576436Y-5785622D01*
X1576859Y-5788471D01*
X1577000Y-5791348D01*
X1577000Y-5892652D01*
X1576859Y-5895529D01*
X1576436Y-5898378D01*
X1575736Y-5901171D01*
X1574766Y-5903883D01*
X1573535Y-5906487D01*
X1572054Y-5908957D01*
X1570338Y-5911270D01*
X1568404Y-5913404D01*
X1566270Y-5915338D01*
X1563957Y-5917054D01*
X1561487Y-5918535D01*
X1558883Y-5919766D01*
X1556171Y-5920736D01*
X1553378Y-5921436D01*
X1550529Y-5921859D01*
X1547652Y-5922000D01*
X1471348Y-5922000D01*
X1468471Y-5921859D01*
X1465622Y-5921436D01*
X1462828Y-5920736D01*
X1460117Y-5919766D01*
X1457513Y-5918535D01*
X1455043Y-5917054D01*
X1452730Y-5915338D01*
X1450596Y-5913404D01*
X1448662Y-5911270D01*
X1446946Y-5908957D01*
X1445465Y-5906487D01*
X1444234Y-5903883D01*
X1443264Y-5901171D01*
X1442564Y-5898378D01*
X1442141Y-5895529D01*
X1442000Y-5892652D01*
X1442000Y-5791348D01*
X1442141Y-5788471D01*
X1442564Y-5785622D01*
X1443264Y-5782828D01*
X1444234Y-5780117D01*
X1445465Y-5777513D01*
X1446946Y-5775043D01*
X1448662Y-5772730D01*
X1450596Y-5770596D01*
X1452730Y-5768662D01*
X1455043Y-5766946D01*
X1457513Y-5765465D01*
X1460117Y-5764234D01*
X1462828Y-5763264D01*
X1465622Y-5762564D01*
X1468471Y-5762141D01*
X1471348Y-5762000D01*
X1547652Y-5762000D01*
X1550529Y-5762141D01*
X1550529Y-5762141D01*
G37*
D23*
X1509500Y-5842000D03*
D22*
G36*
X1755529Y-5762141D02*
X1758378Y-5762564D01*
X1761171Y-5763264D01*
X1763883Y-5764234D01*
X1766487Y-5765465D01*
X1768957Y-5766946D01*
X1771270Y-5768662D01*
X1773404Y-5770596D01*
X1775338Y-5772730D01*
X1777054Y-5775043D01*
X1778535Y-5777513D01*
X1779766Y-5780117D01*
X1780736Y-5782828D01*
X1781436Y-5785622D01*
X1781859Y-5788471D01*
X1782000Y-5791348D01*
X1782000Y-5892652D01*
X1781859Y-5895529D01*
X1781436Y-5898378D01*
X1780736Y-5901171D01*
X1779766Y-5903883D01*
X1778535Y-5906487D01*
X1777054Y-5908957D01*
X1775338Y-5911270D01*
X1773404Y-5913404D01*
X1771270Y-5915338D01*
X1768957Y-5917054D01*
X1766487Y-5918535D01*
X1763883Y-5919766D01*
X1761171Y-5920736D01*
X1758378Y-5921436D01*
X1755529Y-5921859D01*
X1752652Y-5922000D01*
X1676348Y-5922000D01*
X1673471Y-5921859D01*
X1670622Y-5921436D01*
X1667828Y-5920736D01*
X1665117Y-5919766D01*
X1662513Y-5918535D01*
X1660043Y-5917054D01*
X1657730Y-5915338D01*
X1655596Y-5913404D01*
X1653662Y-5911270D01*
X1651946Y-5908957D01*
X1650465Y-5906487D01*
X1649234Y-5903883D01*
X1648264Y-5901171D01*
X1647564Y-5898378D01*
X1647141Y-5895529D01*
X1647000Y-5892652D01*
X1647000Y-5791348D01*
X1647141Y-5788471D01*
X1647564Y-5785622D01*
X1648264Y-5782828D01*
X1649234Y-5780117D01*
X1650465Y-5777513D01*
X1651946Y-5775043D01*
X1653662Y-5772730D01*
X1655596Y-5770596D01*
X1657730Y-5768662D01*
X1660043Y-5766946D01*
X1662513Y-5765465D01*
X1665117Y-5764234D01*
X1667828Y-5763264D01*
X1670622Y-5762564D01*
X1673471Y-5762141D01*
X1676348Y-5762000D01*
X1752652Y-5762000D01*
X1755529Y-5762141D01*
X1755529Y-5762141D01*
G37*
D23*
X1714500Y-5842000D03*
G04 #@! TD*
D22*
G04 #@! TO.C,C4*
G36*
X2530029Y-3386141D02*
X2532878Y-3386564D01*
X2535672Y-3387264D01*
X2538383Y-3388234D01*
X2540987Y-3389465D01*
X2543457Y-3390946D01*
X2545770Y-3392662D01*
X2547904Y-3394596D01*
X2549838Y-3396730D01*
X2551554Y-3399043D01*
X2553035Y-3401513D01*
X2554266Y-3404117D01*
X2555236Y-3406828D01*
X2555936Y-3409622D01*
X2556359Y-3412471D01*
X2556500Y-3415348D01*
X2556500Y-3491652D01*
X2556359Y-3494529D01*
X2555936Y-3497378D01*
X2555236Y-3500171D01*
X2554266Y-3502883D01*
X2553035Y-3505487D01*
X2551554Y-3507957D01*
X2549838Y-3510270D01*
X2547904Y-3512404D01*
X2545770Y-3514338D01*
X2543457Y-3516054D01*
X2540987Y-3517535D01*
X2538383Y-3518766D01*
X2535672Y-3519736D01*
X2532878Y-3520436D01*
X2530029Y-3520859D01*
X2527152Y-3521000D01*
X2425848Y-3521000D01*
X2422971Y-3520859D01*
X2420122Y-3520436D01*
X2417329Y-3519736D01*
X2414617Y-3518766D01*
X2412013Y-3517535D01*
X2409543Y-3516054D01*
X2407230Y-3514338D01*
X2405096Y-3512404D01*
X2403162Y-3510270D01*
X2401446Y-3507957D01*
X2399965Y-3505487D01*
X2398734Y-3502883D01*
X2397764Y-3500171D01*
X2397064Y-3497378D01*
X2396641Y-3494529D01*
X2396500Y-3491652D01*
X2396500Y-3415348D01*
X2396641Y-3412471D01*
X2397064Y-3409622D01*
X2397764Y-3406828D01*
X2398734Y-3404117D01*
X2399965Y-3401513D01*
X2401446Y-3399043D01*
X2403162Y-3396730D01*
X2405096Y-3394596D01*
X2407230Y-3392662D01*
X2409543Y-3390946D01*
X2412013Y-3389465D01*
X2414617Y-3388234D01*
X2417329Y-3387264D01*
X2420122Y-3386564D01*
X2422971Y-3386141D01*
X2425848Y-3386000D01*
X2527152Y-3386000D01*
X2530029Y-3386141D01*
X2530029Y-3386141D01*
G37*
D23*
X2476500Y-3453500D03*
D22*
G36*
X2530029Y-3591141D02*
X2532878Y-3591564D01*
X2535672Y-3592264D01*
X2538383Y-3593234D01*
X2540987Y-3594465D01*
X2543457Y-3595946D01*
X2545770Y-3597662D01*
X2547904Y-3599596D01*
X2549838Y-3601730D01*
X2551554Y-3604043D01*
X2553035Y-3606513D01*
X2554266Y-3609117D01*
X2555236Y-3611828D01*
X2555936Y-3614622D01*
X2556359Y-3617471D01*
X2556500Y-3620348D01*
X2556500Y-3696652D01*
X2556359Y-3699529D01*
X2555936Y-3702378D01*
X2555236Y-3705171D01*
X2554266Y-3707883D01*
X2553035Y-3710487D01*
X2551554Y-3712957D01*
X2549838Y-3715270D01*
X2547904Y-3717404D01*
X2545770Y-3719338D01*
X2543457Y-3721054D01*
X2540987Y-3722535D01*
X2538383Y-3723766D01*
X2535672Y-3724736D01*
X2532878Y-3725436D01*
X2530029Y-3725859D01*
X2527152Y-3726000D01*
X2425848Y-3726000D01*
X2422971Y-3725859D01*
X2420122Y-3725436D01*
X2417329Y-3724736D01*
X2414617Y-3723766D01*
X2412013Y-3722535D01*
X2409543Y-3721054D01*
X2407230Y-3719338D01*
X2405096Y-3717404D01*
X2403162Y-3715270D01*
X2401446Y-3712957D01*
X2399965Y-3710487D01*
X2398734Y-3707883D01*
X2397764Y-3705171D01*
X2397064Y-3702378D01*
X2396641Y-3699529D01*
X2396500Y-3696652D01*
X2396500Y-3620348D01*
X2396641Y-3617471D01*
X2397064Y-3614622D01*
X2397764Y-3611828D01*
X2398734Y-3609117D01*
X2399965Y-3606513D01*
X2401446Y-3604043D01*
X2403162Y-3601730D01*
X2405096Y-3599596D01*
X2407230Y-3597662D01*
X2409543Y-3595946D01*
X2412013Y-3594465D01*
X2414617Y-3593234D01*
X2417329Y-3592264D01*
X2420122Y-3591564D01*
X2422971Y-3591141D01*
X2425848Y-3591000D01*
X2527152Y-3591000D01*
X2530029Y-3591141D01*
X2530029Y-3591141D01*
G37*
D23*
X2476500Y-3658500D03*
G04 #@! TD*
D26*
X1905000Y-5207000D03*
M02*
