M48
;DRILL file {KiCad (5.0.1)-3} date 23/11/2018 15:23:28
;FORMAT={-:-/ absolute / metric / decimal}
FMAT,2
METRIC,TZ
T1C0.400
T2C1.000
T3C1.100
T4C2.200
T5C2.700
T6C3.100
T7C4.100
%
G90
G05
M71
T1
X19.06Y-52.06
T2
X10.21Y-10.15
X12.71Y-10.15
X86.45Y-46.45
X86.45Y-60.95
X88.95Y-60.95
X91.45Y-46.45
X91.45Y-60.95
X31.76Y-8.88
X31.76Y-11.42
X31.76Y-69.84
X31.76Y-72.38
X34.3Y-8.88
X34.3Y-11.42
X34.3Y-69.84
X34.3Y-72.38
X36.84Y-8.88
X36.84Y-11.42
X36.84Y-69.84
X36.84Y-72.38
X39.38Y-8.88
X39.38Y-11.42
X39.38Y-69.84
X39.38Y-72.38
X41.92Y-8.88
X41.92Y-11.42
X41.92Y-69.84
X41.92Y-72.38
X44.46Y-8.88
X44.46Y-11.42
X44.46Y-69.84
X44.46Y-72.38
X47.Y-8.88
X47.Y-11.42
X47.Y-69.84
X47.Y-72.38
X49.54Y-8.88
X49.54Y-11.42
X49.54Y-69.84
X49.54Y-72.38
X52.08Y-8.88
X52.08Y-11.42
X52.08Y-69.84
X52.08Y-72.38
X54.62Y-8.88
X54.62Y-11.42
X54.62Y-69.84
X54.62Y-72.38
X57.16Y-8.88
X57.16Y-11.42
X57.16Y-69.84
X57.16Y-72.38
X59.7Y-8.88
X59.7Y-11.42
X59.7Y-69.84
X59.7Y-72.38
X62.24Y-8.88
X62.24Y-11.42
X62.24Y-69.84
X62.24Y-72.38
X64.78Y-8.88
X64.78Y-11.42
X64.78Y-69.84
X64.78Y-72.38
X67.32Y-8.88
X67.32Y-11.42
X67.32Y-69.84
X67.32Y-72.38
X69.86Y-8.88
X69.86Y-11.42
X69.86Y-69.84
X69.86Y-72.38
X72.4Y-8.88
X72.4Y-11.42
X72.4Y-69.84
X72.4Y-72.38
X74.94Y-8.88
X74.94Y-11.42
X74.94Y-69.84
X74.94Y-72.38
X77.48Y-8.88
X77.48Y-11.42
X77.48Y-69.84
X77.48Y-72.38
X21.6Y-34.28
X21.6Y-36.82
X21.6Y-39.36
X21.6Y-41.9
X21.6Y-44.44
X21.6Y-46.98
X21.6Y-49.52
X21.6Y-52.06
X21.6Y-54.6
X21.6Y-57.14
X21.6Y-59.68
X21.6Y-62.22
X21.6Y-64.76
X21.6Y-67.3
X21.6Y-69.84
X21.6Y-72.38
X7.63Y-36.185
X7.63Y-38.725
X7.63Y-41.265
X7.63Y-43.805
X7.63Y-46.345
T3
X86.37Y-17.62
X86.37Y-24.12
X90.87Y-17.62
X90.87Y-24.12
T4
X83.35Y-53.45
X94.55Y-53.45
T5
X7.98Y-23.485
X10.98Y-28.185
T6
X13.98Y-23.485
T7
X96.Y-76.
X4.Y-4.
X96.Y-4.
X4.Y-76.
T0
M30
