G04 #@! TF.GenerationSoftware,KiCad,Pcbnew,(5.0.1)-3*
G04 #@! TF.CreationDate,2018-11-23T15:23:08+01:00*
G04 #@! TF.ProjectId,hwpboard,687770626F6172642E6B696361645F70,rev?*
G04 #@! TF.SameCoordinates,PX67c4f10PY2830160*
G04 #@! TF.FileFunction,Copper,L1,Top,Signal*
G04 #@! TF.FilePolarity,Positive*
%FSLAX45Y45*%
G04 Gerber Fmt 4.5, Leading zero omitted, Abs format (unit mm)*
G04 Created by KiCad (PCBNEW (5.0.1)-3) date 23/11/2018 15:23:08*
%MOMM*%
%LPD*%
G01*
G04 APERTURE LIST*
G04 #@! TA.AperFunction,NonConductor*
%ADD10C,0.200000*%
G04 #@! TD*
G04 #@! TA.AperFunction,ComponentPad*
%ADD11R,2.600000X1.800000*%
G04 #@! TD*
G04 #@! TA.AperFunction,ComponentPad*
%ADD12O,2.600000X1.800000*%
G04 #@! TD*
G04 #@! TA.AperFunction,ComponentPad*
%ADD13C,1.700000*%
G04 #@! TD*
G04 #@! TA.AperFunction,ComponentPad*
%ADD14R,1.700000X1.700000*%
G04 #@! TD*
G04 #@! TA.AperFunction,ComponentPad*
%ADD15R,4.100000X4.100000*%
G04 #@! TD*
G04 #@! TA.AperFunction,ComponentPad*
%ADD16C,4.000000*%
G04 #@! TD*
G04 #@! TA.AperFunction,ComponentPad*
%ADD17C,6.000000*%
G04 #@! TD*
G04 #@! TA.AperFunction,ComponentPad*
%ADD18O,1.700000X1.700000*%
G04 #@! TD*
G04 #@! TA.AperFunction,ComponentPad*
%ADD19C,2.000000*%
G04 #@! TD*
G04 #@! TA.AperFunction,ComponentPad*
%ADD20C,2.800000*%
G04 #@! TD*
G04 #@! TA.AperFunction,ComponentPad*
%ADD21R,2.000000X2.000000*%
G04 #@! TD*
G04 #@! TA.AperFunction,SMDPad,CuDef*
%ADD22R,0.800000X0.900000*%
G04 #@! TD*
G04 #@! TA.AperFunction,Conductor*
%ADD23C,0.100000*%
G04 #@! TD*
G04 #@! TA.AperFunction,SMDPad,CuDef*
%ADD24C,1.150000*%
G04 #@! TD*
G04 #@! TA.AperFunction,ComponentPad*
%ADD25R,1.600000X1.600000*%
G04 #@! TD*
G04 #@! TA.AperFunction,ComponentPad*
%ADD26C,1.600000*%
G04 #@! TD*
G04 #@! TA.AperFunction,ViaPad*
%ADD27C,1.000000*%
G04 #@! TD*
G04 #@! TA.AperFunction,Conductor*
%ADD28C,0.609600*%
G04 #@! TD*
G04 #@! TA.AperFunction,Conductor*
%ADD29C,0.304800*%
G04 #@! TD*
G04 #@! TA.AperFunction,Conductor*
%ADD30C,0.254000*%
G04 #@! TD*
G04 APERTURE END LIST*
D10*
X229690Y-3568500D02*
X220762Y-3563738D01*
X206476Y-3563738D01*
X191595Y-3568500D01*
X180881Y-3578024D01*
X174928Y-3587548D01*
X167786Y-3606595D01*
X166000Y-3620881D01*
X168381Y-3639928D01*
X171952Y-3649452D01*
X180286Y-3658976D01*
X193976Y-3663738D01*
X203500Y-3663738D01*
X218381Y-3658976D01*
X223738Y-3654214D01*
X227905Y-3620881D01*
X208857Y-3620881D01*
X265405Y-3663738D02*
X277905Y-3563738D01*
X322548Y-3663738D01*
X335048Y-3563738D01*
X370167Y-3663738D02*
X382667Y-3563738D01*
X406476Y-3563738D01*
X420167Y-3568500D01*
X428500Y-3578024D01*
X432071Y-3587548D01*
X434452Y-3606595D01*
X432667Y-3620881D01*
X425524Y-3639928D01*
X419571Y-3649452D01*
X408857Y-3658976D01*
X393976Y-3663738D01*
X370167Y-3663738D01*
X938714Y-771714D02*
X1053000Y-771714D01*
X1256214Y-771714D02*
X1370500Y-771714D01*
X1313357Y-828857D02*
X1313357Y-714571D01*
X171952Y-4627357D02*
X205286Y-4627357D01*
X213024Y-4679738D02*
X165405Y-4679738D01*
X177905Y-4579738D01*
X225524Y-4579738D01*
X264214Y-4613071D02*
X255881Y-4679738D01*
X263024Y-4622595D02*
X268381Y-4617833D01*
X278500Y-4613071D01*
X292786Y-4613071D01*
X301714Y-4617833D01*
X305286Y-4627357D01*
X298738Y-4679738D01*
X165405Y-4425738D02*
X177905Y-4325738D01*
X171952Y-4373357D02*
X229095Y-4373357D01*
X222548Y-4425738D02*
X235048Y-4325738D01*
X321357Y-4359071D02*
X313024Y-4425738D01*
X278500Y-4359071D02*
X271952Y-4411452D01*
X275524Y-4420976D01*
X284452Y-4425738D01*
X298738Y-4425738D01*
X308857Y-4420976D01*
X314214Y-4416214D01*
X360643Y-4425738D02*
X368976Y-4359071D01*
X367786Y-4368595D02*
X373143Y-4363833D01*
X383262Y-4359071D01*
X397548Y-4359071D01*
X406476Y-4363833D01*
X410048Y-4373357D01*
X403500Y-4425738D01*
X410048Y-4373357D02*
X416000Y-4363833D01*
X426119Y-4359071D01*
X440405Y-4359071D01*
X449333Y-4363833D01*
X452905Y-4373357D01*
X446357Y-4425738D01*
X163619Y-4071738D02*
X220762Y-4071738D01*
X179690Y-4171738D02*
X192190Y-4071738D01*
X241595Y-4171738D02*
X249928Y-4105071D01*
X248738Y-4114595D02*
X254095Y-4109833D01*
X264214Y-4105071D01*
X278500Y-4105071D01*
X287429Y-4109833D01*
X291000Y-4119357D01*
X284452Y-4171738D01*
X291000Y-4119357D02*
X296952Y-4109833D01*
X307071Y-4105071D01*
X321357Y-4105071D01*
X330286Y-4109833D01*
X333857Y-4119357D01*
X327310Y-4171738D01*
X383262Y-4105071D02*
X370762Y-4205071D01*
X382667Y-4109833D02*
X392786Y-4105071D01*
X411833Y-4105071D01*
X420762Y-4109833D01*
X424928Y-4114595D01*
X428500Y-4124119D01*
X424928Y-4152690D01*
X418976Y-4162214D01*
X413619Y-4166976D01*
X403500Y-4171738D01*
X384452Y-4171738D01*
X375524Y-4166976D01*
X165405Y-3917738D02*
X177905Y-3817738D01*
X216000Y-3817738D01*
X224928Y-3822500D01*
X229095Y-3827262D01*
X232667Y-3836786D01*
X230881Y-3851071D01*
X224928Y-3860595D01*
X219571Y-3865357D01*
X209452Y-3870119D01*
X171357Y-3870119D01*
X268381Y-3817738D02*
X279690Y-3917738D01*
X307667Y-3846309D01*
X317786Y-3917738D01*
X354095Y-3817738D01*
X379690Y-3917738D02*
X392190Y-3817738D01*
X416595Y-3889167D01*
X458857Y-3817738D01*
X446357Y-3917738D01*
X9867857Y-7150393D02*
X9717857Y-7131643D01*
X9789286Y-7140571D02*
X9789286Y-7054857D01*
X9867857Y-7064678D02*
X9717857Y-7045928D01*
X9767857Y-6916464D02*
X9867857Y-6928964D01*
X9767857Y-6980750D02*
X9846429Y-6990571D01*
X9860714Y-6985214D01*
X9867857Y-6971821D01*
X9867857Y-6950393D01*
X9860714Y-6935214D01*
X9853571Y-6927178D01*
X9867857Y-6857536D02*
X9767857Y-6845036D01*
X9782143Y-6846821D02*
X9775000Y-6838786D01*
X9767857Y-6823607D01*
X9767857Y-6802178D01*
X9775000Y-6788786D01*
X9789286Y-6783428D01*
X9867857Y-6793250D01*
X9789286Y-6783428D02*
X9775000Y-6774500D01*
X9767857Y-6759321D01*
X9767857Y-6737893D01*
X9775000Y-6724500D01*
X9789286Y-6719143D01*
X9867857Y-6728964D01*
X9867857Y-6657536D02*
X9767857Y-6645036D01*
X9717857Y-6638786D02*
X9725000Y-6646821D01*
X9732143Y-6640571D01*
X9725000Y-6632536D01*
X9717857Y-6638786D01*
X9732143Y-6640571D01*
X9867857Y-6521821D02*
X9717857Y-6503071D01*
X9860714Y-6520928D02*
X9867857Y-6536107D01*
X9867857Y-6564678D01*
X9860714Y-6578071D01*
X9853571Y-6584321D01*
X9839286Y-6589678D01*
X9796429Y-6584321D01*
X9782143Y-6575393D01*
X9775000Y-6567357D01*
X9767857Y-6552178D01*
X9767857Y-6523607D01*
X9775000Y-6510214D01*
X9867857Y-6450393D02*
X9767857Y-6437893D01*
X9717857Y-6431643D02*
X9725000Y-6439678D01*
X9732143Y-6433428D01*
X9725000Y-6425393D01*
X9717857Y-6431643D01*
X9732143Y-6433428D01*
X9767857Y-6387893D02*
X9767857Y-6330750D01*
X9717857Y-6360214D02*
X9846429Y-6376286D01*
X9860714Y-6370928D01*
X9867857Y-6357536D01*
X9867857Y-6343250D01*
X9767857Y-6295036D02*
X9867857Y-6271821D01*
X9767857Y-6223607D02*
X9867857Y-6271821D01*
X9903571Y-6290571D01*
X9910714Y-6298607D01*
X9917857Y-6313786D01*
X9860714Y-6070928D02*
X9867857Y-6057536D01*
X9867857Y-6028964D01*
X9860714Y-6013786D01*
X9846429Y-6004857D01*
X9839286Y-6003964D01*
X9825000Y-6009321D01*
X9817857Y-6022714D01*
X9817857Y-6044143D01*
X9810714Y-6057536D01*
X9796429Y-6062893D01*
X9789286Y-6062000D01*
X9775000Y-6053071D01*
X9767857Y-6037893D01*
X9767857Y-6016464D01*
X9775000Y-6003071D01*
X9860714Y-5885214D02*
X9867857Y-5900393D01*
X9867857Y-5928964D01*
X9860714Y-5942357D01*
X9846429Y-5947714D01*
X9789286Y-5940571D01*
X9775000Y-5931643D01*
X9767857Y-5916464D01*
X9767857Y-5887893D01*
X9775000Y-5874500D01*
X9789286Y-5869143D01*
X9803571Y-5870928D01*
X9817857Y-5944143D01*
X9767857Y-5802178D02*
X9867857Y-5814678D01*
X9782143Y-5803964D02*
X9775000Y-5795928D01*
X9767857Y-5780750D01*
X9767857Y-5759321D01*
X9775000Y-5745928D01*
X9789286Y-5740571D01*
X9867857Y-5750393D01*
X9860714Y-5685214D02*
X9867857Y-5671821D01*
X9867857Y-5643250D01*
X9860714Y-5628071D01*
X9846429Y-5619143D01*
X9839286Y-5618250D01*
X9825000Y-5623607D01*
X9817857Y-5637000D01*
X9817857Y-5658428D01*
X9810714Y-5671821D01*
X9796429Y-5677178D01*
X9789286Y-5676286D01*
X9775000Y-5667357D01*
X9767857Y-5652178D01*
X9767857Y-5630750D01*
X9775000Y-5617357D01*
X9867857Y-5536107D02*
X9860714Y-5549500D01*
X9853571Y-5555750D01*
X9839286Y-5561107D01*
X9796429Y-5555750D01*
X9782143Y-5546821D01*
X9775000Y-5538786D01*
X9767857Y-5523607D01*
X9767857Y-5502179D01*
X9775000Y-5488786D01*
X9782143Y-5482536D01*
X9796429Y-5477179D01*
X9839286Y-5482536D01*
X9853571Y-5491464D01*
X9860714Y-5499500D01*
X9867857Y-5514679D01*
X9867857Y-5536107D01*
X9867857Y-5421821D02*
X9767857Y-5409321D01*
X9796429Y-5412893D02*
X9782143Y-5403964D01*
X9775000Y-5395929D01*
X9767857Y-5380750D01*
X9767857Y-5366464D01*
X924428Y-7663857D02*
X960143Y-7813857D01*
X988714Y-7706714D01*
X1017286Y-7813857D01*
X1053000Y-7663857D01*
X1103000Y-7806714D02*
X1124429Y-7813857D01*
X1160143Y-7813857D01*
X1174429Y-7806714D01*
X1181571Y-7799571D01*
X1188714Y-7785286D01*
X1188714Y-7771000D01*
X1181571Y-7756714D01*
X1174429Y-7749571D01*
X1160143Y-7742428D01*
X1131571Y-7735286D01*
X1117286Y-7728143D01*
X1110143Y-7721000D01*
X1103000Y-7706714D01*
X1103000Y-7692428D01*
X1110143Y-7678143D01*
X1117286Y-7671000D01*
X1131571Y-7663857D01*
X1167286Y-7663857D01*
X1188714Y-7671000D01*
X1445857Y-7813857D02*
X1360143Y-7813857D01*
X1403000Y-7813857D02*
X1403000Y-7663857D01*
X1388714Y-7685286D01*
X1374429Y-7699571D01*
X1360143Y-7706714D01*
X1531571Y-7728143D02*
X1517286Y-7721000D01*
X1510143Y-7713857D01*
X1503000Y-7699571D01*
X1503000Y-7692428D01*
X1510143Y-7678143D01*
X1517286Y-7671000D01*
X1531571Y-7663857D01*
X1560143Y-7663857D01*
X1574428Y-7671000D01*
X1581571Y-7678143D01*
X1588714Y-7692428D01*
X1588714Y-7699571D01*
X1581571Y-7713857D01*
X1574428Y-7721000D01*
X1560143Y-7728143D01*
X1531571Y-7728143D01*
X1517286Y-7735286D01*
X1510143Y-7742428D01*
X1503000Y-7756714D01*
X1503000Y-7785286D01*
X1510143Y-7799571D01*
X1517286Y-7806714D01*
X1531571Y-7813857D01*
X1560143Y-7813857D01*
X1574428Y-7806714D01*
X1581571Y-7799571D01*
X1588714Y-7785286D01*
X1588714Y-7756714D01*
X1581571Y-7742428D01*
X1574428Y-7735286D01*
X1560143Y-7728143D01*
X1760143Y-7656714D02*
X1631571Y-7849571D01*
X1888714Y-7813857D02*
X1803000Y-7813857D01*
X1845857Y-7813857D02*
X1845857Y-7663857D01*
X1831571Y-7685286D01*
X1817286Y-7699571D01*
X1803000Y-7706714D01*
X1960143Y-7813857D02*
X1988714Y-7813857D01*
X2003000Y-7806714D01*
X2010143Y-7799571D01*
X2024428Y-7778143D01*
X2031571Y-7749571D01*
X2031571Y-7692428D01*
X2024428Y-7678143D01*
X2017286Y-7671000D01*
X2003000Y-7663857D01*
X1974428Y-7663857D01*
X1960143Y-7671000D01*
X1953000Y-7678143D01*
X1945857Y-7692428D01*
X1945857Y-7728143D01*
X1953000Y-7742428D01*
X1960143Y-7749571D01*
X1974428Y-7756714D01*
X2003000Y-7756714D01*
X2017286Y-7749571D01*
X2024428Y-7742428D01*
X2031571Y-7728143D01*
X2103000Y-7806714D02*
X2103000Y-7813857D01*
X2095857Y-7828143D01*
X2088714Y-7835286D01*
X2260143Y-7663857D02*
X2345857Y-7663857D01*
X2303000Y-7813857D02*
X2303000Y-7663857D01*
X2424429Y-7663857D02*
X2438714Y-7663857D01*
X2453000Y-7671000D01*
X2460143Y-7678143D01*
X2467286Y-7692428D01*
X2474429Y-7721000D01*
X2474429Y-7756714D01*
X2467286Y-7785286D01*
X2460143Y-7799571D01*
X2453000Y-7806714D01*
X2438714Y-7813857D01*
X2424429Y-7813857D01*
X2410143Y-7806714D01*
X2403000Y-7799571D01*
X2395857Y-7785286D01*
X2388714Y-7756714D01*
X2388714Y-7721000D01*
X2395857Y-7692428D01*
X2403000Y-7678143D01*
X2410143Y-7671000D01*
X2424429Y-7663857D01*
X2531571Y-7678143D02*
X2538714Y-7671000D01*
X2553000Y-7663857D01*
X2588714Y-7663857D01*
X2603000Y-7671000D01*
X2610143Y-7678143D01*
X2617286Y-7692428D01*
X2617286Y-7706714D01*
X2610143Y-7728143D01*
X2524429Y-7813857D01*
X2617286Y-7813857D01*
X2688714Y-7806714D02*
X2688714Y-7813857D01*
X2681571Y-7828143D01*
X2674429Y-7835286D01*
X2938714Y-7813857D02*
X2867286Y-7813857D01*
X2867286Y-7663857D01*
X3045857Y-7806714D02*
X3031571Y-7813857D01*
X3003000Y-7813857D01*
X2988714Y-7806714D01*
X2981571Y-7792428D01*
X2981571Y-7735286D01*
X2988714Y-7721000D01*
X3003000Y-7713857D01*
X3031571Y-7713857D01*
X3045857Y-7721000D01*
X3053000Y-7735286D01*
X3053000Y-7749571D01*
X2981571Y-7763857D01*
X3174428Y-7806714D02*
X3160143Y-7813857D01*
X3131571Y-7813857D01*
X3117286Y-7806714D01*
X3110143Y-7792428D01*
X3110143Y-7735286D01*
X3117286Y-7721000D01*
X3131571Y-7713857D01*
X3160143Y-7713857D01*
X3174428Y-7721000D01*
X3181571Y-7735286D01*
X3181571Y-7749571D01*
X3110143Y-7763857D01*
X3231571Y-7713857D02*
X3267286Y-7813857D01*
X3303000Y-7713857D01*
X3360143Y-7813857D02*
X3360143Y-7713857D01*
X3360143Y-7663857D02*
X3353000Y-7671000D01*
X3360143Y-7678143D01*
X3367286Y-7671000D01*
X3360143Y-7663857D01*
X3360143Y-7678143D01*
X3545857Y-7813857D02*
X3545857Y-7663857D01*
X3631571Y-7813857D02*
X3567286Y-7728143D01*
X3631571Y-7663857D02*
X3545857Y-7749571D01*
X3760143Y-7813857D02*
X3760143Y-7735286D01*
X3753000Y-7721000D01*
X3738714Y-7713857D01*
X3710143Y-7713857D01*
X3695857Y-7721000D01*
X3760143Y-7806714D02*
X3745857Y-7813857D01*
X3710143Y-7813857D01*
X3695857Y-7806714D01*
X3688714Y-7792428D01*
X3688714Y-7778143D01*
X3695857Y-7763857D01*
X3710143Y-7756714D01*
X3745857Y-7756714D01*
X3760143Y-7749571D01*
X3831571Y-7813857D02*
X3831571Y-7713857D01*
X3831571Y-7742428D02*
X3838714Y-7728143D01*
X3845857Y-7721000D01*
X3860143Y-7713857D01*
X3874428Y-7713857D01*
X3924428Y-7713857D02*
X3924428Y-7842428D01*
X3917286Y-7856714D01*
X3903000Y-7863857D01*
X3895857Y-7863857D01*
X3924428Y-7663857D02*
X3917286Y-7671000D01*
X3924428Y-7678143D01*
X3931571Y-7671000D01*
X3924428Y-7663857D01*
X3924428Y-7678143D01*
X4060143Y-7813857D02*
X4060143Y-7735286D01*
X4053000Y-7721000D01*
X4038714Y-7713857D01*
X4010143Y-7713857D01*
X3995857Y-7721000D01*
X4060143Y-7806714D02*
X4045857Y-7813857D01*
X4010143Y-7813857D01*
X3995857Y-7806714D01*
X3988714Y-7792428D01*
X3988714Y-7778143D01*
X3995857Y-7763857D01*
X4010143Y-7756714D01*
X4045857Y-7756714D01*
X4060143Y-7749571D01*
X4153000Y-7813857D02*
X4138714Y-7806714D01*
X4131571Y-7792428D01*
X4131571Y-7663857D01*
X4274429Y-7813857D02*
X4274429Y-7735286D01*
X4267286Y-7721000D01*
X4253000Y-7713857D01*
X4224429Y-7713857D01*
X4210143Y-7721000D01*
X4274429Y-7806714D02*
X4260143Y-7813857D01*
X4224429Y-7813857D01*
X4210143Y-7806714D01*
X4203000Y-7792428D01*
X4203000Y-7778143D01*
X4210143Y-7763857D01*
X4224429Y-7756714D01*
X4260143Y-7756714D01*
X4274429Y-7749571D01*
X4345857Y-7813857D02*
X4345857Y-7713857D01*
X4345857Y-7663857D02*
X4338714Y-7671000D01*
X4345857Y-7678143D01*
X4353000Y-7671000D01*
X4345857Y-7663857D01*
X4345857Y-7678143D01*
X4417286Y-7713857D02*
X4417286Y-7813857D01*
X4417286Y-7728143D02*
X4424429Y-7721000D01*
X4438714Y-7713857D01*
X4460143Y-7713857D01*
X4474429Y-7721000D01*
X4481571Y-7735286D01*
X4481571Y-7813857D01*
X4610143Y-7806714D02*
X4595857Y-7813857D01*
X4567286Y-7813857D01*
X4553000Y-7806714D01*
X4545857Y-7792428D01*
X4545857Y-7735286D01*
X4553000Y-7721000D01*
X4567286Y-7713857D01*
X4595857Y-7713857D01*
X4610143Y-7721000D01*
X4617286Y-7735286D01*
X4617286Y-7749571D01*
X4545857Y-7763857D01*
X4681571Y-7713857D02*
X4681571Y-7813857D01*
X4681571Y-7728143D02*
X4688714Y-7721000D01*
X4703000Y-7713857D01*
X4724429Y-7713857D01*
X4738714Y-7721000D01*
X4745857Y-7735286D01*
X4745857Y-7813857D01*
X4824429Y-7806714D02*
X4824429Y-7813857D01*
X4817286Y-7828143D01*
X4810143Y-7835286D01*
X5003000Y-7813857D02*
X5003000Y-7663857D01*
X5053000Y-7771000D01*
X5103000Y-7663857D01*
X5103000Y-7813857D01*
X5238714Y-7813857D02*
X5238714Y-7735286D01*
X5231571Y-7721000D01*
X5217286Y-7713857D01*
X5188714Y-7713857D01*
X5174429Y-7721000D01*
X5238714Y-7806714D02*
X5224429Y-7813857D01*
X5188714Y-7813857D01*
X5174429Y-7806714D01*
X5167286Y-7792428D01*
X5167286Y-7778143D01*
X5174429Y-7763857D01*
X5188714Y-7756714D01*
X5224429Y-7756714D01*
X5238714Y-7749571D01*
X5310143Y-7813857D02*
X5310143Y-7713857D01*
X5310143Y-7742428D02*
X5317286Y-7728143D01*
X5324429Y-7721000D01*
X5338714Y-7713857D01*
X5353000Y-7713857D01*
X5381571Y-7713857D02*
X5438714Y-7713857D01*
X5403000Y-7663857D02*
X5403000Y-7792428D01*
X5410143Y-7806714D01*
X5424429Y-7813857D01*
X5438714Y-7813857D01*
X5488714Y-7813857D02*
X5488714Y-7713857D01*
X5488714Y-7663857D02*
X5481571Y-7671000D01*
X5488714Y-7678143D01*
X5495857Y-7671000D01*
X5488714Y-7663857D01*
X5488714Y-7678143D01*
X5560143Y-7713857D02*
X5560143Y-7813857D01*
X5560143Y-7728143D02*
X5567286Y-7721000D01*
X5581571Y-7713857D01*
X5603000Y-7713857D01*
X5617286Y-7721000D01*
X5624428Y-7735286D01*
X5624428Y-7813857D01*
X5810143Y-7813857D02*
X5810143Y-7663857D01*
X5895857Y-7813857D02*
X5831571Y-7728143D01*
X5895857Y-7663857D02*
X5810143Y-7749571D01*
X5981571Y-7813857D02*
X5967286Y-7806714D01*
X5960143Y-7799571D01*
X5953000Y-7785286D01*
X5953000Y-7742428D01*
X5960143Y-7728143D01*
X5967286Y-7721000D01*
X5981571Y-7713857D01*
X6003000Y-7713857D01*
X6017286Y-7721000D01*
X6024428Y-7728143D01*
X6031571Y-7742428D01*
X6031571Y-7785286D01*
X6024428Y-7799571D01*
X6017286Y-7806714D01*
X6003000Y-7813857D01*
X5981571Y-7813857D01*
X6088714Y-7806714D02*
X6103000Y-7813857D01*
X6131571Y-7813857D01*
X6145857Y-7806714D01*
X6153000Y-7792428D01*
X6153000Y-7785286D01*
X6145857Y-7771000D01*
X6131571Y-7763857D01*
X6110143Y-7763857D01*
X6095857Y-7756714D01*
X6088714Y-7742428D01*
X6088714Y-7735286D01*
X6095857Y-7721000D01*
X6110143Y-7713857D01*
X6131571Y-7713857D01*
X6145857Y-7721000D01*
X6088714Y-7656714D02*
X6117286Y-7678143D01*
X6145857Y-7656714D01*
X6195857Y-7713857D02*
X6253000Y-7713857D01*
X6267286Y-7663857D02*
X6260143Y-7685286D01*
X6217286Y-7663857D02*
X6217286Y-7792428D01*
X6224428Y-7806714D01*
X6238714Y-7813857D01*
X6253000Y-7813857D01*
X6381571Y-7813857D02*
X6381571Y-7735286D01*
X6374428Y-7721000D01*
X6360143Y-7713857D01*
X6331571Y-7713857D01*
X6317286Y-7721000D01*
X6381571Y-7806714D02*
X6367286Y-7813857D01*
X6331571Y-7813857D01*
X6317286Y-7806714D01*
X6310143Y-7792428D01*
X6310143Y-7778143D01*
X6317286Y-7763857D01*
X6331571Y-7756714D01*
X6367286Y-7756714D01*
X6381571Y-7749571D01*
X6360143Y-7656714D02*
X6338714Y-7678143D01*
X6474428Y-7813857D02*
X6460143Y-7806714D01*
X6453000Y-7792428D01*
X6453000Y-7663857D01*
D11*
G04 #@! TO.P,LCD1,1*
G04 #@! TO.N,GND*
X2160000Y-7238000D03*
D12*
G04 #@! TO.P,LCD1,2*
G04 #@! TO.N,+5V*
X2160000Y-6984000D03*
G04 #@! TO.P,LCD1,3*
G04 #@! TO.N,DAC0*
X2160000Y-6730000D03*
G04 #@! TO.P,LCD1,4*
G04 #@! TO.N,RS*
X2160000Y-6476000D03*
G04 #@! TO.P,LCD1,5*
G04 #@! TO.N,GND*
X2160000Y-6222000D03*
G04 #@! TO.P,LCD1,6*
G04 #@! TO.N,E*
X2160000Y-5968000D03*
G04 #@! TO.P,LCD1,7*
G04 #@! TO.N,d0*
X2160000Y-5714000D03*
G04 #@! TO.P,LCD1,8*
G04 #@! TO.N,d1*
X2160000Y-5460000D03*
G04 #@! TO.P,LCD1,9*
G04 #@! TO.N,d2*
X2160000Y-5206000D03*
G04 #@! TO.P,LCD1,10*
G04 #@! TO.N,d3*
X2160000Y-4952000D03*
G04 #@! TO.P,LCD1,11*
G04 #@! TO.N,d4*
X2160000Y-4698000D03*
G04 #@! TO.P,LCD1,12*
G04 #@! TO.N,d5*
X2160000Y-4444000D03*
G04 #@! TO.P,LCD1,13*
G04 #@! TO.N,d6*
X2160000Y-4190000D03*
G04 #@! TO.P,LCD1,14*
G04 #@! TO.N,d7*
X2160000Y-3936000D03*
G04 #@! TO.P,LCD1,15*
G04 #@! TO.N,+5V*
X2160000Y-3682000D03*
G04 #@! TO.P,LCD1,16*
G04 #@! TO.N,brightness*
X2160000Y-3428000D03*
G04 #@! TD*
D13*
G04 #@! TO.P,NUCBRD1,76*
G04 #@! TO.N,N/C*
X7748000Y-7238000D03*
G04 #@! TO.P,NUCBRD1,75*
X7748000Y-6984000D03*
G04 #@! TO.P,NUCBRD1,74*
X7494000Y-7238000D03*
G04 #@! TO.P,NUCBRD1,73*
X7494000Y-6984000D03*
G04 #@! TO.P,NUCBRD1,72*
X7240000Y-7238000D03*
G04 #@! TO.P,NUCBRD1,71*
X7240000Y-6984000D03*
G04 #@! TO.P,NUCBRD1,70*
G04 #@! TO.N,GND*
X6986000Y-7238000D03*
G04 #@! TO.P,NUCBRD1,69*
G04 #@! TO.N,N/C*
X6986000Y-6984000D03*
G04 #@! TO.P,NUCBRD1,68*
X6732000Y-7238000D03*
G04 #@! TO.P,NUCBRD1,67*
G04 #@! TO.N,btn1*
X6732000Y-6984000D03*
G04 #@! TO.P,NUCBRD1,66*
G04 #@! TO.N,N/C*
X6478000Y-7238000D03*
G04 #@! TO.P,NUCBRD1,65*
G04 #@! TO.N,btn0*
X6478000Y-6984000D03*
G04 #@! TO.P,NUCBRD1,64*
G04 #@! TO.N,N/C*
X6224000Y-7238000D03*
G04 #@! TO.P,NUCBRD1,63*
G04 #@! TO.N,rotary0*
X6224000Y-6984000D03*
G04 #@! TO.P,NUCBRD1,62*
G04 #@! TO.N,N/C*
X5970000Y-7238000D03*
G04 #@! TO.P,NUCBRD1,61*
G04 #@! TO.N,rotary1*
X5970000Y-6984000D03*
G04 #@! TO.P,NUCBRD1,60*
G04 #@! TO.N,N/C*
X5716000Y-7238000D03*
G04 #@! TO.P,NUCBRD1,59*
X5716000Y-6984000D03*
G04 #@! TO.P,NUCBRD1,58*
G04 #@! TO.N,GND*
X5462000Y-7238000D03*
G04 #@! TO.P,NUCBRD1,57*
G04 #@! TO.N,N/C*
X5462000Y-6984000D03*
G04 #@! TO.P,NUCBRD1,56*
X5208000Y-7238000D03*
G04 #@! TO.P,NUCBRD1,55*
G04 #@! TO.N,d7*
X5208000Y-6984000D03*
G04 #@! TO.P,NUCBRD1,54*
G04 #@! TO.N,d6*
X4954000Y-7238000D03*
G04 #@! TO.P,NUCBRD1,53*
G04 #@! TO.N,d5*
X4954000Y-6984000D03*
G04 #@! TO.P,NUCBRD1,52*
G04 #@! TO.N,N/C*
X4700000Y-7238000D03*
G04 #@! TO.P,NUCBRD1,51*
G04 #@! TO.N,d4*
X4700000Y-6984000D03*
G04 #@! TO.P,NUCBRD1,50*
G04 #@! TO.N,N/C*
X4446000Y-7238000D03*
G04 #@! TO.P,NUCBRD1,49*
G04 #@! TO.N,d3*
X4446000Y-6984000D03*
G04 #@! TO.P,NUCBRD1,48*
G04 #@! TO.N,N/C*
X4192000Y-7238000D03*
G04 #@! TO.P,NUCBRD1,47*
G04 #@! TO.N,GND*
X4192000Y-6984000D03*
G04 #@! TO.P,NUCBRD1,46*
G04 #@! TO.N,N/C*
X3938000Y-7238000D03*
G04 #@! TO.P,NUCBRD1,45*
X3938000Y-6984000D03*
G04 #@! TO.P,NUCBRD1,44*
G04 #@! TO.N,d2*
X3684000Y-7238000D03*
G04 #@! TO.P,NUCBRD1,43*
G04 #@! TO.N,d1*
X3684000Y-6984000D03*
G04 #@! TO.P,NUCBRD1,42*
G04 #@! TO.N,d0*
X3430000Y-7238000D03*
G04 #@! TO.P,NUCBRD1,41*
G04 #@! TO.N,PWM_LCD*
X3430000Y-6984000D03*
G04 #@! TO.P,NUCBRD1,40*
G04 #@! TO.N,RS*
X3176000Y-7238000D03*
G04 #@! TO.P,NUCBRD1,39*
G04 #@! TO.N,E*
X3176000Y-6984000D03*
G04 #@! TO.P,NUCBRD1,38*
G04 #@! TO.N,humid_out*
X7748000Y-1142000D03*
G04 #@! TO.P,NUCBRD1,37*
G04 #@! TO.N,N/C*
X7748000Y-888000D03*
G04 #@! TO.P,NUCBRD1,36*
G04 #@! TO.N,temp_out*
X7494000Y-1142000D03*
G04 #@! TO.P,NUCBRD1,35*
G04 #@! TO.N,N/C*
X7494000Y-888000D03*
G04 #@! TO.P,NUCBRD1,34*
X7240000Y-1142000D03*
G04 #@! TO.P,NUCBRD1,33*
X7240000Y-888000D03*
G04 #@! TO.P,NUCBRD1,32*
G04 #@! TO.N,DAC0*
X6986000Y-1142000D03*
G04 #@! TO.P,NUCBRD1,31*
G04 #@! TO.N,N/C*
X6986000Y-888000D03*
G04 #@! TO.P,NUCBRD1,30*
X6732000Y-1142000D03*
G04 #@! TO.P,NUCBRD1,29*
X6732000Y-888000D03*
G04 #@! TO.P,NUCBRD1,28*
X6478000Y-1142000D03*
G04 #@! TO.P,NUCBRD1,27*
X6478000Y-888000D03*
G04 #@! TO.P,NUCBRD1,26*
X6224000Y-1142000D03*
G04 #@! TO.P,NUCBRD1,25*
X6224000Y-888000D03*
G04 #@! TO.P,NUCBRD1,24*
X5970000Y-1142000D03*
G04 #@! TO.P,NUCBRD1,23*
X5970000Y-888000D03*
G04 #@! TO.P,NUCBRD1,22*
G04 #@! TO.N,GND*
X5716000Y-1142000D03*
G04 #@! TO.P,NUCBRD1,21*
G04 #@! TO.N,PWM_sensor*
X5716000Y-888000D03*
G04 #@! TO.P,NUCBRD1,20*
G04 #@! TO.N,GND*
X5462000Y-1142000D03*
G04 #@! TO.P,NUCBRD1,19*
X5462000Y-888000D03*
G04 #@! TO.P,NUCBRD1,18*
G04 #@! TO.N,+5V*
X5208000Y-1142000D03*
G04 #@! TO.P,NUCBRD1,17*
G04 #@! TO.N,N/C*
X5208000Y-888000D03*
G04 #@! TO.P,NUCBRD1,16*
X4954000Y-1142000D03*
G04 #@! TO.P,NUCBRD1,15*
X4954000Y-888000D03*
G04 #@! TO.P,NUCBRD1,14*
X4700000Y-1142000D03*
G04 #@! TO.P,NUCBRD1,13*
X4700000Y-888000D03*
G04 #@! TO.P,NUCBRD1,12*
X4446000Y-1142000D03*
G04 #@! TO.P,NUCBRD1,11*
X4446000Y-888000D03*
G04 #@! TO.P,NUCBRD1,10*
X4192000Y-1142000D03*
G04 #@! TO.P,NUCBRD1,9*
X4192000Y-888000D03*
G04 #@! TO.P,NUCBRD1,8*
G04 #@! TO.N,GND*
X3938000Y-1142000D03*
G04 #@! TO.P,NUCBRD1,7*
G04 #@! TO.N,N/C*
X3938000Y-888000D03*
G04 #@! TO.P,NUCBRD1,6*
G04 #@! TO.N,Net-(C1-Pad2)*
X3684000Y-1142000D03*
G04 #@! TO.P,NUCBRD1,5*
G04 #@! TO.N,N/C*
X3684000Y-888000D03*
G04 #@! TO.P,NUCBRD1,4*
X3430000Y-1142000D03*
G04 #@! TO.P,NUCBRD1,3*
X3430000Y-888000D03*
G04 #@! TO.P,NUCBRD1,2*
G04 #@! TO.N,Sensor_enable*
X3176000Y-1142000D03*
D14*
G04 #@! TO.P,NUCBRD1,1*
G04 #@! TO.N,N/C*
X3176000Y-888000D03*
G04 #@! TD*
D15*
G04 #@! TO.P,J1,1*
G04 #@! TO.N,Net-(C1-Pad2)*
X1398000Y-2348500D03*
D16*
G04 #@! TO.P,J1,2*
G04 #@! TO.N,GND*
X798000Y-2348500D03*
G04 #@! TO.P,J1,3*
G04 #@! TO.N,N/C*
X1098000Y-2818500D03*
G04 #@! TD*
D17*
G04 #@! TO.P,J2,1*
G04 #@! TO.N,N/C*
X400000Y-400000D03*
G04 #@! TD*
G04 #@! TO.P,J3,1*
G04 #@! TO.N,N/C*
X400000Y-7600000D03*
G04 #@! TD*
G04 #@! TO.P,J4,1*
G04 #@! TO.N,N/C*
X9600000Y-400000D03*
G04 #@! TD*
G04 #@! TO.P,J5,1*
G04 #@! TO.N,N/C*
X9600000Y-7600000D03*
G04 #@! TD*
D14*
G04 #@! TO.P,MoistureSensor1,1*
G04 #@! TO.N,GND*
X763000Y-3618500D03*
D18*
G04 #@! TO.P,MoistureSensor1,2*
G04 #@! TO.N,PWM_sensor*
X763000Y-3872500D03*
G04 #@! TO.P,MoistureSensor1,3*
G04 #@! TO.N,temp_out*
X763000Y-4126500D03*
G04 #@! TO.P,MoistureSensor1,4*
G04 #@! TO.N,humid_out*
X763000Y-4380500D03*
G04 #@! TO.P,MoistureSensor1,5*
G04 #@! TO.N,Sensor_enable*
X763000Y-4634500D03*
G04 #@! TD*
D19*
G04 #@! TO.P,PushButton1,1*
G04 #@! TO.N,GND*
X8637000Y-1762000D03*
G04 #@! TO.P,PushButton1,2*
G04 #@! TO.N,btn1*
X9087000Y-1762000D03*
G04 #@! TO.P,PushButton1,1*
G04 #@! TO.N,GND*
X8637000Y-2412000D03*
G04 #@! TO.P,PushButton1,2*
G04 #@! TO.N,btn1*
X9087000Y-2412000D03*
G04 #@! TD*
G04 #@! TO.P,RotaryEncoder1,S2*
G04 #@! TO.N,GND*
X9145000Y-4645000D03*
G04 #@! TO.P,RotaryEncoder1,S1*
G04 #@! TO.N,btn0*
X8645000Y-4645000D03*
D20*
G04 #@! TO.P,RotaryEncoder1,MP*
G04 #@! TO.N,N/C*
X9455000Y-5345000D03*
X8335000Y-5345000D03*
D19*
G04 #@! TO.P,RotaryEncoder1,B*
G04 #@! TO.N,rotary1*
X9145000Y-6095000D03*
G04 #@! TO.P,RotaryEncoder1,C*
G04 #@! TO.N,GND*
X8895000Y-6095000D03*
D21*
G04 #@! TO.P,RotaryEncoder1,A*
G04 #@! TO.N,rotary0*
X8645000Y-6095000D03*
G04 #@! TD*
D22*
G04 #@! TO.P,Q1,1*
G04 #@! TO.N,Net-(Q1-Pad1)*
X1589000Y-4952000D03*
G04 #@! TO.P,Q1,2*
G04 #@! TO.N,GND*
X1779000Y-4952000D03*
G04 #@! TO.P,Q1,3*
G04 #@! TO.N,brightness*
X1684000Y-4752000D03*
G04 #@! TD*
D23*
G04 #@! TO.N,Net-(C1-Pad2)*
G04 #@! TO.C,C1*
G36*
X1408450Y-1580120D02*
X1410877Y-1580480D01*
X1413257Y-1581076D01*
X1415567Y-1581903D01*
X1417785Y-1582952D01*
X1419889Y-1584213D01*
X1421860Y-1585675D01*
X1423678Y-1587322D01*
X1425325Y-1589140D01*
X1426787Y-1591111D01*
X1428048Y-1593215D01*
X1429097Y-1595433D01*
X1429923Y-1597743D01*
X1430520Y-1600123D01*
X1430880Y-1602549D01*
X1431000Y-1605000D01*
X1431000Y-1695000D01*
X1430880Y-1697450D01*
X1430520Y-1699877D01*
X1429923Y-1702257D01*
X1429097Y-1704567D01*
X1428048Y-1706785D01*
X1426787Y-1708889D01*
X1425325Y-1710860D01*
X1423678Y-1712678D01*
X1421860Y-1714325D01*
X1419889Y-1715787D01*
X1417785Y-1717048D01*
X1415567Y-1718097D01*
X1413257Y-1718923D01*
X1410877Y-1719520D01*
X1408450Y-1719880D01*
X1406000Y-1720000D01*
X1341000Y-1720000D01*
X1338550Y-1719880D01*
X1336123Y-1719520D01*
X1333743Y-1718923D01*
X1331433Y-1718097D01*
X1329215Y-1717048D01*
X1327111Y-1715787D01*
X1325140Y-1714325D01*
X1323322Y-1712678D01*
X1321675Y-1710860D01*
X1320213Y-1708889D01*
X1318952Y-1706785D01*
X1317903Y-1704567D01*
X1317077Y-1702257D01*
X1316480Y-1699877D01*
X1316120Y-1697450D01*
X1316000Y-1695000D01*
X1316000Y-1605000D01*
X1316120Y-1602549D01*
X1316480Y-1600123D01*
X1317077Y-1597743D01*
X1317903Y-1595433D01*
X1318952Y-1593215D01*
X1320213Y-1591111D01*
X1321675Y-1589140D01*
X1323322Y-1587322D01*
X1325140Y-1585675D01*
X1327111Y-1584213D01*
X1329215Y-1582952D01*
X1331433Y-1581903D01*
X1333743Y-1581076D01*
X1336123Y-1580480D01*
X1338550Y-1580120D01*
X1341000Y-1580000D01*
X1406000Y-1580000D01*
X1408450Y-1580120D01*
X1408450Y-1580120D01*
G37*
D24*
G04 #@! TD*
G04 #@! TO.P,C1,2*
G04 #@! TO.N,Net-(C1-Pad2)*
X1373500Y-1650000D03*
D23*
G04 #@! TO.N,GND*
G04 #@! TO.C,C1*
G36*
X1203451Y-1580120D02*
X1205877Y-1580480D01*
X1208257Y-1581076D01*
X1210567Y-1581903D01*
X1212785Y-1582952D01*
X1214889Y-1584213D01*
X1216860Y-1585675D01*
X1218678Y-1587322D01*
X1220325Y-1589140D01*
X1221787Y-1591111D01*
X1223048Y-1593215D01*
X1224097Y-1595433D01*
X1224924Y-1597743D01*
X1225520Y-1600123D01*
X1225880Y-1602549D01*
X1226000Y-1605000D01*
X1226000Y-1695000D01*
X1225880Y-1697450D01*
X1225520Y-1699877D01*
X1224924Y-1702257D01*
X1224097Y-1704567D01*
X1223048Y-1706785D01*
X1221787Y-1708889D01*
X1220325Y-1710860D01*
X1218678Y-1712678D01*
X1216860Y-1714325D01*
X1214889Y-1715787D01*
X1212785Y-1717048D01*
X1210567Y-1718097D01*
X1208257Y-1718923D01*
X1205877Y-1719520D01*
X1203451Y-1719880D01*
X1201000Y-1720000D01*
X1136000Y-1720000D01*
X1133550Y-1719880D01*
X1131123Y-1719520D01*
X1128743Y-1718923D01*
X1126433Y-1718097D01*
X1124215Y-1717048D01*
X1122111Y-1715787D01*
X1120140Y-1714325D01*
X1118322Y-1712678D01*
X1116675Y-1710860D01*
X1115213Y-1708889D01*
X1113952Y-1706785D01*
X1112903Y-1704567D01*
X1112077Y-1702257D01*
X1111480Y-1699877D01*
X1111120Y-1697450D01*
X1111000Y-1695000D01*
X1111000Y-1605000D01*
X1111120Y-1602549D01*
X1111480Y-1600123D01*
X1112077Y-1597743D01*
X1112903Y-1595433D01*
X1113952Y-1593215D01*
X1115213Y-1591111D01*
X1116675Y-1589140D01*
X1118322Y-1587322D01*
X1120140Y-1585675D01*
X1122111Y-1584213D01*
X1124215Y-1582952D01*
X1126433Y-1581903D01*
X1128743Y-1581076D01*
X1131123Y-1580480D01*
X1133550Y-1580120D01*
X1136000Y-1580000D01*
X1201000Y-1580000D01*
X1203451Y-1580120D01*
X1203451Y-1580120D01*
G37*
D24*
G04 #@! TD*
G04 #@! TO.P,C1,1*
G04 #@! TO.N,GND*
X1168500Y-1650000D03*
D23*
G04 #@! TO.N,+5V*
G04 #@! TO.C,C2*
G36*
X1813950Y-6914120D02*
X1816377Y-6914480D01*
X1818757Y-6915076D01*
X1821067Y-6915903D01*
X1823285Y-6916952D01*
X1825389Y-6918213D01*
X1827360Y-6919675D01*
X1829178Y-6921322D01*
X1830825Y-6923140D01*
X1832287Y-6925111D01*
X1833548Y-6927215D01*
X1834597Y-6929433D01*
X1835423Y-6931743D01*
X1836020Y-6934123D01*
X1836380Y-6936549D01*
X1836500Y-6939000D01*
X1836500Y-7029000D01*
X1836380Y-7031450D01*
X1836020Y-7033877D01*
X1835423Y-7036257D01*
X1834597Y-7038567D01*
X1833548Y-7040785D01*
X1832287Y-7042889D01*
X1830825Y-7044860D01*
X1829178Y-7046678D01*
X1827360Y-7048325D01*
X1825389Y-7049787D01*
X1823285Y-7051048D01*
X1821067Y-7052097D01*
X1818757Y-7052923D01*
X1816377Y-7053520D01*
X1813950Y-7053880D01*
X1811500Y-7054000D01*
X1746500Y-7054000D01*
X1744049Y-7053880D01*
X1741623Y-7053520D01*
X1739243Y-7052923D01*
X1736933Y-7052097D01*
X1734715Y-7051048D01*
X1732611Y-7049787D01*
X1730640Y-7048325D01*
X1728822Y-7046678D01*
X1727175Y-7044860D01*
X1725713Y-7042889D01*
X1724452Y-7040785D01*
X1723403Y-7038567D01*
X1722576Y-7036257D01*
X1721980Y-7033877D01*
X1721620Y-7031450D01*
X1721500Y-7029000D01*
X1721500Y-6939000D01*
X1721620Y-6936549D01*
X1721980Y-6934123D01*
X1722576Y-6931743D01*
X1723403Y-6929433D01*
X1724452Y-6927215D01*
X1725713Y-6925111D01*
X1727175Y-6923140D01*
X1728822Y-6921322D01*
X1730640Y-6919675D01*
X1732611Y-6918213D01*
X1734715Y-6916952D01*
X1736933Y-6915903D01*
X1739243Y-6915076D01*
X1741623Y-6914480D01*
X1744049Y-6914120D01*
X1746500Y-6914000D01*
X1811500Y-6914000D01*
X1813950Y-6914120D01*
X1813950Y-6914120D01*
G37*
D24*
G04 #@! TD*
G04 #@! TO.P,C2,1*
G04 #@! TO.N,+5V*
X1779000Y-6984000D03*
D23*
G04 #@! TO.N,GND*
G04 #@! TO.C,C2*
G36*
X1608950Y-6914120D02*
X1611377Y-6914480D01*
X1613757Y-6915076D01*
X1616067Y-6915903D01*
X1618285Y-6916952D01*
X1620389Y-6918213D01*
X1622360Y-6919675D01*
X1624178Y-6921322D01*
X1625825Y-6923140D01*
X1627287Y-6925111D01*
X1628548Y-6927215D01*
X1629597Y-6929433D01*
X1630423Y-6931743D01*
X1631020Y-6934123D01*
X1631380Y-6936549D01*
X1631500Y-6939000D01*
X1631500Y-7029000D01*
X1631380Y-7031450D01*
X1631020Y-7033877D01*
X1630423Y-7036257D01*
X1629597Y-7038567D01*
X1628548Y-7040785D01*
X1627287Y-7042889D01*
X1625825Y-7044860D01*
X1624178Y-7046678D01*
X1622360Y-7048325D01*
X1620389Y-7049787D01*
X1618285Y-7051048D01*
X1616067Y-7052097D01*
X1613757Y-7052923D01*
X1611377Y-7053520D01*
X1608950Y-7053880D01*
X1606500Y-7054000D01*
X1541500Y-7054000D01*
X1539049Y-7053880D01*
X1536623Y-7053520D01*
X1534243Y-7052923D01*
X1531933Y-7052097D01*
X1529715Y-7051048D01*
X1527611Y-7049787D01*
X1525640Y-7048325D01*
X1523822Y-7046678D01*
X1522175Y-7044860D01*
X1520713Y-7042889D01*
X1519452Y-7040785D01*
X1518403Y-7038567D01*
X1517576Y-7036257D01*
X1516980Y-7033877D01*
X1516620Y-7031450D01*
X1516500Y-7029000D01*
X1516500Y-6939000D01*
X1516620Y-6936549D01*
X1516980Y-6934123D01*
X1517576Y-6931743D01*
X1518403Y-6929433D01*
X1519452Y-6927215D01*
X1520713Y-6925111D01*
X1522175Y-6923140D01*
X1523822Y-6921322D01*
X1525640Y-6919675D01*
X1527611Y-6918213D01*
X1529715Y-6916952D01*
X1531933Y-6915903D01*
X1534243Y-6915076D01*
X1536623Y-6914480D01*
X1539049Y-6914120D01*
X1541500Y-6914000D01*
X1606500Y-6914000D01*
X1608950Y-6914120D01*
X1608950Y-6914120D01*
G37*
D24*
G04 #@! TD*
G04 #@! TO.P,C2,2*
G04 #@! TO.N,GND*
X1574000Y-6984000D03*
D25*
G04 #@! TO.P,C3,1*
G04 #@! TO.N,Net-(C1-Pad2)*
X1271000Y-1015000D03*
D26*
G04 #@! TO.P,C3,2*
G04 #@! TO.N,GND*
X1021000Y-1015000D03*
G04 #@! TD*
D23*
G04 #@! TO.N,Net-(Q1-Pad1)*
G04 #@! TO.C,Rm0*
G36*
X1545450Y-5326620D02*
X1547877Y-5326980D01*
X1550257Y-5327577D01*
X1552567Y-5328403D01*
X1554785Y-5329452D01*
X1556889Y-5330713D01*
X1558860Y-5332175D01*
X1560678Y-5333822D01*
X1562325Y-5335640D01*
X1563787Y-5337611D01*
X1565048Y-5339715D01*
X1566097Y-5341933D01*
X1566923Y-5344243D01*
X1567520Y-5346623D01*
X1567880Y-5349050D01*
X1568000Y-5351500D01*
X1568000Y-5441500D01*
X1567880Y-5443951D01*
X1567520Y-5446377D01*
X1566923Y-5448757D01*
X1566097Y-5451067D01*
X1565048Y-5453285D01*
X1563787Y-5455389D01*
X1562325Y-5457360D01*
X1560678Y-5459178D01*
X1558860Y-5460825D01*
X1556889Y-5462287D01*
X1554785Y-5463548D01*
X1552567Y-5464597D01*
X1550257Y-5465424D01*
X1547877Y-5466020D01*
X1545450Y-5466380D01*
X1543000Y-5466500D01*
X1478000Y-5466500D01*
X1475549Y-5466380D01*
X1473123Y-5466020D01*
X1470743Y-5465424D01*
X1468433Y-5464597D01*
X1466215Y-5463548D01*
X1464111Y-5462287D01*
X1462140Y-5460825D01*
X1460322Y-5459178D01*
X1458675Y-5457360D01*
X1457213Y-5455389D01*
X1455952Y-5453285D01*
X1454903Y-5451067D01*
X1454076Y-5448757D01*
X1453480Y-5446377D01*
X1453120Y-5443951D01*
X1453000Y-5441500D01*
X1453000Y-5351500D01*
X1453120Y-5349050D01*
X1453480Y-5346623D01*
X1454076Y-5344243D01*
X1454903Y-5341933D01*
X1455952Y-5339715D01*
X1457213Y-5337611D01*
X1458675Y-5335640D01*
X1460322Y-5333822D01*
X1462140Y-5332175D01*
X1464111Y-5330713D01*
X1466215Y-5329452D01*
X1468433Y-5328403D01*
X1470743Y-5327577D01*
X1473123Y-5326980D01*
X1475549Y-5326620D01*
X1478000Y-5326500D01*
X1543000Y-5326500D01*
X1545450Y-5326620D01*
X1545450Y-5326620D01*
G37*
D24*
G04 #@! TD*
G04 #@! TO.P,Rm0,1*
G04 #@! TO.N,Net-(Q1-Pad1)*
X1510500Y-5396500D03*
D23*
G04 #@! TO.N,PWM_LCD*
G04 #@! TO.C,Rm0*
G36*
X1750450Y-5326620D02*
X1752877Y-5326980D01*
X1755257Y-5327577D01*
X1757567Y-5328403D01*
X1759785Y-5329452D01*
X1761889Y-5330713D01*
X1763860Y-5332175D01*
X1765678Y-5333822D01*
X1767325Y-5335640D01*
X1768787Y-5337611D01*
X1770048Y-5339715D01*
X1771097Y-5341933D01*
X1771923Y-5344243D01*
X1772520Y-5346623D01*
X1772880Y-5349050D01*
X1773000Y-5351500D01*
X1773000Y-5441500D01*
X1772880Y-5443951D01*
X1772520Y-5446377D01*
X1771923Y-5448757D01*
X1771097Y-5451067D01*
X1770048Y-5453285D01*
X1768787Y-5455389D01*
X1767325Y-5457360D01*
X1765678Y-5459178D01*
X1763860Y-5460825D01*
X1761889Y-5462287D01*
X1759785Y-5463548D01*
X1757567Y-5464597D01*
X1755257Y-5465424D01*
X1752877Y-5466020D01*
X1750450Y-5466380D01*
X1748000Y-5466500D01*
X1683000Y-5466500D01*
X1680549Y-5466380D01*
X1678123Y-5466020D01*
X1675743Y-5465424D01*
X1673433Y-5464597D01*
X1671215Y-5463548D01*
X1669111Y-5462287D01*
X1667140Y-5460825D01*
X1665322Y-5459178D01*
X1663675Y-5457360D01*
X1662213Y-5455389D01*
X1660952Y-5453285D01*
X1659903Y-5451067D01*
X1659076Y-5448757D01*
X1658480Y-5446377D01*
X1658120Y-5443951D01*
X1658000Y-5441500D01*
X1658000Y-5351500D01*
X1658120Y-5349050D01*
X1658480Y-5346623D01*
X1659076Y-5344243D01*
X1659903Y-5341933D01*
X1660952Y-5339715D01*
X1662213Y-5337611D01*
X1663675Y-5335640D01*
X1665322Y-5333822D01*
X1667140Y-5332175D01*
X1669111Y-5330713D01*
X1671215Y-5329452D01*
X1673433Y-5328403D01*
X1675743Y-5327577D01*
X1678123Y-5326980D01*
X1680549Y-5326620D01*
X1683000Y-5326500D01*
X1748000Y-5326500D01*
X1750450Y-5326620D01*
X1750450Y-5326620D01*
G37*
D24*
G04 #@! TD*
G04 #@! TO.P,Rm0,2*
G04 #@! TO.N,PWM_LCD*
X1715500Y-5396500D03*
D23*
G04 #@! TO.N,GND*
G04 #@! TO.C,Rm1*
G36*
X1545450Y-5771120D02*
X1547877Y-5771480D01*
X1550257Y-5772076D01*
X1552567Y-5772903D01*
X1554785Y-5773952D01*
X1556889Y-5775213D01*
X1558860Y-5776675D01*
X1560678Y-5778322D01*
X1562325Y-5780140D01*
X1563787Y-5782111D01*
X1565048Y-5784215D01*
X1566097Y-5786433D01*
X1566923Y-5788743D01*
X1567520Y-5791123D01*
X1567880Y-5793549D01*
X1568000Y-5796000D01*
X1568000Y-5886000D01*
X1567880Y-5888450D01*
X1567520Y-5890877D01*
X1566923Y-5893257D01*
X1566097Y-5895567D01*
X1565048Y-5897785D01*
X1563787Y-5899889D01*
X1562325Y-5901860D01*
X1560678Y-5903678D01*
X1558860Y-5905325D01*
X1556889Y-5906787D01*
X1554785Y-5908048D01*
X1552567Y-5909097D01*
X1550257Y-5909923D01*
X1547877Y-5910520D01*
X1545450Y-5910880D01*
X1543000Y-5911000D01*
X1478000Y-5911000D01*
X1475549Y-5910880D01*
X1473123Y-5910520D01*
X1470743Y-5909923D01*
X1468433Y-5909097D01*
X1466215Y-5908048D01*
X1464111Y-5906787D01*
X1462140Y-5905325D01*
X1460322Y-5903678D01*
X1458675Y-5901860D01*
X1457213Y-5899889D01*
X1455952Y-5897785D01*
X1454903Y-5895567D01*
X1454076Y-5893257D01*
X1453480Y-5890877D01*
X1453120Y-5888450D01*
X1453000Y-5886000D01*
X1453000Y-5796000D01*
X1453120Y-5793549D01*
X1453480Y-5791123D01*
X1454076Y-5788743D01*
X1454903Y-5786433D01*
X1455952Y-5784215D01*
X1457213Y-5782111D01*
X1458675Y-5780140D01*
X1460322Y-5778322D01*
X1462140Y-5776675D01*
X1464111Y-5775213D01*
X1466215Y-5773952D01*
X1468433Y-5772903D01*
X1470743Y-5772076D01*
X1473123Y-5771480D01*
X1475549Y-5771120D01*
X1478000Y-5771000D01*
X1543000Y-5771000D01*
X1545450Y-5771120D01*
X1545450Y-5771120D01*
G37*
D24*
G04 #@! TD*
G04 #@! TO.P,Rm1,2*
G04 #@! TO.N,GND*
X1510500Y-5841000D03*
D23*
G04 #@! TO.N,PWM_LCD*
G04 #@! TO.C,Rm1*
G36*
X1750450Y-5771120D02*
X1752877Y-5771480D01*
X1755257Y-5772076D01*
X1757567Y-5772903D01*
X1759785Y-5773952D01*
X1761889Y-5775213D01*
X1763860Y-5776675D01*
X1765678Y-5778322D01*
X1767325Y-5780140D01*
X1768787Y-5782111D01*
X1770048Y-5784215D01*
X1771097Y-5786433D01*
X1771923Y-5788743D01*
X1772520Y-5791123D01*
X1772880Y-5793549D01*
X1773000Y-5796000D01*
X1773000Y-5886000D01*
X1772880Y-5888450D01*
X1772520Y-5890877D01*
X1771923Y-5893257D01*
X1771097Y-5895567D01*
X1770048Y-5897785D01*
X1768787Y-5899889D01*
X1767325Y-5901860D01*
X1765678Y-5903678D01*
X1763860Y-5905325D01*
X1761889Y-5906787D01*
X1759785Y-5908048D01*
X1757567Y-5909097D01*
X1755257Y-5909923D01*
X1752877Y-5910520D01*
X1750450Y-5910880D01*
X1748000Y-5911000D01*
X1683000Y-5911000D01*
X1680549Y-5910880D01*
X1678123Y-5910520D01*
X1675743Y-5909923D01*
X1673433Y-5909097D01*
X1671215Y-5908048D01*
X1669111Y-5906787D01*
X1667140Y-5905325D01*
X1665322Y-5903678D01*
X1663675Y-5901860D01*
X1662213Y-5899889D01*
X1660952Y-5897785D01*
X1659903Y-5895567D01*
X1659076Y-5893257D01*
X1658480Y-5890877D01*
X1658120Y-5888450D01*
X1658000Y-5886000D01*
X1658000Y-5796000D01*
X1658120Y-5793549D01*
X1658480Y-5791123D01*
X1659076Y-5788743D01*
X1659903Y-5786433D01*
X1660952Y-5784215D01*
X1662213Y-5782111D01*
X1663675Y-5780140D01*
X1665322Y-5778322D01*
X1667140Y-5776675D01*
X1669111Y-5775213D01*
X1671215Y-5773952D01*
X1673433Y-5772903D01*
X1675743Y-5772076D01*
X1678123Y-5771480D01*
X1680549Y-5771120D01*
X1683000Y-5771000D01*
X1748000Y-5771000D01*
X1750450Y-5771120D01*
X1750450Y-5771120D01*
G37*
D24*
G04 #@! TD*
G04 #@! TO.P,Rm1,1*
G04 #@! TO.N,PWM_LCD*
X1715500Y-5841000D03*
D23*
G04 #@! TO.N,GND*
G04 #@! TO.C,C4*
G36*
X2524951Y-3395120D02*
X2527377Y-3395480D01*
X2529757Y-3396076D01*
X2532067Y-3396903D01*
X2534285Y-3397952D01*
X2536389Y-3399213D01*
X2538360Y-3400675D01*
X2540178Y-3402322D01*
X2541825Y-3404140D01*
X2543287Y-3406111D01*
X2544548Y-3408215D01*
X2545597Y-3410433D01*
X2546424Y-3412743D01*
X2547020Y-3415123D01*
X2547380Y-3417549D01*
X2547500Y-3420000D01*
X2547500Y-3485000D01*
X2547380Y-3487450D01*
X2547020Y-3489877D01*
X2546424Y-3492257D01*
X2545597Y-3494567D01*
X2544548Y-3496785D01*
X2543287Y-3498889D01*
X2541825Y-3500860D01*
X2540178Y-3502678D01*
X2538360Y-3504325D01*
X2536389Y-3505787D01*
X2534285Y-3507048D01*
X2532067Y-3508097D01*
X2529757Y-3508923D01*
X2527377Y-3509520D01*
X2524951Y-3509880D01*
X2522500Y-3510000D01*
X2432500Y-3510000D01*
X2430050Y-3509880D01*
X2427623Y-3509520D01*
X2425243Y-3508923D01*
X2422933Y-3508097D01*
X2420715Y-3507048D01*
X2418611Y-3505787D01*
X2416640Y-3504325D01*
X2414822Y-3502678D01*
X2413175Y-3500860D01*
X2411713Y-3498889D01*
X2410452Y-3496785D01*
X2409403Y-3494567D01*
X2408577Y-3492257D01*
X2407980Y-3489877D01*
X2407620Y-3487450D01*
X2407500Y-3485000D01*
X2407500Y-3420000D01*
X2407620Y-3417549D01*
X2407980Y-3415123D01*
X2408577Y-3412743D01*
X2409403Y-3410433D01*
X2410452Y-3408215D01*
X2411713Y-3406111D01*
X2413175Y-3404140D01*
X2414822Y-3402322D01*
X2416640Y-3400675D01*
X2418611Y-3399213D01*
X2420715Y-3397952D01*
X2422933Y-3396903D01*
X2425243Y-3396076D01*
X2427623Y-3395480D01*
X2430050Y-3395120D01*
X2432500Y-3395000D01*
X2522500Y-3395000D01*
X2524951Y-3395120D01*
X2524951Y-3395120D01*
G37*
D24*
G04 #@! TD*
G04 #@! TO.P,C4,2*
G04 #@! TO.N,GND*
X2477500Y-3452500D03*
D23*
G04 #@! TO.N,+5V*
G04 #@! TO.C,C4*
G36*
X2524951Y-3600120D02*
X2527377Y-3600480D01*
X2529757Y-3601076D01*
X2532067Y-3601903D01*
X2534285Y-3602952D01*
X2536389Y-3604213D01*
X2538360Y-3605675D01*
X2540178Y-3607322D01*
X2541825Y-3609140D01*
X2543287Y-3611111D01*
X2544548Y-3613215D01*
X2545597Y-3615433D01*
X2546424Y-3617743D01*
X2547020Y-3620123D01*
X2547380Y-3622549D01*
X2547500Y-3625000D01*
X2547500Y-3690000D01*
X2547380Y-3692450D01*
X2547020Y-3694877D01*
X2546424Y-3697257D01*
X2545597Y-3699567D01*
X2544548Y-3701785D01*
X2543287Y-3703889D01*
X2541825Y-3705860D01*
X2540178Y-3707678D01*
X2538360Y-3709325D01*
X2536389Y-3710787D01*
X2534285Y-3712048D01*
X2532067Y-3713097D01*
X2529757Y-3713923D01*
X2527377Y-3714520D01*
X2524951Y-3714880D01*
X2522500Y-3715000D01*
X2432500Y-3715000D01*
X2430050Y-3714880D01*
X2427623Y-3714520D01*
X2425243Y-3713923D01*
X2422933Y-3713097D01*
X2420715Y-3712048D01*
X2418611Y-3710787D01*
X2416640Y-3709325D01*
X2414822Y-3707678D01*
X2413175Y-3705860D01*
X2411713Y-3703889D01*
X2410452Y-3701785D01*
X2409403Y-3699567D01*
X2408577Y-3697257D01*
X2407980Y-3694877D01*
X2407620Y-3692450D01*
X2407500Y-3690000D01*
X2407500Y-3625000D01*
X2407620Y-3622549D01*
X2407980Y-3620123D01*
X2408577Y-3617743D01*
X2409403Y-3615433D01*
X2410452Y-3613215D01*
X2411713Y-3611111D01*
X2413175Y-3609140D01*
X2414822Y-3607322D01*
X2416640Y-3605675D01*
X2418611Y-3604213D01*
X2420715Y-3602952D01*
X2422933Y-3601903D01*
X2425243Y-3601076D01*
X2427623Y-3600480D01*
X2430050Y-3600120D01*
X2432500Y-3600000D01*
X2522500Y-3600000D01*
X2524951Y-3600120D01*
X2524951Y-3600120D01*
G37*
D24*
G04 #@! TD*
G04 #@! TO.P,C4,1*
G04 #@! TO.N,+5V*
X2477500Y-3657500D03*
D27*
G04 #@! TO.N,GND*
X1906000Y-5206000D03*
G04 #@! TD*
D28*
G04 #@! TO.N,+5V*
X2453000Y-3682000D02*
X2477500Y-3657500D01*
X2160000Y-3682000D02*
X2453000Y-3682000D01*
X2160000Y-6984000D02*
X1779000Y-6984000D01*
D29*
G04 #@! TO.N,E*
X3176000Y-6984000D02*
X3176000Y-6095000D01*
X3049000Y-5968000D02*
X2160000Y-5968000D01*
X3176000Y-6095000D02*
X3049000Y-5968000D01*
D28*
G04 #@! TO.N,brightness*
X1779000Y-3555000D02*
X1906000Y-3428000D01*
X1906000Y-3428000D02*
X2160000Y-3428000D01*
X1779000Y-4551040D02*
X1779000Y-3555000D01*
X1684000Y-4752000D02*
X1684000Y-4646040D01*
X1684000Y-4646040D02*
X1779000Y-4551040D01*
D29*
G04 #@! TO.N,humid_out*
X7937259Y-952741D02*
X7748000Y-1142000D01*
X3049000Y-697500D02*
X3112500Y-634000D01*
X3049000Y-1205500D02*
X3049000Y-697500D01*
X7937259Y-696259D02*
X7937259Y-952741D01*
X3176000Y-1332500D02*
X3049000Y-1205500D01*
X3112500Y-634000D02*
X7875000Y-634000D01*
X1207500Y-4380500D02*
X1398000Y-4190000D01*
X1525000Y-3110500D02*
X3112500Y-3110500D01*
X7875000Y-634000D02*
X7937259Y-696259D01*
X3112500Y-3110500D02*
X3176000Y-3047000D01*
X763000Y-4380500D02*
X1207500Y-4380500D01*
X3176000Y-3047000D02*
X3176000Y-1332500D01*
X1398000Y-4190000D02*
X1398000Y-3237500D01*
X1398000Y-3237500D02*
X1525000Y-3110500D01*
G04 #@! TO.N,rotary1*
X6097000Y-6476000D02*
X5970000Y-6603000D01*
X9145000Y-6349000D02*
X9018000Y-6476000D01*
X5970000Y-6603000D02*
X5970000Y-6984000D01*
X9018000Y-6476000D02*
X6097000Y-6476000D01*
X9145000Y-6095000D02*
X9145000Y-6349000D01*
G04 #@! TO.N,btn0*
X6478000Y-6793500D02*
X6478000Y-6984000D01*
X9335500Y-6730000D02*
X6541500Y-6730000D01*
X8645000Y-5595000D02*
X8764000Y-5714000D01*
X9462500Y-5841000D02*
X9462500Y-6603000D01*
X6541500Y-6730000D02*
X6478000Y-6793500D01*
X8645000Y-4645000D02*
X8645000Y-5595000D01*
X8764000Y-5714000D02*
X9335500Y-5714000D01*
X9335500Y-5714000D02*
X9462500Y-5841000D01*
X9462500Y-6603000D02*
X9335500Y-6730000D01*
G04 #@! TO.N,btn1*
X8891000Y-5460000D02*
X8891000Y-2608000D01*
X9018000Y-5587000D02*
X8891000Y-5460000D01*
X6859000Y-6857000D02*
X9462500Y-6857000D01*
X6732000Y-6984000D02*
X6859000Y-6857000D01*
X9462500Y-6857000D02*
X9589500Y-6730000D01*
X9589500Y-6730000D02*
X9589500Y-5714000D01*
X9589500Y-5714000D02*
X9462500Y-5587000D01*
X9462500Y-5587000D02*
X9018000Y-5587000D01*
X8891000Y-2608000D02*
X9087000Y-2412000D01*
X9087000Y-1903421D02*
X9087000Y-2412000D01*
X9087000Y-1762000D02*
X9087000Y-1903421D01*
G04 #@! TO.N,rotary0*
X6224000Y-6730000D02*
X6224000Y-6984000D01*
X6351000Y-6603000D02*
X6224000Y-6730000D01*
X9208500Y-6603000D02*
X6351000Y-6603000D01*
X8645000Y-6095000D02*
X8645000Y-5964520D01*
X8645000Y-5964520D02*
X8705020Y-5904500D01*
X9335500Y-6476000D02*
X9208500Y-6603000D01*
X8705020Y-5904500D02*
X9272000Y-5904500D01*
X9272000Y-5904500D02*
X9335500Y-5968000D01*
X9335500Y-5968000D02*
X9335500Y-6476000D01*
G04 #@! TO.N,RS*
X2858500Y-6476000D02*
X2160000Y-6476000D01*
X2985500Y-6603000D02*
X2858500Y-6476000D01*
X3176000Y-7238000D02*
X2985500Y-7047500D01*
X2985500Y-7047500D02*
X2985500Y-6603000D01*
G04 #@! TO.N,d0*
X3176000Y-5714000D02*
X2160000Y-5714000D01*
X3303000Y-5841000D02*
X3176000Y-5714000D01*
X3430000Y-7238000D02*
X3303000Y-7111000D01*
X3303000Y-7111000D02*
X3303000Y-5841000D01*
G04 #@! TO.N,d4*
X4573000Y-4698000D02*
X2160000Y-4698000D01*
X4700000Y-6984000D02*
X4700000Y-4825000D01*
X4700000Y-4825000D02*
X4573000Y-4698000D01*
G04 #@! TO.N,d5*
X4954000Y-4571000D02*
X4954000Y-6984000D01*
X2160000Y-4444000D02*
X4827000Y-4444000D01*
X4827000Y-4444000D02*
X4954000Y-4571000D01*
G04 #@! TO.N,d6*
X4954000Y-7238000D02*
X5081000Y-7111000D01*
X4954000Y-4190000D02*
X2160000Y-4190000D01*
X5081000Y-4317000D02*
X4954000Y-4190000D01*
X5081000Y-7111000D02*
X5081000Y-4317000D01*
G04 #@! TO.N,d7*
X5208000Y-6971500D02*
X5208000Y-4063000D01*
X5081000Y-3936000D02*
X2160000Y-3936000D01*
X5208000Y-4063000D02*
X5081000Y-3936000D01*
G04 #@! TO.N,temp_out*
X763000Y-4126500D02*
X1144000Y-4126500D01*
X1144000Y-4126500D02*
X1334500Y-3936000D01*
X1334500Y-3936000D02*
X1334500Y-3174000D01*
X1334500Y-3174000D02*
X1461500Y-3047000D01*
X1461500Y-3047000D02*
X3049000Y-3047000D01*
X3049000Y-3047000D02*
X3112500Y-2983500D01*
X3112500Y-2983500D02*
X3112500Y-1396000D01*
X3112500Y-1396000D02*
X2985500Y-1269000D01*
X2985500Y-1269000D02*
X2985500Y-634000D01*
X2985500Y-634000D02*
X3049000Y-570500D01*
X3049000Y-570500D02*
X7938500Y-570500D01*
X7938500Y-570500D02*
X8002000Y-634000D01*
X8002000Y-634000D02*
X8002000Y-1205500D01*
X8002000Y-1205500D02*
X7938500Y-1269000D01*
X7621000Y-1269000D02*
X7494000Y-1142000D01*
X7938500Y-1269000D02*
X7621000Y-1269000D01*
G04 #@! TO.N,d1*
X3684000Y-6984000D02*
X3684000Y-5587000D01*
X3557000Y-5460000D02*
X2160000Y-5460000D01*
X3684000Y-5587000D02*
X3557000Y-5460000D01*
G04 #@! TO.N,d2*
X3684000Y-5206000D02*
X2160000Y-5206000D01*
X3811000Y-5333000D02*
X3684000Y-5206000D01*
X3684000Y-7238000D02*
X3811000Y-7111000D01*
X3811000Y-7111000D02*
X3811000Y-5333000D01*
G04 #@! TO.N,d3*
X4446000Y-5079000D02*
X4319000Y-4952000D01*
X4319000Y-4952000D02*
X2160000Y-4952000D01*
X4446000Y-6984000D02*
X4446000Y-5079000D01*
D28*
G04 #@! TO.N,Net-(C1-Pad2)*
X1398000Y-1142000D02*
X1271000Y-1015000D01*
X1398000Y-2348500D02*
X1398000Y-1142000D01*
D29*
G04 #@! TO.N,PWM_sensor*
X5836240Y-1008240D02*
X5801000Y-973000D01*
X2668000Y-2983500D02*
X2795000Y-2856500D01*
X1398000Y-2983500D02*
X2668000Y-2983500D01*
X763000Y-3872500D02*
X953500Y-3872500D01*
X6280740Y-1008240D02*
X5836240Y-1008240D01*
X2922000Y-443500D02*
X8002000Y-443500D01*
X1080500Y-3301000D02*
X1398000Y-2983500D01*
X1080500Y-3745500D02*
X1080500Y-3301000D01*
X8002000Y-443500D02*
X8129000Y-570500D01*
X5801000Y-973000D02*
X5716000Y-888000D01*
X953500Y-3872500D02*
X1080500Y-3745500D01*
X2795000Y-570500D02*
X2922000Y-443500D01*
X2795000Y-2856500D02*
X2795000Y-570500D01*
X6344240Y-1262240D02*
X6344240Y-1071740D01*
X6344240Y-1071740D02*
X6280740Y-1008240D01*
X8129000Y-570500D02*
X8129000Y-1269000D01*
X8129000Y-1269000D02*
X8002000Y-1396000D01*
X8002000Y-1396000D02*
X6478000Y-1396000D01*
X6478000Y-1396000D02*
X6344240Y-1262240D01*
G04 #@! TO.N,Sensor_enable*
X1334500Y-4634500D02*
X1461500Y-4507500D01*
X1461500Y-4507500D02*
X1461500Y-3301000D01*
X3239500Y-3110500D02*
X3239500Y-1205500D01*
X763000Y-4634500D02*
X1334500Y-4634500D01*
X1461500Y-3301000D02*
X1588500Y-3174000D01*
X1588500Y-3174000D02*
X3176000Y-3174000D01*
X3176000Y-3174000D02*
X3239500Y-3110500D01*
X3176000Y-1142000D02*
X3239500Y-1205500D01*
G04 #@! TO.N,PWM_LCD*
X1906000Y-5587000D02*
X1715500Y-5396500D01*
X3303000Y-5587000D02*
X1906000Y-5587000D01*
X3430000Y-6984000D02*
X3430000Y-5714000D01*
X3430000Y-5714000D02*
X3303000Y-5587000D01*
X1715500Y-5396500D02*
X1715500Y-5841000D01*
G04 #@! TO.N,Net-(Q1-Pad1)*
X1518520Y-4952000D02*
X1589000Y-4952000D01*
X1510500Y-4960020D02*
X1518520Y-4952000D01*
X1510500Y-5396500D02*
X1510500Y-4960020D01*
G04 #@! TD*
D30*
G04 #@! TO.N,GND*
G36*
X9336919Y-79435D02*
X9279435Y-136919D01*
X9234270Y-204513D01*
X9203160Y-279620D01*
X9187300Y-359353D01*
X9187300Y-440647D01*
X9203160Y-520380D01*
X9234270Y-595487D01*
X9279435Y-663081D01*
X9336919Y-720565D01*
X9404513Y-765730D01*
X9479620Y-796840D01*
X9559353Y-812700D01*
X9640647Y-812700D01*
X9720380Y-796840D01*
X9795487Y-765730D01*
X9863081Y-720565D01*
X9920565Y-663081D01*
X9929000Y-650457D01*
X9929000Y-5295071D01*
X9652555Y-5295071D01*
X9650680Y-5285641D01*
X9635339Y-5248607D01*
X9613069Y-5215276D01*
X9584724Y-5186931D01*
X9551393Y-5164661D01*
X9514359Y-5149320D01*
X9475043Y-5141500D01*
X9434957Y-5141500D01*
X9395641Y-5149320D01*
X9358607Y-5164661D01*
X9325276Y-5186931D01*
X9296931Y-5215276D01*
X9274661Y-5248607D01*
X9259320Y-5285641D01*
X9251500Y-5324957D01*
X9251500Y-5365043D01*
X9259320Y-5404359D01*
X9274661Y-5441393D01*
X9296931Y-5474724D01*
X9325276Y-5503069D01*
X9333046Y-5508260D01*
X9050615Y-5508260D01*
X8969740Y-5427385D01*
X8969740Y-4758113D01*
X9049848Y-4758113D01*
X9059470Y-4784329D01*
X9088295Y-4798338D01*
X9119299Y-4806455D01*
X9151291Y-4808366D01*
X9183041Y-4804000D01*
X9213330Y-4793523D01*
X9230531Y-4784329D01*
X9240152Y-4758113D01*
X9145000Y-4662961D01*
X9049848Y-4758113D01*
X8969740Y-4758113D01*
X8969740Y-4651291D01*
X8981634Y-4651291D01*
X8986000Y-4683041D01*
X8996477Y-4713330D01*
X9005671Y-4730531D01*
X9031887Y-4740152D01*
X9127040Y-4645000D01*
X9162961Y-4645000D01*
X9258113Y-4740152D01*
X9284329Y-4730531D01*
X9298338Y-4701705D01*
X9306455Y-4670701D01*
X9308366Y-4638709D01*
X9304000Y-4606959D01*
X9293523Y-4576670D01*
X9284329Y-4559470D01*
X9258113Y-4549848D01*
X9162961Y-4645000D01*
X9127040Y-4645000D01*
X9031887Y-4549848D01*
X9005671Y-4559470D01*
X8991662Y-4588295D01*
X8983546Y-4619299D01*
X8981634Y-4651291D01*
X8969740Y-4651291D01*
X8969740Y-4531887D01*
X9049848Y-4531887D01*
X9145000Y-4627040D01*
X9240152Y-4531887D01*
X9230531Y-4505671D01*
X9201705Y-4491662D01*
X9170701Y-4483546D01*
X9138709Y-4481634D01*
X9106959Y-4486000D01*
X9076670Y-4496477D01*
X9059470Y-4505671D01*
X9049848Y-4531887D01*
X8969740Y-4531887D01*
X8969740Y-2640615D01*
X9040835Y-2569520D01*
X9070897Y-2575500D01*
X9103103Y-2575500D01*
X9134691Y-2569217D01*
X9164446Y-2556892D01*
X9191225Y-2538999D01*
X9213999Y-2516225D01*
X9231892Y-2489446D01*
X9244217Y-2459691D01*
X9250500Y-2428103D01*
X9250500Y-2395897D01*
X9244217Y-2364309D01*
X9231892Y-2334554D01*
X9213999Y-2307775D01*
X9191225Y-2285001D01*
X9165740Y-2267973D01*
X9165740Y-1906027D01*
X9191225Y-1888999D01*
X9213999Y-1866225D01*
X9231892Y-1839446D01*
X9244217Y-1809691D01*
X9250500Y-1778103D01*
X9250500Y-1745897D01*
X9244217Y-1714309D01*
X9231892Y-1684554D01*
X9213999Y-1657775D01*
X9191225Y-1635001D01*
X9164446Y-1617108D01*
X9134691Y-1604783D01*
X9103103Y-1598500D01*
X9070897Y-1598500D01*
X9039309Y-1604783D01*
X9009554Y-1617108D01*
X8982775Y-1635001D01*
X8960001Y-1657775D01*
X8942108Y-1684554D01*
X8929783Y-1714309D01*
X8923500Y-1745897D01*
X8923500Y-1778103D01*
X8929783Y-1809691D01*
X8942108Y-1839446D01*
X8960001Y-1866225D01*
X8982775Y-1888999D01*
X9008260Y-1906027D01*
X9008260Y-2267973D01*
X8982775Y-2285001D01*
X8960001Y-2307775D01*
X8942108Y-2334554D01*
X8929783Y-2364309D01*
X8923500Y-2395897D01*
X8923500Y-2428103D01*
X8929480Y-2458165D01*
X8838057Y-2549588D01*
X8835053Y-2552053D01*
X8832588Y-2555057D01*
X8825214Y-2564043D01*
X8817902Y-2577722D01*
X8813400Y-2592564D01*
X8811879Y-2608000D01*
X8812260Y-2611867D01*
X8812260Y-5456134D01*
X8811879Y-5460000D01*
X8812260Y-5463866D01*
X8812260Y-5463867D01*
X8813399Y-5475436D01*
X8817902Y-5490278D01*
X8825213Y-5503957D01*
X8835053Y-5515947D01*
X8838058Y-5518413D01*
X8954905Y-5635260D01*
X8796615Y-5635260D01*
X8723740Y-5562385D01*
X8723740Y-4789027D01*
X8749225Y-4771999D01*
X8771999Y-4749225D01*
X8789892Y-4722446D01*
X8802217Y-4692691D01*
X8808500Y-4661103D01*
X8808500Y-4628897D01*
X8802217Y-4597309D01*
X8789892Y-4567554D01*
X8771999Y-4540775D01*
X8749225Y-4518001D01*
X8722446Y-4500108D01*
X8692691Y-4487783D01*
X8661103Y-4481500D01*
X8628897Y-4481500D01*
X8597309Y-4487783D01*
X8567554Y-4500108D01*
X8540775Y-4518001D01*
X8518001Y-4540775D01*
X8500108Y-4567554D01*
X8487783Y-4597309D01*
X8481500Y-4628897D01*
X8481500Y-4661103D01*
X8487783Y-4692691D01*
X8500108Y-4722446D01*
X8518001Y-4749225D01*
X8540775Y-4771999D01*
X8566260Y-4789027D01*
X8566260Y-5591133D01*
X8565879Y-5595000D01*
X8567400Y-5610436D01*
X8571902Y-5625278D01*
X8577034Y-5634879D01*
X8579214Y-5638957D01*
X8589053Y-5650947D01*
X8592057Y-5653412D01*
X8705588Y-5766943D01*
X8708053Y-5769947D01*
X8711057Y-5772412D01*
X8711057Y-5772412D01*
X8711805Y-5773026D01*
X8720043Y-5779787D01*
X8733722Y-5787098D01*
X8748564Y-5791601D01*
X8760133Y-5792740D01*
X8760134Y-5792740D01*
X8764000Y-5793121D01*
X8767866Y-5792740D01*
X9302885Y-5792740D01*
X9383760Y-5873615D01*
X9383760Y-5904905D01*
X9330413Y-5851558D01*
X9327947Y-5848553D01*
X9315957Y-5838713D01*
X9302278Y-5831402D01*
X9287436Y-5826899D01*
X9275867Y-5825760D01*
X9275866Y-5825760D01*
X9272000Y-5825379D01*
X9268134Y-5825760D01*
X8708886Y-5825760D01*
X8705020Y-5825379D01*
X8701154Y-5825760D01*
X8701153Y-5825760D01*
X8689584Y-5826899D01*
X8674742Y-5831402D01*
X8661063Y-5838713D01*
X8654967Y-5843716D01*
X8649073Y-5848553D01*
X8646608Y-5851557D01*
X8592057Y-5906108D01*
X8589053Y-5908573D01*
X8584519Y-5914098D01*
X8579214Y-5920563D01*
X8573532Y-5931193D01*
X8545000Y-5931193D01*
X8532552Y-5932419D01*
X8520582Y-5936050D01*
X8509551Y-5941946D01*
X8499882Y-5949881D01*
X8491946Y-5959551D01*
X8486050Y-5970582D01*
X8482419Y-5982552D01*
X8481193Y-5995000D01*
X8481193Y-6195000D01*
X8482419Y-6207448D01*
X8486050Y-6219418D01*
X8491946Y-6230449D01*
X8499882Y-6240118D01*
X8509551Y-6248054D01*
X8520582Y-6253950D01*
X8532552Y-6257581D01*
X8545000Y-6258807D01*
X8745000Y-6258807D01*
X8757448Y-6257581D01*
X8769418Y-6253950D01*
X8780449Y-6248054D01*
X8790119Y-6240118D01*
X8798054Y-6230449D01*
X8803950Y-6219418D01*
X8803971Y-6219348D01*
X8809470Y-6234329D01*
X8838295Y-6248338D01*
X8869299Y-6256454D01*
X8901291Y-6258366D01*
X8933041Y-6254000D01*
X8963330Y-6243523D01*
X8980531Y-6234329D01*
X8990152Y-6208113D01*
X8895000Y-6112960D01*
X8893586Y-6114375D01*
X8875625Y-6096414D01*
X8877040Y-6095000D01*
X8875625Y-6093586D01*
X8893586Y-6075625D01*
X8895000Y-6077039D01*
X8896414Y-6075625D01*
X8914375Y-6093586D01*
X8912961Y-6095000D01*
X9008113Y-6190152D01*
X9011185Y-6189024D01*
X9018001Y-6199225D01*
X9040775Y-6221999D01*
X9066260Y-6239027D01*
X9066260Y-6316385D01*
X8985385Y-6397260D01*
X6100866Y-6397260D01*
X6097000Y-6396879D01*
X6093134Y-6397260D01*
X6093133Y-6397260D01*
X6081564Y-6398399D01*
X6066722Y-6402902D01*
X6053043Y-6410213D01*
X6053043Y-6410213D01*
X6053043Y-6410213D01*
X6044057Y-6417588D01*
X6044057Y-6417588D01*
X6041053Y-6420053D01*
X6038588Y-6423057D01*
X5917058Y-6544587D01*
X5914053Y-6547053D01*
X5904213Y-6559043D01*
X5896902Y-6572722D01*
X5892399Y-6587564D01*
X5891260Y-6599133D01*
X5891260Y-6599134D01*
X5890879Y-6603000D01*
X5891260Y-6606866D01*
X5891260Y-6858013D01*
X5875337Y-6868652D01*
X5854652Y-6889337D01*
X5843000Y-6906776D01*
X5831347Y-6889337D01*
X5810663Y-6868652D01*
X5786341Y-6852401D01*
X5759316Y-6841207D01*
X5730626Y-6835500D01*
X5701374Y-6835500D01*
X5672684Y-6841207D01*
X5645659Y-6852401D01*
X5621337Y-6868652D01*
X5600652Y-6889337D01*
X5589000Y-6906776D01*
X5577348Y-6889337D01*
X5556663Y-6868652D01*
X5532341Y-6852401D01*
X5505316Y-6841207D01*
X5476626Y-6835500D01*
X5447374Y-6835500D01*
X5418684Y-6841207D01*
X5391659Y-6852401D01*
X5367337Y-6868652D01*
X5346653Y-6889337D01*
X5335000Y-6906776D01*
X5323348Y-6889337D01*
X5302663Y-6868652D01*
X5286740Y-6858013D01*
X5286740Y-5324957D01*
X8131500Y-5324957D01*
X8131500Y-5365043D01*
X8139320Y-5404359D01*
X8154661Y-5441393D01*
X8176931Y-5474724D01*
X8205276Y-5503069D01*
X8238607Y-5525339D01*
X8275641Y-5540680D01*
X8314957Y-5548500D01*
X8355043Y-5548500D01*
X8394359Y-5540680D01*
X8431393Y-5525339D01*
X8464724Y-5503069D01*
X8493069Y-5474724D01*
X8515339Y-5441393D01*
X8530680Y-5404359D01*
X8538500Y-5365043D01*
X8538500Y-5324957D01*
X8530680Y-5285641D01*
X8515339Y-5248607D01*
X8493069Y-5215276D01*
X8464724Y-5186931D01*
X8431393Y-5164661D01*
X8394359Y-5149320D01*
X8355043Y-5141500D01*
X8314957Y-5141500D01*
X8275641Y-5149320D01*
X8238607Y-5164661D01*
X8205276Y-5186931D01*
X8176931Y-5215276D01*
X8154661Y-5248607D01*
X8139320Y-5285641D01*
X8131500Y-5324957D01*
X5286740Y-5324957D01*
X5286740Y-4066866D01*
X5287121Y-4063000D01*
X5286740Y-4059134D01*
X5286740Y-4059133D01*
X5285601Y-4047564D01*
X5281098Y-4032722D01*
X5273787Y-4019043D01*
X5269320Y-4013601D01*
X5266412Y-4010057D01*
X5266412Y-4010057D01*
X5263947Y-4007053D01*
X5260943Y-4004588D01*
X5139413Y-3883058D01*
X5136947Y-3880053D01*
X5124957Y-3870213D01*
X5111278Y-3862902D01*
X5096436Y-3858399D01*
X5084867Y-3857260D01*
X5084866Y-3857260D01*
X5081000Y-3856879D01*
X5077134Y-3857260D01*
X2331964Y-3857260D01*
X2328248Y-3850307D01*
X2309066Y-3826934D01*
X2287214Y-3809000D01*
X2309066Y-3791066D01*
X2321447Y-3775980D01*
X2411480Y-3775980D01*
X2415175Y-3777101D01*
X2432500Y-3778807D01*
X2522500Y-3778807D01*
X2539826Y-3777101D01*
X2556485Y-3772047D01*
X2571839Y-3763840D01*
X2585296Y-3752796D01*
X2596341Y-3739339D01*
X2604547Y-3723985D01*
X2609601Y-3707325D01*
X2611307Y-3690000D01*
X2611307Y-3625000D01*
X2609601Y-3607674D01*
X2604547Y-3591015D01*
X2596341Y-3575661D01*
X2585296Y-3562204D01*
X2583920Y-3561074D01*
X2587469Y-3558702D01*
X2596202Y-3549969D01*
X2603064Y-3539700D01*
X2607791Y-3528289D01*
X2610200Y-3516175D01*
X2610200Y-3480875D01*
X2594525Y-3465200D01*
X2490200Y-3465200D01*
X2490200Y-3467200D01*
X2464800Y-3467200D01*
X2464800Y-3465200D01*
X2462800Y-3465200D01*
X2462800Y-3439800D01*
X2464800Y-3439800D01*
X2464800Y-3347975D01*
X2490200Y-3347975D01*
X2490200Y-3439800D01*
X2594525Y-3439800D01*
X2610200Y-3424125D01*
X2610200Y-3388825D01*
X2607791Y-3376711D01*
X2603064Y-3365300D01*
X2596202Y-3355031D01*
X2587469Y-3346298D01*
X2577200Y-3339436D01*
X2565789Y-3334709D01*
X2553675Y-3332300D01*
X2505875Y-3332300D01*
X2490200Y-3347975D01*
X2464800Y-3347975D01*
X2449125Y-3332300D01*
X2401325Y-3332300D01*
X2389211Y-3334709D01*
X2377800Y-3339436D01*
X2367531Y-3346298D01*
X2358798Y-3355031D01*
X2351936Y-3365300D01*
X2347210Y-3376711D01*
X2346275Y-3381411D01*
X2342502Y-3368974D01*
X2328248Y-3342307D01*
X2309066Y-3318934D01*
X2285693Y-3299752D01*
X2259026Y-3285498D01*
X2230091Y-3276721D01*
X2207541Y-3274500D01*
X2112459Y-3274500D01*
X2089909Y-3276721D01*
X2060974Y-3285498D01*
X2034307Y-3299752D01*
X2010934Y-3318934D01*
X1998553Y-3334020D01*
X1910616Y-3334020D01*
X1906000Y-3333565D01*
X1901384Y-3334020D01*
X1901383Y-3334020D01*
X1887577Y-3335380D01*
X1869861Y-3340754D01*
X1853535Y-3349480D01*
X1839225Y-3361225D01*
X1836282Y-3364810D01*
X1715811Y-3485281D01*
X1712225Y-3488225D01*
X1709282Y-3491811D01*
X1700480Y-3502535D01*
X1691754Y-3518861D01*
X1686380Y-3536577D01*
X1684565Y-3555000D01*
X1685020Y-3559617D01*
X1685020Y-4512112D01*
X1620811Y-4576321D01*
X1617225Y-4579265D01*
X1614282Y-4582851D01*
X1605480Y-4593575D01*
X1596754Y-4609901D01*
X1591380Y-4627617D01*
X1589565Y-4646040D01*
X1590020Y-4650657D01*
X1590020Y-4673283D01*
X1585050Y-4682582D01*
X1581419Y-4694552D01*
X1580193Y-4707000D01*
X1580193Y-4797000D01*
X1581419Y-4809448D01*
X1585050Y-4821418D01*
X1590946Y-4832449D01*
X1598881Y-4842119D01*
X1600190Y-4843193D01*
X1549000Y-4843193D01*
X1536552Y-4844419D01*
X1524582Y-4848050D01*
X1513551Y-4853946D01*
X1503881Y-4861882D01*
X1495946Y-4871551D01*
X1492747Y-4877535D01*
X1488242Y-4878902D01*
X1474563Y-4886213D01*
X1462573Y-4896053D01*
X1460107Y-4899058D01*
X1457557Y-4901608D01*
X1454553Y-4904073D01*
X1444713Y-4916063D01*
X1437402Y-4929742D01*
X1432899Y-4944584D01*
X1431379Y-4960020D01*
X1431760Y-4963887D01*
X1431760Y-5276003D01*
X1428661Y-5277660D01*
X1415204Y-5288704D01*
X1404159Y-5302161D01*
X1395953Y-5317515D01*
X1390899Y-5334175D01*
X1389193Y-5351500D01*
X1389193Y-5441500D01*
X1390899Y-5458826D01*
X1395953Y-5475485D01*
X1404159Y-5490839D01*
X1415204Y-5504296D01*
X1428661Y-5515341D01*
X1444015Y-5523547D01*
X1460674Y-5528601D01*
X1478000Y-5530307D01*
X1543000Y-5530307D01*
X1560325Y-5528601D01*
X1576985Y-5523547D01*
X1592339Y-5515341D01*
X1605796Y-5504296D01*
X1613000Y-5495518D01*
X1620204Y-5504296D01*
X1633661Y-5515341D01*
X1636760Y-5516997D01*
X1636760Y-5720503D01*
X1633661Y-5722159D01*
X1620204Y-5733204D01*
X1619074Y-5734580D01*
X1616702Y-5731031D01*
X1607969Y-5722298D01*
X1597700Y-5715436D01*
X1586289Y-5710709D01*
X1574175Y-5708300D01*
X1538875Y-5708300D01*
X1523200Y-5723975D01*
X1523200Y-5828300D01*
X1525200Y-5828300D01*
X1525200Y-5853700D01*
X1523200Y-5853700D01*
X1523200Y-5958025D01*
X1538875Y-5973700D01*
X1574175Y-5973700D01*
X1586289Y-5971290D01*
X1597700Y-5966564D01*
X1607969Y-5959702D01*
X1616702Y-5950969D01*
X1619074Y-5947419D01*
X1620204Y-5948796D01*
X1633661Y-5959840D01*
X1649015Y-5968047D01*
X1665674Y-5973101D01*
X1683000Y-5974807D01*
X1748000Y-5974807D01*
X1765325Y-5973101D01*
X1781985Y-5968047D01*
X1797339Y-5959840D01*
X1810796Y-5948796D01*
X1821840Y-5935339D01*
X1830047Y-5919985D01*
X1835101Y-5903325D01*
X1836807Y-5886000D01*
X1836807Y-5796000D01*
X1835101Y-5778674D01*
X1830047Y-5762015D01*
X1821840Y-5746661D01*
X1810796Y-5733204D01*
X1797339Y-5722159D01*
X1794240Y-5720503D01*
X1794240Y-5586595D01*
X1847588Y-5639943D01*
X1850053Y-5642947D01*
X1853057Y-5645412D01*
X1862043Y-5652787D01*
X1871896Y-5658053D01*
X1875722Y-5660098D01*
X1890564Y-5664601D01*
X1902133Y-5665740D01*
X1902134Y-5665740D01*
X1906000Y-5666121D01*
X1909866Y-5665740D01*
X1974232Y-5665740D01*
X1968721Y-5683909D01*
X1965757Y-5714000D01*
X1968721Y-5744091D01*
X1977498Y-5773026D01*
X1991752Y-5799693D01*
X2010934Y-5823066D01*
X2032786Y-5841000D01*
X2010934Y-5858934D01*
X1991752Y-5882307D01*
X1977498Y-5908974D01*
X1968721Y-5937909D01*
X1965757Y-5968000D01*
X1968721Y-5998091D01*
X1977498Y-6027026D01*
X1991752Y-6053693D01*
X2010934Y-6077066D01*
X2034014Y-6096008D01*
X2024605Y-6102090D01*
X2003044Y-6123005D01*
X1985979Y-6147724D01*
X1974063Y-6175297D01*
X1971689Y-6185652D01*
X1983565Y-6209300D01*
X2147300Y-6209300D01*
X2147300Y-6207300D01*
X2172700Y-6207300D01*
X2172700Y-6209300D01*
X2336435Y-6209300D01*
X2348311Y-6185652D01*
X2345937Y-6175297D01*
X2334021Y-6147724D01*
X2316956Y-6123005D01*
X2295395Y-6102090D01*
X2285986Y-6096008D01*
X2309066Y-6077066D01*
X2328248Y-6053693D01*
X2331964Y-6046740D01*
X3016385Y-6046740D01*
X3097260Y-6127615D01*
X3097260Y-6858013D01*
X3081337Y-6868652D01*
X3064240Y-6885749D01*
X3064240Y-6606866D01*
X3064621Y-6603000D01*
X3064240Y-6599134D01*
X3064240Y-6599133D01*
X3063101Y-6587564D01*
X3058598Y-6572722D01*
X3051287Y-6559043D01*
X3046820Y-6553600D01*
X3043912Y-6550057D01*
X3043912Y-6550057D01*
X3041447Y-6547053D01*
X3038443Y-6544588D01*
X2916913Y-6423058D01*
X2914447Y-6420053D01*
X2902457Y-6410213D01*
X2888778Y-6402902D01*
X2873936Y-6398399D01*
X2862367Y-6397260D01*
X2862366Y-6397260D01*
X2858500Y-6396879D01*
X2854634Y-6397260D01*
X2331964Y-6397260D01*
X2328248Y-6390307D01*
X2309066Y-6366934D01*
X2285986Y-6347992D01*
X2295395Y-6341910D01*
X2316956Y-6320995D01*
X2334021Y-6296276D01*
X2345937Y-6268703D01*
X2348311Y-6258348D01*
X2336435Y-6234700D01*
X2172700Y-6234700D01*
X2172700Y-6236700D01*
X2147300Y-6236700D01*
X2147300Y-6234700D01*
X1983565Y-6234700D01*
X1971689Y-6258348D01*
X1974063Y-6268703D01*
X1985979Y-6296276D01*
X2003044Y-6320995D01*
X2024605Y-6341910D01*
X2034014Y-6347992D01*
X2010934Y-6366934D01*
X1991752Y-6390307D01*
X1977498Y-6416974D01*
X1968721Y-6445909D01*
X1965757Y-6476000D01*
X1968721Y-6506091D01*
X1977498Y-6535026D01*
X1991752Y-6561693D01*
X2010934Y-6585066D01*
X2032786Y-6603000D01*
X2010934Y-6620934D01*
X1991752Y-6644307D01*
X1977498Y-6670974D01*
X1968721Y-6699909D01*
X1965757Y-6730000D01*
X1968721Y-6760091D01*
X1977498Y-6789026D01*
X1991752Y-6815693D01*
X2010934Y-6839066D01*
X2032786Y-6857000D01*
X2010934Y-6874934D01*
X1998553Y-6890020D01*
X1885532Y-6890020D01*
X1885340Y-6889661D01*
X1874296Y-6876204D01*
X1860839Y-6865159D01*
X1845485Y-6856953D01*
X1828825Y-6851899D01*
X1811500Y-6850193D01*
X1746500Y-6850193D01*
X1729174Y-6851899D01*
X1712515Y-6856953D01*
X1697161Y-6865159D01*
X1683704Y-6876204D01*
X1682574Y-6877580D01*
X1680202Y-6874031D01*
X1671469Y-6865298D01*
X1661200Y-6858436D01*
X1649789Y-6853709D01*
X1637675Y-6851300D01*
X1602375Y-6851300D01*
X1586700Y-6866975D01*
X1586700Y-6971300D01*
X1588700Y-6971300D01*
X1588700Y-6996700D01*
X1586700Y-6996700D01*
X1586700Y-7101025D01*
X1602375Y-7116700D01*
X1637675Y-7116700D01*
X1649789Y-7114290D01*
X1661200Y-7109564D01*
X1671469Y-7102702D01*
X1680202Y-7093969D01*
X1682574Y-7090419D01*
X1683704Y-7091796D01*
X1697161Y-7102840D01*
X1712515Y-7111047D01*
X1729174Y-7116101D01*
X1746500Y-7117807D01*
X1811500Y-7117807D01*
X1828825Y-7116101D01*
X1845485Y-7111047D01*
X1860839Y-7102840D01*
X1874296Y-7091796D01*
X1885340Y-7078339D01*
X1885532Y-7077980D01*
X1998553Y-7077980D01*
X2007850Y-7089309D01*
X2000300Y-7092436D01*
X1990031Y-7099298D01*
X1981298Y-7108031D01*
X1974436Y-7118300D01*
X1969709Y-7129711D01*
X1967300Y-7141825D01*
X1967300Y-7209625D01*
X1982975Y-7225300D01*
X2147300Y-7225300D01*
X2147300Y-7223300D01*
X2172700Y-7223300D01*
X2172700Y-7225300D01*
X2337025Y-7225300D01*
X2352700Y-7209625D01*
X2352700Y-7141825D01*
X2350291Y-7129711D01*
X2345564Y-7118300D01*
X2338702Y-7108031D01*
X2329969Y-7099298D01*
X2319700Y-7092436D01*
X2312150Y-7089309D01*
X2328248Y-7069693D01*
X2342502Y-7043026D01*
X2351279Y-7014091D01*
X2354243Y-6984000D01*
X2351279Y-6953909D01*
X2342502Y-6924974D01*
X2328248Y-6898307D01*
X2309066Y-6874934D01*
X2287214Y-6857000D01*
X2309066Y-6839066D01*
X2328248Y-6815693D01*
X2342502Y-6789026D01*
X2351279Y-6760091D01*
X2354243Y-6730000D01*
X2351279Y-6699909D01*
X2342502Y-6670974D01*
X2328248Y-6644307D01*
X2309066Y-6620934D01*
X2287214Y-6603000D01*
X2309066Y-6585066D01*
X2328248Y-6561693D01*
X2331964Y-6554740D01*
X2825885Y-6554740D01*
X2906760Y-6635615D01*
X2906760Y-7043634D01*
X2906379Y-7047500D01*
X2906760Y-7051366D01*
X2906760Y-7051367D01*
X2907899Y-7062936D01*
X2912402Y-7077778D01*
X2919713Y-7091457D01*
X2929553Y-7103447D01*
X2932558Y-7105913D01*
X3031236Y-7204591D01*
X3027500Y-7223374D01*
X3027500Y-7252626D01*
X3033207Y-7281316D01*
X3044401Y-7308341D01*
X3060652Y-7332663D01*
X3081337Y-7353347D01*
X3105659Y-7369599D01*
X3132684Y-7380793D01*
X3161374Y-7386500D01*
X3190626Y-7386500D01*
X3219316Y-7380793D01*
X3246341Y-7369599D01*
X3270663Y-7353347D01*
X3291347Y-7332663D01*
X3303000Y-7315224D01*
X3314652Y-7332663D01*
X3335337Y-7353347D01*
X3359659Y-7369599D01*
X3386684Y-7380793D01*
X3415374Y-7386500D01*
X3444626Y-7386500D01*
X3473316Y-7380793D01*
X3500341Y-7369599D01*
X3524663Y-7353347D01*
X3545347Y-7332663D01*
X3557000Y-7315224D01*
X3568652Y-7332663D01*
X3589337Y-7353347D01*
X3613659Y-7369599D01*
X3640684Y-7380793D01*
X3669374Y-7386500D01*
X3698626Y-7386500D01*
X3727316Y-7380793D01*
X3754341Y-7369599D01*
X3778663Y-7353347D01*
X3799347Y-7332663D01*
X3811000Y-7315224D01*
X3822652Y-7332663D01*
X3843337Y-7353347D01*
X3867659Y-7369599D01*
X3894684Y-7380793D01*
X3923374Y-7386500D01*
X3952626Y-7386500D01*
X3981316Y-7380793D01*
X4008341Y-7369599D01*
X4032663Y-7353347D01*
X4053347Y-7332663D01*
X4065000Y-7315224D01*
X4076652Y-7332663D01*
X4097337Y-7353347D01*
X4121659Y-7369599D01*
X4148684Y-7380793D01*
X4177374Y-7386500D01*
X4206626Y-7386500D01*
X4235316Y-7380793D01*
X4262341Y-7369599D01*
X4286663Y-7353347D01*
X4307348Y-7332663D01*
X4319000Y-7315224D01*
X4330653Y-7332663D01*
X4351337Y-7353347D01*
X4375659Y-7369599D01*
X4402684Y-7380793D01*
X4431374Y-7386500D01*
X4460626Y-7386500D01*
X4489316Y-7380793D01*
X4516341Y-7369599D01*
X4540663Y-7353347D01*
X4561348Y-7332663D01*
X4573000Y-7315224D01*
X4584653Y-7332663D01*
X4605337Y-7353347D01*
X4629659Y-7369599D01*
X4656684Y-7380793D01*
X4685374Y-7386500D01*
X4714626Y-7386500D01*
X4743316Y-7380793D01*
X4770341Y-7369599D01*
X4794663Y-7353347D01*
X4815348Y-7332663D01*
X4827000Y-7315224D01*
X4838653Y-7332663D01*
X4859337Y-7353347D01*
X4883659Y-7369599D01*
X4910684Y-7380793D01*
X4939374Y-7386500D01*
X4968626Y-7386500D01*
X4997316Y-7380793D01*
X5024341Y-7369599D01*
X5048663Y-7353347D01*
X5069348Y-7332663D01*
X5081000Y-7315224D01*
X5092653Y-7332663D01*
X5113337Y-7353347D01*
X5137659Y-7369599D01*
X5164684Y-7380793D01*
X5193374Y-7386500D01*
X5222626Y-7386500D01*
X5251316Y-7380793D01*
X5278341Y-7369599D01*
X5302663Y-7353347D01*
X5315600Y-7340411D01*
X5377550Y-7340411D01*
X5385359Y-7365094D01*
X5411626Y-7377604D01*
X5439829Y-7384749D01*
X5468885Y-7386255D01*
X5497676Y-7382063D01*
X5525096Y-7372335D01*
X5538642Y-7365094D01*
X5546450Y-7340411D01*
X5462000Y-7255960D01*
X5377550Y-7340411D01*
X5315600Y-7340411D01*
X5323348Y-7332663D01*
X5335305Y-7314768D01*
X5359589Y-7322450D01*
X5444040Y-7238000D01*
X5359589Y-7153550D01*
X5335305Y-7161232D01*
X5323348Y-7143337D01*
X5302663Y-7122652D01*
X5285224Y-7111000D01*
X5302663Y-7099347D01*
X5323348Y-7078663D01*
X5335000Y-7061224D01*
X5346653Y-7078663D01*
X5367337Y-7099347D01*
X5385232Y-7111305D01*
X5377550Y-7135589D01*
X5462000Y-7220039D01*
X5546450Y-7135589D01*
X5538768Y-7111305D01*
X5556663Y-7099347D01*
X5577348Y-7078663D01*
X5589000Y-7061224D01*
X5600652Y-7078663D01*
X5621337Y-7099347D01*
X5638776Y-7111000D01*
X5621337Y-7122652D01*
X5600652Y-7143337D01*
X5588695Y-7161232D01*
X5564411Y-7153550D01*
X5479961Y-7238000D01*
X5564411Y-7322450D01*
X5588695Y-7314768D01*
X5600652Y-7332663D01*
X5621337Y-7353347D01*
X5645659Y-7369599D01*
X5672684Y-7380793D01*
X5701374Y-7386500D01*
X5730626Y-7386500D01*
X5759316Y-7380793D01*
X5786341Y-7369599D01*
X5810663Y-7353347D01*
X5831347Y-7332663D01*
X5843000Y-7315224D01*
X5854652Y-7332663D01*
X5875337Y-7353347D01*
X5899659Y-7369599D01*
X5926684Y-7380793D01*
X5955374Y-7386500D01*
X5984626Y-7386500D01*
X6013316Y-7380793D01*
X6040341Y-7369599D01*
X6064663Y-7353347D01*
X6085347Y-7332663D01*
X6097000Y-7315224D01*
X6108652Y-7332663D01*
X6129337Y-7353347D01*
X6153659Y-7369599D01*
X6180684Y-7380793D01*
X6209374Y-7386500D01*
X6238626Y-7386500D01*
X6267316Y-7380793D01*
X6294341Y-7369599D01*
X6318663Y-7353347D01*
X6339347Y-7332663D01*
X6351000Y-7315224D01*
X6362652Y-7332663D01*
X6383337Y-7353347D01*
X6407659Y-7369599D01*
X6434684Y-7380793D01*
X6463374Y-7386500D01*
X6492626Y-7386500D01*
X6521316Y-7380793D01*
X6548341Y-7369599D01*
X6572663Y-7353347D01*
X6593347Y-7332663D01*
X6605000Y-7315224D01*
X6616652Y-7332663D01*
X6637337Y-7353347D01*
X6661659Y-7369599D01*
X6688684Y-7380793D01*
X6717374Y-7386500D01*
X6746626Y-7386500D01*
X6775316Y-7380793D01*
X6802341Y-7369599D01*
X6826663Y-7353347D01*
X6839600Y-7340411D01*
X6901550Y-7340411D01*
X6909358Y-7365094D01*
X6935626Y-7377604D01*
X6963829Y-7384749D01*
X6992885Y-7386255D01*
X7021676Y-7382063D01*
X7049095Y-7372335D01*
X7062641Y-7365094D01*
X7070450Y-7340411D01*
X6986000Y-7255960D01*
X6901550Y-7340411D01*
X6839600Y-7340411D01*
X6847347Y-7332663D01*
X6859305Y-7314768D01*
X6883589Y-7322450D01*
X6968039Y-7238000D01*
X6883589Y-7153550D01*
X6859305Y-7161232D01*
X6847347Y-7143337D01*
X6826663Y-7122652D01*
X6809224Y-7111000D01*
X6826663Y-7099347D01*
X6847347Y-7078663D01*
X6859000Y-7061224D01*
X6870652Y-7078663D01*
X6891337Y-7099347D01*
X6909232Y-7111305D01*
X6901550Y-7135589D01*
X6986000Y-7220039D01*
X7070450Y-7135589D01*
X7062768Y-7111305D01*
X7080663Y-7099347D01*
X7101347Y-7078663D01*
X7113000Y-7061224D01*
X7124652Y-7078663D01*
X7145337Y-7099347D01*
X7162776Y-7111000D01*
X7145337Y-7122652D01*
X7124652Y-7143337D01*
X7112695Y-7161232D01*
X7088411Y-7153550D01*
X7003960Y-7238000D01*
X7088411Y-7322450D01*
X7112695Y-7314768D01*
X7124652Y-7332663D01*
X7145337Y-7353347D01*
X7169659Y-7369599D01*
X7196684Y-7380793D01*
X7225374Y-7386500D01*
X7254626Y-7386500D01*
X7283316Y-7380793D01*
X7310341Y-7369599D01*
X7334663Y-7353347D01*
X7355347Y-7332663D01*
X7367000Y-7315224D01*
X7378652Y-7332663D01*
X7399337Y-7353347D01*
X7423659Y-7369599D01*
X7450684Y-7380793D01*
X7479374Y-7386500D01*
X7508626Y-7386500D01*
X7537316Y-7380793D01*
X7564341Y-7369599D01*
X7588663Y-7353347D01*
X7609347Y-7332663D01*
X7621000Y-7315224D01*
X7632652Y-7332663D01*
X7653337Y-7353347D01*
X7677659Y-7369599D01*
X7704684Y-7380793D01*
X7733374Y-7386500D01*
X7762626Y-7386500D01*
X7791316Y-7380793D01*
X7818341Y-7369599D01*
X7842663Y-7353347D01*
X7863347Y-7332663D01*
X7879599Y-7308341D01*
X7890793Y-7281316D01*
X7896500Y-7252626D01*
X7896500Y-7223374D01*
X7890793Y-7194684D01*
X7879599Y-7167659D01*
X7863347Y-7143337D01*
X7842663Y-7122652D01*
X7825224Y-7111000D01*
X7842663Y-7099347D01*
X7863347Y-7078663D01*
X7879599Y-7054341D01*
X7890793Y-7027316D01*
X7896500Y-6998626D01*
X7896500Y-6969374D01*
X7890793Y-6940684D01*
X7888745Y-6935740D01*
X9458634Y-6935740D01*
X9462500Y-6936121D01*
X9466366Y-6935740D01*
X9466367Y-6935740D01*
X9477936Y-6934601D01*
X9492778Y-6930098D01*
X9506457Y-6922787D01*
X9518447Y-6912947D01*
X9520913Y-6909942D01*
X9623500Y-6807355D01*
X9623500Y-7187300D01*
X9559353Y-7187300D01*
X9479620Y-7203160D01*
X9404513Y-7234270D01*
X9336919Y-7279435D01*
X9279435Y-7336919D01*
X9234270Y-7404513D01*
X9203160Y-7479620D01*
X9187300Y-7559353D01*
X9187300Y-7640647D01*
X9203160Y-7720380D01*
X9234270Y-7795487D01*
X9279435Y-7863081D01*
X9336919Y-7920565D01*
X9349543Y-7929000D01*
X6566357Y-7929000D01*
X6566357Y-7569500D01*
X826500Y-7569500D01*
X826500Y-7929000D01*
X650457Y-7929000D01*
X663081Y-7920565D01*
X720565Y-7863081D01*
X765730Y-7795487D01*
X796840Y-7720380D01*
X812700Y-7640647D01*
X812700Y-7559353D01*
X796840Y-7479620D01*
X765730Y-7404513D01*
X720565Y-7336919D01*
X663081Y-7279435D01*
X643535Y-7266375D01*
X1967300Y-7266375D01*
X1967300Y-7334175D01*
X1969709Y-7346289D01*
X1974436Y-7357700D01*
X1981298Y-7367969D01*
X1990031Y-7376702D01*
X2000300Y-7383564D01*
X2011711Y-7388290D01*
X2023825Y-7390700D01*
X2131625Y-7390700D01*
X2147300Y-7375025D01*
X2147300Y-7250700D01*
X2172700Y-7250700D01*
X2172700Y-7375025D01*
X2188375Y-7390700D01*
X2296175Y-7390700D01*
X2308289Y-7388290D01*
X2319700Y-7383564D01*
X2329969Y-7376702D01*
X2338702Y-7367969D01*
X2345564Y-7357700D01*
X2350291Y-7346289D01*
X2352700Y-7334175D01*
X2352700Y-7266375D01*
X2337025Y-7250700D01*
X2172700Y-7250700D01*
X2147300Y-7250700D01*
X1982975Y-7250700D01*
X1967300Y-7266375D01*
X643535Y-7266375D01*
X595487Y-7234270D01*
X520380Y-7203160D01*
X440647Y-7187300D01*
X359353Y-7187300D01*
X279620Y-7203160D01*
X204513Y-7234270D01*
X136919Y-7279435D01*
X79435Y-7336919D01*
X71000Y-7349543D01*
X71000Y-7012375D01*
X1453800Y-7012375D01*
X1453800Y-7060175D01*
X1456209Y-7072289D01*
X1460936Y-7083700D01*
X1467798Y-7093969D01*
X1476531Y-7102702D01*
X1486800Y-7109564D01*
X1498211Y-7114290D01*
X1510325Y-7116700D01*
X1545625Y-7116700D01*
X1561300Y-7101025D01*
X1561300Y-6996700D01*
X1469475Y-6996700D01*
X1453800Y-7012375D01*
X71000Y-7012375D01*
X71000Y-6907825D01*
X1453800Y-6907825D01*
X1453800Y-6955625D01*
X1469475Y-6971300D01*
X1561300Y-6971300D01*
X1561300Y-6866975D01*
X1545625Y-6851300D01*
X1510325Y-6851300D01*
X1498211Y-6853709D01*
X1486800Y-6858436D01*
X1476531Y-6865298D01*
X1467798Y-6874031D01*
X1460936Y-6884300D01*
X1456209Y-6895711D01*
X1453800Y-6907825D01*
X71000Y-6907825D01*
X71000Y-5869375D01*
X1390300Y-5869375D01*
X1390300Y-5917175D01*
X1392710Y-5929289D01*
X1397436Y-5940700D01*
X1404298Y-5950969D01*
X1413031Y-5959702D01*
X1423300Y-5966564D01*
X1434711Y-5971290D01*
X1446825Y-5973700D01*
X1482125Y-5973700D01*
X1497800Y-5958025D01*
X1497800Y-5853700D01*
X1405975Y-5853700D01*
X1390300Y-5869375D01*
X71000Y-5869375D01*
X71000Y-5764825D01*
X1390300Y-5764825D01*
X1390300Y-5812625D01*
X1405975Y-5828300D01*
X1497800Y-5828300D01*
X1497800Y-5723975D01*
X1482125Y-5708300D01*
X1446825Y-5708300D01*
X1434711Y-5710709D01*
X1423300Y-5715436D01*
X1413031Y-5722298D01*
X1404298Y-5731031D01*
X1397436Y-5741300D01*
X1392710Y-5752711D01*
X1390300Y-5764825D01*
X71000Y-5764825D01*
X71000Y-4791000D01*
X544833Y-4791000D01*
X544833Y-4494000D01*
X540071Y-4494000D01*
X540071Y-4240000D01*
X511500Y-4240000D01*
X511500Y-4029000D01*
X540071Y-4029000D01*
X540071Y-3872500D01*
X613782Y-3872500D01*
X616649Y-3901611D01*
X625140Y-3929603D01*
X638929Y-3955401D01*
X657487Y-3978013D01*
X680099Y-3996571D01*
X685579Y-3999500D01*
X680099Y-4002429D01*
X657487Y-4020987D01*
X638929Y-4043599D01*
X625140Y-4069397D01*
X616649Y-4097389D01*
X613782Y-4126500D01*
X616649Y-4155611D01*
X625140Y-4183603D01*
X638929Y-4209401D01*
X657487Y-4232013D01*
X680099Y-4250571D01*
X685579Y-4253500D01*
X680099Y-4256429D01*
X657487Y-4274987D01*
X638929Y-4297599D01*
X625140Y-4323397D01*
X616649Y-4351389D01*
X613782Y-4380500D01*
X616649Y-4409611D01*
X625140Y-4437603D01*
X638929Y-4463401D01*
X657487Y-4486013D01*
X680099Y-4504571D01*
X685579Y-4507500D01*
X680099Y-4510429D01*
X657487Y-4528987D01*
X638929Y-4551599D01*
X625140Y-4577397D01*
X616649Y-4605389D01*
X613782Y-4634500D01*
X616649Y-4663611D01*
X625140Y-4691603D01*
X638929Y-4717401D01*
X657487Y-4740013D01*
X680099Y-4758571D01*
X705897Y-4772360D01*
X733889Y-4780851D01*
X755705Y-4783000D01*
X770295Y-4783000D01*
X792111Y-4780851D01*
X820103Y-4772360D01*
X845901Y-4758571D01*
X868513Y-4740013D01*
X887071Y-4717401D01*
X889295Y-4713240D01*
X1330634Y-4713240D01*
X1334500Y-4713621D01*
X1338366Y-4713240D01*
X1338367Y-4713240D01*
X1349936Y-4712101D01*
X1364778Y-4707598D01*
X1378457Y-4700287D01*
X1390447Y-4690447D01*
X1392913Y-4687442D01*
X1514443Y-4565912D01*
X1517447Y-4563447D01*
X1527287Y-4551457D01*
X1534598Y-4537778D01*
X1539101Y-4522936D01*
X1540240Y-4511367D01*
X1540240Y-4511366D01*
X1540621Y-4507500D01*
X1540240Y-4503634D01*
X1540240Y-3333615D01*
X1621115Y-3252740D01*
X3172134Y-3252740D01*
X3176000Y-3253121D01*
X3179866Y-3252740D01*
X3179867Y-3252740D01*
X3191436Y-3251601D01*
X3206278Y-3247098D01*
X3219957Y-3239787D01*
X3231947Y-3229947D01*
X3234413Y-3226942D01*
X3292443Y-3168912D01*
X3295447Y-3166447D01*
X3297912Y-3163443D01*
X3297912Y-3163443D01*
X3305287Y-3154457D01*
X3312598Y-3140778D01*
X3317101Y-3125936D01*
X3317675Y-3120098D01*
X3318240Y-3114367D01*
X3318240Y-3114366D01*
X3318621Y-3110500D01*
X3318240Y-3106633D01*
X3318240Y-2525113D01*
X8541848Y-2525113D01*
X8551470Y-2551329D01*
X8580295Y-2565338D01*
X8611299Y-2573455D01*
X8643291Y-2575366D01*
X8675041Y-2571000D01*
X8705330Y-2560523D01*
X8722531Y-2551329D01*
X8732152Y-2525113D01*
X8637000Y-2429961D01*
X8541848Y-2525113D01*
X3318240Y-2525113D01*
X3318240Y-2418291D01*
X8473634Y-2418291D01*
X8478000Y-2450041D01*
X8488477Y-2480330D01*
X8497671Y-2497531D01*
X8523887Y-2507152D01*
X8619040Y-2412000D01*
X8654961Y-2412000D01*
X8750113Y-2507152D01*
X8776329Y-2497531D01*
X8790338Y-2468705D01*
X8798455Y-2437701D01*
X8800366Y-2405709D01*
X8796000Y-2373959D01*
X8785523Y-2343670D01*
X8776329Y-2326470D01*
X8750113Y-2316848D01*
X8654961Y-2412000D01*
X8619040Y-2412000D01*
X8523887Y-2316848D01*
X8497671Y-2326470D01*
X8483662Y-2355295D01*
X8475546Y-2386299D01*
X8473634Y-2418291D01*
X3318240Y-2418291D01*
X3318240Y-2298887D01*
X8541848Y-2298887D01*
X8637000Y-2394040D01*
X8732152Y-2298887D01*
X8722531Y-2272671D01*
X8693705Y-2258662D01*
X8662701Y-2250546D01*
X8630709Y-2248634D01*
X8598959Y-2253000D01*
X8568670Y-2263477D01*
X8551470Y-2272671D01*
X8541848Y-2298887D01*
X3318240Y-2298887D01*
X3318240Y-1875113D01*
X8541848Y-1875113D01*
X8551470Y-1901329D01*
X8580295Y-1915338D01*
X8611299Y-1923454D01*
X8643291Y-1925366D01*
X8675041Y-1921000D01*
X8705330Y-1910523D01*
X8722531Y-1901329D01*
X8732152Y-1875113D01*
X8637000Y-1779960D01*
X8541848Y-1875113D01*
X3318240Y-1875113D01*
X3318240Y-1768291D01*
X8473634Y-1768291D01*
X8478000Y-1800041D01*
X8488477Y-1830330D01*
X8497671Y-1847530D01*
X8523887Y-1857152D01*
X8619040Y-1762000D01*
X8654961Y-1762000D01*
X8750113Y-1857152D01*
X8776329Y-1847530D01*
X8790338Y-1818705D01*
X8798455Y-1787701D01*
X8800366Y-1755709D01*
X8796000Y-1723959D01*
X8785523Y-1693670D01*
X8776329Y-1676469D01*
X8750113Y-1666848D01*
X8654961Y-1762000D01*
X8619040Y-1762000D01*
X8523887Y-1666848D01*
X8497671Y-1676469D01*
X8483662Y-1705295D01*
X8475546Y-1736299D01*
X8473634Y-1768291D01*
X3318240Y-1768291D01*
X3318240Y-1648887D01*
X8541848Y-1648887D01*
X8637000Y-1744039D01*
X8732152Y-1648887D01*
X8722531Y-1622671D01*
X8693705Y-1608662D01*
X8662701Y-1600545D01*
X8630709Y-1598634D01*
X8598959Y-1603000D01*
X8568670Y-1613477D01*
X8551470Y-1622671D01*
X8541848Y-1648887D01*
X3318240Y-1648887D01*
X3318240Y-1240251D01*
X3335337Y-1257348D01*
X3359659Y-1273599D01*
X3386684Y-1284793D01*
X3415374Y-1290500D01*
X3444626Y-1290500D01*
X3473316Y-1284793D01*
X3500341Y-1273599D01*
X3524663Y-1257348D01*
X3545347Y-1236663D01*
X3557000Y-1219224D01*
X3568652Y-1236663D01*
X3589337Y-1257348D01*
X3613659Y-1273599D01*
X3640684Y-1284793D01*
X3669374Y-1290500D01*
X3698626Y-1290500D01*
X3727316Y-1284793D01*
X3754341Y-1273599D01*
X3778663Y-1257348D01*
X3791600Y-1244411D01*
X3853550Y-1244411D01*
X3861358Y-1269095D01*
X3887626Y-1281604D01*
X3915829Y-1288750D01*
X3944885Y-1290255D01*
X3973676Y-1286063D01*
X4001095Y-1276335D01*
X4014641Y-1269095D01*
X4022450Y-1244411D01*
X3938000Y-1159961D01*
X3853550Y-1244411D01*
X3791600Y-1244411D01*
X3799347Y-1236663D01*
X3811305Y-1218768D01*
X3835589Y-1226450D01*
X3920039Y-1142000D01*
X3835589Y-1057550D01*
X3811305Y-1065232D01*
X3799347Y-1047337D01*
X3778663Y-1026652D01*
X3761224Y-1015000D01*
X3778663Y-1003347D01*
X3799347Y-982663D01*
X3811000Y-965224D01*
X3822652Y-982663D01*
X3843337Y-1003347D01*
X3861232Y-1015305D01*
X3853550Y-1039589D01*
X3938000Y-1124040D01*
X4022450Y-1039589D01*
X4014768Y-1015305D01*
X4032663Y-1003347D01*
X4053347Y-982663D01*
X4065000Y-965224D01*
X4076652Y-982663D01*
X4097337Y-1003347D01*
X4114776Y-1015000D01*
X4097337Y-1026652D01*
X4076652Y-1047337D01*
X4064695Y-1065232D01*
X4040411Y-1057550D01*
X3955960Y-1142000D01*
X4040411Y-1226450D01*
X4064695Y-1218768D01*
X4076652Y-1236663D01*
X4097337Y-1257348D01*
X4121659Y-1273599D01*
X4148684Y-1284793D01*
X4177374Y-1290500D01*
X4206626Y-1290500D01*
X4235316Y-1284793D01*
X4262341Y-1273599D01*
X4286663Y-1257348D01*
X4307348Y-1236663D01*
X4319000Y-1219224D01*
X4330653Y-1236663D01*
X4351337Y-1257348D01*
X4375659Y-1273599D01*
X4402684Y-1284793D01*
X4431374Y-1290500D01*
X4460626Y-1290500D01*
X4489316Y-1284793D01*
X4516341Y-1273599D01*
X4540663Y-1257348D01*
X4561348Y-1236663D01*
X4573000Y-1219224D01*
X4584653Y-1236663D01*
X4605337Y-1257348D01*
X4629659Y-1273599D01*
X4656684Y-1284793D01*
X4685374Y-1290500D01*
X4714626Y-1290500D01*
X4743316Y-1284793D01*
X4770341Y-1273599D01*
X4794663Y-1257348D01*
X4815348Y-1236663D01*
X4827000Y-1219224D01*
X4838653Y-1236663D01*
X4859337Y-1257348D01*
X4883659Y-1273599D01*
X4910684Y-1284793D01*
X4939374Y-1290500D01*
X4968626Y-1290500D01*
X4997316Y-1284793D01*
X5024341Y-1273599D01*
X5048663Y-1257348D01*
X5069348Y-1236663D01*
X5081000Y-1219224D01*
X5092653Y-1236663D01*
X5113337Y-1257348D01*
X5137659Y-1273599D01*
X5164684Y-1284793D01*
X5193374Y-1290500D01*
X5222626Y-1290500D01*
X5251316Y-1284793D01*
X5278341Y-1273599D01*
X5302663Y-1257348D01*
X5315600Y-1244411D01*
X5377550Y-1244411D01*
X5385359Y-1269095D01*
X5411626Y-1281604D01*
X5439829Y-1288750D01*
X5468885Y-1290255D01*
X5497676Y-1286063D01*
X5525096Y-1276335D01*
X5538642Y-1269095D01*
X5546450Y-1244411D01*
X5631550Y-1244411D01*
X5639358Y-1269095D01*
X5665626Y-1281604D01*
X5693829Y-1288750D01*
X5722885Y-1290255D01*
X5751676Y-1286063D01*
X5779095Y-1276335D01*
X5792641Y-1269095D01*
X5800450Y-1244411D01*
X5716000Y-1159961D01*
X5631550Y-1244411D01*
X5546450Y-1244411D01*
X5462000Y-1159961D01*
X5377550Y-1244411D01*
X5315600Y-1244411D01*
X5323348Y-1236663D01*
X5335305Y-1218768D01*
X5359589Y-1226450D01*
X5444040Y-1142000D01*
X5479961Y-1142000D01*
X5564411Y-1226450D01*
X5589000Y-1218671D01*
X5613589Y-1226450D01*
X5698039Y-1142000D01*
X5613589Y-1057550D01*
X5589000Y-1065329D01*
X5564411Y-1057550D01*
X5479961Y-1142000D01*
X5444040Y-1142000D01*
X5359589Y-1057550D01*
X5335305Y-1065232D01*
X5323348Y-1047337D01*
X5302663Y-1026652D01*
X5285224Y-1015000D01*
X5302663Y-1003347D01*
X5315600Y-990411D01*
X5377550Y-990411D01*
X5385329Y-1015000D01*
X5377550Y-1039589D01*
X5462000Y-1124040D01*
X5546450Y-1039589D01*
X5538671Y-1015000D01*
X5546450Y-990411D01*
X5462000Y-905960D01*
X5377550Y-990411D01*
X5315600Y-990411D01*
X5323348Y-982663D01*
X5335305Y-964768D01*
X5359589Y-972450D01*
X5444040Y-888000D01*
X5359589Y-803550D01*
X5335305Y-811232D01*
X5323348Y-793337D01*
X5315600Y-785589D01*
X5377550Y-785589D01*
X5462000Y-870039D01*
X5546450Y-785589D01*
X5538642Y-760905D01*
X5512374Y-748396D01*
X5484171Y-741250D01*
X5455115Y-739745D01*
X5426324Y-743937D01*
X5398905Y-753665D01*
X5385359Y-760905D01*
X5377550Y-785589D01*
X5315600Y-785589D01*
X5302663Y-772652D01*
X5278341Y-756401D01*
X5251316Y-745207D01*
X5222626Y-739500D01*
X5193374Y-739500D01*
X5164684Y-745207D01*
X5137659Y-756401D01*
X5113337Y-772652D01*
X5092653Y-793337D01*
X5081000Y-810776D01*
X5069348Y-793337D01*
X5048663Y-772652D01*
X5024341Y-756401D01*
X4997316Y-745207D01*
X4968626Y-739500D01*
X4939374Y-739500D01*
X4910684Y-745207D01*
X4883659Y-756401D01*
X4859337Y-772652D01*
X4838653Y-793337D01*
X4827000Y-810776D01*
X4815348Y-793337D01*
X4794663Y-772652D01*
X4770341Y-756401D01*
X4743316Y-745207D01*
X4714626Y-739500D01*
X4685374Y-739500D01*
X4656684Y-745207D01*
X4629659Y-756401D01*
X4605337Y-772652D01*
X4584653Y-793337D01*
X4573000Y-810776D01*
X4561348Y-793337D01*
X4540663Y-772652D01*
X4516341Y-756401D01*
X4489316Y-745207D01*
X4460626Y-739500D01*
X4431374Y-739500D01*
X4402684Y-745207D01*
X4375659Y-756401D01*
X4351337Y-772652D01*
X4330653Y-793337D01*
X4319000Y-810776D01*
X4307348Y-793337D01*
X4286663Y-772652D01*
X4262341Y-756401D01*
X4235316Y-745207D01*
X4206626Y-739500D01*
X4177374Y-739500D01*
X4148684Y-745207D01*
X4121659Y-756401D01*
X4097337Y-772652D01*
X4076652Y-793337D01*
X4065000Y-810776D01*
X4053347Y-793337D01*
X4032663Y-772652D01*
X4008341Y-756401D01*
X3981316Y-745207D01*
X3952626Y-739500D01*
X3923374Y-739500D01*
X3894684Y-745207D01*
X3867659Y-756401D01*
X3843337Y-772652D01*
X3822652Y-793337D01*
X3811000Y-810776D01*
X3799347Y-793337D01*
X3778663Y-772652D01*
X3754341Y-756401D01*
X3727316Y-745207D01*
X3698626Y-739500D01*
X3669374Y-739500D01*
X3640684Y-745207D01*
X3613659Y-756401D01*
X3589337Y-772652D01*
X3568652Y-793337D01*
X3557000Y-810776D01*
X3545347Y-793337D01*
X3524663Y-772652D01*
X3500341Y-756401D01*
X3473316Y-745207D01*
X3444626Y-739500D01*
X3415374Y-739500D01*
X3386684Y-745207D01*
X3359659Y-756401D01*
X3335337Y-772652D01*
X3322151Y-785838D01*
X3319950Y-778582D01*
X3314054Y-767551D01*
X3306118Y-757881D01*
X3296449Y-749946D01*
X3285418Y-744050D01*
X3273448Y-740419D01*
X3261000Y-739193D01*
X3127740Y-739193D01*
X3127740Y-730115D01*
X3145115Y-712740D01*
X7842385Y-712740D01*
X7858519Y-728874D01*
X7858519Y-788508D01*
X7842663Y-772652D01*
X7818341Y-756401D01*
X7791316Y-745207D01*
X7762626Y-739500D01*
X7733374Y-739500D01*
X7704684Y-745207D01*
X7677659Y-756401D01*
X7653337Y-772652D01*
X7632652Y-793337D01*
X7621000Y-810776D01*
X7609347Y-793337D01*
X7588663Y-772652D01*
X7564341Y-756401D01*
X7537316Y-745207D01*
X7508626Y-739500D01*
X7479374Y-739500D01*
X7450684Y-745207D01*
X7423659Y-756401D01*
X7399337Y-772652D01*
X7378652Y-793337D01*
X7367000Y-810776D01*
X7355347Y-793337D01*
X7334663Y-772652D01*
X7310341Y-756401D01*
X7283316Y-745207D01*
X7254626Y-739500D01*
X7225374Y-739500D01*
X7196684Y-745207D01*
X7169659Y-756401D01*
X7145337Y-772652D01*
X7124652Y-793337D01*
X7113000Y-810776D01*
X7101347Y-793337D01*
X7080663Y-772652D01*
X7056341Y-756401D01*
X7029316Y-745207D01*
X7000626Y-739500D01*
X6971374Y-739500D01*
X6942684Y-745207D01*
X6915659Y-756401D01*
X6891337Y-772652D01*
X6870652Y-793337D01*
X6859000Y-810776D01*
X6847347Y-793337D01*
X6826663Y-772652D01*
X6802341Y-756401D01*
X6775316Y-745207D01*
X6746626Y-739500D01*
X6717374Y-739500D01*
X6688684Y-745207D01*
X6661659Y-756401D01*
X6637337Y-772652D01*
X6616652Y-793337D01*
X6605000Y-810776D01*
X6593347Y-793337D01*
X6572663Y-772652D01*
X6548341Y-756401D01*
X6521316Y-745207D01*
X6492626Y-739500D01*
X6463374Y-739500D01*
X6434684Y-745207D01*
X6407659Y-756401D01*
X6383337Y-772652D01*
X6362652Y-793337D01*
X6351000Y-810776D01*
X6339347Y-793337D01*
X6318663Y-772652D01*
X6294341Y-756401D01*
X6267316Y-745207D01*
X6238626Y-739500D01*
X6209374Y-739500D01*
X6180684Y-745207D01*
X6153659Y-756401D01*
X6129337Y-772652D01*
X6108652Y-793337D01*
X6097000Y-810776D01*
X6085347Y-793337D01*
X6064663Y-772652D01*
X6040341Y-756401D01*
X6013316Y-745207D01*
X5984626Y-739500D01*
X5955374Y-739500D01*
X5926684Y-745207D01*
X5899659Y-756401D01*
X5875337Y-772652D01*
X5854652Y-793337D01*
X5843000Y-810776D01*
X5831347Y-793337D01*
X5810663Y-772652D01*
X5786341Y-756401D01*
X5759316Y-745207D01*
X5730626Y-739500D01*
X5701374Y-739500D01*
X5672684Y-745207D01*
X5645659Y-756401D01*
X5621337Y-772652D01*
X5600652Y-793337D01*
X5588695Y-811232D01*
X5564411Y-803550D01*
X5479961Y-888000D01*
X5564411Y-972450D01*
X5588695Y-964768D01*
X5600652Y-982663D01*
X5621337Y-1003347D01*
X5639232Y-1015305D01*
X5631550Y-1039589D01*
X5716000Y-1124040D01*
X5717414Y-1122625D01*
X5735375Y-1140586D01*
X5733960Y-1142000D01*
X5818411Y-1226450D01*
X5842695Y-1218768D01*
X5854652Y-1236663D01*
X5875337Y-1257348D01*
X5899659Y-1273599D01*
X5926684Y-1284793D01*
X5955374Y-1290500D01*
X5984626Y-1290500D01*
X6013316Y-1284793D01*
X6040341Y-1273599D01*
X6064663Y-1257348D01*
X6085347Y-1236663D01*
X6097000Y-1219224D01*
X6108652Y-1236663D01*
X6129337Y-1257348D01*
X6153659Y-1273599D01*
X6180684Y-1284793D01*
X6209374Y-1290500D01*
X6238626Y-1290500D01*
X6267316Y-1284793D01*
X6268633Y-1284248D01*
X6271142Y-1292518D01*
X6278453Y-1306197D01*
X6288293Y-1318187D01*
X6291298Y-1320653D01*
X6419588Y-1448943D01*
X6422053Y-1451947D01*
X6425057Y-1454412D01*
X6425057Y-1454412D01*
X6434043Y-1461786D01*
X6434043Y-1461787D01*
X6447722Y-1469098D01*
X6462564Y-1473601D01*
X6474133Y-1474740D01*
X6474133Y-1474740D01*
X6478000Y-1475121D01*
X6481866Y-1474740D01*
X7998134Y-1474740D01*
X8002000Y-1475121D01*
X8005866Y-1474740D01*
X8005867Y-1474740D01*
X8017436Y-1473601D01*
X8032278Y-1469098D01*
X8045957Y-1461787D01*
X8057947Y-1451947D01*
X8060413Y-1448942D01*
X8181943Y-1327412D01*
X8184947Y-1324947D01*
X8187412Y-1321943D01*
X8194786Y-1312957D01*
X8194787Y-1312957D01*
X8202098Y-1299278D01*
X8206601Y-1284436D01*
X8207740Y-1272867D01*
X8207740Y-1272866D01*
X8208121Y-1269000D01*
X8207740Y-1265134D01*
X8207740Y-574366D01*
X8208121Y-570500D01*
X8207740Y-566634D01*
X8207740Y-566633D01*
X8206601Y-555064D01*
X8202098Y-540222D01*
X8194787Y-526543D01*
X8189729Y-520380D01*
X8187412Y-517557D01*
X8187412Y-517557D01*
X8184947Y-514553D01*
X8181943Y-512088D01*
X8060413Y-390558D01*
X8057947Y-387553D01*
X8045957Y-377713D01*
X8032278Y-370402D01*
X8017436Y-365899D01*
X8005867Y-364760D01*
X8005866Y-364760D01*
X8002000Y-364379D01*
X7998134Y-364760D01*
X2925866Y-364760D01*
X2922000Y-364379D01*
X2918134Y-364760D01*
X2918133Y-364760D01*
X2906564Y-365899D01*
X2891722Y-370402D01*
X2878043Y-377713D01*
X2878043Y-377713D01*
X2878043Y-377713D01*
X2869057Y-385088D01*
X2869057Y-385088D01*
X2866053Y-387553D01*
X2863588Y-390557D01*
X2742057Y-512088D01*
X2739053Y-514553D01*
X2736588Y-517557D01*
X2729214Y-526543D01*
X2721902Y-540222D01*
X2717400Y-555064D01*
X2715879Y-570500D01*
X2716260Y-574367D01*
X2716260Y-2823885D01*
X2635385Y-2904760D01*
X1401866Y-2904760D01*
X1398000Y-2904379D01*
X1394134Y-2904760D01*
X1394133Y-2904760D01*
X1382564Y-2905899D01*
X1367722Y-2910402D01*
X1354043Y-2917713D01*
X1342053Y-2927553D01*
X1339588Y-2930557D01*
X1334820Y-2935325D01*
X1351374Y-2895360D01*
X1361500Y-2844452D01*
X1361500Y-2792548D01*
X1351374Y-2741640D01*
X1331511Y-2693686D01*
X1302674Y-2650529D01*
X1269453Y-2617307D01*
X1603000Y-2617307D01*
X1615448Y-2616081D01*
X1627418Y-2612450D01*
X1638449Y-2606554D01*
X1648118Y-2598619D01*
X1656054Y-2588949D01*
X1661950Y-2577918D01*
X1665581Y-2565948D01*
X1666807Y-2553500D01*
X1666807Y-2143500D01*
X1665581Y-2131052D01*
X1661950Y-2119082D01*
X1656054Y-2108051D01*
X1648118Y-2098382D01*
X1638449Y-2090446D01*
X1627418Y-2084550D01*
X1615448Y-2080919D01*
X1603000Y-2079693D01*
X1491980Y-2079693D01*
X1491980Y-1716020D01*
X1493101Y-1712325D01*
X1494807Y-1695000D01*
X1494807Y-1605000D01*
X1493101Y-1587674D01*
X1491980Y-1583980D01*
X1491980Y-1146616D01*
X1492435Y-1142000D01*
X1491980Y-1137384D01*
X1491980Y-1137383D01*
X1490620Y-1123577D01*
X1485246Y-1105861D01*
X1476520Y-1089535D01*
X1464775Y-1075225D01*
X1461189Y-1072282D01*
X1414807Y-1025899D01*
X1414807Y-956500D01*
X1476714Y-956500D01*
X1476714Y-584500D01*
X826500Y-584500D01*
X826500Y-956500D01*
X890814Y-956500D01*
X885976Y-966738D01*
X879155Y-994007D01*
X877785Y-1022083D01*
X881918Y-1049887D01*
X891397Y-1076350D01*
X897986Y-1088677D01*
X922159Y-1095881D01*
X1003039Y-1015000D01*
X1001625Y-1013586D01*
X1019586Y-995625D01*
X1021000Y-997039D01*
X1022414Y-995625D01*
X1040375Y-1013586D01*
X1038960Y-1015000D01*
X1119841Y-1095881D01*
X1127193Y-1093690D01*
X1127193Y-1095000D01*
X1128419Y-1107448D01*
X1132050Y-1119418D01*
X1137946Y-1130449D01*
X1145882Y-1140119D01*
X1155551Y-1148054D01*
X1166582Y-1153950D01*
X1178552Y-1157581D01*
X1191000Y-1158807D01*
X1281900Y-1158807D01*
X1304020Y-1180928D01*
X1304020Y-1524554D01*
X1291661Y-1531159D01*
X1278204Y-1542204D01*
X1277074Y-1543580D01*
X1274702Y-1540031D01*
X1265969Y-1531298D01*
X1255700Y-1524436D01*
X1244289Y-1519709D01*
X1232175Y-1517300D01*
X1196875Y-1517300D01*
X1181200Y-1532975D01*
X1181200Y-1637300D01*
X1183200Y-1637300D01*
X1183200Y-1662700D01*
X1181200Y-1662700D01*
X1181200Y-1767025D01*
X1196875Y-1782700D01*
X1232175Y-1782700D01*
X1244289Y-1780290D01*
X1255700Y-1775564D01*
X1265969Y-1768702D01*
X1274702Y-1759969D01*
X1277074Y-1756419D01*
X1278204Y-1757796D01*
X1291661Y-1768840D01*
X1304020Y-1775446D01*
X1304020Y-2079693D01*
X1193000Y-2079693D01*
X1180552Y-2080919D01*
X1168582Y-2084550D01*
X1157551Y-2090446D01*
X1147882Y-2098382D01*
X1139946Y-2108051D01*
X1134050Y-2119082D01*
X1130419Y-2131052D01*
X1129193Y-2143500D01*
X1129193Y-2553500D01*
X1129448Y-2556093D01*
X1123953Y-2555000D01*
X1072048Y-2555000D01*
X1021140Y-2565126D01*
X973186Y-2584989D01*
X930028Y-2613826D01*
X893326Y-2650529D01*
X864489Y-2693686D01*
X844626Y-2741640D01*
X834500Y-2792548D01*
X834500Y-2844452D01*
X844626Y-2895360D01*
X864489Y-2943314D01*
X893326Y-2986471D01*
X930028Y-3023174D01*
X973186Y-3052011D01*
X1021140Y-3071874D01*
X1072048Y-3082000D01*
X1123953Y-3082000D01*
X1174860Y-3071874D01*
X1214825Y-3055320D01*
X1027557Y-3242588D01*
X1024553Y-3245053D01*
X1022088Y-3248057D01*
X1014713Y-3257043D01*
X1007402Y-3270722D01*
X1002899Y-3285564D01*
X1001379Y-3301000D01*
X1001760Y-3304867D01*
X1001760Y-3712885D01*
X920885Y-3793760D01*
X889295Y-3793760D01*
X887071Y-3789599D01*
X868513Y-3766987D01*
X864945Y-3764058D01*
X866289Y-3763790D01*
X877700Y-3759064D01*
X887969Y-3752202D01*
X896702Y-3743469D01*
X903564Y-3733200D01*
X908290Y-3721789D01*
X910700Y-3709675D01*
X910700Y-3646875D01*
X895025Y-3631200D01*
X775700Y-3631200D01*
X775700Y-3633200D01*
X750300Y-3633200D01*
X750300Y-3631200D01*
X630975Y-3631200D01*
X615300Y-3646875D01*
X615300Y-3709675D01*
X617710Y-3721789D01*
X622436Y-3733200D01*
X629298Y-3743469D01*
X638031Y-3752202D01*
X648300Y-3759064D01*
X659711Y-3763790D01*
X661055Y-3764058D01*
X657487Y-3766987D01*
X638929Y-3789599D01*
X625140Y-3815397D01*
X616649Y-3843389D01*
X613782Y-3872500D01*
X540071Y-3872500D01*
X540071Y-3732000D01*
X516262Y-3732000D01*
X516262Y-3527325D01*
X615300Y-3527325D01*
X615300Y-3590125D01*
X630975Y-3605800D01*
X750300Y-3605800D01*
X750300Y-3486475D01*
X775700Y-3486475D01*
X775700Y-3605800D01*
X895025Y-3605800D01*
X910700Y-3590125D01*
X910700Y-3527325D01*
X908290Y-3515211D01*
X903564Y-3503800D01*
X896702Y-3493531D01*
X887969Y-3484798D01*
X877700Y-3477936D01*
X866289Y-3473209D01*
X854175Y-3470800D01*
X791375Y-3470800D01*
X775700Y-3486475D01*
X750300Y-3486475D01*
X734625Y-3470800D01*
X671825Y-3470800D01*
X659711Y-3473209D01*
X648300Y-3477936D01*
X638031Y-3484798D01*
X629298Y-3493531D01*
X622436Y-3503800D01*
X617710Y-3515211D01*
X615300Y-3527325D01*
X516262Y-3527325D01*
X516262Y-3478000D01*
X71000Y-3478000D01*
X71000Y-2562508D01*
X672097Y-2562508D01*
X697627Y-2592643D01*
X747185Y-2607534D01*
X798697Y-2612470D01*
X850181Y-2607262D01*
X898373Y-2592643D01*
X923903Y-2562508D01*
X798000Y-2436606D01*
X672097Y-2562508D01*
X71000Y-2562508D01*
X71000Y-2349197D01*
X534030Y-2349197D01*
X539238Y-2400681D01*
X553857Y-2448873D01*
X583992Y-2474403D01*
X709894Y-2348500D01*
X886105Y-2348500D01*
X1012008Y-2474403D01*
X1042143Y-2448873D01*
X1057034Y-2399315D01*
X1061970Y-2347803D01*
X1056762Y-2296319D01*
X1042143Y-2248127D01*
X1012008Y-2222597D01*
X886105Y-2348500D01*
X709894Y-2348500D01*
X583992Y-2222597D01*
X553857Y-2248127D01*
X538966Y-2297685D01*
X534030Y-2349197D01*
X71000Y-2349197D01*
X71000Y-2134492D01*
X672097Y-2134492D01*
X798000Y-2260395D01*
X923903Y-2134492D01*
X898373Y-2104357D01*
X848815Y-2089466D01*
X797303Y-2084530D01*
X745819Y-2089738D01*
X697627Y-2104357D01*
X672097Y-2134492D01*
X71000Y-2134492D01*
X71000Y-1678375D01*
X1048300Y-1678375D01*
X1048300Y-1726175D01*
X1050710Y-1738289D01*
X1055436Y-1749700D01*
X1062298Y-1759969D01*
X1071031Y-1768702D01*
X1081300Y-1775564D01*
X1092711Y-1780290D01*
X1104825Y-1782700D01*
X1140125Y-1782700D01*
X1155800Y-1767025D01*
X1155800Y-1662700D01*
X1063975Y-1662700D01*
X1048300Y-1678375D01*
X71000Y-1678375D01*
X71000Y-1573825D01*
X1048300Y-1573825D01*
X1048300Y-1621625D01*
X1063975Y-1637300D01*
X1155800Y-1637300D01*
X1155800Y-1532975D01*
X1140125Y-1517300D01*
X1104825Y-1517300D01*
X1092711Y-1519709D01*
X1081300Y-1524436D01*
X1071031Y-1531298D01*
X1062298Y-1540031D01*
X1055436Y-1550300D01*
X1050710Y-1561711D01*
X1048300Y-1573825D01*
X71000Y-1573825D01*
X71000Y-1113841D01*
X940119Y-1113841D01*
X947323Y-1138014D01*
X972738Y-1150024D01*
X1000007Y-1156845D01*
X1028083Y-1158215D01*
X1055887Y-1154082D01*
X1082350Y-1144603D01*
X1094677Y-1138014D01*
X1101881Y-1113841D01*
X1021000Y-1032960D01*
X940119Y-1113841D01*
X71000Y-1113841D01*
X71000Y-650457D01*
X79435Y-663081D01*
X136919Y-720565D01*
X204513Y-765730D01*
X279620Y-796840D01*
X359353Y-812700D01*
X440647Y-812700D01*
X520380Y-796840D01*
X595487Y-765730D01*
X663081Y-720565D01*
X720565Y-663081D01*
X765730Y-595487D01*
X796840Y-520380D01*
X812700Y-440647D01*
X812700Y-359353D01*
X796840Y-279620D01*
X765730Y-204513D01*
X720565Y-136919D01*
X663081Y-79435D01*
X650457Y-71000D01*
X9349543Y-71000D01*
X9336919Y-79435D01*
X9336919Y-79435D01*
G37*
X9336919Y-79435D02*
X9279435Y-136919D01*
X9234270Y-204513D01*
X9203160Y-279620D01*
X9187300Y-359353D01*
X9187300Y-440647D01*
X9203160Y-520380D01*
X9234270Y-595487D01*
X9279435Y-663081D01*
X9336919Y-720565D01*
X9404513Y-765730D01*
X9479620Y-796840D01*
X9559353Y-812700D01*
X9640647Y-812700D01*
X9720380Y-796840D01*
X9795487Y-765730D01*
X9863081Y-720565D01*
X9920565Y-663081D01*
X9929000Y-650457D01*
X9929000Y-5295071D01*
X9652555Y-5295071D01*
X9650680Y-5285641D01*
X9635339Y-5248607D01*
X9613069Y-5215276D01*
X9584724Y-5186931D01*
X9551393Y-5164661D01*
X9514359Y-5149320D01*
X9475043Y-5141500D01*
X9434957Y-5141500D01*
X9395641Y-5149320D01*
X9358607Y-5164661D01*
X9325276Y-5186931D01*
X9296931Y-5215276D01*
X9274661Y-5248607D01*
X9259320Y-5285641D01*
X9251500Y-5324957D01*
X9251500Y-5365043D01*
X9259320Y-5404359D01*
X9274661Y-5441393D01*
X9296931Y-5474724D01*
X9325276Y-5503069D01*
X9333046Y-5508260D01*
X9050615Y-5508260D01*
X8969740Y-5427385D01*
X8969740Y-4758113D01*
X9049848Y-4758113D01*
X9059470Y-4784329D01*
X9088295Y-4798338D01*
X9119299Y-4806455D01*
X9151291Y-4808366D01*
X9183041Y-4804000D01*
X9213330Y-4793523D01*
X9230531Y-4784329D01*
X9240152Y-4758113D01*
X9145000Y-4662961D01*
X9049848Y-4758113D01*
X8969740Y-4758113D01*
X8969740Y-4651291D01*
X8981634Y-4651291D01*
X8986000Y-4683041D01*
X8996477Y-4713330D01*
X9005671Y-4730531D01*
X9031887Y-4740152D01*
X9127040Y-4645000D01*
X9162961Y-4645000D01*
X9258113Y-4740152D01*
X9284329Y-4730531D01*
X9298338Y-4701705D01*
X9306455Y-4670701D01*
X9308366Y-4638709D01*
X9304000Y-4606959D01*
X9293523Y-4576670D01*
X9284329Y-4559470D01*
X9258113Y-4549848D01*
X9162961Y-4645000D01*
X9127040Y-4645000D01*
X9031887Y-4549848D01*
X9005671Y-4559470D01*
X8991662Y-4588295D01*
X8983546Y-4619299D01*
X8981634Y-4651291D01*
X8969740Y-4651291D01*
X8969740Y-4531887D01*
X9049848Y-4531887D01*
X9145000Y-4627040D01*
X9240152Y-4531887D01*
X9230531Y-4505671D01*
X9201705Y-4491662D01*
X9170701Y-4483546D01*
X9138709Y-4481634D01*
X9106959Y-4486000D01*
X9076670Y-4496477D01*
X9059470Y-4505671D01*
X9049848Y-4531887D01*
X8969740Y-4531887D01*
X8969740Y-2640615D01*
X9040835Y-2569520D01*
X9070897Y-2575500D01*
X9103103Y-2575500D01*
X9134691Y-2569217D01*
X9164446Y-2556892D01*
X9191225Y-2538999D01*
X9213999Y-2516225D01*
X9231892Y-2489446D01*
X9244217Y-2459691D01*
X9250500Y-2428103D01*
X9250500Y-2395897D01*
X9244217Y-2364309D01*
X9231892Y-2334554D01*
X9213999Y-2307775D01*
X9191225Y-2285001D01*
X9165740Y-2267973D01*
X9165740Y-1906027D01*
X9191225Y-1888999D01*
X9213999Y-1866225D01*
X9231892Y-1839446D01*
X9244217Y-1809691D01*
X9250500Y-1778103D01*
X9250500Y-1745897D01*
X9244217Y-1714309D01*
X9231892Y-1684554D01*
X9213999Y-1657775D01*
X9191225Y-1635001D01*
X9164446Y-1617108D01*
X9134691Y-1604783D01*
X9103103Y-1598500D01*
X9070897Y-1598500D01*
X9039309Y-1604783D01*
X9009554Y-1617108D01*
X8982775Y-1635001D01*
X8960001Y-1657775D01*
X8942108Y-1684554D01*
X8929783Y-1714309D01*
X8923500Y-1745897D01*
X8923500Y-1778103D01*
X8929783Y-1809691D01*
X8942108Y-1839446D01*
X8960001Y-1866225D01*
X8982775Y-1888999D01*
X9008260Y-1906027D01*
X9008260Y-2267973D01*
X8982775Y-2285001D01*
X8960001Y-2307775D01*
X8942108Y-2334554D01*
X8929783Y-2364309D01*
X8923500Y-2395897D01*
X8923500Y-2428103D01*
X8929480Y-2458165D01*
X8838057Y-2549588D01*
X8835053Y-2552053D01*
X8832588Y-2555057D01*
X8825214Y-2564043D01*
X8817902Y-2577722D01*
X8813400Y-2592564D01*
X8811879Y-2608000D01*
X8812260Y-2611867D01*
X8812260Y-5456134D01*
X8811879Y-5460000D01*
X8812260Y-5463866D01*
X8812260Y-5463867D01*
X8813399Y-5475436D01*
X8817902Y-5490278D01*
X8825213Y-5503957D01*
X8835053Y-5515947D01*
X8838058Y-5518413D01*
X8954905Y-5635260D01*
X8796615Y-5635260D01*
X8723740Y-5562385D01*
X8723740Y-4789027D01*
X8749225Y-4771999D01*
X8771999Y-4749225D01*
X8789892Y-4722446D01*
X8802217Y-4692691D01*
X8808500Y-4661103D01*
X8808500Y-4628897D01*
X8802217Y-4597309D01*
X8789892Y-4567554D01*
X8771999Y-4540775D01*
X8749225Y-4518001D01*
X8722446Y-4500108D01*
X8692691Y-4487783D01*
X8661103Y-4481500D01*
X8628897Y-4481500D01*
X8597309Y-4487783D01*
X8567554Y-4500108D01*
X8540775Y-4518001D01*
X8518001Y-4540775D01*
X8500108Y-4567554D01*
X8487783Y-4597309D01*
X8481500Y-4628897D01*
X8481500Y-4661103D01*
X8487783Y-4692691D01*
X8500108Y-4722446D01*
X8518001Y-4749225D01*
X8540775Y-4771999D01*
X8566260Y-4789027D01*
X8566260Y-5591133D01*
X8565879Y-5595000D01*
X8567400Y-5610436D01*
X8571902Y-5625278D01*
X8577034Y-5634879D01*
X8579214Y-5638957D01*
X8589053Y-5650947D01*
X8592057Y-5653412D01*
X8705588Y-5766943D01*
X8708053Y-5769947D01*
X8711057Y-5772412D01*
X8711057Y-5772412D01*
X8711805Y-5773026D01*
X8720043Y-5779787D01*
X8733722Y-5787098D01*
X8748564Y-5791601D01*
X8760133Y-5792740D01*
X8760134Y-5792740D01*
X8764000Y-5793121D01*
X8767866Y-5792740D01*
X9302885Y-5792740D01*
X9383760Y-5873615D01*
X9383760Y-5904905D01*
X9330413Y-5851558D01*
X9327947Y-5848553D01*
X9315957Y-5838713D01*
X9302278Y-5831402D01*
X9287436Y-5826899D01*
X9275867Y-5825760D01*
X9275866Y-5825760D01*
X9272000Y-5825379D01*
X9268134Y-5825760D01*
X8708886Y-5825760D01*
X8705020Y-5825379D01*
X8701154Y-5825760D01*
X8701153Y-5825760D01*
X8689584Y-5826899D01*
X8674742Y-5831402D01*
X8661063Y-5838713D01*
X8654967Y-5843716D01*
X8649073Y-5848553D01*
X8646608Y-5851557D01*
X8592057Y-5906108D01*
X8589053Y-5908573D01*
X8584519Y-5914098D01*
X8579214Y-5920563D01*
X8573532Y-5931193D01*
X8545000Y-5931193D01*
X8532552Y-5932419D01*
X8520582Y-5936050D01*
X8509551Y-5941946D01*
X8499882Y-5949881D01*
X8491946Y-5959551D01*
X8486050Y-5970582D01*
X8482419Y-5982552D01*
X8481193Y-5995000D01*
X8481193Y-6195000D01*
X8482419Y-6207448D01*
X8486050Y-6219418D01*
X8491946Y-6230449D01*
X8499882Y-6240118D01*
X8509551Y-6248054D01*
X8520582Y-6253950D01*
X8532552Y-6257581D01*
X8545000Y-6258807D01*
X8745000Y-6258807D01*
X8757448Y-6257581D01*
X8769418Y-6253950D01*
X8780449Y-6248054D01*
X8790119Y-6240118D01*
X8798054Y-6230449D01*
X8803950Y-6219418D01*
X8803971Y-6219348D01*
X8809470Y-6234329D01*
X8838295Y-6248338D01*
X8869299Y-6256454D01*
X8901291Y-6258366D01*
X8933041Y-6254000D01*
X8963330Y-6243523D01*
X8980531Y-6234329D01*
X8990152Y-6208113D01*
X8895000Y-6112960D01*
X8893586Y-6114375D01*
X8875625Y-6096414D01*
X8877040Y-6095000D01*
X8875625Y-6093586D01*
X8893586Y-6075625D01*
X8895000Y-6077039D01*
X8896414Y-6075625D01*
X8914375Y-6093586D01*
X8912961Y-6095000D01*
X9008113Y-6190152D01*
X9011185Y-6189024D01*
X9018001Y-6199225D01*
X9040775Y-6221999D01*
X9066260Y-6239027D01*
X9066260Y-6316385D01*
X8985385Y-6397260D01*
X6100866Y-6397260D01*
X6097000Y-6396879D01*
X6093134Y-6397260D01*
X6093133Y-6397260D01*
X6081564Y-6398399D01*
X6066722Y-6402902D01*
X6053043Y-6410213D01*
X6053043Y-6410213D01*
X6053043Y-6410213D01*
X6044057Y-6417588D01*
X6044057Y-6417588D01*
X6041053Y-6420053D01*
X6038588Y-6423057D01*
X5917058Y-6544587D01*
X5914053Y-6547053D01*
X5904213Y-6559043D01*
X5896902Y-6572722D01*
X5892399Y-6587564D01*
X5891260Y-6599133D01*
X5891260Y-6599134D01*
X5890879Y-6603000D01*
X5891260Y-6606866D01*
X5891260Y-6858013D01*
X5875337Y-6868652D01*
X5854652Y-6889337D01*
X5843000Y-6906776D01*
X5831347Y-6889337D01*
X5810663Y-6868652D01*
X5786341Y-6852401D01*
X5759316Y-6841207D01*
X5730626Y-6835500D01*
X5701374Y-6835500D01*
X5672684Y-6841207D01*
X5645659Y-6852401D01*
X5621337Y-6868652D01*
X5600652Y-6889337D01*
X5589000Y-6906776D01*
X5577348Y-6889337D01*
X5556663Y-6868652D01*
X5532341Y-6852401D01*
X5505316Y-6841207D01*
X5476626Y-6835500D01*
X5447374Y-6835500D01*
X5418684Y-6841207D01*
X5391659Y-6852401D01*
X5367337Y-6868652D01*
X5346653Y-6889337D01*
X5335000Y-6906776D01*
X5323348Y-6889337D01*
X5302663Y-6868652D01*
X5286740Y-6858013D01*
X5286740Y-5324957D01*
X8131500Y-5324957D01*
X8131500Y-5365043D01*
X8139320Y-5404359D01*
X8154661Y-5441393D01*
X8176931Y-5474724D01*
X8205276Y-5503069D01*
X8238607Y-5525339D01*
X8275641Y-5540680D01*
X8314957Y-5548500D01*
X8355043Y-5548500D01*
X8394359Y-5540680D01*
X8431393Y-5525339D01*
X8464724Y-5503069D01*
X8493069Y-5474724D01*
X8515339Y-5441393D01*
X8530680Y-5404359D01*
X8538500Y-5365043D01*
X8538500Y-5324957D01*
X8530680Y-5285641D01*
X8515339Y-5248607D01*
X8493069Y-5215276D01*
X8464724Y-5186931D01*
X8431393Y-5164661D01*
X8394359Y-5149320D01*
X8355043Y-5141500D01*
X8314957Y-5141500D01*
X8275641Y-5149320D01*
X8238607Y-5164661D01*
X8205276Y-5186931D01*
X8176931Y-5215276D01*
X8154661Y-5248607D01*
X8139320Y-5285641D01*
X8131500Y-5324957D01*
X5286740Y-5324957D01*
X5286740Y-4066866D01*
X5287121Y-4063000D01*
X5286740Y-4059134D01*
X5286740Y-4059133D01*
X5285601Y-4047564D01*
X5281098Y-4032722D01*
X5273787Y-4019043D01*
X5269320Y-4013601D01*
X5266412Y-4010057D01*
X5266412Y-4010057D01*
X5263947Y-4007053D01*
X5260943Y-4004588D01*
X5139413Y-3883058D01*
X5136947Y-3880053D01*
X5124957Y-3870213D01*
X5111278Y-3862902D01*
X5096436Y-3858399D01*
X5084867Y-3857260D01*
X5084866Y-3857260D01*
X5081000Y-3856879D01*
X5077134Y-3857260D01*
X2331964Y-3857260D01*
X2328248Y-3850307D01*
X2309066Y-3826934D01*
X2287214Y-3809000D01*
X2309066Y-3791066D01*
X2321447Y-3775980D01*
X2411480Y-3775980D01*
X2415175Y-3777101D01*
X2432500Y-3778807D01*
X2522500Y-3778807D01*
X2539826Y-3777101D01*
X2556485Y-3772047D01*
X2571839Y-3763840D01*
X2585296Y-3752796D01*
X2596341Y-3739339D01*
X2604547Y-3723985D01*
X2609601Y-3707325D01*
X2611307Y-3690000D01*
X2611307Y-3625000D01*
X2609601Y-3607674D01*
X2604547Y-3591015D01*
X2596341Y-3575661D01*
X2585296Y-3562204D01*
X2583920Y-3561074D01*
X2587469Y-3558702D01*
X2596202Y-3549969D01*
X2603064Y-3539700D01*
X2607791Y-3528289D01*
X2610200Y-3516175D01*
X2610200Y-3480875D01*
X2594525Y-3465200D01*
X2490200Y-3465200D01*
X2490200Y-3467200D01*
X2464800Y-3467200D01*
X2464800Y-3465200D01*
X2462800Y-3465200D01*
X2462800Y-3439800D01*
X2464800Y-3439800D01*
X2464800Y-3347975D01*
X2490200Y-3347975D01*
X2490200Y-3439800D01*
X2594525Y-3439800D01*
X2610200Y-3424125D01*
X2610200Y-3388825D01*
X2607791Y-3376711D01*
X2603064Y-3365300D01*
X2596202Y-3355031D01*
X2587469Y-3346298D01*
X2577200Y-3339436D01*
X2565789Y-3334709D01*
X2553675Y-3332300D01*
X2505875Y-3332300D01*
X2490200Y-3347975D01*
X2464800Y-3347975D01*
X2449125Y-3332300D01*
X2401325Y-3332300D01*
X2389211Y-3334709D01*
X2377800Y-3339436D01*
X2367531Y-3346298D01*
X2358798Y-3355031D01*
X2351936Y-3365300D01*
X2347210Y-3376711D01*
X2346275Y-3381411D01*
X2342502Y-3368974D01*
X2328248Y-3342307D01*
X2309066Y-3318934D01*
X2285693Y-3299752D01*
X2259026Y-3285498D01*
X2230091Y-3276721D01*
X2207541Y-3274500D01*
X2112459Y-3274500D01*
X2089909Y-3276721D01*
X2060974Y-3285498D01*
X2034307Y-3299752D01*
X2010934Y-3318934D01*
X1998553Y-3334020D01*
X1910616Y-3334020D01*
X1906000Y-3333565D01*
X1901384Y-3334020D01*
X1901383Y-3334020D01*
X1887577Y-3335380D01*
X1869861Y-3340754D01*
X1853535Y-3349480D01*
X1839225Y-3361225D01*
X1836282Y-3364810D01*
X1715811Y-3485281D01*
X1712225Y-3488225D01*
X1709282Y-3491811D01*
X1700480Y-3502535D01*
X1691754Y-3518861D01*
X1686380Y-3536577D01*
X1684565Y-3555000D01*
X1685020Y-3559617D01*
X1685020Y-4512112D01*
X1620811Y-4576321D01*
X1617225Y-4579265D01*
X1614282Y-4582851D01*
X1605480Y-4593575D01*
X1596754Y-4609901D01*
X1591380Y-4627617D01*
X1589565Y-4646040D01*
X1590020Y-4650657D01*
X1590020Y-4673283D01*
X1585050Y-4682582D01*
X1581419Y-4694552D01*
X1580193Y-4707000D01*
X1580193Y-4797000D01*
X1581419Y-4809448D01*
X1585050Y-4821418D01*
X1590946Y-4832449D01*
X1598881Y-4842119D01*
X1600190Y-4843193D01*
X1549000Y-4843193D01*
X1536552Y-4844419D01*
X1524582Y-4848050D01*
X1513551Y-4853946D01*
X1503881Y-4861882D01*
X1495946Y-4871551D01*
X1492747Y-4877535D01*
X1488242Y-4878902D01*
X1474563Y-4886213D01*
X1462573Y-4896053D01*
X1460107Y-4899058D01*
X1457557Y-4901608D01*
X1454553Y-4904073D01*
X1444713Y-4916063D01*
X1437402Y-4929742D01*
X1432899Y-4944584D01*
X1431379Y-4960020D01*
X1431760Y-4963887D01*
X1431760Y-5276003D01*
X1428661Y-5277660D01*
X1415204Y-5288704D01*
X1404159Y-5302161D01*
X1395953Y-5317515D01*
X1390899Y-5334175D01*
X1389193Y-5351500D01*
X1389193Y-5441500D01*
X1390899Y-5458826D01*
X1395953Y-5475485D01*
X1404159Y-5490839D01*
X1415204Y-5504296D01*
X1428661Y-5515341D01*
X1444015Y-5523547D01*
X1460674Y-5528601D01*
X1478000Y-5530307D01*
X1543000Y-5530307D01*
X1560325Y-5528601D01*
X1576985Y-5523547D01*
X1592339Y-5515341D01*
X1605796Y-5504296D01*
X1613000Y-5495518D01*
X1620204Y-5504296D01*
X1633661Y-5515341D01*
X1636760Y-5516997D01*
X1636760Y-5720503D01*
X1633661Y-5722159D01*
X1620204Y-5733204D01*
X1619074Y-5734580D01*
X1616702Y-5731031D01*
X1607969Y-5722298D01*
X1597700Y-5715436D01*
X1586289Y-5710709D01*
X1574175Y-5708300D01*
X1538875Y-5708300D01*
X1523200Y-5723975D01*
X1523200Y-5828300D01*
X1525200Y-5828300D01*
X1525200Y-5853700D01*
X1523200Y-5853700D01*
X1523200Y-5958025D01*
X1538875Y-5973700D01*
X1574175Y-5973700D01*
X1586289Y-5971290D01*
X1597700Y-5966564D01*
X1607969Y-5959702D01*
X1616702Y-5950969D01*
X1619074Y-5947419D01*
X1620204Y-5948796D01*
X1633661Y-5959840D01*
X1649015Y-5968047D01*
X1665674Y-5973101D01*
X1683000Y-5974807D01*
X1748000Y-5974807D01*
X1765325Y-5973101D01*
X1781985Y-5968047D01*
X1797339Y-5959840D01*
X1810796Y-5948796D01*
X1821840Y-5935339D01*
X1830047Y-5919985D01*
X1835101Y-5903325D01*
X1836807Y-5886000D01*
X1836807Y-5796000D01*
X1835101Y-5778674D01*
X1830047Y-5762015D01*
X1821840Y-5746661D01*
X1810796Y-5733204D01*
X1797339Y-5722159D01*
X1794240Y-5720503D01*
X1794240Y-5586595D01*
X1847588Y-5639943D01*
X1850053Y-5642947D01*
X1853057Y-5645412D01*
X1862043Y-5652787D01*
X1871896Y-5658053D01*
X1875722Y-5660098D01*
X1890564Y-5664601D01*
X1902133Y-5665740D01*
X1902134Y-5665740D01*
X1906000Y-5666121D01*
X1909866Y-5665740D01*
X1974232Y-5665740D01*
X1968721Y-5683909D01*
X1965757Y-5714000D01*
X1968721Y-5744091D01*
X1977498Y-5773026D01*
X1991752Y-5799693D01*
X2010934Y-5823066D01*
X2032786Y-5841000D01*
X2010934Y-5858934D01*
X1991752Y-5882307D01*
X1977498Y-5908974D01*
X1968721Y-5937909D01*
X1965757Y-5968000D01*
X1968721Y-5998091D01*
X1977498Y-6027026D01*
X1991752Y-6053693D01*
X2010934Y-6077066D01*
X2034014Y-6096008D01*
X2024605Y-6102090D01*
X2003044Y-6123005D01*
X1985979Y-6147724D01*
X1974063Y-6175297D01*
X1971689Y-6185652D01*
X1983565Y-6209300D01*
X2147300Y-6209300D01*
X2147300Y-6207300D01*
X2172700Y-6207300D01*
X2172700Y-6209300D01*
X2336435Y-6209300D01*
X2348311Y-6185652D01*
X2345937Y-6175297D01*
X2334021Y-6147724D01*
X2316956Y-6123005D01*
X2295395Y-6102090D01*
X2285986Y-6096008D01*
X2309066Y-6077066D01*
X2328248Y-6053693D01*
X2331964Y-6046740D01*
X3016385Y-6046740D01*
X3097260Y-6127615D01*
X3097260Y-6858013D01*
X3081337Y-6868652D01*
X3064240Y-6885749D01*
X3064240Y-6606866D01*
X3064621Y-6603000D01*
X3064240Y-6599134D01*
X3064240Y-6599133D01*
X3063101Y-6587564D01*
X3058598Y-6572722D01*
X3051287Y-6559043D01*
X3046820Y-6553600D01*
X3043912Y-6550057D01*
X3043912Y-6550057D01*
X3041447Y-6547053D01*
X3038443Y-6544588D01*
X2916913Y-6423058D01*
X2914447Y-6420053D01*
X2902457Y-6410213D01*
X2888778Y-6402902D01*
X2873936Y-6398399D01*
X2862367Y-6397260D01*
X2862366Y-6397260D01*
X2858500Y-6396879D01*
X2854634Y-6397260D01*
X2331964Y-6397260D01*
X2328248Y-6390307D01*
X2309066Y-6366934D01*
X2285986Y-6347992D01*
X2295395Y-6341910D01*
X2316956Y-6320995D01*
X2334021Y-6296276D01*
X2345937Y-6268703D01*
X2348311Y-6258348D01*
X2336435Y-6234700D01*
X2172700Y-6234700D01*
X2172700Y-6236700D01*
X2147300Y-6236700D01*
X2147300Y-6234700D01*
X1983565Y-6234700D01*
X1971689Y-6258348D01*
X1974063Y-6268703D01*
X1985979Y-6296276D01*
X2003044Y-6320995D01*
X2024605Y-6341910D01*
X2034014Y-6347992D01*
X2010934Y-6366934D01*
X1991752Y-6390307D01*
X1977498Y-6416974D01*
X1968721Y-6445909D01*
X1965757Y-6476000D01*
X1968721Y-6506091D01*
X1977498Y-6535026D01*
X1991752Y-6561693D01*
X2010934Y-6585066D01*
X2032786Y-6603000D01*
X2010934Y-6620934D01*
X1991752Y-6644307D01*
X1977498Y-6670974D01*
X1968721Y-6699909D01*
X1965757Y-6730000D01*
X1968721Y-6760091D01*
X1977498Y-6789026D01*
X1991752Y-6815693D01*
X2010934Y-6839066D01*
X2032786Y-6857000D01*
X2010934Y-6874934D01*
X1998553Y-6890020D01*
X1885532Y-6890020D01*
X1885340Y-6889661D01*
X1874296Y-6876204D01*
X1860839Y-6865159D01*
X1845485Y-6856953D01*
X1828825Y-6851899D01*
X1811500Y-6850193D01*
X1746500Y-6850193D01*
X1729174Y-6851899D01*
X1712515Y-6856953D01*
X1697161Y-6865159D01*
X1683704Y-6876204D01*
X1682574Y-6877580D01*
X1680202Y-6874031D01*
X1671469Y-6865298D01*
X1661200Y-6858436D01*
X1649789Y-6853709D01*
X1637675Y-6851300D01*
X1602375Y-6851300D01*
X1586700Y-6866975D01*
X1586700Y-6971300D01*
X1588700Y-6971300D01*
X1588700Y-6996700D01*
X1586700Y-6996700D01*
X1586700Y-7101025D01*
X1602375Y-7116700D01*
X1637675Y-7116700D01*
X1649789Y-7114290D01*
X1661200Y-7109564D01*
X1671469Y-7102702D01*
X1680202Y-7093969D01*
X1682574Y-7090419D01*
X1683704Y-7091796D01*
X1697161Y-7102840D01*
X1712515Y-7111047D01*
X1729174Y-7116101D01*
X1746500Y-7117807D01*
X1811500Y-7117807D01*
X1828825Y-7116101D01*
X1845485Y-7111047D01*
X1860839Y-7102840D01*
X1874296Y-7091796D01*
X1885340Y-7078339D01*
X1885532Y-7077980D01*
X1998553Y-7077980D01*
X2007850Y-7089309D01*
X2000300Y-7092436D01*
X1990031Y-7099298D01*
X1981298Y-7108031D01*
X1974436Y-7118300D01*
X1969709Y-7129711D01*
X1967300Y-7141825D01*
X1967300Y-7209625D01*
X1982975Y-7225300D01*
X2147300Y-7225300D01*
X2147300Y-7223300D01*
X2172700Y-7223300D01*
X2172700Y-7225300D01*
X2337025Y-7225300D01*
X2352700Y-7209625D01*
X2352700Y-7141825D01*
X2350291Y-7129711D01*
X2345564Y-7118300D01*
X2338702Y-7108031D01*
X2329969Y-7099298D01*
X2319700Y-7092436D01*
X2312150Y-7089309D01*
X2328248Y-7069693D01*
X2342502Y-7043026D01*
X2351279Y-7014091D01*
X2354243Y-6984000D01*
X2351279Y-6953909D01*
X2342502Y-6924974D01*
X2328248Y-6898307D01*
X2309066Y-6874934D01*
X2287214Y-6857000D01*
X2309066Y-6839066D01*
X2328248Y-6815693D01*
X2342502Y-6789026D01*
X2351279Y-6760091D01*
X2354243Y-6730000D01*
X2351279Y-6699909D01*
X2342502Y-6670974D01*
X2328248Y-6644307D01*
X2309066Y-6620934D01*
X2287214Y-6603000D01*
X2309066Y-6585066D01*
X2328248Y-6561693D01*
X2331964Y-6554740D01*
X2825885Y-6554740D01*
X2906760Y-6635615D01*
X2906760Y-7043634D01*
X2906379Y-7047500D01*
X2906760Y-7051366D01*
X2906760Y-7051367D01*
X2907899Y-7062936D01*
X2912402Y-7077778D01*
X2919713Y-7091457D01*
X2929553Y-7103447D01*
X2932558Y-7105913D01*
X3031236Y-7204591D01*
X3027500Y-7223374D01*
X3027500Y-7252626D01*
X3033207Y-7281316D01*
X3044401Y-7308341D01*
X3060652Y-7332663D01*
X3081337Y-7353347D01*
X3105659Y-7369599D01*
X3132684Y-7380793D01*
X3161374Y-7386500D01*
X3190626Y-7386500D01*
X3219316Y-7380793D01*
X3246341Y-7369599D01*
X3270663Y-7353347D01*
X3291347Y-7332663D01*
X3303000Y-7315224D01*
X3314652Y-7332663D01*
X3335337Y-7353347D01*
X3359659Y-7369599D01*
X3386684Y-7380793D01*
X3415374Y-7386500D01*
X3444626Y-7386500D01*
X3473316Y-7380793D01*
X3500341Y-7369599D01*
X3524663Y-7353347D01*
X3545347Y-7332663D01*
X3557000Y-7315224D01*
X3568652Y-7332663D01*
X3589337Y-7353347D01*
X3613659Y-7369599D01*
X3640684Y-7380793D01*
X3669374Y-7386500D01*
X3698626Y-7386500D01*
X3727316Y-7380793D01*
X3754341Y-7369599D01*
X3778663Y-7353347D01*
X3799347Y-7332663D01*
X3811000Y-7315224D01*
X3822652Y-7332663D01*
X3843337Y-7353347D01*
X3867659Y-7369599D01*
X3894684Y-7380793D01*
X3923374Y-7386500D01*
X3952626Y-7386500D01*
X3981316Y-7380793D01*
X4008341Y-7369599D01*
X4032663Y-7353347D01*
X4053347Y-7332663D01*
X4065000Y-7315224D01*
X4076652Y-7332663D01*
X4097337Y-7353347D01*
X4121659Y-7369599D01*
X4148684Y-7380793D01*
X4177374Y-7386500D01*
X4206626Y-7386500D01*
X4235316Y-7380793D01*
X4262341Y-7369599D01*
X4286663Y-7353347D01*
X4307348Y-7332663D01*
X4319000Y-7315224D01*
X4330653Y-7332663D01*
X4351337Y-7353347D01*
X4375659Y-7369599D01*
X4402684Y-7380793D01*
X4431374Y-7386500D01*
X4460626Y-7386500D01*
X4489316Y-7380793D01*
X4516341Y-7369599D01*
X4540663Y-7353347D01*
X4561348Y-7332663D01*
X4573000Y-7315224D01*
X4584653Y-7332663D01*
X4605337Y-7353347D01*
X4629659Y-7369599D01*
X4656684Y-7380793D01*
X4685374Y-7386500D01*
X4714626Y-7386500D01*
X4743316Y-7380793D01*
X4770341Y-7369599D01*
X4794663Y-7353347D01*
X4815348Y-7332663D01*
X4827000Y-7315224D01*
X4838653Y-7332663D01*
X4859337Y-7353347D01*
X4883659Y-7369599D01*
X4910684Y-7380793D01*
X4939374Y-7386500D01*
X4968626Y-7386500D01*
X4997316Y-7380793D01*
X5024341Y-7369599D01*
X5048663Y-7353347D01*
X5069348Y-7332663D01*
X5081000Y-7315224D01*
X5092653Y-7332663D01*
X5113337Y-7353347D01*
X5137659Y-7369599D01*
X5164684Y-7380793D01*
X5193374Y-7386500D01*
X5222626Y-7386500D01*
X5251316Y-7380793D01*
X5278341Y-7369599D01*
X5302663Y-7353347D01*
X5315600Y-7340411D01*
X5377550Y-7340411D01*
X5385359Y-7365094D01*
X5411626Y-7377604D01*
X5439829Y-7384749D01*
X5468885Y-7386255D01*
X5497676Y-7382063D01*
X5525096Y-7372335D01*
X5538642Y-7365094D01*
X5546450Y-7340411D01*
X5462000Y-7255960D01*
X5377550Y-7340411D01*
X5315600Y-7340411D01*
X5323348Y-7332663D01*
X5335305Y-7314768D01*
X5359589Y-7322450D01*
X5444040Y-7238000D01*
X5359589Y-7153550D01*
X5335305Y-7161232D01*
X5323348Y-7143337D01*
X5302663Y-7122652D01*
X5285224Y-7111000D01*
X5302663Y-7099347D01*
X5323348Y-7078663D01*
X5335000Y-7061224D01*
X5346653Y-7078663D01*
X5367337Y-7099347D01*
X5385232Y-7111305D01*
X5377550Y-7135589D01*
X5462000Y-7220039D01*
X5546450Y-7135589D01*
X5538768Y-7111305D01*
X5556663Y-7099347D01*
X5577348Y-7078663D01*
X5589000Y-7061224D01*
X5600652Y-7078663D01*
X5621337Y-7099347D01*
X5638776Y-7111000D01*
X5621337Y-7122652D01*
X5600652Y-7143337D01*
X5588695Y-7161232D01*
X5564411Y-7153550D01*
X5479961Y-7238000D01*
X5564411Y-7322450D01*
X5588695Y-7314768D01*
X5600652Y-7332663D01*
X5621337Y-7353347D01*
X5645659Y-7369599D01*
X5672684Y-7380793D01*
X5701374Y-7386500D01*
X5730626Y-7386500D01*
X5759316Y-7380793D01*
X5786341Y-7369599D01*
X5810663Y-7353347D01*
X5831347Y-7332663D01*
X5843000Y-7315224D01*
X5854652Y-7332663D01*
X5875337Y-7353347D01*
X5899659Y-7369599D01*
X5926684Y-7380793D01*
X5955374Y-7386500D01*
X5984626Y-7386500D01*
X6013316Y-7380793D01*
X6040341Y-7369599D01*
X6064663Y-7353347D01*
X6085347Y-7332663D01*
X6097000Y-7315224D01*
X6108652Y-7332663D01*
X6129337Y-7353347D01*
X6153659Y-7369599D01*
X6180684Y-7380793D01*
X6209374Y-7386500D01*
X6238626Y-7386500D01*
X6267316Y-7380793D01*
X6294341Y-7369599D01*
X6318663Y-7353347D01*
X6339347Y-7332663D01*
X6351000Y-7315224D01*
X6362652Y-7332663D01*
X6383337Y-7353347D01*
X6407659Y-7369599D01*
X6434684Y-7380793D01*
X6463374Y-7386500D01*
X6492626Y-7386500D01*
X6521316Y-7380793D01*
X6548341Y-7369599D01*
X6572663Y-7353347D01*
X6593347Y-7332663D01*
X6605000Y-7315224D01*
X6616652Y-7332663D01*
X6637337Y-7353347D01*
X6661659Y-7369599D01*
X6688684Y-7380793D01*
X6717374Y-7386500D01*
X6746626Y-7386500D01*
X6775316Y-7380793D01*
X6802341Y-7369599D01*
X6826663Y-7353347D01*
X6839600Y-7340411D01*
X6901550Y-7340411D01*
X6909358Y-7365094D01*
X6935626Y-7377604D01*
X6963829Y-7384749D01*
X6992885Y-7386255D01*
X7021676Y-7382063D01*
X7049095Y-7372335D01*
X7062641Y-7365094D01*
X7070450Y-7340411D01*
X6986000Y-7255960D01*
X6901550Y-7340411D01*
X6839600Y-7340411D01*
X6847347Y-7332663D01*
X6859305Y-7314768D01*
X6883589Y-7322450D01*
X6968039Y-7238000D01*
X6883589Y-7153550D01*
X6859305Y-7161232D01*
X6847347Y-7143337D01*
X6826663Y-7122652D01*
X6809224Y-7111000D01*
X6826663Y-7099347D01*
X6847347Y-7078663D01*
X6859000Y-7061224D01*
X6870652Y-7078663D01*
X6891337Y-7099347D01*
X6909232Y-7111305D01*
X6901550Y-7135589D01*
X6986000Y-7220039D01*
X7070450Y-7135589D01*
X7062768Y-7111305D01*
X7080663Y-7099347D01*
X7101347Y-7078663D01*
X7113000Y-7061224D01*
X7124652Y-7078663D01*
X7145337Y-7099347D01*
X7162776Y-7111000D01*
X7145337Y-7122652D01*
X7124652Y-7143337D01*
X7112695Y-7161232D01*
X7088411Y-7153550D01*
X7003960Y-7238000D01*
X7088411Y-7322450D01*
X7112695Y-7314768D01*
X7124652Y-7332663D01*
X7145337Y-7353347D01*
X7169659Y-7369599D01*
X7196684Y-7380793D01*
X7225374Y-7386500D01*
X7254626Y-7386500D01*
X7283316Y-7380793D01*
X7310341Y-7369599D01*
X7334663Y-7353347D01*
X7355347Y-7332663D01*
X7367000Y-7315224D01*
X7378652Y-7332663D01*
X7399337Y-7353347D01*
X7423659Y-7369599D01*
X7450684Y-7380793D01*
X7479374Y-7386500D01*
X7508626Y-7386500D01*
X7537316Y-7380793D01*
X7564341Y-7369599D01*
X7588663Y-7353347D01*
X7609347Y-7332663D01*
X7621000Y-7315224D01*
X7632652Y-7332663D01*
X7653337Y-7353347D01*
X7677659Y-7369599D01*
X7704684Y-7380793D01*
X7733374Y-7386500D01*
X7762626Y-7386500D01*
X7791316Y-7380793D01*
X7818341Y-7369599D01*
X7842663Y-7353347D01*
X7863347Y-7332663D01*
X7879599Y-7308341D01*
X7890793Y-7281316D01*
X7896500Y-7252626D01*
X7896500Y-7223374D01*
X7890793Y-7194684D01*
X7879599Y-7167659D01*
X7863347Y-7143337D01*
X7842663Y-7122652D01*
X7825224Y-7111000D01*
X7842663Y-7099347D01*
X7863347Y-7078663D01*
X7879599Y-7054341D01*
X7890793Y-7027316D01*
X7896500Y-6998626D01*
X7896500Y-6969374D01*
X7890793Y-6940684D01*
X7888745Y-6935740D01*
X9458634Y-6935740D01*
X9462500Y-6936121D01*
X9466366Y-6935740D01*
X9466367Y-6935740D01*
X9477936Y-6934601D01*
X9492778Y-6930098D01*
X9506457Y-6922787D01*
X9518447Y-6912947D01*
X9520913Y-6909942D01*
X9623500Y-6807355D01*
X9623500Y-7187300D01*
X9559353Y-7187300D01*
X9479620Y-7203160D01*
X9404513Y-7234270D01*
X9336919Y-7279435D01*
X9279435Y-7336919D01*
X9234270Y-7404513D01*
X9203160Y-7479620D01*
X9187300Y-7559353D01*
X9187300Y-7640647D01*
X9203160Y-7720380D01*
X9234270Y-7795487D01*
X9279435Y-7863081D01*
X9336919Y-7920565D01*
X9349543Y-7929000D01*
X6566357Y-7929000D01*
X6566357Y-7569500D01*
X826500Y-7569500D01*
X826500Y-7929000D01*
X650457Y-7929000D01*
X663081Y-7920565D01*
X720565Y-7863081D01*
X765730Y-7795487D01*
X796840Y-7720380D01*
X812700Y-7640647D01*
X812700Y-7559353D01*
X796840Y-7479620D01*
X765730Y-7404513D01*
X720565Y-7336919D01*
X663081Y-7279435D01*
X643535Y-7266375D01*
X1967300Y-7266375D01*
X1967300Y-7334175D01*
X1969709Y-7346289D01*
X1974436Y-7357700D01*
X1981298Y-7367969D01*
X1990031Y-7376702D01*
X2000300Y-7383564D01*
X2011711Y-7388290D01*
X2023825Y-7390700D01*
X2131625Y-7390700D01*
X2147300Y-7375025D01*
X2147300Y-7250700D01*
X2172700Y-7250700D01*
X2172700Y-7375025D01*
X2188375Y-7390700D01*
X2296175Y-7390700D01*
X2308289Y-7388290D01*
X2319700Y-7383564D01*
X2329969Y-7376702D01*
X2338702Y-7367969D01*
X2345564Y-7357700D01*
X2350291Y-7346289D01*
X2352700Y-7334175D01*
X2352700Y-7266375D01*
X2337025Y-7250700D01*
X2172700Y-7250700D01*
X2147300Y-7250700D01*
X1982975Y-7250700D01*
X1967300Y-7266375D01*
X643535Y-7266375D01*
X595487Y-7234270D01*
X520380Y-7203160D01*
X440647Y-7187300D01*
X359353Y-7187300D01*
X279620Y-7203160D01*
X204513Y-7234270D01*
X136919Y-7279435D01*
X79435Y-7336919D01*
X71000Y-7349543D01*
X71000Y-7012375D01*
X1453800Y-7012375D01*
X1453800Y-7060175D01*
X1456209Y-7072289D01*
X1460936Y-7083700D01*
X1467798Y-7093969D01*
X1476531Y-7102702D01*
X1486800Y-7109564D01*
X1498211Y-7114290D01*
X1510325Y-7116700D01*
X1545625Y-7116700D01*
X1561300Y-7101025D01*
X1561300Y-6996700D01*
X1469475Y-6996700D01*
X1453800Y-7012375D01*
X71000Y-7012375D01*
X71000Y-6907825D01*
X1453800Y-6907825D01*
X1453800Y-6955625D01*
X1469475Y-6971300D01*
X1561300Y-6971300D01*
X1561300Y-6866975D01*
X1545625Y-6851300D01*
X1510325Y-6851300D01*
X1498211Y-6853709D01*
X1486800Y-6858436D01*
X1476531Y-6865298D01*
X1467798Y-6874031D01*
X1460936Y-6884300D01*
X1456209Y-6895711D01*
X1453800Y-6907825D01*
X71000Y-6907825D01*
X71000Y-5869375D01*
X1390300Y-5869375D01*
X1390300Y-5917175D01*
X1392710Y-5929289D01*
X1397436Y-5940700D01*
X1404298Y-5950969D01*
X1413031Y-5959702D01*
X1423300Y-5966564D01*
X1434711Y-5971290D01*
X1446825Y-5973700D01*
X1482125Y-5973700D01*
X1497800Y-5958025D01*
X1497800Y-5853700D01*
X1405975Y-5853700D01*
X1390300Y-5869375D01*
X71000Y-5869375D01*
X71000Y-5764825D01*
X1390300Y-5764825D01*
X1390300Y-5812625D01*
X1405975Y-5828300D01*
X1497800Y-5828300D01*
X1497800Y-5723975D01*
X1482125Y-5708300D01*
X1446825Y-5708300D01*
X1434711Y-5710709D01*
X1423300Y-5715436D01*
X1413031Y-5722298D01*
X1404298Y-5731031D01*
X1397436Y-5741300D01*
X1392710Y-5752711D01*
X1390300Y-5764825D01*
X71000Y-5764825D01*
X71000Y-4791000D01*
X544833Y-4791000D01*
X544833Y-4494000D01*
X540071Y-4494000D01*
X540071Y-4240000D01*
X511500Y-4240000D01*
X511500Y-4029000D01*
X540071Y-4029000D01*
X540071Y-3872500D01*
X613782Y-3872500D01*
X616649Y-3901611D01*
X625140Y-3929603D01*
X638929Y-3955401D01*
X657487Y-3978013D01*
X680099Y-3996571D01*
X685579Y-3999500D01*
X680099Y-4002429D01*
X657487Y-4020987D01*
X638929Y-4043599D01*
X625140Y-4069397D01*
X616649Y-4097389D01*
X613782Y-4126500D01*
X616649Y-4155611D01*
X625140Y-4183603D01*
X638929Y-4209401D01*
X657487Y-4232013D01*
X680099Y-4250571D01*
X685579Y-4253500D01*
X680099Y-4256429D01*
X657487Y-4274987D01*
X638929Y-4297599D01*
X625140Y-4323397D01*
X616649Y-4351389D01*
X613782Y-4380500D01*
X616649Y-4409611D01*
X625140Y-4437603D01*
X638929Y-4463401D01*
X657487Y-4486013D01*
X680099Y-4504571D01*
X685579Y-4507500D01*
X680099Y-4510429D01*
X657487Y-4528987D01*
X638929Y-4551599D01*
X625140Y-4577397D01*
X616649Y-4605389D01*
X613782Y-4634500D01*
X616649Y-4663611D01*
X625140Y-4691603D01*
X638929Y-4717401D01*
X657487Y-4740013D01*
X680099Y-4758571D01*
X705897Y-4772360D01*
X733889Y-4780851D01*
X755705Y-4783000D01*
X770295Y-4783000D01*
X792111Y-4780851D01*
X820103Y-4772360D01*
X845901Y-4758571D01*
X868513Y-4740013D01*
X887071Y-4717401D01*
X889295Y-4713240D01*
X1330634Y-4713240D01*
X1334500Y-4713621D01*
X1338366Y-4713240D01*
X1338367Y-4713240D01*
X1349936Y-4712101D01*
X1364778Y-4707598D01*
X1378457Y-4700287D01*
X1390447Y-4690447D01*
X1392913Y-4687442D01*
X1514443Y-4565912D01*
X1517447Y-4563447D01*
X1527287Y-4551457D01*
X1534598Y-4537778D01*
X1539101Y-4522936D01*
X1540240Y-4511367D01*
X1540240Y-4511366D01*
X1540621Y-4507500D01*
X1540240Y-4503634D01*
X1540240Y-3333615D01*
X1621115Y-3252740D01*
X3172134Y-3252740D01*
X3176000Y-3253121D01*
X3179866Y-3252740D01*
X3179867Y-3252740D01*
X3191436Y-3251601D01*
X3206278Y-3247098D01*
X3219957Y-3239787D01*
X3231947Y-3229947D01*
X3234413Y-3226942D01*
X3292443Y-3168912D01*
X3295447Y-3166447D01*
X3297912Y-3163443D01*
X3297912Y-3163443D01*
X3305287Y-3154457D01*
X3312598Y-3140778D01*
X3317101Y-3125936D01*
X3317675Y-3120098D01*
X3318240Y-3114367D01*
X3318240Y-3114366D01*
X3318621Y-3110500D01*
X3318240Y-3106633D01*
X3318240Y-2525113D01*
X8541848Y-2525113D01*
X8551470Y-2551329D01*
X8580295Y-2565338D01*
X8611299Y-2573455D01*
X8643291Y-2575366D01*
X8675041Y-2571000D01*
X8705330Y-2560523D01*
X8722531Y-2551329D01*
X8732152Y-2525113D01*
X8637000Y-2429961D01*
X8541848Y-2525113D01*
X3318240Y-2525113D01*
X3318240Y-2418291D01*
X8473634Y-2418291D01*
X8478000Y-2450041D01*
X8488477Y-2480330D01*
X8497671Y-2497531D01*
X8523887Y-2507152D01*
X8619040Y-2412000D01*
X8654961Y-2412000D01*
X8750113Y-2507152D01*
X8776329Y-2497531D01*
X8790338Y-2468705D01*
X8798455Y-2437701D01*
X8800366Y-2405709D01*
X8796000Y-2373959D01*
X8785523Y-2343670D01*
X8776329Y-2326470D01*
X8750113Y-2316848D01*
X8654961Y-2412000D01*
X8619040Y-2412000D01*
X8523887Y-2316848D01*
X8497671Y-2326470D01*
X8483662Y-2355295D01*
X8475546Y-2386299D01*
X8473634Y-2418291D01*
X3318240Y-2418291D01*
X3318240Y-2298887D01*
X8541848Y-2298887D01*
X8637000Y-2394040D01*
X8732152Y-2298887D01*
X8722531Y-2272671D01*
X8693705Y-2258662D01*
X8662701Y-2250546D01*
X8630709Y-2248634D01*
X8598959Y-2253000D01*
X8568670Y-2263477D01*
X8551470Y-2272671D01*
X8541848Y-2298887D01*
X3318240Y-2298887D01*
X3318240Y-1875113D01*
X8541848Y-1875113D01*
X8551470Y-1901329D01*
X8580295Y-1915338D01*
X8611299Y-1923454D01*
X8643291Y-1925366D01*
X8675041Y-1921000D01*
X8705330Y-1910523D01*
X8722531Y-1901329D01*
X8732152Y-1875113D01*
X8637000Y-1779960D01*
X8541848Y-1875113D01*
X3318240Y-1875113D01*
X3318240Y-1768291D01*
X8473634Y-1768291D01*
X8478000Y-1800041D01*
X8488477Y-1830330D01*
X8497671Y-1847530D01*
X8523887Y-1857152D01*
X8619040Y-1762000D01*
X8654961Y-1762000D01*
X8750113Y-1857152D01*
X8776329Y-1847530D01*
X8790338Y-1818705D01*
X8798455Y-1787701D01*
X8800366Y-1755709D01*
X8796000Y-1723959D01*
X8785523Y-1693670D01*
X8776329Y-1676469D01*
X8750113Y-1666848D01*
X8654961Y-1762000D01*
X8619040Y-1762000D01*
X8523887Y-1666848D01*
X8497671Y-1676469D01*
X8483662Y-1705295D01*
X8475546Y-1736299D01*
X8473634Y-1768291D01*
X3318240Y-1768291D01*
X3318240Y-1648887D01*
X8541848Y-1648887D01*
X8637000Y-1744039D01*
X8732152Y-1648887D01*
X8722531Y-1622671D01*
X8693705Y-1608662D01*
X8662701Y-1600545D01*
X8630709Y-1598634D01*
X8598959Y-1603000D01*
X8568670Y-1613477D01*
X8551470Y-1622671D01*
X8541848Y-1648887D01*
X3318240Y-1648887D01*
X3318240Y-1240251D01*
X3335337Y-1257348D01*
X3359659Y-1273599D01*
X3386684Y-1284793D01*
X3415374Y-1290500D01*
X3444626Y-1290500D01*
X3473316Y-1284793D01*
X3500341Y-1273599D01*
X3524663Y-1257348D01*
X3545347Y-1236663D01*
X3557000Y-1219224D01*
X3568652Y-1236663D01*
X3589337Y-1257348D01*
X3613659Y-1273599D01*
X3640684Y-1284793D01*
X3669374Y-1290500D01*
X3698626Y-1290500D01*
X3727316Y-1284793D01*
X3754341Y-1273599D01*
X3778663Y-1257348D01*
X3791600Y-1244411D01*
X3853550Y-1244411D01*
X3861358Y-1269095D01*
X3887626Y-1281604D01*
X3915829Y-1288750D01*
X3944885Y-1290255D01*
X3973676Y-1286063D01*
X4001095Y-1276335D01*
X4014641Y-1269095D01*
X4022450Y-1244411D01*
X3938000Y-1159961D01*
X3853550Y-1244411D01*
X3791600Y-1244411D01*
X3799347Y-1236663D01*
X3811305Y-1218768D01*
X3835589Y-1226450D01*
X3920039Y-1142000D01*
X3835589Y-1057550D01*
X3811305Y-1065232D01*
X3799347Y-1047337D01*
X3778663Y-1026652D01*
X3761224Y-1015000D01*
X3778663Y-1003347D01*
X3799347Y-982663D01*
X3811000Y-965224D01*
X3822652Y-982663D01*
X3843337Y-1003347D01*
X3861232Y-1015305D01*
X3853550Y-1039589D01*
X3938000Y-1124040D01*
X4022450Y-1039589D01*
X4014768Y-1015305D01*
X4032663Y-1003347D01*
X4053347Y-982663D01*
X4065000Y-965224D01*
X4076652Y-982663D01*
X4097337Y-1003347D01*
X4114776Y-1015000D01*
X4097337Y-1026652D01*
X4076652Y-1047337D01*
X4064695Y-1065232D01*
X4040411Y-1057550D01*
X3955960Y-1142000D01*
X4040411Y-1226450D01*
X4064695Y-1218768D01*
X4076652Y-1236663D01*
X4097337Y-1257348D01*
X4121659Y-1273599D01*
X4148684Y-1284793D01*
X4177374Y-1290500D01*
X4206626Y-1290500D01*
X4235316Y-1284793D01*
X4262341Y-1273599D01*
X4286663Y-1257348D01*
X4307348Y-1236663D01*
X4319000Y-1219224D01*
X4330653Y-1236663D01*
X4351337Y-1257348D01*
X4375659Y-1273599D01*
X4402684Y-1284793D01*
X4431374Y-1290500D01*
X4460626Y-1290500D01*
X4489316Y-1284793D01*
X4516341Y-1273599D01*
X4540663Y-1257348D01*
X4561348Y-1236663D01*
X4573000Y-1219224D01*
X4584653Y-1236663D01*
X4605337Y-1257348D01*
X4629659Y-1273599D01*
X4656684Y-1284793D01*
X4685374Y-1290500D01*
X4714626Y-1290500D01*
X4743316Y-1284793D01*
X4770341Y-1273599D01*
X4794663Y-1257348D01*
X4815348Y-1236663D01*
X4827000Y-1219224D01*
X4838653Y-1236663D01*
X4859337Y-1257348D01*
X4883659Y-1273599D01*
X4910684Y-1284793D01*
X4939374Y-1290500D01*
X4968626Y-1290500D01*
X4997316Y-1284793D01*
X5024341Y-1273599D01*
X5048663Y-1257348D01*
X5069348Y-1236663D01*
X5081000Y-1219224D01*
X5092653Y-1236663D01*
X5113337Y-1257348D01*
X5137659Y-1273599D01*
X5164684Y-1284793D01*
X5193374Y-1290500D01*
X5222626Y-1290500D01*
X5251316Y-1284793D01*
X5278341Y-1273599D01*
X5302663Y-1257348D01*
X5315600Y-1244411D01*
X5377550Y-1244411D01*
X5385359Y-1269095D01*
X5411626Y-1281604D01*
X5439829Y-1288750D01*
X5468885Y-1290255D01*
X5497676Y-1286063D01*
X5525096Y-1276335D01*
X5538642Y-1269095D01*
X5546450Y-1244411D01*
X5631550Y-1244411D01*
X5639358Y-1269095D01*
X5665626Y-1281604D01*
X5693829Y-1288750D01*
X5722885Y-1290255D01*
X5751676Y-1286063D01*
X5779095Y-1276335D01*
X5792641Y-1269095D01*
X5800450Y-1244411D01*
X5716000Y-1159961D01*
X5631550Y-1244411D01*
X5546450Y-1244411D01*
X5462000Y-1159961D01*
X5377550Y-1244411D01*
X5315600Y-1244411D01*
X5323348Y-1236663D01*
X5335305Y-1218768D01*
X5359589Y-1226450D01*
X5444040Y-1142000D01*
X5479961Y-1142000D01*
X5564411Y-1226450D01*
X5589000Y-1218671D01*
X5613589Y-1226450D01*
X5698039Y-1142000D01*
X5613589Y-1057550D01*
X5589000Y-1065329D01*
X5564411Y-1057550D01*
X5479961Y-1142000D01*
X5444040Y-1142000D01*
X5359589Y-1057550D01*
X5335305Y-1065232D01*
X5323348Y-1047337D01*
X5302663Y-1026652D01*
X5285224Y-1015000D01*
X5302663Y-1003347D01*
X5315600Y-990411D01*
X5377550Y-990411D01*
X5385329Y-1015000D01*
X5377550Y-1039589D01*
X5462000Y-1124040D01*
X5546450Y-1039589D01*
X5538671Y-1015000D01*
X5546450Y-990411D01*
X5462000Y-905960D01*
X5377550Y-990411D01*
X5315600Y-990411D01*
X5323348Y-982663D01*
X5335305Y-964768D01*
X5359589Y-972450D01*
X5444040Y-888000D01*
X5359589Y-803550D01*
X5335305Y-811232D01*
X5323348Y-793337D01*
X5315600Y-785589D01*
X5377550Y-785589D01*
X5462000Y-870039D01*
X5546450Y-785589D01*
X5538642Y-760905D01*
X5512374Y-748396D01*
X5484171Y-741250D01*
X5455115Y-739745D01*
X5426324Y-743937D01*
X5398905Y-753665D01*
X5385359Y-760905D01*
X5377550Y-785589D01*
X5315600Y-785589D01*
X5302663Y-772652D01*
X5278341Y-756401D01*
X5251316Y-745207D01*
X5222626Y-739500D01*
X5193374Y-739500D01*
X5164684Y-745207D01*
X5137659Y-756401D01*
X5113337Y-772652D01*
X5092653Y-793337D01*
X5081000Y-810776D01*
X5069348Y-793337D01*
X5048663Y-772652D01*
X5024341Y-756401D01*
X4997316Y-745207D01*
X4968626Y-739500D01*
X4939374Y-739500D01*
X4910684Y-745207D01*
X4883659Y-756401D01*
X4859337Y-772652D01*
X4838653Y-793337D01*
X4827000Y-810776D01*
X4815348Y-793337D01*
X4794663Y-772652D01*
X4770341Y-756401D01*
X4743316Y-745207D01*
X4714626Y-739500D01*
X4685374Y-739500D01*
X4656684Y-745207D01*
X4629659Y-756401D01*
X4605337Y-772652D01*
X4584653Y-793337D01*
X4573000Y-810776D01*
X4561348Y-793337D01*
X4540663Y-772652D01*
X4516341Y-756401D01*
X4489316Y-745207D01*
X4460626Y-739500D01*
X4431374Y-739500D01*
X4402684Y-745207D01*
X4375659Y-756401D01*
X4351337Y-772652D01*
X4330653Y-793337D01*
X4319000Y-810776D01*
X4307348Y-793337D01*
X4286663Y-772652D01*
X4262341Y-756401D01*
X4235316Y-745207D01*
X4206626Y-739500D01*
X4177374Y-739500D01*
X4148684Y-745207D01*
X4121659Y-756401D01*
X4097337Y-772652D01*
X4076652Y-793337D01*
X4065000Y-810776D01*
X4053347Y-793337D01*
X4032663Y-772652D01*
X4008341Y-756401D01*
X3981316Y-745207D01*
X3952626Y-739500D01*
X3923374Y-739500D01*
X3894684Y-745207D01*
X3867659Y-756401D01*
X3843337Y-772652D01*
X3822652Y-793337D01*
X3811000Y-810776D01*
X3799347Y-793337D01*
X3778663Y-772652D01*
X3754341Y-756401D01*
X3727316Y-745207D01*
X3698626Y-739500D01*
X3669374Y-739500D01*
X3640684Y-745207D01*
X3613659Y-756401D01*
X3589337Y-772652D01*
X3568652Y-793337D01*
X3557000Y-810776D01*
X3545347Y-793337D01*
X3524663Y-772652D01*
X3500341Y-756401D01*
X3473316Y-745207D01*
X3444626Y-739500D01*
X3415374Y-739500D01*
X3386684Y-745207D01*
X3359659Y-756401D01*
X3335337Y-772652D01*
X3322151Y-785838D01*
X3319950Y-778582D01*
X3314054Y-767551D01*
X3306118Y-757881D01*
X3296449Y-749946D01*
X3285418Y-744050D01*
X3273448Y-740419D01*
X3261000Y-739193D01*
X3127740Y-739193D01*
X3127740Y-730115D01*
X3145115Y-712740D01*
X7842385Y-712740D01*
X7858519Y-728874D01*
X7858519Y-788508D01*
X7842663Y-772652D01*
X7818341Y-756401D01*
X7791316Y-745207D01*
X7762626Y-739500D01*
X7733374Y-739500D01*
X7704684Y-745207D01*
X7677659Y-756401D01*
X7653337Y-772652D01*
X7632652Y-793337D01*
X7621000Y-810776D01*
X7609347Y-793337D01*
X7588663Y-772652D01*
X7564341Y-756401D01*
X7537316Y-745207D01*
X7508626Y-739500D01*
X7479374Y-739500D01*
X7450684Y-745207D01*
X7423659Y-756401D01*
X7399337Y-772652D01*
X7378652Y-793337D01*
X7367000Y-810776D01*
X7355347Y-793337D01*
X7334663Y-772652D01*
X7310341Y-756401D01*
X7283316Y-745207D01*
X7254626Y-739500D01*
X7225374Y-739500D01*
X7196684Y-745207D01*
X7169659Y-756401D01*
X7145337Y-772652D01*
X7124652Y-793337D01*
X7113000Y-810776D01*
X7101347Y-793337D01*
X7080663Y-772652D01*
X7056341Y-756401D01*
X7029316Y-745207D01*
X7000626Y-739500D01*
X6971374Y-739500D01*
X6942684Y-745207D01*
X6915659Y-756401D01*
X6891337Y-772652D01*
X6870652Y-793337D01*
X6859000Y-810776D01*
X6847347Y-793337D01*
X6826663Y-772652D01*
X6802341Y-756401D01*
X6775316Y-745207D01*
X6746626Y-739500D01*
X6717374Y-739500D01*
X6688684Y-745207D01*
X6661659Y-756401D01*
X6637337Y-772652D01*
X6616652Y-793337D01*
X6605000Y-810776D01*
X6593347Y-793337D01*
X6572663Y-772652D01*
X6548341Y-756401D01*
X6521316Y-745207D01*
X6492626Y-739500D01*
X6463374Y-739500D01*
X6434684Y-745207D01*
X6407659Y-756401D01*
X6383337Y-772652D01*
X6362652Y-793337D01*
X6351000Y-810776D01*
X6339347Y-793337D01*
X6318663Y-772652D01*
X6294341Y-756401D01*
X6267316Y-745207D01*
X6238626Y-739500D01*
X6209374Y-739500D01*
X6180684Y-745207D01*
X6153659Y-756401D01*
X6129337Y-772652D01*
X6108652Y-793337D01*
X6097000Y-810776D01*
X6085347Y-793337D01*
X6064663Y-772652D01*
X6040341Y-756401D01*
X6013316Y-745207D01*
X5984626Y-739500D01*
X5955374Y-739500D01*
X5926684Y-745207D01*
X5899659Y-756401D01*
X5875337Y-772652D01*
X5854652Y-793337D01*
X5843000Y-810776D01*
X5831347Y-793337D01*
X5810663Y-772652D01*
X5786341Y-756401D01*
X5759316Y-745207D01*
X5730626Y-739500D01*
X5701374Y-739500D01*
X5672684Y-745207D01*
X5645659Y-756401D01*
X5621337Y-772652D01*
X5600652Y-793337D01*
X5588695Y-811232D01*
X5564411Y-803550D01*
X5479961Y-888000D01*
X5564411Y-972450D01*
X5588695Y-964768D01*
X5600652Y-982663D01*
X5621337Y-1003347D01*
X5639232Y-1015305D01*
X5631550Y-1039589D01*
X5716000Y-1124040D01*
X5717414Y-1122625D01*
X5735375Y-1140586D01*
X5733960Y-1142000D01*
X5818411Y-1226450D01*
X5842695Y-1218768D01*
X5854652Y-1236663D01*
X5875337Y-1257348D01*
X5899659Y-1273599D01*
X5926684Y-1284793D01*
X5955374Y-1290500D01*
X5984626Y-1290500D01*
X6013316Y-1284793D01*
X6040341Y-1273599D01*
X6064663Y-1257348D01*
X6085347Y-1236663D01*
X6097000Y-1219224D01*
X6108652Y-1236663D01*
X6129337Y-1257348D01*
X6153659Y-1273599D01*
X6180684Y-1284793D01*
X6209374Y-1290500D01*
X6238626Y-1290500D01*
X6267316Y-1284793D01*
X6268633Y-1284248D01*
X6271142Y-1292518D01*
X6278453Y-1306197D01*
X6288293Y-1318187D01*
X6291298Y-1320653D01*
X6419588Y-1448943D01*
X6422053Y-1451947D01*
X6425057Y-1454412D01*
X6425057Y-1454412D01*
X6434043Y-1461786D01*
X6434043Y-1461787D01*
X6447722Y-1469098D01*
X6462564Y-1473601D01*
X6474133Y-1474740D01*
X6474133Y-1474740D01*
X6478000Y-1475121D01*
X6481866Y-1474740D01*
X7998134Y-1474740D01*
X8002000Y-1475121D01*
X8005866Y-1474740D01*
X8005867Y-1474740D01*
X8017436Y-1473601D01*
X8032278Y-1469098D01*
X8045957Y-1461787D01*
X8057947Y-1451947D01*
X8060413Y-1448942D01*
X8181943Y-1327412D01*
X8184947Y-1324947D01*
X8187412Y-1321943D01*
X8194786Y-1312957D01*
X8194787Y-1312957D01*
X8202098Y-1299278D01*
X8206601Y-1284436D01*
X8207740Y-1272867D01*
X8207740Y-1272866D01*
X8208121Y-1269000D01*
X8207740Y-1265134D01*
X8207740Y-574366D01*
X8208121Y-570500D01*
X8207740Y-566634D01*
X8207740Y-566633D01*
X8206601Y-555064D01*
X8202098Y-540222D01*
X8194787Y-526543D01*
X8189729Y-520380D01*
X8187412Y-517557D01*
X8187412Y-517557D01*
X8184947Y-514553D01*
X8181943Y-512088D01*
X8060413Y-390558D01*
X8057947Y-387553D01*
X8045957Y-377713D01*
X8032278Y-370402D01*
X8017436Y-365899D01*
X8005867Y-364760D01*
X8005866Y-364760D01*
X8002000Y-364379D01*
X7998134Y-364760D01*
X2925866Y-364760D01*
X2922000Y-364379D01*
X2918134Y-364760D01*
X2918133Y-364760D01*
X2906564Y-365899D01*
X2891722Y-370402D01*
X2878043Y-377713D01*
X2878043Y-377713D01*
X2878043Y-377713D01*
X2869057Y-385088D01*
X2869057Y-385088D01*
X2866053Y-387553D01*
X2863588Y-390557D01*
X2742057Y-512088D01*
X2739053Y-514553D01*
X2736588Y-517557D01*
X2729214Y-526543D01*
X2721902Y-540222D01*
X2717400Y-555064D01*
X2715879Y-570500D01*
X2716260Y-574367D01*
X2716260Y-2823885D01*
X2635385Y-2904760D01*
X1401866Y-2904760D01*
X1398000Y-2904379D01*
X1394134Y-2904760D01*
X1394133Y-2904760D01*
X1382564Y-2905899D01*
X1367722Y-2910402D01*
X1354043Y-2917713D01*
X1342053Y-2927553D01*
X1339588Y-2930557D01*
X1334820Y-2935325D01*
X1351374Y-2895360D01*
X1361500Y-2844452D01*
X1361500Y-2792548D01*
X1351374Y-2741640D01*
X1331511Y-2693686D01*
X1302674Y-2650529D01*
X1269453Y-2617307D01*
X1603000Y-2617307D01*
X1615448Y-2616081D01*
X1627418Y-2612450D01*
X1638449Y-2606554D01*
X1648118Y-2598619D01*
X1656054Y-2588949D01*
X1661950Y-2577918D01*
X1665581Y-2565948D01*
X1666807Y-2553500D01*
X1666807Y-2143500D01*
X1665581Y-2131052D01*
X1661950Y-2119082D01*
X1656054Y-2108051D01*
X1648118Y-2098382D01*
X1638449Y-2090446D01*
X1627418Y-2084550D01*
X1615448Y-2080919D01*
X1603000Y-2079693D01*
X1491980Y-2079693D01*
X1491980Y-1716020D01*
X1493101Y-1712325D01*
X1494807Y-1695000D01*
X1494807Y-1605000D01*
X1493101Y-1587674D01*
X1491980Y-1583980D01*
X1491980Y-1146616D01*
X1492435Y-1142000D01*
X1491980Y-1137384D01*
X1491980Y-1137383D01*
X1490620Y-1123577D01*
X1485246Y-1105861D01*
X1476520Y-1089535D01*
X1464775Y-1075225D01*
X1461189Y-1072282D01*
X1414807Y-1025899D01*
X1414807Y-956500D01*
X1476714Y-956500D01*
X1476714Y-584500D01*
X826500Y-584500D01*
X826500Y-956500D01*
X890814Y-956500D01*
X885976Y-966738D01*
X879155Y-994007D01*
X877785Y-1022083D01*
X881918Y-1049887D01*
X891397Y-1076350D01*
X897986Y-1088677D01*
X922159Y-1095881D01*
X1003039Y-1015000D01*
X1001625Y-1013586D01*
X1019586Y-995625D01*
X1021000Y-997039D01*
X1022414Y-995625D01*
X1040375Y-1013586D01*
X1038960Y-1015000D01*
X1119841Y-1095881D01*
X1127193Y-1093690D01*
X1127193Y-1095000D01*
X1128419Y-1107448D01*
X1132050Y-1119418D01*
X1137946Y-1130449D01*
X1145882Y-1140119D01*
X1155551Y-1148054D01*
X1166582Y-1153950D01*
X1178552Y-1157581D01*
X1191000Y-1158807D01*
X1281900Y-1158807D01*
X1304020Y-1180928D01*
X1304020Y-1524554D01*
X1291661Y-1531159D01*
X1278204Y-1542204D01*
X1277074Y-1543580D01*
X1274702Y-1540031D01*
X1265969Y-1531298D01*
X1255700Y-1524436D01*
X1244289Y-1519709D01*
X1232175Y-1517300D01*
X1196875Y-1517300D01*
X1181200Y-1532975D01*
X1181200Y-1637300D01*
X1183200Y-1637300D01*
X1183200Y-1662700D01*
X1181200Y-1662700D01*
X1181200Y-1767025D01*
X1196875Y-1782700D01*
X1232175Y-1782700D01*
X1244289Y-1780290D01*
X1255700Y-1775564D01*
X1265969Y-1768702D01*
X1274702Y-1759969D01*
X1277074Y-1756419D01*
X1278204Y-1757796D01*
X1291661Y-1768840D01*
X1304020Y-1775446D01*
X1304020Y-2079693D01*
X1193000Y-2079693D01*
X1180552Y-2080919D01*
X1168582Y-2084550D01*
X1157551Y-2090446D01*
X1147882Y-2098382D01*
X1139946Y-2108051D01*
X1134050Y-2119082D01*
X1130419Y-2131052D01*
X1129193Y-2143500D01*
X1129193Y-2553500D01*
X1129448Y-2556093D01*
X1123953Y-2555000D01*
X1072048Y-2555000D01*
X1021140Y-2565126D01*
X973186Y-2584989D01*
X930028Y-2613826D01*
X893326Y-2650529D01*
X864489Y-2693686D01*
X844626Y-2741640D01*
X834500Y-2792548D01*
X834500Y-2844452D01*
X844626Y-2895360D01*
X864489Y-2943314D01*
X893326Y-2986471D01*
X930028Y-3023174D01*
X973186Y-3052011D01*
X1021140Y-3071874D01*
X1072048Y-3082000D01*
X1123953Y-3082000D01*
X1174860Y-3071874D01*
X1214825Y-3055320D01*
X1027557Y-3242588D01*
X1024553Y-3245053D01*
X1022088Y-3248057D01*
X1014713Y-3257043D01*
X1007402Y-3270722D01*
X1002899Y-3285564D01*
X1001379Y-3301000D01*
X1001760Y-3304867D01*
X1001760Y-3712885D01*
X920885Y-3793760D01*
X889295Y-3793760D01*
X887071Y-3789599D01*
X868513Y-3766987D01*
X864945Y-3764058D01*
X866289Y-3763790D01*
X877700Y-3759064D01*
X887969Y-3752202D01*
X896702Y-3743469D01*
X903564Y-3733200D01*
X908290Y-3721789D01*
X910700Y-3709675D01*
X910700Y-3646875D01*
X895025Y-3631200D01*
X775700Y-3631200D01*
X775700Y-3633200D01*
X750300Y-3633200D01*
X750300Y-3631200D01*
X630975Y-3631200D01*
X615300Y-3646875D01*
X615300Y-3709675D01*
X617710Y-3721789D01*
X622436Y-3733200D01*
X629298Y-3743469D01*
X638031Y-3752202D01*
X648300Y-3759064D01*
X659711Y-3763790D01*
X661055Y-3764058D01*
X657487Y-3766987D01*
X638929Y-3789599D01*
X625140Y-3815397D01*
X616649Y-3843389D01*
X613782Y-3872500D01*
X540071Y-3872500D01*
X540071Y-3732000D01*
X516262Y-3732000D01*
X516262Y-3527325D01*
X615300Y-3527325D01*
X615300Y-3590125D01*
X630975Y-3605800D01*
X750300Y-3605800D01*
X750300Y-3486475D01*
X775700Y-3486475D01*
X775700Y-3605800D01*
X895025Y-3605800D01*
X910700Y-3590125D01*
X910700Y-3527325D01*
X908290Y-3515211D01*
X903564Y-3503800D01*
X896702Y-3493531D01*
X887969Y-3484798D01*
X877700Y-3477936D01*
X866289Y-3473209D01*
X854175Y-3470800D01*
X791375Y-3470800D01*
X775700Y-3486475D01*
X750300Y-3486475D01*
X734625Y-3470800D01*
X671825Y-3470800D01*
X659711Y-3473209D01*
X648300Y-3477936D01*
X638031Y-3484798D01*
X629298Y-3493531D01*
X622436Y-3503800D01*
X617710Y-3515211D01*
X615300Y-3527325D01*
X516262Y-3527325D01*
X516262Y-3478000D01*
X71000Y-3478000D01*
X71000Y-2562508D01*
X672097Y-2562508D01*
X697627Y-2592643D01*
X747185Y-2607534D01*
X798697Y-2612470D01*
X850181Y-2607262D01*
X898373Y-2592643D01*
X923903Y-2562508D01*
X798000Y-2436606D01*
X672097Y-2562508D01*
X71000Y-2562508D01*
X71000Y-2349197D01*
X534030Y-2349197D01*
X539238Y-2400681D01*
X553857Y-2448873D01*
X583992Y-2474403D01*
X709894Y-2348500D01*
X886105Y-2348500D01*
X1012008Y-2474403D01*
X1042143Y-2448873D01*
X1057034Y-2399315D01*
X1061970Y-2347803D01*
X1056762Y-2296319D01*
X1042143Y-2248127D01*
X1012008Y-2222597D01*
X886105Y-2348500D01*
X709894Y-2348500D01*
X583992Y-2222597D01*
X553857Y-2248127D01*
X538966Y-2297685D01*
X534030Y-2349197D01*
X71000Y-2349197D01*
X71000Y-2134492D01*
X672097Y-2134492D01*
X798000Y-2260395D01*
X923903Y-2134492D01*
X898373Y-2104357D01*
X848815Y-2089466D01*
X797303Y-2084530D01*
X745819Y-2089738D01*
X697627Y-2104357D01*
X672097Y-2134492D01*
X71000Y-2134492D01*
X71000Y-1678375D01*
X1048300Y-1678375D01*
X1048300Y-1726175D01*
X1050710Y-1738289D01*
X1055436Y-1749700D01*
X1062298Y-1759969D01*
X1071031Y-1768702D01*
X1081300Y-1775564D01*
X1092711Y-1780290D01*
X1104825Y-1782700D01*
X1140125Y-1782700D01*
X1155800Y-1767025D01*
X1155800Y-1662700D01*
X1063975Y-1662700D01*
X1048300Y-1678375D01*
X71000Y-1678375D01*
X71000Y-1573825D01*
X1048300Y-1573825D01*
X1048300Y-1621625D01*
X1063975Y-1637300D01*
X1155800Y-1637300D01*
X1155800Y-1532975D01*
X1140125Y-1517300D01*
X1104825Y-1517300D01*
X1092711Y-1519709D01*
X1081300Y-1524436D01*
X1071031Y-1531298D01*
X1062298Y-1540031D01*
X1055436Y-1550300D01*
X1050710Y-1561711D01*
X1048300Y-1573825D01*
X71000Y-1573825D01*
X71000Y-1113841D01*
X940119Y-1113841D01*
X947323Y-1138014D01*
X972738Y-1150024D01*
X1000007Y-1156845D01*
X1028083Y-1158215D01*
X1055887Y-1154082D01*
X1082350Y-1144603D01*
X1094677Y-1138014D01*
X1101881Y-1113841D01*
X1021000Y-1032960D01*
X940119Y-1113841D01*
X71000Y-1113841D01*
X71000Y-650457D01*
X79435Y-663081D01*
X136919Y-720565D01*
X204513Y-765730D01*
X279620Y-796840D01*
X359353Y-812700D01*
X440647Y-812700D01*
X520380Y-796840D01*
X595487Y-765730D01*
X663081Y-720565D01*
X720565Y-663081D01*
X765730Y-595487D01*
X796840Y-520380D01*
X812700Y-440647D01*
X812700Y-359353D01*
X796840Y-279620D01*
X765730Y-204513D01*
X720565Y-136919D01*
X663081Y-79435D01*
X650457Y-71000D01*
X9349543Y-71000D01*
X9336919Y-79435D01*
G36*
X4367260Y-5111615D02*
X4367260Y-6858013D01*
X4351337Y-6868652D01*
X4330653Y-6889337D01*
X4318695Y-6907232D01*
X4294411Y-6899550D01*
X4209961Y-6984000D01*
X4294411Y-7068450D01*
X4318695Y-7060768D01*
X4330653Y-7078663D01*
X4351337Y-7099347D01*
X4368776Y-7111000D01*
X4351337Y-7122652D01*
X4330653Y-7143337D01*
X4319000Y-7160776D01*
X4307348Y-7143337D01*
X4286663Y-7122652D01*
X4268768Y-7110695D01*
X4276450Y-7086411D01*
X4192000Y-7001960D01*
X4107550Y-7086411D01*
X4115232Y-7110695D01*
X4097337Y-7122652D01*
X4076652Y-7143337D01*
X4065000Y-7160776D01*
X4053347Y-7143337D01*
X4032663Y-7122652D01*
X4015224Y-7111000D01*
X4032663Y-7099347D01*
X4053347Y-7078663D01*
X4065305Y-7060768D01*
X4089589Y-7068450D01*
X4174039Y-6984000D01*
X4089589Y-6899550D01*
X4065305Y-6907232D01*
X4053347Y-6889337D01*
X4045600Y-6881589D01*
X4107550Y-6881589D01*
X4192000Y-6966039D01*
X4276450Y-6881589D01*
X4268642Y-6856905D01*
X4242374Y-6844396D01*
X4214171Y-6837250D01*
X4185115Y-6835745D01*
X4156324Y-6839937D01*
X4128904Y-6849665D01*
X4115358Y-6856905D01*
X4107550Y-6881589D01*
X4045600Y-6881589D01*
X4032663Y-6868652D01*
X4008341Y-6852401D01*
X3981316Y-6841207D01*
X3952626Y-6835500D01*
X3923374Y-6835500D01*
X3894684Y-6841207D01*
X3889740Y-6843255D01*
X3889740Y-5336866D01*
X3890121Y-5333000D01*
X3889740Y-5329134D01*
X3889740Y-5329133D01*
X3888601Y-5317564D01*
X3884098Y-5302722D01*
X3876787Y-5289043D01*
X3866947Y-5277053D01*
X3863943Y-5274588D01*
X3742413Y-5153058D01*
X3739947Y-5150053D01*
X3727957Y-5140213D01*
X3714278Y-5132902D01*
X3699436Y-5128399D01*
X3687867Y-5127260D01*
X3687866Y-5127260D01*
X3684000Y-5126879D01*
X3680134Y-5127260D01*
X2331964Y-5127260D01*
X2328248Y-5120307D01*
X2309066Y-5096934D01*
X2287214Y-5079000D01*
X2309066Y-5061066D01*
X2328248Y-5037693D01*
X2331964Y-5030740D01*
X4286385Y-5030740D01*
X4367260Y-5111615D01*
X4367260Y-5111615D01*
G37*
X4367260Y-5111615D02*
X4367260Y-6858013D01*
X4351337Y-6868652D01*
X4330653Y-6889337D01*
X4318695Y-6907232D01*
X4294411Y-6899550D01*
X4209961Y-6984000D01*
X4294411Y-7068450D01*
X4318695Y-7060768D01*
X4330653Y-7078663D01*
X4351337Y-7099347D01*
X4368776Y-7111000D01*
X4351337Y-7122652D01*
X4330653Y-7143337D01*
X4319000Y-7160776D01*
X4307348Y-7143337D01*
X4286663Y-7122652D01*
X4268768Y-7110695D01*
X4276450Y-7086411D01*
X4192000Y-7001960D01*
X4107550Y-7086411D01*
X4115232Y-7110695D01*
X4097337Y-7122652D01*
X4076652Y-7143337D01*
X4065000Y-7160776D01*
X4053347Y-7143337D01*
X4032663Y-7122652D01*
X4015224Y-7111000D01*
X4032663Y-7099347D01*
X4053347Y-7078663D01*
X4065305Y-7060768D01*
X4089589Y-7068450D01*
X4174039Y-6984000D01*
X4089589Y-6899550D01*
X4065305Y-6907232D01*
X4053347Y-6889337D01*
X4045600Y-6881589D01*
X4107550Y-6881589D01*
X4192000Y-6966039D01*
X4276450Y-6881589D01*
X4268642Y-6856905D01*
X4242374Y-6844396D01*
X4214171Y-6837250D01*
X4185115Y-6835745D01*
X4156324Y-6839937D01*
X4128904Y-6849665D01*
X4115358Y-6856905D01*
X4107550Y-6881589D01*
X4045600Y-6881589D01*
X4032663Y-6868652D01*
X4008341Y-6852401D01*
X3981316Y-6841207D01*
X3952626Y-6835500D01*
X3923374Y-6835500D01*
X3894684Y-6841207D01*
X3889740Y-6843255D01*
X3889740Y-5336866D01*
X3890121Y-5333000D01*
X3889740Y-5329134D01*
X3889740Y-5329133D01*
X3888601Y-5317564D01*
X3884098Y-5302722D01*
X3876787Y-5289043D01*
X3866947Y-5277053D01*
X3863943Y-5274588D01*
X3742413Y-5153058D01*
X3739947Y-5150053D01*
X3727957Y-5140213D01*
X3714278Y-5132902D01*
X3699436Y-5128399D01*
X3687867Y-5127260D01*
X3687866Y-5127260D01*
X3684000Y-5126879D01*
X3680134Y-5127260D01*
X2331964Y-5127260D01*
X2328248Y-5120307D01*
X2309066Y-5096934D01*
X2287214Y-5079000D01*
X2309066Y-5061066D01*
X2328248Y-5037693D01*
X2331964Y-5030740D01*
X4286385Y-5030740D01*
X4367260Y-5111615D01*
G36*
X2010934Y-3537066D02*
X2032786Y-3555000D01*
X2010934Y-3572934D01*
X1991752Y-3596307D01*
X1977498Y-3622974D01*
X1968721Y-3651909D01*
X1965757Y-3682000D01*
X1968721Y-3712091D01*
X1977498Y-3741026D01*
X1991752Y-3767693D01*
X2010934Y-3791066D01*
X2032786Y-3809000D01*
X2010934Y-3826934D01*
X1991752Y-3850307D01*
X1977498Y-3876974D01*
X1968721Y-3905909D01*
X1965757Y-3936000D01*
X1968721Y-3966091D01*
X1977498Y-3995026D01*
X1991752Y-4021693D01*
X2010934Y-4045066D01*
X2032786Y-4063000D01*
X2010934Y-4080934D01*
X1991752Y-4104307D01*
X1977498Y-4130974D01*
X1968721Y-4159909D01*
X1965757Y-4190000D01*
X1968721Y-4220091D01*
X1977498Y-4249026D01*
X1991752Y-4275693D01*
X2010934Y-4299066D01*
X2032786Y-4317000D01*
X2010934Y-4334934D01*
X1991752Y-4358307D01*
X1977498Y-4384974D01*
X1968721Y-4413909D01*
X1965757Y-4444000D01*
X1968721Y-4474091D01*
X1977498Y-4503026D01*
X1991752Y-4529693D01*
X2010934Y-4553066D01*
X2032786Y-4571000D01*
X2010934Y-4588934D01*
X1991752Y-4612307D01*
X1977498Y-4638974D01*
X1968721Y-4667909D01*
X1965757Y-4698000D01*
X1968721Y-4728091D01*
X1977498Y-4757026D01*
X1991752Y-4783693D01*
X2010934Y-4807066D01*
X2032786Y-4825000D01*
X2010934Y-4842934D01*
X1991752Y-4866307D01*
X1977498Y-4892974D01*
X1968721Y-4921909D01*
X1965757Y-4952000D01*
X1968721Y-4982091D01*
X1977498Y-5011026D01*
X1991752Y-5037693D01*
X2010934Y-5061066D01*
X2032786Y-5079000D01*
X2010934Y-5096934D01*
X1991752Y-5120307D01*
X1977498Y-5146974D01*
X1968721Y-5175909D01*
X1965757Y-5206000D01*
X1968721Y-5236091D01*
X1977498Y-5265026D01*
X1991752Y-5291693D01*
X2010934Y-5315066D01*
X2032786Y-5333000D01*
X2010934Y-5350934D01*
X1991752Y-5374307D01*
X1977498Y-5400974D01*
X1968721Y-5429909D01*
X1965757Y-5460000D01*
X1968721Y-5490091D01*
X1974232Y-5508260D01*
X1938615Y-5508260D01*
X1836807Y-5406452D01*
X1836807Y-5351500D01*
X1835101Y-5334175D01*
X1830047Y-5317515D01*
X1821840Y-5302161D01*
X1810796Y-5288704D01*
X1797339Y-5277660D01*
X1781985Y-5269453D01*
X1765325Y-5264399D01*
X1748000Y-5262693D01*
X1683000Y-5262693D01*
X1665674Y-5264399D01*
X1649015Y-5269453D01*
X1633661Y-5277660D01*
X1620204Y-5288704D01*
X1613000Y-5297482D01*
X1605796Y-5288704D01*
X1592339Y-5277660D01*
X1589240Y-5276003D01*
X1589240Y-5060807D01*
X1629000Y-5060807D01*
X1641448Y-5059581D01*
X1653418Y-5055950D01*
X1664449Y-5050054D01*
X1674118Y-5042119D01*
X1682054Y-5032449D01*
X1684375Y-5028106D01*
X1690298Y-5036969D01*
X1699031Y-5045702D01*
X1709300Y-5052564D01*
X1720711Y-5057291D01*
X1732825Y-5059700D01*
X1750625Y-5059700D01*
X1766300Y-5044025D01*
X1766300Y-4964700D01*
X1791700Y-4964700D01*
X1791700Y-5044025D01*
X1807375Y-5059700D01*
X1825175Y-5059700D01*
X1837289Y-5057291D01*
X1848700Y-5052564D01*
X1858969Y-5045702D01*
X1867702Y-5036969D01*
X1874564Y-5026700D01*
X1879290Y-5015289D01*
X1881700Y-5003175D01*
X1881700Y-4980375D01*
X1866025Y-4964700D01*
X1791700Y-4964700D01*
X1766300Y-4964700D01*
X1764300Y-4964700D01*
X1764300Y-4939300D01*
X1766300Y-4939300D01*
X1766300Y-4859975D01*
X1791700Y-4859975D01*
X1791700Y-4939300D01*
X1866025Y-4939300D01*
X1881700Y-4923625D01*
X1881700Y-4900825D01*
X1879290Y-4888711D01*
X1874564Y-4877300D01*
X1867702Y-4867031D01*
X1858969Y-4858298D01*
X1848700Y-4851436D01*
X1837289Y-4846710D01*
X1825175Y-4844300D01*
X1807375Y-4844300D01*
X1791700Y-4859975D01*
X1766300Y-4859975D01*
X1757448Y-4851123D01*
X1759449Y-4850054D01*
X1769118Y-4842119D01*
X1777054Y-4832449D01*
X1782950Y-4821418D01*
X1786581Y-4809448D01*
X1787807Y-4797000D01*
X1787807Y-4707000D01*
X1786581Y-4694552D01*
X1782950Y-4682582D01*
X1782050Y-4680898D01*
X1842189Y-4620758D01*
X1845775Y-4617815D01*
X1854685Y-4606959D01*
X1857520Y-4603505D01*
X1866246Y-4587179D01*
X1866472Y-4586436D01*
X1871620Y-4569463D01*
X1872980Y-4555657D01*
X1872980Y-4555656D01*
X1873435Y-4551040D01*
X1872980Y-4546424D01*
X1872980Y-3593928D01*
X1944928Y-3521980D01*
X1998553Y-3521980D01*
X2010934Y-3537066D01*
X2010934Y-3537066D01*
G37*
X2010934Y-3537066D02*
X2032786Y-3555000D01*
X2010934Y-3572934D01*
X1991752Y-3596307D01*
X1977498Y-3622974D01*
X1968721Y-3651909D01*
X1965757Y-3682000D01*
X1968721Y-3712091D01*
X1977498Y-3741026D01*
X1991752Y-3767693D01*
X2010934Y-3791066D01*
X2032786Y-3809000D01*
X2010934Y-3826934D01*
X1991752Y-3850307D01*
X1977498Y-3876974D01*
X1968721Y-3905909D01*
X1965757Y-3936000D01*
X1968721Y-3966091D01*
X1977498Y-3995026D01*
X1991752Y-4021693D01*
X2010934Y-4045066D01*
X2032786Y-4063000D01*
X2010934Y-4080934D01*
X1991752Y-4104307D01*
X1977498Y-4130974D01*
X1968721Y-4159909D01*
X1965757Y-4190000D01*
X1968721Y-4220091D01*
X1977498Y-4249026D01*
X1991752Y-4275693D01*
X2010934Y-4299066D01*
X2032786Y-4317000D01*
X2010934Y-4334934D01*
X1991752Y-4358307D01*
X1977498Y-4384974D01*
X1968721Y-4413909D01*
X1965757Y-4444000D01*
X1968721Y-4474091D01*
X1977498Y-4503026D01*
X1991752Y-4529693D01*
X2010934Y-4553066D01*
X2032786Y-4571000D01*
X2010934Y-4588934D01*
X1991752Y-4612307D01*
X1977498Y-4638974D01*
X1968721Y-4667909D01*
X1965757Y-4698000D01*
X1968721Y-4728091D01*
X1977498Y-4757026D01*
X1991752Y-4783693D01*
X2010934Y-4807066D01*
X2032786Y-4825000D01*
X2010934Y-4842934D01*
X1991752Y-4866307D01*
X1977498Y-4892974D01*
X1968721Y-4921909D01*
X1965757Y-4952000D01*
X1968721Y-4982091D01*
X1977498Y-5011026D01*
X1991752Y-5037693D01*
X2010934Y-5061066D01*
X2032786Y-5079000D01*
X2010934Y-5096934D01*
X1991752Y-5120307D01*
X1977498Y-5146974D01*
X1968721Y-5175909D01*
X1965757Y-5206000D01*
X1968721Y-5236091D01*
X1977498Y-5265026D01*
X1991752Y-5291693D01*
X2010934Y-5315066D01*
X2032786Y-5333000D01*
X2010934Y-5350934D01*
X1991752Y-5374307D01*
X1977498Y-5400974D01*
X1968721Y-5429909D01*
X1965757Y-5460000D01*
X1968721Y-5490091D01*
X1974232Y-5508260D01*
X1938615Y-5508260D01*
X1836807Y-5406452D01*
X1836807Y-5351500D01*
X1835101Y-5334175D01*
X1830047Y-5317515D01*
X1821840Y-5302161D01*
X1810796Y-5288704D01*
X1797339Y-5277660D01*
X1781985Y-5269453D01*
X1765325Y-5264399D01*
X1748000Y-5262693D01*
X1683000Y-5262693D01*
X1665674Y-5264399D01*
X1649015Y-5269453D01*
X1633661Y-5277660D01*
X1620204Y-5288704D01*
X1613000Y-5297482D01*
X1605796Y-5288704D01*
X1592339Y-5277660D01*
X1589240Y-5276003D01*
X1589240Y-5060807D01*
X1629000Y-5060807D01*
X1641448Y-5059581D01*
X1653418Y-5055950D01*
X1664449Y-5050054D01*
X1674118Y-5042119D01*
X1682054Y-5032449D01*
X1684375Y-5028106D01*
X1690298Y-5036969D01*
X1699031Y-5045702D01*
X1709300Y-5052564D01*
X1720711Y-5057291D01*
X1732825Y-5059700D01*
X1750625Y-5059700D01*
X1766300Y-5044025D01*
X1766300Y-4964700D01*
X1791700Y-4964700D01*
X1791700Y-5044025D01*
X1807375Y-5059700D01*
X1825175Y-5059700D01*
X1837289Y-5057291D01*
X1848700Y-5052564D01*
X1858969Y-5045702D01*
X1867702Y-5036969D01*
X1874564Y-5026700D01*
X1879290Y-5015289D01*
X1881700Y-5003175D01*
X1881700Y-4980375D01*
X1866025Y-4964700D01*
X1791700Y-4964700D01*
X1766300Y-4964700D01*
X1764300Y-4964700D01*
X1764300Y-4939300D01*
X1766300Y-4939300D01*
X1766300Y-4859975D01*
X1791700Y-4859975D01*
X1791700Y-4939300D01*
X1866025Y-4939300D01*
X1881700Y-4923625D01*
X1881700Y-4900825D01*
X1879290Y-4888711D01*
X1874564Y-4877300D01*
X1867702Y-4867031D01*
X1858969Y-4858298D01*
X1848700Y-4851436D01*
X1837289Y-4846710D01*
X1825175Y-4844300D01*
X1807375Y-4844300D01*
X1791700Y-4859975D01*
X1766300Y-4859975D01*
X1757448Y-4851123D01*
X1759449Y-4850054D01*
X1769118Y-4842119D01*
X1777054Y-4832449D01*
X1782950Y-4821418D01*
X1786581Y-4809448D01*
X1787807Y-4797000D01*
X1787807Y-4707000D01*
X1786581Y-4694552D01*
X1782950Y-4682582D01*
X1782050Y-4680898D01*
X1842189Y-4620758D01*
X1845775Y-4617815D01*
X1854685Y-4606959D01*
X1857520Y-4603505D01*
X1866246Y-4587179D01*
X1866472Y-4586436D01*
X1871620Y-4569463D01*
X1872980Y-4555657D01*
X1872980Y-4555656D01*
X1873435Y-4551040D01*
X1872980Y-4546424D01*
X1872980Y-3593928D01*
X1944928Y-3521980D01*
X1998553Y-3521980D01*
X2010934Y-3537066D01*
G04 #@! TD*
M02*
