G04 #@! TF.GenerationSoftware,KiCad,Pcbnew,(5.0.1)-3*
G04 #@! TF.CreationDate,2018-11-23T15:23:08+01:00*
G04 #@! TF.ProjectId,hwpboard,687770626F6172642E6B696361645F70,rev?*
G04 #@! TF.SameCoordinates,PX67c4f10PY2830160*
G04 #@! TF.FileFunction,Soldermask,Top*
G04 #@! TF.FilePolarity,Negative*
%FSLAX45Y45*%
G04 Gerber Fmt 4.5, Leading zero omitted, Abs format (unit mm)*
G04 Created by KiCad (PCBNEW (5.0.1)-3) date 23/11/2018 15:23:08*
%MOMM*%
%LPD*%
G01*
G04 APERTURE LIST*
%ADD10C,0.100000*%
G04 APERTURE END LIST*
D10*
G36*
X9670460Y-7297942D02*
X9690424Y-7301913D01*
X9746840Y-7325281D01*
X9797614Y-7359207D01*
X9840793Y-7402386D01*
X9874719Y-7453160D01*
X9898087Y-7509576D01*
X9910000Y-7569468D01*
X9910000Y-7630532D01*
X9898087Y-7690424D01*
X9874719Y-7746840D01*
X9840793Y-7797613D01*
X9797614Y-7840793D01*
X9746840Y-7874718D01*
X9690424Y-7898087D01*
X9670460Y-7902058D01*
X9630533Y-7910000D01*
X9569468Y-7910000D01*
X9529540Y-7902058D01*
X9509576Y-7898087D01*
X9453160Y-7874718D01*
X9402387Y-7840793D01*
X9359207Y-7797613D01*
X9325282Y-7746840D01*
X9301913Y-7690424D01*
X9290000Y-7630532D01*
X9290000Y-7569468D01*
X9301913Y-7509576D01*
X9325282Y-7453160D01*
X9359207Y-7402386D01*
X9402387Y-7359207D01*
X9453160Y-7325281D01*
X9509576Y-7301913D01*
X9529540Y-7297942D01*
X9569468Y-7290000D01*
X9630533Y-7290000D01*
X9670460Y-7297942D01*
X9670460Y-7297942D01*
G37*
G36*
X470460Y-7297942D02*
X490424Y-7301913D01*
X546840Y-7325281D01*
X597614Y-7359207D01*
X640793Y-7402386D01*
X674719Y-7453160D01*
X698087Y-7509576D01*
X710000Y-7569468D01*
X710000Y-7630532D01*
X698087Y-7690424D01*
X674719Y-7746840D01*
X640793Y-7797613D01*
X597614Y-7840793D01*
X546840Y-7874718D01*
X490424Y-7898087D01*
X470460Y-7902058D01*
X430532Y-7910000D01*
X369467Y-7910000D01*
X329540Y-7902058D01*
X309576Y-7898087D01*
X253160Y-7874718D01*
X202386Y-7840793D01*
X159207Y-7797613D01*
X125281Y-7746840D01*
X101913Y-7690424D01*
X90000Y-7630532D01*
X90000Y-7569468D01*
X101913Y-7509576D01*
X125281Y-7453160D01*
X159207Y-7402386D01*
X202386Y-7359207D01*
X253160Y-7325281D01*
X309576Y-7301913D01*
X329540Y-7297942D01*
X369467Y-7290000D01*
X430532Y-7290000D01*
X470460Y-7297942D01*
X470460Y-7297942D01*
G37*
G36*
X2300000Y-7338000D02*
X2020000Y-7338000D01*
X2020000Y-7138000D01*
X2300000Y-7138000D01*
X2300000Y-7338000D01*
X2300000Y-7338000D01*
G37*
G36*
X5729945Y-7143913D02*
X5743710Y-7146651D01*
X5760999Y-7153812D01*
X5776559Y-7164209D01*
X5789791Y-7177441D01*
X5800188Y-7193001D01*
X5807349Y-7210289D01*
X5811000Y-7228643D01*
X5811000Y-7247357D01*
X5807349Y-7265710D01*
X5800188Y-7282999D01*
X5789791Y-7298559D01*
X5776559Y-7311791D01*
X5760999Y-7322188D01*
X5743710Y-7329349D01*
X5729945Y-7332087D01*
X5725357Y-7333000D01*
X5706643Y-7333000D01*
X5702055Y-7332087D01*
X5688289Y-7329349D01*
X5671001Y-7322188D01*
X5655441Y-7311791D01*
X5642209Y-7298559D01*
X5631812Y-7282999D01*
X5624651Y-7265710D01*
X5621000Y-7247357D01*
X5621000Y-7228643D01*
X5624651Y-7210289D01*
X5631812Y-7193001D01*
X5642209Y-7177441D01*
X5655441Y-7164209D01*
X5671001Y-7153812D01*
X5688289Y-7146651D01*
X5702055Y-7143913D01*
X5706643Y-7143000D01*
X5725357Y-7143000D01*
X5729945Y-7143913D01*
X5729945Y-7143913D01*
G37*
G36*
X7507945Y-7143913D02*
X7521710Y-7146651D01*
X7538999Y-7153812D01*
X7554559Y-7164209D01*
X7567791Y-7177441D01*
X7578188Y-7193001D01*
X7585349Y-7210289D01*
X7589000Y-7228643D01*
X7589000Y-7247357D01*
X7585349Y-7265710D01*
X7578188Y-7282999D01*
X7567791Y-7298559D01*
X7554559Y-7311791D01*
X7538999Y-7322188D01*
X7521710Y-7329349D01*
X7507945Y-7332087D01*
X7503357Y-7333000D01*
X7484643Y-7333000D01*
X7480055Y-7332087D01*
X7466289Y-7329349D01*
X7449001Y-7322188D01*
X7433441Y-7311791D01*
X7420209Y-7298559D01*
X7409812Y-7282999D01*
X7402651Y-7265710D01*
X7399000Y-7247357D01*
X7399000Y-7228643D01*
X7402651Y-7210289D01*
X7409812Y-7193001D01*
X7420209Y-7177441D01*
X7433441Y-7164209D01*
X7449001Y-7153812D01*
X7466289Y-7146651D01*
X7480055Y-7143913D01*
X7484643Y-7143000D01*
X7503357Y-7143000D01*
X7507945Y-7143913D01*
X7507945Y-7143913D01*
G37*
G36*
X7253945Y-7143913D02*
X7267710Y-7146651D01*
X7284999Y-7153812D01*
X7300559Y-7164209D01*
X7313791Y-7177441D01*
X7324188Y-7193001D01*
X7331349Y-7210289D01*
X7335000Y-7228643D01*
X7335000Y-7247357D01*
X7331349Y-7265710D01*
X7324188Y-7282999D01*
X7313791Y-7298559D01*
X7300559Y-7311791D01*
X7284999Y-7322188D01*
X7267710Y-7329349D01*
X7253945Y-7332087D01*
X7249357Y-7333000D01*
X7230643Y-7333000D01*
X7226055Y-7332087D01*
X7212289Y-7329349D01*
X7195001Y-7322188D01*
X7179441Y-7311791D01*
X7166209Y-7298559D01*
X7155812Y-7282999D01*
X7148651Y-7265710D01*
X7145000Y-7247357D01*
X7145000Y-7228643D01*
X7148651Y-7210289D01*
X7155812Y-7193001D01*
X7166209Y-7177441D01*
X7179441Y-7164209D01*
X7195001Y-7153812D01*
X7212289Y-7146651D01*
X7226055Y-7143913D01*
X7230643Y-7143000D01*
X7249357Y-7143000D01*
X7253945Y-7143913D01*
X7253945Y-7143913D01*
G37*
G36*
X6999945Y-7143913D02*
X7013710Y-7146651D01*
X7030999Y-7153812D01*
X7046559Y-7164209D01*
X7059791Y-7177441D01*
X7070188Y-7193001D01*
X7077349Y-7210289D01*
X7081000Y-7228643D01*
X7081000Y-7247357D01*
X7077349Y-7265710D01*
X7070188Y-7282999D01*
X7059791Y-7298559D01*
X7046559Y-7311791D01*
X7030999Y-7322188D01*
X7013710Y-7329349D01*
X6999945Y-7332087D01*
X6995357Y-7333000D01*
X6976643Y-7333000D01*
X6972055Y-7332087D01*
X6958289Y-7329349D01*
X6941001Y-7322188D01*
X6925441Y-7311791D01*
X6912209Y-7298559D01*
X6901812Y-7282999D01*
X6894651Y-7265710D01*
X6891000Y-7247357D01*
X6891000Y-7228643D01*
X6894651Y-7210289D01*
X6901812Y-7193001D01*
X6912209Y-7177441D01*
X6925441Y-7164209D01*
X6941001Y-7153812D01*
X6958289Y-7146651D01*
X6972055Y-7143913D01*
X6976643Y-7143000D01*
X6995357Y-7143000D01*
X6999945Y-7143913D01*
X6999945Y-7143913D01*
G37*
G36*
X6745945Y-7143913D02*
X6759710Y-7146651D01*
X6776999Y-7153812D01*
X6792559Y-7164209D01*
X6805791Y-7177441D01*
X6816188Y-7193001D01*
X6823349Y-7210289D01*
X6827000Y-7228643D01*
X6827000Y-7247357D01*
X6823349Y-7265710D01*
X6816188Y-7282999D01*
X6805791Y-7298559D01*
X6792559Y-7311791D01*
X6776999Y-7322188D01*
X6759710Y-7329349D01*
X6745945Y-7332087D01*
X6741357Y-7333000D01*
X6722643Y-7333000D01*
X6718055Y-7332087D01*
X6704289Y-7329349D01*
X6687001Y-7322188D01*
X6671441Y-7311791D01*
X6658209Y-7298559D01*
X6647812Y-7282999D01*
X6640651Y-7265710D01*
X6637000Y-7247357D01*
X6637000Y-7228643D01*
X6640651Y-7210289D01*
X6647812Y-7193001D01*
X6658209Y-7177441D01*
X6671441Y-7164209D01*
X6687001Y-7153812D01*
X6704289Y-7146651D01*
X6718055Y-7143913D01*
X6722643Y-7143000D01*
X6741357Y-7143000D01*
X6745945Y-7143913D01*
X6745945Y-7143913D01*
G37*
G36*
X6491945Y-7143913D02*
X6505710Y-7146651D01*
X6522999Y-7153812D01*
X6538559Y-7164209D01*
X6551791Y-7177441D01*
X6562188Y-7193001D01*
X6569349Y-7210289D01*
X6573000Y-7228643D01*
X6573000Y-7247357D01*
X6569349Y-7265710D01*
X6562188Y-7282999D01*
X6551791Y-7298559D01*
X6538559Y-7311791D01*
X6522999Y-7322188D01*
X6505710Y-7329349D01*
X6491945Y-7332087D01*
X6487357Y-7333000D01*
X6468643Y-7333000D01*
X6464055Y-7332087D01*
X6450289Y-7329349D01*
X6433001Y-7322188D01*
X6417441Y-7311791D01*
X6404209Y-7298559D01*
X6393812Y-7282999D01*
X6386651Y-7265710D01*
X6383000Y-7247357D01*
X6383000Y-7228643D01*
X6386651Y-7210289D01*
X6393812Y-7193001D01*
X6404209Y-7177441D01*
X6417441Y-7164209D01*
X6433001Y-7153812D01*
X6450289Y-7146651D01*
X6464055Y-7143913D01*
X6468643Y-7143000D01*
X6487357Y-7143000D01*
X6491945Y-7143913D01*
X6491945Y-7143913D01*
G37*
G36*
X6237945Y-7143913D02*
X6251710Y-7146651D01*
X6268999Y-7153812D01*
X6284559Y-7164209D01*
X6297791Y-7177441D01*
X6308188Y-7193001D01*
X6315349Y-7210289D01*
X6319000Y-7228643D01*
X6319000Y-7247357D01*
X6315349Y-7265710D01*
X6308188Y-7282999D01*
X6297791Y-7298559D01*
X6284559Y-7311791D01*
X6268999Y-7322188D01*
X6251710Y-7329349D01*
X6237945Y-7332087D01*
X6233357Y-7333000D01*
X6214643Y-7333000D01*
X6210055Y-7332087D01*
X6196289Y-7329349D01*
X6179001Y-7322188D01*
X6163441Y-7311791D01*
X6150209Y-7298559D01*
X6139812Y-7282999D01*
X6132651Y-7265710D01*
X6129000Y-7247357D01*
X6129000Y-7228643D01*
X6132651Y-7210289D01*
X6139812Y-7193001D01*
X6150209Y-7177441D01*
X6163441Y-7164209D01*
X6179001Y-7153812D01*
X6196289Y-7146651D01*
X6210055Y-7143913D01*
X6214643Y-7143000D01*
X6233357Y-7143000D01*
X6237945Y-7143913D01*
X6237945Y-7143913D01*
G37*
G36*
X5983945Y-7143913D02*
X5997710Y-7146651D01*
X6014999Y-7153812D01*
X6030559Y-7164209D01*
X6043791Y-7177441D01*
X6054188Y-7193001D01*
X6061349Y-7210289D01*
X6065000Y-7228643D01*
X6065000Y-7247357D01*
X6061349Y-7265710D01*
X6054188Y-7282999D01*
X6043791Y-7298559D01*
X6030559Y-7311791D01*
X6014999Y-7322188D01*
X5997710Y-7329349D01*
X5983945Y-7332087D01*
X5979357Y-7333000D01*
X5960643Y-7333000D01*
X5956055Y-7332087D01*
X5942289Y-7329349D01*
X5925001Y-7322188D01*
X5909441Y-7311791D01*
X5896209Y-7298559D01*
X5885812Y-7282999D01*
X5878651Y-7265710D01*
X5875000Y-7247357D01*
X5875000Y-7228643D01*
X5878651Y-7210289D01*
X5885812Y-7193001D01*
X5896209Y-7177441D01*
X5909441Y-7164209D01*
X5925001Y-7153812D01*
X5942289Y-7146651D01*
X5956055Y-7143913D01*
X5960643Y-7143000D01*
X5979357Y-7143000D01*
X5983945Y-7143913D01*
X5983945Y-7143913D01*
G37*
G36*
X7761945Y-7143913D02*
X7775710Y-7146651D01*
X7792999Y-7153812D01*
X7808559Y-7164209D01*
X7821791Y-7177441D01*
X7832188Y-7193001D01*
X7839349Y-7210289D01*
X7843000Y-7228643D01*
X7843000Y-7247357D01*
X7839349Y-7265710D01*
X7832188Y-7282999D01*
X7821791Y-7298559D01*
X7808559Y-7311791D01*
X7792999Y-7322188D01*
X7775710Y-7329349D01*
X7761945Y-7332087D01*
X7757357Y-7333000D01*
X7738643Y-7333000D01*
X7734055Y-7332087D01*
X7720289Y-7329349D01*
X7703001Y-7322188D01*
X7687441Y-7311791D01*
X7674209Y-7298559D01*
X7663812Y-7282999D01*
X7656651Y-7265710D01*
X7653000Y-7247357D01*
X7653000Y-7228643D01*
X7656651Y-7210289D01*
X7663812Y-7193001D01*
X7674209Y-7177441D01*
X7687441Y-7164209D01*
X7703001Y-7153812D01*
X7720289Y-7146651D01*
X7734055Y-7143913D01*
X7738643Y-7143000D01*
X7757357Y-7143000D01*
X7761945Y-7143913D01*
X7761945Y-7143913D01*
G37*
G36*
X5475945Y-7143913D02*
X5489711Y-7146651D01*
X5506999Y-7153812D01*
X5522559Y-7164209D01*
X5535791Y-7177441D01*
X5546188Y-7193001D01*
X5553349Y-7210289D01*
X5557000Y-7228643D01*
X5557000Y-7247357D01*
X5553349Y-7265710D01*
X5546188Y-7282999D01*
X5535791Y-7298559D01*
X5522559Y-7311791D01*
X5506999Y-7322188D01*
X5489711Y-7329349D01*
X5475945Y-7332087D01*
X5471357Y-7333000D01*
X5452643Y-7333000D01*
X5448055Y-7332087D01*
X5434290Y-7329349D01*
X5417001Y-7322188D01*
X5401441Y-7311791D01*
X5388209Y-7298559D01*
X5377812Y-7282999D01*
X5370651Y-7265710D01*
X5367000Y-7247357D01*
X5367000Y-7228643D01*
X5370651Y-7210289D01*
X5377812Y-7193001D01*
X5388209Y-7177441D01*
X5401441Y-7164209D01*
X5417001Y-7153812D01*
X5434290Y-7146651D01*
X5448055Y-7143913D01*
X5452643Y-7143000D01*
X5471357Y-7143000D01*
X5475945Y-7143913D01*
X5475945Y-7143913D01*
G37*
G36*
X4967945Y-7143913D02*
X4981711Y-7146651D01*
X4998999Y-7153812D01*
X5014559Y-7164209D01*
X5027791Y-7177441D01*
X5038188Y-7193001D01*
X5045349Y-7210289D01*
X5049000Y-7228643D01*
X5049000Y-7247357D01*
X5045349Y-7265710D01*
X5038188Y-7282999D01*
X5027791Y-7298559D01*
X5014559Y-7311791D01*
X4998999Y-7322188D01*
X4981711Y-7329349D01*
X4967945Y-7332087D01*
X4963357Y-7333000D01*
X4944643Y-7333000D01*
X4940055Y-7332087D01*
X4926290Y-7329349D01*
X4909001Y-7322188D01*
X4893441Y-7311791D01*
X4880209Y-7298559D01*
X4869812Y-7282999D01*
X4862651Y-7265710D01*
X4859000Y-7247357D01*
X4859000Y-7228643D01*
X4862651Y-7210289D01*
X4869812Y-7193001D01*
X4880209Y-7177441D01*
X4893441Y-7164209D01*
X4909001Y-7153812D01*
X4926290Y-7146651D01*
X4940055Y-7143913D01*
X4944643Y-7143000D01*
X4963357Y-7143000D01*
X4967945Y-7143913D01*
X4967945Y-7143913D01*
G37*
G36*
X4713945Y-7143913D02*
X4727711Y-7146651D01*
X4744999Y-7153812D01*
X4760559Y-7164209D01*
X4773791Y-7177441D01*
X4784188Y-7193001D01*
X4791349Y-7210289D01*
X4795000Y-7228643D01*
X4795000Y-7247357D01*
X4791349Y-7265710D01*
X4784188Y-7282999D01*
X4773791Y-7298559D01*
X4760559Y-7311791D01*
X4744999Y-7322188D01*
X4727711Y-7329349D01*
X4713945Y-7332087D01*
X4709357Y-7333000D01*
X4690643Y-7333000D01*
X4686055Y-7332087D01*
X4672290Y-7329349D01*
X4655001Y-7322188D01*
X4639441Y-7311791D01*
X4626209Y-7298559D01*
X4615812Y-7282999D01*
X4608651Y-7265710D01*
X4605000Y-7247357D01*
X4605000Y-7228643D01*
X4608651Y-7210289D01*
X4615812Y-7193001D01*
X4626209Y-7177441D01*
X4639441Y-7164209D01*
X4655001Y-7153812D01*
X4672290Y-7146651D01*
X4686055Y-7143913D01*
X4690643Y-7143000D01*
X4709357Y-7143000D01*
X4713945Y-7143913D01*
X4713945Y-7143913D01*
G37*
G36*
X4459945Y-7143913D02*
X4473711Y-7146651D01*
X4490999Y-7153812D01*
X4506559Y-7164209D01*
X4519791Y-7177441D01*
X4530188Y-7193001D01*
X4537349Y-7210289D01*
X4541000Y-7228643D01*
X4541000Y-7247357D01*
X4537349Y-7265710D01*
X4530188Y-7282999D01*
X4519791Y-7298559D01*
X4506559Y-7311791D01*
X4490999Y-7322188D01*
X4473711Y-7329349D01*
X4459945Y-7332087D01*
X4455357Y-7333000D01*
X4436643Y-7333000D01*
X4432055Y-7332087D01*
X4418290Y-7329349D01*
X4401001Y-7322188D01*
X4385441Y-7311791D01*
X4372209Y-7298559D01*
X4361812Y-7282999D01*
X4354651Y-7265710D01*
X4351000Y-7247357D01*
X4351000Y-7228643D01*
X4354651Y-7210289D01*
X4361812Y-7193001D01*
X4372209Y-7177441D01*
X4385441Y-7164209D01*
X4401001Y-7153812D01*
X4418290Y-7146651D01*
X4432055Y-7143913D01*
X4436643Y-7143000D01*
X4455357Y-7143000D01*
X4459945Y-7143913D01*
X4459945Y-7143913D01*
G37*
G36*
X4205945Y-7143913D02*
X4219711Y-7146651D01*
X4236999Y-7153812D01*
X4252559Y-7164209D01*
X4265791Y-7177441D01*
X4276188Y-7193001D01*
X4283349Y-7210289D01*
X4287000Y-7228643D01*
X4287000Y-7247357D01*
X4283349Y-7265710D01*
X4276188Y-7282999D01*
X4265791Y-7298559D01*
X4252559Y-7311791D01*
X4236999Y-7322188D01*
X4219711Y-7329349D01*
X4205945Y-7332087D01*
X4201357Y-7333000D01*
X4182643Y-7333000D01*
X4178055Y-7332087D01*
X4164289Y-7329349D01*
X4147001Y-7322188D01*
X4131441Y-7311791D01*
X4118209Y-7298559D01*
X4107812Y-7282999D01*
X4100651Y-7265710D01*
X4097000Y-7247357D01*
X4097000Y-7228643D01*
X4100651Y-7210289D01*
X4107812Y-7193001D01*
X4118209Y-7177441D01*
X4131441Y-7164209D01*
X4147001Y-7153812D01*
X4164289Y-7146651D01*
X4178055Y-7143913D01*
X4182643Y-7143000D01*
X4201357Y-7143000D01*
X4205945Y-7143913D01*
X4205945Y-7143913D01*
G37*
G36*
X3951945Y-7143913D02*
X3965710Y-7146651D01*
X3982999Y-7153812D01*
X3998559Y-7164209D01*
X4011791Y-7177441D01*
X4022188Y-7193001D01*
X4029349Y-7210289D01*
X4033000Y-7228643D01*
X4033000Y-7247357D01*
X4029349Y-7265710D01*
X4022188Y-7282999D01*
X4011791Y-7298559D01*
X3998559Y-7311791D01*
X3982999Y-7322188D01*
X3965710Y-7329349D01*
X3951945Y-7332087D01*
X3947357Y-7333000D01*
X3928643Y-7333000D01*
X3924055Y-7332087D01*
X3910289Y-7329349D01*
X3893001Y-7322188D01*
X3877441Y-7311791D01*
X3864209Y-7298559D01*
X3853812Y-7282999D01*
X3846651Y-7265710D01*
X3843000Y-7247357D01*
X3843000Y-7228643D01*
X3846651Y-7210289D01*
X3853812Y-7193001D01*
X3864209Y-7177441D01*
X3877441Y-7164209D01*
X3893001Y-7153812D01*
X3910289Y-7146651D01*
X3924055Y-7143913D01*
X3928643Y-7143000D01*
X3947357Y-7143000D01*
X3951945Y-7143913D01*
X3951945Y-7143913D01*
G37*
G36*
X3697945Y-7143913D02*
X3711710Y-7146651D01*
X3728999Y-7153812D01*
X3744559Y-7164209D01*
X3757791Y-7177441D01*
X3768188Y-7193001D01*
X3775349Y-7210289D01*
X3779000Y-7228643D01*
X3779000Y-7247357D01*
X3775349Y-7265710D01*
X3768188Y-7282999D01*
X3757791Y-7298559D01*
X3744559Y-7311791D01*
X3728999Y-7322188D01*
X3711710Y-7329349D01*
X3697945Y-7332087D01*
X3693357Y-7333000D01*
X3674643Y-7333000D01*
X3670055Y-7332087D01*
X3656289Y-7329349D01*
X3639001Y-7322188D01*
X3623441Y-7311791D01*
X3610209Y-7298559D01*
X3599812Y-7282999D01*
X3592651Y-7265710D01*
X3589000Y-7247357D01*
X3589000Y-7228643D01*
X3592651Y-7210289D01*
X3599812Y-7193001D01*
X3610209Y-7177441D01*
X3623441Y-7164209D01*
X3639001Y-7153812D01*
X3656289Y-7146651D01*
X3670055Y-7143913D01*
X3674643Y-7143000D01*
X3693357Y-7143000D01*
X3697945Y-7143913D01*
X3697945Y-7143913D01*
G37*
G36*
X3443945Y-7143913D02*
X3457710Y-7146651D01*
X3474999Y-7153812D01*
X3490559Y-7164209D01*
X3503791Y-7177441D01*
X3514188Y-7193001D01*
X3521349Y-7210289D01*
X3525000Y-7228643D01*
X3525000Y-7247357D01*
X3521349Y-7265710D01*
X3514188Y-7282999D01*
X3503791Y-7298559D01*
X3490559Y-7311791D01*
X3474999Y-7322188D01*
X3457710Y-7329349D01*
X3443945Y-7332087D01*
X3439357Y-7333000D01*
X3420643Y-7333000D01*
X3416055Y-7332087D01*
X3402289Y-7329349D01*
X3385001Y-7322188D01*
X3369441Y-7311791D01*
X3356209Y-7298559D01*
X3345812Y-7282999D01*
X3338651Y-7265710D01*
X3335000Y-7247357D01*
X3335000Y-7228643D01*
X3338651Y-7210289D01*
X3345812Y-7193001D01*
X3356209Y-7177441D01*
X3369441Y-7164209D01*
X3385001Y-7153812D01*
X3402289Y-7146651D01*
X3416055Y-7143913D01*
X3420643Y-7143000D01*
X3439357Y-7143000D01*
X3443945Y-7143913D01*
X3443945Y-7143913D01*
G37*
G36*
X3189945Y-7143913D02*
X3203710Y-7146651D01*
X3220999Y-7153812D01*
X3236559Y-7164209D01*
X3249791Y-7177441D01*
X3260188Y-7193001D01*
X3267349Y-7210289D01*
X3271000Y-7228643D01*
X3271000Y-7247357D01*
X3267349Y-7265710D01*
X3260188Y-7282999D01*
X3249791Y-7298559D01*
X3236559Y-7311791D01*
X3220999Y-7322188D01*
X3203710Y-7329349D01*
X3189945Y-7332087D01*
X3185357Y-7333000D01*
X3166643Y-7333000D01*
X3162055Y-7332087D01*
X3148289Y-7329349D01*
X3131001Y-7322188D01*
X3115441Y-7311791D01*
X3102209Y-7298559D01*
X3091812Y-7282999D01*
X3084651Y-7265710D01*
X3081000Y-7247357D01*
X3081000Y-7228643D01*
X3084651Y-7210289D01*
X3091812Y-7193001D01*
X3102209Y-7177441D01*
X3115441Y-7164209D01*
X3131001Y-7153812D01*
X3148289Y-7146651D01*
X3162055Y-7143913D01*
X3166643Y-7143000D01*
X3185357Y-7143000D01*
X3189945Y-7143913D01*
X3189945Y-7143913D01*
G37*
G36*
X5221945Y-7143913D02*
X5235711Y-7146651D01*
X5252999Y-7153812D01*
X5268559Y-7164209D01*
X5281791Y-7177441D01*
X5292188Y-7193001D01*
X5299349Y-7210289D01*
X5303000Y-7228643D01*
X5303000Y-7247357D01*
X5299349Y-7265710D01*
X5292188Y-7282999D01*
X5281791Y-7298559D01*
X5268559Y-7311791D01*
X5252999Y-7322188D01*
X5235711Y-7329349D01*
X5221945Y-7332087D01*
X5217357Y-7333000D01*
X5198643Y-7333000D01*
X5194055Y-7332087D01*
X5180290Y-7329349D01*
X5163001Y-7322188D01*
X5147441Y-7311791D01*
X5134209Y-7298559D01*
X5123812Y-7282999D01*
X5116651Y-7265710D01*
X5113000Y-7247357D01*
X5113000Y-7228643D01*
X5116651Y-7210289D01*
X5123812Y-7193001D01*
X5134209Y-7177441D01*
X5147441Y-7164209D01*
X5163001Y-7153812D01*
X5180290Y-7146651D01*
X5194055Y-7143913D01*
X5198643Y-7143000D01*
X5217357Y-7143000D01*
X5221945Y-7143913D01*
X5221945Y-7143913D01*
G37*
G36*
X2219603Y-6885447D02*
X2219603Y-6885447D01*
X2219603Y-6885447D01*
X2238454Y-6891165D01*
X2238454Y-6891165D01*
X2255826Y-6900451D01*
X2271053Y-6912947D01*
X2283549Y-6928174D01*
X2292835Y-6945546D01*
X2298553Y-6964397D01*
X2300484Y-6984000D01*
X2298553Y-7003603D01*
X2292835Y-7022454D01*
X2283549Y-7039826D01*
X2271053Y-7055053D01*
X2255826Y-7067549D01*
X2238454Y-7076835D01*
X2238454Y-7076835D01*
X2219603Y-7082553D01*
X2219603Y-7082553D01*
X2219603Y-7082553D01*
X2204912Y-7084000D01*
X2115088Y-7084000D01*
X2100397Y-7082553D01*
X2100397Y-7082553D01*
X2100397Y-7082553D01*
X2081546Y-7076835D01*
X2081546Y-7076835D01*
X2064174Y-7067549D01*
X2048947Y-7055053D01*
X2036451Y-7039826D01*
X2027165Y-7022454D01*
X2021447Y-7003603D01*
X2019516Y-6984000D01*
X2021447Y-6964397D01*
X2027165Y-6945546D01*
X2036451Y-6928174D01*
X2048947Y-6912947D01*
X2064174Y-6900451D01*
X2081546Y-6891165D01*
X2081546Y-6891165D01*
X2100397Y-6885447D01*
X2100397Y-6885447D01*
X2100397Y-6885447D01*
X2115088Y-6884000D01*
X2204912Y-6884000D01*
X2219603Y-6885447D01*
X2219603Y-6885447D01*
G37*
G36*
X3189945Y-6889913D02*
X3203710Y-6892651D01*
X3220999Y-6899812D01*
X3236559Y-6910209D01*
X3249791Y-6923441D01*
X3260188Y-6939001D01*
X3267349Y-6956289D01*
X3271000Y-6974643D01*
X3271000Y-6993357D01*
X3267349Y-7011710D01*
X3260188Y-7028999D01*
X3249791Y-7044559D01*
X3236559Y-7057791D01*
X3220999Y-7068188D01*
X3203710Y-7075349D01*
X3189945Y-7078087D01*
X3185357Y-7079000D01*
X3166643Y-7079000D01*
X3162055Y-7078087D01*
X3148289Y-7075349D01*
X3131001Y-7068188D01*
X3115441Y-7057791D01*
X3102209Y-7044559D01*
X3091812Y-7028999D01*
X3084651Y-7011710D01*
X3081000Y-6993357D01*
X3081000Y-6974643D01*
X3084651Y-6956289D01*
X3091812Y-6939001D01*
X3102209Y-6923441D01*
X3115441Y-6910209D01*
X3131001Y-6899812D01*
X3148289Y-6892651D01*
X3162055Y-6889913D01*
X3166643Y-6889000D01*
X3185357Y-6889000D01*
X3189945Y-6889913D01*
X3189945Y-6889913D01*
G37*
G36*
X3443945Y-6889913D02*
X3457710Y-6892651D01*
X3474999Y-6899812D01*
X3490559Y-6910209D01*
X3503791Y-6923441D01*
X3514188Y-6939001D01*
X3521349Y-6956289D01*
X3525000Y-6974643D01*
X3525000Y-6993357D01*
X3521349Y-7011710D01*
X3514188Y-7028999D01*
X3503791Y-7044559D01*
X3490559Y-7057791D01*
X3474999Y-7068188D01*
X3457710Y-7075349D01*
X3443945Y-7078087D01*
X3439357Y-7079000D01*
X3420643Y-7079000D01*
X3416055Y-7078087D01*
X3402289Y-7075349D01*
X3385001Y-7068188D01*
X3369441Y-7057791D01*
X3356209Y-7044559D01*
X3345812Y-7028999D01*
X3338651Y-7011710D01*
X3335000Y-6993357D01*
X3335000Y-6974643D01*
X3338651Y-6956289D01*
X3345812Y-6939001D01*
X3356209Y-6923441D01*
X3369441Y-6910209D01*
X3385001Y-6899812D01*
X3402289Y-6892651D01*
X3416055Y-6889913D01*
X3420643Y-6889000D01*
X3439357Y-6889000D01*
X3443945Y-6889913D01*
X3443945Y-6889913D01*
G37*
G36*
X3697945Y-6889913D02*
X3711710Y-6892651D01*
X3728999Y-6899812D01*
X3744559Y-6910209D01*
X3757791Y-6923441D01*
X3768188Y-6939001D01*
X3775349Y-6956289D01*
X3779000Y-6974643D01*
X3779000Y-6993357D01*
X3775349Y-7011710D01*
X3768188Y-7028999D01*
X3757791Y-7044559D01*
X3744559Y-7057791D01*
X3728999Y-7068188D01*
X3711710Y-7075349D01*
X3697945Y-7078087D01*
X3693357Y-7079000D01*
X3674643Y-7079000D01*
X3670055Y-7078087D01*
X3656289Y-7075349D01*
X3639001Y-7068188D01*
X3623441Y-7057791D01*
X3610209Y-7044559D01*
X3599812Y-7028999D01*
X3592651Y-7011710D01*
X3589000Y-6993357D01*
X3589000Y-6974643D01*
X3592651Y-6956289D01*
X3599812Y-6939001D01*
X3610209Y-6923441D01*
X3623441Y-6910209D01*
X3639001Y-6899812D01*
X3656289Y-6892651D01*
X3670055Y-6889913D01*
X3674643Y-6889000D01*
X3693357Y-6889000D01*
X3697945Y-6889913D01*
X3697945Y-6889913D01*
G37*
G36*
X3951945Y-6889913D02*
X3965710Y-6892651D01*
X3982999Y-6899812D01*
X3998559Y-6910209D01*
X4011791Y-6923441D01*
X4022188Y-6939001D01*
X4029349Y-6956289D01*
X4033000Y-6974643D01*
X4033000Y-6993357D01*
X4029349Y-7011710D01*
X4022188Y-7028999D01*
X4011791Y-7044559D01*
X3998559Y-7057791D01*
X3982999Y-7068188D01*
X3965710Y-7075349D01*
X3951945Y-7078087D01*
X3947357Y-7079000D01*
X3928643Y-7079000D01*
X3924055Y-7078087D01*
X3910289Y-7075349D01*
X3893001Y-7068188D01*
X3877441Y-7057791D01*
X3864209Y-7044559D01*
X3853812Y-7028999D01*
X3846651Y-7011710D01*
X3843000Y-6993357D01*
X3843000Y-6974643D01*
X3846651Y-6956289D01*
X3853812Y-6939001D01*
X3864209Y-6923441D01*
X3877441Y-6910209D01*
X3893001Y-6899812D01*
X3910289Y-6892651D01*
X3924055Y-6889913D01*
X3928643Y-6889000D01*
X3947357Y-6889000D01*
X3951945Y-6889913D01*
X3951945Y-6889913D01*
G37*
G36*
X4205945Y-6889913D02*
X4219711Y-6892651D01*
X4236999Y-6899812D01*
X4252559Y-6910209D01*
X4265791Y-6923441D01*
X4276188Y-6939001D01*
X4283349Y-6956289D01*
X4287000Y-6974643D01*
X4287000Y-6993357D01*
X4283349Y-7011710D01*
X4276188Y-7028999D01*
X4265791Y-7044559D01*
X4252559Y-7057791D01*
X4236999Y-7068188D01*
X4219711Y-7075349D01*
X4205945Y-7078087D01*
X4201357Y-7079000D01*
X4182643Y-7079000D01*
X4178055Y-7078087D01*
X4164289Y-7075349D01*
X4147001Y-7068188D01*
X4131441Y-7057791D01*
X4118209Y-7044559D01*
X4107812Y-7028999D01*
X4100651Y-7011710D01*
X4097000Y-6993357D01*
X4097000Y-6974643D01*
X4100651Y-6956289D01*
X4107812Y-6939001D01*
X4118209Y-6923441D01*
X4131441Y-6910209D01*
X4147001Y-6899812D01*
X4164289Y-6892651D01*
X4178055Y-6889913D01*
X4182643Y-6889000D01*
X4201357Y-6889000D01*
X4205945Y-6889913D01*
X4205945Y-6889913D01*
G37*
G36*
X6999945Y-6889913D02*
X7013710Y-6892651D01*
X7030999Y-6899812D01*
X7046559Y-6910209D01*
X7059791Y-6923441D01*
X7070188Y-6939001D01*
X7077349Y-6956289D01*
X7081000Y-6974643D01*
X7081000Y-6993357D01*
X7077349Y-7011710D01*
X7070188Y-7028999D01*
X7059791Y-7044559D01*
X7046559Y-7057791D01*
X7030999Y-7068188D01*
X7013710Y-7075349D01*
X6999945Y-7078087D01*
X6995357Y-7079000D01*
X6976643Y-7079000D01*
X6972055Y-7078087D01*
X6958289Y-7075349D01*
X6941001Y-7068188D01*
X6925441Y-7057791D01*
X6912209Y-7044559D01*
X6901812Y-7028999D01*
X6894651Y-7011710D01*
X6891000Y-6993357D01*
X6891000Y-6974643D01*
X6894651Y-6956289D01*
X6901812Y-6939001D01*
X6912209Y-6923441D01*
X6925441Y-6910209D01*
X6941001Y-6899812D01*
X6958289Y-6892651D01*
X6972055Y-6889913D01*
X6976643Y-6889000D01*
X6995357Y-6889000D01*
X6999945Y-6889913D01*
X6999945Y-6889913D01*
G37*
G36*
X7253945Y-6889913D02*
X7267710Y-6892651D01*
X7284999Y-6899812D01*
X7300559Y-6910209D01*
X7313791Y-6923441D01*
X7324188Y-6939001D01*
X7331349Y-6956289D01*
X7335000Y-6974643D01*
X7335000Y-6993357D01*
X7331349Y-7011710D01*
X7324188Y-7028999D01*
X7313791Y-7044559D01*
X7300559Y-7057791D01*
X7284999Y-7068188D01*
X7267710Y-7075349D01*
X7253945Y-7078087D01*
X7249357Y-7079000D01*
X7230643Y-7079000D01*
X7226055Y-7078087D01*
X7212289Y-7075349D01*
X7195001Y-7068188D01*
X7179441Y-7057791D01*
X7166209Y-7044559D01*
X7155812Y-7028999D01*
X7148651Y-7011710D01*
X7145000Y-6993357D01*
X7145000Y-6974643D01*
X7148651Y-6956289D01*
X7155812Y-6939001D01*
X7166209Y-6923441D01*
X7179441Y-6910209D01*
X7195001Y-6899812D01*
X7212289Y-6892651D01*
X7226055Y-6889913D01*
X7230643Y-6889000D01*
X7249357Y-6889000D01*
X7253945Y-6889913D01*
X7253945Y-6889913D01*
G37*
G36*
X6745945Y-6889913D02*
X6759710Y-6892651D01*
X6776999Y-6899812D01*
X6792559Y-6910209D01*
X6805791Y-6923441D01*
X6816188Y-6939001D01*
X6823349Y-6956289D01*
X6827000Y-6974643D01*
X6827000Y-6993357D01*
X6823349Y-7011710D01*
X6816188Y-7028999D01*
X6805791Y-7044559D01*
X6792559Y-7057791D01*
X6776999Y-7068188D01*
X6759710Y-7075349D01*
X6745945Y-7078087D01*
X6741357Y-7079000D01*
X6722643Y-7079000D01*
X6718055Y-7078087D01*
X6704289Y-7075349D01*
X6687001Y-7068188D01*
X6671441Y-7057791D01*
X6658209Y-7044559D01*
X6647812Y-7028999D01*
X6640651Y-7011710D01*
X6637000Y-6993357D01*
X6637000Y-6974643D01*
X6640651Y-6956289D01*
X6647812Y-6939001D01*
X6658209Y-6923441D01*
X6671441Y-6910209D01*
X6687001Y-6899812D01*
X6704289Y-6892651D01*
X6718055Y-6889913D01*
X6722643Y-6889000D01*
X6741357Y-6889000D01*
X6745945Y-6889913D01*
X6745945Y-6889913D01*
G37*
G36*
X6491945Y-6889913D02*
X6505710Y-6892651D01*
X6522999Y-6899812D01*
X6538559Y-6910209D01*
X6551791Y-6923441D01*
X6562188Y-6939001D01*
X6569349Y-6956289D01*
X6573000Y-6974643D01*
X6573000Y-6993357D01*
X6569349Y-7011710D01*
X6562188Y-7028999D01*
X6551791Y-7044559D01*
X6538559Y-7057791D01*
X6522999Y-7068188D01*
X6505710Y-7075349D01*
X6491945Y-7078087D01*
X6487357Y-7079000D01*
X6468643Y-7079000D01*
X6464055Y-7078087D01*
X6450289Y-7075349D01*
X6433001Y-7068188D01*
X6417441Y-7057791D01*
X6404209Y-7044559D01*
X6393812Y-7028999D01*
X6386651Y-7011710D01*
X6383000Y-6993357D01*
X6383000Y-6974643D01*
X6386651Y-6956289D01*
X6393812Y-6939001D01*
X6404209Y-6923441D01*
X6417441Y-6910209D01*
X6433001Y-6899812D01*
X6450289Y-6892651D01*
X6464055Y-6889913D01*
X6468643Y-6889000D01*
X6487357Y-6889000D01*
X6491945Y-6889913D01*
X6491945Y-6889913D01*
G37*
G36*
X6237945Y-6889913D02*
X6251710Y-6892651D01*
X6268999Y-6899812D01*
X6284559Y-6910209D01*
X6297791Y-6923441D01*
X6308188Y-6939001D01*
X6315349Y-6956289D01*
X6319000Y-6974643D01*
X6319000Y-6993357D01*
X6315349Y-7011710D01*
X6308188Y-7028999D01*
X6297791Y-7044559D01*
X6284559Y-7057791D01*
X6268999Y-7068188D01*
X6251710Y-7075349D01*
X6237945Y-7078087D01*
X6233357Y-7079000D01*
X6214643Y-7079000D01*
X6210055Y-7078087D01*
X6196289Y-7075349D01*
X6179001Y-7068188D01*
X6163441Y-7057791D01*
X6150209Y-7044559D01*
X6139812Y-7028999D01*
X6132651Y-7011710D01*
X6129000Y-6993357D01*
X6129000Y-6974643D01*
X6132651Y-6956289D01*
X6139812Y-6939001D01*
X6150209Y-6923441D01*
X6163441Y-6910209D01*
X6179001Y-6899812D01*
X6196289Y-6892651D01*
X6210055Y-6889913D01*
X6214643Y-6889000D01*
X6233357Y-6889000D01*
X6237945Y-6889913D01*
X6237945Y-6889913D01*
G37*
G36*
X7507945Y-6889913D02*
X7521710Y-6892651D01*
X7538999Y-6899812D01*
X7554559Y-6910209D01*
X7567791Y-6923441D01*
X7578188Y-6939001D01*
X7585349Y-6956289D01*
X7589000Y-6974643D01*
X7589000Y-6993357D01*
X7585349Y-7011710D01*
X7578188Y-7028999D01*
X7567791Y-7044559D01*
X7554559Y-7057791D01*
X7538999Y-7068188D01*
X7521710Y-7075349D01*
X7507945Y-7078087D01*
X7503357Y-7079000D01*
X7484643Y-7079000D01*
X7480055Y-7078087D01*
X7466289Y-7075349D01*
X7449001Y-7068188D01*
X7433441Y-7057791D01*
X7420209Y-7044559D01*
X7409812Y-7028999D01*
X7402651Y-7011710D01*
X7399000Y-6993357D01*
X7399000Y-6974643D01*
X7402651Y-6956289D01*
X7409812Y-6939001D01*
X7420209Y-6923441D01*
X7433441Y-6910209D01*
X7449001Y-6899812D01*
X7466289Y-6892651D01*
X7480055Y-6889913D01*
X7484643Y-6889000D01*
X7503357Y-6889000D01*
X7507945Y-6889913D01*
X7507945Y-6889913D01*
G37*
G36*
X5983945Y-6889913D02*
X5997710Y-6892651D01*
X6014999Y-6899812D01*
X6030559Y-6910209D01*
X6043791Y-6923441D01*
X6054188Y-6939001D01*
X6061349Y-6956289D01*
X6065000Y-6974643D01*
X6065000Y-6993357D01*
X6061349Y-7011710D01*
X6054188Y-7028999D01*
X6043791Y-7044559D01*
X6030559Y-7057791D01*
X6014999Y-7068188D01*
X5997710Y-7075349D01*
X5983945Y-7078087D01*
X5979357Y-7079000D01*
X5960643Y-7079000D01*
X5956055Y-7078087D01*
X5942289Y-7075349D01*
X5925001Y-7068188D01*
X5909441Y-7057791D01*
X5896209Y-7044559D01*
X5885812Y-7028999D01*
X5878651Y-7011710D01*
X5875000Y-6993357D01*
X5875000Y-6974643D01*
X5878651Y-6956289D01*
X5885812Y-6939001D01*
X5896209Y-6923441D01*
X5909441Y-6910209D01*
X5925001Y-6899812D01*
X5942289Y-6892651D01*
X5956055Y-6889913D01*
X5960643Y-6889000D01*
X5979357Y-6889000D01*
X5983945Y-6889913D01*
X5983945Y-6889913D01*
G37*
G36*
X7761945Y-6889913D02*
X7775710Y-6892651D01*
X7792999Y-6899812D01*
X7808559Y-6910209D01*
X7821791Y-6923441D01*
X7832188Y-6939001D01*
X7839349Y-6956289D01*
X7843000Y-6974643D01*
X7843000Y-6993357D01*
X7839349Y-7011710D01*
X7832188Y-7028999D01*
X7821791Y-7044559D01*
X7808559Y-7057791D01*
X7792999Y-7068188D01*
X7775710Y-7075349D01*
X7761945Y-7078087D01*
X7757357Y-7079000D01*
X7738643Y-7079000D01*
X7734055Y-7078087D01*
X7720289Y-7075349D01*
X7703001Y-7068188D01*
X7687441Y-7057791D01*
X7674209Y-7044559D01*
X7663812Y-7028999D01*
X7656651Y-7011710D01*
X7653000Y-6993357D01*
X7653000Y-6974643D01*
X7656651Y-6956289D01*
X7663812Y-6939001D01*
X7674209Y-6923441D01*
X7687441Y-6910209D01*
X7703001Y-6899812D01*
X7720289Y-6892651D01*
X7734055Y-6889913D01*
X7738643Y-6889000D01*
X7757357Y-6889000D01*
X7761945Y-6889913D01*
X7761945Y-6889913D01*
G37*
G36*
X5475945Y-6889913D02*
X5489711Y-6892651D01*
X5506999Y-6899812D01*
X5522559Y-6910209D01*
X5535791Y-6923441D01*
X5546188Y-6939001D01*
X5553349Y-6956289D01*
X5557000Y-6974643D01*
X5557000Y-6993357D01*
X5553349Y-7011710D01*
X5546188Y-7028999D01*
X5535791Y-7044559D01*
X5522559Y-7057791D01*
X5506999Y-7068188D01*
X5489711Y-7075349D01*
X5475945Y-7078087D01*
X5471357Y-7079000D01*
X5452643Y-7079000D01*
X5448055Y-7078087D01*
X5434290Y-7075349D01*
X5417001Y-7068188D01*
X5401441Y-7057791D01*
X5388209Y-7044559D01*
X5377812Y-7028999D01*
X5370651Y-7011710D01*
X5367000Y-6993357D01*
X5367000Y-6974643D01*
X5370651Y-6956289D01*
X5377812Y-6939001D01*
X5388209Y-6923441D01*
X5401441Y-6910209D01*
X5417001Y-6899812D01*
X5434290Y-6892651D01*
X5448055Y-6889913D01*
X5452643Y-6889000D01*
X5471357Y-6889000D01*
X5475945Y-6889913D01*
X5475945Y-6889913D01*
G37*
G36*
X5221945Y-6889913D02*
X5235711Y-6892651D01*
X5252999Y-6899812D01*
X5268559Y-6910209D01*
X5281791Y-6923441D01*
X5292188Y-6939001D01*
X5299349Y-6956289D01*
X5303000Y-6974643D01*
X5303000Y-6993357D01*
X5299349Y-7011710D01*
X5292188Y-7028999D01*
X5281791Y-7044559D01*
X5268559Y-7057791D01*
X5252999Y-7068188D01*
X5235711Y-7075349D01*
X5221945Y-7078087D01*
X5217357Y-7079000D01*
X5198643Y-7079000D01*
X5194055Y-7078087D01*
X5180290Y-7075349D01*
X5163001Y-7068188D01*
X5147441Y-7057791D01*
X5134209Y-7044559D01*
X5123812Y-7028999D01*
X5116651Y-7011710D01*
X5113000Y-6993357D01*
X5113000Y-6974643D01*
X5116651Y-6956289D01*
X5123812Y-6939001D01*
X5134209Y-6923441D01*
X5147441Y-6910209D01*
X5163001Y-6899812D01*
X5180290Y-6892651D01*
X5194055Y-6889913D01*
X5198643Y-6889000D01*
X5217357Y-6889000D01*
X5221945Y-6889913D01*
X5221945Y-6889913D01*
G37*
G36*
X4967945Y-6889913D02*
X4981711Y-6892651D01*
X4998999Y-6899812D01*
X5014559Y-6910209D01*
X5027791Y-6923441D01*
X5038188Y-6939001D01*
X5045349Y-6956289D01*
X5049000Y-6974643D01*
X5049000Y-6993357D01*
X5045349Y-7011710D01*
X5038188Y-7028999D01*
X5027791Y-7044559D01*
X5014559Y-7057791D01*
X4998999Y-7068188D01*
X4981711Y-7075349D01*
X4967945Y-7078087D01*
X4963357Y-7079000D01*
X4944643Y-7079000D01*
X4940055Y-7078087D01*
X4926290Y-7075349D01*
X4909001Y-7068188D01*
X4893441Y-7057791D01*
X4880209Y-7044559D01*
X4869812Y-7028999D01*
X4862651Y-7011710D01*
X4859000Y-6993357D01*
X4859000Y-6974643D01*
X4862651Y-6956289D01*
X4869812Y-6939001D01*
X4880209Y-6923441D01*
X4893441Y-6910209D01*
X4909001Y-6899812D01*
X4926290Y-6892651D01*
X4940055Y-6889913D01*
X4944643Y-6889000D01*
X4963357Y-6889000D01*
X4967945Y-6889913D01*
X4967945Y-6889913D01*
G37*
G36*
X4713945Y-6889913D02*
X4727711Y-6892651D01*
X4744999Y-6899812D01*
X4760559Y-6910209D01*
X4773791Y-6923441D01*
X4784188Y-6939001D01*
X4791349Y-6956289D01*
X4795000Y-6974643D01*
X4795000Y-6993357D01*
X4791349Y-7011710D01*
X4784188Y-7028999D01*
X4773791Y-7044559D01*
X4760559Y-7057791D01*
X4744999Y-7068188D01*
X4727711Y-7075349D01*
X4713945Y-7078087D01*
X4709357Y-7079000D01*
X4690643Y-7079000D01*
X4686055Y-7078087D01*
X4672290Y-7075349D01*
X4655001Y-7068188D01*
X4639441Y-7057791D01*
X4626209Y-7044559D01*
X4615812Y-7028999D01*
X4608651Y-7011710D01*
X4605000Y-6993357D01*
X4605000Y-6974643D01*
X4608651Y-6956289D01*
X4615812Y-6939001D01*
X4626209Y-6923441D01*
X4639441Y-6910209D01*
X4655001Y-6899812D01*
X4672290Y-6892651D01*
X4686055Y-6889913D01*
X4690643Y-6889000D01*
X4709357Y-6889000D01*
X4713945Y-6889913D01*
X4713945Y-6889913D01*
G37*
G36*
X5729945Y-6889913D02*
X5743710Y-6892651D01*
X5760999Y-6899812D01*
X5776559Y-6910209D01*
X5789791Y-6923441D01*
X5800188Y-6939001D01*
X5807349Y-6956289D01*
X5811000Y-6974643D01*
X5811000Y-6993357D01*
X5807349Y-7011710D01*
X5800188Y-7028999D01*
X5789791Y-7044559D01*
X5776559Y-7057791D01*
X5760999Y-7068188D01*
X5743710Y-7075349D01*
X5729945Y-7078087D01*
X5725357Y-7079000D01*
X5706643Y-7079000D01*
X5702055Y-7078087D01*
X5688289Y-7075349D01*
X5671001Y-7068188D01*
X5655441Y-7057791D01*
X5642209Y-7044559D01*
X5631812Y-7028999D01*
X5624651Y-7011710D01*
X5621000Y-6993357D01*
X5621000Y-6974643D01*
X5624651Y-6956289D01*
X5631812Y-6939001D01*
X5642209Y-6923441D01*
X5655441Y-6910209D01*
X5671001Y-6899812D01*
X5688289Y-6892651D01*
X5702055Y-6889913D01*
X5706643Y-6889000D01*
X5725357Y-6889000D01*
X5729945Y-6889913D01*
X5729945Y-6889913D01*
G37*
G36*
X4459945Y-6889913D02*
X4473711Y-6892651D01*
X4490999Y-6899812D01*
X4506559Y-6910209D01*
X4519791Y-6923441D01*
X4530188Y-6939001D01*
X4537349Y-6956289D01*
X4541000Y-6974643D01*
X4541000Y-6993357D01*
X4537349Y-7011710D01*
X4530188Y-7028999D01*
X4519791Y-7044559D01*
X4506559Y-7057791D01*
X4490999Y-7068188D01*
X4473711Y-7075349D01*
X4459945Y-7078087D01*
X4455357Y-7079000D01*
X4436643Y-7079000D01*
X4432055Y-7078087D01*
X4418290Y-7075349D01*
X4401001Y-7068188D01*
X4385441Y-7057791D01*
X4372209Y-7044559D01*
X4361812Y-7028999D01*
X4354651Y-7011710D01*
X4351000Y-6993357D01*
X4351000Y-6974643D01*
X4354651Y-6956289D01*
X4361812Y-6939001D01*
X4372209Y-6923441D01*
X4385441Y-6910209D01*
X4401001Y-6899812D01*
X4418290Y-6892651D01*
X4432055Y-6889913D01*
X4436643Y-6889000D01*
X4455357Y-6889000D01*
X4459945Y-6889913D01*
X4459945Y-6889913D01*
G37*
G36*
X1623553Y-6904487D02*
X1627722Y-6905752D01*
X1631563Y-6907805D01*
X1634931Y-6910569D01*
X1637695Y-6913937D01*
X1639748Y-6917778D01*
X1641013Y-6921947D01*
X1641500Y-6926896D01*
X1641500Y-7041104D01*
X1641013Y-7046053D01*
X1639748Y-7050222D01*
X1637695Y-7054063D01*
X1634931Y-7057431D01*
X1631563Y-7060195D01*
X1627722Y-7062248D01*
X1623553Y-7063513D01*
X1618604Y-7064000D01*
X1529396Y-7064000D01*
X1524447Y-7063513D01*
X1520278Y-7062248D01*
X1516437Y-7060195D01*
X1513069Y-7057431D01*
X1510305Y-7054063D01*
X1508252Y-7050222D01*
X1506987Y-7046053D01*
X1506500Y-7041104D01*
X1506500Y-6926896D01*
X1506987Y-6921947D01*
X1508252Y-6917778D01*
X1510305Y-6913937D01*
X1513069Y-6910569D01*
X1516437Y-6907805D01*
X1520278Y-6905752D01*
X1524447Y-6904487D01*
X1529396Y-6904000D01*
X1618604Y-6904000D01*
X1623553Y-6904487D01*
X1623553Y-6904487D01*
G37*
G36*
X1828553Y-6904487D02*
X1832722Y-6905752D01*
X1836563Y-6907805D01*
X1839931Y-6910569D01*
X1842695Y-6913937D01*
X1844748Y-6917778D01*
X1846013Y-6921947D01*
X1846500Y-6926896D01*
X1846500Y-7041104D01*
X1846013Y-7046053D01*
X1844748Y-7050222D01*
X1842695Y-7054063D01*
X1839931Y-7057431D01*
X1836563Y-7060195D01*
X1832722Y-7062248D01*
X1828553Y-7063513D01*
X1823604Y-7064000D01*
X1734396Y-7064000D01*
X1729447Y-7063513D01*
X1725278Y-7062248D01*
X1721437Y-7060195D01*
X1718069Y-7057431D01*
X1715305Y-7054063D01*
X1713252Y-7050222D01*
X1711987Y-7046053D01*
X1711500Y-7041104D01*
X1711500Y-6926896D01*
X1711987Y-6921947D01*
X1713252Y-6917778D01*
X1715305Y-6913937D01*
X1718069Y-6910569D01*
X1721437Y-6907805D01*
X1725278Y-6905752D01*
X1729447Y-6904487D01*
X1734396Y-6904000D01*
X1823604Y-6904000D01*
X1828553Y-6904487D01*
X1828553Y-6904487D01*
G37*
G36*
X2219603Y-6631447D02*
X2219603Y-6631447D01*
X2219603Y-6631447D01*
X2238454Y-6637165D01*
X2238454Y-6637165D01*
X2255826Y-6646451D01*
X2271053Y-6658947D01*
X2283549Y-6674174D01*
X2292835Y-6691546D01*
X2298553Y-6710397D01*
X2300484Y-6730000D01*
X2298553Y-6749603D01*
X2292835Y-6768454D01*
X2283549Y-6785826D01*
X2271053Y-6801053D01*
X2255826Y-6813549D01*
X2255826Y-6813549D01*
X2238454Y-6822835D01*
X2219603Y-6828553D01*
X2219603Y-6828553D01*
X2219603Y-6828553D01*
X2204912Y-6830000D01*
X2115088Y-6830000D01*
X2100397Y-6828553D01*
X2100397Y-6828553D01*
X2100397Y-6828553D01*
X2081546Y-6822835D01*
X2064174Y-6813549D01*
X2064174Y-6813549D01*
X2048947Y-6801053D01*
X2036451Y-6785826D01*
X2027165Y-6768454D01*
X2021447Y-6749603D01*
X2019516Y-6730000D01*
X2021447Y-6710397D01*
X2027165Y-6691546D01*
X2036451Y-6674174D01*
X2048947Y-6658947D01*
X2064174Y-6646451D01*
X2081546Y-6637165D01*
X2081546Y-6637165D01*
X2100397Y-6631447D01*
X2100397Y-6631447D01*
X2100397Y-6631447D01*
X2115088Y-6630000D01*
X2204912Y-6630000D01*
X2219603Y-6631447D01*
X2219603Y-6631447D01*
G37*
G36*
X2219603Y-6377447D02*
X2219603Y-6377447D01*
X2219603Y-6377447D01*
X2238454Y-6383165D01*
X2238454Y-6383165D01*
X2255826Y-6392451D01*
X2271053Y-6404947D01*
X2283549Y-6420174D01*
X2292835Y-6437546D01*
X2298553Y-6456397D01*
X2300484Y-6476000D01*
X2298553Y-6495603D01*
X2292835Y-6514454D01*
X2283549Y-6531826D01*
X2271053Y-6547053D01*
X2255826Y-6559549D01*
X2255826Y-6559549D01*
X2238454Y-6568835D01*
X2219603Y-6574553D01*
X2219603Y-6574553D01*
X2219603Y-6574553D01*
X2204912Y-6576000D01*
X2115088Y-6576000D01*
X2100397Y-6574553D01*
X2100397Y-6574553D01*
X2100397Y-6574553D01*
X2081546Y-6568835D01*
X2064174Y-6559549D01*
X2064174Y-6559549D01*
X2048947Y-6547053D01*
X2036451Y-6531826D01*
X2027165Y-6514454D01*
X2021447Y-6495603D01*
X2019516Y-6476000D01*
X2021447Y-6456397D01*
X2027165Y-6437546D01*
X2036451Y-6420174D01*
X2048947Y-6404947D01*
X2064174Y-6392451D01*
X2081546Y-6383165D01*
X2081546Y-6383165D01*
X2100397Y-6377447D01*
X2100397Y-6377447D01*
X2100397Y-6377447D01*
X2115088Y-6376000D01*
X2204912Y-6376000D01*
X2219603Y-6377447D01*
X2219603Y-6377447D01*
G37*
G36*
X2219603Y-6123447D02*
X2219603Y-6123447D01*
X2219603Y-6123447D01*
X2238454Y-6129165D01*
X2238454Y-6129165D01*
X2255826Y-6138451D01*
X2271053Y-6150947D01*
X2283549Y-6166174D01*
X2283549Y-6166174D01*
X2292835Y-6183546D01*
X2295545Y-6192481D01*
X2298553Y-6202397D01*
X2300484Y-6222000D01*
X2298553Y-6241603D01*
X2292835Y-6260454D01*
X2283549Y-6277826D01*
X2271053Y-6293053D01*
X2255826Y-6305549D01*
X2255826Y-6305549D01*
X2238454Y-6314835D01*
X2219603Y-6320553D01*
X2219603Y-6320553D01*
X2219603Y-6320553D01*
X2204912Y-6322000D01*
X2115088Y-6322000D01*
X2100397Y-6320553D01*
X2100397Y-6320553D01*
X2100397Y-6320553D01*
X2081546Y-6314835D01*
X2064174Y-6305549D01*
X2064174Y-6305549D01*
X2048947Y-6293053D01*
X2036451Y-6277826D01*
X2027165Y-6260454D01*
X2021447Y-6241603D01*
X2019516Y-6222000D01*
X2021447Y-6202397D01*
X2024455Y-6192481D01*
X2027165Y-6183546D01*
X2036451Y-6166174D01*
X2036451Y-6166174D01*
X2048947Y-6150947D01*
X2064174Y-6138451D01*
X2081546Y-6129165D01*
X2081546Y-6129165D01*
X2100397Y-6123447D01*
X2100397Y-6123447D01*
X2100397Y-6123447D01*
X2115088Y-6122000D01*
X2204912Y-6122000D01*
X2219603Y-6123447D01*
X2219603Y-6123447D01*
G37*
G36*
X9177086Y-5989227D02*
X9197104Y-5997519D01*
X9215121Y-6009558D01*
X9230442Y-6024879D01*
X9242481Y-6042896D01*
X9250773Y-6062914D01*
X9255000Y-6084166D01*
X9255000Y-6105834D01*
X9250773Y-6127086D01*
X9242481Y-6147104D01*
X9230442Y-6165121D01*
X9215121Y-6180442D01*
X9197104Y-6192481D01*
X9177086Y-6200773D01*
X9155834Y-6205000D01*
X9134166Y-6205000D01*
X9112914Y-6200773D01*
X9092896Y-6192481D01*
X9074879Y-6180442D01*
X9059558Y-6165121D01*
X9047519Y-6147104D01*
X9039227Y-6127086D01*
X9035000Y-6105834D01*
X9035000Y-6084166D01*
X9039227Y-6062914D01*
X9047519Y-6042896D01*
X9059558Y-6024879D01*
X9074879Y-6009558D01*
X9092896Y-5997519D01*
X9112914Y-5989227D01*
X9134166Y-5985000D01*
X9155834Y-5985000D01*
X9177086Y-5989227D01*
X9177086Y-5989227D01*
G37*
G36*
X8755000Y-6205000D02*
X8535000Y-6205000D01*
X8535000Y-5985000D01*
X8755000Y-5985000D01*
X8755000Y-6205000D01*
X8755000Y-6205000D01*
G37*
G36*
X8927086Y-5989227D02*
X8947104Y-5997519D01*
X8965121Y-6009558D01*
X8980442Y-6024879D01*
X8992481Y-6042896D01*
X9000773Y-6062914D01*
X9005000Y-6084166D01*
X9005000Y-6105834D01*
X9000773Y-6127086D01*
X8992481Y-6147104D01*
X8980442Y-6165121D01*
X8965121Y-6180442D01*
X8947104Y-6192481D01*
X8927086Y-6200773D01*
X8905834Y-6205000D01*
X8884166Y-6205000D01*
X8862914Y-6200773D01*
X8842896Y-6192481D01*
X8824879Y-6180442D01*
X8809558Y-6165121D01*
X8797519Y-6147104D01*
X8789227Y-6127086D01*
X8785000Y-6105834D01*
X8785000Y-6084166D01*
X8789227Y-6062914D01*
X8797519Y-6042896D01*
X8809558Y-6024879D01*
X8824879Y-6009558D01*
X8842896Y-5997519D01*
X8862914Y-5989227D01*
X8884166Y-5985000D01*
X8905834Y-5985000D01*
X8927086Y-5989227D01*
X8927086Y-5989227D01*
G37*
G36*
X2219603Y-5869447D02*
X2219603Y-5869447D01*
X2219603Y-5869447D01*
X2238454Y-5875165D01*
X2238454Y-5875165D01*
X2255826Y-5884451D01*
X2271053Y-5896947D01*
X2283549Y-5912174D01*
X2292835Y-5929546D01*
X2298553Y-5948397D01*
X2300484Y-5968000D01*
X2298553Y-5987603D01*
X2298553Y-5987603D01*
X2298553Y-5987603D01*
X2295545Y-5997519D01*
X2292835Y-6006454D01*
X2283549Y-6023826D01*
X2271053Y-6039053D01*
X2255826Y-6051549D01*
X2255826Y-6051549D01*
X2238454Y-6060835D01*
X2219603Y-6066553D01*
X2219603Y-6066553D01*
X2219603Y-6066553D01*
X2204912Y-6068000D01*
X2115088Y-6068000D01*
X2100397Y-6066553D01*
X2100397Y-6066553D01*
X2100397Y-6066553D01*
X2081546Y-6060835D01*
X2064174Y-6051549D01*
X2064174Y-6051549D01*
X2048947Y-6039053D01*
X2036451Y-6023826D01*
X2027165Y-6006454D01*
X2024455Y-5997519D01*
X2021447Y-5987603D01*
X2021447Y-5987603D01*
X2021447Y-5987603D01*
X2019516Y-5968000D01*
X2021447Y-5948397D01*
X2027165Y-5929546D01*
X2036451Y-5912174D01*
X2048947Y-5896947D01*
X2064174Y-5884451D01*
X2081546Y-5875165D01*
X2081546Y-5875165D01*
X2100397Y-5869447D01*
X2100397Y-5869447D01*
X2100397Y-5869447D01*
X2115088Y-5868000D01*
X2204912Y-5868000D01*
X2219603Y-5869447D01*
X2219603Y-5869447D01*
G37*
G36*
X1765053Y-5761487D02*
X1769222Y-5762752D01*
X1773063Y-5764805D01*
X1776431Y-5767569D01*
X1779195Y-5770937D01*
X1781248Y-5774778D01*
X1782513Y-5778947D01*
X1783000Y-5783896D01*
X1783000Y-5898104D01*
X1782513Y-5903053D01*
X1781248Y-5907222D01*
X1779195Y-5911063D01*
X1776431Y-5914431D01*
X1773063Y-5917195D01*
X1769222Y-5919248D01*
X1765053Y-5920513D01*
X1760104Y-5921000D01*
X1670896Y-5921000D01*
X1665947Y-5920513D01*
X1661778Y-5919248D01*
X1657937Y-5917195D01*
X1654569Y-5914431D01*
X1651805Y-5911063D01*
X1649752Y-5907222D01*
X1648487Y-5903053D01*
X1648000Y-5898104D01*
X1648000Y-5783896D01*
X1648487Y-5778947D01*
X1649752Y-5774778D01*
X1651805Y-5770937D01*
X1654569Y-5767569D01*
X1657937Y-5764805D01*
X1661778Y-5762752D01*
X1665947Y-5761487D01*
X1670896Y-5761000D01*
X1760104Y-5761000D01*
X1765053Y-5761487D01*
X1765053Y-5761487D01*
G37*
G36*
X1560053Y-5761487D02*
X1564222Y-5762752D01*
X1568063Y-5764805D01*
X1571431Y-5767569D01*
X1574195Y-5770937D01*
X1576248Y-5774778D01*
X1577513Y-5778947D01*
X1578000Y-5783896D01*
X1578000Y-5898104D01*
X1577513Y-5903053D01*
X1576248Y-5907222D01*
X1574195Y-5911063D01*
X1571431Y-5914431D01*
X1568063Y-5917195D01*
X1564222Y-5919248D01*
X1560053Y-5920513D01*
X1555104Y-5921000D01*
X1465896Y-5921000D01*
X1460947Y-5920513D01*
X1456778Y-5919248D01*
X1452937Y-5917195D01*
X1449569Y-5914431D01*
X1446805Y-5911063D01*
X1444752Y-5907222D01*
X1443487Y-5903053D01*
X1443000Y-5898104D01*
X1443000Y-5783896D01*
X1443487Y-5778947D01*
X1444752Y-5774778D01*
X1446805Y-5770937D01*
X1449569Y-5767569D01*
X1452937Y-5764805D01*
X1456778Y-5762752D01*
X1460947Y-5761487D01*
X1465896Y-5761000D01*
X1555104Y-5761000D01*
X1560053Y-5761487D01*
X1560053Y-5761487D01*
G37*
G36*
X2219603Y-5615447D02*
X2219603Y-5615447D01*
X2219603Y-5615447D01*
X2238454Y-5621165D01*
X2238454Y-5621165D01*
X2255826Y-5630451D01*
X2271053Y-5642947D01*
X2283549Y-5658174D01*
X2292835Y-5675546D01*
X2298553Y-5694397D01*
X2300484Y-5714000D01*
X2298553Y-5733603D01*
X2292835Y-5752454D01*
X2283549Y-5769826D01*
X2271053Y-5785053D01*
X2255826Y-5797549D01*
X2255826Y-5797549D01*
X2238454Y-5806835D01*
X2219603Y-5812553D01*
X2219603Y-5812553D01*
X2219603Y-5812553D01*
X2204912Y-5814000D01*
X2115088Y-5814000D01*
X2100397Y-5812553D01*
X2100397Y-5812553D01*
X2100397Y-5812553D01*
X2081546Y-5806835D01*
X2064174Y-5797549D01*
X2064174Y-5797549D01*
X2048947Y-5785053D01*
X2036451Y-5769826D01*
X2027165Y-5752454D01*
X2021447Y-5733603D01*
X2019516Y-5714000D01*
X2021447Y-5694397D01*
X2027165Y-5675546D01*
X2036451Y-5658174D01*
X2048947Y-5642947D01*
X2064174Y-5630451D01*
X2081546Y-5621165D01*
X2081546Y-5621165D01*
X2100397Y-5615447D01*
X2100397Y-5615447D01*
X2100397Y-5615447D01*
X2115088Y-5614000D01*
X2204912Y-5614000D01*
X2219603Y-5615447D01*
X2219603Y-5615447D01*
G37*
G36*
X2219603Y-5361447D02*
X2219603Y-5361447D01*
X2219603Y-5361447D01*
X2238454Y-5367165D01*
X2238454Y-5367165D01*
X2255826Y-5376451D01*
X2271053Y-5388947D01*
X2283549Y-5404174D01*
X2292835Y-5421546D01*
X2298553Y-5440397D01*
X2300484Y-5460000D01*
X2298553Y-5479603D01*
X2292835Y-5498454D01*
X2283549Y-5515826D01*
X2271053Y-5531053D01*
X2255826Y-5543549D01*
X2255826Y-5543549D01*
X2238454Y-5552835D01*
X2219603Y-5558553D01*
X2219603Y-5558553D01*
X2219603Y-5558553D01*
X2204912Y-5560000D01*
X2115088Y-5560000D01*
X2100397Y-5558553D01*
X2100397Y-5558553D01*
X2100397Y-5558553D01*
X2081546Y-5552835D01*
X2064174Y-5543549D01*
X2064174Y-5543549D01*
X2048947Y-5531053D01*
X2036451Y-5515826D01*
X2027165Y-5498454D01*
X2021447Y-5479603D01*
X2019516Y-5460000D01*
X2021447Y-5440397D01*
X2027165Y-5421546D01*
X2036451Y-5404174D01*
X2048947Y-5388947D01*
X2064174Y-5376451D01*
X2081546Y-5367165D01*
X2081546Y-5367165D01*
X2100397Y-5361447D01*
X2100397Y-5361447D01*
X2100397Y-5361447D01*
X2115088Y-5360000D01*
X2204912Y-5360000D01*
X2219603Y-5361447D01*
X2219603Y-5361447D01*
G37*
G36*
X8369093Y-5198843D02*
X8378753Y-5200764D01*
X8391393Y-5206000D01*
X8405660Y-5211910D01*
X8406052Y-5212072D01*
X8426303Y-5225603D01*
X8430620Y-5228488D01*
X8451512Y-5249380D01*
X8451513Y-5249381D01*
X8461077Y-5263694D01*
X8467928Y-5273949D01*
X8479236Y-5301247D01*
X8485000Y-5330226D01*
X8485000Y-5359774D01*
X8481683Y-5376451D01*
X8479236Y-5388753D01*
X8467928Y-5416052D01*
X8451731Y-5440292D01*
X8451512Y-5440620D01*
X8430620Y-5461512D01*
X8430619Y-5461513D01*
X8406052Y-5477928D01*
X8406052Y-5477928D01*
X8406052Y-5477928D01*
X8398056Y-5481240D01*
X8378753Y-5489236D01*
X8369093Y-5491157D01*
X8349774Y-5495000D01*
X8320226Y-5495000D01*
X8300906Y-5491157D01*
X8291247Y-5489236D01*
X8271944Y-5481240D01*
X8263948Y-5477928D01*
X8263948Y-5477928D01*
X8263948Y-5477928D01*
X8239381Y-5461513D01*
X8239380Y-5461512D01*
X8218488Y-5440620D01*
X8218269Y-5440292D01*
X8202072Y-5416052D01*
X8190764Y-5388753D01*
X8188317Y-5376451D01*
X8185000Y-5359774D01*
X8185000Y-5330226D01*
X8190764Y-5301247D01*
X8202072Y-5273949D01*
X8208923Y-5263694D01*
X8218487Y-5249381D01*
X8218488Y-5249380D01*
X8239380Y-5228488D01*
X8243697Y-5225603D01*
X8263948Y-5212072D01*
X8264340Y-5211910D01*
X8278607Y-5206000D01*
X8291247Y-5200764D01*
X8300906Y-5198843D01*
X8320226Y-5195000D01*
X8349774Y-5195000D01*
X8369093Y-5198843D01*
X8369093Y-5198843D01*
G37*
G36*
X9489094Y-5198843D02*
X9498753Y-5200764D01*
X9511393Y-5206000D01*
X9525660Y-5211910D01*
X9526052Y-5212072D01*
X9546303Y-5225603D01*
X9550620Y-5228488D01*
X9571512Y-5249380D01*
X9571513Y-5249381D01*
X9581077Y-5263694D01*
X9587928Y-5273949D01*
X9599236Y-5301247D01*
X9605000Y-5330226D01*
X9605000Y-5359774D01*
X9601683Y-5376451D01*
X9599236Y-5388753D01*
X9587928Y-5416052D01*
X9571731Y-5440292D01*
X9571512Y-5440620D01*
X9550620Y-5461512D01*
X9550619Y-5461513D01*
X9526052Y-5477928D01*
X9526052Y-5477928D01*
X9526052Y-5477928D01*
X9518056Y-5481240D01*
X9498753Y-5489236D01*
X9489094Y-5491157D01*
X9469774Y-5495000D01*
X9440226Y-5495000D01*
X9420907Y-5491157D01*
X9411247Y-5489236D01*
X9391944Y-5481240D01*
X9383949Y-5477928D01*
X9383948Y-5477928D01*
X9383948Y-5477928D01*
X9359381Y-5461513D01*
X9359380Y-5461512D01*
X9338488Y-5440620D01*
X9338269Y-5440292D01*
X9322072Y-5416052D01*
X9310764Y-5388753D01*
X9308317Y-5376451D01*
X9305000Y-5359774D01*
X9305000Y-5330226D01*
X9310764Y-5301247D01*
X9322072Y-5273949D01*
X9328923Y-5263694D01*
X9338487Y-5249381D01*
X9338488Y-5249380D01*
X9359380Y-5228488D01*
X9363697Y-5225603D01*
X9383948Y-5212072D01*
X9384340Y-5211910D01*
X9398607Y-5206000D01*
X9411247Y-5200764D01*
X9420907Y-5198843D01*
X9440226Y-5195000D01*
X9469774Y-5195000D01*
X9489094Y-5198843D01*
X9489094Y-5198843D01*
G37*
G36*
X1765053Y-5316987D02*
X1769222Y-5318252D01*
X1773063Y-5320305D01*
X1776431Y-5323069D01*
X1779195Y-5326437D01*
X1781248Y-5330278D01*
X1782513Y-5334447D01*
X1783000Y-5339396D01*
X1783000Y-5453604D01*
X1782513Y-5458553D01*
X1781248Y-5462722D01*
X1779195Y-5466563D01*
X1776431Y-5469931D01*
X1773063Y-5472695D01*
X1769222Y-5474748D01*
X1765053Y-5476013D01*
X1760104Y-5476500D01*
X1670896Y-5476500D01*
X1665947Y-5476013D01*
X1661778Y-5474748D01*
X1657937Y-5472695D01*
X1654569Y-5469931D01*
X1651805Y-5466563D01*
X1649752Y-5462722D01*
X1648487Y-5458553D01*
X1648000Y-5453604D01*
X1648000Y-5339396D01*
X1648487Y-5334447D01*
X1649752Y-5330278D01*
X1651805Y-5326437D01*
X1654569Y-5323069D01*
X1657937Y-5320305D01*
X1661778Y-5318252D01*
X1665947Y-5316987D01*
X1670896Y-5316500D01*
X1760104Y-5316500D01*
X1765053Y-5316987D01*
X1765053Y-5316987D01*
G37*
G36*
X1560053Y-5316987D02*
X1564222Y-5318252D01*
X1568063Y-5320305D01*
X1571431Y-5323069D01*
X1574195Y-5326437D01*
X1576248Y-5330278D01*
X1577513Y-5334447D01*
X1578000Y-5339396D01*
X1578000Y-5453604D01*
X1577513Y-5458553D01*
X1576248Y-5462722D01*
X1574195Y-5466563D01*
X1571431Y-5469931D01*
X1568063Y-5472695D01*
X1564222Y-5474748D01*
X1560053Y-5476013D01*
X1555104Y-5476500D01*
X1465896Y-5476500D01*
X1460947Y-5476013D01*
X1456778Y-5474748D01*
X1452937Y-5472695D01*
X1449569Y-5469931D01*
X1446805Y-5466563D01*
X1444752Y-5462722D01*
X1443487Y-5458553D01*
X1443000Y-5453604D01*
X1443000Y-5339396D01*
X1443487Y-5334447D01*
X1444752Y-5330278D01*
X1446805Y-5326437D01*
X1449569Y-5323069D01*
X1452937Y-5320305D01*
X1456778Y-5318252D01*
X1460947Y-5316987D01*
X1465896Y-5316500D01*
X1555104Y-5316500D01*
X1560053Y-5316987D01*
X1560053Y-5316987D01*
G37*
G36*
X2219603Y-5107447D02*
X2219603Y-5107447D01*
X2219603Y-5107447D01*
X2238454Y-5113165D01*
X2238454Y-5113165D01*
X2255826Y-5122451D01*
X2271053Y-5134947D01*
X2283549Y-5150174D01*
X2292835Y-5167546D01*
X2298553Y-5186397D01*
X2300484Y-5206000D01*
X2298553Y-5225603D01*
X2298553Y-5225603D01*
X2298553Y-5225603D01*
X2297678Y-5228487D01*
X2292835Y-5244454D01*
X2283549Y-5261826D01*
X2271053Y-5277053D01*
X2255826Y-5289549D01*
X2255826Y-5289549D01*
X2238454Y-5298835D01*
X2219603Y-5304553D01*
X2219603Y-5304553D01*
X2219603Y-5304553D01*
X2204912Y-5306000D01*
X2115088Y-5306000D01*
X2100397Y-5304553D01*
X2100397Y-5304553D01*
X2100397Y-5304553D01*
X2081546Y-5298835D01*
X2064174Y-5289549D01*
X2064174Y-5289549D01*
X2048947Y-5277053D01*
X2036451Y-5261826D01*
X2027165Y-5244454D01*
X2022322Y-5228487D01*
X2021447Y-5225603D01*
X2021447Y-5225603D01*
X2021447Y-5225603D01*
X2019516Y-5206000D01*
X2021447Y-5186397D01*
X2027165Y-5167546D01*
X2036451Y-5150174D01*
X2048947Y-5134947D01*
X2064174Y-5122451D01*
X2081546Y-5113165D01*
X2081546Y-5113165D01*
X2100397Y-5107447D01*
X2100397Y-5107447D01*
X2100397Y-5107447D01*
X2115088Y-5106000D01*
X2204912Y-5106000D01*
X2219603Y-5107447D01*
X2219603Y-5107447D01*
G37*
G36*
X1923501Y-5148306D02*
X1934421Y-5152829D01*
X1944248Y-5159395D01*
X1952605Y-5167752D01*
X1959171Y-5177579D01*
X1963694Y-5188499D01*
X1966000Y-5200090D01*
X1966000Y-5211910D01*
X1963694Y-5223501D01*
X1959171Y-5234421D01*
X1952605Y-5244248D01*
X1944248Y-5252605D01*
X1934421Y-5259171D01*
X1923501Y-5263694D01*
X1911910Y-5266000D01*
X1900090Y-5266000D01*
X1888499Y-5263694D01*
X1877579Y-5259171D01*
X1867752Y-5252605D01*
X1859395Y-5244248D01*
X1852829Y-5234421D01*
X1848306Y-5223501D01*
X1846000Y-5211910D01*
X1846000Y-5200090D01*
X1848306Y-5188499D01*
X1852829Y-5177579D01*
X1859395Y-5167752D01*
X1867752Y-5159395D01*
X1877579Y-5152829D01*
X1888499Y-5148306D01*
X1900090Y-5146000D01*
X1911910Y-5146000D01*
X1923501Y-5148306D01*
X1923501Y-5148306D01*
G37*
G36*
X2219603Y-4853447D02*
X2219603Y-4853447D01*
X2219603Y-4853447D01*
X2238454Y-4859165D01*
X2238454Y-4859165D01*
X2255826Y-4868451D01*
X2271053Y-4880947D01*
X2283549Y-4896174D01*
X2292835Y-4913546D01*
X2298553Y-4932397D01*
X2300484Y-4952000D01*
X2298553Y-4971603D01*
X2292835Y-4990454D01*
X2283549Y-5007826D01*
X2271053Y-5023053D01*
X2255826Y-5035549D01*
X2255826Y-5035549D01*
X2238454Y-5044835D01*
X2219603Y-5050553D01*
X2219603Y-5050553D01*
X2219603Y-5050553D01*
X2204912Y-5052000D01*
X2115088Y-5052000D01*
X2100397Y-5050553D01*
X2100397Y-5050553D01*
X2100397Y-5050553D01*
X2081546Y-5044835D01*
X2064174Y-5035549D01*
X2064174Y-5035549D01*
X2048947Y-5023053D01*
X2036451Y-5007826D01*
X2027165Y-4990454D01*
X2021447Y-4971603D01*
X2019516Y-4952000D01*
X2021447Y-4932397D01*
X2027165Y-4913546D01*
X2036451Y-4896174D01*
X2048947Y-4880947D01*
X2064174Y-4868451D01*
X2081546Y-4859165D01*
X2081546Y-4859165D01*
X2100397Y-4853447D01*
X2100397Y-4853447D01*
X2100397Y-4853447D01*
X2115088Y-4852000D01*
X2204912Y-4852000D01*
X2219603Y-4853447D01*
X2219603Y-4853447D01*
G37*
G36*
X1639000Y-5007000D02*
X1539000Y-5007000D01*
X1539000Y-4897000D01*
X1639000Y-4897000D01*
X1639000Y-5007000D01*
X1639000Y-5007000D01*
G37*
G36*
X1829000Y-5007000D02*
X1729000Y-5007000D01*
X1729000Y-4897000D01*
X1829000Y-4897000D01*
X1829000Y-5007000D01*
X1829000Y-5007000D01*
G37*
G36*
X1734000Y-4807000D02*
X1634000Y-4807000D01*
X1634000Y-4697000D01*
X1734000Y-4697000D01*
X1734000Y-4807000D01*
X1734000Y-4807000D01*
G37*
G36*
X2219603Y-4599447D02*
X2219603Y-4599447D01*
X2219603Y-4599447D01*
X2238454Y-4605165D01*
X2238454Y-4605165D01*
X2255826Y-4614451D01*
X2271053Y-4626947D01*
X2283549Y-4642174D01*
X2292835Y-4659546D01*
X2298553Y-4678397D01*
X2300484Y-4698000D01*
X2298553Y-4717603D01*
X2292835Y-4736454D01*
X2283549Y-4753826D01*
X2271053Y-4769053D01*
X2255826Y-4781549D01*
X2255826Y-4781549D01*
X2238454Y-4790835D01*
X2219603Y-4796553D01*
X2219603Y-4796553D01*
X2219603Y-4796553D01*
X2204912Y-4798000D01*
X2115088Y-4798000D01*
X2100397Y-4796553D01*
X2100397Y-4796553D01*
X2100397Y-4796553D01*
X2081546Y-4790835D01*
X2064174Y-4781549D01*
X2064174Y-4781549D01*
X2048947Y-4769053D01*
X2036451Y-4753826D01*
X2027165Y-4736454D01*
X2021447Y-4717603D01*
X2019516Y-4698000D01*
X2021447Y-4678397D01*
X2027165Y-4659546D01*
X2036451Y-4642174D01*
X2048947Y-4626947D01*
X2064174Y-4614451D01*
X2081546Y-4605165D01*
X2081546Y-4605165D01*
X2100397Y-4599447D01*
X2100397Y-4599447D01*
X2100397Y-4599447D01*
X2115088Y-4598000D01*
X2204912Y-4598000D01*
X2219603Y-4599447D01*
X2219603Y-4599447D01*
G37*
G36*
X8677086Y-4539227D02*
X8697104Y-4547519D01*
X8715121Y-4559558D01*
X8730442Y-4574879D01*
X8730442Y-4574879D01*
X8730443Y-4574879D01*
X8734843Y-4581466D01*
X8742481Y-4592896D01*
X8750773Y-4612914D01*
X8755000Y-4634166D01*
X8755000Y-4655834D01*
X8750773Y-4677086D01*
X8742481Y-4697104D01*
X8742481Y-4697105D01*
X8739210Y-4702000D01*
X8730442Y-4715121D01*
X8715121Y-4730442D01*
X8697104Y-4742481D01*
X8677086Y-4750773D01*
X8655834Y-4755000D01*
X8634166Y-4755000D01*
X8612914Y-4750773D01*
X8592896Y-4742481D01*
X8574879Y-4730442D01*
X8559558Y-4715121D01*
X8550791Y-4702000D01*
X8547519Y-4697105D01*
X8547519Y-4697104D01*
X8539227Y-4677086D01*
X8535000Y-4655834D01*
X8535000Y-4634166D01*
X8539227Y-4612914D01*
X8547519Y-4592896D01*
X8555157Y-4581466D01*
X8559558Y-4574879D01*
X8559558Y-4574879D01*
X8559558Y-4574879D01*
X8574879Y-4559558D01*
X8592896Y-4547519D01*
X8612914Y-4539227D01*
X8634166Y-4535000D01*
X8655834Y-4535000D01*
X8677086Y-4539227D01*
X8677086Y-4539227D01*
G37*
G36*
X9177086Y-4539227D02*
X9197104Y-4547519D01*
X9215121Y-4559558D01*
X9230442Y-4574879D01*
X9230442Y-4574879D01*
X9230443Y-4574879D01*
X9234843Y-4581466D01*
X9242481Y-4592896D01*
X9250773Y-4612914D01*
X9255000Y-4634166D01*
X9255000Y-4655834D01*
X9250773Y-4677086D01*
X9242481Y-4697104D01*
X9242481Y-4697105D01*
X9239210Y-4702000D01*
X9230442Y-4715121D01*
X9215121Y-4730442D01*
X9197104Y-4742481D01*
X9177086Y-4750773D01*
X9155834Y-4755000D01*
X9134166Y-4755000D01*
X9112914Y-4750773D01*
X9092896Y-4742481D01*
X9074879Y-4730442D01*
X9059558Y-4715121D01*
X9050791Y-4702000D01*
X9047519Y-4697105D01*
X9047519Y-4697104D01*
X9039227Y-4677086D01*
X9035000Y-4655834D01*
X9035000Y-4634166D01*
X9039227Y-4612914D01*
X9047519Y-4592896D01*
X9055157Y-4581466D01*
X9059558Y-4574879D01*
X9059558Y-4574879D01*
X9059558Y-4574879D01*
X9074879Y-4559558D01*
X9092896Y-4547519D01*
X9112914Y-4539227D01*
X9134166Y-4535000D01*
X9155834Y-4535000D01*
X9177086Y-4539227D01*
X9177086Y-4539227D01*
G37*
G36*
X774645Y-4540187D02*
X781623Y-4540875D01*
X790577Y-4543591D01*
X799531Y-4546307D01*
X816035Y-4555128D01*
X830500Y-4567000D01*
X842372Y-4581465D01*
X851193Y-4597969D01*
X853376Y-4605165D01*
X856625Y-4615877D01*
X858460Y-4634500D01*
X856625Y-4653123D01*
X855803Y-4655834D01*
X851193Y-4671031D01*
X842372Y-4687535D01*
X830500Y-4702000D01*
X816035Y-4713872D01*
X799531Y-4722693D01*
X790577Y-4725409D01*
X781623Y-4728125D01*
X767667Y-4729500D01*
X758333Y-4729500D01*
X744377Y-4728125D01*
X735423Y-4725409D01*
X726469Y-4722693D01*
X709965Y-4713872D01*
X695500Y-4702000D01*
X683628Y-4687535D01*
X674807Y-4671031D01*
X670197Y-4655834D01*
X669375Y-4653123D01*
X667540Y-4634500D01*
X669375Y-4615877D01*
X672624Y-4605165D01*
X674807Y-4597969D01*
X683628Y-4581465D01*
X695500Y-4567000D01*
X709965Y-4555128D01*
X726469Y-4546307D01*
X735423Y-4543591D01*
X744377Y-4540875D01*
X751355Y-4540187D01*
X758333Y-4539500D01*
X767667Y-4539500D01*
X774645Y-4540187D01*
X774645Y-4540187D01*
G37*
G36*
X2219603Y-4345447D02*
X2219603Y-4345447D01*
X2219603Y-4345447D01*
X2238454Y-4351165D01*
X2238454Y-4351165D01*
X2255826Y-4360451D01*
X2271053Y-4372947D01*
X2283549Y-4388174D01*
X2292835Y-4405546D01*
X2298553Y-4424397D01*
X2300484Y-4444000D01*
X2298553Y-4463603D01*
X2292835Y-4482454D01*
X2283549Y-4499826D01*
X2271053Y-4515053D01*
X2255826Y-4527549D01*
X2255826Y-4527549D01*
X2238454Y-4536835D01*
X2219603Y-4542553D01*
X2219603Y-4542553D01*
X2219603Y-4542553D01*
X2204912Y-4544000D01*
X2115088Y-4544000D01*
X2100397Y-4542553D01*
X2100397Y-4542553D01*
X2100397Y-4542553D01*
X2081546Y-4536835D01*
X2064174Y-4527549D01*
X2064174Y-4527549D01*
X2048947Y-4515053D01*
X2036451Y-4499826D01*
X2027165Y-4482454D01*
X2021447Y-4463603D01*
X2019516Y-4444000D01*
X2021447Y-4424397D01*
X2027165Y-4405546D01*
X2036451Y-4388174D01*
X2048947Y-4372947D01*
X2064174Y-4360451D01*
X2081546Y-4351165D01*
X2081546Y-4351165D01*
X2100397Y-4345447D01*
X2100397Y-4345447D01*
X2100397Y-4345447D01*
X2115088Y-4344000D01*
X2204912Y-4344000D01*
X2219603Y-4345447D01*
X2219603Y-4345447D01*
G37*
G36*
X781623Y-4286875D02*
X790577Y-4289591D01*
X799531Y-4292307D01*
X816035Y-4301128D01*
X830500Y-4313000D01*
X842372Y-4327465D01*
X851193Y-4343969D01*
X853376Y-4351165D01*
X856193Y-4360451D01*
X856625Y-4361877D01*
X858460Y-4380500D01*
X856625Y-4399123D01*
X851193Y-4417031D01*
X842372Y-4433535D01*
X830500Y-4448000D01*
X816035Y-4459872D01*
X799531Y-4468693D01*
X790577Y-4471409D01*
X781623Y-4474125D01*
X767667Y-4475500D01*
X758333Y-4475500D01*
X744377Y-4474125D01*
X735423Y-4471409D01*
X726469Y-4468693D01*
X709965Y-4459872D01*
X695500Y-4448000D01*
X683628Y-4433535D01*
X674807Y-4417031D01*
X669375Y-4399123D01*
X667540Y-4380500D01*
X669375Y-4361877D01*
X669807Y-4360451D01*
X672624Y-4351165D01*
X674807Y-4343969D01*
X683628Y-4327465D01*
X695500Y-4313000D01*
X709965Y-4301128D01*
X726469Y-4292307D01*
X735423Y-4289591D01*
X744377Y-4286875D01*
X758333Y-4285500D01*
X767667Y-4285500D01*
X781623Y-4286875D01*
X781623Y-4286875D01*
G37*
G36*
X2219603Y-4091447D02*
X2219603Y-4091447D01*
X2219603Y-4091447D01*
X2238454Y-4097165D01*
X2238454Y-4097165D01*
X2255826Y-4106451D01*
X2271053Y-4118947D01*
X2283549Y-4134174D01*
X2292835Y-4151546D01*
X2298553Y-4170397D01*
X2300484Y-4190000D01*
X2298553Y-4209603D01*
X2292835Y-4228454D01*
X2283549Y-4245826D01*
X2271053Y-4261053D01*
X2255826Y-4273549D01*
X2255826Y-4273549D01*
X2238454Y-4282835D01*
X2219603Y-4288553D01*
X2219603Y-4288553D01*
X2219603Y-4288553D01*
X2204912Y-4290000D01*
X2115088Y-4290000D01*
X2100397Y-4288553D01*
X2100397Y-4288553D01*
X2100397Y-4288553D01*
X2081546Y-4282835D01*
X2064174Y-4273549D01*
X2064174Y-4273549D01*
X2048947Y-4261053D01*
X2036451Y-4245826D01*
X2027165Y-4228454D01*
X2021447Y-4209603D01*
X2019516Y-4190000D01*
X2021447Y-4170397D01*
X2027165Y-4151546D01*
X2036451Y-4134174D01*
X2048947Y-4118947D01*
X2064174Y-4106451D01*
X2081546Y-4097165D01*
X2081546Y-4097165D01*
X2100397Y-4091447D01*
X2100397Y-4091447D01*
X2100397Y-4091447D01*
X2115088Y-4090000D01*
X2204912Y-4090000D01*
X2219603Y-4091447D01*
X2219603Y-4091447D01*
G37*
G36*
X781623Y-4032875D02*
X790577Y-4035591D01*
X799531Y-4038307D01*
X816035Y-4047128D01*
X830500Y-4059000D01*
X842372Y-4073465D01*
X851193Y-4089969D01*
X853376Y-4097165D01*
X856193Y-4106451D01*
X856625Y-4107877D01*
X858460Y-4126500D01*
X856625Y-4145123D01*
X851193Y-4163031D01*
X842372Y-4179535D01*
X830500Y-4194000D01*
X816035Y-4205872D01*
X799531Y-4214693D01*
X790577Y-4217409D01*
X781623Y-4220125D01*
X767667Y-4221500D01*
X758333Y-4221500D01*
X744377Y-4220125D01*
X735423Y-4217409D01*
X726469Y-4214693D01*
X709965Y-4205872D01*
X695500Y-4194000D01*
X683628Y-4179535D01*
X674807Y-4163031D01*
X669375Y-4145123D01*
X667540Y-4126500D01*
X669375Y-4107877D01*
X669807Y-4106451D01*
X672624Y-4097165D01*
X674807Y-4089969D01*
X683628Y-4073465D01*
X695500Y-4059000D01*
X709965Y-4047128D01*
X726469Y-4038307D01*
X735423Y-4035591D01*
X744377Y-4032875D01*
X758333Y-4031500D01*
X767667Y-4031500D01*
X781623Y-4032875D01*
X781623Y-4032875D01*
G37*
G36*
X2219603Y-3837447D02*
X2219603Y-3837447D01*
X2219603Y-3837447D01*
X2238454Y-3843165D01*
X2238454Y-3843165D01*
X2255826Y-3852451D01*
X2271053Y-3864947D01*
X2283549Y-3880174D01*
X2292835Y-3897546D01*
X2298553Y-3916397D01*
X2300484Y-3936000D01*
X2298553Y-3955603D01*
X2292835Y-3974454D01*
X2283549Y-3991826D01*
X2271053Y-4007053D01*
X2255826Y-4019549D01*
X2255826Y-4019549D01*
X2238454Y-4028835D01*
X2219603Y-4034553D01*
X2219603Y-4034553D01*
X2219603Y-4034553D01*
X2204912Y-4036000D01*
X2115088Y-4036000D01*
X2100397Y-4034553D01*
X2100397Y-4034553D01*
X2100397Y-4034553D01*
X2081546Y-4028835D01*
X2064174Y-4019549D01*
X2064174Y-4019549D01*
X2048947Y-4007053D01*
X2036451Y-3991826D01*
X2027165Y-3974454D01*
X2021447Y-3955603D01*
X2019516Y-3936000D01*
X2021447Y-3916397D01*
X2027165Y-3897546D01*
X2036451Y-3880174D01*
X2048947Y-3864947D01*
X2064174Y-3852451D01*
X2081546Y-3843165D01*
X2081546Y-3843165D01*
X2100397Y-3837447D01*
X2100397Y-3837447D01*
X2100397Y-3837447D01*
X2115088Y-3836000D01*
X2204912Y-3836000D01*
X2219603Y-3837447D01*
X2219603Y-3837447D01*
G37*
G36*
X781623Y-3778875D02*
X790577Y-3781591D01*
X799531Y-3784307D01*
X816035Y-3793128D01*
X830500Y-3805000D01*
X842372Y-3819465D01*
X851193Y-3835969D01*
X853376Y-3843165D01*
X856193Y-3852451D01*
X856625Y-3853877D01*
X858460Y-3872500D01*
X856625Y-3891123D01*
X851193Y-3909031D01*
X842372Y-3925535D01*
X830500Y-3940000D01*
X816035Y-3951872D01*
X799531Y-3960693D01*
X790577Y-3963409D01*
X781623Y-3966125D01*
X767667Y-3967500D01*
X758333Y-3967500D01*
X744377Y-3966125D01*
X735423Y-3963409D01*
X726469Y-3960693D01*
X709965Y-3951872D01*
X695500Y-3940000D01*
X683628Y-3925535D01*
X674807Y-3909031D01*
X669375Y-3891123D01*
X667540Y-3872500D01*
X669375Y-3853877D01*
X669807Y-3852451D01*
X672624Y-3843165D01*
X674807Y-3835969D01*
X683628Y-3819465D01*
X695500Y-3805000D01*
X709965Y-3793128D01*
X726469Y-3784307D01*
X735423Y-3781591D01*
X744377Y-3778875D01*
X758333Y-3777500D01*
X767667Y-3777500D01*
X781623Y-3778875D01*
X781623Y-3778875D01*
G37*
G36*
X2219603Y-3583447D02*
X2219603Y-3583447D01*
X2219603Y-3583447D01*
X2238454Y-3589165D01*
X2238454Y-3589165D01*
X2255826Y-3598451D01*
X2271053Y-3610947D01*
X2283549Y-3626174D01*
X2292835Y-3643546D01*
X2298553Y-3662397D01*
X2300484Y-3682000D01*
X2298553Y-3701603D01*
X2298553Y-3701603D01*
X2298553Y-3701603D01*
X2292956Y-3720054D01*
X2292835Y-3720454D01*
X2283549Y-3737826D01*
X2271053Y-3753053D01*
X2255826Y-3765549D01*
X2255826Y-3765549D01*
X2238454Y-3774835D01*
X2219603Y-3780553D01*
X2219603Y-3780553D01*
X2219603Y-3780553D01*
X2204912Y-3782000D01*
X2115088Y-3782000D01*
X2100397Y-3780553D01*
X2100397Y-3780553D01*
X2100397Y-3780553D01*
X2081546Y-3774835D01*
X2064174Y-3765549D01*
X2064174Y-3765549D01*
X2048947Y-3753053D01*
X2036451Y-3737826D01*
X2027165Y-3720454D01*
X2027044Y-3720054D01*
X2021447Y-3701603D01*
X2021447Y-3701603D01*
X2021447Y-3701603D01*
X2019516Y-3682000D01*
X2021447Y-3662397D01*
X2027165Y-3643546D01*
X2036451Y-3626174D01*
X2048947Y-3610947D01*
X2064174Y-3598451D01*
X2081546Y-3589165D01*
X2081546Y-3589165D01*
X2100397Y-3583447D01*
X2100397Y-3583447D01*
X2100397Y-3583447D01*
X2115088Y-3582000D01*
X2204912Y-3582000D01*
X2219603Y-3583447D01*
X2219603Y-3583447D01*
G37*
G36*
X2539553Y-3590487D02*
X2543722Y-3591752D01*
X2547563Y-3593805D01*
X2550931Y-3596569D01*
X2553695Y-3599937D01*
X2555748Y-3603778D01*
X2557013Y-3607947D01*
X2557500Y-3612896D01*
X2557500Y-3702104D01*
X2557013Y-3707053D01*
X2555748Y-3711222D01*
X2553695Y-3715063D01*
X2550931Y-3718431D01*
X2547563Y-3721195D01*
X2543722Y-3723248D01*
X2539553Y-3724513D01*
X2534604Y-3725000D01*
X2420396Y-3725000D01*
X2415447Y-3724513D01*
X2411278Y-3723248D01*
X2407437Y-3721195D01*
X2404069Y-3718431D01*
X2401305Y-3715063D01*
X2399252Y-3711222D01*
X2397987Y-3707053D01*
X2397500Y-3702104D01*
X2397500Y-3612896D01*
X2397987Y-3607947D01*
X2399252Y-3603778D01*
X2401305Y-3599937D01*
X2404069Y-3596569D01*
X2407437Y-3593805D01*
X2411278Y-3591752D01*
X2415447Y-3590487D01*
X2420396Y-3590000D01*
X2534604Y-3590000D01*
X2539553Y-3590487D01*
X2539553Y-3590487D01*
G37*
G36*
X858000Y-3713500D02*
X668000Y-3713500D01*
X668000Y-3523500D01*
X858000Y-3523500D01*
X858000Y-3713500D01*
X858000Y-3713500D01*
G37*
G36*
X2219603Y-3329447D02*
X2219603Y-3329447D01*
X2219603Y-3329447D01*
X2238454Y-3335165D01*
X2238454Y-3335165D01*
X2255826Y-3344451D01*
X2271053Y-3356947D01*
X2283549Y-3372174D01*
X2283549Y-3372174D01*
X2292835Y-3389546D01*
X2298553Y-3408397D01*
X2298553Y-3408397D01*
X2300484Y-3428000D01*
X2298553Y-3447603D01*
X2292835Y-3466454D01*
X2283549Y-3483826D01*
X2271053Y-3499053D01*
X2255826Y-3511549D01*
X2240016Y-3520000D01*
X2238454Y-3520835D01*
X2219603Y-3526553D01*
X2219603Y-3526553D01*
X2219603Y-3526553D01*
X2204912Y-3528000D01*
X2115088Y-3528000D01*
X2100397Y-3526553D01*
X2100397Y-3526553D01*
X2100397Y-3526553D01*
X2081546Y-3520835D01*
X2079984Y-3520000D01*
X2064174Y-3511549D01*
X2048947Y-3499053D01*
X2036451Y-3483826D01*
X2027165Y-3466454D01*
X2021447Y-3447603D01*
X2019516Y-3428000D01*
X2021447Y-3408397D01*
X2021447Y-3408397D01*
X2027165Y-3389546D01*
X2036451Y-3372174D01*
X2036451Y-3372174D01*
X2048947Y-3356947D01*
X2064174Y-3344451D01*
X2081546Y-3335165D01*
X2081546Y-3335165D01*
X2100397Y-3329447D01*
X2100397Y-3329447D01*
X2100397Y-3329447D01*
X2115088Y-3328000D01*
X2204912Y-3328000D01*
X2219603Y-3329447D01*
X2219603Y-3329447D01*
G37*
G36*
X2539553Y-3385487D02*
X2543722Y-3386752D01*
X2547563Y-3388805D01*
X2550931Y-3391569D01*
X2553695Y-3394937D01*
X2555748Y-3398778D01*
X2557013Y-3402947D01*
X2557500Y-3407896D01*
X2557500Y-3497104D01*
X2557013Y-3502053D01*
X2555748Y-3506222D01*
X2553695Y-3510063D01*
X2550931Y-3513431D01*
X2547563Y-3516195D01*
X2543722Y-3518248D01*
X2539553Y-3519513D01*
X2534604Y-3520000D01*
X2420396Y-3520000D01*
X2415447Y-3519513D01*
X2411278Y-3518248D01*
X2407437Y-3516195D01*
X2404069Y-3513431D01*
X2401305Y-3510063D01*
X2399252Y-3506222D01*
X2397987Y-3502053D01*
X2397500Y-3497104D01*
X2397500Y-3407896D01*
X2397987Y-3402947D01*
X2399252Y-3398778D01*
X2401305Y-3394937D01*
X2404069Y-3391569D01*
X2407437Y-3388805D01*
X2411278Y-3386752D01*
X2415447Y-3385487D01*
X2420396Y-3385000D01*
X2534604Y-3385000D01*
X2539553Y-3385487D01*
X2539553Y-3385487D01*
G37*
G36*
X1159255Y-2616570D02*
X1197472Y-2632400D01*
X1197472Y-2632400D01*
X1231867Y-2655382D01*
X1261118Y-2684633D01*
X1276439Y-2707563D01*
X1284100Y-2719028D01*
X1299930Y-2757245D01*
X1308000Y-2797817D01*
X1308000Y-2839183D01*
X1299930Y-2879755D01*
X1284100Y-2917972D01*
X1284100Y-2917972D01*
X1261118Y-2952367D01*
X1231867Y-2981618D01*
X1208937Y-2996939D01*
X1197472Y-3004600D01*
X1159255Y-3020430D01*
X1118683Y-3028500D01*
X1077317Y-3028500D01*
X1036745Y-3020430D01*
X998528Y-3004600D01*
X987063Y-2996939D01*
X964133Y-2981618D01*
X934882Y-2952367D01*
X911900Y-2917972D01*
X911900Y-2917972D01*
X896070Y-2879755D01*
X888000Y-2839183D01*
X888000Y-2797817D01*
X896070Y-2757245D01*
X911900Y-2719028D01*
X919561Y-2707563D01*
X934882Y-2684633D01*
X964133Y-2655382D01*
X998528Y-2632400D01*
X998528Y-2632400D01*
X1036745Y-2616570D01*
X1077317Y-2608500D01*
X1118683Y-2608500D01*
X1159255Y-2616570D01*
X1159255Y-2616570D01*
G37*
G36*
X1613000Y-2563500D02*
X1183000Y-2563500D01*
X1183000Y-2133500D01*
X1613000Y-2133500D01*
X1613000Y-2563500D01*
X1613000Y-2563500D01*
G37*
G36*
X859255Y-2146570D02*
X897472Y-2162400D01*
X897472Y-2162400D01*
X931867Y-2185382D01*
X961118Y-2214633D01*
X976439Y-2237563D01*
X984100Y-2249028D01*
X999930Y-2287245D01*
X1008000Y-2327817D01*
X1008000Y-2369183D01*
X999930Y-2409755D01*
X984100Y-2447972D01*
X984100Y-2447972D01*
X961118Y-2482367D01*
X931867Y-2511618D01*
X908937Y-2526939D01*
X897472Y-2534600D01*
X859255Y-2550430D01*
X818683Y-2558500D01*
X777317Y-2558500D01*
X736745Y-2550430D01*
X698528Y-2534600D01*
X687063Y-2526939D01*
X664133Y-2511618D01*
X634882Y-2482367D01*
X611900Y-2447972D01*
X611900Y-2447972D01*
X596070Y-2409755D01*
X588000Y-2369183D01*
X588000Y-2327817D01*
X596070Y-2287245D01*
X611900Y-2249028D01*
X619561Y-2237563D01*
X634882Y-2214633D01*
X664133Y-2185382D01*
X698528Y-2162400D01*
X698528Y-2162400D01*
X736745Y-2146570D01*
X777317Y-2138500D01*
X818683Y-2138500D01*
X859255Y-2146570D01*
X859255Y-2146570D01*
G37*
G36*
X8669086Y-2306227D02*
X8689104Y-2314519D01*
X8707121Y-2326558D01*
X8722442Y-2341879D01*
X8734481Y-2359896D01*
X8742773Y-2379914D01*
X8747000Y-2401166D01*
X8747000Y-2422834D01*
X8742773Y-2444086D01*
X8734481Y-2464104D01*
X8722442Y-2482121D01*
X8707121Y-2497442D01*
X8689104Y-2509481D01*
X8669086Y-2517773D01*
X8647834Y-2522000D01*
X8626166Y-2522000D01*
X8604914Y-2517773D01*
X8584896Y-2509481D01*
X8566879Y-2497442D01*
X8551558Y-2482121D01*
X8539519Y-2464104D01*
X8531227Y-2444086D01*
X8527000Y-2422834D01*
X8527000Y-2401166D01*
X8531227Y-2379914D01*
X8539519Y-2359896D01*
X8551558Y-2341879D01*
X8566879Y-2326558D01*
X8584896Y-2314519D01*
X8604914Y-2306227D01*
X8626166Y-2302000D01*
X8647834Y-2302000D01*
X8669086Y-2306227D01*
X8669086Y-2306227D01*
G37*
G36*
X9119086Y-2306227D02*
X9139104Y-2314519D01*
X9157121Y-2326558D01*
X9172442Y-2341879D01*
X9184481Y-2359896D01*
X9192773Y-2379914D01*
X9197000Y-2401166D01*
X9197000Y-2422834D01*
X9192773Y-2444086D01*
X9184481Y-2464104D01*
X9172442Y-2482121D01*
X9157121Y-2497442D01*
X9139104Y-2509481D01*
X9119086Y-2517773D01*
X9097834Y-2522000D01*
X9076166Y-2522000D01*
X9054914Y-2517773D01*
X9034896Y-2509481D01*
X9016879Y-2497442D01*
X9001558Y-2482121D01*
X8989519Y-2464104D01*
X8981227Y-2444086D01*
X8977000Y-2422834D01*
X8977000Y-2401166D01*
X8981227Y-2379914D01*
X8989519Y-2359896D01*
X9001558Y-2341879D01*
X9016879Y-2326558D01*
X9034896Y-2314519D01*
X9054914Y-2306227D01*
X9076166Y-2302000D01*
X9097834Y-2302000D01*
X9119086Y-2306227D01*
X9119086Y-2306227D01*
G37*
G36*
X9119086Y-1656227D02*
X9139104Y-1664519D01*
X9157121Y-1676558D01*
X9172442Y-1691879D01*
X9184481Y-1709896D01*
X9192773Y-1729914D01*
X9197000Y-1751166D01*
X9197000Y-1772834D01*
X9192773Y-1794086D01*
X9184481Y-1814104D01*
X9172442Y-1832121D01*
X9157121Y-1847442D01*
X9139104Y-1859481D01*
X9119086Y-1867773D01*
X9097834Y-1872000D01*
X9076166Y-1872000D01*
X9054914Y-1867773D01*
X9034896Y-1859481D01*
X9016879Y-1847442D01*
X9001558Y-1832121D01*
X8989519Y-1814104D01*
X8981227Y-1794086D01*
X8977000Y-1772834D01*
X8977000Y-1751166D01*
X8981227Y-1729914D01*
X8989519Y-1709896D01*
X9001558Y-1691879D01*
X9016879Y-1676558D01*
X9034896Y-1664519D01*
X9054914Y-1656227D01*
X9076166Y-1652000D01*
X9097834Y-1652000D01*
X9119086Y-1656227D01*
X9119086Y-1656227D01*
G37*
G36*
X8669086Y-1656227D02*
X8689104Y-1664519D01*
X8707121Y-1676558D01*
X8722442Y-1691879D01*
X8734481Y-1709896D01*
X8742773Y-1729914D01*
X8747000Y-1751166D01*
X8747000Y-1772834D01*
X8742773Y-1794086D01*
X8734481Y-1814104D01*
X8722442Y-1832121D01*
X8707121Y-1847442D01*
X8689104Y-1859481D01*
X8669086Y-1867773D01*
X8647834Y-1872000D01*
X8626166Y-1872000D01*
X8604914Y-1867773D01*
X8584896Y-1859481D01*
X8566879Y-1847442D01*
X8551558Y-1832121D01*
X8539519Y-1814104D01*
X8531227Y-1794086D01*
X8527000Y-1772834D01*
X8527000Y-1751166D01*
X8531227Y-1729914D01*
X8539519Y-1709896D01*
X8551558Y-1691879D01*
X8566879Y-1676558D01*
X8584896Y-1664519D01*
X8604914Y-1656227D01*
X8626166Y-1652000D01*
X8647834Y-1652000D01*
X8669086Y-1656227D01*
X8669086Y-1656227D01*
G37*
G36*
X1218053Y-1570487D02*
X1222222Y-1571752D01*
X1226063Y-1573805D01*
X1229431Y-1576569D01*
X1232195Y-1579937D01*
X1234248Y-1583778D01*
X1235513Y-1587947D01*
X1236000Y-1592896D01*
X1236000Y-1707104D01*
X1235513Y-1712053D01*
X1234248Y-1716222D01*
X1232195Y-1720063D01*
X1229431Y-1723431D01*
X1226063Y-1726195D01*
X1222222Y-1728248D01*
X1218053Y-1729513D01*
X1213104Y-1730000D01*
X1123896Y-1730000D01*
X1118947Y-1729513D01*
X1114778Y-1728248D01*
X1110937Y-1726195D01*
X1107569Y-1723431D01*
X1104805Y-1720063D01*
X1102752Y-1716222D01*
X1101487Y-1712053D01*
X1101000Y-1707104D01*
X1101000Y-1592896D01*
X1101487Y-1587947D01*
X1102752Y-1583778D01*
X1104805Y-1579937D01*
X1107569Y-1576569D01*
X1110937Y-1573805D01*
X1114778Y-1571752D01*
X1118947Y-1570487D01*
X1123896Y-1570000D01*
X1213104Y-1570000D01*
X1218053Y-1570487D01*
X1218053Y-1570487D01*
G37*
G36*
X1423053Y-1570487D02*
X1427222Y-1571752D01*
X1431063Y-1573805D01*
X1434431Y-1576569D01*
X1437195Y-1579937D01*
X1439248Y-1583778D01*
X1440513Y-1587947D01*
X1441000Y-1592896D01*
X1441000Y-1707104D01*
X1440513Y-1712053D01*
X1439248Y-1716222D01*
X1437195Y-1720063D01*
X1434431Y-1723431D01*
X1431063Y-1726195D01*
X1427222Y-1728248D01*
X1423053Y-1729513D01*
X1418104Y-1730000D01*
X1328896Y-1730000D01*
X1323947Y-1729513D01*
X1319778Y-1728248D01*
X1315937Y-1726195D01*
X1312569Y-1723431D01*
X1309805Y-1720063D01*
X1307752Y-1716222D01*
X1306487Y-1712053D01*
X1306000Y-1707104D01*
X1306000Y-1592896D01*
X1306487Y-1587947D01*
X1307752Y-1583778D01*
X1309805Y-1579937D01*
X1312569Y-1576569D01*
X1315937Y-1573805D01*
X1319778Y-1571752D01*
X1323947Y-1570487D01*
X1328896Y-1570000D01*
X1418104Y-1570000D01*
X1423053Y-1570487D01*
X1423053Y-1570487D01*
G37*
G36*
X6745945Y-1047913D02*
X6759710Y-1050651D01*
X6776999Y-1057812D01*
X6792559Y-1068209D01*
X6805791Y-1081441D01*
X6816188Y-1097001D01*
X6823349Y-1114290D01*
X6827000Y-1132643D01*
X6827000Y-1151357D01*
X6823349Y-1169711D01*
X6816188Y-1186999D01*
X6805791Y-1202559D01*
X6792559Y-1215791D01*
X6776999Y-1226188D01*
X6759710Y-1233349D01*
X6745945Y-1236087D01*
X6741357Y-1237000D01*
X6722643Y-1237000D01*
X6718055Y-1236087D01*
X6704289Y-1233349D01*
X6687001Y-1226188D01*
X6671441Y-1215791D01*
X6658209Y-1202559D01*
X6647812Y-1186999D01*
X6640651Y-1169711D01*
X6637000Y-1151357D01*
X6637000Y-1132643D01*
X6640651Y-1114290D01*
X6647812Y-1097001D01*
X6658209Y-1081441D01*
X6671441Y-1068209D01*
X6687001Y-1057812D01*
X6704289Y-1050651D01*
X6718055Y-1047913D01*
X6722643Y-1047000D01*
X6741357Y-1047000D01*
X6745945Y-1047913D01*
X6745945Y-1047913D01*
G37*
G36*
X7253945Y-1047913D02*
X7267710Y-1050651D01*
X7284999Y-1057812D01*
X7300559Y-1068209D01*
X7313791Y-1081441D01*
X7324188Y-1097001D01*
X7331349Y-1114290D01*
X7335000Y-1132643D01*
X7335000Y-1151357D01*
X7331349Y-1169711D01*
X7324188Y-1186999D01*
X7313791Y-1202559D01*
X7300559Y-1215791D01*
X7284999Y-1226188D01*
X7267710Y-1233349D01*
X7253945Y-1236087D01*
X7249357Y-1237000D01*
X7230643Y-1237000D01*
X7226055Y-1236087D01*
X7212289Y-1233349D01*
X7195001Y-1226188D01*
X7179441Y-1215791D01*
X7166209Y-1202559D01*
X7155812Y-1186999D01*
X7148651Y-1169711D01*
X7145000Y-1151357D01*
X7145000Y-1132643D01*
X7148651Y-1114290D01*
X7155812Y-1097001D01*
X7166209Y-1081441D01*
X7179441Y-1068209D01*
X7195001Y-1057812D01*
X7212289Y-1050651D01*
X7226055Y-1047913D01*
X7230643Y-1047000D01*
X7249357Y-1047000D01*
X7253945Y-1047913D01*
X7253945Y-1047913D01*
G37*
G36*
X7507945Y-1047913D02*
X7521710Y-1050651D01*
X7538999Y-1057812D01*
X7554559Y-1068209D01*
X7567791Y-1081441D01*
X7578188Y-1097001D01*
X7585349Y-1114290D01*
X7589000Y-1132643D01*
X7589000Y-1151357D01*
X7585349Y-1169711D01*
X7578188Y-1186999D01*
X7567791Y-1202559D01*
X7554559Y-1215791D01*
X7538999Y-1226188D01*
X7521710Y-1233349D01*
X7507945Y-1236087D01*
X7503357Y-1237000D01*
X7484643Y-1237000D01*
X7480055Y-1236087D01*
X7466289Y-1233349D01*
X7449001Y-1226188D01*
X7433441Y-1215791D01*
X7420209Y-1202559D01*
X7409812Y-1186999D01*
X7402651Y-1169711D01*
X7399000Y-1151357D01*
X7399000Y-1132643D01*
X7402651Y-1114290D01*
X7409812Y-1097001D01*
X7420209Y-1081441D01*
X7433441Y-1068209D01*
X7449001Y-1057812D01*
X7466289Y-1050651D01*
X7480055Y-1047913D01*
X7484643Y-1047000D01*
X7503357Y-1047000D01*
X7507945Y-1047913D01*
X7507945Y-1047913D01*
G37*
G36*
X7761945Y-1047913D02*
X7775710Y-1050651D01*
X7792999Y-1057812D01*
X7808559Y-1068209D01*
X7821791Y-1081441D01*
X7832188Y-1097001D01*
X7839349Y-1114290D01*
X7843000Y-1132643D01*
X7843000Y-1151357D01*
X7839349Y-1169711D01*
X7832188Y-1186999D01*
X7821791Y-1202559D01*
X7808559Y-1215791D01*
X7792999Y-1226188D01*
X7775710Y-1233349D01*
X7761945Y-1236087D01*
X7757357Y-1237000D01*
X7738643Y-1237000D01*
X7734055Y-1236087D01*
X7720289Y-1233349D01*
X7703001Y-1226188D01*
X7687441Y-1215791D01*
X7674209Y-1202559D01*
X7663812Y-1186999D01*
X7656651Y-1169711D01*
X7653000Y-1151357D01*
X7653000Y-1132643D01*
X7656651Y-1114290D01*
X7663812Y-1097001D01*
X7674209Y-1081441D01*
X7687441Y-1068209D01*
X7703001Y-1057812D01*
X7720289Y-1050651D01*
X7734055Y-1047913D01*
X7738643Y-1047000D01*
X7757357Y-1047000D01*
X7761945Y-1047913D01*
X7761945Y-1047913D01*
G37*
G36*
X6999945Y-1047913D02*
X7013710Y-1050651D01*
X7030999Y-1057812D01*
X7046559Y-1068209D01*
X7059791Y-1081441D01*
X7070188Y-1097001D01*
X7077349Y-1114290D01*
X7081000Y-1132643D01*
X7081000Y-1151357D01*
X7077349Y-1169711D01*
X7070188Y-1186999D01*
X7059791Y-1202559D01*
X7046559Y-1215791D01*
X7030999Y-1226188D01*
X7013710Y-1233349D01*
X6999945Y-1236087D01*
X6995357Y-1237000D01*
X6976643Y-1237000D01*
X6972055Y-1236087D01*
X6958289Y-1233349D01*
X6941001Y-1226188D01*
X6925441Y-1215791D01*
X6912209Y-1202559D01*
X6901812Y-1186999D01*
X6894651Y-1169711D01*
X6891000Y-1151357D01*
X6891000Y-1132643D01*
X6894651Y-1114290D01*
X6901812Y-1097001D01*
X6912209Y-1081441D01*
X6925441Y-1068209D01*
X6941001Y-1057812D01*
X6958289Y-1050651D01*
X6972055Y-1047913D01*
X6976643Y-1047000D01*
X6995357Y-1047000D01*
X6999945Y-1047913D01*
X6999945Y-1047913D01*
G37*
G36*
X4713945Y-1047913D02*
X4727711Y-1050651D01*
X4744999Y-1057812D01*
X4760559Y-1068209D01*
X4773791Y-1081441D01*
X4784188Y-1097001D01*
X4791349Y-1114290D01*
X4795000Y-1132643D01*
X4795000Y-1151357D01*
X4791349Y-1169711D01*
X4784188Y-1186999D01*
X4773791Y-1202559D01*
X4760559Y-1215791D01*
X4744999Y-1226188D01*
X4727711Y-1233349D01*
X4713945Y-1236087D01*
X4709357Y-1237000D01*
X4690643Y-1237000D01*
X4686055Y-1236087D01*
X4672290Y-1233349D01*
X4655001Y-1226188D01*
X4639441Y-1215791D01*
X4626209Y-1202559D01*
X4615812Y-1186999D01*
X4608651Y-1169711D01*
X4605000Y-1151357D01*
X4605000Y-1132643D01*
X4608651Y-1114290D01*
X4615812Y-1097001D01*
X4626209Y-1081441D01*
X4639441Y-1068209D01*
X4655001Y-1057812D01*
X4672290Y-1050651D01*
X4686055Y-1047913D01*
X4690643Y-1047000D01*
X4709357Y-1047000D01*
X4713945Y-1047913D01*
X4713945Y-1047913D01*
G37*
G36*
X4459945Y-1047913D02*
X4473711Y-1050651D01*
X4490999Y-1057812D01*
X4506559Y-1068209D01*
X4519791Y-1081441D01*
X4530188Y-1097001D01*
X4537349Y-1114290D01*
X4541000Y-1132643D01*
X4541000Y-1151357D01*
X4537349Y-1169711D01*
X4530188Y-1186999D01*
X4519791Y-1202559D01*
X4506559Y-1215791D01*
X4490999Y-1226188D01*
X4473711Y-1233349D01*
X4459945Y-1236087D01*
X4455357Y-1237000D01*
X4436643Y-1237000D01*
X4432055Y-1236087D01*
X4418290Y-1233349D01*
X4401001Y-1226188D01*
X4385441Y-1215791D01*
X4372209Y-1202559D01*
X4361812Y-1186999D01*
X4354651Y-1169711D01*
X4351000Y-1151357D01*
X4351000Y-1132643D01*
X4354651Y-1114290D01*
X4361812Y-1097001D01*
X4372209Y-1081441D01*
X4385441Y-1068209D01*
X4401001Y-1057812D01*
X4418290Y-1050651D01*
X4432055Y-1047913D01*
X4436643Y-1047000D01*
X4455357Y-1047000D01*
X4459945Y-1047913D01*
X4459945Y-1047913D01*
G37*
G36*
X4967945Y-1047913D02*
X4981711Y-1050651D01*
X4998999Y-1057812D01*
X5014559Y-1068209D01*
X5027791Y-1081441D01*
X5038188Y-1097001D01*
X5045349Y-1114290D01*
X5049000Y-1132643D01*
X5049000Y-1151357D01*
X5045349Y-1169711D01*
X5038188Y-1186999D01*
X5027791Y-1202559D01*
X5014559Y-1215791D01*
X4998999Y-1226188D01*
X4981711Y-1233349D01*
X4967945Y-1236087D01*
X4963357Y-1237000D01*
X4944643Y-1237000D01*
X4940055Y-1236087D01*
X4926290Y-1233349D01*
X4909001Y-1226188D01*
X4893441Y-1215791D01*
X4880209Y-1202559D01*
X4869812Y-1186999D01*
X4862651Y-1169711D01*
X4859000Y-1151357D01*
X4859000Y-1132643D01*
X4862651Y-1114290D01*
X4869812Y-1097001D01*
X4880209Y-1081441D01*
X4893441Y-1068209D01*
X4909001Y-1057812D01*
X4926290Y-1050651D01*
X4940055Y-1047913D01*
X4944643Y-1047000D01*
X4963357Y-1047000D01*
X4967945Y-1047913D01*
X4967945Y-1047913D01*
G37*
G36*
X4205945Y-1047913D02*
X4219711Y-1050651D01*
X4236999Y-1057812D01*
X4252559Y-1068209D01*
X4265791Y-1081441D01*
X4276188Y-1097001D01*
X4283349Y-1114290D01*
X4287000Y-1132643D01*
X4287000Y-1151357D01*
X4283349Y-1169711D01*
X4276188Y-1186999D01*
X4265791Y-1202559D01*
X4252559Y-1215791D01*
X4236999Y-1226188D01*
X4219711Y-1233349D01*
X4205945Y-1236087D01*
X4201357Y-1237000D01*
X4182643Y-1237000D01*
X4178055Y-1236087D01*
X4164289Y-1233349D01*
X4147001Y-1226188D01*
X4131441Y-1215791D01*
X4118209Y-1202559D01*
X4107812Y-1186999D01*
X4100651Y-1169711D01*
X4097000Y-1151357D01*
X4097000Y-1132643D01*
X4100651Y-1114290D01*
X4107812Y-1097001D01*
X4118209Y-1081441D01*
X4131441Y-1068209D01*
X4147001Y-1057812D01*
X4164289Y-1050651D01*
X4178055Y-1047913D01*
X4182643Y-1047000D01*
X4201357Y-1047000D01*
X4205945Y-1047913D01*
X4205945Y-1047913D01*
G37*
G36*
X5221945Y-1047913D02*
X5235711Y-1050651D01*
X5252999Y-1057812D01*
X5268559Y-1068209D01*
X5281791Y-1081441D01*
X5292188Y-1097001D01*
X5299349Y-1114290D01*
X5303000Y-1132643D01*
X5303000Y-1151357D01*
X5299349Y-1169711D01*
X5292188Y-1186999D01*
X5281791Y-1202559D01*
X5268559Y-1215791D01*
X5252999Y-1226188D01*
X5235711Y-1233349D01*
X5221945Y-1236087D01*
X5217357Y-1237000D01*
X5198643Y-1237000D01*
X5194055Y-1236087D01*
X5180290Y-1233349D01*
X5163001Y-1226188D01*
X5147441Y-1215791D01*
X5134209Y-1202559D01*
X5123812Y-1186999D01*
X5116651Y-1169711D01*
X5113000Y-1151357D01*
X5113000Y-1132643D01*
X5116651Y-1114290D01*
X5123812Y-1097001D01*
X5134209Y-1081441D01*
X5147441Y-1068209D01*
X5163001Y-1057812D01*
X5180290Y-1050651D01*
X5194055Y-1047913D01*
X5198643Y-1047000D01*
X5217357Y-1047000D01*
X5221945Y-1047913D01*
X5221945Y-1047913D01*
G37*
G36*
X5729945Y-1047913D02*
X5743710Y-1050651D01*
X5760999Y-1057812D01*
X5776559Y-1068209D01*
X5789791Y-1081441D01*
X5800188Y-1097001D01*
X5807349Y-1114290D01*
X5811000Y-1132643D01*
X5811000Y-1151357D01*
X5807349Y-1169711D01*
X5800188Y-1186999D01*
X5789791Y-1202559D01*
X5776559Y-1215791D01*
X5760999Y-1226188D01*
X5743710Y-1233349D01*
X5729945Y-1236087D01*
X5725357Y-1237000D01*
X5706643Y-1237000D01*
X5702055Y-1236087D01*
X5688289Y-1233349D01*
X5671001Y-1226188D01*
X5655441Y-1215791D01*
X5642209Y-1202559D01*
X5631812Y-1186999D01*
X5624651Y-1169711D01*
X5621000Y-1151357D01*
X5621000Y-1132643D01*
X5624651Y-1114290D01*
X5631812Y-1097001D01*
X5642209Y-1081441D01*
X5655441Y-1068209D01*
X5671001Y-1057812D01*
X5688289Y-1050651D01*
X5702055Y-1047913D01*
X5706643Y-1047000D01*
X5725357Y-1047000D01*
X5729945Y-1047913D01*
X5729945Y-1047913D01*
G37*
G36*
X3189945Y-1047913D02*
X3203710Y-1050651D01*
X3220999Y-1057812D01*
X3236559Y-1068209D01*
X3249791Y-1081441D01*
X3260188Y-1097001D01*
X3267349Y-1114290D01*
X3271000Y-1132643D01*
X3271000Y-1151357D01*
X3267349Y-1169711D01*
X3260188Y-1186999D01*
X3249791Y-1202559D01*
X3236559Y-1215791D01*
X3220999Y-1226188D01*
X3203710Y-1233349D01*
X3189945Y-1236087D01*
X3185357Y-1237000D01*
X3166643Y-1237000D01*
X3162055Y-1236087D01*
X3148289Y-1233349D01*
X3131001Y-1226188D01*
X3115441Y-1215791D01*
X3102209Y-1202559D01*
X3091812Y-1186999D01*
X3084651Y-1169711D01*
X3081000Y-1151357D01*
X3081000Y-1132643D01*
X3084651Y-1114290D01*
X3091812Y-1097001D01*
X3102209Y-1081441D01*
X3115441Y-1068209D01*
X3131001Y-1057812D01*
X3148289Y-1050651D01*
X3162055Y-1047913D01*
X3166643Y-1047000D01*
X3185357Y-1047000D01*
X3189945Y-1047913D01*
X3189945Y-1047913D01*
G37*
G36*
X5983945Y-1047913D02*
X5997710Y-1050651D01*
X6014999Y-1057812D01*
X6030559Y-1068209D01*
X6043791Y-1081441D01*
X6054188Y-1097001D01*
X6061349Y-1114290D01*
X6065000Y-1132643D01*
X6065000Y-1151357D01*
X6061349Y-1169711D01*
X6054188Y-1186999D01*
X6043791Y-1202559D01*
X6030559Y-1215791D01*
X6014999Y-1226188D01*
X5997710Y-1233349D01*
X5983945Y-1236087D01*
X5979357Y-1237000D01*
X5960643Y-1237000D01*
X5956055Y-1236087D01*
X5942289Y-1233349D01*
X5925001Y-1226188D01*
X5909441Y-1215791D01*
X5896209Y-1202559D01*
X5885812Y-1186999D01*
X5878651Y-1169711D01*
X5875000Y-1151357D01*
X5875000Y-1132643D01*
X5878651Y-1114290D01*
X5885812Y-1097001D01*
X5896209Y-1081441D01*
X5909441Y-1068209D01*
X5925001Y-1057812D01*
X5942289Y-1050651D01*
X5956055Y-1047913D01*
X5960643Y-1047000D01*
X5979357Y-1047000D01*
X5983945Y-1047913D01*
X5983945Y-1047913D01*
G37*
G36*
X3443945Y-1047913D02*
X3457710Y-1050651D01*
X3474999Y-1057812D01*
X3490559Y-1068209D01*
X3503791Y-1081441D01*
X3514188Y-1097001D01*
X3521349Y-1114290D01*
X3525000Y-1132643D01*
X3525000Y-1151357D01*
X3521349Y-1169711D01*
X3514188Y-1186999D01*
X3503791Y-1202559D01*
X3490559Y-1215791D01*
X3474999Y-1226188D01*
X3457710Y-1233349D01*
X3443945Y-1236087D01*
X3439357Y-1237000D01*
X3420643Y-1237000D01*
X3416055Y-1236087D01*
X3402289Y-1233349D01*
X3385001Y-1226188D01*
X3369441Y-1215791D01*
X3356209Y-1202559D01*
X3345812Y-1186999D01*
X3338651Y-1169711D01*
X3335000Y-1151357D01*
X3335000Y-1132643D01*
X3338651Y-1114290D01*
X3345812Y-1097001D01*
X3356209Y-1081441D01*
X3369441Y-1068209D01*
X3385001Y-1057812D01*
X3402289Y-1050651D01*
X3416055Y-1047913D01*
X3420643Y-1047000D01*
X3439357Y-1047000D01*
X3443945Y-1047913D01*
X3443945Y-1047913D01*
G37*
G36*
X6237945Y-1047913D02*
X6251710Y-1050651D01*
X6268999Y-1057812D01*
X6284559Y-1068209D01*
X6297791Y-1081441D01*
X6308188Y-1097001D01*
X6315349Y-1114290D01*
X6319000Y-1132643D01*
X6319000Y-1151357D01*
X6315349Y-1169711D01*
X6308188Y-1186999D01*
X6297791Y-1202559D01*
X6284559Y-1215791D01*
X6268999Y-1226188D01*
X6251710Y-1233349D01*
X6237945Y-1236087D01*
X6233357Y-1237000D01*
X6214643Y-1237000D01*
X6210055Y-1236087D01*
X6196289Y-1233349D01*
X6179001Y-1226188D01*
X6163441Y-1215791D01*
X6150209Y-1202559D01*
X6139812Y-1186999D01*
X6132651Y-1169711D01*
X6129000Y-1151357D01*
X6129000Y-1132643D01*
X6132651Y-1114290D01*
X6139812Y-1097001D01*
X6150209Y-1081441D01*
X6163441Y-1068209D01*
X6179001Y-1057812D01*
X6196289Y-1050651D01*
X6210055Y-1047913D01*
X6214643Y-1047000D01*
X6233357Y-1047000D01*
X6237945Y-1047913D01*
X6237945Y-1047913D01*
G37*
G36*
X3951945Y-1047913D02*
X3965710Y-1050651D01*
X3982999Y-1057812D01*
X3998559Y-1068209D01*
X4011791Y-1081441D01*
X4022188Y-1097001D01*
X4029349Y-1114290D01*
X4033000Y-1132643D01*
X4033000Y-1151357D01*
X4029349Y-1169711D01*
X4022188Y-1186999D01*
X4011791Y-1202559D01*
X3998559Y-1215791D01*
X3982999Y-1226188D01*
X3965710Y-1233349D01*
X3951945Y-1236087D01*
X3947357Y-1237000D01*
X3928643Y-1237000D01*
X3924055Y-1236087D01*
X3910289Y-1233349D01*
X3893001Y-1226188D01*
X3877441Y-1215791D01*
X3864209Y-1202559D01*
X3853812Y-1186999D01*
X3846651Y-1169711D01*
X3843000Y-1151357D01*
X3843000Y-1132643D01*
X3846651Y-1114290D01*
X3853812Y-1097001D01*
X3864209Y-1081441D01*
X3877441Y-1068209D01*
X3893001Y-1057812D01*
X3910289Y-1050651D01*
X3924055Y-1047913D01*
X3928643Y-1047000D01*
X3947357Y-1047000D01*
X3951945Y-1047913D01*
X3951945Y-1047913D01*
G37*
G36*
X6491945Y-1047913D02*
X6505710Y-1050651D01*
X6522999Y-1057812D01*
X6538559Y-1068209D01*
X6551791Y-1081441D01*
X6562188Y-1097001D01*
X6569349Y-1114290D01*
X6573000Y-1132643D01*
X6573000Y-1151357D01*
X6569349Y-1169711D01*
X6562188Y-1186999D01*
X6551791Y-1202559D01*
X6538559Y-1215791D01*
X6522999Y-1226188D01*
X6505710Y-1233349D01*
X6491945Y-1236087D01*
X6487357Y-1237000D01*
X6468643Y-1237000D01*
X6464055Y-1236087D01*
X6450289Y-1233349D01*
X6433001Y-1226188D01*
X6417441Y-1215791D01*
X6404209Y-1202559D01*
X6393812Y-1186999D01*
X6386651Y-1169711D01*
X6383000Y-1151357D01*
X6383000Y-1132643D01*
X6386651Y-1114290D01*
X6393812Y-1097001D01*
X6404209Y-1081441D01*
X6417441Y-1068209D01*
X6433001Y-1057812D01*
X6450289Y-1050651D01*
X6464055Y-1047913D01*
X6468643Y-1047000D01*
X6487357Y-1047000D01*
X6491945Y-1047913D01*
X6491945Y-1047913D01*
G37*
G36*
X3697945Y-1047913D02*
X3711710Y-1050651D01*
X3728999Y-1057812D01*
X3744559Y-1068209D01*
X3757791Y-1081441D01*
X3768188Y-1097001D01*
X3775349Y-1114290D01*
X3779000Y-1132643D01*
X3779000Y-1151357D01*
X3775349Y-1169711D01*
X3768188Y-1186999D01*
X3757791Y-1202559D01*
X3744559Y-1215791D01*
X3728999Y-1226188D01*
X3711710Y-1233349D01*
X3697945Y-1236087D01*
X3693357Y-1237000D01*
X3674643Y-1237000D01*
X3670055Y-1236087D01*
X3656289Y-1233349D01*
X3639001Y-1226188D01*
X3623441Y-1215791D01*
X3610209Y-1202559D01*
X3599812Y-1186999D01*
X3592651Y-1169711D01*
X3589000Y-1151357D01*
X3589000Y-1132643D01*
X3592651Y-1114290D01*
X3599812Y-1097001D01*
X3610209Y-1081441D01*
X3623441Y-1068209D01*
X3639001Y-1057812D01*
X3656289Y-1050651D01*
X3670055Y-1047913D01*
X3674643Y-1047000D01*
X3693357Y-1047000D01*
X3697945Y-1047913D01*
X3697945Y-1047913D01*
G37*
G36*
X5475945Y-1047913D02*
X5489711Y-1050651D01*
X5506999Y-1057812D01*
X5522559Y-1068209D01*
X5535791Y-1081441D01*
X5546188Y-1097001D01*
X5553349Y-1114290D01*
X5557000Y-1132643D01*
X5557000Y-1151357D01*
X5553349Y-1169711D01*
X5546188Y-1186999D01*
X5535791Y-1202559D01*
X5522559Y-1215791D01*
X5506999Y-1226188D01*
X5489711Y-1233349D01*
X5475945Y-1236087D01*
X5471357Y-1237000D01*
X5452643Y-1237000D01*
X5448055Y-1236087D01*
X5434290Y-1233349D01*
X5417001Y-1226188D01*
X5401441Y-1215791D01*
X5388209Y-1202559D01*
X5377812Y-1186999D01*
X5370651Y-1169711D01*
X5367000Y-1151357D01*
X5367000Y-1132643D01*
X5370651Y-1114290D01*
X5377812Y-1097001D01*
X5388209Y-1081441D01*
X5401441Y-1068209D01*
X5417001Y-1057812D01*
X5434290Y-1050651D01*
X5448055Y-1047913D01*
X5452643Y-1047000D01*
X5471357Y-1047000D01*
X5475945Y-1047913D01*
X5475945Y-1047913D01*
G37*
G36*
X1361000Y-1105000D02*
X1181000Y-1105000D01*
X1181000Y-925000D01*
X1361000Y-925000D01*
X1361000Y-1105000D01*
X1361000Y-1105000D01*
G37*
G36*
X1047252Y-928459D02*
X1063631Y-935243D01*
X1078372Y-945093D01*
X1090907Y-957628D01*
X1100757Y-972369D01*
X1107541Y-988748D01*
X1111000Y-1006136D01*
X1111000Y-1023864D01*
X1107541Y-1041252D01*
X1100757Y-1057631D01*
X1090907Y-1072372D01*
X1078372Y-1084907D01*
X1063631Y-1094757D01*
X1047252Y-1101541D01*
X1029864Y-1105000D01*
X1012136Y-1105000D01*
X994748Y-1101541D01*
X978369Y-1094757D01*
X963628Y-1084907D01*
X951093Y-1072372D01*
X941243Y-1057631D01*
X934459Y-1041252D01*
X931000Y-1023864D01*
X931000Y-1006136D01*
X934459Y-988748D01*
X941243Y-972369D01*
X951093Y-957628D01*
X963628Y-945093D01*
X978369Y-935243D01*
X994748Y-928459D01*
X1012136Y-925000D01*
X1029864Y-925000D01*
X1047252Y-928459D01*
X1047252Y-928459D01*
G37*
G36*
X7253945Y-793913D02*
X7267710Y-796651D01*
X7284999Y-803812D01*
X7300559Y-814209D01*
X7313791Y-827441D01*
X7324188Y-843001D01*
X7331349Y-860289D01*
X7335000Y-878643D01*
X7335000Y-897357D01*
X7331349Y-915710D01*
X7324188Y-932999D01*
X7313791Y-948559D01*
X7300559Y-961791D01*
X7284999Y-972188D01*
X7267710Y-979349D01*
X7253945Y-982087D01*
X7249357Y-983000D01*
X7230643Y-983000D01*
X7226055Y-982087D01*
X7212289Y-979349D01*
X7195001Y-972188D01*
X7179441Y-961791D01*
X7166209Y-948559D01*
X7155812Y-932999D01*
X7148651Y-915710D01*
X7145000Y-897357D01*
X7145000Y-878643D01*
X7148651Y-860289D01*
X7155812Y-843001D01*
X7166209Y-827441D01*
X7179441Y-814209D01*
X7195001Y-803812D01*
X7212289Y-796651D01*
X7226055Y-793913D01*
X7230643Y-793000D01*
X7249357Y-793000D01*
X7253945Y-793913D01*
X7253945Y-793913D01*
G37*
G36*
X4713945Y-793913D02*
X4727711Y-796651D01*
X4744999Y-803812D01*
X4760559Y-814209D01*
X4773791Y-827441D01*
X4784188Y-843001D01*
X4791349Y-860289D01*
X4795000Y-878643D01*
X4795000Y-897357D01*
X4791349Y-915710D01*
X4784188Y-932999D01*
X4773791Y-948559D01*
X4760559Y-961791D01*
X4744999Y-972188D01*
X4727711Y-979349D01*
X4713945Y-982087D01*
X4709357Y-983000D01*
X4690643Y-983000D01*
X4686055Y-982087D01*
X4672290Y-979349D01*
X4655001Y-972188D01*
X4639441Y-961791D01*
X4626209Y-948559D01*
X4615812Y-932999D01*
X4608651Y-915710D01*
X4605000Y-897357D01*
X4605000Y-878643D01*
X4608651Y-860289D01*
X4615812Y-843001D01*
X4626209Y-827441D01*
X4639441Y-814209D01*
X4655001Y-803812D01*
X4672290Y-796651D01*
X4686055Y-793913D01*
X4690643Y-793000D01*
X4709357Y-793000D01*
X4713945Y-793913D01*
X4713945Y-793913D01*
G37*
G36*
X4459945Y-793913D02*
X4473711Y-796651D01*
X4490999Y-803812D01*
X4506559Y-814209D01*
X4519791Y-827441D01*
X4530188Y-843001D01*
X4537349Y-860289D01*
X4541000Y-878643D01*
X4541000Y-897357D01*
X4537349Y-915710D01*
X4530188Y-932999D01*
X4519791Y-948559D01*
X4506559Y-961791D01*
X4490999Y-972188D01*
X4473711Y-979349D01*
X4459945Y-982087D01*
X4455357Y-983000D01*
X4436643Y-983000D01*
X4432055Y-982087D01*
X4418290Y-979349D01*
X4401001Y-972188D01*
X4385441Y-961791D01*
X4372209Y-948559D01*
X4361812Y-932999D01*
X4354651Y-915710D01*
X4351000Y-897357D01*
X4351000Y-878643D01*
X4354651Y-860289D01*
X4361812Y-843001D01*
X4372209Y-827441D01*
X4385441Y-814209D01*
X4401001Y-803812D01*
X4418290Y-796651D01*
X4432055Y-793913D01*
X4436643Y-793000D01*
X4455357Y-793000D01*
X4459945Y-793913D01*
X4459945Y-793913D01*
G37*
G36*
X4205945Y-793913D02*
X4219711Y-796651D01*
X4236999Y-803812D01*
X4252559Y-814209D01*
X4265791Y-827441D01*
X4276188Y-843001D01*
X4283349Y-860289D01*
X4287000Y-878643D01*
X4287000Y-897357D01*
X4283349Y-915710D01*
X4276188Y-932999D01*
X4265791Y-948559D01*
X4252559Y-961791D01*
X4236999Y-972188D01*
X4219711Y-979349D01*
X4205945Y-982087D01*
X4201357Y-983000D01*
X4182643Y-983000D01*
X4178055Y-982087D01*
X4164289Y-979349D01*
X4147001Y-972188D01*
X4131441Y-961791D01*
X4118209Y-948559D01*
X4107812Y-932999D01*
X4100651Y-915710D01*
X4097000Y-897357D01*
X4097000Y-878643D01*
X4100651Y-860289D01*
X4107812Y-843001D01*
X4118209Y-827441D01*
X4131441Y-814209D01*
X4147001Y-803812D01*
X4164289Y-796651D01*
X4178055Y-793913D01*
X4182643Y-793000D01*
X4201357Y-793000D01*
X4205945Y-793913D01*
X4205945Y-793913D01*
G37*
G36*
X3951945Y-793913D02*
X3965710Y-796651D01*
X3982999Y-803812D01*
X3998559Y-814209D01*
X4011791Y-827441D01*
X4022188Y-843001D01*
X4029349Y-860289D01*
X4033000Y-878643D01*
X4033000Y-897357D01*
X4029349Y-915710D01*
X4022188Y-932999D01*
X4011791Y-948559D01*
X3998559Y-961791D01*
X3982999Y-972188D01*
X3965710Y-979349D01*
X3951945Y-982087D01*
X3947357Y-983000D01*
X3928643Y-983000D01*
X3924055Y-982087D01*
X3910289Y-979349D01*
X3893001Y-972188D01*
X3877441Y-961791D01*
X3864209Y-948559D01*
X3853812Y-932999D01*
X3846651Y-915710D01*
X3843000Y-897357D01*
X3843000Y-878643D01*
X3846651Y-860289D01*
X3853812Y-843001D01*
X3864209Y-827441D01*
X3877441Y-814209D01*
X3893001Y-803812D01*
X3910289Y-796651D01*
X3924055Y-793913D01*
X3928643Y-793000D01*
X3947357Y-793000D01*
X3951945Y-793913D01*
X3951945Y-793913D01*
G37*
G36*
X3697945Y-793913D02*
X3711710Y-796651D01*
X3728999Y-803812D01*
X3744559Y-814209D01*
X3757791Y-827441D01*
X3768188Y-843001D01*
X3775349Y-860289D01*
X3779000Y-878643D01*
X3779000Y-897357D01*
X3775349Y-915710D01*
X3768188Y-932999D01*
X3757791Y-948559D01*
X3744559Y-961791D01*
X3728999Y-972188D01*
X3711710Y-979349D01*
X3697945Y-982087D01*
X3693357Y-983000D01*
X3674643Y-983000D01*
X3670055Y-982087D01*
X3656289Y-979349D01*
X3639001Y-972188D01*
X3623441Y-961791D01*
X3610209Y-948559D01*
X3599812Y-932999D01*
X3592651Y-915710D01*
X3589000Y-897357D01*
X3589000Y-878643D01*
X3592651Y-860289D01*
X3599812Y-843001D01*
X3610209Y-827441D01*
X3623441Y-814209D01*
X3639001Y-803812D01*
X3656289Y-796651D01*
X3670055Y-793913D01*
X3674643Y-793000D01*
X3693357Y-793000D01*
X3697945Y-793913D01*
X3697945Y-793913D01*
G37*
G36*
X4967945Y-793913D02*
X4981711Y-796651D01*
X4998999Y-803812D01*
X5014559Y-814209D01*
X5027791Y-827441D01*
X5038188Y-843001D01*
X5045349Y-860289D01*
X5049000Y-878643D01*
X5049000Y-897357D01*
X5045349Y-915710D01*
X5038188Y-932999D01*
X5027791Y-948559D01*
X5014559Y-961791D01*
X4998999Y-972188D01*
X4981711Y-979349D01*
X4967945Y-982087D01*
X4963357Y-983000D01*
X4944643Y-983000D01*
X4940055Y-982087D01*
X4926290Y-979349D01*
X4909001Y-972188D01*
X4893441Y-961791D01*
X4880209Y-948559D01*
X4869812Y-932999D01*
X4862651Y-915710D01*
X4859000Y-897357D01*
X4859000Y-878643D01*
X4862651Y-860289D01*
X4869812Y-843001D01*
X4880209Y-827441D01*
X4893441Y-814209D01*
X4909001Y-803812D01*
X4926290Y-796651D01*
X4940055Y-793913D01*
X4944643Y-793000D01*
X4963357Y-793000D01*
X4967945Y-793913D01*
X4967945Y-793913D01*
G37*
G36*
X5221945Y-793913D02*
X5235711Y-796651D01*
X5252999Y-803812D01*
X5268559Y-814209D01*
X5281791Y-827441D01*
X5292188Y-843001D01*
X5299349Y-860289D01*
X5303000Y-878643D01*
X5303000Y-897357D01*
X5299349Y-915710D01*
X5292188Y-932999D01*
X5281791Y-948559D01*
X5268559Y-961791D01*
X5252999Y-972188D01*
X5235711Y-979349D01*
X5221945Y-982087D01*
X5217357Y-983000D01*
X5198643Y-983000D01*
X5194055Y-982087D01*
X5180290Y-979349D01*
X5163001Y-972188D01*
X5147441Y-961791D01*
X5134209Y-948559D01*
X5123812Y-932999D01*
X5116651Y-915710D01*
X5113000Y-897357D01*
X5113000Y-878643D01*
X5116651Y-860289D01*
X5123812Y-843001D01*
X5134209Y-827441D01*
X5147441Y-814209D01*
X5163001Y-803812D01*
X5180290Y-796651D01*
X5194055Y-793913D01*
X5198643Y-793000D01*
X5217357Y-793000D01*
X5221945Y-793913D01*
X5221945Y-793913D01*
G37*
G36*
X7761945Y-793913D02*
X7775710Y-796651D01*
X7792999Y-803812D01*
X7808559Y-814209D01*
X7821791Y-827441D01*
X7832188Y-843001D01*
X7839349Y-860289D01*
X7843000Y-878643D01*
X7843000Y-897357D01*
X7839349Y-915710D01*
X7832188Y-932999D01*
X7821791Y-948559D01*
X7808559Y-961791D01*
X7792999Y-972188D01*
X7775710Y-979349D01*
X7761945Y-982087D01*
X7757357Y-983000D01*
X7738643Y-983000D01*
X7734055Y-982087D01*
X7720289Y-979349D01*
X7703001Y-972188D01*
X7687441Y-961791D01*
X7674209Y-948559D01*
X7663812Y-932999D01*
X7656651Y-915710D01*
X7653000Y-897357D01*
X7653000Y-878643D01*
X7656651Y-860289D01*
X7663812Y-843001D01*
X7674209Y-827441D01*
X7687441Y-814209D01*
X7703001Y-803812D01*
X7720289Y-796651D01*
X7734055Y-793913D01*
X7738643Y-793000D01*
X7757357Y-793000D01*
X7761945Y-793913D01*
X7761945Y-793913D01*
G37*
G36*
X5729945Y-793913D02*
X5743710Y-796651D01*
X5760999Y-803812D01*
X5776559Y-814209D01*
X5789791Y-827441D01*
X5800188Y-843001D01*
X5807349Y-860289D01*
X5811000Y-878643D01*
X5811000Y-897357D01*
X5807349Y-915710D01*
X5800188Y-932999D01*
X5789791Y-948559D01*
X5776559Y-961791D01*
X5760999Y-972188D01*
X5743710Y-979349D01*
X5729945Y-982087D01*
X5725357Y-983000D01*
X5706643Y-983000D01*
X5702055Y-982087D01*
X5688289Y-979349D01*
X5671001Y-972188D01*
X5655441Y-961791D01*
X5642209Y-948559D01*
X5631812Y-932999D01*
X5624651Y-915710D01*
X5621000Y-897357D01*
X5621000Y-878643D01*
X5624651Y-860289D01*
X5631812Y-843001D01*
X5642209Y-827441D01*
X5655441Y-814209D01*
X5671001Y-803812D01*
X5688289Y-796651D01*
X5702055Y-793913D01*
X5706643Y-793000D01*
X5725357Y-793000D01*
X5729945Y-793913D01*
X5729945Y-793913D01*
G37*
G36*
X5983945Y-793913D02*
X5997710Y-796651D01*
X6014999Y-803812D01*
X6030559Y-814209D01*
X6043791Y-827441D01*
X6054188Y-843001D01*
X6061349Y-860289D01*
X6065000Y-878643D01*
X6065000Y-897357D01*
X6061349Y-915710D01*
X6054188Y-932999D01*
X6043791Y-948559D01*
X6030559Y-961791D01*
X6014999Y-972188D01*
X5997710Y-979349D01*
X5983945Y-982087D01*
X5979357Y-983000D01*
X5960643Y-983000D01*
X5956055Y-982087D01*
X5942289Y-979349D01*
X5925001Y-972188D01*
X5909441Y-961791D01*
X5896209Y-948559D01*
X5885812Y-932999D01*
X5878651Y-915710D01*
X5875000Y-897357D01*
X5875000Y-878643D01*
X5878651Y-860289D01*
X5885812Y-843001D01*
X5896209Y-827441D01*
X5909441Y-814209D01*
X5925001Y-803812D01*
X5942289Y-796651D01*
X5956055Y-793913D01*
X5960643Y-793000D01*
X5979357Y-793000D01*
X5983945Y-793913D01*
X5983945Y-793913D01*
G37*
G36*
X6237945Y-793913D02*
X6251710Y-796651D01*
X6268999Y-803812D01*
X6284559Y-814209D01*
X6297791Y-827441D01*
X6308188Y-843001D01*
X6315349Y-860289D01*
X6319000Y-878643D01*
X6319000Y-897357D01*
X6315349Y-915710D01*
X6308188Y-932999D01*
X6297791Y-948559D01*
X6284559Y-961791D01*
X6268999Y-972188D01*
X6251710Y-979349D01*
X6237945Y-982087D01*
X6233357Y-983000D01*
X6214643Y-983000D01*
X6210055Y-982087D01*
X6196289Y-979349D01*
X6179001Y-972188D01*
X6163441Y-961791D01*
X6150209Y-948559D01*
X6139812Y-932999D01*
X6132651Y-915710D01*
X6129000Y-897357D01*
X6129000Y-878643D01*
X6132651Y-860289D01*
X6139812Y-843001D01*
X6150209Y-827441D01*
X6163441Y-814209D01*
X6179001Y-803812D01*
X6196289Y-796651D01*
X6210055Y-793913D01*
X6214643Y-793000D01*
X6233357Y-793000D01*
X6237945Y-793913D01*
X6237945Y-793913D01*
G37*
G36*
X6491945Y-793913D02*
X6505710Y-796651D01*
X6522999Y-803812D01*
X6538559Y-814209D01*
X6551791Y-827441D01*
X6562188Y-843001D01*
X6569349Y-860289D01*
X6573000Y-878643D01*
X6573000Y-897357D01*
X6569349Y-915710D01*
X6562188Y-932999D01*
X6551791Y-948559D01*
X6538559Y-961791D01*
X6522999Y-972188D01*
X6505710Y-979349D01*
X6491945Y-982087D01*
X6487357Y-983000D01*
X6468643Y-983000D01*
X6464055Y-982087D01*
X6450289Y-979349D01*
X6433001Y-972188D01*
X6417441Y-961791D01*
X6404209Y-948559D01*
X6393812Y-932999D01*
X6386651Y-915710D01*
X6383000Y-897357D01*
X6383000Y-878643D01*
X6386651Y-860289D01*
X6393812Y-843001D01*
X6404209Y-827441D01*
X6417441Y-814209D01*
X6433001Y-803812D01*
X6450289Y-796651D01*
X6464055Y-793913D01*
X6468643Y-793000D01*
X6487357Y-793000D01*
X6491945Y-793913D01*
X6491945Y-793913D01*
G37*
G36*
X6745945Y-793913D02*
X6759710Y-796651D01*
X6776999Y-803812D01*
X6792559Y-814209D01*
X6805791Y-827441D01*
X6816188Y-843001D01*
X6823349Y-860289D01*
X6827000Y-878643D01*
X6827000Y-897357D01*
X6823349Y-915710D01*
X6816188Y-932999D01*
X6805791Y-948559D01*
X6792559Y-961791D01*
X6776999Y-972188D01*
X6759710Y-979349D01*
X6745945Y-982087D01*
X6741357Y-983000D01*
X6722643Y-983000D01*
X6718055Y-982087D01*
X6704289Y-979349D01*
X6687001Y-972188D01*
X6671441Y-961791D01*
X6658209Y-948559D01*
X6647812Y-932999D01*
X6640651Y-915710D01*
X6637000Y-897357D01*
X6637000Y-878643D01*
X6640651Y-860289D01*
X6647812Y-843001D01*
X6658209Y-827441D01*
X6671441Y-814209D01*
X6687001Y-803812D01*
X6704289Y-796651D01*
X6718055Y-793913D01*
X6722643Y-793000D01*
X6741357Y-793000D01*
X6745945Y-793913D01*
X6745945Y-793913D01*
G37*
G36*
X7507945Y-793913D02*
X7521710Y-796651D01*
X7538999Y-803812D01*
X7554559Y-814209D01*
X7567791Y-827441D01*
X7578188Y-843001D01*
X7585349Y-860289D01*
X7589000Y-878643D01*
X7589000Y-897357D01*
X7585349Y-915710D01*
X7578188Y-932999D01*
X7567791Y-948559D01*
X7554559Y-961791D01*
X7538999Y-972188D01*
X7521710Y-979349D01*
X7507945Y-982087D01*
X7503357Y-983000D01*
X7484643Y-983000D01*
X7480055Y-982087D01*
X7466289Y-979349D01*
X7449001Y-972188D01*
X7433441Y-961791D01*
X7420209Y-948559D01*
X7409812Y-932999D01*
X7402651Y-915710D01*
X7399000Y-897357D01*
X7399000Y-878643D01*
X7402651Y-860289D01*
X7409812Y-843001D01*
X7420209Y-827441D01*
X7433441Y-814209D01*
X7449001Y-803812D01*
X7466289Y-796651D01*
X7480055Y-793913D01*
X7484643Y-793000D01*
X7503357Y-793000D01*
X7507945Y-793913D01*
X7507945Y-793913D01*
G37*
G36*
X3443945Y-793913D02*
X3457710Y-796651D01*
X3474999Y-803812D01*
X3490559Y-814209D01*
X3503791Y-827441D01*
X3514188Y-843001D01*
X3521349Y-860289D01*
X3525000Y-878643D01*
X3525000Y-897357D01*
X3521349Y-915710D01*
X3514188Y-932999D01*
X3503791Y-948559D01*
X3490559Y-961791D01*
X3474999Y-972188D01*
X3457710Y-979349D01*
X3443945Y-982087D01*
X3439357Y-983000D01*
X3420643Y-983000D01*
X3416055Y-982087D01*
X3402289Y-979349D01*
X3385001Y-972188D01*
X3369441Y-961791D01*
X3356209Y-948559D01*
X3345812Y-932999D01*
X3338651Y-915710D01*
X3335000Y-897357D01*
X3335000Y-878643D01*
X3338651Y-860289D01*
X3345812Y-843001D01*
X3356209Y-827441D01*
X3369441Y-814209D01*
X3385001Y-803812D01*
X3402289Y-796651D01*
X3416055Y-793913D01*
X3420643Y-793000D01*
X3439357Y-793000D01*
X3443945Y-793913D01*
X3443945Y-793913D01*
G37*
G36*
X5475945Y-793913D02*
X5489711Y-796651D01*
X5506999Y-803812D01*
X5522559Y-814209D01*
X5535791Y-827441D01*
X5546188Y-843001D01*
X5553349Y-860289D01*
X5557000Y-878643D01*
X5557000Y-897357D01*
X5553349Y-915710D01*
X5546188Y-932999D01*
X5535791Y-948559D01*
X5522559Y-961791D01*
X5506999Y-972188D01*
X5489711Y-979349D01*
X5475945Y-982087D01*
X5471357Y-983000D01*
X5452643Y-983000D01*
X5448055Y-982087D01*
X5434290Y-979349D01*
X5417001Y-972188D01*
X5401441Y-961791D01*
X5388209Y-948559D01*
X5377812Y-932999D01*
X5370651Y-915710D01*
X5367000Y-897357D01*
X5367000Y-878643D01*
X5370651Y-860289D01*
X5377812Y-843001D01*
X5388209Y-827441D01*
X5401441Y-814209D01*
X5417001Y-803812D01*
X5434290Y-796651D01*
X5448055Y-793913D01*
X5452643Y-793000D01*
X5471357Y-793000D01*
X5475945Y-793913D01*
X5475945Y-793913D01*
G37*
G36*
X6999945Y-793913D02*
X7013710Y-796651D01*
X7030999Y-803812D01*
X7046559Y-814209D01*
X7059791Y-827441D01*
X7070188Y-843001D01*
X7077349Y-860289D01*
X7081000Y-878643D01*
X7081000Y-897357D01*
X7077349Y-915710D01*
X7070188Y-932999D01*
X7059791Y-948559D01*
X7046559Y-961791D01*
X7030999Y-972188D01*
X7013710Y-979349D01*
X6999945Y-982087D01*
X6995357Y-983000D01*
X6976643Y-983000D01*
X6972055Y-982087D01*
X6958289Y-979349D01*
X6941001Y-972188D01*
X6925441Y-961791D01*
X6912209Y-948559D01*
X6901812Y-932999D01*
X6894651Y-915710D01*
X6891000Y-897357D01*
X6891000Y-878643D01*
X6894651Y-860289D01*
X6901812Y-843001D01*
X6912209Y-827441D01*
X6925441Y-814209D01*
X6941001Y-803812D01*
X6958289Y-796651D01*
X6972055Y-793913D01*
X6976643Y-793000D01*
X6995357Y-793000D01*
X6999945Y-793913D01*
X6999945Y-793913D01*
G37*
G36*
X3271000Y-983000D02*
X3081000Y-983000D01*
X3081000Y-793000D01*
X3271000Y-793000D01*
X3271000Y-983000D01*
X3271000Y-983000D01*
G37*
G36*
X470460Y-97942D02*
X490424Y-101913D01*
X546840Y-125281D01*
X597614Y-159207D01*
X640793Y-202386D01*
X674719Y-253160D01*
X698087Y-309576D01*
X710000Y-369468D01*
X710000Y-430532D01*
X698087Y-490424D01*
X674719Y-546840D01*
X640793Y-597614D01*
X597614Y-640793D01*
X546840Y-674719D01*
X490424Y-698087D01*
X470460Y-702058D01*
X430532Y-710000D01*
X369467Y-710000D01*
X329540Y-702058D01*
X309576Y-698087D01*
X253160Y-674719D01*
X202386Y-640793D01*
X159207Y-597614D01*
X125281Y-546840D01*
X101913Y-490424D01*
X90000Y-430532D01*
X90000Y-369468D01*
X101913Y-309576D01*
X125281Y-253160D01*
X159207Y-202386D01*
X202386Y-159207D01*
X253160Y-125281D01*
X309576Y-101913D01*
X329540Y-97942D01*
X369467Y-90000D01*
X430532Y-90000D01*
X470460Y-97942D01*
X470460Y-97942D01*
G37*
G36*
X9670460Y-97942D02*
X9690424Y-101913D01*
X9746840Y-125281D01*
X9797614Y-159207D01*
X9840793Y-202386D01*
X9874719Y-253160D01*
X9898087Y-309576D01*
X9910000Y-369468D01*
X9910000Y-430532D01*
X9898087Y-490424D01*
X9874719Y-546840D01*
X9840793Y-597614D01*
X9797614Y-640793D01*
X9746840Y-674719D01*
X9690424Y-698087D01*
X9670460Y-702058D01*
X9630533Y-710000D01*
X9569468Y-710000D01*
X9529540Y-702058D01*
X9509576Y-698087D01*
X9453160Y-674719D01*
X9402387Y-640793D01*
X9359207Y-597614D01*
X9325282Y-546840D01*
X9301913Y-490424D01*
X9290000Y-430532D01*
X9290000Y-369468D01*
X9301913Y-309576D01*
X9325282Y-253160D01*
X9359207Y-202386D01*
X9402387Y-159207D01*
X9453160Y-125281D01*
X9509576Y-101913D01*
X9529540Y-97942D01*
X9569468Y-90000D01*
X9630533Y-90000D01*
X9670460Y-97942D01*
X9670460Y-97942D01*
G37*
M02*
