M48
;DRILL file {KiCad 5.0.0-fee4fd1~66~ubuntu18.04.1} date Thu Nov 22 16:38:11 2018
;FORMAT={-:-/ absolute / metric / decimal}
FMAT,2
METRIC,TZ
T1C0.400
T2C1.000
T3C1.100
T4C2.200
T5C2.700
T6C3.100
T7C4.100
%
G90
G05
M71
T1
X19.05Y-52.07
T2
X21.59Y-34.29
X21.59Y-36.83
X21.59Y-39.37
X21.59Y-41.91
X21.59Y-44.45
X21.59Y-46.99
X21.59Y-49.53
X21.59Y-52.07
X21.59Y-54.61
X21.59Y-57.15
X21.59Y-59.69
X21.59Y-62.23
X21.59Y-64.77
X21.59Y-67.31
X21.59Y-69.85
X21.59Y-72.39
X7.62Y-36.195
X7.62Y-38.735
X7.62Y-41.275
X7.62Y-43.815
X7.62Y-46.355
X31.75Y-8.89
X31.75Y-11.43
X31.75Y-69.85
X31.75Y-72.39
X34.29Y-8.89
X34.29Y-11.43
X34.29Y-69.85
X34.29Y-72.39
X36.83Y-8.89
X36.83Y-11.43
X36.83Y-69.85
X36.83Y-72.39
X39.37Y-8.89
X39.37Y-11.43
X39.37Y-69.85
X39.37Y-72.39
X41.91Y-8.89
X41.91Y-11.43
X41.91Y-69.85
X41.91Y-72.39
X44.45Y-8.89
X44.45Y-11.43
X44.45Y-69.85
X44.45Y-72.39
X46.99Y-8.89
X46.99Y-11.43
X46.99Y-69.85
X46.99Y-72.39
X49.53Y-8.89
X49.53Y-11.43
X49.53Y-69.85
X49.53Y-72.39
X52.07Y-8.89
X52.07Y-11.43
X52.07Y-69.85
X52.07Y-72.39
X54.61Y-8.89
X54.61Y-11.43
X54.61Y-69.85
X54.61Y-72.39
X57.15Y-8.89
X57.15Y-11.43
X57.15Y-69.85
X57.15Y-72.39
X59.69Y-8.89
X59.69Y-11.43
X59.69Y-69.85
X59.69Y-72.39
X62.23Y-8.89
X62.23Y-11.43
X62.23Y-69.85
X62.23Y-72.39
X64.77Y-8.89
X64.77Y-11.43
X64.77Y-69.85
X64.77Y-72.39
X67.31Y-8.89
X67.31Y-11.43
X67.31Y-69.85
X67.31Y-72.39
X69.85Y-8.89
X69.85Y-11.43
X69.85Y-69.85
X69.85Y-72.39
X72.39Y-8.89
X72.39Y-11.43
X72.39Y-69.85
X72.39Y-72.39
X74.93Y-8.89
X74.93Y-11.43
X74.93Y-69.85
X74.93Y-72.39
X77.47Y-8.89
X77.47Y-11.43
X77.47Y-69.85
X77.47Y-72.39
X86.44Y-46.46
X86.44Y-60.96
X88.94Y-60.96
X91.44Y-46.46
X91.44Y-60.96
X10.2Y-10.16
X12.7Y-10.16
T3
X86.36Y-17.63
X86.36Y-24.13
X90.86Y-17.63
X90.86Y-24.13
T4
X83.34Y-53.46
X94.54Y-53.46
T5
X7.97Y-23.495
X10.97Y-28.195
T6
X13.97Y-23.495
T7
X3.99Y-76.01
X3.99Y-4.01
X95.99Y-76.01
X95.99Y-4.01
T0
M30
